<?xml version="1.0" encoding="UTF-8" standalone="no"?>
<!-- Created with Inkscape (http://www.inkscape.org/) -->

<svg
   xmlns:dc="http://purl.org/dc/elements/1.1/"
   xmlns:cc="http://creativecommons.org/ns#"
   xmlns:rdf="http://www.w3.org/1999/02/22-rdf-syntax-ns#"
   xmlns:svg="http://www.w3.org/2000/svg"
   xmlns="http://www.w3.org/2000/svg"
   xmlns:sodipodi="http://sodipodi.sourceforge.net/DTD/sodipodi-0.dtd"
   xmlns:inkscape="http://www.inkscape.org/namespaces/inkscape"
   width="358.75845"
   height="446.9028"
   id="svg2"
   version="1.1"
   inkscape:version="0.48.5 r10040"
   sodipodi:docname="bamb7.svg">
  <defs
     id="defs4" />
  <sodipodi:namedview
     id="base"
     pagecolor="#ffffff"
     bordercolor="#666666"
     borderopacity="1.0"
     inkscape:pageopacity="0.0"
     inkscape:pageshadow="2"
     inkscape:zoom="0.56054688"
     inkscape:cx="4.0449988"
     inkscape:cy="-54.214011"
     inkscape:document-units="px"
     inkscape:current-layer="layer1"
     showgrid="false"
     fit-margin-top="0"
     fit-margin-left="0"
     fit-margin-right="0"
     fit-margin-bottom="0"
     inkscape:window-width="958"
     inkscape:window-height="1078"
     inkscape:window-x="1920"
     inkscape:window-y="0"
     inkscape:window-maximized="0" />
  <metadata
     id="metadata7">
    <rdf:RDF>
      <cc:Work
         rdf:about="">
        <dc:format>image/svg+xml</dc:format>
        <dc:type
           rdf:resource="http://purl.org/dc/dcmitype/StillImage" />
        <dc:title></dc:title>
      </cc:Work>
    </rdf:RDF>
  </metadata>
  <g
     inkscape:label="Layer 1"
     inkscape:groupmode="layer"
     id="layer1"
     transform="translate(-1227.6243,805.03997)">
    <g
       id="g4409"
       transform="translate(627.95819,205.15679)">
      <path
         style="fill:#c2c6c1"
         d="m 663.16729,-564.289 c -16.19117,-2.08041 -31.64596,-9.71627 -43.13975,-21.31437 -8.17926,-8.2535 -13.48275,-16.85549 -17.29636,-28.05383 l -2.72441,-8 -0.27941,-160.5 c -0.1897,-108.97163 0.0594,-162.70188 0.77589,-167.35838 4.21929,-27.42135 22.4773,-48.30881 50.50352,-57.77682 l 7,-2.3648 117.69983,-0.2738 c 127.49207,-0.2966 124.08301,-0.4228 137.75706,5.1004 19.84672,8.01644 34.93808,24.01023 41.89041,44.39535 l 2.6527,7.77805 0.27861,162 c 0.24918,144.8915 0.11051,162.83547 -1.31308,169.91106 -6.07839,30.21118 -31.4935,52.93507 -63.27751,56.57702 -10.81146,1.23882 -220.803,1.12962 -230.5275,-0.11988 z m 242.83948,-7.09261 c 17.94134,-6.10995 32.92928,-18.6847 40.36069,-33.86226 7.68348,-15.69237 7.13931,-1.82812 7.13931,-181.89353 0,-160.32918 -0.0158,-161.61693 -2.07081,-169.03278 -5.2233,-18.8489 -18.06926,-33.87237 -36.42919,-42.6043 -15.38417,-7.31662 -6.80965,-6.88272 -136,-6.88272 -130.10681,0 -120.86195,-0.5031 -137,7.45545 -13.86465,6.83742 -25.05668,18.04378 -31.49616,31.53651 -6.38038,13.36888 -6.05962,3.23605 -5.76855,182.22728 l 0.26471,162.78076 2.21768,6.51528 c 7.79512,22.90111 27.33241,40.07369 51.78232,45.51482 4.84263,1.07769 28.47217,1.30002 122.5,1.15258 l 116.5,-0.18268 8,-2.72441 z M 663.52134,-617.3481 c -4.35608,-2.96093 -5.98095,-6.10444 -5.99983,-11.60736 -0.0138,-4.01117 0.45281,-4.75481 6.98526,-11.13359 l 7,-6.83532 0,-13.06838 0,-13.06837 -4.3072,-2.96343 c -2.36895,-1.62988 -5.96895,-4.8028 -8,-7.05092 -6.57457,-7.27727 -4.8196,-15.43017 5.7877,-26.88732 l 5.5195,-5.96172 0,-11.39765 0,-11.39765 -6.10996,-5.96869 c -6.4753,-6.32559 -9.37415,-11.36804 -8.36438,-14.54956 0.88051,-2.77424 8.80073,-8.52562 14.8218,-10.76307 2.8339,-1.05308 8.47893,-2.47044 12.54451,-3.14968 12.53723,-2.09461 28.9745,1.75972 38.00443,8.91156 l 3.82395,3.02862 1.85822,-4.1208 c 3.10129,-6.87745 10.22965,-9.74968 15.3303,-6.17705 2.23064,1.56241 2.32057,2.04807 1.71774,9.27659 l -0.63614,7.62786 5.77873,5.71844 c 5.60157,5.54312 5.88509,5.68793 9.24816,4.72341 4.78031,-1.37097 10.25716,-1.24599 12.34648,0.28176 2.40456,1.75826 3.72214,8.14562 3.03707,14.72322 -0.5482,5.2635 -0.42719,5.63989 2.81395,8.75311 l 3.38677,3.25311 3.3484,-3.45466 c 3.28296,-3.38716 3.34425,-3.61161 3.13611,-11.4855 -0.19539,-7.39173 -0.0119,-8.23118 2.30533,-10.54844 2.78664,-2.78664 5.46311,-3.08664 12.2626,-1.37451 l 4.53971,1.14311 5.81131,-5.89311 5.81131,-5.89311 -0.86009,-6 c -1.09876,-7.66485 -0.46444,-10.04688 3.06464,-11.50868 5.253,-2.17586 10.64066,0.46207 13.91962,6.81539 l 1.1905,2.30671 3.18446,-2.11553 c 5.41316,-3.59611 11.39113,-5.87758 19.93882,-7.60956 7.02748,-1.42395 9.35198,-1.48847 16.14756,-0.44818 9.61028,1.47116 17.01654,4.13155 22.44093,8.06097 8.25604,5.98064 7.94986,9.15269 -1.88659,19.5451 l -6.95625,7.34943 0,11.17474 0,11.17475 5.80399,6.20448 c 6.96836,7.44919 9.19601,11.80817 9.19601,17.99435 0,4.14316 -0.49875,5.17492 -4.64352,9.60601 -2.55394,2.73037 -6.15394,5.89779 -8,7.03872 l -3.35648,2.07442 0,13.19598 0,13.19598 5.85237,5.15147 c 7.42444,6.53526 9.6178,10.83365 8.20515,16.07982 -2.81106,10.43948 -14.0533,13.09451 -24.09047,5.68932 -2.65834,-1.96126 -4.55592,-2.47569 -9.13209,-2.47569 -4.85108,0 -6.48324,0.49816 -10.18808,3.10958 -8.16387,5.75442 -17.33102,4.73652 -21.68736,-2.40813 -4.10841,-6.73801 -2.07885,-12.44309 7.39243,-20.78005 l 4.64805,-4.09137 0,-13.34692 0,-13.34692 -3.25,-2.22677 c -15.84808,-10.85844 -16.68296,-19.80239 -3.23557,-34.66224 5.46022,-6.03373 5.48557,-6.09171 5.48557,-12.54606 0,-6.1967 -0.11872,-6.5141 -2.67662,-7.15609 -2.32393,-0.58327 -3.4628,0.11439 -8.64311,5.2947 l -5.96649,5.96649 1.14311,4.53971 c 1.49918,5.9538 1.44887,10.85366 -0.13367,13.01791 -1.72233,2.35542 -8.16757,3.72392 -14.02255,2.97737 -4.79322,-0.61118 -4.80556,-0.60511 -9.70604,4.77342 l -4.90671,5.38537 0.58096,7.52388 c 0.47489,6.15017 0.29059,7.76486 -1.00938,8.84374 -2.45374,2.03643 -8.80102,0.48558 -15.38372,-3.75875 l -5.77578,-3.72405 -4,2.76718 c -4.21281,2.91441 -11.58838,5.848 -14.70289,5.848 -2.68361,0 -3.67259,-3.6821 -3.05512,-11.37455 l 0.54321,-6.7672 -4.85501,-4.92912 -4.85501,-4.92913 -7.6768,0 c -10.32985,0 -12.47402,-1.60963 -12.21637,-9.1708 0.10011,-2.93775 0.60831,-6.46362 1.12934,-7.83528 0.83874,-2.20807 0.29252,-3.22357 -4.76566,-8.85992 -5.6794,-6.3286 -5.73746,-6.36187 -9.87933,-5.66211 l -4.16636,0.70391 0,6.52844 0,6.52845 5.5195,5.96172 c 6.89804,7.4507 9.4805,12.42546 9.4805,18.26287 0,3.82563 -0.57898,5.17782 -3.6928,8.62445 -2.03105,2.24812 -5.63105,5.42104 -8,7.05092 l -4.3072,2.96343 0,13.06837 0,13.06838 7,6.83532 c 6.57058,6.41602 7,7.10527 7,11.23571 0,4.97624 -3.03467,10.36049 -7.03002,12.47298 -3.73716,1.97597 -10.40439,0.8737 -16.08877,-2.6599 -7.08194,-4.40238 -14.01004,-4.39464 -20.27689,0.0226 -6.12811,4.31948 -12.76449,4.94937 -17.58975,1.66952 z m 35.98543,-34.69247 0,-23.88337 -2.25,-0.60297 c -3.444,-0.92296 -10.32343,-0.74297 -13.1849,0.34496 l -2.5651,0.97525 0,22.85808 c 0,12.57195 0.3,23.15809 0.66667,23.52475 0.36666,0.36667 4.41666,0.66667 9,0.66667 l 8.33333,0 0,-23.88337 z m 176,0 0,-23.88337 -2.25,-0.60297 c -3.444,-0.92296 -10.32343,-0.74297 -13.1849,0.34496 l -2.5651,0.97525 0,22.85808 c 0,12.57195 0.3,23.15809 0.66667,23.52475 0.36666,0.36667 4.41666,0.66667 9,0.66667 l 8.33333,0 0,-23.88337 z m -172.5,-34.57434 c 0,-1.00455 -1.2705,-2.77501 -2.82333,-3.93437 -5.68929,-4.24767 -22.67667,-1.81223 -22.67667,3.25109 0,0.99421 0.20191,2.00957 0.44869,2.25635 0.24678,0.24678 5.98428,0.40474 12.75,0.35103 11.20937,-0.089 12.30131,-0.25978 12.30131,-1.9241 z m 176.31199,-0.29597 c 0.38246,-2.61225 -3.75178,-5.0022 -10.17635,-5.88278 -7.90342,-1.08329 -17.61372,3.62683 -15.27577,7.40973 0.26893,0.43514 6.03548,0.74903 12.81455,0.69754 11.77914,-0.0895 12.33941,-0.1881 12.63757,-2.22449 z m -89.74354,-0.28375 c 0.52207,-0.80441 1.24087,-2.58757 1.59731,-3.96257 0.35645,-1.375 4.38525,-6.58337 8.95291,-11.57417 l 8.30482,-9.07416 -2.33795,-3.4406 c -1.28588,-1.89234 -3.53777,-4.08273 -5.0042,-4.86754 -2.63406,-1.4097 -2.7714,-1.31584 -11.3738,7.77361 -4.78915,5.0603 -9.45755,9.19657 -10.37424,9.1917 -0.91668,-0.005 -5.52502,-4.14369 -10.24075,-9.19739 l -8.57406,-9.18855 -4.50924,4.70611 c -2.48009,2.58836 -4.50925,5.0589 -4.50925,5.49009 0,0.43119 3.825,4.88312 8.5,9.89317 4.675,5.01005 8.5,9.57818 8.5,10.1514 0,0.57323 0.51742,2.17783 1.14981,3.56579 1.11869,2.45525 1.39099,2.51642 10.05961,2.25962 6.4953,-0.19242 9.16703,-0.66029 9.85903,-1.72651 z m -100.81776,-9.56354 c 2.33712,-0.30938 6.11659,-0.13373 8.39882,0.39035 4.72461,1.08493 6.70497,0.31489 6.19595,-2.40921 -1.15582,-6.18547 -21.48446,-7.16511 -25.19158,-1.21399 -1.50742,2.4199 0.99112,5.13974 4.0226,4.37888 1.27869,-0.32093 4.23709,-0.83664 6.57421,-1.14603 z m 176,0 c 2.33712,-0.30938 6.11659,-0.13373 8.39882,0.39035 4.72461,1.08493 6.70497,0.31489 6.19595,-2.40921 -0.50175,-2.68512 -6.54467,-5.3768 -12.07522,-5.37862 -5.46237,-0.002 -12.34524,2.44852 -13.21032,4.7029 -0.90155,2.34941 1.42175,4.51697 4.11656,3.84061 1.27869,-0.32093 4.23709,-0.83664 6.57421,-1.14603 z m -168.85015,-13.62246 4.21984,0.90001 -0.44058,-16.93393 c -0.41882,-16.0977 -0.3304,-17.12997 1.79065,-20.90386 3.33969,-5.94218 3.10467,-10.22521 -0.77393,-14.10381 -2.88431,-2.88431 -3.79104,-3.20165 -9.14808,-3.20165 -6.57593,0 -10.53406,2.07948 -12.8184,6.73439 -1.06665,2.17359 -0.99406,3.27977 0.45351,6.91007 1.35993,3.41052 1.79461,8.24683 2.06078,22.92827 l 0.33733,18.60607 5.04952,-0.91778 c 3.01854,-0.54864 6.74678,-0.55579 9.26936,-0.0178 z m 176.18981,0.0405 4.40965,0.94048 0,-17.60944 c 0,-15.66683 0.23388,-18.17373 2.1201,-22.72456 2.03477,-4.90925 2.05178,-5.25907 0.42272,-8.69205 -5.02353,-10.58632 -24.54282,-7.66832 -24.54282,3.66896 0,1.72191 0.83956,4.69619 1.86568,6.60951 1.68121,3.13479 1.81566,5.22346 1.35979,21.12337 l -0.50589,17.6446 5.23056,-0.95069 c 3.28078,-0.5963 6.87433,-0.6001 9.64021,-0.0102 z m -123.2328,-6.84521 c 0.96345,-1.63098 3.52714,-4.39218 5.69709,-6.136 4.44343,-3.57085 5.07427,-5.83586 1.62536,-5.83586 -2.97398,0 -10.03119,6.01943 -11.65592,9.94188 -2.51096,6.06199 0.98447,7.69939 4.33347,2.02997 z m 67.24619,1.61841 c 1.22063,-3.18092 -5.45026,-11.46054 -10.88942,-13.51546 -5.06279,-1.91272 -4.10366,1.23495 2.49771,8.19701 6.65062,7.014 7.52774,7.5699 8.39171,5.31845 z m -68.63068,-14.59027 3.01641,-2.5 -10.96833,-11.06115 -10.96833,-11.06116 -4.69315,4.76479 -4.69315,4.7648 10.81456,11.59545 10.81455,11.59544 1.83052,-2.79908 c 1.00679,-1.5395 3.1879,-3.92409 4.84692,-5.29909 z m 92.78637,-14.92233 c 0.14269,-0.34885 -1.90528,-2.76644 -4.55105,-5.37242 l -4.81048,-4.73815 -10.63988,11.37206 -10.63988,11.37207 2.87195,2.12333 c 1.57958,1.16783 3.66894,3.4725 4.64302,5.12149 l 1.77106,2.99816 10.54791,-11.12113 c 5.80136,-6.11663 10.66467,-11.40656 10.80735,-11.75541 z m -175.34099,-55.99216 c -1.14486,-0.49304 -3.28236,-2.32351 -4.75,-4.0677 -2.09278,-2.48713 -2.66844,-4.2231 -2.66844,-8.04698 0,-4.71377 0.23252,-5.10458 7,-11.76556 l 7,-6.88984 0,-13.07616 0,-13.07615 -3.35648,-2.07442 c -1.84606,-1.14093 -5.44606,-4.30835 -8,-7.03872 -4.12699,-4.41209 -4.64352,-5.47406 -4.64352,-9.54698 0,-5.88723 2.56302,-10.83689 9.4805,-18.30859 l 5.5195,-5.96172 0,-11.16852 0,-11.16852 -6.95625,-7.34943 c -9.98307,-10.54731 -10.20717,-13.58563 -1.44661,-19.61305 9.39665,-6.46507 24.35936,-9.77725 35.86511,-7.9392 9.0256,1.44185 16.34822,4.09153 21.94061,7.9392 8.76055,6.02742 8.53646,9.06574 -1.44661,19.61305 l -6.95625,7.34943 0,11.16852 0,11.16852 5.5195,5.96172 c 6.90879,7.46231 9.4805,12.4232 9.4805,18.2881 0,3.93368 -0.55182,5.16082 -4.00553,8.90767 -2.20305,2.39002 -5.80305,5.59116 -8,7.11365 -3.98962,2.76481 -3.99447,2.77634 -3.99447,9.5005 l 0,6.73233 4.25,0.62743 c 4.19746,0.61967 4.32126,0.55029 10.01354,-5.61186 3.72908,-4.0369 5.54619,-6.77106 5.1478,-7.74576 -1.42778,-3.49325 -1.57333,-13.52398 -0.22218,-15.31144 1.77301,-2.34552 8.14511,-3.74802 13.61957,-2.99766 4.18733,0.57394 4.51459,0.41501 9.70943,-4.7153 l 5.37604,-5.30926 -0.58189,-6.23129 c -0.77617,-8.3118 0.0602,-11.44152 3.05752,-11.44152 3.35788,0 8.42774,1.91988 13.86029,5.24869 l 4.73012,2.8984 6.10106,-3.76579 c 4.68966,-2.89462 7.18114,-3.77915 10.76988,-3.82354 l 4.66882,-0.0578 0,8.73415 0,8.73415 4.7446,4.74729 4.74459,4.74729 7.9003,0.0186 c 6.47754,0.0152 8.29974,0.37874 10.1183,2.01856 1.99294,1.79706 2.1601,2.65957 1.64732,8.5 -0.31388,3.575 -0.70218,7.22774 -0.8629,8.1172 -0.16071,0.88946 2.24641,4.29231 5.34916,7.56188 5.19014,5.46918 5.93003,5.91098 9.25,5.52339 l 3.60863,-0.42132 0,-6.8225 c 0,-6.57374 -0.1185,-6.90369 -3.25,-9.04927 -15.83432,-10.84901 -16.69783,-20.32273 -3.15748,-34.64144 l 5.40748,-5.71833 0,-11.49973 0,-11.49973 -6.50746,-6.55771 c -9.81131,-9.88707 -10.26318,-14.30213 -2.04268,-19.95798 5.51408,-3.79379 13.69117,-6.72793 22.60363,-8.11075 14.62092,-2.26851 35.90129,4.66472 40.87467,13.31714 2.07657,3.6127 0.1395,7.50626 -7.56979,15.21556 l -6.35837,6.35836 0,11.25218 0,11.25218 5.37489,5.63501 c 13.17528,13.81291 12.92495,23.59968 -0.85727,33.51559 l -5.51762,3.96976 0,12.93916 0,12.93916 6.46559,6.18546 c 3.55607,3.40201 6.93661,7.42434 7.5123,8.93853 1.56798,4.1241 -0.33549,9.78694 -4.52663,13.46681 -4.98044,4.37289 -10.1364,4.25505 -17.88124,-0.40865 -4.85165,-2.92151 -6.76376,-3.5 -11.56873,-3.5 -4.14292,0 -6.14109,0.46486 -7.12885,1.65848 -1.99846,2.41497 -8.8572,5.29417 -12.6721,5.31956 -4.41069,0.0293 -8.88557,-2.4121 -11.10239,-6.05737 l -1.81361,-2.98224 -2.63113,3.44959 c -3.39289,4.44831 -8.51512,6.27138 -12.37481,4.40437 -2.69521,-1.30374 -2.7784,-1.58411 -2.7784,-9.36443 l 0,-8.02046 -5.40097,-6.0181 -5.40097,-6.0181 -5.09903,1.35113 c -11.20781,2.96983 -15.35634,-1.04917 -14.28927,-13.84316 0.54632,-6.55018 0.51478,-6.65674 -2.95952,-10 l -3.51173,-3.37927 -3.24412,3.83932 c -2.96711,3.5115 -3.20614,4.29738 -2.79927,9.20365 0.64299,7.75355 -0.4345,12.17464 -3.44845,14.14945 -2.23236,1.4627 -3.40979,1.53091 -9.20327,0.5331 l -6.6434,-1.14419 -5.64741,5.57651 -5.64741,5.57651 0.53265,7.77116 c 0.51749,7.55005 0.45779,7.82021 -2.09818,9.49494 -5.00152,3.27713 -11.13749,0.43164 -14.87284,-6.8971 l -1.47638,-2.89666 -0.60848,2.42437 c -1.09349,4.35682 -6.06582,8.10647 -11.3852,8.58561 -4.15186,0.37397 -5.58609,-0.0485 -10.6679,-3.1423 -8.00723,-4.87481 -14.53394,-5.00979 -21.02453,-0.43479 -4.72985,3.3339 -12.14935,4.6843 -16.18588,2.94593 z m 34.58156,-35.61026 0,-23.52475 -2.5651,-0.97525 c -3.28983,-1.25079 -9.57997,-1.25079 -12.8698,0 l -2.5651,0.97525 0,23.52475 0,23.52475 9,0 9,0 0,-23.52475 z m 176,-0.41398 0,-23.93872 -4.57907,-0.68668 c -2.51849,-0.37767 -6.45599,-0.29096 -8.75,0.19268 l -4.17093,0.87935 -0.2681,23.74605 -0.2681,23.74605 9.0181,0 9.0181,0 0,-23.93873 z m -126.20236,-4.56779 c 0.36355,-1.4984 -4.24403,-7.12683 -7.07409,-8.64143 -1.84978,-0.98998 -3.15431,0.0604 -12.74404,10.26147 l -10.68332,11.36434 4.56205,5.17439 4.56205,5.17439 10.53985,-11.05319 c 5.79692,-6.07925 10.6738,-11.60524 10.8375,-12.27997 z m 86.14708,18.06285 4.36113,-4.44367 -6.07193,-6.80633 c -3.33957,-3.74348 -8.3369,-9.01825 -11.10519,-11.72172 l -5.03325,-4.91538 -4.04774,4.04774 c -2.22626,2.22625 -4.04774,4.80384 -4.04774,5.72796 0,1.54946 19.50767,22.55507 20.94663,22.55507 0.35032,0 2.59946,-1.99965 4.99809,-4.44367 z m -77.94472,-22.60599 c 0,-6.37014 -11.53421,-16.94008 -14.04764,-12.87325 -0.53537,0.86625 1.15104,3.16882 5.12484,6.99729 3.25754,3.1384 5.9228,6.20556 5.9228,6.8159 0,0.61035 0.675,1.10972 1.5,1.10972 0.84545,0 1.5,-0.89441 1.5,-2.04966 z m 48.06451,-0.57088 c 0.77136,-1.4413 3.3224,-4.31053 5.66898,-6.37607 4.84719,-4.26667 5.36829,-6.00339 1.80131,-6.00339 -4.60345,0 -13.52196,9.98513 -12.13854,13.59026 0.85791,2.23568 3.14061,1.64361 4.66825,-1.2108 z m -0.24006,-13.97925 2.32445,-1.61791 -8.57445,-8.76238 c -4.71595,-4.81931 -8.57445,-9.6202 -8.57445,-10.66865 0,-1.04844 -0.73626,-2.95742 -1.63614,-4.24217 -1.40361,-2.00394 -2.22079,-2.25508 -5.75,-1.7671 -2.26262,0.31285 -5.62058,0.0325 -7.46212,-0.62301 -3.12075,-1.11085 -3.51146,-1.0021 -5.75,1.60035 -1.32096,1.5357 -2.40174,3.49543 -2.40174,4.35495 0,0.85952 -3.67215,5.58513 -8.16034,10.50134 l -8.16034,8.93858 2.93653,2.69289 c 1.6151,1.4811 3.73144,3.8179 4.70298,5.1929 l 1.76644,2.5 8.05129,-8.75 c 4.42821,-4.8125 8.84824,-8.75 9.82229,-8.75 0.97404,0 5.72768,4.03507 10.56363,8.96682 l 8.79264,8.96682 2.59244,-3.45775 c 1.42584,-1.90177 3.63844,-4.18582 4.91689,-5.07568 z M 703.30725,-871.3597 c 0.44874,-2.33009 -4.3384,-5.60566 -9.27422,-6.34583 -5.07111,-0.76046 -15.31275,1.82836 -16.18064,4.09004 -1.36973,3.56947 0.11698,4.02579 12.78849,3.9252 10.39321,-0.0825 12.412,-0.34858 12.66637,-1.66941 z m 176,0 c 0.43136,-2.23987 -4.16858,-5.51494 -8.85888,-6.30737 -7.64586,-1.29176 -18.13525,2.95687 -16.67772,6.75515 0.38457,1.00217 3.48188,1.29616 12.87023,1.22163 10.39321,-0.0825 12.412,-0.34858 12.66637,-1.66941 z m -188.30048,-10.24968 c 2.2,0.0233 5.8,0.24708 8,0.49728 3.72131,0.42321 4,0.28072 4,-2.0451 0,-5.4754 -12.74015,-7.88969 -21.25,-4.02693 -4.32257,1.96209 -5.21133,3.6656 -3.04344,5.83349 0.80162,0.80162 2.39582,0.95356 4.75,0.45273 1.94889,-0.41462 5.34344,-0.73477 7.54344,-0.71147 z m 176,0 c 2.2,0.0233 5.8,0.24708 8,0.49728 3.72131,0.42321 4,0.28072 4,-2.0451 0,-5.22555 -11.93155,-7.81174 -20.40259,-4.4223 -4.32829,1.73184 -5.76077,3.91807 -3.97617,6.06838 0.8385,1.01033 2.14707,1.18216 4.76725,0.62598 1.98633,-0.42164 5.41151,-0.74754 7.61151,-0.72424 z m -173.5,-14.12426 c 0.825,0.2148 2.65365,0.6449 4.06367,0.95578 l 2.56368,0.56523 -0.44406,-17.06792 c -0.4225,-16.2391 -0.33572,-17.26071 1.78716,-21.03786 3.02011,-5.37356 3.04872,-10.12503 0.08,-13.2851 -5.08527,-5.41301 -14.63664,-5.68224 -20.35404,-0.57374 -3.56108,3.18183 -4.00737,7.58426 -1.29964,12.82043 1.2958,2.50579 1.60323,6.53283 1.60323,21.00061 l 0,17.90032 5.25,-0.83415 c 2.8875,-0.45878 5.925,-0.6584 6.75,-0.4436 z m 178.58715,0.49382 4.41285,0.82441 0,-17.74378 c 0,-15.6548 0.23888,-18.28381 2.02909,-22.33088 2.44844,-5.5351 1.87825,-8.72586 -2.16767,-12.13029 -4.10234,-3.45189 -8.96374,-4.15138 -14.40623,-2.07288 -7.43138,2.83807 -9.42746,8.38974 -5.58951,15.54601 1.68103,3.13446 1.81566,5.22353 1.36026,21.10715 l -0.50543,17.62837 5.2269,-0.82626 c 2.87479,-0.45444 7.21267,-0.45528 9.63974,-0.002 z"
         id="path4423"
         inkscape:connector-curvature="0" />
      <path
         style="fill:#bebebe"
         d="m 663.16729,-564.289 c -16.19117,-2.08041 -31.64596,-9.71627 -43.13975,-21.31437 -8.17926,-8.2535 -13.48275,-16.85549 -17.29636,-28.05383 l -2.72441,-8 -0.27941,-160.5 c -0.1897,-108.97163 0.0594,-162.70188 0.77589,-167.35838 4.21929,-27.42135 22.4773,-48.30881 50.50352,-57.77682 l 7,-2.3648 117.69983,-0.2738 c 127.49207,-0.2966 124.08301,-0.4228 137.75706,5.1004 19.84672,8.01644 34.93808,24.01023 41.89041,44.39535 l 2.6527,7.77805 0.27861,162 c 0.24918,144.8915 0.11051,162.83547 -1.31308,169.91106 -6.07839,30.21118 -31.4935,52.93507 -63.27751,56.57702 -10.81146,1.23882 -220.803,1.12962 -230.5275,-0.11988 z m 242.83948,-7.09261 c 17.94134,-6.10995 32.92928,-18.6847 40.36069,-33.86226 7.68348,-15.69237 7.13931,-1.82812 7.13931,-181.89353 0,-160.32918 -0.0158,-161.61693 -2.07081,-169.03278 -5.2233,-18.8489 -18.06926,-33.87237 -36.42919,-42.6043 -15.38417,-7.31662 -6.80965,-6.88272 -136,-6.88272 -130.10681,0 -120.86195,-0.5031 -137,7.45545 -13.86465,6.83742 -25.05668,18.04378 -31.49616,31.53651 -6.38038,13.36888 -6.05962,3.23605 -5.76855,182.22728 l 0.26471,162.78076 2.21768,6.51528 c 7.79512,22.90111 27.33241,40.07369 51.78232,45.51482 4.84263,1.07769 28.47217,1.30002 122.5,1.15258 l 116.5,-0.18268 8,-2.72441 z m -241.8587,-45.67348 c -4.14858,-2.7351 -6.62718,-7.04044 -6.63471,-11.52452 -0.006,-3.52648 0.7,-4.62901 6.99341,-10.92242 l 7,-7 -0.0539,-13.57758 -0.0539,-13.57759 -5.96181,-4.25168 c -13.03371,-9.29503 -13.2989,-17.78925 -0.95667,-30.64241 l 6.02631,-6.27577 0,-12.14008 0,-12.14007 -5.9546,-5.66944 c -7.4074,-7.05266 -9.80945,-11.5844 -7.96603,-15.02884 4.07001,-7.60489 26.24891,-15.49996 38.80651,-13.81403 10.89574,1.46281 22.03035,5.85127 27.3168,10.76631 l 2.70268,2.5128 1.10838,-3.35841 c 1.44473,-4.37758 7.24543,-9.45838 10.79855,-9.45838 1.50848,0 3.79549,0.7374 5.08223,1.63867 2.21896,1.55422 2.30517,2.03269 1.67269,9.28329 l -0.66685,7.64462 5.34905,5.88598 5.34905,5.88598 4.64359,-1.16927 c 7.17329,-1.80626 10.11482,-1.48276 12.83364,1.41138 2.19735,2.33905 2.40985,3.35915 2.26987,10.89645 -0.15296,8.23627 -0.12171,8.34753 3.26757,11.63255 l 3.42201,3.31675 3.20744,-3.20744 c 3.10809,-3.1081 3.19787,-3.43642 2.89886,-10.60126 -0.53285,-12.76799 3.10095,-16.31433 13.84775,-13.51443 l 5.51942,1.43799 5.68456,-6.08549 5.68457,-6.08548 -0.83631,-5.93515 c -0.98372,-6.98128 0.20105,-10.44473 4.03403,-11.79272 3.64452,-1.28171 8.97541,1.49181 11.96699,6.2261 l 2.41102,3.81553 3.87844,-2.80953 c 8.71131,-6.31044 23.73573,-9.70085 35.00849,-7.90002 12.2747,1.9609 25.54784,8.49135 27.94297,13.74809 1.50998,3.31404 -0.88742,7.54146 -8.3953,14.8037 l -5.88807,5.69544 0,11.86282 0,11.86282 4.51458,4.51458 c 9.97994,9.97993 12.78232,18.25881 8.53722,25.2209 -1.92729,3.16081 -11.39852,11.31715 -13.1416,11.31715 -0.50333,0 -0.9102,6.22096 -0.9102,13.91689 l 0,13.91688 6.40757,6.15287 c 8.42191,8.08713 9.386,10.43095 6.74574,16.39968 -2.23435,5.05112 -6.95352,8.60392 -11.43655,8.60994 -2.86879,0.004 -12.08743,-4.16897 -13.20501,-5.97724 -0.34638,-0.56046 -3.6658,-1.01902 -7.37649,-1.01902 -5.60853,0 -7.31279,0.41765 -10.10231,2.47569 -7.99167,5.89607 -14.81022,5.72701 -20.44213,-0.50685 -2.89111,-3.20011 -3.59082,-4.77364 -3.59082,-8.07517 0,-3.74356 0.60944,-4.71001 7,-11.10057 l 7,-7 -0.0258,-13.64655 -0.0258,-13.64655 -5.14142,-3.48947 c -6.56017,-4.45241 -10.80698,-10.22919 -10.80698,-14.70041 0,-4.74633 3.33689,-10.76339 9.62511,-17.35594 l 5.37489,-5.63501 0,-7.08013 0,-7.08013 -3.07151,-0.67462 c -1.68932,-0.37103 -3.15182,-0.50886 -3.25,-0.30628 -0.0982,0.20258 -2.55414,2.86037 -5.45771,5.90619 l -5.27922,5.53787 1.2144,7.08187 c 1.07306,6.25759 1.01937,7.37953 -0.46132,9.63935 -2.10269,3.20911 -7.38647,4.71741 -13.84579,3.9524 -4.90755,-0.58122 -5.0553,-0.51739 -9.96913,4.30717 l -4.98776,4.89714 0.65925,7.11913 c 0.74801,8.07776 -0.36826,11.3864 -3.83639,11.3711 -2.66461,-0.0118 -11.87222,-4.18228 -15.45424,-6.9999 -2.34218,-1.84236 -2.76424,-1.88837 -4.66779,-0.50889 -3.69474,2.67751 -11.00072,6.25225 -14.18345,6.93981 -4.74097,1.02418 -5.93294,-1.15924 -5.62747,-10.30827 0.25412,-7.61138 0.25332,-7.61398 -3.84165,-12.36298 l -4.09583,-4.75 -7.78734,0 c -12.21909,0 -15.18962,-3.43209 -12.57075,-14.52401 l 1.41097,-5.97599 -5.81852,-5.85988 c -5.68405,-5.72446 -5.91396,-5.84376 -9.94863,-5.1621 l -4.13012,0.69778 0,7.07717 0,7.07717 6.02631,6.27577 c 12.34223,12.85316 12.07704,21.34738 -0.95668,30.64241 l -5.9618,4.25168 -0.0539,13.57759 -0.0539,13.57758 7,7 c 6.21335,6.21336 7,7.42753 7,10.80438 0,4.71648 -3.19328,10.07192 -7.25929,12.17453 -4.23357,2.18927 -10.07513,1.22007 -15.4405,-2.5618 -3.83952,-2.70632 -5.17446,-3.07228 -11.20703,-3.07228 -5.15989,0 -7.18669,0.40889 -8.22077,1.65848 -1.93692,2.3406 -8.81631,5.29475 -12.37244,5.31297 -1.65,0.008 -4.28642,-0.83275 -5.8587,-1.86934 z m 35.3587,-34.98548 0,-23.88337 -2.25,-0.60297 c -3.444,-0.92296 -10.32343,-0.74297 -13.1849,0.34496 l -2.5651,0.97525 0,23.52475 0,23.52475 9,0 9,0 0,-23.88337 z m 176,0 0,-23.88337 -2.25,-0.60297 c -3.444,-0.92296 -10.32343,-0.74297 -13.1849,0.34496 l -2.5651,0.97525 0,23.52475 0,23.52475 9,0 9,0 0,-23.88337 z m -172.00006,-34.92286 c 9e-5,-3.5055 -7.66391,-6.61147 -14.55809,-5.89992 -6.91689,0.71388 -11.44185,3.09274 -11.44185,6.01521 0,2.22952 0.1622,2.25728 12.99994,2.22432 12.899,-0.0331 12.99994,-0.0513 13,-2.33961 z m 79.93027,1.52369 c 4.80553,0.64456 6.68065,-0.59803 7.60032,-5.03656 0.44772,-2.16079 3.38518,-5.94388 9.15953,-11.79637 l 8.50043,-8.61548 -1.57526,-3.04623 c -1.66572,-3.22113 -6.11103,-7.22282 -8.02355,-7.22282 -0.62623,0 -4.72804,3.63121 -9.11514,8.06935 -4.3871,4.43815 -8.78448,8.51492 -9.77196,9.0595 -1.50139,0.82798 -3.22094,-0.50044 -10.5,-8.11173 l -8.70458,-9.10187 -3.00407,1.87812 c -1.65224,1.03296 -3.87839,3.50162 -4.947,5.48591 l -1.94292,3.6078 8.53051,8.84905 c 5.84156,6.05969 8.73429,9.86791 9.17696,12.08128 0.74697,3.73482 3.74991,5.3116 7.86707,4.13081 1.48445,-0.42574 4.52179,-0.52957 6.74966,-0.23076 z m 95.86209,-1.71007 c -0.41988,-3.58056 -4.95114,-5.51622 -12.7923,-5.46461 -7.29364,0.048 -13,2.38157 -13,5.31623 0,0.99421 0.1875,1.99516 0.41667,2.22432 0.22916,0.22917 6.0982,0.41667 13.0423,0.41667 l 12.62563,0 -0.2923,-2.49261 z m -188.2923,-9.47543 c 2.2,0.0146 5.8,0.23836 8,0.49728 3.68621,0.43383 4.02325,0.27129 4.29641,-2.07189 0.2403,-2.06126 -0.38145,-2.86591 -3.28392,-4.25 -7.31947,-3.49042 -21.45328,-1.1686 -22.35795,3.67282 -0.49121,2.62878 1.73177,3.7149 5.84546,2.85603 1.925,-0.40192 5.3,-0.71882 7.5,-0.70424 z m 173,-0.0365 c 2.2,-0.33008 6.25,-0.15651 9,0.3857 5.46354,1.07725 8.11535,-0.11404 6.95939,-3.12641 -2.5092,-6.53889 -25.06634,-6.00259 -26.30485,0.62539 -0.42814,2.29125 1.63914,3.80294 4.34546,3.1776 1.1,-0.25418 3.8,-0.7322 6,-1.06228 z m -170,-13.94133 c 1.65,0.32733 3.72139,0.7959 4.60309,1.04126 1.43854,0.40031 1.55326,-1.27979 1.11767,-16.36842 -0.42435,-14.69897 -0.26435,-17.24202 1.27166,-20.21234 3.07651,-5.94932 3.55462,-8.96632 2.00764,-12.66876 -3.52609,-8.43911 -20.55811,-8.2379 -24.11917,0.28493 -1.21898,2.91741 -1.18017,3.84051 0.31925,7.59511 1.34041,3.35642 1.77931,8.27032 2.04424,22.88732 l 0.33737,18.61326 4.70913,-0.88376 c 2.59001,-0.48604 6.05912,-0.61591 7.70912,-0.28857 z m 176,0 c 1.65,0.32733 3.7875,0.81688 4.75,1.08788 1.62036,0.45624 1.75,-0.84825 1.75,-17.60984 0,-13.9717 0.32541,-18.60797 1.42602,-20.31738 2.16555,-3.36341 2.79095,-8.87097 1.33025,-11.71482 -1.5895,-3.0946 -7.17125,-5.99638 -11.53839,-5.99845 -4.03487,-0.002 -10.05784,2.42032 -11.83359,4.75906 -1.90615,2.51048 -1.67261,9.25133 0.44137,12.73939 1.62562,2.68225 1.77103,4.8688 1.37293,20.64394 l -0.44526,17.64393 4.87334,-0.91443 c 2.68033,-0.50291 6.22333,-0.64659 7.87333,-0.31925 z m -120.56506,-6.80413 c 1.68257,-2.3375 4.40923,-5.15 6.05926,-6.25 3.53645,-2.35759 4.03571,-5.5 0.87383,-5.5 -3.48064,0 -8.79004,3.92681 -10.89912,8.06093 -4.14734,8.12948 -1.20217,10.86898 3.96603,3.68907 z m 67.06506,1.71016 c 0,-6.7934 -12.72137,-17.9558 -14.67158,-12.87361 -0.47242,1.2311 0.37499,2.55614 2.96205,4.63155 1.99309,1.59891 4.57979,4.45394 5.74822,6.34451 2.18013,3.52751 5.96131,4.73111 5.96131,1.89755 z m -71.03084,-11.62221 4.97556,-5.16206 -10.57439,-11.33794 c -5.81591,-6.23587 -10.86598,-11.33773 -11.22236,-11.33746 -0.35638,2.7e-4 -2.58574,2.25062 -4.95413,5.00078 -3.89906,4.52758 -4.17537,5.18701 -2.92276,6.97536 1.21412,1.73341 18.83263,20.66108 19.47572,20.92289 0.13574,0.0553 2.48581,-2.22244 5.22236,-5.06157 z m 95.03084,-18.35195 c 0,-0.58827 -2.05001,-3.07578 -4.55558,-5.52779 l -4.55559,-4.45821 -11.0326,11.25533 -11.03261,11.25534 4.83819,5.47973 4.83819,5.47973 10.75,-11.20728 c 5.9125,-6.164 10.75,-11.68858 10.75,-12.27685 z m -176.70145,-56.44552 c -3.95922,-2.41407 -6.29855,-6.76056 -6.29855,-11.70274 0,-3.33823 0.78781,-4.5324 7,-10.61063 l 7,-6.84905 0,-13.93903 c 0,-7.70923 -0.4068,-13.93903 -0.9102,-13.93903 -0.50061,0 -3.22561,-1.83022 -6.05554,-4.06715 -12.09865,-9.56344 -12.11505,-17.77345 -0.0606,-30.32694 l 6.02631,-6.27577 0,-11.91946 0,-11.91946 -6.84214,-7.04857 c -8.64717,-8.90807 -9.44847,-11.51478 -4.96334,-16.14638 7.90331,-8.16142 25.73497,-13.25287 39.1507,-11.17865 12.4346,1.92252 23.18285,7.1801 27.19424,13.30226 1.48242,2.26247 1.48199,2.73266 -0.005,5.86713 -0.88935,1.87415 -4.29833,6.00116 -7.57552,9.17113 l -5.95894,5.76359 0,12.0542 0,12.05421 6.02631,6.27577 c 12.05448,12.55349 12.03808,20.7635 -0.0606,30.32694 -2.82991,2.23693 -5.5549,4.06715 -6.05551,4.06715 -0.50061,0 -0.9102,3.31749 -0.9102,7.37219 l 0,7.37219 4.19672,0.67109 c 4.1022,0.65596 4.32945,0.53836 10.08877,-5.22096 l 5.89204,-5.89204 -1.08319,-3.90123 c -1.89823,-6.83673 -1.40458,-11.76116 1.44761,-14.44065 2.2714,-2.13387 3.37174,-2.37034 10.33841,-2.22181 l 7.79646,0.16622 4.41159,-4.49918 4.41159,-4.49918 0,-8.58318 c 0,-6.58945 0.35324,-8.80859 1.52075,-9.55359 2.23661,-1.42723 8.94326,0.66821 14.84058,4.63681 l 5.00541,3.36839 3.62203,-2.46123 c 5.22319,-3.54925 11.58991,-6.26653 14.74218,-6.29188 3.42416,-0.0275 4.26371,2.70531 3.4816,11.33315 l -0.55703,6.14489 4.9055,5.30155 4.90551,5.30155 5.79874,-0.65605 c 7.37711,-0.83463 12.85008,1.1722 13.82853,5.07065 0.69301,2.76117 0.0402,10.71239 -1.12672,13.72433 -0.49173,1.26917 0.91404,3.37315 5.17899,7.75123 5.57668,5.72461 6.03153,5.97927 9.60393,5.37713 l 3.75,-0.63207 -0.0258,-7.11916 -0.0258,-7.11916 -5.14142,-3.48947 c -6.56017,-4.45241 -10.80698,-10.22919 -10.80698,-14.70041 0,-4.74633 3.33689,-10.76339 9.62511,-17.35594 l 5.37489,-5.63501 0,-12.28472 0,-12.28472 -5.04075,-4.57277 c -9.84545,-8.9314 -11.22558,-13.97991 -5.25488,-19.22225 8.43567,-7.40662 24.67629,-11.74445 37.27883,-9.95709 8.38796,1.18962 16.19803,4.02479 22.39571,8.12997 8.81804,5.84083 8.58056,9.03345 -1.44071,19.36843 l -6.9382,7.1554 0,11.75324 0,11.75323 4.67665,4.67106 c 13.96992,13.95321 13.90785,22.6249 -0.23838,33.30541 l -5.43827,4.10593 0,13.29674 0,13.29674 6.40757,6.15287 c 8.42191,8.08713 9.386,10.43095 6.74574,16.39968 -4.01942,9.08657 -12.88486,11.00736 -21.80019,4.72326 -3.75869,-2.64937 -5.30559,-3.10958 -10.45218,-3.10958 -5.13496,0 -6.72427,0.47039 -10.60078,3.13749 -8.21607,5.65281 -17.46909,4.52093 -21.28187,-2.60331 -0.74594,-1.3938 -1.61771,-2.52861 -1.93727,-2.5218 -0.31956,0.007 -1.58834,1.5676 -2.81952,3.46843 -2.72122,4.20133 -7.35111,5.79048 -11.7615,4.03698 l -3,-1.19275 0,-8.61573 0,-8.61574 -5.35032,-5.42981 -5.35031,-5.42981 -5.14969,1.37116 c -7.00734,1.86577 -8.10538,1.76717 -11.34392,-1.0187 -2.65744,-2.28599 -2.8072,-2.86031 -2.83303,-10.86431 -0.0259,-8.01437 -0.18804,-8.63382 -3.14073,-11.99676 l -3.11346,-3.54603 -3.3495,3.45581 c -3.25513,3.35844 -3.34978,3.69167 -3.35927,11.82683 -0.009,7.47502 -0.26926,8.64755 -2.43408,10.95454 -2.71745,2.89589 -4.62471,3.11404 -12.11316,1.3855 l -5.19006,-1.19801 -5.27476,5.94484 -5.27475,5.94483 0.52116,7.60357 c 0.48962,7.14343 0.37864,7.70339 -1.83399,9.25317 -1.29533,0.90729 -3.26751,1.64793 -4.38264,1.64587 -3.43627,-0.006 -8.18337,-3.62075 -10.14323,-7.72299 l -1.8677,-3.90936 -1.70014,3.79739 c -3.71441,8.29641 -12.89787,9.98575 -21.4633,3.94828 -3.89758,-2.74727 -5.20952,-3.10958 -11.25991,-3.10958 -5.00886,0 -7.19899,0.42253 -8.15387,1.57309 -2.10076,2.53126 -8.58856,5.42722 -12.1495,5.42317 -1.80941,-0.002 -4.73049,-0.88215 -6.49129,-1.95578 z m 35.70145,-34.92385 0,-23.88337 -2.25,-0.60297 c -3.444,-0.92296 -10.32343,-0.74297 -13.1849,0.34496 l -2.5651,0.97525 0,23.52475 0,23.52475 9,0 9,0 0,-23.88337 z m 176,0 0,-23.88337 -2.25,-0.60297 c -3.444,-0.92296 -10.32343,-0.74297 -13.1849,0.34496 l -2.5651,0.97525 0,23.52475 0,23.52475 9,0 9,0 0,-23.88337 z m -126,-5.25536 c 0,-2.02576 -6.40578,-8.86127 -8.30418,-8.86127 -1.09813,0 -14.23078,12.8791 -20.66886,20.2698 l -2.41278,2.76979 4.94291,5.06691 4.94291,5.06691 10.75,-11.25876 c 5.9125,-6.19232 10.75,-12.06634 10.75,-13.05338 z m 86.48423,19.15474 4.90904,-4.98398 -8.89519,-9.26602 c -4.89235,-5.0963 -9.91375,-10.3637 -11.15866,-11.70531 -2.10299,-2.26635 -2.45415,-2.33726 -4.95263,-1.00011 -1.47903,0.79155 -3.79449,3.10947 -5.14546,5.15093 l -2.45631,3.71173 10.82974,11.53838 c 5.95636,6.3461 11.08415,11.53837 11.39509,11.53837 0.31093,0 2.7744,-2.24279 5.47438,-4.98399 z m -78.49082,-23.76601 c -0.0117,-4.87122 -5.74113,-11.39563 -11.21324,-12.76904 -4.56683,-1.1462 -4.38615,1.48106 0.40577,5.90026 2.45639,2.26533 5.2712,5.35628 6.25512,6.86878 0.98393,1.5125 2.41221,2.75 3.17395,2.75 0.84583,0 1.38242,-1.07054 1.3784,-2.75 z m 48.94055,-0.64315 c 1.1534,-1.86623 3.6651,-4.58914 5.58156,-6.05089 1.91647,-1.46176 3.48448,-3.30984 3.48448,-4.10685 0,-1.9777 -4.43588,-1.86484 -7.57617,0.19275 -2.79289,1.82998 -7.42383,9.12586 -7.42383,11.696 0,2.93275 3.72277,1.84677 5.93396,-1.73101 z m -3.97126,-9.7622 4.9691,-5.15535 -6.94829,-7.70759 c -3.82155,-4.23917 -7.63121,-8.27436 -8.4659,-8.96709 -0.83468,-0.69273 -1.51761,-2.29727 -1.51761,-3.56564 0,-3.68109 -2.72695,-5.643 -7.3989,-5.32314 -2.2556,0.15443 -5.53721,-0.0657 -7.29245,-0.4891 -4.25711,-1.02699 -6.98704,0.58013 -7.82218,4.60494 -0.46691,2.25021 -3.2826,5.90031 -9.10062,11.79753 l -8.42452,8.53921 5.13369,5.32611 5.13369,5.32612 8.81649,-8.77564 c 8.71379,-8.67342 8.84502,-8.75696 11.2647,-7.17152 1.34651,0.88226 5.50353,5.00441 9.23781,9.16031 3.73428,4.15591 6.93727,7.5562 7.11775,7.5562 0.18048,0 2.56424,-2.31991 5.29724,-5.15535 z m -98.9627,-14.54311 c 0,-3.44163 -5.19741,-5.73415 -13,-5.73415 -7.80259,0 -13,2.29252 -13,5.73415 0,2.21818 0.18487,2.25018 13,2.25018 12.81513,0 13,-0.032 13,-2.25018 z m 175.99997,-0.10777 c 5e-5,-3.61172 -7.67149,-6.62527 -14.74843,-5.79351 -6.60694,0.77651 -11.25154,3.02987 -11.25154,5.45875 0,0.99421 0.20675,2.01441 0.45944,2.2671 0.2527,0.25269 6.10268,0.44019 12.99998,0.41667 12.41655,-0.0424 12.54053,-0.0656 12.54055,-2.34901 z m -186.49997,-9.37791 c 2.75,0.15578 6.125,0.37344 7.5,0.48369 2.05345,0.16465 2.5,-0.2461 2.5,-2.29955 0,-3.3968 -5.32282,-5.9964 -12.28212,-5.99845 -8.7834,-0.003 -14.44444,3.3597 -12.81335,7.61027 0.51528,1.34279 1.40939,1.47069 5.35699,0.7663 2.60616,-0.46503 6.98848,-0.71805 9.73848,-0.56226 z m 169.45078,0.10128 c 3.65574,-0.78402 6.48021,-0.77598 10.23436,0.0291 4.16138,0.89246 5.452,0.84516 6.53674,-0.23959 5.08718,-5.08717 -10.54051,-9.93645 -20.62598,-6.40025 -3.87815,1.35977 -5.70295,3.66922 -4.78643,6.05764 0.73916,1.92621 1.89389,2.00012 8.64131,0.55306 z M 692.81007,-895.6919 c 0.65818,0.1989 2.59566,0.60161 4.3055,0.89493 l 3.10879,0.53329 -0.501,-16.51695 c -0.48031,-15.83501 -0.40438,-16.71016 1.83899,-21.19676 4.3096,-8.61891 2.31973,-15.19384 -5.21213,-17.22197 -7.49023,-2.0169 -15.88956,0.86707 -17.7067,6.07972 -0.85593,2.45533 -0.73243,3.96626 0.59509,7.28039 1.30265,3.25206 1.75017,8.31695 2.01241,22.77626 l 0.33724,18.59422 5.01255,-0.79238 c 2.75691,-0.43581 5.55107,-0.62964 6.20926,-0.43075 z m 174.1967,0.24899 c 2.76344,0 6.01205,0.31345 7.21913,0.69656 l 2.19469,0.69657 0.34107,-18.30371 c 0.28551,-15.32236 0.65876,-19.08028 2.29156,-23.07137 1.93937,-4.74049 1.9391,-4.78875 -0.048,-8.46616 -3.70772,-6.86173 -14.83838,-8.21682 -21.49372,-2.61673 -2.45496,2.06572 -3.00407,3.28971 -3.00101,6.68944 0.002,2.28861 0.82192,5.51111 1.82192,7.16111 1.6277,2.68569 1.77099,4.871 1.36763,20.85822 l -0.45057,17.85821 2.36642,-0.75107 c 1.30154,-0.41309 4.62742,-0.75107 7.39086,-0.75107 z"
         id="path4421"
         inkscape:connector-curvature="0" />
      <path
         style="fill:#868f85"
         d="m 663.69963,-564.2115 c -17.13298,-2.27367 -30.01769,-8.72633 -42.76271,-21.41555 -6.96353,-6.93305 -10.02057,-10.88801 -13.16365,-17.03015 -8.44748,-16.50787 -7.7665,-0.28682 -7.7665,-185 l 0,-164 2.72441,-8 c 8.3742,-24.59011 27.91213,-42.4877 52.92852,-48.4849 8.09666,-1.9411 11.78756,-2.0013 123.03169,-2.0081 124.18148,-0.01 121.17336,-0.1284 134.81248,5.4137 15.72459,6.38947 30.08644,19.78404 37.51721,34.99041 8.04022,16.45357 7.5813,4.66829 7.26579,186.58889 l -0.2801,161.5 -2.82357,8 c -3.4534,9.78451 -7.13773,16.34546 -13.07727,23.2876 -10.10081,11.80584 -23.29262,20.23289 -38.31244,24.47433 l -7.78672,2.19889 -113,0.16094 c -62.15,0.0885 -115.83821,-0.21571 -119.30714,-0.67606 z m 243.19729,-7.23568 c 18.53096,-6.5526 32.23229,-18.25587 40.04542,-34.2056 7.01672,-14.32394 6.56602,-1.85878 6.54965,-181.14876 -0.0165,-180.73805 0.49401,-167.84593 -7.23635,-182.74162 -4.92036,-9.48108 -15.94267,-21.1761 -24.91427,-26.43483 -7.29846,-4.27801 -17.72244,-7.88291 -26.43665,-9.14251 -9.31766,-1.3468 -222.47825,-1.3468 -231.7959,0 -15.72092,2.2724 -28.0528,8.4897 -39.59683,19.9633 -8.75505,8.70164 -14.03197,17.8747 -17.03322,29.60948 -1.92261,7.51732 -1.972,11.74638 -1.972,168.84038 0,140.37179 0.19445,161.89777 1.50937,167.09004 4.90895,19.38422 17.65463,35.05277 35.68281,43.86571 16.05956,7.85059 8.87117,7.47787 140.30782,7.27499 l 117,-0.1806 7.89015,-2.78998 z m -242.74885,-45.60791 c -4.14858,-2.7351 -6.62718,-7.04044 -6.63471,-11.52452 -0.006,-3.52648 0.7,-4.62901 6.99341,-10.92242 l 7,-7 -0.0539,-13.57758 -0.0539,-13.57759 -5.96181,-4.25168 c -13.03371,-9.29503 -13.2989,-17.78925 -0.95667,-30.64241 l 6.02631,-6.27577 0,-12.14008 0,-12.14007 -5.9546,-5.66944 c -7.4074,-7.05266 -9.80945,-11.5844 -7.96603,-15.02884 4.07001,-7.60489 26.24891,-15.49996 38.80651,-13.81403 10.89574,1.46281 22.03035,5.85127 27.3168,10.76631 l 2.70268,2.5128 1.10838,-3.35841 c 1.44473,-4.37758 7.24543,-9.45838 10.79855,-9.45838 1.50848,0 3.79549,0.7374 5.08223,1.63867 2.21896,1.55422 2.30517,2.03269 1.67269,9.28329 l -0.66685,7.64462 5.34905,5.88598 5.34905,5.88598 4.64359,-1.16927 c 7.17329,-1.80626 10.11482,-1.48276 12.83364,1.41138 2.19735,2.33905 2.40985,3.35915 2.26987,10.89645 -0.15296,8.23627 -0.12171,8.34753 3.26757,11.63255 l 3.42201,3.31675 3.20744,-3.20744 c 3.10809,-3.1081 3.19787,-3.43642 2.89886,-10.60126 -0.53285,-12.76799 3.10095,-16.31433 13.84775,-13.51443 l 5.51942,1.43799 5.68456,-6.08549 5.68457,-6.08548 -0.83631,-5.93515 c -0.98372,-6.98128 0.20105,-10.44473 4.03403,-11.79272 3.64452,-1.28171 8.97541,1.49181 11.96699,6.2261 l 2.41102,3.81553 3.87844,-2.80953 c 8.71131,-6.31044 23.73573,-9.70085 35.00849,-7.90002 12.2747,1.9609 25.54784,8.49135 27.94297,13.74809 1.50998,3.31404 -0.88742,7.54146 -8.3953,14.8037 l -5.88807,5.69544 0,11.86282 0,11.86282 4.51458,4.51458 c 9.97994,9.97993 12.78232,18.25881 8.53722,25.2209 -1.92729,3.16081 -11.39852,11.31715 -13.1416,11.31715 -0.50333,0 -0.9102,6.22096 -0.9102,13.91689 l 0,13.91688 6.40757,6.15287 c 8.42191,8.08713 9.386,10.43095 6.74574,16.39968 -2.23435,5.05112 -6.95352,8.60392 -11.43655,8.60994 -2.86879,0.004 -12.08743,-4.16897 -13.20501,-5.97724 -0.34638,-0.56046 -3.6658,-1.01902 -7.37649,-1.01902 -5.60853,0 -7.31279,0.41765 -10.10231,2.47569 -7.99167,5.89607 -14.81022,5.72701 -20.44213,-0.50685 -2.89111,-3.20011 -3.59082,-4.77364 -3.59082,-8.07517 0,-3.74356 0.60944,-4.71001 7,-11.10057 l 7,-7 -0.0258,-13.64655 -0.0258,-13.64655 -5.14142,-3.48947 c -6.56017,-4.45241 -10.80698,-10.22919 -10.80698,-14.70041 0,-4.74633 3.33689,-10.76339 9.62511,-17.35594 l 5.37489,-5.63501 0,-7.08013 0,-7.08013 -3.07151,-0.67462 c -1.68932,-0.37103 -3.15182,-0.50886 -3.25,-0.30628 -0.0982,0.20258 -2.55414,2.86037 -5.45771,5.90619 l -5.27922,5.53787 1.2144,7.08187 c 1.07306,6.25759 1.01937,7.37953 -0.46132,9.63935 -2.10269,3.20911 -7.38647,4.71741 -13.84579,3.9524 -4.90755,-0.58122 -5.0553,-0.51739 -9.96913,4.30717 l -4.98776,4.89714 0.65925,7.11913 c 0.74801,8.07776 -0.36826,11.3864 -3.83639,11.3711 -2.66461,-0.0118 -11.87222,-4.18228 -15.45424,-6.9999 -2.34218,-1.84236 -2.76424,-1.88837 -4.66779,-0.50889 -3.69474,2.67751 -11.00072,6.25225 -14.18345,6.93981 -4.74097,1.02418 -5.93294,-1.15924 -5.62747,-10.30827 0.25412,-7.61138 0.25332,-7.61398 -3.84165,-12.36298 l -4.09583,-4.75 -7.78734,0 c -12.21909,0 -15.18962,-3.43209 -12.57075,-14.52401 l 1.41097,-5.97599 -5.81852,-5.85988 c -5.68405,-5.72446 -5.91396,-5.84376 -9.94863,-5.1621 l -4.13012,0.69778 0,7.07717 0,7.07717 6.02631,6.27577 c 12.34223,12.85316 12.07704,21.34738 -0.95668,30.64241 l -5.9618,4.25168 -0.0539,13.57759 -0.0539,13.57758 7,7 c 6.21335,6.21336 7,7.42753 7,10.80438 0,4.71648 -3.19328,10.07192 -7.25929,12.17453 -4.23357,2.18927 -10.07513,1.22007 -15.4405,-2.5618 -3.83952,-2.70632 -5.17446,-3.07228 -11.20703,-3.07228 -5.15989,0 -7.18669,0.40889 -8.22077,1.65848 -1.93692,2.3406 -8.81631,5.29475 -12.37244,5.31297 -1.65,0.008 -4.28642,-0.83275 -5.8587,-1.86934 z m 35.3587,-34.98548 0,-23.88337 -2.25,-0.60297 c -3.444,-0.92296 -10.32343,-0.74297 -13.1849,0.34496 l -2.5651,0.97525 0,23.52475 0,23.52475 9,0 9,0 0,-23.88337 z m 176,0 0,-23.88337 -2.25,-0.60297 c -3.444,-0.92296 -10.32343,-0.74297 -13.1849,0.34496 l -2.5651,0.97525 0,23.52475 0,23.52475 9,0 9,0 0,-23.88337 z m -172.00006,-34.92286 c 9e-5,-3.5055 -7.66391,-6.61147 -14.55809,-5.89992 -6.91689,0.71388 -11.44185,3.09274 -11.44185,6.01521 0,2.22952 0.1622,2.25728 12.99994,2.22432 12.899,-0.0331 12.99994,-0.0513 13,-2.33961 z m 79.93027,1.52369 c 4.80553,0.64456 6.68065,-0.59803 7.60032,-5.03656 0.44772,-2.16079 3.38518,-5.94388 9.15953,-11.79637 l 8.50043,-8.61548 -1.57526,-3.04623 c -1.66572,-3.22113 -6.11103,-7.22282 -8.02355,-7.22282 -0.62623,0 -4.72804,3.63121 -9.11514,8.06935 -4.3871,4.43815 -8.78448,8.51492 -9.77196,9.0595 -1.50139,0.82798 -3.22094,-0.50044 -10.5,-8.11173 l -8.70458,-9.10187 -3.00407,1.87812 c -1.65224,1.03296 -3.87839,3.50162 -4.947,5.48591 l -1.94292,3.6078 8.53051,8.84905 c 5.84156,6.05969 8.73429,9.86791 9.17696,12.08128 0.74697,3.73482 3.74991,5.3116 7.86707,4.13081 1.48445,-0.42574 4.52179,-0.52957 6.74966,-0.23076 z m 95.86209,-1.71007 c -0.41988,-3.58056 -4.95114,-5.51622 -12.7923,-5.46461 -7.29364,0.048 -13,2.38157 -13,5.31623 0,0.99421 0.1875,1.99516 0.41667,2.22432 0.22916,0.22917 6.0982,0.41667 13.0423,0.41667 l 12.62563,0 -0.2923,-2.49261 z m -188.2923,-9.47543 c 2.2,0.0146 5.8,0.23836 8,0.49728 3.68621,0.43383 4.02325,0.27129 4.29641,-2.07189 0.2403,-2.06126 -0.38145,-2.86591 -3.28392,-4.25 -7.31947,-3.49042 -21.45328,-1.1686 -22.35795,3.67282 -0.49121,2.62878 1.73177,3.7149 5.84546,2.85603 1.925,-0.40192 5.3,-0.71882 7.5,-0.70424 z m 173,-0.0365 c 2.2,-0.33008 6.25,-0.15651 9,0.3857 5.46354,1.07725 8.11535,-0.11404 6.95939,-3.12641 -2.5092,-6.53889 -25.06634,-6.00259 -26.30485,0.62539 -0.42814,2.29125 1.63914,3.80294 4.34546,3.1776 1.1,-0.25418 3.8,-0.7322 6,-1.06228 z m -170,-13.94133 c 1.65,0.32733 3.72139,0.7959 4.60309,1.04126 1.43854,0.40031 1.55326,-1.27979 1.11767,-16.36842 -0.42435,-14.69897 -0.26435,-17.24202 1.27166,-20.21234 3.07651,-5.94932 3.55462,-8.96632 2.00764,-12.66876 -3.52609,-8.43911 -20.55811,-8.2379 -24.11917,0.28493 -1.21898,2.91741 -1.18017,3.84051 0.31925,7.59511 1.34041,3.35642 1.77931,8.27032 2.04424,22.88732 l 0.33737,18.61326 4.70913,-0.88376 c 2.59001,-0.48604 6.05912,-0.61591 7.70912,-0.28857 z m 176,0 c 1.65,0.32733 3.7875,0.81688 4.75,1.08788 1.62036,0.45624 1.75,-0.84825 1.75,-17.60984 0,-13.9717 0.32541,-18.60797 1.42602,-20.31738 2.16555,-3.36341 2.79095,-8.87097 1.33025,-11.71482 -1.5895,-3.0946 -7.17125,-5.99638 -11.53839,-5.99845 -4.03487,-0.002 -10.05784,2.42032 -11.83359,4.75906 -1.90615,2.51048 -1.67261,9.25133 0.44137,12.73939 1.62562,2.68225 1.77103,4.8688 1.37293,20.64394 l -0.44526,17.64393 4.87334,-0.91443 c 2.68033,-0.50291 6.22333,-0.64659 7.87333,-0.31925 z m -120.56506,-6.80413 c 1.68257,-2.3375 4.40923,-5.15 6.05926,-6.25 3.53645,-2.35759 4.03571,-5.5 0.87383,-5.5 -3.48064,0 -8.79004,3.92681 -10.89912,8.06093 -4.14734,8.12948 -1.20217,10.86898 3.96603,3.68907 z m 67.06506,1.71016 c 0,-6.7934 -12.72137,-17.9558 -14.67158,-12.87361 -0.47242,1.2311 0.37499,2.55614 2.96205,4.63155 1.99309,1.59891 4.57979,4.45394 5.74822,6.34451 2.18013,3.52751 5.96131,4.73111 5.96131,1.89755 z m -71.03084,-11.62221 4.97556,-5.16206 -10.57439,-11.33794 c -5.81591,-6.23587 -10.86598,-11.33773 -11.22236,-11.33746 -0.35638,2.7e-4 -2.58574,2.25062 -4.95413,5.00078 -3.89906,4.52758 -4.17537,5.18701 -2.92276,6.97536 1.21412,1.73341 18.83263,20.66108 19.47572,20.92289 0.13574,0.0553 2.48581,-2.22244 5.22236,-5.06157 z m 95.03084,-18.35195 c 0,-0.58827 -2.05001,-3.07578 -4.55558,-5.52779 l -4.55559,-4.45821 -11.0326,11.25533 -11.03261,11.25534 4.83819,5.47973 4.83819,5.47973 10.75,-11.20728 c 5.9125,-6.164 10.75,-11.68858 10.75,-12.27685 z m -176.70145,-56.44552 c -3.95922,-2.41407 -6.29855,-6.76056 -6.29855,-11.70274 0,-3.33823 0.78781,-4.5324 7,-10.61063 l 7,-6.84905 0,-13.93903 c 0,-7.70923 -0.4068,-13.93903 -0.9102,-13.93903 -0.50061,0 -3.22561,-1.83022 -6.05554,-4.06715 -12.09865,-9.56344 -12.11505,-17.77345 -0.0606,-30.32694 l 6.02631,-6.27577 0,-11.91946 0,-11.91946 -6.84214,-7.04857 c -8.64717,-8.90807 -9.44847,-11.51478 -4.96334,-16.14638 7.90331,-8.16142 25.73497,-13.25287 39.1507,-11.17865 12.4346,1.92252 23.18285,7.1801 27.19424,13.30226 1.48242,2.26247 1.48199,2.73266 -0.005,5.86713 -0.88935,1.87415 -4.29833,6.00116 -7.57552,9.17113 l -5.95894,5.76359 0,12.0542 0,12.05421 6.02631,6.27577 c 12.05448,12.55349 12.03808,20.7635 -0.0606,30.32694 -2.82991,2.23693 -5.5549,4.06715 -6.05551,4.06715 -0.50061,0 -0.9102,3.31749 -0.9102,7.37219 l 0,7.37219 4.19672,0.67109 c 4.1022,0.65596 4.32945,0.53836 10.08877,-5.22096 l 5.89204,-5.89204 -1.08319,-3.90123 c -1.89823,-6.83673 -1.40458,-11.76116 1.44761,-14.44065 2.2714,-2.13387 3.37174,-2.37034 10.33841,-2.22181 l 7.79646,0.16622 4.41159,-4.49918 4.41159,-4.49918 0,-8.58318 c 0,-6.58945 0.35324,-8.80859 1.52075,-9.55359 2.23661,-1.42723 8.94326,0.66821 14.84058,4.63681 l 5.00541,3.36839 3.62203,-2.46123 c 5.22319,-3.54925 11.58991,-6.26653 14.74218,-6.29188 3.42416,-0.0275 4.26371,2.70531 3.4816,11.33315 l -0.55703,6.14489 4.9055,5.30155 4.90551,5.30155 5.79874,-0.65605 c 7.37711,-0.83463 12.85008,1.1722 13.82853,5.07065 0.69301,2.76117 0.0402,10.71239 -1.12672,13.72433 -0.49173,1.26917 0.91404,3.37315 5.17899,7.75123 5.57668,5.72461 6.03153,5.97927 9.60393,5.37713 l 3.75,-0.63207 -0.0258,-7.11916 -0.0258,-7.11916 -5.14142,-3.48947 c -6.56017,-4.45241 -10.80698,-10.22919 -10.80698,-14.70041 0,-4.74633 3.33689,-10.76339 9.62511,-17.35594 l 5.37489,-5.63501 0,-12.28472 0,-12.28472 -5.04075,-4.57277 c -9.84545,-8.9314 -11.22558,-13.97991 -5.25488,-19.22225 8.43567,-7.40662 24.67629,-11.74445 37.27883,-9.95709 8.38796,1.18962 16.19803,4.02479 22.39571,8.12997 8.81804,5.84083 8.58056,9.03345 -1.44071,19.36843 l -6.9382,7.1554 0,11.75324 0,11.75323 4.67665,4.67106 c 13.96992,13.95321 13.90785,22.6249 -0.23838,33.30541 l -5.43827,4.10593 0,13.29674 0,13.29674 6.40757,6.15287 c 8.42191,8.08713 9.386,10.43095 6.74574,16.39968 -4.01942,9.08657 -12.88486,11.00736 -21.80019,4.72326 -3.75869,-2.64937 -5.30559,-3.10958 -10.45218,-3.10958 -5.13496,0 -6.72427,0.47039 -10.60078,3.13749 -8.21607,5.65281 -17.46909,4.52093 -21.28187,-2.60331 -0.74594,-1.3938 -1.61771,-2.52861 -1.93727,-2.5218 -0.31956,0.007 -1.58834,1.5676 -2.81952,3.46843 -2.72122,4.20133 -7.35111,5.79048 -11.7615,4.03698 l -3,-1.19275 0,-8.61573 0,-8.61574 -5.35032,-5.42981 -5.35031,-5.42981 -5.14969,1.37116 c -7.00734,1.86577 -8.10538,1.76717 -11.34392,-1.0187 -2.65744,-2.28599 -2.8072,-2.86031 -2.83303,-10.86431 -0.0259,-8.01437 -0.18804,-8.63382 -3.14073,-11.99676 l -3.11346,-3.54603 -3.3495,3.45581 c -3.25513,3.35844 -3.34978,3.69167 -3.35927,11.82683 -0.009,7.47502 -0.26926,8.64755 -2.43408,10.95454 -2.71745,2.89589 -4.62471,3.11404 -12.11316,1.3855 l -5.19006,-1.19801 -5.27476,5.94484 -5.27475,5.94483 0.52116,7.60357 c 0.48962,7.14343 0.37864,7.70339 -1.83399,9.25317 -1.29533,0.90729 -3.26751,1.64793 -4.38264,1.64587 -3.43627,-0.006 -8.18337,-3.62075 -10.14323,-7.72299 l -1.8677,-3.90936 -1.70014,3.79739 c -3.71441,8.29641 -12.89787,9.98575 -21.4633,3.94828 -3.89758,-2.74727 -5.20952,-3.10958 -11.25991,-3.10958 -5.00886,0 -7.19899,0.42253 -8.15387,1.57309 -2.10076,2.53126 -8.58856,5.42722 -12.1495,5.42317 -1.80941,-0.002 -4.73049,-0.88215 -6.49129,-1.95578 z m 35.70145,-34.92385 0,-23.88337 -2.25,-0.60297 c -3.444,-0.92296 -10.32343,-0.74297 -13.1849,0.34496 l -2.5651,0.97525 0,23.52475 0,23.52475 9,0 9,0 0,-23.88337 z m 176,0 0,-23.88337 -2.25,-0.60297 c -3.444,-0.92296 -10.32343,-0.74297 -13.1849,0.34496 l -2.5651,0.97525 0,23.52475 0,23.52475 9,0 9,0 0,-23.88337 z m -126,-5.25536 c 0,-2.02576 -6.40578,-8.86127 -8.30418,-8.86127 -1.09813,0 -14.23078,12.8791 -20.66886,20.2698 l -2.41278,2.76979 4.94291,5.06691 4.94291,5.06691 10.75,-11.25876 c 5.9125,-6.19232 10.75,-12.06634 10.75,-13.05338 z m 86.48423,19.15474 4.90904,-4.98398 -8.89519,-9.26602 c -4.89235,-5.0963 -9.91375,-10.3637 -11.15866,-11.70531 -2.10299,-2.26635 -2.45415,-2.33726 -4.95263,-1.00011 -1.47903,0.79155 -3.79449,3.10947 -5.14546,5.15093 l -2.45631,3.71173 10.82974,11.53838 c 5.95636,6.3461 11.08415,11.53837 11.39509,11.53837 0.31093,0 2.7744,-2.24279 5.47438,-4.98399 z m -78.49082,-23.76601 c -0.0117,-4.87122 -5.74113,-11.39563 -11.21324,-12.76904 -4.56683,-1.1462 -4.38615,1.48106 0.40577,5.90026 2.45639,2.26533 5.2712,5.35628 6.25512,6.86878 0.98393,1.5125 2.41221,2.75 3.17395,2.75 0.84583,0 1.38242,-1.07054 1.3784,-2.75 z m 48.94055,-0.64315 c 1.1534,-1.86623 3.6651,-4.58914 5.58156,-6.05089 1.91647,-1.46176 3.48448,-3.30984 3.48448,-4.10685 0,-1.9777 -4.43588,-1.86484 -7.57617,0.19275 -2.79289,1.82998 -7.42383,9.12586 -7.42383,11.696 0,2.93275 3.72277,1.84677 5.93396,-1.73101 z m -3.97126,-9.7622 4.9691,-5.15535 -6.94829,-7.70759 c -3.82155,-4.23917 -7.63121,-8.27436 -8.4659,-8.96709 -0.83468,-0.69273 -1.51761,-2.29727 -1.51761,-3.56564 0,-3.68109 -2.72695,-5.643 -7.3989,-5.32314 -2.2556,0.15443 -5.53721,-0.0657 -7.29245,-0.4891 -4.25711,-1.02699 -6.98704,0.58013 -7.82218,4.60494 -0.46691,2.25021 -3.2826,5.90031 -9.10062,11.79753 l -8.42452,8.53921 5.13369,5.32611 5.13369,5.32612 8.81649,-8.77564 c 8.71379,-8.67342 8.84502,-8.75696 11.2647,-7.17152 1.34651,0.88226 5.50353,5.00441 9.23781,9.16031 3.73428,4.15591 6.93727,7.5562 7.11775,7.5562 0.18048,0 2.56424,-2.31991 5.29724,-5.15535 z m -98.9627,-14.54311 c 0,-3.44163 -5.19741,-5.73415 -13,-5.73415 -7.80259,0 -13,2.29252 -13,5.73415 0,2.21818 0.18487,2.25018 13,2.25018 12.81513,0 13,-0.032 13,-2.25018 z m 175.99997,-0.10777 c 5e-5,-3.61172 -7.67149,-6.62527 -14.74843,-5.79351 -6.60694,0.77651 -11.25154,3.02987 -11.25154,5.45875 0,0.99421 0.20675,2.01441 0.45944,2.2671 0.2527,0.25269 6.10268,0.44019 12.99998,0.41667 12.41655,-0.0424 12.54053,-0.0656 12.54055,-2.34901 z m -186.49997,-9.37791 c 2.75,0.15578 6.125,0.37344 7.5,0.48369 2.05345,0.16465 2.5,-0.2461 2.5,-2.29955 0,-3.3968 -5.32282,-5.9964 -12.28212,-5.99845 -8.7834,-0.003 -14.44444,3.3597 -12.81335,7.61027 0.51528,1.34279 1.40939,1.47069 5.35699,0.7663 2.60616,-0.46503 6.98848,-0.71805 9.73848,-0.56226 z m 169.45078,0.10128 c 3.65574,-0.78402 6.48021,-0.77598 10.23436,0.0291 4.16138,0.89246 5.452,0.84516 6.53674,-0.23959 5.08718,-5.08717 -10.54051,-9.93645 -20.62598,-6.40025 -3.87815,1.35977 -5.70295,3.66922 -4.78643,6.05764 0.73916,1.92621 1.89389,2.00012 8.64131,0.55306 z M 692.81007,-895.6919 c 0.65818,0.1989 2.59566,0.60161 4.3055,0.89493 l 3.10879,0.53329 -0.501,-16.51695 c -0.48031,-15.83501 -0.40438,-16.71016 1.83899,-21.19676 4.3096,-8.61891 2.31973,-15.19384 -5.21213,-17.22197 -7.49023,-2.0169 -15.88956,0.86707 -17.7067,6.07972 -0.85593,2.45533 -0.73243,3.96626 0.59509,7.28039 1.30265,3.25206 1.75017,8.31695 2.01241,22.77626 l 0.33724,18.59422 5.01255,-0.79238 c 2.75691,-0.43581 5.55107,-0.62964 6.20926,-0.43075 z m 174.1967,0.24899 c 2.76344,0 6.01205,0.31345 7.21913,0.69656 l 2.19469,0.69657 0.34107,-18.30371 c 0.28551,-15.32236 0.65876,-19.08028 2.29156,-23.07137 1.93937,-4.74049 1.9391,-4.78875 -0.048,-8.46616 -3.70772,-6.86173 -14.83838,-8.21682 -21.49372,-2.61673 -2.45496,2.06572 -3.00407,3.28971 -3.00101,6.68944 0.002,2.28861 0.82192,5.51111 1.82192,7.16111 1.6277,2.68569 1.77099,4.871 1.36763,20.85822 l -0.45057,17.85821 2.36642,-0.75107 c 1.30154,-0.41309 4.62742,-0.75107 7.39086,-0.75107 z"
         id="path4419"
         inkscape:connector-curvature="0" />
      <path
         style="fill:#7f7f7f"
         d="m 663.69963,-564.2115 c -17.13298,-2.27367 -30.01769,-8.72633 -42.76271,-21.41555 -6.96353,-6.93305 -10.02057,-10.88801 -13.16365,-17.03015 -8.44748,-16.50787 -7.7665,-0.28682 -7.7665,-185 l 0,-164 2.72441,-8 c 8.3742,-24.59011 27.91213,-42.4877 52.92852,-48.4849 8.09666,-1.9411 11.78756,-2.0013 123.03169,-2.0081 124.18148,-0.01 121.17336,-0.1284 134.81248,5.4137 15.72459,6.38947 30.08644,19.78404 37.51721,34.99041 8.04022,16.45357 7.5813,4.66829 7.26579,186.58889 l -0.2801,161.5 -2.82357,8 c -3.4534,9.78451 -7.13773,16.34546 -13.07727,23.2876 -10.10081,11.80584 -23.29262,20.23289 -38.31244,24.47433 l -7.78672,2.19889 -113,0.16094 c -62.15,0.0885 -115.83821,-0.21571 -119.30714,-0.67606 z m 243.19729,-7.23568 c 18.53096,-6.5526 32.23229,-18.25587 40.04542,-34.2056 7.01672,-14.32394 6.56602,-1.85878 6.54965,-181.14876 -0.0165,-180.73805 0.49401,-167.84593 -7.23635,-182.74162 -4.92036,-9.48108 -15.94267,-21.1761 -24.91427,-26.43483 -7.29846,-4.27801 -17.72244,-7.88291 -26.43665,-9.14251 -9.31766,-1.3468 -222.47825,-1.3468 -231.7959,0 -15.72092,2.2724 -28.0528,8.4897 -39.59683,19.9633 -8.75505,8.70164 -14.03197,17.8747 -17.03322,29.60948 -1.92261,7.51732 -1.972,11.74638 -1.972,168.84038 0,140.37179 0.19445,161.89777 1.50937,167.09004 4.90895,19.38422 17.65463,35.05277 35.68281,43.86571 16.05956,7.85059 8.87117,7.47787 140.30782,7.27499 l 117,-0.1806 7.89015,-2.78998 z m -243.50868,-46.15614 c -3.14507,-1.77759 -5.88147,-7.15524 -5.88147,-11.55846 0,-2.63144 1.24789,-4.4502 7,-10.20232 l 7,-7 -0.0258,-13.64655 -0.0258,-13.64655 -5.06668,-3.43794 c -13.77631,-9.34779 -14.04224,-18.77826 -0.91502,-32.4489 l 6.03327,-6.28302 0,-11.07501 0,-11.07501 -6.9583,-6.99983 c -10.02718,-10.08703 -10.52686,-14.37007 -2.32234,-19.90595 14.41505,-9.72634 36.20569,-10.87481 52.78064,-2.78179 2.75,1.34274 6.19261,3.5578 7.65023,4.92236 l 2.65024,2.48101 1.27612,-3.08081 c 0.70186,-1.69445 2.36176,-4.37104 3.68865,-5.94797 1.94999,-2.31742 3.21035,-2.8642 6.57365,-2.85183 6.46576,0.0238 6.89349,0.64512 6.52486,9.47813 l -0.32383,7.75947 5.68492,6.23876 5.68492,6.23876 5.26305,-1.36521 c 7.22948,-1.87531 8.54009,-1.74323 11.43572,1.1524 2.31902,2.31902 2.5008,3.15385 2.30441,10.5832 -0.21281,8.05061 -0.20646,8.07232 3.41805,11.69684 l 3.63126,3.63126 3.58356,-3.46446 c 3.49181,-3.37576 3.56705,-3.60771 2.93865,-9.05968 -0.73841,-6.40647 0.78362,-13.40994 3.10818,-14.30196 2.36833,-0.90881 8.49643,-0.72446 12.31414,0.37044 3.3045,0.94772 3.54536,0.80993 9.17698,-5.25 l 5.78342,-6.22326 -0.57808,-7.22344 c -0.67371,-8.41835 0.28216,-10.27656 5.28629,-10.27656 4.93722,0 7.9148,1.74819 10.34633,6.07451 l 2.17423,3.86853 4.14198,-3.00043 c 6.97003,-5.04907 16.5333,-7.45521 29.26207,-7.36242 12.25735,0.0894 18.88995,1.89475 27.67775,7.53387 8.24204,5.2889 7.8138,10.13562 -1.74879,19.79266 l -6.42896,6.49246 0,11.73375 0,11.73376 5.03529,5.16954 c 5.86046,6.01671 9.96629,13.51057 9.96097,18.18053 -0.005,4.75887 -3.1428,9.19365 -9.92663,14.03156 l -5.9618,4.25168 -0.0539,13.57759 -0.0539,13.57758 7,7 c 5.663,5.663 7,7.5935 7,10.10732 0,12.01739 -11.33867,17.21368 -22.33895,10.23751 -3.96252,-2.51296 -5.73955,-2.99705 -10.94578,-2.9818 -5.22963,0.0153 -6.91311,0.49106 -10.61575,3 -8.89788,6.02927 -19.48125,3.11515 -22.25013,-6.12657 -1.61607,-5.39395 0.26069,-9.11014 8.07427,-15.98793 l 6.07631,-5.34862 0,-13.25449 0,-13.25448 -2.75,-1.74376 c -10.10116,-6.40506 -15.02849,-13.42609 -13.71206,-19.53849 1.13384,-5.26463 3.39525,-8.8674 9.66301,-15.39461 l 5.89566,-6.13972 -0.2983,-6.85828 c -0.2935,-6.74761 -0.34672,-6.86705 -3.29831,-7.40205 -2.68149,-0.48604 -3.64898,0.14873 -9.1127,5.97886 -5.64205,6.02042 -6.04627,6.75424 -5.25,9.53068 1.48183,5.16683 1.05378,13.11756 -0.78865,14.64882 -1.0469,0.87008 -4.58729,1.43989 -9.67237,1.55672 l -8.02104,0.18429 -5.02673,5.02673 -5.02672,5.02672 0.26734,8.53899 0.26734,8.53899 -3.89876,0 c -3.65262,0 -9.46154,-2.36676 -15.23771,-6.20839 -2.41892,-1.60878 -2.68871,-1.54508 -8.31828,1.96428 -4.45095,2.77462 -6.9185,3.64074 -10.5,3.68555 l -4.68172,0.0586 0,-8.17894 0,-8.17895 -4.60363,-5.32105 -4.60362,-5.32106 -8.03851,0 c -11.97563,0 -14.07368,-2.89393 -11.18482,-15.42772 l 1.02052,-4.42772 -6.14688,-6.20201 c -3.59613,-3.62839 -6.83078,-6.06943 -7.79497,-5.88251 -7.69015,1.49081 -7.14809,0.87474 -7.14809,8.12408 l 0,6.64602 6.03327,6.28302 c 13.12722,13.67064 12.86129,23.10111 -0.91502,32.4489 l -5.06668,3.43794 -0.0258,13.64655 -0.0258,13.64655 7,7 c 7.38628,7.38629 8.2785,9.714 6.01019,15.68011 -1.8549,4.87875 -5.79385,7.52679 -11.19605,7.52679 -4.68626,0 -11.89295,-2.70046 -13.30531,-4.98571 -0.34474,-0.55786 -3.7803,-1.01429 -7.63454,-1.01429 -6.06827,0 -7.48107,0.36105 -10.53875,2.69326 -4.30525,3.28377 -13.24915,4.2372 -17.45404,1.86062 z m 36.11853,-34.53483 0,-23.98095 -2.75,-0.74164 c -3.97147,-1.07106 -11.6303,-0.69848 -14.22878,0.69218 -1.81624,0.97203 -2.12084,1.76328 -1.62778,4.22857 0.33361,1.66804 0.60656,12.20154 0.60656,23.40779 l 0,20.375 9,0 9,0 0,-23.98095 z m 176.47312,7.73095 c 0.37732,-8.9375 0.53772,-19.62452 0.35645,-23.74893 l -0.32957,-7.49894 -4,-1.33133 c -3.16518,-1.05347 -5.09571,-1.0909 -9.25,-0.17935 l -5.25,1.15198 0,23.92829 0,23.92828 8.89355,0 8.89354,0 0.68603,-16.25 z m -181.99474,-40.06051 c 9.463,0.19973 11.20752,-0.53936 9.37135,-3.97027 -2.438,-4.55545 -15.20122,-6.28897 -21.84973,-2.96767 -5.8637,2.92925 -5.0352,9.15894 0.99169,7.45684 1.37957,-0.38961 6.54858,-0.62312 11.48669,-0.5189 z m 176.02162,-0.1774 c 9.13895,-0.0111 10,-0.17501 10,-1.90417 0,-5.50216 -14.99798,-8.7757 -22.5,-4.91097 -5.51604,2.84163 -5.07234,9.53465 0.5,7.54231 1.1,-0.39329 6.5,-0.72052 12,-0.72717 z m -92.0651,-0.48734 c 1.55513,-0.59126 3.48983,-0.62366 4.91371,-0.0823 3.56687,1.35612 6.86652,-0.82544 8.68197,-5.74006 1.02226,-2.76738 4.33709,-7.03977 9.46065,-12.19356 7.69984,-7.74527 7.85371,-7.99577 6.48371,-10.55565 -0.77182,-1.44215 -2.94455,-3.97533 -4.8283,-5.62928 l -3.425,-3.00719 -9.12961,9.09165 c -5.02128,5.0004 -9.88989,9.09164 -10.81911,9.09164 -0.92923,0 -5.47919,-3.91966 -10.11103,-8.71036 l -8.42152,-8.71035 -3.37019,2.59425 c -1.8536,1.42683 -4.13577,3.91633 -5.07149,5.53222 l -1.70131,2.93797 7.94716,7.90055 c 4.90877,4.87997 8.37941,9.24923 9.07774,11.42814 2.10824,6.57807 4.79007,8.152 10.31262,6.05233 z m -74.38836,-11.67129 c 1.52407,-1.52407 0.2788,-3.72689 -3.3279,-5.88689 -7.87998,-4.71918 -24.83971,-0.43636 -22.49262,5.68004 0.43145,1.12434 3.05909,1.39848 12.6729,1.32216 6.76571,-0.0537 12.57917,-0.54686 13.14762,-1.11531 z m 176.45346,-1.32846 c 0,-1.70027 -1.03369,-3.01863 -3.5,-4.46385 -8.26586,-4.84368 -25.15009,-0.60658 -22.72859,5.70374 0.35787,0.93261 3.86665,1.25282 13.35699,1.21895 l 12.8716,-0.0459 0,-2.4129 z m -179.5,-29.06356 c 0,-15.56426 0.22514,-17.98015 2,-21.46144 2.40332,-4.71398 2.5422,-8.2809 0.4393,-11.28321 -4.88025,-6.96752 -19.14041,-6.90047 -23.7349,0.11159 -2.23044,3.4041 -2.15194,6.37091 0.2956,11.17162 1.77486,3.48129 2,5.89718 2,21.46144 l 0,17.53856 9.5,0 9.5,0 0,-17.53856 z m 176,0.24872 c 0,-15.31639 0.22828,-17.7373 2,-21.21016 2.80839,-5.50489 2.56582,-9.33519 -0.83201,-13.13802 -6.92851,-7.75435 -24.16799,-3.02633 -24.16799,6.6282 0,0.87422 0.9,3.35364 2,5.50982 1.77814,3.48544 2,5.89377 2,21.71016 l 0,17.78984 9.5,0 9.5,0 0,-17.28984 z m -123.98516,6.63488 c 5.5165,-5.66059 6.73578,-7.4406 5.83782,-8.52258 -3.2726,-3.94323 -14.85266,6.22792 -14.85266,13.04557 0,1.44759 0.45945,2.63197 1.021,2.63197 0.56155,0 4.15878,-3.21973 7.99384,-7.15496 z m 63.81518,4.24675 c 0.67429,-4.60033 -8.08473,-14.07714 -13.021,-14.08805 -3.59873,-0.008 -3.07756,2.41073 1.38398,6.42296 2.4912,2.24032 5.53824,5.55785 6.77121,7.3723 2.47278,3.63896 4.35871,3.75244 4.86581,0.29279 z m -70.86688,-11.2476 4.96954,-5.1558 -8.85289,-9.5942 c -4.86908,-5.2768 -9.83899,-10.48315 -11.04422,-11.56967 l -2.19135,-1.97547 -4.38369,4.97547 c -2.41103,2.73652 -4.40098,5.33416 -4.42211,5.77254 -0.0312,0.64783 19.87001,22.39958 20.70838,22.63395 0.13574,0.0379 2.4831,-2.25112 5.21634,-5.08682 z m 95.03686,-18.35819 c 0,-0.58827 -2.04229,-3.07394 -4.53843,-5.52371 l -4.53842,-4.45413 -11.08688,11.21047 -11.08687,11.21047 4.8753,5.52051 4.8753,5.52052 10.75,-11.20728 c 5.9125,-6.164 10.75,-11.68858 10.75,-12.27685 z m -173.45832,-55.21828 c -5.43444,-1.37255 -9.54168,-7.08565 -9.54168,-13.2723 0,-2.63144 1.24789,-4.4502 7,-10.20232 l 7,-7 -0.0258,-13.64655 -0.0258,-13.64655 -5.06668,-3.43794 c -13.77631,-9.34779 -14.04224,-18.77826 -0.91502,-32.4489 l 6.03327,-6.28302 0,-11.20529 0,-11.20528 -6.08359,-5.70979 c -9.97057,-9.35793 -11.26717,-13.9386 -5.40291,-19.08749 1.93242,-1.69669 4.88365,-3.79342 6.55827,-4.65941 5.01645,-2.5941 17.83654,-5.46388 24.33819,-5.4481 11.36704,0.0276 24.38194,4.22958 30.94297,9.99023 6.03555,5.29928 4.77661,9.57472 -5.78345,19.64107 l -5.56948,5.30908 0,11.18749 0,11.18749 6.03327,6.28302 c 13.12722,13.67064 12.86129,23.10111 -0.91502,32.4489 l -5.06668,3.43794 -0.0258,7.13337 c -0.0237,6.56274 0.1542,7.1816 2.22421,7.73634 4.70949,1.2621 6.42125,0.5205 12.14168,-5.26025 l 5.82908,-5.89054 -1.26086,-7.05533 c -1.11853,-6.25891 -1.07312,-7.34185 0.40227,-9.59358 2.06081,-3.14519 5.01057,-3.9281 12.70332,-3.37165 l 5.9926,0.43346 5.09332,-5.38543 5.09331,-5.38542 -0.66413,-6.73986 c -0.85138,-8.64039 -0.2692,-10.12111 3.97937,-10.12111 3.92718,0 7.37313,1.36634 13.10507,5.19622 l 4.16502,2.78292 4.92635,-3.3152 c 6.53109,-4.39509 13.60859,-6.43586 15.85481,-4.57166 1.35058,1.12088 1.51283,2.58335 0.96154,8.66706 l -0.6632,7.31864 4.92341,5.52394 4.9234,5.52394 8.70388,0.18707 c 10.79091,0.23193 12.01851,1.29994 11.13458,9.68707 -0.31881,3.025 -0.85859,6.50502 -1.19951,7.73338 -0.49489,1.7831 0.5757,3.47036 5.31008,8.36871 5.84836,6.05092 5.98746,6.1256 10.11228,5.42872 l 4.18235,-0.70661 0,-6.67383 0,-6.67384 -6.56698,-4.76257 c -13.43411,-9.74283 -13.28715,-19.71384 0.48898,-33.17637 l 5.078,-4.96241 0,-11.25311 0,-11.2531 -6.96301,-6.96301 c -9.99538,-9.99539 -10.44565,-13.32368 -2.60425,-19.25021 7.6399,-5.77425 16.91573,-8.3715 29.56726,-8.27889 12.16139,0.089 20.31076,2.29101 28.16979,7.61159 8.19753,5.54975 7.81665,9.91259 -1.72851,19.79967 l -6.44128,6.672 0.0116,11.91994 0.0116,11.91994 5.08116,5 c 8.68505,8.54633 11.74486,17.02336 8.44674,23.40122 -1.61479,3.12266 -6.75801,7.92651 -11.46064,10.70442 l -3.09046,1.82558 0,13.72342 0,13.72342 7,6.84905 c 6.39486,6.25696 7,7.20039 7,10.91309 0,8.56905 -7.76018,14.57855 -15.97064,12.36771 -2.06525,-0.55612 -5.41171,-2.1354 -7.43659,-3.50951 -5.28429,-3.58602 -14.74524,-3.57479 -19.62216,0.0233 -8.5453,6.30453 -18.44779,5.0842 -21.9387,-2.70359 l -1.65044,-3.68192 -1.88982,3.50919 c -4.42779,8.22191 -16.61195,8.61729 -16.43204,0.53321 0.0328,-1.47321 0.40765,-4.79104 0.83302,-7.37295 l 0.77342,-4.69438 -6.10537,-6.0511 c -5.94136,-5.88855 -6.19863,-6.02436 -9.57643,-5.05562 -1.90907,0.54749 -5.361,0.99546 -7.67094,0.99546 -5.95556,0 -7.31331,-2.29309 -7.31331,-12.35131 0,-7.58739 -0.13718,-8.05813 -3.40112,-11.67092 l -3.40111,-3.76463 -3.59889,3.68559 c -3.52369,3.60859 -3.59888,3.85244 -3.59888,11.67093 0,10.4583 -1.26785,12.43034 -7.9916,12.43034 -2.68301,0 -6.145,-0.48727 -7.6933,-1.08282 -2.6749,-1.0289 -3.10263,-0.76743 -8.58826,5.25 l -5.77317,6.33282 0.62447,7.07727 c 0.7327,8.304 -0.53074,10.42273 -6.21531,10.42273 -5.10807,0 -7.25032,-1.55856 -9.84757,-7.16446 l -2.31904,-5.00541 -0.67828,3.08818 c -0.86432,3.93525 -5.53691,8.63548 -9.34105,9.39631 -3.80147,0.7603 -8.99402,-0.7013 -13.6028,-3.82891 -3.01751,-2.04773 -4.86689,-2.48571 -10.49605,-2.48571 -4.98184,0 -7.18526,0.42426 -8.13276,1.56594 -2.75458,3.31906 -10.96072,5.8239 -15.4036,4.70178 z m 32.45832,-36.20033 c 0,-23.61515 -0.0285,-23.94167 -2.15123,-24.61539 -3.26517,-1.03632 -10.99492,-0.77822 -14.21954,0.4748 -2.53835,0.98636 -2.79888,1.47493 -2.25,4.21936 0.34142,1.70711 0.62077,12.27259 0.62077,23.47884 l 0,20.375 9,0 9,0 0,-23.93261 z m 176.34632,11.77561 c 1.0428,-19.39386 0.81974,-34.62234 -0.51926,-35.44988 -2.44952,-1.51389 -9.06435,-2.10005 -13.35999,-1.18388 l -4.46707,0.95273 0,23.91901 0,23.91902 8.84632,0 8.84633,0 0.65367,-12.157 z m -132.30747,-8.92622 6.87234,-7.58321 -2.3318,-3.43155 c -1.28249,-1.88736 -3.52848,-4.072 -4.99108,-4.85476 -2.59829,-1.39056 -2.82073,-1.26409 -9.69918,5.51477 -3.87194,3.81588 -8.87254,9.10493 -11.11244,11.75343 l -4.07255,4.81547 4.86021,4.9344 4.86021,4.93441 4.37097,-4.24987 c 2.40404,-2.33743 7.46353,-7.66232 11.24332,-11.83309 z m 92.3897,11.15576 4.85337,-4.92747 -10.89096,-11.56681 c -5.99003,-6.36175 -11.39277,-11.5694 -12.0061,-11.57254 -1.86267,-0.01 -6.33205,3.99147 -7.94679,7.11403 l -1.52197,2.94317 10.76421,11.46854 c 5.92031,6.3077 11.0186,11.46854 11.32954,11.46854 0.31093,0 2.74935,-2.21736 5.4187,-4.92746 z m -77.84063,-24.38294 c -0.81579,-4.07895 -4.60116,-8.84325 -8.83989,-11.12596 -6.36011,-3.42515 -9.36398,0.37249 -3.49803,4.42238 1.7875,1.2341 4.7153,4.20191 6.50623,6.59512 3.84179,5.13379 6.84794,5.1897 5.83169,0.10846 z m 48.05878,0.5604 c 1.51167,-2.0625 4.57207,-5.39891 6.80089,-7.41424 3.13305,-2.83294 3.78544,-3.93933 2.87563,-4.87678 -4.09751,-4.22203 -17.25545,8.56334 -14.96245,14.53878 0.9148,2.38394 2.33333,1.78074 5.28593,-2.24776 z m -3.66742,-10.42255 4.98567,-5.17254 -7.82884,-8.57746 c -4.57958,-5.01749 -8.34898,-10.16157 -9.08208,-12.39427 -1.53754,-4.68267 -4.85853,-6.54892 -8.61118,-4.8391 -1.76254,0.80307 -3.14044,0.85295 -4.43426,0.16052 -4.70038,-2.51557 -10.00859,0.32012 -10.00859,5.34667 0,1.04845 -3.85556,5.84633 -8.56791,10.66197 l -8.56792,8.7557 5.20605,5.20604 5.20604,5.20604 8.13276,-8.09051 c 5.12551,-5.09888 8.92913,-8.09051 10.28647,-8.09051 1.42916,0 4.75681,2.85958 9.89134,8.5 4.2557,4.675 7.88819,8.5 8.0722,8.5 0.18402,0 2.57813,-2.32765 5.32025,-5.17255 z m -114.47928,-12.33196 c 2.2,-0.33008 6.13228,-0.18567 8.7384,0.32091 6.04641,1.17531 8.66514,-0.2596 6.80772,-3.73022 -3.82899,-7.15454 -24.85075,-6.50421 -25.88361,0.80073 -0.39067,2.76302 1.46602,4.33436 4.33749,3.67086 1.1,-0.25418 3.8,-0.7322 6,-1.06228 z m 176,0 c 2.2,-0.33008 6.13228,-0.18567 8.7384,0.32091 8.74137,1.69916 10.51367,-2.99788 2.68671,-7.12046 -4.05458,-2.13561 -13.67228,-1.94522 -18.42511,0.36474 -5.0948,2.47616 -4.26288,8.71317 1,7.49709 1.1,-0.25418 3.8,-0.7322 6,-1.06228 z m -159.98279,-12.40095 c 0.81043,-2.11192 -3.38137,-5.98087 -7.75629,-7.15892 -7.28991,-1.96297 -18.76092,1.63409 -18.76092,5.88301 0,1.01642 0.1875,2.03554 0.41667,2.2647 0.22916,0.22917 6.07419,0.41667 12.98894,0.41667 9.877,0 12.6879,-0.30131 13.1116,-1.40546 z m 176.28789,-0.32102 c 0.8224,-4.27039 -8.45942,-8.39778 -16.25597,-7.22862 -5.44827,0.81702 -10.54913,3.85058 -10.54913,6.27373 0,1.01642 0.21317,2.06121 0.47371,2.32175 0.26055,0.26054 6.22017,0.43096 13.24362,0.37871 11.02669,-0.082 12.81329,-0.32032 13.08777,-1.74557 z M 700.76391,-912.6572 c 0.28085,-14.92074 0.66715,-18.80078 2.25814,-22.681 2.38032,-5.80529 1.43583,-9.26143 -3.42636,-12.53806 -5.83886,-3.93481 -14.79388,-2.86038 -19.62723,2.3549 -2.98409,3.21989 -3.11775,6.65446 -0.46169,11.86416 1.77477,3.48111 2.00008,5.89799 2.00067,21.46144 l 6.8e-4,17.53856 9.45848,0 9.45849,0 0.33882,-18 z m 175.74286,0.71016 c 0,-15.31639 0.22828,-17.7373 2,-21.21016 5.13087,-10.05735 -1.06408,-17.92091 -13.19955,-16.75485 -4.3532,0.41829 -5.70311,1.07213 -8.48842,4.11143 -3.82574,4.1746 -4.09661,6.68164 -1.31203,12.14342 1.77486,3.48129 2,5.89718 2,21.46144 l 0,17.53856 9.5,0 9.5,0 0,-17.28984 z"
         id="path4417"
         inkscape:connector-curvature="0" />
      <path
         style="fill:#495547"
         d="m 657.50677,-565.70487 c -22.00238,-4.78242 -40.53045,-18.7964 -49.86934,-37.71942 -7.59652,-15.39252 -7.0994,-2.58543 -7.11588,-183.32295 -0.0144,-158.36827 0.0307,-162.26803 1.96783,-169.84195 5.20072,-20.33464 18.297,-36.2517 37.51739,-45.59821 16.31212,-7.9322 7.73813,-7.4698 138.5,-7.4698 132.2113,0 124.03476,-0.4815 141.37927,8.3247 7.16943,3.64012 10.83226,6.35109 17.12073,12.67165 8.91155,8.95702 13.34359,15.7811 17.32079,26.66905 l 2.67921,7.3346 0.27934,164.5 c 0.31219,183.84797 0.75357,171.72606 -6.80121,186.78688 -6.77509,13.50647 -17.78767,24.40434 -31.47813,31.15023 -16.37484,8.06861 -5.78803,7.47465 -137.5,7.71428 -98.08001,0.17844 -118.5743,-0.0197 -124,-1.19906 z m 245.30048,-4.19424 c 20.09161,-5.67189 35.68648,-18.47787 44.76326,-36.75809 7.30329,-14.70851 6.89958,-4.2176 6.9189,-179.79216 0.0194,-176.69796 0.44869,-165.93557 -7.24726,-181.70784 -3.3074,-6.77828 -5.87865,-10.23867 -12.69401,-17.08365 -7.09103,-7.12185 -10.16391,-9.38207 -18.04393,-13.27202 -16.19722,-7.99573 -9.2208,-7.60963 -137.49744,-7.60963 -127.90548,0 -121.367,-0.3522 -137.03804,7.38158 -16.65534,8.2195 -29.33021,22.74593 -35.03509,40.15305 l -2.92687,8.93067 0,162 c 0,179.09938 -0.47522,166.29973 6.73866,181.5 3.30471,6.96331 5.59125,10.05306 12.64768,17.09053 12.32987,12.29676 24.92425,18.71252 40.83676,20.80284 3.7273,0.48963 57.1769,0.81746 118.7769,0.72852 l 112,-0.16172 7.80048,-2.20208 z m -239.41901,-47.70421 c -3.14507,-1.77759 -5.88147,-7.15524 -5.88147,-11.55846 0,-2.63144 1.24789,-4.4502 7,-10.20232 l 7,-7 -0.0258,-13.64655 -0.0258,-13.64655 -5.06668,-3.43794 c -13.77631,-9.34779 -14.04224,-18.77826 -0.91502,-32.4489 l 6.03327,-6.28302 0,-11.07501 0,-11.07501 -6.9583,-6.99983 c -10.02718,-10.08703 -10.52686,-14.37007 -2.32234,-19.90595 14.41505,-9.72634 36.20569,-10.87481 52.78064,-2.78179 2.75,1.34274 6.19261,3.5578 7.65023,4.92236 l 2.65024,2.48101 1.27612,-3.08081 c 0.70186,-1.69445 2.36176,-4.37104 3.68865,-5.94797 1.94999,-2.31742 3.21035,-2.8642 6.57365,-2.85183 6.46576,0.0238 6.89349,0.64512 6.52486,9.47813 l -0.32383,7.75947 5.68492,6.23876 5.68492,6.23876 5.26305,-1.36521 c 7.22948,-1.87531 8.54009,-1.74323 11.43572,1.1524 2.31902,2.31902 2.5008,3.15385 2.30441,10.5832 -0.21281,8.05061 -0.20646,8.07232 3.41805,11.69684 l 3.63126,3.63126 3.58356,-3.46446 c 3.49181,-3.37576 3.56705,-3.60771 2.93865,-9.05968 -0.73841,-6.40647 0.78362,-13.40994 3.10818,-14.30196 2.36833,-0.90881 8.49643,-0.72446 12.31414,0.37044 3.3045,0.94772 3.54536,0.80993 9.17698,-5.25 l 5.78342,-6.22326 -0.57808,-7.22344 c -0.67371,-8.41835 0.28216,-10.27656 5.28629,-10.27656 4.93722,0 7.9148,1.74819 10.34633,6.07451 l 2.17423,3.86853 4.14198,-3.00043 c 6.97003,-5.04907 16.5333,-7.45521 29.26207,-7.36242 12.25735,0.0894 18.88995,1.89475 27.67775,7.53387 8.24204,5.2889 7.8138,10.13562 -1.74879,19.79266 l -6.42896,6.49246 0,11.73375 0,11.73376 5.03529,5.16954 c 5.86046,6.01671 9.96629,13.51057 9.96097,18.18053 -0.005,4.75887 -3.1428,9.19365 -9.92663,14.03156 l -5.9618,4.25168 -0.0539,13.57759 -0.0539,13.57758 7,7 c 5.663,5.663 7,7.5935 7,10.10732 0,12.01739 -11.33867,17.21368 -22.33895,10.23751 -3.96252,-2.51296 -5.73955,-2.99705 -10.94578,-2.9818 -5.22963,0.0153 -6.91311,0.49106 -10.61575,3 -8.89788,6.02927 -19.48125,3.11515 -22.25013,-6.12657 -1.61607,-5.39395 0.26069,-9.11014 8.07427,-15.98793 l 6.07631,-5.34862 0,-13.25449 0,-13.25448 -2.75,-1.74376 c -10.10116,-6.40506 -15.02849,-13.42609 -13.71206,-19.53849 1.13384,-5.26463 3.39525,-8.8674 9.66301,-15.39461 l 5.89566,-6.13972 -0.2983,-6.85828 c -0.2935,-6.74761 -0.34672,-6.86705 -3.29831,-7.40205 -2.68149,-0.48604 -3.64898,0.14873 -9.1127,5.97886 -5.64205,6.02042 -6.04627,6.75424 -5.25,9.53068 1.48183,5.16683 1.05378,13.11756 -0.78865,14.64882 -1.0469,0.87008 -4.58729,1.43989 -9.67237,1.55672 l -8.02104,0.18429 -5.02673,5.02673 -5.02672,5.02672 0.26734,8.53899 0.26734,8.53899 -3.89876,0 c -3.65262,0 -9.46154,-2.36676 -15.23771,-6.20839 -2.41892,-1.60878 -2.68871,-1.54508 -8.31828,1.96428 -4.45095,2.77462 -6.9185,3.64074 -10.5,3.68555 l -4.68172,0.0586 0,-8.17894 0,-8.17895 -4.60363,-5.32105 -4.60362,-5.32106 -8.03851,0 c -11.97563,0 -14.07368,-2.89393 -11.18482,-15.42772 l 1.02052,-4.42772 -6.14688,-6.20201 c -3.59613,-3.62839 -6.83078,-6.06943 -7.79497,-5.88251 -7.69015,1.49081 -7.14809,0.87474 -7.14809,8.12408 l 0,6.64602 6.03327,6.28302 c 13.12722,13.67064 12.86129,23.10111 -0.91502,32.4489 l -5.06668,3.43794 -0.0258,13.64655 -0.0258,13.64655 7,7 c 7.38628,7.38629 8.2785,9.714 6.01019,15.68011 -1.8549,4.87875 -5.79385,7.52679 -11.19605,7.52679 -4.68626,0 -11.89295,-2.70046 -13.30531,-4.98571 -0.34474,-0.55786 -3.7803,-1.01429 -7.63454,-1.01429 -6.06827,0 -7.48107,0.36105 -10.53875,2.69326 -4.30525,3.28377 -13.24915,4.2372 -17.45404,1.86062 z m 36.11853,-34.53483 0,-23.98095 -2.75,-0.74164 c -3.97147,-1.07106 -11.6303,-0.69848 -14.22878,0.69218 -1.81624,0.97203 -2.12084,1.76328 -1.62778,4.22857 0.33361,1.66804 0.60656,12.20154 0.60656,23.40779 l 0,20.375 9,0 9,0 0,-23.98095 z m 176.47312,7.73095 c 0.37732,-8.9375 0.53772,-19.62452 0.35645,-23.74893 l -0.32957,-7.49894 -4,-1.33133 c -3.16518,-1.05347 -5.09571,-1.0909 -9.25,-0.17935 l -5.25,1.15198 0,23.92829 0,23.92828 8.89355,0 8.89354,0 0.68603,-16.25 z m -181.99474,-40.06051 c 9.463,0.19973 11.20752,-0.53936 9.37135,-3.97027 -2.438,-4.55545 -15.20122,-6.28897 -21.84973,-2.96767 -5.8637,2.92925 -5.0352,9.15894 0.99169,7.45684 1.37957,-0.38961 6.54858,-0.62312 11.48669,-0.5189 z m 176.02162,-0.1774 c 9.13895,-0.0111 10,-0.17501 10,-1.90417 0,-5.50216 -14.99798,-8.7757 -22.5,-4.91097 -5.51604,2.84163 -5.07234,9.53465 0.5,7.54231 1.1,-0.39329 6.5,-0.72052 12,-0.72717 z m -92.0651,-0.48734 c 1.55513,-0.59126 3.48983,-0.62366 4.91371,-0.0823 3.56687,1.35612 6.86652,-0.82544 8.68197,-5.74006 1.02226,-2.76738 4.33709,-7.03977 9.46065,-12.19356 7.69984,-7.74527 7.85371,-7.99577 6.48371,-10.55565 -0.77182,-1.44215 -2.94455,-3.97533 -4.8283,-5.62928 l -3.425,-3.00719 -9.12961,9.09165 c -5.02128,5.0004 -9.88989,9.09164 -10.81911,9.09164 -0.92923,0 -5.47919,-3.91966 -10.11103,-8.71036 l -8.42152,-8.71035 -3.37019,2.59425 c -1.8536,1.42683 -4.13577,3.91633 -5.07149,5.53222 l -1.70131,2.93797 7.94716,7.90055 c 4.90877,4.87997 8.37941,9.24923 9.07774,11.42814 2.10824,6.57807 4.79007,8.152 10.31262,6.05233 z m -74.38836,-11.67129 c 1.52407,-1.52407 0.2788,-3.72689 -3.3279,-5.88689 -7.87998,-4.71918 -24.83971,-0.43636 -22.49262,5.68004 0.43145,1.12434 3.05909,1.39848 12.6729,1.32216 6.76571,-0.0537 12.57917,-0.54686 13.14762,-1.11531 z m 176.45346,-1.32846 c 0,-1.70027 -1.03369,-3.01863 -3.5,-4.46385 -8.26586,-4.84368 -25.15009,-0.60658 -22.72859,5.70374 0.35787,0.93261 3.86665,1.25282 13.35699,1.21895 l 12.8716,-0.0459 0,-2.4129 z m -179.5,-29.06356 c 0,-15.56426 0.22514,-17.98015 2,-21.46144 2.40332,-4.71398 2.5422,-8.2809 0.4393,-11.28321 -4.88025,-6.96752 -19.14041,-6.90047 -23.7349,0.11159 -2.23044,3.4041 -2.15194,6.37091 0.2956,11.17162 1.77486,3.48129 2,5.89718 2,21.46144 l 0,17.53856 9.5,0 9.5,0 0,-17.53856 z m 176,0.24872 c 0,-15.31639 0.22828,-17.7373 2,-21.21016 2.80839,-5.50489 2.56582,-9.33519 -0.83201,-13.13802 -6.92851,-7.75435 -24.16799,-3.02633 -24.16799,6.6282 0,0.87422 0.9,3.35364 2,5.50982 1.77814,3.48544 2,5.89377 2,21.71016 l 0,17.78984 9.5,0 9.5,0 0,-17.28984 z m -123.98516,6.63488 c 5.5165,-5.66059 6.73578,-7.4406 5.83782,-8.52258 -3.2726,-3.94323 -14.85266,6.22792 -14.85266,13.04557 0,1.44759 0.45945,2.63197 1.021,2.63197 0.56155,0 4.15878,-3.21973 7.99384,-7.15496 z m 63.81518,4.24675 c 0.67429,-4.60033 -8.08473,-14.07714 -13.021,-14.08805 -3.59873,-0.008 -3.07756,2.41073 1.38398,6.42296 2.4912,2.24032 5.53824,5.55785 6.77121,7.3723 2.47278,3.63896 4.35871,3.75244 4.86581,0.29279 z m -70.86688,-11.2476 4.96954,-5.1558 -8.85289,-9.5942 c -4.86908,-5.2768 -9.83899,-10.48315 -11.04422,-11.56967 l -2.19135,-1.97547 -4.38369,4.97547 c -2.41103,2.73652 -4.40098,5.33416 -4.42211,5.77254 -0.0312,0.64783 19.87001,22.39958 20.70838,22.63395 0.13574,0.0379 2.4831,-2.25112 5.21634,-5.08682 z m 95.03686,-18.35819 c 0,-0.58827 -2.04229,-3.07394 -4.53843,-5.52371 l -4.53842,-4.45413 -11.08688,11.21047 -11.08687,11.21047 4.8753,5.52051 4.8753,5.52052 10.75,-11.20728 c 5.9125,-6.164 10.75,-11.68858 10.75,-12.27685 z m -173.45832,-55.21828 c -5.43444,-1.37255 -9.54168,-7.08565 -9.54168,-13.2723 0,-2.63144 1.24789,-4.4502 7,-10.20232 l 7,-7 -0.0258,-13.64655 -0.0258,-13.64655 -5.06668,-3.43794 c -13.77631,-9.34779 -14.04224,-18.77826 -0.91502,-32.4489 l 6.03327,-6.28302 0,-11.20529 0,-11.20528 -6.08359,-5.70979 c -9.97057,-9.35793 -11.26717,-13.9386 -5.40291,-19.08749 1.93242,-1.69669 4.88365,-3.79342 6.55827,-4.65941 5.01645,-2.5941 17.83654,-5.46388 24.33819,-5.4481 11.36704,0.0276 24.38194,4.22958 30.94297,9.99023 6.03555,5.29928 4.77661,9.57472 -5.78345,19.64107 l -5.56948,5.30908 0,11.18749 0,11.18749 6.03327,6.28302 c 13.12722,13.67064 12.86129,23.10111 -0.91502,32.4489 l -5.06668,3.43794 -0.0258,7.13337 c -0.0237,6.56274 0.1542,7.1816 2.22421,7.73634 4.70949,1.2621 6.42125,0.5205 12.14168,-5.26025 l 5.82908,-5.89054 -1.26086,-7.05533 c -1.11853,-6.25891 -1.07312,-7.34185 0.40227,-9.59358 2.06081,-3.14519 5.01057,-3.9281 12.70332,-3.37165 l 5.9926,0.43346 5.09332,-5.38543 5.09331,-5.38542 -0.66413,-6.73986 c -0.85138,-8.64039 -0.2692,-10.12111 3.97937,-10.12111 3.92718,0 7.37313,1.36634 13.10507,5.19622 l 4.16502,2.78292 4.92635,-3.3152 c 6.53109,-4.39509 13.60859,-6.43586 15.85481,-4.57166 1.35058,1.12088 1.51283,2.58335 0.96154,8.66706 l -0.6632,7.31864 4.92341,5.52394 4.9234,5.52394 8.70388,0.18707 c 10.79091,0.23193 12.01851,1.29994 11.13458,9.68707 -0.31881,3.025 -0.85859,6.50502 -1.19951,7.73338 -0.49489,1.7831 0.5757,3.47036 5.31008,8.36871 5.84836,6.05092 5.98746,6.1256 10.11228,5.42872 l 4.18235,-0.70661 0,-6.67383 0,-6.67384 -6.56698,-4.76257 c -13.43411,-9.74283 -13.28715,-19.71384 0.48898,-33.17637 l 5.078,-4.96241 0,-11.25311 0,-11.2531 -6.96301,-6.96301 c -9.99538,-9.99539 -10.44565,-13.32368 -2.60425,-19.25021 7.6399,-5.77425 16.91573,-8.3715 29.56726,-8.27889 12.16139,0.089 20.31076,2.29101 28.16979,7.61159 8.19753,5.54975 7.81665,9.91259 -1.72851,19.79967 l -6.44128,6.672 0.0116,11.91994 0.0116,11.91994 5.08116,5 c 8.68505,8.54633 11.74486,17.02336 8.44674,23.40122 -1.61479,3.12266 -6.75801,7.92651 -11.46064,10.70442 l -3.09046,1.82558 0,13.72342 0,13.72342 7,6.84905 c 6.39486,6.25696 7,7.20039 7,10.91309 0,8.56905 -7.76018,14.57855 -15.97064,12.36771 -2.06525,-0.55612 -5.41171,-2.1354 -7.43659,-3.50951 -5.28429,-3.58602 -14.74524,-3.57479 -19.62216,0.0233 -8.5453,6.30453 -18.44779,5.0842 -21.9387,-2.70359 l -1.65044,-3.68192 -1.88982,3.50919 c -4.42779,8.22191 -16.61195,8.61729 -16.43204,0.53321 0.0328,-1.47321 0.40765,-4.79104 0.83302,-7.37295 l 0.77342,-4.69438 -6.10537,-6.0511 c -5.94136,-5.88855 -6.19863,-6.02436 -9.57643,-5.05562 -1.90907,0.54749 -5.361,0.99546 -7.67094,0.99546 -5.95556,0 -7.31331,-2.29309 -7.31331,-12.35131 0,-7.58739 -0.13718,-8.05813 -3.40112,-11.67092 l -3.40111,-3.76463 -3.59889,3.68559 c -3.52369,3.60859 -3.59888,3.85244 -3.59888,11.67093 0,10.4583 -1.26785,12.43034 -7.9916,12.43034 -2.68301,0 -6.145,-0.48727 -7.6933,-1.08282 -2.6749,-1.0289 -3.10263,-0.76743 -8.58826,5.25 l -5.77317,6.33282 0.62447,7.07727 c 0.7327,8.304 -0.53074,10.42273 -6.21531,10.42273 -5.10807,0 -7.25032,-1.55856 -9.84757,-7.16446 l -2.31904,-5.00541 -0.67828,3.08818 c -0.86432,3.93525 -5.53691,8.63548 -9.34105,9.39631 -3.80147,0.7603 -8.99402,-0.7013 -13.6028,-3.82891 -3.01751,-2.04773 -4.86689,-2.48571 -10.49605,-2.48571 -4.98184,0 -7.18526,0.42426 -8.13276,1.56594 -2.75458,3.31906 -10.96072,5.8239 -15.4036,4.70178 z m 32.45832,-36.20033 c 0,-23.61515 -0.0285,-23.94167 -2.15123,-24.61539 -3.26517,-1.03632 -10.99492,-0.77822 -14.21954,0.4748 -2.53835,0.98636 -2.79888,1.47493 -2.25,4.21936 0.34142,1.70711 0.62077,12.27259 0.62077,23.47884 l 0,20.375 9,0 9,0 0,-23.93261 z m 176.34632,11.77561 c 1.0428,-19.39386 0.81974,-34.62234 -0.51926,-35.44988 -2.44952,-1.51389 -9.06435,-2.10005 -13.35999,-1.18388 l -4.46707,0.95273 0,23.91901 0,23.91902 8.84632,0 8.84633,0 0.65367,-12.157 z m -132.30747,-8.92622 6.87234,-7.58321 -2.3318,-3.43155 c -1.28249,-1.88736 -3.52848,-4.072 -4.99108,-4.85476 -2.59829,-1.39056 -2.82073,-1.26409 -9.69918,5.51477 -3.87194,3.81588 -8.87254,9.10493 -11.11244,11.75343 l -4.07255,4.81547 4.86021,4.9344 4.86021,4.93441 4.37097,-4.24987 c 2.40404,-2.33743 7.46353,-7.66232 11.24332,-11.83309 z m 92.3897,11.15576 4.85337,-4.92747 -10.89096,-11.56681 c -5.99003,-6.36175 -11.39277,-11.5694 -12.0061,-11.57254 -1.86267,-0.01 -6.33205,3.99147 -7.94679,7.11403 l -1.52197,2.94317 10.76421,11.46854 c 5.92031,6.3077 11.0186,11.46854 11.32954,11.46854 0.31093,0 2.74935,-2.21736 5.4187,-4.92746 z m -77.84063,-24.38294 c -0.81579,-4.07895 -4.60116,-8.84325 -8.83989,-11.12596 -6.36011,-3.42515 -9.36398,0.37249 -3.49803,4.42238 1.7875,1.2341 4.7153,4.20191 6.50623,6.59512 3.84179,5.13379 6.84794,5.1897 5.83169,0.10846 z m 48.05878,0.5604 c 1.51167,-2.0625 4.57207,-5.39891 6.80089,-7.41424 3.13305,-2.83294 3.78544,-3.93933 2.87563,-4.87678 -4.09751,-4.22203 -17.25545,8.56334 -14.96245,14.53878 0.9148,2.38394 2.33333,1.78074 5.28593,-2.24776 z m -3.66742,-10.42255 4.98567,-5.17254 -7.82884,-8.57746 c -4.57958,-5.01749 -8.34898,-10.16157 -9.08208,-12.39427 -1.53754,-4.68267 -4.85853,-6.54892 -8.61118,-4.8391 -1.76254,0.80307 -3.14044,0.85295 -4.43426,0.16052 -4.70038,-2.51557 -10.00859,0.32012 -10.00859,5.34667 0,1.04845 -3.85556,5.84633 -8.56791,10.66197 l -8.56792,8.7557 5.20605,5.20604 5.20604,5.20604 8.13276,-8.09051 c 5.12551,-5.09888 8.92913,-8.09051 10.28647,-8.09051 1.42916,0 4.75681,2.85958 9.89134,8.5 4.2557,4.675 7.88819,8.5 8.0722,8.5 0.18402,0 2.57813,-2.32765 5.32025,-5.17255 z m -114.47928,-12.33196 c 2.2,-0.33008 6.13228,-0.18567 8.7384,0.32091 6.04641,1.17531 8.66514,-0.2596 6.80772,-3.73022 -3.82899,-7.15454 -24.85075,-6.50421 -25.88361,0.80073 -0.39067,2.76302 1.46602,4.33436 4.33749,3.67086 1.1,-0.25418 3.8,-0.7322 6,-1.06228 z m 176,0 c 2.2,-0.33008 6.13228,-0.18567 8.7384,0.32091 8.74137,1.69916 10.51367,-2.99788 2.68671,-7.12046 -4.05458,-2.13561 -13.67228,-1.94522 -18.42511,0.36474 -5.0948,2.47616 -4.26288,8.71317 1,7.49709 1.1,-0.25418 3.8,-0.7322 6,-1.06228 z m -159.98279,-12.40095 c 0.81043,-2.11192 -3.38137,-5.98087 -7.75629,-7.15892 -7.28991,-1.96297 -18.76092,1.63409 -18.76092,5.88301 0,1.01642 0.1875,2.03554 0.41667,2.2647 0.22916,0.22917 6.07419,0.41667 12.98894,0.41667 9.877,0 12.6879,-0.30131 13.1116,-1.40546 z m 176.28789,-0.32102 c 0.8224,-4.27039 -8.45942,-8.39778 -16.25597,-7.22862 -5.44827,0.81702 -10.54913,3.85058 -10.54913,6.27373 0,1.01642 0.21317,2.06121 0.47371,2.32175 0.26055,0.26054 6.22017,0.43096 13.24362,0.37871 11.02669,-0.082 12.81329,-0.32032 13.08777,-1.74557 z M 700.76391,-912.6572 c 0.28085,-14.92074 0.66715,-18.80078 2.25814,-22.681 2.38032,-5.80529 1.43583,-9.26143 -3.42636,-12.53806 -5.83886,-3.93481 -14.79388,-2.86038 -19.62723,2.3549 -2.98409,3.21989 -3.11775,6.65446 -0.46169,11.86416 1.77477,3.48111 2.00008,5.89799 2.00067,21.46144 l 6.8e-4,17.53856 9.45848,0 9.45849,0 0.33882,-18 z m 175.74286,0.71016 c 0,-15.31639 0.22828,-17.7373 2,-21.21016 5.13087,-10.05735 -1.06408,-17.92091 -13.19955,-16.75485 -4.3532,0.41829 -5.70311,1.07213 -8.48842,4.11143 -3.82574,4.1746 -4.09661,6.68164 -1.31203,12.14342 1.77486,3.48129 2,5.89718 2,21.46144 l 0,17.53856 9.5,0 9.5,0 0,-17.28984 z"
         id="path4415"
         inkscape:connector-curvature="0" />
      <path
         style="fill:#0e1f0b"
         d="m 657.87209,-565.63829 c -14.50997,-3.18421 -26.71522,-9.89957 -37.38451,-20.56908 -8.80714,-8.80732 -14.9386,-19.55491 -18.01233,-31.57307 -1.91812,-7.49978 -1.96848,-11.83297 -1.96848,-169.37676 0,-157.64153 0.0493,-161.87267 1.972,-169.39052 7.00744,-27.39881 31.24361,-48.47308 60.41126,-52.52998 10.6946,-1.4875 221.49714,-1.4933 232.1875,-0.01 24.83684,3.4545 45.5778,18.41516 56.04652,40.4269 6.86376,14.43189 6.43982,1.73713 6.14729,184.0812 l -0.26457,164.9188 -2.31763,6.5 c -7.81256,21.91106 -24.99307,38.19793 -48.68237,46.15018 l -7,2.34982 -117.5,0.18258 c -95.30081,0.14809 -118.65902,-0.0718 -123.63468,-1.16367 z m 235.49718,-2.5609 c 27.07128,-3.39445 49.38287,-21.26725 57.8982,-46.3796 l 2.7393,-8.07841 0.26771,-161.22905 c 0.29844,-179.74135 0.69969,-168.68818 -6.67108,-183.77095 -9.24965,-18.9275 -24.41396,-31.08289 -45.50659,-36.4771 -7.71499,-1.973 -10.74901,-2.0229 -123.09004,-2.0229 -111.33855,0 -115.43708,0.066 -122.88595,1.9708 -20.67854,5.28871 -36.54155,17.98576 -45.63756,36.5292 -7.44289,15.17332 -7.06999,4.99079 -6.75665,184.5 l 0.28016,160.5 2.82363,7.9904 c 3.94005,11.14967 8.83577,18.8439 17.23636,27.0891 10.54674,10.35163 25.10754,17.46435 39.60125,19.34458 9.65406,1.25239 219.73635,1.28342 229.70126,0.0339 z m -231.38363,-51.27914 c -6.77289,-6.77289 -5.38068,-13.38861 4.57088,-21.72053 l 4.95025,-4.14458 0,-14.37169 c 0,-13.6706 -0.10461,-14.42769 -2.14429,-15.51929 -3.42767,-1.83444 -10.8812,-9.0714 -12.43249,-12.07125 -0.78277,-1.51372 -1.42322,-3.75748 -1.42322,-4.98615 0,-3.88572 4.09664,-10.89552 10.14817,-17.36463 l 5.85183,-6.25561 0,-11.14502 0,-11.14502 -7.5,-8.01977 c -8.76262,-9.36989 -9.48463,-12.08759 -4.35745,-16.40183 16.31266,-13.7262 46.38429,-13.7413 62.67748,-0.0315 l 3.10515,2.61281 1.48238,-3.54784 c 2.37394,-5.68161 5.88492,-8.56697 10.42454,-8.56697 5.62239,0 6.54241,1.60393 5.88702,10.26323 l -0.54772,7.23677 5.98625,6.09951 5.98626,6.0995 5.85482,-1.35259 c 10.53721,-2.43434 13.52436,0.69372 12.74921,13.35061 -0.44013,7.18661 -0.4355,7.20217 3.2038,10.75585 l 3.64458,3.55883 3.45184,-3.56313 c 3.3748,-3.48361 3.45184,-3.74918 3.45184,-11.89961 0,-6.79412 0.35245,-8.72616 1.90499,-10.44272 2.17719,-2.40721 8.18865,-2.84107 13.53611,-0.97694 3.15093,1.09842 3.40236,0.96848 9.19106,-4.75 l 5.9515,-5.87931 -0.65486,-7.56554 c -0.76781,-8.8703 0.41668,-10.93446 6.27455,-10.93446 2.78725,0 4.29196,0.77558 6.92857,3.5712 1.85245,1.96416 3.36808,4.21416 3.36808,5 0,1.92979 1.25868,1.79711 4.11514,-0.43375 15.92149,-12.43453 45.10265,-11.76385 60.7423,1.39605 5.16163,4.34322 4.4322,7.34965 -3.85744,15.89879 l -7,7.21913 0,12.29063 0,12.29064 5.64409,6.09629 c 8.5487,9.23362 10.93688,15.71309 7.93269,21.52255 -1.55129,2.99985 -9.00482,10.23681 -12.43249,12.07125 -2.03626,1.08977 -2.14429,1.85576 -2.14429,15.20427 l 0,14.05668 6.43235,6.2145 c 9.00346,8.69854 9.75736,13.61206 3.10871,20.26071 -4.47089,4.47089 -9.69383,4.57449 -17.19505,0.34106 -4.4942,-2.53637 -6.39074,-3 -12.27184,-3 -3.82588,0 -7.23823,0.45643 -7.583,1.01429 -1.34055,2.16905 -8.61402,4.98571 -12.87461,4.98571 -5.41714,0 -9.90282,-3.30731 -11.64489,-8.58583 -1.74038,-5.27342 -0.6375,-7.64506 7.0261,-15.10889 l 6.98741,-6.80528 0.007,-13.58948 c 0.007,-13.1249 -0.0695,-13.62465 -2.24259,-14.61779 -4.66155,-2.13042 -12.70314,-10.40427 -13.85773,-14.25797 -1.01078,-3.37367 -0.85072,-4.44577 1.39659,-9.35453 1.39601,-3.04928 5.06964,-8.15773 8.16363,-11.3521 l 5.62544,-5.80795 -0.28896,-6.97221 c -0.28793,-6.94716 -0.30036,-6.97453 -3.4592,-7.61748 -2.89883,-0.59002 -3.70185,-0.10888 -9.37991,5.6201 -6.06006,6.11441 -6.18245,6.34345 -5.07977,9.50661 0.62145,1.78268 1.12991,5.39195 1.12991,8.02059 0,7.53206 -3.37304,9.61955 -13.98826,8.65699 l -5.80983,-0.52682 -4.76504,5.51933 -4.76505,5.51933 -0.0859,8.12669 -0.0859,8.12669 -3.1764,0.30787 c -3.17913,0.30813 -9.09496,-2.14566 -14.70263,-6.09842 -2.53258,-1.78518 -3.13425,-1.86265 -5,-0.64376 -5.31204,3.47061 -13.15148,6.93431 -15.69411,6.93431 -3.60321,0 -4.30617,-2.20313 -3.45607,-10.83162 l 0.65698,-6.66838 -5.10047,-4.99863 -5.10047,-4.99864 -8.04938,-0.001 c -7.37786,-10e-4 -8.21851,-0.20993 -10.0768,-2.50137 -2.0171,-2.48727 -2.09161,-6.14146 -0.30586,-15 0.4036,-2.00215 -0.64094,-3.74477 -5.24522,-8.75068 l -5.74918,-6.25067 -4.5,0.77501 -4.5,0.77501 -0.29733,6.79764 -0.29733,6.79763 5.89915,6.30622 c 7.4504,7.9645 10.65685,14.27715 9.73848,19.17249 -0.7415,3.95253 -6.77614,11.12227 -12.16423,14.45229 l -3.37874,2.08782 0,14.35149 0,14.35149 4.37846,3.58782 c 2.40816,1.9733 5.61061,5.3658 7.11656,7.53889 3.54276,5.11221 2.87383,9.83834 -2.09589,14.80806 -3.21992,3.21992 -3.78397,3.41488 -8.70042,3.00717 -3.52344,-0.29219 -6.56092,-1.32183 -9.21013,-3.12201 -3.32202,-2.25737 -5.02737,-2.68603 -10.68599,-2.68603 -5.76337,0 -7.41446,0.43209 -11.46364,3 -6.88029,4.36335 -13.29086,4.24809 -17.86008,-0.32113 z m 37.28891,-32.92887 -0.26778,-24.25 -5,-0.82835 c -3.49123,-0.57839 -6.20701,-0.4262 -9,0.50436 -3.40166,1.13336 -3.99065,1.74342 -3.9375,4.07835 0.0344,1.5101 0.14687,12.19564 0.25,23.74564 l 0.1875,21 9.01778,0 9.01778,0 -0.26778,-24.25 z m 176.57854,12.093 c 0.35953,-6.68635 0.65368,-17.45603 0.65368,-23.93261 0,-12.97328 0.45868,-12.10398 -7.09077,-13.43849 -1.97493,-0.34911 -5.46243,-0.13076 -7.75,0.48522 l -4.15923,1.11997 0,23.96145 0,23.96146 8.84632,0 8.84633,0 0.65367,-12.157 z m -181.84632,-44.32372 c 9.25904,-0.0178 10,-0.16452 10,-1.97945 0,-1.11303 -1.46847,-2.94977 -3.39788,-4.25 -4.15688,-2.80132 -12.99474,-3.11684 -19.08188,-0.68125 -3.35732,1.34333 -4.02024,2.07162 -4.02024,4.41667 0,3.10441 1.46246,4.12978 4.5,3.15508 1.1,-0.35298 6.5,-0.65045 12,-0.66105 z m 177.18721,0.23683 c 8.46847,0.26491 9.90042,-0.3293 8.84058,-3.66856 -1.48918,-4.69198 -14.46378,-6.69745 -22.50755,-3.47897 -3.35732,1.34333 -4.02024,2.07162 -4.02024,4.41667 0,3.34885 1.31634,4.03851 6,3.14354 1.925,-0.36783 7.18424,-0.55354 11.68721,-0.41268 z m -92.80329,-0.66321 c 0.76116,-0.48206 2.56116,-0.55329 4,-0.15829 4.62454,1.26956 7.49074,-0.13913 8.88639,-4.36752 0.7562,-2.29107 4.58561,-7.48011 9.46218,-12.82176 l 8.19188,-8.97312 -2.09592,-3.6361 c -1.15276,-1.99986 -3.56203,-4.50229 -5.35394,-5.56095 l -3.258,-1.92483 -8.60826,9.21093 c -4.73454,5.06601 -9.36463,9.19468 -10.2891,9.17483 -0.92447,-0.0199 -5.19947,-3.85755 -9.5,-8.52822 -4.30053,-4.67067 -8.34712,-8.49567 -8.99242,-8.5 -1.78537,-0.012 -7.22241,4.88973 -8.79331,7.92751 -1.36476,2.63916 -1.21683,2.88926 6.87954,11.63089 4.8302,5.21515 8.77902,10.46775 9.4869,12.61914 0.66694,2.02698 1.74981,3.90395 2.40638,4.17105 1.99061,0.80982 6.10904,0.66657 7.57768,-0.26356 z m -74.38392,-13.14241 c 0,-3.88982 -7.35142,-7.23226 -14.58785,-6.6326 -7.73644,0.64109 -11.91215,2.93475 -11.91215,6.54318 l 0,2.80971 13.25,-0.1349 13.25,-0.1349 0,-2.45049 z m 176.33127,0.68715 c 1.24714,-6.47588 -14.78374,-9.8163 -24.0681,-5.01517 -2.4967,1.29109 -3.80153,5.00584 -2.28946,6.51791 0.26055,0.26054 6.22017,0.43096 13.24362,0.37871 11.42251,-0.085 12.8062,-0.2835 13.11394,-1.88145 z m -179.83121,-29.42748 c -5e-5,-15.31646 0.22821,-17.73728 1.99994,-21.21016 3.00238,-5.88514 2.62226,-9.57774 -1.4,-13.6 -3.06426,-3.06426 -3.95789,-3.4 -9.04966,-3.4 -12.25758,0 -17.55936,7.18151 -12.55034,17 1.77163,3.47268 2.00008,5.89458 2.00067,21.21016 l 6.8e-4,17.28984 9.49938,0 9.49938,0 -5e-5,-17.28984 z m 175.99994,0.25128 c 0,-15.06426 0.23174,-17.49311 2,-20.96144 3.43113,-6.72997 1.9148,-13.8509 -3.47206,-16.30531 -4.48086,-2.04162 -12.7805,-1.49907 -16.61686,1.08625 -4.86219,3.27663 -5.80668,6.73277 -3.42636,12.53806 1.59098,3.8802 1.9773,7.76035 2.2582,22.681 l 0.33888,18 9.4591,0 9.4591,0 0,-17.03856 z m -129,12.42884 c 0,-0.61034 2.70352,-3.71436 6.00783,-6.89782 4.12701,-3.97608 5.81535,-6.28968 5.39301,-7.39028 -2.1379,-5.57127 -15.40084,5.23288 -15.40084,12.5457 0,2.18545 0.46749,2.85212 2,2.85212 1.1,0 2,-0.49937 2,-1.10972 z m 68.63923,-0.39252 c 1.0793,-2.81259 -0.77004,-6.89173 -5.07718,-11.19887 -4.41963,-4.41963 -9.06668,-5.75339 -10.15592,-2.91487 -0.49785,1.29738 12.08678,15.40173 13.87525,15.55084 0.42977,0.0358 1.0408,-0.61087 1.35785,-1.4371 z m -71.17972,-11.85387 c 2.22227,-2.39586 4.71549,-4.58964 5.54049,-4.87506 1.06245,-0.36757 -1.70869,-3.86937 -9.5,-12.00483 -6.05,-6.31724 -11.46692,-11.54846 -12.03759,-11.62494 -0.57068,-0.0765 -3.22825,2.08504 -5.90572,4.80338 l -4.86812,4.94244 10.77922,11.55756 c 5.92857,6.35666 11.04292,11.55756 11.36523,11.55756 0.3223,0 2.40423,-1.96025 4.62649,-4.35611 z m 86.05891,-7.44863 10.80514,-11.30474 -5.41178,-5.49159 -5.41178,-5.49159 -11.01877,11.69075 -11.01877,11.69074 5.01877,5.28429 c 2.76032,2.90636 5.29176,5.20388 5.62541,5.10559 0.33365,-0.0983 5.46895,-5.26584 11.41178,-11.48345 z M 665.5267,-801.89548 c -4.09863,-2.07486 -8.01993,-7.505 -8.01993,-11.10585 0,-3.31906 3.81137,-8.73878 9.47445,-13.47252 l 4.52555,-3.78289 0,-14.41505 c 0,-13.71491 -0.10415,-14.47078 -2.14429,-15.56263 -3.42767,-1.83444 -10.8812,-9.0714 -12.43249,-12.07125 -0.78277,-1.51372 -1.42322,-3.75748 -1.42322,-4.98615 0,-3.83349 3.84331,-10.40513 10.04069,-17.16848 l 5.95931,-6.50354 0,-11.16 0,-11.16 -7.5,-7.87336 c -9.1374,-9.59227 -9.67016,-12.11314 -3.5795,-16.93703 7.4496,-5.9002 20.0995,-10.06297 30.5795,-10.06297 10.48,0 23.1299,4.16277 30.5795,10.06297 6.09066,4.82389 5.5579,7.34476 -3.5795,16.93703 l -7.5,7.87336 0,11.37623 0,11.37623 3.13497,2.93709 c 1.72423,1.6154 5.05875,5.5191 7.41004,8.6749 4.99372,6.70234 6.34744,12.1357 4.10434,16.47337 -1.61113,3.1156 -9.01061,10.34143 -12.50506,12.2116 -1.89764,1.01559 -2.14429,2.00404 -2.14429,8.59335 0,8.18329 -0.6444,7.38809 7.25397,8.95152 1.13943,0.22554 3.79826,-1.91787 7.58864,-6.11757 l 5.83467,-6.46475 -1.37542,-5.19266 c -1.55634,-5.8757 -1.02293,-10.84899 1.3774,-12.84219 1.03202,-0.85697 4.52356,-1.39337 9.55452,-1.46784 l 7.92819,-0.11736 5.0121,-4.88264 5.0121,-4.88264 -0.57101,-6.5 c -0.31405,-3.575 -0.2901,-7.5636 0.0532,-8.86356 0.5643,-2.13657 1.04604,-2.31602 5.01618,-1.86852 2.61537,0.29478 6.75896,1.95605 10.24359,4.10688 l 5.85167,3.61186 5.8401,-3.51672 c 3.21206,-1.9342 7.62503,-3.99736 9.80662,-4.5848 5.73957,-1.54551 6.85636,0.32644 6.03444,10.11486 l -0.62977,7.5 5.02649,4.90539 5.0265,4.90538 7.53861,-0.22012 c 6.96322,-0.20331 7.74044,-0.0183 10.18291,2.42418 2.78899,2.78899 2.77084,2.48738 0.87158,14.48517 -0.50812,3.20987 -0.0809,3.98395 5.15355,9.33817 5.61154,5.73991 5.78048,5.82723 10.03836,5.18872 l 4.33081,-0.64944 0,-7.27821 c 0,-6.8227 -0.1589,-7.35061 -2.53884,-8.43498 -4.59709,-2.09458 -12.40684,-10.25093 -13.58702,-14.19002 -0.98496,-3.2875 -0.81987,-4.41099 1.33897,-9.11204 1.35436,-2.94921 5.01046,-8.05103 8.12468,-11.33737 l 5.66221,-5.97518 0,-11.327 0,-11.327 -6.95625,-7.34943 c -9.80853,-10.36291 -10.15382,-13.42594 -2.13953,-18.97984 13.94128,-9.66131 36.40727,-11.01635 51.96216,-3.13409 14.17559,7.18331 14.53208,11.66967 1.88362,23.7051 l -4.75,4.51978 0,12.26809 0,12.2681 5.95289,6.49653 c 6.77061,7.38893 9.60832,13.50504 8.646,18.63467 -0.70354,3.7502 -5.5614,9.29872 -11.69505,13.35777 l -3.90384,2.58344 0,14.274 0,14.27399 4.95025,4.14458 c 5.69089,4.76469 9.04975,9.68687 9.04975,13.26181 0,3.64911 -3.98944,9.01654 -8.25725,11.10937 -3.21815,1.5781 -4.247,1.66072 -7.4868,0.60125 -2.06577,-0.67554 -5.32291,-2.28632 -7.23808,-3.57951 -5.05426,-3.41281 -15.7797,-3.38615 -20.33459,0.0505 -8.51872,6.42741 -18.57138,4.69455 -22.20342,-3.8274 l -1.24689,-2.9256 -1.5965,3.0873 c -3.5261,6.81873 -10.60326,9.29711 -14.7389,5.16147 -1.80467,-1.80467 -2.00931,-2.83145 -1.445,-7.25 0.36158,-2.83116 0.74518,-5.84016 0.85243,-6.68667 0.10725,-0.8465 -2.34748,-4.36094 -5.45496,-7.80986 l -5.64996,-6.27077 -5.89969,1.21856 c -11.15541,2.30415 -13.30039,0.21282 -13.30039,-12.96772 0,-7.57309 -0.0768,-7.8125 -3.5874,-11.1849 l -3.5874,-3.44617 -3.4126,3.91661 c -3.28105,3.76563 -3.4126,4.22927 -3.4126,12.02749 0,10.27968 -1.32581,12.5559 -7.31331,12.5559 -2.30994,0 -5.76802,-0.44973 -7.68462,-0.99941 -3.40789,-0.97737 -3.62041,-0.86159 -9.63669,5.25 l -6.15194,6.24941 1.05712,6.74022 c 0.94347,6.01553 0.86157,6.95629 -0.7617,8.75 -4.12344,4.55634 -12.99095,0.84948 -15.66625,-6.54894 l -1.25106,-3.45974 -2.04578,4.19886 c -4.29835,8.8222 -11.59982,10.57149 -20.64797,4.94685 -4.36249,-2.71187 -5.9438,-3.12725 -11.90523,-3.12725 -3.78099,0 -7.15663,0.45643 -7.5014,1.01429 -0.88079,1.42515 -7.41185,4.61925 -10.99117,5.37539 -1.96866,0.41588 -4.19638,0.0281 -6.48007,-1.12796 z m 33.74785,-35.48454 -0.26778,-24.22282 -4.39462,-0.74972 c -4.40033,-0.7507 -11.77362,0.30785 -12.99914,1.86622 -0.35863,0.45603 -0.49241,11.29164 -0.2973,24.07914 l 0.35475,23.25 8.93594,0 8.93593,0 -0.26778,-24.22282 z m 176.57854,12.06582 c 0.35953,-6.68635 0.65368,-17.47778 0.65368,-23.98095 l 0,-11.82395 -2.70105,-0.67792 c -3.6667,-0.92028 -10.20472,-0.94697 -13.54895,-0.0553 l -2.75,0.73322 0,23.98095 0,23.98095 8.84632,0 8.84633,0 0.65367,-12.157 z m -135.9022,-4.61849 c 10.58065,-10.97882 10.83052,-11.34281 9.49704,-13.83446 -1.4406,-2.69178 -7.43447,-8.39005 -8.8253,-8.39005 -0.93629,0 -22.11586,22.47837 -22.11586,23.47208 0,1.33821 8.53732,10.55225 9.53878,10.29488 0.57133,-0.14683 5.92873,-5.34093 11.90534,-11.54245 z m 96.00029,6.83192 4.86923,-4.94356 -7.07356,-7.80644 c -3.89047,-4.29353 -9.11863,-9.79554 -11.61815,-12.22668 l -4.54458,-4.42026 -4.53868,4.53868 c -2.49627,2.49627 -4.53867,5.27133 -4.53867,6.16679 0,1.52929 20.5001,23.63504 21.91831,23.63504 0.36128,0 2.84803,-2.2246 5.5261,-4.94357 z M 758.146,-844.65944 c 1.82241,-4.74912 -6.95585,-15.49776 -12.65679,-15.49776 -4.35322,0 -3.81292,2.4016 1.76756,7.85671 2.6125,2.55381 5.5331,5.65579 6.49021,6.89329 2.01956,2.61118 3.58204,2.87677 4.39902,0.74776 z m 51.47254,-5.61109 c 6.71749,-6.81144 8.07675,-9.88667 4.36995,-9.88667 -4.35129,0 -11.8487,6.62965 -13.08986,11.57484 -0.60475,2.40953 0.0206,5.42516 1.12503,5.42516 0.31881,0 3.73651,-3.201 7.59488,-7.11333 z m -3.77377,-9.97478 2.83801,-2.1955 -8.4932,-8.60819 c -5.76853,-5.84665 -8.70463,-9.62865 -9.15228,-11.7891 -0.98391,-4.74858 -2.78352,-5.65198 -11.83606,-5.94168 -8.71026,-0.27874 -11.69447,0.94082 -11.69447,4.77921 0,1.01566 -3.89832,6.16291 -8.66293,11.43834 l -8.66293,9.59169 3.43702,3.15667 c 1.89036,1.73617 4.2358,4.28167 5.21208,5.65667 l 1.77507,2.5 8.20084,-8.78219 c 4.51047,-4.83021 8.93165,-8.76771 9.82484,-8.75 0.8932,0.0177 5.57484,4.06962 10.40365,9.00427 l 8.77965,8.97208 2.59635,-3.41839 c 1.428,-1.88012 3.87346,-4.40636 5.43436,-5.61388 z m -120.25433,-9.02325 c 3.8093,-0.81695 6.65859,-0.81485 10.75556,0.008 4.59217,0.92224 5.82529,0.86747 7.00386,-0.31109 1.93133,-1.93134 0.89099,-4.16742 -3.05951,-6.57603 -4.09422,-2.49623 -13.04842,-2.68754 -18.76334,-0.40088 -3.31645,1.32692 -4.02024,2.08552 -4.02024,4.33327 0,4.44252 0.41079,4.59226 8.08367,2.94673 z m 176,0 c 3.8093,-0.81695 6.65859,-0.81485 10.75556,0.008 4.59217,0.92224 5.82529,0.86747 7.00386,-0.31109 1.93133,-1.93134 0.89099,-4.16742 -3.05951,-6.57603 -4.09422,-2.49623 -13.04842,-2.68754 -18.76334,-0.40088 -3.31645,1.32698 -4.02024,2.08558 -4.02024,4.33333 0,4.44252 0.41079,4.59226 8.08367,2.94673 z m -157.26747,-13.62187 c 0.23018,-1.61288 -0.57711,-2.75891 -2.96742,-4.21254 -5.11032,-3.10777 -10.95878,-3.57913 -17.60794,-1.41915 -5.19892,1.68888 -5.76923,2.15573 -6.04157,4.94557 l -0.30073,3.08066 13.30073,-0.0894 c 12.93893,-0.087 13.30933,-0.14971 13.61693,-2.30509 z m 176,0 c 0.23018,-1.61288 -0.57711,-2.75891 -2.96742,-4.21254 -5.11032,-3.10777 -10.95878,-3.57913 -17.60794,-1.41915 -5.19892,1.68888 -5.76923,2.15573 -6.04157,4.94557 l -0.30073,3.08066 13.30073,-0.0894 c 12.93893,-0.087 13.30933,-0.14971 13.61693,-2.30509 z m -179.8162,-29.05661 c 0,-15.31639 0.22828,-17.7373 2,-21.21016 3.00238,-5.88514 2.62226,-9.57774 -1.4,-13.6 -3.06426,-3.06426 -3.95789,-3.4 -9.04966,-3.4 -12.25758,0 -17.55936,7.18151 -12.55034,17 1.77172,3.47286 2,5.89377 2,21.21016 l 0,17.28984 9.5,0 9.5,0 0,-17.28984 z m 176,0.25128 c 0,-15.06426 0.23174,-17.49311 2,-20.96144 3.04778,-5.97804 2.64275,-10.05725 -1.4,-14.1 -3.10503,-3.10503 -3.91638,-3.4 -9.35212,-3.4 -4.54055,0 -6.7548,0.54093 -9.3368,2.28094 -4.86219,3.27663 -5.80668,6.73277 -3.42636,12.53806 1.59098,3.8802 1.9773,7.76035 2.2582,22.681 l 0.33888,18 9.4591,0 9.4591,0 0,-17.03856 z"
         id="path4413"
         inkscape:connector-curvature="0" />
      <path
         style="fill:#000000"
         d="m 657.87209,-565.63829 c -14.50997,-3.18421 -26.71522,-9.89957 -37.38451,-20.56908 -8.80714,-8.80732 -14.9386,-19.55491 -18.01233,-31.57307 -1.91812,-7.49978 -1.96848,-11.83297 -1.96848,-169.37676 0,-157.64153 0.0493,-161.87267 1.972,-169.39052 7.00744,-27.39881 31.24361,-48.47308 60.41126,-52.52998 10.6946,-1.4875 221.49714,-1.4933 232.1875,-0.01 24.83684,3.4545 45.5778,18.41516 56.04652,40.4269 6.86376,14.43189 6.43982,1.73713 6.14729,184.0812 l -0.26457,164.9188 -2.31763,6.5 c -7.81256,21.91106 -24.99307,38.19793 -48.68237,46.15018 l -7,2.34982 -117.5,0.18258 c -95.30081,0.14809 -118.65902,-0.0718 -123.63468,-1.16367 z m 235.49718,-2.5609 c 27.07128,-3.39445 49.38287,-21.26725 57.8982,-46.3796 l 2.7393,-8.07841 0.26771,-161.22905 c 0.29844,-179.74135 0.69969,-168.68818 -6.67108,-183.77095 -9.24965,-18.9275 -24.41396,-31.08289 -45.50659,-36.4771 -7.71499,-1.973 -10.74901,-2.0229 -123.09004,-2.0229 -111.33855,0 -115.43708,0.066 -122.88595,1.9708 -20.67854,5.28871 -36.54155,17.98576 -45.63756,36.5292 -7.44289,15.17332 -7.06999,4.99079 -6.75665,184.5 l 0.28016,160.5 2.82363,7.9904 c 3.94005,11.14967 8.83577,18.8439 17.23636,27.0891 10.54674,10.35163 25.10754,17.46435 39.60125,19.34458 9.65406,1.25239 219.73635,1.28342 229.70126,0.0339 z"
         id="path4411"
         inkscape:connector-curvature="0" />
    </g>
  </g>
</svg>
