<?xml version="1.0" encoding="UTF-8" standalone="no"?>
<!-- Created with Inkscape (http://www.inkscape.org/) -->

<svg
   xmlns:dc="http://purl.org/dc/elements/1.1/"
   xmlns:cc="http://creativecommons.org/ns#"
   xmlns:rdf="http://www.w3.org/1999/02/22-rdf-syntax-ns#"
   xmlns:svg="http://www.w3.org/2000/svg"
   xmlns="http://www.w3.org/2000/svg"
   xmlns:sodipodi="http://sodipodi.sourceforge.net/DTD/sodipodi-0.dtd"
   xmlns:inkscape="http://www.inkscape.org/namespaces/inkscape"
   width="357.98129"
   height="446.62656"
   id="svg2"
   version="1.1"
   inkscape:version="0.48.5 r10040"
   sodipodi:docname="bamb4.svg">
  <defs
     id="defs4" />
  <sodipodi:namedview
     id="base"
     pagecolor="#ffffff"
     bordercolor="#666666"
     borderopacity="1.0"
     inkscape:pageopacity="0.0"
     inkscape:pageshadow="2"
     inkscape:zoom="0.56054688"
     inkscape:cx="-225.46909"
     inkscape:cy="101.8997"
     inkscape:document-units="px"
     inkscape:current-layer="layer1"
     showgrid="false"
     fit-margin-top="0"
     fit-margin-left="0"
     fit-margin-right="0"
     fit-margin-bottom="0"
     inkscape:window-width="958"
     inkscape:window-height="1078"
     inkscape:window-x="1920"
     inkscape:window-y="0"
     inkscape:window-maximized="0" />
  <metadata
     id="metadata7">
    <rdf:RDF>
      <cc:Work
         rdf:about="">
        <dc:format>image/svg+xml</dc:format>
        <dc:type
           rdf:resource="http://purl.org/dc/dcmitype/StillImage" />
        <dc:title></dc:title>
      </cc:Work>
    </rdf:RDF>
  </metadata>
  <g
     inkscape:label="Layer 1"
     inkscape:groupmode="layer"
     id="layer1"
     transform="translate(-1457.1384,648.65004)">
    <g
       id="g4271"
       transform="translate(836.68293,347.87456)">
      <path
         style="fill:#dc8c8f"
         d="m 683.64299,-550.58587 c -29.52626,-3.91799 -53.55687,-24.37995 -61.15423,-52.07256 -2.0567,-7.49673 -2.06629,-8.41648 -1.80316,-172.95494 l 0.26453,-165.41812 2.67921,-7.3346 c 8.75606,-23.97054 28.91514,-41.42633 53.91514,-46.68525 5.9795,-1.25782 24.33776,-1.4791 122.22103,-1.47314 111.74422,0.007 115.43394,0.0668 123.53169,2.00805 24.59124,5.89527 43.46571,22.82701 51.8293,46.49454 l 2.82363,7.9904 0.26458,164.28131 c 0.29594,183.75566 0.8009,170.32126 -6.99941,186.21869 -3.36723,6.86259 -5.91961,10.25715 -13.24973,17.62157 -7.73357,7.76975 -10.48226,9.80223 -18.54726,13.71446 -17.82816,8.64821 -7.9301,8.047 -135.96818,8.25878 -62.425,0.10326 -116.33821,-0.18888 -119.80714,-0.64919 z m 235.5993,-5.47371 c 4.58603,-0.9092 11.5555,-3.39899 17.20784,-6.14737 7.93426,-3.85796 10.91966,-6.03712 18.11366,-13.22191 7.04901,-7.03997 9.34644,-10.14664 12.64768,-17.10263 7.21388,-15.20027 6.73866,-2.40062 6.73866,-181.5 l 0,-162 -2.92687,-8.93067 c -8.25993,-25.20327 -30.16112,-43.0386 -57.26136,-46.63104 -5.12559,-0.67945 -46.32449,-0.91874 -119.81177,-0.69587 -125.70702,0.38124 -115.57068,-0.23261 -132.5,8.02411 -12.0158,5.86031 -23.87089,17.71465 -29.73538,29.73347 -7.69595,15.77227 -7.2667,5.00988 -7.24726,181.70784 0.0148,134.69376 0.23173,158.80404 1.48176,164.7046 5.4177,25.57336 26.54519,46.34968 53.00088,52.11991 4.73359,1.03243 29.91243,1.32543 119.29216,1.38815 97.8236,0.0686 114.34456,-0.12914 121,-1.44859 z m -234.24501,-52.56465 c -4.50457,-3.95507 -6.34446,-9.56817 -4.55353,-13.89186 0.70354,-1.6985 4.14279,-5.71217 7.64277,-8.91927 l 6.36361,-5.83109 0,-12.89425 0,-12.89426 -6.56698,-4.76257 c -13.43411,-9.74283 -13.28715,-19.71384 0.48898,-33.17637 l 5.078,-4.96241 0,-11.35256 0,-11.35255 -5.64367,-5.37963 c -10.47792,-9.98771 -11.74144,-14.1891 -5.82853,-19.38071 15.10485,-13.26223 42.46714,-14.15918 60.833,-1.99414 8.01979,5.3121 7.56202,10.05135 -1.91952,19.87253 l -6.44128,6.672 0,11.60329 0,11.60328 5.03529,5.16954 c 9.14539,9.38923 11.98895,18.1317 8.01651,24.64662 -1.92729,3.16081 -11.39852,11.31715 -13.1416,11.31715 -0.50305,0 -0.9102,6.18532 -0.9102,13.82759 l 0,13.82758 7,7 c 5.75413,5.75413 7,7.57035 7,10.20453 0,7.72678 -5.78896,14.1286 -12.78324,14.13656 -3.26041,0.004 -12.49873,-4.02545 -13.70501,-5.97724 -0.34638,-0.56046 -3.24871,-1.01902 -6.44961,-1.01902 -4.87746,0 -6.76099,0.56674 -11.63216,3.5 -7.74573,4.66424 -12.90069,4.78163 -17.88283,0.40726 z m 36.80311,-19.06088 c 0.35736,-5.0345 0.64974,-15.62064 0.64974,-23.52476 l 0,-14.37112 -2.5651,-0.97525 c -1.4108,-0.53639 -4.30651,-0.97525 -6.4349,-0.97525 -2.12839,0 -5.0241,0.43886 -6.4349,0.97525 l -2.5651,0.97525 0,23.52475 0,23.52475 8.35026,0 8.35025,0 0.64975,-9.15362 z m 4.44289,-48.72584 c 0.68316,-2.04946 -2.62357,-4.81314 -7.33831,-6.13319 -7.79765,-2.1832 -18.45484,0.88331 -18.45484,5.31022 0,2.2152 0.17524,2.24493 12.69053,2.15273 9.11881,-0.0672 12.80651,-0.44143 13.10262,-1.32976 z m -16.05533,-10.66319 c 2.6192,-0.33813 6.73009,-0.16474 9.13531,0.38531 5.2761,1.20657 7.33469,0.58043 6.92974,-2.10777 -1.08348,-7.19245 -24.3106,-7.51369 -25.64833,-0.35472 -0.3872,2.07214 1.64454,3.85558 3.58328,3.14538 0.6808,-0.24939 3.3808,-0.73008 6,-1.0682 z m 14.51218,-52.15769 c 2.62223,-4.79544 2.25068,-8.95283 -1.09954,-12.30304 -4.98132,-4.98133 -14.57322,-4.97798 -19.92392,0.007 -3.40941,3.17635 -3.81224,6.61118 -1.3659,11.64649 1.93782,3.98856 2.13936,6.06036 2.13936,21.99186 l 0,17.58848 5.25,-0.59874 c 2.8875,-0.32931 6.825,-0.24939 8.75,0.1776 l 3.5,0.77634 0.5,-18.04282 c 0.40541,-14.62955 0.83106,-18.64826 2.25,-21.24317 z m 134.82727,130.93378 c -3.9841,-2.19762 -7.07727,-7.36815 -7.07727,-11.83033 0,-3.47398 3.04344,-7.78639 9.75,-13.81528 l 4.25,-3.82055 -0.0258,-13.63364 -0.0258,-13.63364 -5.14142,-3.48947 c -13.79432,-9.3622 -14.15672,-18.54801 -1.29258,-32.76335 l 5.4856,-6.06175 0,-11.70456 0,-11.70456 -5.59801,-5.12734 c -6.3081,-5.77774 -8.40199,-9.16445 -8.40199,-13.58959 0,-2.46936 0.89156,-3.69601 4.75,-6.5353 10.44541,-7.6864 25.72095,-10.92885 39.08416,-8.29615 9.73621,1.91813 18.49581,5.7492 22.91584,10.02238 5.22339,5.04985 4.44665,7.6334 -5.38233,17.90246 l -6.36767,6.65277 0,11.38482 0,11.38482 5.078,4.96241 c 10.13783,9.90705 12.86032,18.54902 8.05371,25.56477 -1.30256,1.90123 -5.01506,5.45778 -8.25,7.90345 l -5.88171,4.44668 0,12.92797 0,12.92797 6.03328,5.45981 c 7.31855,6.6229 9.37822,10.22474 8.5059,14.87462 -0.88013,4.69147 -5.89812,10.14625 -10.05039,10.92522 -4.04253,0.75838 -9.83631,-0.95531 -14.17207,-4.19185 -2.5289,-1.88775 -4.42439,-2.37623 -9.22076,-2.37623 -5.14312,0 -6.691,0.46064 -10.44908,3.10958 -5.63981,3.97531 -11.78509,4.763 -16.56961,2.12386 z m 34.92273,-35.11681 0,-23.88337 -2.25,-0.60297 c -3.444,-0.92296 -10.32343,-0.74297 -13.1849,0.34496 l -2.5651,0.97525 0,22.97906 0,22.97906 6.75,0.34983 c 3.7125,0.19241 7.7625,0.43797 9,0.54569 l 2.25,0.19586 0,-23.88337 z m -6.5,-33.16251 c 10.34071,0.6081 9.98266,0.66804 10.32271,-1.72819 0.48305,-3.40404 -7.32291,-6.66145 -14.24338,-5.94373 -8.47771,0.87923 -12.37403,3.48327 -10.91212,7.29296 0.49365,1.28641 1.54192,1.44396 5.71862,0.85944 2.81279,-0.39364 6.91417,-0.60986 9.11417,-0.48048 z m 11.18697,-12.51502 c 0.1933,-0.5799 -0.8041,-2.13997 -2.21646,-3.4668 -5.50331,-5.1701 -23.47051,-3.26905 -23.47051,2.48334 0,2.19143 0.20655,2.22621 12.66775,2.1328 7.90934,-0.0593 12.79978,-0.49102 13.01922,-1.14934 z m -1.30208,-52.58358 c 2.22561,-4.30325 1.6503,-7.91123 -1.81383,-11.37537 -4.68534,-4.68534 -14.78418,-4.42087 -19.72152,0.51647 -3.44266,3.44266 -3.702,7.41211 -0.84954,13.00338 1.76905,3.46762 2,5.89377 2,21.00982 l 0,17.08949 5.75,-0.59198 c 3.1625,-0.32559 7.1,-0.20225 8.75,0.2741 l 3,0.86608 0.5,-18.57375 c 0.41955,-15.58534 0.80327,-19.16014 2.38489,-22.21824 z m -121.98863,51.76278 c -3.68154,-1.65915 -7.17047,-6.23936 -8.03126,-10.54329 -0.77279,-3.86396 2.54523,-9.22863 9.09304,-14.70193 l 4.54196,-3.7966 0,-14.19444 0,-14.19443 -4.88461,-3.50924 c -11.07334,-7.95541 -13.23625,-15.14767 -7.32202,-24.34769 1.70797,-2.65687 5.15318,-6.83687 7.65601,-9.28889 l 4.55062,-4.45821 0,-11.70165 0,-11.70166 -4.62397,-4.34013 c -6.15531,-5.77748 -10.37603,-11.6296 -10.37603,-14.38659 0,-5.19485 12.29605,-12.42157 25.93265,-15.24132 6.76208,-1.39824 9.14284,-1.4627 16.17413,-0.43788 14.32843,2.08839 27.89322,10.07304 27.89322,16.4188 0,2.09919 -1.75357,4.64687 -7,10.17 l -7,7.36918 0,12.29342 0,12.29342 5.5295,5.79711 c 8.44417,8.85283 11.05811,15.91294 8.04728,21.73525 -1.55129,2.99985 -9.00482,10.23681 -12.43249,12.07125 -2.03406,1.0886 -2.14429,1.86014 -2.14429,15.00896 l 0,13.86136 7,7 c 5.96571,5.96571 7,7.51058 7,10.45557 0,4.57102 -3.60343,9.79905 -8.36087,12.13035 -4.48039,2.19554 -8.77695,1.37391 -15.03959,-2.87603 -2.98345,-2.02462 -4.90944,-2.50299 -10.0775,-2.50299 -5.37506,0 -7.16338,0.48129 -11.26706,3.03228 -5.85342,3.63868 -10.66484,4.47607 -14.85872,2.58602 z m 33.94453,-26.8683 c 1.11642,-24.40419 0.89255,-32.44648 -0.92258,-33.14301 -2.05017,-0.78672 -12.78625,-0.78672 -14.83642,0 -1.38001,0.52956 -1.58179,3.59112 -1.58179,24 l 0,23.39301 8.34445,0 8.34445,0 0.65189,-14.25 z m -6.34079,-41.8708 c 11.06824,0.70313 10.5,0.7984 10.5,-1.7605 0,-5.34204 -12.72363,-8.01363 -21.47976,-4.51012 -3.45119,1.38089 -4.02024,2.03608 -4.02024,4.62883 l 0,3.02025 5.25,-0.83217 c 2.8875,-0.45769 7.275,-0.70352 9.75,-0.54629 z m 11,-12.91387 c 0,-4.43439 -9.72113,-7.70861 -17.62672,-5.93693 -6.42778,1.44049 -8.37328,2.67591 -8.37328,5.31713 0,2.25021 0.14259,2.27516 13,2.27516 11.43114,0 13,-0.19977 13,-1.65536 z m -4,-29.21945 c 0,-14.85211 0.23458,-17.28536 2,-20.74588 2.18991,-4.29258 2.57362,-9.05967 0.97036,-12.05539 -3.50846,-6.5556 -18.70585,-6.44343 -23.33967,0.17226 -2.17092,3.09942 -2.05653,6.62498 0.36931,11.38313 1.76874,3.46928 2,5.89718 2,20.99716 l 0,17.07427 9,0 9,0 0,-16.82555 z m -125.58004,17.42785 c -3.36113,-2.11445 -6.41996,-7.55786 -6.41996,-11.42482 0,-3.09847 4.6567,-9.57516 9.93332,-13.81556 l 4.06668,-3.26808 0,-13.74747 0,-13.74746 -5.03197,-3.69381 c -13.87314,-10.18382 -14.16174,-18.71326 -1.10541,-32.67052 l 6.13738,-6.56087 0,-10.90388 0,-10.90387 -6.07586,-5.96869 c -10.12138,-9.94285 -11.26352,-14.20751 -5.22495,-19.50945 7.23635,-6.3536 18.52081,-9.93551 31.30081,-9.93551 12.78,0 24.06446,3.58191 31.30081,9.93551 6.03857,5.30194 4.89643,9.5666 -5.22495,19.50945 l -6.07586,5.96869 0,10.90971 0,10.9097 6.37306,6.75578 c 12.99147,13.77165 12.41635,23.15605 -2.02818,33.09414 l -4.34488,2.98936 0,13.50211 0,13.5021 6.43918,6.19986 c 7.30638,7.03482 8.54844,10.12814 6.46591,16.10324 -3.32795,9.54839 -15.49078,11.42694 -24.2403,3.74392 -1.26279,-1.10887 -3.7836,-1.6171 -8.0818,-1.62941 -5.29075,-0.0152 -6.89234,0.42922 -10.46679,2.90414 -5.5215,3.82304 -13.19602,4.58272 -17.69624,1.75169 z m 35.58004,-35.11246 0,-23.93872 -4.46324,-0.66931 c -2.45479,-0.36812 -6.16729,-0.26655 -8.25,0.22571 l -3.78676,0.89502 -0.2681,23.71302 -0.2681,23.71301 8.5181,0 8.5181,0 0,-23.93873 z m 4.4,-33.84928 c -0.055,-0.66659 -0.1675,-1.65043 -0.25,-2.18631 -0.31066,-2.01787 -6.78339,-4.34424 -12.15,-4.36684 -7.28576,-0.0307 -13,2.4295 -13,5.59698 l 0,2.35788 12.75,-0.0949 c 9.32763,-0.0694 12.72316,-0.42018 12.65,-1.30685 z m -10.4,-10.37447 c 10.4819,0.76296 10.5,0.76084 10.5,-1.2296 0,-5.02806 -11.87868,-8.21365 -19.94177,-5.34793 -4.43067,1.57471 -6.19004,3.65117 -5.22482,6.16648 0.55087,1.43556 1.38774,1.57339 5.40915,0.89091 2.61659,-0.44407 6.78244,-0.66001 9.25744,-0.47986 z m 7.00088,-30.62736 c -7.8e-4,-15.31746 0.22727,-17.73705 1.99912,-21.21016 2.8574,-5.60096 2.58351,-9.26264 -0.9577,-12.80385 -5.3295,-5.3295 -15.1625,-4.95806 -20.2923,0.76654 -3.24986,3.62668 -3.39612,6.01659 -0.72804,11.89651 1.72394,3.79923 1.97828,6.56109 1.97994,21.5 l 0.002,17.1408 8.99898,0 8.99898,0 -8.8e-4,-17.28984 z m 136.29767,108.83032 c -3.94924,-2.40799 -6.29855,-6.75828 -6.29855,-11.66323 0,-3.27495 0.8409,-4.56297 7,-10.72208 l 7,-7 0,-13.25949 0,-13.25949 -3.25,-2.22677 c -15.83432,-10.84901 -16.69783,-20.32273 -3.15748,-34.64144 l 5.40748,-5.71833 0,-11.40866 0,-11.40866 -7,-7.36918 c -6.23909,-6.56814 -7,-7.79813 -7,-11.31527 0,-3.28551 0.54406,-4.354 3.25,-6.38277 12.15446,-9.11274 30.24101,-12.37312 45.69002,-8.23632 7.91671,2.11986 12.38992,4.36866 17.45909,8.77714 3.60327,3.13365 3.84647,3.67149 3.20536,7.08887 -0.52135,2.77904 -2.42209,5.41604 -7.6491,10.61205 l -6.95537,6.9141 0,11.21209 0,11.2121 5.80399,6.20448 c 6.84899,7.32159 9.19601,11.80927 9.19601,17.58348 0,5.67266 -2.69297,9.72808 -9.98703,15.03975 l -6.01297,4.37876 0,13.11766 0,13.11766 5.05702,4.26414 c 2.78137,2.34528 6.20859,6.00428 7.61606,8.13111 3.46078,5.22959 2.62124,9.8588 -2.76477,15.2448 -3.72881,3.72882 -4.17649,3.90171 -8.92216,3.44571 -3.23218,-0.31057 -6.78348,-1.59102 -10.0577,-3.62639 -4.16129,-2.5868 -6.09472,-3.1463 -10.87245,-3.1463 -4.19387,0 -6.19306,0.46156 -7.18356,1.65848 -2.04157,2.46707 -8.88971,5.29508 -12.87244,5.31582 -1.925,0.01 -4.94065,-0.86019 -6.70145,-1.93382 z m 35.70145,-34.97921 0,-23.93872 -4.57907,-0.68668 c -2.51849,-0.37767 -6.45599,-0.29096 -8.75,0.19268 l -4.17093,0.87935 -0.2681,23.74605 -0.2681,23.74605 9.0181,0 9.0181,0 0,-23.93873 z m 3.81199,-34.81495 c 0.91569,-6.25419 -19.04977,-8.061 -24.3506,-2.20366 -3.44059,3.80181 -1.52437,4.52873 11.67377,4.42846 11.81909,-0.0898 12.37861,-0.18799 12.67683,-2.2248 z m -15.63269,-9.77607 c 2.02361,-0.36647 6.01842,-0.16465 8.87735,0.44848 6.1669,1.32256 8.6174,0.20925 6.84185,-3.10839 -1.439,-2.68878 -6.88415,-4.81034 -12.34614,-4.81034 -5.27597,0 -12.14106,2.48579 -12.99244,4.70445 -0.84736,2.20819 1.42076,4.51282 3.86588,3.92811 1.14081,-0.27281 3.72988,-0.79585 5.7535,-1.16231 z m 15.15527,-53.86227 c 2.13671,-4.59213 1.65647,-7.34421 -1.90265,-10.90333 -3.72623,-3.72623 -9.91053,-4.47122 -15.7337,-1.89536 -7.0073,3.09967 -8.46392,7.80933 -4.69822,15.19071 1.77025,3.46998 2,5.89377 2,21.09945 l 0,17.17913 4.75,-0.54266 c 2.6125,-0.29846 6.55,-0.24023 8.75,0.12941 l 4,0.67207 0.5118,-18.5187 c 0.41488,-15.01151 0.85478,-19.2558 2.32277,-22.41072 z"
         id="path4285"
         inkscape:connector-curvature="0" />
      <path
         style="fill:#8c948b"
         d="m 683.90561,-550.59595 c -8.57294,-1.02397 -21.26445,-5.39389 -29.07841,-10.01225 -13.11482,-7.75138 -26.19842,-23.88781 -31.55944,-38.92329 l -2.31763,-6.5 -0.26457,-164.9188 c -0.29253,-182.34407 -0.71647,-169.64931 6.14729,-184.0812 8.91661,-18.74826 24.70549,-32.12846 45.61728,-38.65814 l 7.5,-2.34186 119.5,0 119.5,0 7.5,2.32777 c 19.88034,6.17026 36.45304,20.03577 45.02758,37.67223 7.41734,15.25628 6.94119,2.76059 6.95764,182.59004 0.0143,156.443 -0.0468,161.83063 -1.91708,169.14352 -6.4539,25.23451 -25.91527,44.46007 -52.62616,51.9885 l -7.94198,2.23844 -112.5,0.15822 c -61.875,0.087 -115.67003,-0.22041 -119.54452,-0.68318 z m 243.0656,-7.15673 c 24.9972,-8.48042 42.69361,-28.7999 46.47344,-53.36201 0.72904,-4.73747 0.96838,-57.17175 0.75961,-166.4168 -0.33922,-177.50636 0.26721,-162.51802 -7.18167,-177.5 -6.48733,-13.04801 -16.42231,-22.80569 -30.07246,-29.53579 -16.13551,-7.95548 -6.45419,-7.39475 -133.39175,-7.7259 -93.95965,-0.24512 -114.78958,-0.0546 -121.54846,1.11178 -22.42435,3.86975 -40.69595,16.97421 -50.03033,35.88196 -8.08978,16.38667 -7.59791,3.91408 -7.29717,185.0389 l 0.26771,161.22905 2.78229,8.21451 c 6.4421,19.0198 22.11651,35.1068 40.76565,41.83872 12.09893,4.36744 10.6031,4.32116 133.45206,4.1294 l 117,-0.18263 8.02108,-2.72119 z m -240.21675,-49.67626 c -3.94122,-2.47532 -6.22694,-5.85015 -6.93997,-10.24678 -0.61934,-3.81889 1.67984,-7.25242 9.88564,-14.76295 l 4.75,-4.34754 0,-13.3246 0,-13.3246 -4.3072,-2.96343 c -5.96131,-4.10149 -11.35353,-10.31147 -12.16612,-14.01118 -0.98095,-4.46623 2.92223,-12.33211 9.81225,-19.77416 l 5.66107,-6.11462 0,-11.29064 0,-11.29063 -6.9382,-7.1554 c -9.99652,-10.30945 -10.23742,-13.52704 -1.46466,-19.56285 5.66329,-3.89645 13.08312,-6.55511 22.27367,-7.98108 12.3716,-1.91952 28.86781,2.48946 37.42482,10.00262 6.14824,5.39822 4.78078,9.54784 -6.54563,19.86287 l -3.75,3.41514 0,12.49999 0,12.49998 5.64409,6.09629 c 5.95399,6.43102 9.29744,12.4422 9.33395,16.78147 0.037,4.39538 -6.25918,12.30539 -13.22804,16.61868 l -2.75,1.70209 0,13.79273 0,13.79274 6.43532,6.30986 c 9.02942,8.8534 9.70185,13.27957 3.11021,20.4723 -3.02985,3.30614 -3.91643,3.70115 -8.30698,3.70115 -3.80617,0 -6.09472,-0.73327 -10.14329,-3.25 -4.35848,-2.70938 -6.2103,-3.25 -11.13247,-3.25 -4.99411,0 -6.5844,0.47937 -10.31591,3.10958 -5.73012,4.03896 -11.88903,4.79004 -16.34255,1.99297 z m 35.04593,-20.25617 c 0.35736,-5.0345 0.64974,-15.78201 0.64974,-23.88337 0,-16.69908 0.43114,-15.9357 -9,-15.9357 -2.475,0 -5.5125,0.27134 -6.75,0.60298 l -2.25,0.60297 0,23.88337 0,23.88337 8.35026,0 8.35025,0 0.64975,-9.15362 z m 4.4433,-49.01296 c 0.75402,-3.91528 -7.93944,-7.49647 -15.63676,-6.44143 -6.41188,0.87884 -9.6074,2.6998 -9.95462,5.67261 l -0.29782,2.54981 12.79144,-0.0952 c 10.85036,-0.0807 12.83792,-0.33655 13.09776,-1.68583 z m -12.29356,-10.27149 c 2.2,0.0155 5.8,0.23297 8,0.48317 3.72131,0.42321 4,0.28072 4,-2.0451 0,-1.85744 -0.89959,-2.94939 -3.5,-4.24845 -7.19463,-3.59412 -22,-1.11061 -22,3.69036 0,3.24363 0.96584,3.75166 5.46777,2.87603 2.21773,-0.43135 5.83223,-0.77155 8.03223,-0.75601 z m 4.40095,-13.69552 4.09905,0.921 0,-17.18227 c 0,-15.20796 0.22981,-17.63301 2,-21.10514 5.26143,-10.31999 -0.67263,-18.52797 -12.3916,-17.14003 -9.66462,1.14463 -13.39712,6.47553 -10.12368,14.45903 1.59269,3.88438 1.97713,7.7623 2.25897,22.78691 l 0.33963,18.10592 4.8593,-0.88321 c 2.8792,-0.52331 6.52958,-0.50791 8.95833,0.0378 z m 141.33991,92.13899 c -4.16123,-2.53713 -7.23234,-7.5695 -7.23712,-11.85885 -0.003,-2.82075 1.10821,-4.4654 6.99626,-10.35345 l 7,-7 0,-13.86136 c 0,-13.14882 -0.11023,-13.92036 -2.14429,-15.00896 -3.42767,-1.83444 -10.8812,-9.0714 -12.43249,-12.07125 -3.09738,-5.98967 -0.59239,-12.67746 8.20189,-21.89735 l 5.37489,-5.63501 0,-12.33387 0,-12.33388 -7,-7.21913 c -5.51,-5.68249 -7,-7.85834 -7,-10.22212 0,-8.45963 22.82185,-18.34448 38.7273,-16.774 12.43643,1.22796 26.03522,7.21936 29.9513,13.19606 2.36621,3.6113 0.97523,6.67343 -6.70347,14.7571 l -6.97513,7.343 0,11.25018 0,11.25018 5.5195,5.96172 c 9.63306,10.40485 12.02557,18.42263 7.42518,24.88328 -2.29661,3.2253 -11.48208,10.92231 -13.03448,10.92231 -0.50341,0 -0.9102,6.23037 -0.9102,13.94047 l 0,13.94048 4.93379,4.16023 c 7.3579,6.20428 10.41738,11.0569 9.54977,15.14686 -1.5784,7.44067 -8.81749,12.77608 -15.37918,11.33489 -1.58878,-0.34896 -4.97785,-1.95937 -7.53127,-3.5787 -3.87901,-2.45999 -5.68373,-2.94423 -10.97298,-2.94423 -4.84392,0 -6.9354,0.47588 -8.90682,2.02661 -3.30964,2.60336 -8.9926,4.97443 -11.91119,4.96965 -1.25517,-0.002 -3.74873,-0.89794 -5.54126,-1.99086 z m 34.75914,-34.89841 c 0,-27.03126 0.66277,-25.10699 -8.64753,-25.10699 -9.82829,0 -9.35247,-1.27138 -9.35247,24.98949 l 0,22.91913 6.75,0.34983 c 3.7125,0.19241 7.7625,0.43797 9,0.54569 l 2.25,0.19586 0,-23.89301 z m 3.79209,-35.10699 c -0.6178,-5.28778 -12.31739,-7.77423 -20.73414,-4.40651 -3.6778,1.47156 -5.85175,4.31309 -4.71142,6.15819 0.2616,0.42327 6.15958,0.7648 13.10664,0.75895 l 12.63101,-0.0106 -0.29209,-2.5 z m 1.01262,-11.22324 c 0.5791,-3.00918 -5.4376,-5.76877 -12.58683,-5.77302 -8.16145,-0.005 -13.21788,2.03092 -13.21788,5.32166 l 0,2.42746 12.73654,-0.12643 c 11.19978,-0.11118 12.77656,-0.33435 13.06817,-1.84967 z m -1.5417,-50.99464 c 2.43863,-5.21969 2.17024,-8.26568 -1.04545,-11.86466 -3.27856,-3.66934 -9.75258,-4.88608 -15.64706,-2.94073 -7.51206,2.4792 -9.63828,8.69487 -5.5705,16.28445 1.77623,3.31406 2,5.64209 2,20.80715 l 0,17.07558 5.25,-0.57738 c 2.8875,-0.31756 6.825,-0.21816 8.75,0.22087 l 3.5,0.79825 0.51301,-18.04282 c 0.40501,-14.24447 0.87868,-18.82552 2.25,-21.76071 z m -123.50044,49.70993 c -3.59099,-2.0238 -5.76257,-6.38959 -5.76257,-11.58519 0,-3.88452 0.51414,-4.68562 7,-10.90686 l 7,-6.71441 -0.0539,-13.39279 -0.0539,-13.3928 -5.9618,-4.25168 c -3.279,-2.33843 -6.85306,-5.71343 -7.94235,-7.5 -4.20502,-6.89673 -1.71102,-14.99362 7.63709,-24.79414 l 5.37486,-5.63501 0,-11.49935 0,-11.49935 -6.84386,-6.95329 c -9.32858,-9.47773 -9.85271,-13.31029 -2.57902,-18.8582 6.23193,-4.75333 15.66364,-7.68671 26.555,-8.25895 14.10595,-0.74113 26.17209,2.68812 34.17149,9.71168 5.79396,5.08716 4.78038,8.67539 -5.22775,18.50699 l -6.07586,5.96869 0,11.44638 0,11.44637 6.02631,6.27577 c 6.84701,7.13045 8.97369,11.36289 8.97369,17.85909 0,3.79048 -0.58359,5.17521 -3.57797,8.48962 -1.96788,2.17821 -5.56708,5.21701 -7.99821,6.75288 l -4.42024,2.7925 -0.002,13.40422 -0.002,13.40421 6.03328,5.45981 c 3.31831,3.00289 6.71135,6.77103 7.54009,8.37364 2.09419,4.04972 0.91975,9.19286 -3.0637,13.41654 -2.80088,2.96981 -3.88758,3.44158 -7.92741,3.44158 -4.60576,0 -9.42079,-1.7853 -12.7992,-4.74566 -1.11927,-0.98076 -3.9041,-1.52441 -8,-1.56172 -5.29295,-0.0482 -6.96228,0.39266 -10.59325,2.79779 -5.23881,3.47014 -13.19924,4.38445 -17.42724,2.00164 z m 36.00559,-34.76647 c 0.30696,-27.21494 1.0431,-25.23768 -9.38514,-25.20842 -9.71972,0.0273 -9.38302,-0.88557 -9.38302,25.43862 0,12.49099 0.31619,23.02708 0.70264,23.41353 0.38646,0.38645 4.54896,0.57395 9.25,0.41667 l 8.54736,-0.28598 0.26816,-23.77442 z m 3.73184,-34.70754 c 0,-3.60619 -5.3796,-6.35686 -12.37776,-6.32894 -6.15039,0.0246 -12.81011,2.33393 -13.74329,4.76575 -1.43041,3.7276 -0.008,4.16353 13.26585,4.06478 l 12.8552,-0.0956 0,-2.40595 z m -10.5,-9.15461 c 10.97967,0.73597 10.5,0.81617 10.5,-1.75551 0,-5.71329 -11.42484,-8.93595 -20.02946,-5.64982 -8.59777,3.28352 -8.23003,9.44221 0.47216,7.90744 2.50651,-0.44206 6.5823,-0.66801 9.0573,-0.50211 z m 8.00044,-30.8441 c -3.9e-4,-15.61938 0.22877,-18.03369 2.15222,-22.67435 1.88511,-4.54818 1.99298,-5.57916 0.86793,-8.29527 -3.4299,-8.28051 -16.11253,-10.16805 -23.13223,-3.44275 -3.27409,3.13678 -3.83214,8.1181 -1.38836,12.39304 1.08988,1.90655 1.43754,6.7926 1.46456,20.58333 0.0195,9.94584 0.22637,18.27084 0.45973,18.5 0.23337,0.22917 4.73357,0.41667 10.00045,0.41667 l 9.57615,0 -4.5e-4,-17.48067 z m -126.95963,16.36155 c -1.71196,-1.44051 -3.77148,-3.89316 -4.57673,-5.45034 -2.77866,-5.37334 -1.96744,-7.62458 5.53592,-15.36283 l 7,-7.21913 0,-13.95868 0,-13.95868 -2.75,-1.70209 c -6.61079,-4.09167 -13.25844,-12.18453 -13.24023,-16.11868 0.0184,-3.96349 4.66905,-12.10361 10.33288,-18.08562 l 5.65735,-5.97518 0,-11.33815 0,-11.33814 -7.5,-7.87336 c -8.70614,-9.13954 -9.33122,-11.48696 -4.30827,-16.1791 15.19767,-14.19675 46.96496,-14.34015 63.66571,-0.2874 5.53094,4.65398 4.09191,8.84357 -6.60744,19.23684 l -5.25,5.09981 0,11.56753 0,11.56753 3.88979,3.51418 c 5.42359,4.8999 11.06027,13.39803 11.7643,17.73643 0.82268,5.06959 -2.95733,11.20934 -10.01797,16.27186 l -5.54014,3.97232 -0.048,14.00398 -0.048,14.00397 6.53126,6.44648 c 9.20745,9.08793 9.6764,13.07321 2.39514,20.35446 -3.69694,3.69695 -4.24075,3.91535 -8.68514,3.48812 -2.86326,-0.27523 -6.52369,-1.58523 -9.24126,-3.30727 -2.91992,-1.85026 -6.25565,-2.99437 -9.5,-3.25837 -5.22211,-0.42494 -7.36288,0.23101 -14,4.28968 -5.51396,3.37185 -11.34826,3.31895 -15.45919,-0.14017 z m 35.95919,-34.31961 0,-23.93872 -4.65935,-0.69872 c -2.56264,-0.38429 -6.27514,-0.29936 -8.25,0.18873 l -3.59065,0.88744 -0.2681,23.75 -0.2681,23.75 8.5181,0 8.5181,0 0,-23.93873 z m 4.77037,-33.87239 c 1.26419,-3.79257 -8.70398,-7.87277 -16.19506,-6.62902 -6.1354,1.01868 -9.57531,3.10501 -9.57531,5.80752 0,2.30447 0.0632,2.31554 12.66775,2.22106 9.461,-0.0709 12.77784,-0.42521 13.10262,-1.39956 z m -10.27037,-10.21771 c 9.19886,0.75167 9.98533,0.63154 10.30017,-1.57329 0.51385,-3.59849 -4.20922,-5.85567 -12.30017,-5.8783 -9.3536,-0.0262 -13.5,1.72975 -13.5,5.71696 l 0,2.99391 5.75,-0.79307 c 3.1625,-0.43618 7.55,-0.64598 9.75,-0.46621 z m 6.5,-30.50973 c 0,-15.06426 0.23174,-17.49311 2,-20.96144 2.86355,-5.61669 2.61014,-10.04371 -0.76832,-13.42217 -7.13268,-7.13267 -23.23168,-3.03264 -23.23168,5.91655 0,1.69691 0.9,4.84944 2,7.00562 1.77172,3.47286 2,5.89377 2,21.21016 l 0,17.28984 9,0 9,0 0,-17.03856 z m 134.98969,106.87003 c -3.47545,-3.24187 -4.27776,-4.70764 -4.71886,-8.621 l -0.53145,-4.71502 7.13031,-7.00416 7.13031,-7.00415 -0.0258,-13.74357 -0.0258,-13.74357 -5.14142,-3.48947 c -6.56017,-4.45241 -10.80698,-10.22919 -10.80698,-14.70041 0,-4.74633 3.33689,-10.76339 9.62511,-17.35594 l 5.37489,-5.63501 0,-12.31551 0,-12.31552 -5.04476,-4.63789 c -10.00887,-9.20164 -11.27504,-13.80625 -5.25087,-19.09554 8.47998,-7.44553 25.16044,-11.88158 37.52295,-9.97896 8.36105,1.28678 16.07045,4.12386 22.15159,8.15184 8.81804,5.84083 8.58056,9.03345 -1.44071,19.36843 l -6.9382,7.1554 0,11.64797 0,11.64798 4.51458,4.51458 c 7.06129,7.06128 10.48542,13.12025 10.48542,18.55383 0,3.86128 -0.59223,5.31611 -3.58953,8.81778 -1.97423,2.30645 -5.57423,5.55907 -8,7.22803 l -4.41047,3.03449 0,13.38115 0,13.38115 6.10319,5.82081 c 9.39895,8.96408 10.48236,12.70509 5.67214,19.5859 -4.5989,6.57854 -12.69249,7.2929 -20.47512,1.80719 -3.70226,-2.60959 -5.2684,-3.07228 -10.39927,-3.07228 -5.14524,0 -6.72197,0.4688 -10.63759,3.16282 -3.05287,2.10043 -6.19073,3.31596 -9.34163,3.61872 -4.41016,0.42376 -5.03979,0.18056 -8.93203,-3.45007 z m 37.01031,-33.21484 0,-23.88337 -2.25,-0.60297 c -3.444,-0.92296 -10.32343,-0.74297 -13.1849,0.34496 l -2.5651,0.97525 0,23.52475 0,23.52475 9,0 9,0 0,-23.88337 z m 3.99997,-34.92286 c 4e-5,-3.5055 -7.66396,-6.61146 -14.55812,-5.89992 -6.37109,0.65755 -11.44185,3.1239 -11.44185,5.56516 0,0.99421 0.20675,2.01441 0.45944,2.2671 0.2527,0.25269 6.10268,0.44019 12.99998,0.41667 12.41655,-0.0424 12.54053,-0.0656 12.54055,-2.34901 z m -17.04919,-9.27663 c 3.65574,-0.78402 6.48021,-0.77598 10.23436,0.0291 4.16138,0.89246 5.452,0.84516 6.53674,-0.23959 3.30618,-3.30618 -3.19814,-7.71052 -11.37301,-7.70111 -9.76921,0.0112 -16.42107,3.79265 -13.29582,7.55834 1.42821,1.72089 1.50454,1.72431 7.89773,0.35322 z m 7.91173,-14.31501 c 1.45062,0.32107 3.42499,0.79726 4.38749,1.0582 1.61791,0.43863 1.75,-0.84197 1.75,-16.96582 0,-15.52238 0.23007,-17.96038 2.09208,-22.16978 2.54795,-5.76004 1.94787,-10.56155 -1.67622,-13.41226 -5.20581,-4.09489 -14.2205,-3.83063 -19.45056,0.57019 -2.41399,2.03123 -2.96461,3.26876 -2.96156,6.65623 0.002,2.39252 0.85221,5.55273 2,7.43528 1.79246,2.93991 1.99626,5.0451 1.99626,20.62089 l 0,17.34673 4.61251,-0.86171 c 2.53687,-0.47394 5.79937,-0.59902 7.25,-0.27795 z"
         id="path4283"
         inkscape:connector-curvature="0" />
      <path
         style="fill:#7f7f7f"
         d="m 683.90561,-550.59595 c -8.57294,-1.02397 -21.26445,-5.39389 -29.07841,-10.01225 -13.11482,-7.75138 -26.19842,-23.88781 -31.55944,-38.92329 l -2.31763,-6.5 -0.26457,-164.9188 c -0.29253,-182.34407 -0.71647,-169.64931 6.14729,-184.0812 8.91661,-18.74826 24.70549,-32.12846 45.61728,-38.65814 l 7.5,-2.34186 119.5,0 119.5,0 7.5,2.32777 c 19.88034,6.17026 36.45304,20.03577 45.02758,37.67223 7.41734,15.25628 6.94119,2.76059 6.95764,182.59004 0.0143,156.443 -0.0468,161.83063 -1.91708,169.14352 -6.4539,25.23451 -25.91527,44.46007 -52.62616,51.9885 l -7.94198,2.23844 -112.5,0.15822 c -61.875,0.087 -115.67003,-0.22041 -119.54452,-0.68318 z m 243.0656,-7.15673 c 24.9972,-8.48042 42.69361,-28.7999 46.47344,-53.36201 0.72904,-4.73747 0.96838,-57.17175 0.75961,-166.4168 -0.33922,-177.50636 0.26721,-162.51802 -7.18167,-177.5 -6.48733,-13.04801 -16.42231,-22.80569 -30.07246,-29.53579 -16.13551,-7.95548 -6.45419,-7.39475 -133.39175,-7.7259 -93.95965,-0.24512 -114.78958,-0.0546 -121.54846,1.11178 -22.42435,3.86975 -40.69595,16.97421 -50.03033,35.88196 -8.08978,16.38667 -7.59791,3.91408 -7.29717,185.0389 l 0.26771,161.22905 2.78229,8.21451 c 6.4421,19.0198 22.11651,35.1068 40.76565,41.83872 12.09893,4.36744 10.6031,4.32116 133.45206,4.1294 l 117,-0.18263 8.02108,-2.72119 z m -241.30429,-50.33951 c -3.02215,-2.11681 -5.21679,-6.63019 -5.21679,-10.72861 0,-3.89948 3.16607,-8.4135 9.61649,-13.71069 l 4.26196,-3.5 0.0608,-14.25 c 0.0339,-7.94061 -0.34223,-14.25 -0.84943,-14.25 -1.74307,0 -11.2143,-8.15634 -13.14159,-11.31715 -4.05306,-6.64714 -1.52638,-14.717 7.64432,-24.41487 l 5.40748,-5.71833 0,-11.44911 0,-11.44912 -7,-7.21913 c -6.28962,-6.48651 -7,-7.62384 -7,-11.20702 0,-3.32492 0.5403,-4.39925 3.25,-6.4623 15.0635,-11.46866 39.03441,-12.92735 56.19309,-3.41948 7.30388,4.04719 10.07966,7.43756 9.14342,11.16786 -0.3707,1.47699 -3.80432,5.99269 -7.63026,10.03487 l -6.95625,7.34943 0,11.17474 0,11.17475 5.80399,6.20448 c 6.95561,7.43557 9.19601,11.80834 9.19601,17.94863 0,3.89368 -0.5643,5.2206 -3.6928,8.68348 -2.03105,2.24812 -5.63105,5.42104 -8,7.05092 l -4.3072,2.96343 0,13.30199 0,13.302 5.86147,5.09815 c 7.48545,6.51064 9.61541,10.71708 8.16122,16.11752 -0.62207,2.31019 -2.37643,5.04557 -4.24376,6.61682 -2.7971,2.35361 -3.85668,2.62986 -8.73384,2.27708 -3.91444,-0.28314 -6.72354,-1.19855 -9.52995,-3.10556 -3.34741,-2.27463 -5.04489,-2.70408 -10.68826,-2.70408 -3.68986,0 -6.99094,0.45643 -7.33571,1.01429 -2.62769,4.25169 -15.89439,6.49287 -20.27438,3.42501 z m 36.78321,-34.42025 0,-23.98095 -2.75,-0.74164 c -3.90627,-1.05347 -11.61479,-0.70678 -14.12222,0.63515 -2.07757,1.11188 -2.12778,1.6925 -2.12778,24.60357 l 0,23.46482 9.5,0 9.5,0 0,-23.98095 z m -6,-32.4982 c 9.33455,-0.0205 9.5,-0.0623 9.5,-2.40215 0,-7.42458 -23.75253,-8.19986 -26.08484,-0.85141 -0.84888,2.67459 2.1289,5.04637 5.03238,4.00825 1.12885,-0.40362 6.32746,-0.74323 11.55246,-0.75469 z m 9.79402,-13.13744 c 0.16171,-1.09657 -0.51329,-2.69271 -1.5,-3.54698 -2.13026,-1.84433 -7.71838,-3.83643 -10.76174,-3.83643 -4.31581,0 -12.49996,3.07109 -13.58449,5.09756 -2.03343,3.7995 0.008,4.47365 13.2438,4.37311 11.49383,-0.0873 12.32787,-0.22544 12.60243,-2.08726 z m -2.79402,-29.36408 c 0,-15.53563 0.2359,-18.04983 2.1201,-22.59579 2.05539,-4.95901 2.06654,-5.22798 0.36515,-8.81338 -2.14883,-4.52832 -5.92353,-6.61016 -11.98525,-6.61016 -11.21377,0 -16.49801,7.93599 -11.49709,17.26661 1.86394,3.47771 1.95776,4.93366 1.3522,20.98519 l -0.65071,17.2482 10.1478,0 10.1478,0 0,-17.48067 z m 134.22107,107.51323 c -1.92499,-1.61977 -3.62221,-4.30855 -4.29366,-6.80213 -1.50105,-5.57448 0.22081,-8.98251 7.99625,-15.82673 l 6.07634,-5.34862 0,-13.2295 0,-13.2295 -4.3072,-2.96343 c -2.36895,-1.62988 -5.96895,-4.8028 -8,-7.05092 -3.27866,-3.62909 -3.6928,-4.68202 -3.6928,-9.38883 0,-6.20573 2.93033,-11.47323 10.37567,-18.65111 l 4.62433,-4.45821 0,-11.34397 0,-11.34396 -6.95625,-7.34943 c -7.05259,-7.4512 -9.14252,-11.5623 -7.34638,-14.451 0.54554,-0.87737 2.82738,-3.00478 5.07077,-4.72758 12.3781,-9.50574 37.09139,-10.99627 52.67188,-3.1768 8.21398,4.12239 10.55998,6.53439 10.55998,10.85704 0,3.51714 -0.76091,4.74713 -7,11.31527 l -7,7.36918 0,11.25018 0,11.25018 5.64409,6.09629 c 12.64279,13.65572 12.48167,22.60832 -0.57446,31.91934 l -5.9618,4.25168 -0.0539,13.70023 -0.0539,13.70023 4.52555,3.78289 c 8.88374,7.42589 11.36254,13.7648 7.95752,20.34938 -3.38696,6.54966 -13.41322,7.80491 -21.02539,2.6323 -3.24847,-2.20737 -5.03205,-2.66503 -10.38609,-2.66503 -5.38936,0 -7.11,0.44759 -10.34873,2.69204 -2.79204,1.93489 -5.49255,2.80835 -9.60157,3.10557 -5.06366,0.36627 -6.08072,0.10743 -8.90025,-2.26505 z m 37.77893,-33.48556 0,-23.95299 -3.75,-1.04143 c -4.70708,-1.30722 -6.79292,-1.30722 -11.5,0 l -3.75,1.04143 0,23.95299 0,23.953 9.5,0 9.5,0 0,-23.953 z m 3.7707,-34.09484 c 0.45076,-2.3406 -3.77074,-5.71791 -8.46527,-6.77244 -4.80974,-1.0804 -12.47261,0.0446 -15.98648,2.34695 -2.11185,1.38374 -3.07395,4.385 -1.81065,5.6483 0.27957,0.27957 6.23624,0.46537 13.23704,0.41289 10.61684,-0.0796 12.77794,-0.35097 13.02536,-1.6357 z m 0.067,-11.34856 c 1.53382,-7.96043 -21.4057,-10.14392 -26.15456,-2.48952 -2.37002,3.82009 -0.53119,4.43595 12.94833,4.33669 11.42321,-0.0841 12.9065,-0.29159 13.20623,-1.84717 z m -3.8377,-29.39344 c 0,-15.31639 0.22828,-17.7373 2,-21.21016 3.00238,-5.88514 2.62226,-9.57774 -1.4,-13.6 -3.07578,-3.07578 -3.94659,-3.4 -9.13197,-3.4 -6.83012,0 -11.60655,2.506 -13.50303,7.0845 -1.10715,2.67288 -0.99381,3.73392 0.88234,8.26048 1.91653,4.62398 2.15266,7.06542 2.15266,22.25768 0,9.3852 0.1875,17.25151 0.41667,17.48067 0.22916,0.22917 4.50416,0.41667 9.5,0.41667 l 9.08333,0 0,-17.28984 z m -121.23743,27.28189 c -3.59099,-2.0238 -5.76257,-6.38959 -5.76257,-11.58519 0,-3.88452 0.51414,-4.68562 7,-10.90686 l 7,-6.71441 -0.0539,-13.39279 -0.0539,-13.3928 -5.9618,-4.25168 c -3.279,-2.33843 -6.85306,-5.71343 -7.94235,-7.5 -4.20502,-6.89673 -1.71102,-14.99362 7.63709,-24.79414 l 5.37486,-5.63501 0,-11.49935 0,-11.49935 -6.84386,-6.95329 c -9.32858,-9.47773 -9.85271,-13.31029 -2.57902,-18.8582 6.23193,-4.75333 15.66364,-7.68671 26.555,-8.25895 14.10595,-0.74113 26.17209,2.68812 34.17149,9.71168 5.79396,5.08716 4.78038,8.67539 -5.22775,18.50699 l -6.07586,5.96869 0,11.44638 0,11.44637 6.02631,6.27577 c 6.84701,7.13045 8.97369,11.36289 8.97369,17.85909 0,3.79048 -0.58359,5.17521 -3.57797,8.48962 -1.96788,2.17821 -5.56708,5.21701 -7.99821,6.75288 l -4.42024,2.7925 -0.002,13.40422 -0.002,13.40421 6.03328,5.45981 c 3.31831,3.00289 6.71135,6.77103 7.54009,8.37364 2.09419,4.04972 0.91975,9.19286 -3.0637,13.41654 -2.80088,2.96981 -3.88758,3.44158 -7.92741,3.44158 -4.60576,0 -9.42079,-1.7853 -12.7992,-4.74566 -1.11927,-0.98076 -3.9041,-1.52441 -8,-1.56172 -5.29295,-0.0482 -6.96228,0.39266 -10.59325,2.79779 -5.23881,3.47014 -13.19924,4.38445 -17.42724,2.00164 z m 36.00559,-34.76647 c 0.30696,-27.21494 1.0431,-25.23768 -9.38514,-25.20842 -9.71972,0.0273 -9.38302,-0.88557 -9.38302,25.43862 0,12.49099 0.31619,23.02708 0.70264,23.41353 0.38646,0.38645 4.54896,0.57395 9.25,0.41667 l 8.54736,-0.28598 0.26816,-23.77442 z m 3.73184,-34.70754 c 0,-3.60619 -5.3796,-6.35686 -12.37776,-6.32894 -6.15039,0.0246 -12.81011,2.33393 -13.74329,4.76575 -1.43041,3.7276 -0.008,4.16353 13.26585,4.06478 l 12.8552,-0.0956 0,-2.40595 z m -10.5,-9.15461 c 10.97967,0.73597 10.5,0.81617 10.5,-1.75551 0,-5.71329 -11.42484,-8.93595 -20.02946,-5.64982 -8.59777,3.28352 -8.23003,9.44221 0.47216,7.90744 2.50651,-0.44206 6.5823,-0.66801 9.0573,-0.50211 z m 8.00044,-30.8441 c -3.9e-4,-15.61938 0.22877,-18.03369 2.15222,-22.67435 1.88511,-4.54818 1.99298,-5.57916 0.86793,-8.29527 -3.4299,-8.28051 -16.11253,-10.16805 -23.13223,-3.44275 -3.27409,3.13678 -3.83214,8.1181 -1.38836,12.39304 1.08988,1.90655 1.43754,6.7926 1.46456,20.58333 0.0195,9.94584 0.22637,18.27084 0.45973,18.5 0.23337,0.22917 4.73357,0.41667 10.00045,0.41667 l 9.57615,0 -4.5e-4,-17.48067 z m -124.58525,17.60565 c -4.81568,-2.16917 -7.41519,-6.17692 -7.41519,-11.43225 0,-4.28459 0.39024,-4.9278 7,-11.53756 l 7,-7 0,-13.21369 0,-13.21369 -5.84296,-4.27778 c -11.60363,-8.49532 -13.17046,-15.20947 -6.04087,-25.88612 2.2639,-3.39021 5.63888,-7.37899 7.49997,-8.86395 l 3.3838,-2.69994 3e-5,-11.80218 3e-5,-11.80217 -6.83465,-7.22095 c -10.32055,-10.90388 -10.31959,-14.22625 0.006,-20.41992 7.88606,-4.73038 20.37621,-7.64821 29.80183,-6.96202 9.39332,0.68385 19.15648,3.69546 25.4115,7.83861 8.88289,5.88379 8.44858,10.12685 -2.09473,20.46462 l -6.28985,6.16727 0,11.39319 0,11.3932 5.55667,5.87609 c 6.76806,7.15712 9.44333,12.16196 9.44333,17.66639 0,5.60836 -2.72042,9.68905 -9.98703,14.98072 l -6.01297,4.37876 0,13.0555 0,13.0555 6.07586,5.96869 c 7.95959,7.81919 9.29486,10.37825 7.97423,15.28269 -2.63928,9.80153 -12.08599,12.57082 -21.95483,6.43601 -4.35848,-2.70938 -6.2103,-3.25 -11.13247,-3.25 -4.92441,0 -6.61452,0.49389 -10.18355,2.97589 -5.12329,3.56285 -11.06215,4.58684 -15.36405,2.64909 z m 34.58481,-35.0898 c 0,-22.17552 -0.10628,-23.52169 -1.93426,-24.5 -2.44405,-1.30801 -11.12358,-1.34389 -14.50064,-0.0599 l -2.5651,0.97522 0,23.52475 0,23.52475 9.5,0 9.5,0 0,-23.46482 z m -14.04922,-32.61804 c 3.65574,-0.78402 6.48021,-0.77598 10.23436,0.0291 4.37117,0.93745 5.42813,0.86903 6.73305,-0.43589 2.01571,-2.01571 0.63621,-4.37299 -3.99308,-6.82337 -8.38121,-4.43635 -25.59796,1.18254 -20.91454,6.82571 1.47442,1.77657 1.52904,1.77936 7.94021,0.40441 z m 17.54922,-13.90271 c 0,-5.62879 -13.50581,-8.48014 -21.71324,-4.5841 -3.54311,1.6819 -5.52171,4.57149 -4.3872,6.40716 0.29076,0.47046 6.28231,0.79325 13.31455,0.71732 l 12.78589,-0.13806 0,-2.40232 z m -2.5,-29.12644 c 0,-15.54426 0.24044,-18.1773 2.02909,-22.22086 2.41024,-5.44873 1.91975,-8.3839 -2.03399,-12.17182 -5.21255,-4.99394 -16.61609,-4.33518 -20.97946,1.21194 -2.36327,3.00441 -2.59994,8.64664 -0.51564,12.29275 1.08928,1.9055 1.43756,6.78298 1.46456,20.51087 l 0.0354,18.01087 10,0 10,0 0,-17.63375 z m 137.41519,109.68902 c -3.94861,-1.7172 -7.18735,-5.84561 -8.00497,-10.20388 -0.80844,-4.30934 2.28083,-9.30715 9.53276,-15.42206 l 5.05702,-4.26414 0,-13.11766 0,-13.11766 -6.01297,-4.37876 c -7.24871,-5.27865 -10.1458,-9.62138 -10.23222,-15.33811 -0.0834,-5.51838 1.95712,-9.28462 9.26031,-17.09175 l 5.98488,-6.39785 0,-11.10134 0,-11.10133 -7.005,-7.11707 c -9.97429,-10.13386 -10.38617,-13.15633 -2.59525,-19.04472 10.50356,-7.9386 27.67622,-10.77397 42.51961,-7.02039 13.53441,3.42256 21.08064,8.66206 21.08064,14.6367 0,2.9611 -1.07268,4.62623 -7,10.86616 l -7,7.36918 0,11.54394 0,11.54393 5.4512,5.67338 c 9.15384,9.52691 11.66598,17.52192 7.6006,24.18927 -1.92729,3.16081 -11.39852,11.31715 -13.1416,11.31715 -0.50305,0 -0.9102,6.18532 -0.9102,13.82759 l 0,13.82758 7,7 c 6.29071,6.29072 6.99962,7.39745 6.99626,10.92242 -0.011,11.57019 -11.09135,16.39206 -22.03505,9.58908 -7.04034,-4.37652 -14.67196,-4.46811 -21.64476,-0.25977 -5.91393,3.56926 -10.81453,4.44739 -14.90126,2.67011 z m 34.58481,-35.01799 c 0,-16.19737 -0.34546,-23.65449 -1.11795,-24.13192 -2.69299,-1.66436 -8.62234,-2.24722 -13.0974,-1.28749 l -4.78465,1.02612 0,23.91713 0,23.91714 9.5,0 9.5,0 0,-23.44098 z m -11.74931,-33.15999 c 2.33712,-0.30938 6.14606,-0.1271 8.46431,0.40506 8.25496,1.89499 9.8097,-3.10533 2.21011,-7.10815 -4.05458,-2.13561 -13.67228,-1.94522 -18.42511,0.36474 -5.2581,2.55553 -4.22103,8.71654 1.25069,7.43005 1.23788,-0.29105 4.16288,-0.78231 6.5,-1.0917 z m 15.24931,-13.38099 c 0,-3.75985 -5.60278,-6.53355 -13,-6.43573 -8.62351,0.11403 -14.75677,3.70022 -13.21219,7.72532 0.37994,0.99012 3.62323,1.28442 13.35699,1.212 l 12.8552,-0.0956 0,-2.40595 z m -3.50067,-28.80788 c 5.9e-4,-15.31558 0.22904,-17.73748 2.00067,-21.21016 2.83171,-5.55062 2.56949,-9.33108 -0.91797,-13.23422 -2.78043,-3.11185 -3.25541,-3.26578 -10.07684,-3.26578 -6.98985,0 -7.23969,0.0882 -10.58203,3.73532 -3.94896,4.30906 -4.19387,6.33363 -1.42316,11.76468 1.77815,3.48545 1.99999,5.8937 1.99994,21.71016 l -5e-5,17.78984 9.49938,0 9.49938,0 6.8e-4,-17.28984 z"
         id="path4281"
         inkscape:connector-curvature="0" />
      <path
         style="fill:#ba1a21"
         d="m 679.52532,-551.60679 c -22.73777,-4.52253 -41.82513,-18.63838 -51.32766,-37.9588 -8.34567,-16.96831 -7.84098,-4.39717 -7.52614,-187.4659 l 0.27861,-162 2.6527,-7.77805 c 9.06404,-26.57692 31.71012,-45.00016 59.86281,-48.70013 5.93907,-0.78054 42.38541,-1.01922 121.48449,-0.79558 l 113,0.31949 7.39306,2.27029 c 26.05236,8.00024 43.77372,25.52329 50.76921,50.20107 1.74971,6.17242 1.83773,14.31361 1.83773,169.98291 0,182.49285 0.54062,168.26402 -6.97197,183.5 -8.58118,17.40316 -23.38186,29.72406 -44.02803,36.65133 l -7,2.34867 -118,0.1524 c -64.9,0.0838 -119.99117,-0.24365 -122.42481,-0.7277 z m 242.42481,-4.20622 c 3.3,-0.95164 10.18589,-3.7838 15.30198,-6.29369 15.67809,-7.69148 28.7219,-22.60829 34.4745,-39.42479 l 2.22352,-6.5 0.27943,-162.5 c 0.30931,-179.88356 0.65261,-169.65101 -6.14509,-183.16187 -9.36563,-18.61475 -25.81664,-31.6931 -46.41987,-36.90322 -7.59059,-1.9195 -11.12217,-1.96776 -124.76309,-1.70516 l -116.95138,0.27025 -8,2.72441 c -11.1912,3.81118 -19.71729,9.10559 -27.94218,17.35113 -7.78707,7.80662 -12.46102,14.96839 -16.435,25.18291 l -2.62282,6.74155 -0.26466,163.91847 c -0.29473,182.54066 -0.79641,168.7927 6.71919,184.13171 9.50851,19.40646 30.79345,34.44867 52.85435,37.35253 3.68012,0.48441 57.31612,0.80544 119.19112,0.71339 103.37023,-0.15378 112.98692,-0.30778 118.5,-1.89762 z m -236.28321,-52.27918 c -3.02215,-2.11681 -5.21679,-6.63019 -5.21679,-10.72861 0,-3.89948 3.16607,-8.4135 9.61649,-13.71069 l 4.26196,-3.5 0.0608,-14.25 c 0.0339,-7.94061 -0.34223,-14.25 -0.84943,-14.25 -1.74307,0 -11.2143,-8.15634 -13.14159,-11.31715 -4.05306,-6.64714 -1.52638,-14.717 7.64432,-24.41487 l 5.40748,-5.71833 0,-11.44911 0,-11.44912 -7,-7.21913 c -6.28962,-6.48651 -7,-7.62384 -7,-11.20702 0,-3.32492 0.5403,-4.39925 3.25,-6.4623 15.0635,-11.46866 39.03441,-12.92735 56.19309,-3.41948 7.30388,4.04719 10.07966,7.43756 9.14342,11.16786 -0.3707,1.47699 -3.80432,5.99269 -7.63026,10.03487 l -6.95625,7.34943 0,11.17474 0,11.17475 5.80399,6.20448 c 6.95561,7.43557 9.19601,11.80834 9.19601,17.94863 0,3.89368 -0.5643,5.2206 -3.6928,8.68348 -2.03105,2.24812 -5.63105,5.42104 -8,7.05092 l -4.3072,2.96343 0,13.30199 0,13.302 5.86147,5.09815 c 7.48545,6.51064 9.61541,10.71708 8.16122,16.11752 -0.62207,2.31019 -2.37643,5.04557 -4.24376,6.61682 -2.7971,2.35361 -3.85668,2.62986 -8.73384,2.27708 -3.91444,-0.28314 -6.72354,-1.19855 -9.52995,-3.10556 -3.34741,-2.27463 -5.04489,-2.70408 -10.68826,-2.70408 -3.68986,0 -6.99094,0.45643 -7.33571,1.01429 -2.62769,4.25169 -15.89439,6.49287 -20.27438,3.42501 z m 36.78321,-34.42025 0,-23.98095 -2.75,-0.74164 c -3.90627,-1.05347 -11.61479,-0.70678 -14.12222,0.63515 -2.07757,1.11188 -2.12778,1.6925 -2.12778,24.60357 l 0,23.46482 9.5,0 9.5,0 0,-23.98095 z m -6,-32.4982 c 9.33455,-0.0205 9.5,-0.0623 9.5,-2.40215 0,-7.42458 -23.75253,-8.19986 -26.08484,-0.85141 -0.84888,2.67459 2.1289,5.04637 5.03238,4.00825 1.12885,-0.40362 6.32746,-0.74323 11.55246,-0.75469 z m 9.79402,-13.13744 c 0.16171,-1.09657 -0.51329,-2.69271 -1.5,-3.54698 -2.13026,-1.84433 -7.71838,-3.83643 -10.76174,-3.83643 -4.31581,0 -12.49996,3.07109 -13.58449,5.09756 -2.03343,3.7995 0.008,4.47365 13.2438,4.37311 11.49383,-0.0873 12.32787,-0.22544 12.60243,-2.08726 z m -2.79402,-29.36408 c 0,-15.53563 0.2359,-18.04983 2.1201,-22.59579 2.05539,-4.95901 2.06654,-5.22798 0.36515,-8.81338 -2.14883,-4.52832 -5.92353,-6.61016 -11.98525,-6.61016 -11.21377,0 -16.49801,7.93599 -11.49709,17.26661 1.86394,3.47771 1.95776,4.93366 1.3522,20.98519 l -0.65071,17.2482 10.1478,0 10.1478,0 0,-17.48067 z m 134.22107,107.51323 c -1.92499,-1.61977 -3.62221,-4.30855 -4.29366,-6.80213 -1.50105,-5.57448 0.22081,-8.98251 7.99625,-15.82673 l 6.07634,-5.34862 0,-13.2295 0,-13.2295 -4.3072,-2.96343 c -2.36895,-1.62988 -5.96895,-4.8028 -8,-7.05092 -3.27866,-3.62909 -3.6928,-4.68202 -3.6928,-9.38883 0,-6.20573 2.93033,-11.47323 10.37567,-18.65111 l 4.62433,-4.45821 0,-11.34397 0,-11.34396 -6.95625,-7.34943 c -7.05259,-7.4512 -9.14252,-11.5623 -7.34638,-14.451 0.54554,-0.87737 2.82738,-3.00478 5.07077,-4.72758 12.3781,-9.50574 37.09139,-10.99627 52.67188,-3.1768 8.21398,4.12239 10.55998,6.53439 10.55998,10.85704 0,3.51714 -0.76091,4.74713 -7,11.31527 l -7,7.36918 0,11.25018 0,11.25018 5.64409,6.09629 c 12.64279,13.65572 12.48167,22.60832 -0.57446,31.91934 l -5.9618,4.25168 -0.0539,13.70023 -0.0539,13.70023 4.52555,3.78289 c 8.88374,7.42589 11.36254,13.7648 7.95752,20.34938 -3.38696,6.54966 -13.41322,7.80491 -21.02539,2.6323 -3.24847,-2.20737 -5.03205,-2.66503 -10.38609,-2.66503 -5.38936,0 -7.11,0.44759 -10.34873,2.69204 -2.79204,1.93489 -5.49255,2.80835 -9.60157,3.10557 -5.06366,0.36627 -6.08072,0.10743 -8.90025,-2.26505 z m 37.77893,-33.48556 0,-23.95299 -3.75,-1.04143 c -4.70708,-1.30722 -6.79292,-1.30722 -11.5,0 l -3.75,1.04143 0,23.95299 0,23.953 9.5,0 9.5,0 0,-23.953 z m 3.7707,-34.09484 c 0.45076,-2.3406 -3.77074,-5.71791 -8.46527,-6.77244 -4.80974,-1.0804 -12.47261,0.0446 -15.98648,2.34695 -2.11185,1.38374 -3.07395,4.385 -1.81065,5.6483 0.27957,0.27957 6.23624,0.46537 13.23704,0.41289 10.61684,-0.0796 12.77794,-0.35097 13.02536,-1.6357 z m 0.067,-11.34856 c 1.53382,-7.96043 -21.4057,-10.14392 -26.15456,-2.48952 -2.37002,3.82009 -0.53119,4.43595 12.94833,4.33669 11.42321,-0.0841 12.9065,-0.29159 13.20623,-1.84717 z m -3.8377,-29.39344 c 0,-15.31639 0.22828,-17.7373 2,-21.21016 3.00238,-5.88514 2.62226,-9.57774 -1.4,-13.6 -3.07578,-3.07578 -3.94659,-3.4 -9.13197,-3.4 -6.83012,0 -11.60655,2.506 -13.50303,7.0845 -1.10715,2.67288 -0.99381,3.73392 0.88234,8.26048 1.91653,4.62398 2.15266,7.06542 2.15266,22.25768 0,9.3852 0.1875,17.25151 0.41667,17.48067 0.22916,0.22917 4.50416,0.41667 9.5,0.41667 l 9.08333,0 0,-17.28984 z m -121.23743,27.28189 c -3.59099,-2.0238 -5.76257,-6.38959 -5.76257,-11.58519 0,-3.88452 0.51414,-4.68562 7,-10.90686 l 7,-6.71441 -0.0539,-13.39279 -0.0539,-13.3928 -5.9618,-4.25168 c -3.279,-2.33843 -6.85306,-5.71343 -7.94235,-7.5 -4.20502,-6.89673 -1.71102,-14.99362 7.63709,-24.79414 l 5.37486,-5.63501 0,-11.49935 0,-11.49935 -6.84386,-6.95329 c -9.32858,-9.47773 -9.85271,-13.31029 -2.57902,-18.8582 6.23193,-4.75333 15.66364,-7.68671 26.555,-8.25895 14.10595,-0.74113 26.17209,2.68812 34.17149,9.71168 5.79396,5.08716 4.78038,8.67539 -5.22775,18.50699 l -6.07586,5.96869 0,11.44638 0,11.44637 6.02631,6.27577 c 6.84701,7.13045 8.97369,11.36289 8.97369,17.85909 0,3.79048 -0.58359,5.17521 -3.57797,8.48962 -1.96788,2.17821 -5.56708,5.21701 -7.99821,6.75288 l -4.42024,2.7925 -0.002,13.40422 -0.002,13.40421 6.03328,5.45981 c 3.31831,3.00289 6.71135,6.77103 7.54009,8.37364 2.09419,4.04972 0.91975,9.19286 -3.0637,13.41654 -2.80088,2.96981 -3.88758,3.44158 -7.92741,3.44158 -4.60576,0 -9.42079,-1.7853 -12.7992,-4.74566 -1.11927,-0.98076 -3.9041,-1.52441 -8,-1.56172 -5.29295,-0.0482 -6.96228,0.39266 -10.59325,2.79779 -5.23881,3.47014 -13.19924,4.38445 -17.42724,2.00164 z m 36.00559,-34.76647 c 0.30696,-27.21494 1.0431,-25.23768 -9.38514,-25.20842 -9.71972,0.0273 -9.38302,-0.88557 -9.38302,25.43862 0,12.49099 0.31619,23.02708 0.70264,23.41353 0.38646,0.38645 4.54896,0.57395 9.25,0.41667 l 8.54736,-0.28598 0.26816,-23.77442 z m 3.73184,-34.70754 c 0,-3.60619 -5.3796,-6.35686 -12.37776,-6.32894 -6.15039,0.0246 -12.81011,2.33393 -13.74329,4.76575 -1.43041,3.7276 -0.008,4.16353 13.26585,4.06478 l 12.8552,-0.0956 0,-2.40595 z m -10.5,-9.15461 c 10.97967,0.73597 10.5,0.81617 10.5,-1.75551 0,-5.71329 -11.42484,-8.93595 -20.02946,-5.64982 -8.59777,3.28352 -8.23003,9.44221 0.47216,7.90744 2.50651,-0.44206 6.5823,-0.66801 9.0573,-0.50211 z m 8.00044,-30.8441 c -3.9e-4,-15.61938 0.22877,-18.03369 2.15222,-22.67435 1.88511,-4.54818 1.99298,-5.57916 0.86793,-8.29527 -3.4299,-8.28051 -16.11253,-10.16805 -23.13223,-3.44275 -3.27409,3.13678 -3.83214,8.1181 -1.38836,12.39304 1.08988,1.90655 1.43754,6.7926 1.46456,20.58333 0.0195,9.94584 0.22637,18.27084 0.45973,18.5 0.23337,0.22917 4.73357,0.41667 10.00045,0.41667 l 9.57615,0 -4.5e-4,-17.48067 z m -124.58525,17.60565 c -4.81568,-2.16917 -7.41519,-6.17692 -7.41519,-11.43225 0,-4.28459 0.39024,-4.9278 7,-11.53756 l 7,-7 0,-13.21369 0,-13.21369 -5.84296,-4.27778 c -11.60363,-8.49532 -13.17046,-15.20947 -6.04087,-25.88612 2.2639,-3.39021 5.63888,-7.37899 7.49997,-8.86395 l 3.3838,-2.69994 3e-5,-11.80218 3e-5,-11.80217 -6.83465,-7.22095 c -10.32055,-10.90388 -10.31959,-14.22625 0.006,-20.41992 7.88606,-4.73038 20.37621,-7.64821 29.80183,-6.96202 9.39332,0.68385 19.15648,3.69546 25.4115,7.83861 8.88289,5.88379 8.44858,10.12685 -2.09473,20.46462 l -6.28985,6.16727 0,11.39319 0,11.3932 5.55667,5.87609 c 6.76806,7.15712 9.44333,12.16196 9.44333,17.66639 0,5.60836 -2.72042,9.68905 -9.98703,14.98072 l -6.01297,4.37876 0,13.0555 0,13.0555 6.07586,5.96869 c 7.95959,7.81919 9.29486,10.37825 7.97423,15.28269 -2.63928,9.80153 -12.08599,12.57082 -21.95483,6.43601 -4.35848,-2.70938 -6.2103,-3.25 -11.13247,-3.25 -4.92441,0 -6.61452,0.49389 -10.18355,2.97589 -5.12329,3.56285 -11.06215,4.58684 -15.36405,2.64909 z m 34.58481,-35.0898 c 0,-22.17552 -0.10628,-23.52169 -1.93426,-24.5 -2.44405,-1.30801 -11.12358,-1.34389 -14.50064,-0.0599 l -2.5651,0.97522 0,23.52475 0,23.52475 9.5,0 9.5,0 0,-23.46482 z m -14.04922,-32.61804 c 3.65574,-0.78402 6.48021,-0.77598 10.23436,0.0291 4.37117,0.93745 5.42813,0.86903 6.73305,-0.43589 2.01571,-2.01571 0.63621,-4.37299 -3.99308,-6.82337 -8.38121,-4.43635 -25.59796,1.18254 -20.91454,6.82571 1.47442,1.77657 1.52904,1.77936 7.94021,0.40441 z m 17.54922,-13.90271 c 0,-5.62879 -13.50581,-8.48014 -21.71324,-4.5841 -3.54311,1.6819 -5.52171,4.57149 -4.3872,6.40716 0.29076,0.47046 6.28231,0.79325 13.31455,0.71732 l 12.78589,-0.13806 0,-2.40232 z m -2.5,-29.12644 c 0,-15.54426 0.24044,-18.1773 2.02909,-22.22086 2.41024,-5.44873 1.91975,-8.3839 -2.03399,-12.17182 -5.21255,-4.99394 -16.61609,-4.33518 -20.97946,1.21194 -2.36327,3.00441 -2.59994,8.64664 -0.51564,12.29275 1.08928,1.9055 1.43756,6.78298 1.46456,20.51087 l 0.0354,18.01087 10,0 10,0 0,-17.63375 z m 137.41519,109.68902 c -3.94861,-1.7172 -7.18735,-5.84561 -8.00497,-10.20388 -0.80844,-4.30934 2.28083,-9.30715 9.53276,-15.42206 l 5.05702,-4.26414 0,-13.11766 0,-13.11766 -6.01297,-4.37876 c -7.24871,-5.27865 -10.1458,-9.62138 -10.23222,-15.33811 -0.0834,-5.51838 1.95712,-9.28462 9.26031,-17.09175 l 5.98488,-6.39785 0,-11.10134 0,-11.10133 -7.005,-7.11707 c -9.97429,-10.13386 -10.38617,-13.15633 -2.59525,-19.04472 10.50356,-7.9386 27.67622,-10.77397 42.51961,-7.02039 13.53441,3.42256 21.08064,8.66206 21.08064,14.6367 0,2.9611 -1.07268,4.62623 -7,10.86616 l -7,7.36918 0,11.54394 0,11.54393 5.4512,5.67338 c 9.15384,9.52691 11.66598,17.52192 7.6006,24.18927 -1.92729,3.16081 -11.39852,11.31715 -13.1416,11.31715 -0.50305,0 -0.9102,6.18532 -0.9102,13.82759 l 0,13.82758 7,7 c 6.29071,6.29072 6.99962,7.39745 6.99626,10.92242 -0.011,11.57019 -11.09135,16.39206 -22.03505,9.58908 -7.04034,-4.37652 -14.67196,-4.46811 -21.64476,-0.25977 -5.91393,3.56926 -10.81453,4.44739 -14.90126,2.67011 z m 34.58481,-35.01799 c 0,-16.19737 -0.34546,-23.65449 -1.11795,-24.13192 -2.69299,-1.66436 -8.62234,-2.24722 -13.0974,-1.28749 l -4.78465,1.02612 0,23.91713 0,23.91714 9.5,0 9.5,0 0,-23.44098 z m -11.74931,-33.15999 c 2.33712,-0.30938 6.14606,-0.1271 8.46431,0.40506 8.25496,1.89499 9.8097,-3.10533 2.21011,-7.10815 -4.05458,-2.13561 -13.67228,-1.94522 -18.42511,0.36474 -5.2581,2.55553 -4.22103,8.71654 1.25069,7.43005 1.23788,-0.29105 4.16288,-0.78231 6.5,-1.0917 z m 15.24931,-13.38099 c 0,-3.75985 -5.60278,-6.53355 -13,-6.43573 -8.62351,0.11403 -14.75677,3.70022 -13.21219,7.72532 0.37994,0.99012 3.62323,1.28442 13.35699,1.212 l 12.8552,-0.0956 0,-2.40595 z m -3.50067,-28.80788 c 5.9e-4,-15.31558 0.22904,-17.73748 2.00067,-21.21016 2.83171,-5.55062 2.56949,-9.33108 -0.91797,-13.23422 -2.78043,-3.11185 -3.25541,-3.26578 -10.07684,-3.26578 -6.98985,0 -7.23969,0.0882 -10.58203,3.73532 -3.94896,4.30906 -4.19387,6.33363 -1.42316,11.76468 1.77815,3.48545 1.99999,5.8937 1.99994,21.71016 l -5e-5,17.78984 9.49938,0 9.49938,0 6.8e-4,-17.28984 z"
         id="path4279"
         inkscape:connector-curvature="0" />
      <path
         style="fill:#485346"
         d="m 679.52532,-551.60679 c -22.73777,-4.52253 -41.82513,-18.63838 -51.32766,-37.9588 -8.34567,-16.96831 -7.84098,-4.39717 -7.52614,-187.4659 l 0.27861,-162 2.6527,-7.77805 c 9.06404,-26.57692 31.71012,-45.00016 59.86281,-48.70013 5.93907,-0.78054 42.38541,-1.01922 121.48449,-0.79558 l 113,0.31949 7.39306,2.27029 c 26.05236,8.00024 43.77372,25.52329 50.76921,50.20107 1.74971,6.17242 1.83773,14.31361 1.83773,169.98291 0,182.49285 0.54062,168.26402 -6.97197,183.5 -8.58118,17.40316 -23.38186,29.72406 -44.02803,36.65133 l -7,2.34867 -118,0.1524 c -64.9,0.0838 -119.99117,-0.24365 -122.42481,-0.7277 z m 242.42481,-4.20622 c 3.3,-0.95164 10.18589,-3.7838 15.30198,-6.29369 15.67809,-7.69148 28.7219,-22.60829 34.4745,-39.42479 l 2.22352,-6.5 0.27943,-162.5 c 0.30931,-179.88356 0.65261,-169.65101 -6.14509,-183.16187 -9.36563,-18.61475 -25.81664,-31.6931 -46.41987,-36.90322 -7.59059,-1.9195 -11.12217,-1.96776 -124.76309,-1.70516 l -116.95138,0.27025 -8,2.72441 c -11.1912,3.81118 -19.71729,9.10559 -27.94218,17.35113 -7.78707,7.80662 -12.46102,14.96839 -16.435,25.18291 l -2.62282,6.74155 -0.26466,163.91847 c -0.29473,182.54066 -0.79641,168.7927 6.71919,184.13171 9.50851,19.40646 30.79345,34.44867 52.85435,37.35253 3.68012,0.48441 57.31612,0.80544 119.19112,0.71339 103.37023,-0.15378 112.98692,-0.30778 118.5,-1.89762 z m -236.28321,-52.27918 c -3.02215,-2.11681 -5.21679,-6.63019 -5.21679,-10.72861 0,-3.89948 3.16607,-8.4135 9.61649,-13.71069 l 4.26196,-3.5 0.0608,-14.25 c 0.0339,-7.94061 -0.34223,-14.25 -0.84943,-14.25 -1.74307,0 -11.2143,-8.15634 -13.14159,-11.31715 -4.05306,-6.64714 -1.52638,-14.717 7.64432,-24.41487 l 5.40748,-5.71833 0,-11.44911 0,-11.44912 -7,-7.21913 c -6.28962,-6.48651 -7,-7.62384 -7,-11.20702 0,-3.32492 0.5403,-4.39925 3.25,-6.4623 15.0635,-11.46866 39.03441,-12.92735 56.19309,-3.41948 7.30388,4.04719 10.07966,7.43756 9.14342,11.16786 -0.3707,1.47699 -3.80432,5.99269 -7.63026,10.03487 l -6.95625,7.34943 0,11.17474 0,11.17475 5.80399,6.20448 c 6.95561,7.43557 9.19601,11.80834 9.19601,17.94863 0,3.89368 -0.5643,5.2206 -3.6928,8.68348 -2.03105,2.24812 -5.63105,5.42104 -8,7.05092 l -4.3072,2.96343 0,13.30199 0,13.302 5.86147,5.09815 c 7.48545,6.51064 9.61541,10.71708 8.16122,16.11752 -0.62207,2.31019 -2.37643,5.04557 -4.24376,6.61682 -2.7971,2.35361 -3.85668,2.62986 -8.73384,2.27708 -3.91444,-0.28314 -6.72354,-1.19855 -9.52995,-3.10556 -3.34741,-2.27463 -5.04489,-2.70408 -10.68826,-2.70408 -3.68986,0 -6.99094,0.45643 -7.33571,1.01429 -2.62769,4.25169 -15.89439,6.49287 -20.27438,3.42501 z m 36.78321,-34.42025 0,-23.98095 -2.75,-0.74164 c -3.90627,-1.05347 -11.61479,-0.70678 -14.12222,0.63515 -2.07757,1.11188 -2.12778,1.6925 -2.12778,24.60357 l 0,23.46482 9.5,0 9.5,0 0,-23.98095 z m -6,-32.4982 c 9.33455,-0.0205 9.5,-0.0623 9.5,-2.40215 0,-7.42458 -23.75253,-8.19986 -26.08484,-0.85141 -0.84888,2.67459 2.1289,5.04637 5.03238,4.00825 1.12885,-0.40362 6.32746,-0.74323 11.55246,-0.75469 z m 9.79402,-13.13744 c 0.16171,-1.09657 -0.51329,-2.69271 -1.5,-3.54698 -2.13026,-1.84433 -7.71838,-3.83643 -10.76174,-3.83643 -4.31581,0 -12.49996,3.07109 -13.58449,5.09756 -2.03343,3.7995 0.008,4.47365 13.2438,4.37311 11.49383,-0.0873 12.32787,-0.22544 12.60243,-2.08726 z m -2.79402,-29.36408 c 0,-15.53563 0.2359,-18.04983 2.1201,-22.59579 2.05539,-4.95901 2.06654,-5.22798 0.36515,-8.81338 -2.14883,-4.52832 -5.92353,-6.61016 -11.98525,-6.61016 -11.21377,0 -16.49801,7.93599 -11.49709,17.26661 1.86394,3.47771 1.95776,4.93366 1.3522,20.98519 l -0.65071,17.2482 10.1478,0 10.1478,0 0,-17.48067 z m 134.22107,107.51323 c -1.92499,-1.61977 -3.62221,-4.30855 -4.29366,-6.80213 -1.50105,-5.57448 0.22081,-8.98251 7.99625,-15.82673 l 6.07634,-5.34862 0,-13.2295 0,-13.2295 -4.3072,-2.96343 c -2.36895,-1.62988 -5.96895,-4.8028 -8,-7.05092 -3.27866,-3.62909 -3.6928,-4.68202 -3.6928,-9.38883 0,-6.20573 2.93033,-11.47323 10.37567,-18.65111 l 4.62433,-4.45821 0,-11.34397 0,-11.34396 -6.95625,-7.34943 c -7.05259,-7.4512 -9.14252,-11.5623 -7.34638,-14.451 0.54554,-0.87737 2.82738,-3.00478 5.07077,-4.72758 12.3781,-9.50574 37.09139,-10.99627 52.67188,-3.1768 8.21398,4.12239 10.55998,6.53439 10.55998,10.85704 0,3.51714 -0.76091,4.74713 -7,11.31527 l -7,7.36918 0,11.25018 0,11.25018 5.64409,6.09629 c 12.64279,13.65572 12.48167,22.60832 -0.57446,31.91934 l -5.9618,4.25168 -0.0539,13.70023 -0.0539,13.70023 4.52555,3.78289 c 8.88374,7.42589 11.36254,13.7648 7.95752,20.34938 -3.38696,6.54966 -13.41322,7.80491 -21.02539,2.6323 -3.24847,-2.20737 -5.03205,-2.66503 -10.38609,-2.66503 -5.38936,0 -7.11,0.44759 -10.34873,2.69204 -2.79204,1.93489 -5.49255,2.80835 -9.60157,3.10557 -5.06366,0.36627 -6.08072,0.10743 -8.90025,-2.26505 z m 37.77893,-33.48556 0,-23.95299 -3.75,-1.04143 c -4.70708,-1.30722 -6.79292,-1.30722 -11.5,0 l -3.75,1.04143 0,23.95299 0,23.953 9.5,0 9.5,0 0,-23.953 z m 3.7707,-34.09484 c 0.45076,-2.3406 -3.77074,-5.71791 -8.46527,-6.77244 -4.80974,-1.0804 -12.47261,0.0446 -15.98648,2.34695 -2.11185,1.38374 -3.07395,4.385 -1.81065,5.6483 0.27957,0.27957 6.23624,0.46537 13.23704,0.41289 10.61684,-0.0796 12.77794,-0.35097 13.02536,-1.6357 z m 0.067,-11.34856 c 1.53382,-7.96043 -21.4057,-10.14392 -26.15456,-2.48952 -2.37002,3.82009 -0.53119,4.43595 12.94833,4.33669 11.42321,-0.0841 12.9065,-0.29159 13.20623,-1.84717 z m -3.8377,-29.39344 c 0,-15.31639 0.22828,-17.7373 2,-21.21016 3.00238,-5.88514 2.62226,-9.57774 -1.4,-13.6 -3.07578,-3.07578 -3.94659,-3.4 -9.13197,-3.4 -6.83012,0 -11.60655,2.506 -13.50303,7.0845 -1.10715,2.67288 -0.99381,3.73392 0.88234,8.26048 1.91653,4.62398 2.15266,7.06542 2.15266,22.25768 0,9.3852 0.1875,17.25151 0.41667,17.48067 0.22916,0.22917 4.50416,0.41667 9.5,0.41667 l 9.08333,0 0,-17.28984 z m -208.58481,-64.58518 c -4.81568,-2.16917 -7.41519,-6.17692 -7.41519,-11.43225 0,-4.28459 0.39024,-4.9278 7,-11.53756 l 7,-7 0,-13.21369 0,-13.21369 -5.84296,-4.27778 c -11.60363,-8.49532 -13.17046,-15.20947 -6.04087,-25.88612 2.2639,-3.39021 5.63888,-7.37899 7.49997,-8.86395 l 3.3838,-2.69994 3e-5,-11.80218 3e-5,-11.80217 -6.83465,-7.22095 c -10.32055,-10.90388 -10.31959,-14.22625 0.006,-20.41992 7.88606,-4.73038 20.37621,-7.64821 29.80183,-6.96202 9.39332,0.68385 19.15648,3.69546 25.4115,7.83861 8.88289,5.88379 8.44858,10.12685 -2.09473,20.46462 l -6.28985,6.16727 0,11.39319 0,11.3932 5.55667,5.87609 c 6.76806,7.15712 9.44333,12.16196 9.44333,17.66639 0,5.60836 -2.72042,9.68905 -9.98703,14.98072 l -6.01297,4.37876 0,13.0555 0,13.0555 6.07586,5.96869 c 7.95959,7.81919 9.29486,10.37825 7.97423,15.28269 -2.63928,9.80153 -12.08599,12.57082 -21.95483,6.43601 -4.35848,-2.70938 -6.2103,-3.25 -11.13247,-3.25 -4.92441,0 -6.61452,0.49389 -10.18355,2.97589 -5.12329,3.56285 -11.06215,4.58684 -15.36405,2.64909 z m 34.58481,-35.0898 c 0,-22.17552 -0.10628,-23.52169 -1.93426,-24.5 -2.44405,-1.30801 -11.12358,-1.34389 -14.50064,-0.0599 l -2.5651,0.97522 0,23.52475 0,23.52475 9.5,0 9.5,0 0,-23.46482 z m -14.04922,-32.61804 c 3.65574,-0.78402 6.48021,-0.77598 10.23436,0.0291 4.37117,0.93745 5.42813,0.86903 6.73305,-0.43589 2.01571,-2.01571 0.63621,-4.37299 -3.99308,-6.82337 -8.38121,-4.43635 -25.59796,1.18254 -20.91454,6.82571 1.47442,1.77657 1.52904,1.77936 7.94021,0.40441 z m 17.54922,-13.90271 c 0,-5.62879 -13.50581,-8.48014 -21.71324,-4.5841 -3.54311,1.6819 -5.52171,4.57149 -4.3872,6.40716 0.29076,0.47046 6.28231,0.79325 13.31455,0.71732 l 12.78589,-0.13806 0,-2.40232 z m -2.5,-29.12644 c 0,-15.54426 0.24044,-18.1773 2.02909,-22.22086 2.41024,-5.44873 1.91975,-8.3839 -2.03399,-12.17182 -5.21255,-4.99394 -16.61609,-4.33518 -20.97946,1.21194 -2.36327,3.00441 -2.59994,8.64664 -0.51564,12.29275 1.08928,1.9055 1.43756,6.78298 1.46456,20.51087 l 0.0354,18.01087 10,0 10,0 0,-17.63375 z m 137.41519,109.68902 c -3.94861,-1.7172 -7.18735,-5.84561 -8.00497,-10.20388 -0.80844,-4.30934 2.28083,-9.30715 9.53276,-15.42206 l 5.05702,-4.26414 0,-13.11766 0,-13.11766 -6.01297,-4.37876 c -7.24871,-5.27865 -10.1458,-9.62138 -10.23222,-15.33811 -0.0834,-5.51838 1.95712,-9.28462 9.26031,-17.09175 l 5.98488,-6.39785 0,-11.10134 0,-11.10133 -7.005,-7.11707 c -9.97429,-10.13386 -10.38617,-13.15633 -2.59525,-19.04472 10.50356,-7.9386 27.67622,-10.77397 42.51961,-7.02039 13.53441,3.42256 21.08064,8.66206 21.08064,14.6367 0,2.9611 -1.07268,4.62623 -7,10.86616 l -7,7.36918 0,11.54394 0,11.54393 5.4512,5.67338 c 9.15384,9.52691 11.66598,17.52192 7.6006,24.18927 -1.92729,3.16081 -11.39852,11.31715 -13.1416,11.31715 -0.50305,0 -0.9102,6.18532 -0.9102,13.82759 l 0,13.82758 7,7 c 6.29071,6.29072 6.99962,7.39745 6.99626,10.92242 -0.011,11.57019 -11.09135,16.39206 -22.03505,9.58908 -7.04034,-4.37652 -14.67196,-4.46811 -21.64476,-0.25977 -5.91393,3.56926 -10.81453,4.44739 -14.90126,2.67011 z m 34.58481,-35.01799 c 0,-16.19737 -0.34546,-23.65449 -1.11795,-24.13192 -2.69299,-1.66436 -8.62234,-2.24722 -13.0974,-1.28749 l -4.78465,1.02612 0,23.91713 0,23.91714 9.5,0 9.5,0 0,-23.44098 z m -11.74931,-33.15999 c 2.33712,-0.30938 6.14606,-0.1271 8.46431,0.40506 8.25496,1.89499 9.8097,-3.10533 2.21011,-7.10815 -4.05458,-2.13561 -13.67228,-1.94522 -18.42511,0.36474 -5.2581,2.55553 -4.22103,8.71654 1.25069,7.43005 1.23788,-0.29105 4.16288,-0.78231 6.5,-1.0917 z m 15.24931,-13.38099 c 0,-3.75985 -5.60278,-6.53355 -13,-6.43573 -8.62351,0.11403 -14.75677,3.70022 -13.21219,7.72532 0.37994,0.99012 3.62323,1.28442 13.35699,1.212 l 12.8552,-0.0956 0,-2.40595 z m -3.50067,-28.80788 c 5.9e-4,-15.31558 0.22904,-17.73748 2.00067,-21.21016 2.83171,-5.55062 2.56949,-9.33108 -0.91797,-13.23422 -2.78043,-3.11185 -3.25541,-3.26578 -10.07684,-3.26578 -6.98985,0 -7.23969,0.0882 -10.58203,3.73532 -3.94896,4.30906 -4.19387,6.33363 -1.42316,11.76468 1.77815,3.48545 1.99999,5.8937 1.99994,21.71016 l -5e-5,17.78984 9.49938,0 9.49938,0 6.8e-4,-17.28984 z"
         id="path4277"
         inkscape:connector-curvature="0" />
      <path
         style="fill:#0e1f0b"
         d="m 677.95013,-552.18744 c -23.50841,-5.01368 -43.56655,-21.39692 -52.19536,-42.63255 -5.47116,-13.46462 -5.26854,-6.64292 -5.28728,-178.00366 -0.0196,-178.89511 -0.51997,-166.92074 7.67709,-183.70528 8.62425,-17.65925 25.73056,-31.52856 45.95065,-37.25545 l 7.8549,-2.22473 113.3918,-0.28994 c 98.76222,-0.25254 114.54994,-0.0901 122.36842,1.25917 27.23957,4.70078 48.69276,22.97199 57.51859,48.98731 l 2.72119,8.02108 0,164 c 0,156.10198 -0.0884,164.31303 -1.83635,170.5 -5.84136,20.67619 -22.51276,39.39009 -42.22738,47.40086 -14.07445,5.71896 -11.31579,5.60633 -135.14411,5.51761 -96.89492,-0.0694 -114.83161,-0.3032 -120.79216,-1.57442 z m 244.5,-3.67461 c 22.30413,-5.96033 40.33269,-22.16069 48.62086,-43.69045 l 2.87914,-7.47899 0.2794,-163 c 0.31316,-182.69211 0.78905,-170.13285 -7.0397,-185.78688 -7.59369,-15.184 -21.90667,-27.0837 -40.7397,-33.87068 l -6.5,-2.34244 -117.19938,-0.27389 c -132.19386,-0.30894 -124.87487,-0.69148 -141.22576,7.38138 -17.33191,8.55722 -31.34532,25.71185 -35.53997,43.50655 -1.3076,5.54716 -1.50727,27.6458 -1.52011,168.24162 -0.0164,179.19315 -0.46557,166.68982 6.50794,181.14434 9.74539,20.20001 29.95153,34.29788 53.67014,37.44577 3.46893,0.46039 56.93214,0.75238 118.80714,0.64887 103.29595,-0.17281 113.03179,-0.33031 119,-1.9252 z m -238.11765,-54.55179 c -3.29121,-3.29122 -3.88235,-4.52916 -3.88235,-8.13028 0,-3.9378 0.51105,-4.74994 7,-11.12408 l 7,-6.87615 -0.0468,-13.74357 -0.0468,-13.74357 -5.0527,-3.5 c -13.81883,-9.5723 -14.16062,-18.48785 -1.22851,-32.04582 l 5.37489,-5.63501 0,-12.34917 0,-12.34918 -5.14131,-4.75142 c -10.23293,-9.4569 -11.25528,-13.66216 -4.68804,-19.28348 14.03479,-12.01326 41.2979,-12.50679 58.55956,-1.06007 8.59684,5.70081 8.01732,9.43419 -3.17282,20.43999 l -5.55739,5.46584 0,11.75784 0,11.75785 4.51458,4.51458 c 14.55334,14.55334 13.79389,25.56347 -2.42414,35.14369 l -3.09044,1.82558 0,13.71358 0,13.71358 6.10319,5.82081 c 8.49239,8.09947 9.53912,10.35043 7.40798,15.93072 -3.35284,8.77931 -11.98648,11.01124 -20.85012,5.39009 -4.05843,-2.57378 -5.68457,-2.99741 -11.44578,-2.9818 -5.78505,0.0157 -7.32484,0.43125 -11.11575,3 -3.42124,2.31826 -5.50583,2.9818 -9.36765,2.9818 -4.43661,0 -5.38185,-0.41469 -8.84952,-3.88235 z m 38.11765,-32.05026 c 0,-21.93859 -0.14581,-23.97367 -1.75,-24.42535 -5.25238,-1.47886 -8.43814,-1.62346 -12.612,-0.57247 l -4.638,1.16786 0,23.88128 0,23.88129 9.5,0 9.5,0 0,-23.93261 z m -4.68041,-32.2846 8.81958,0.2828 -0.31958,-2.7828 c -0.44457,-3.87107 -5.55337,-6.27968 -13.31959,-6.27968 -9.60756,0 -15.93675,4.35587 -12.44409,8.56426 0.90758,1.09356 2.14827,1.27378 4.83258,0.70196 1.98633,-0.42313 7.58032,-0.64207 12.4311,-0.48654 z m 9.15584,-12.57937 c 1.59265,-4.15037 -4.94241,-7.72895 -13.97543,-7.65291 -8.55024,0.072 -14.76754,3.70396 -13.22438,7.72535 0.7254,1.89037 26.47293,1.8218 27.19981,-0.0724 z m -3.47543,-30.1377 c 0,-15.68066 0.21174,-17.87167 2.10512,-21.78287 3.90531,-8.0673 0.2137,-15.04173 -8.48038,-16.02168 -10.28231,-1.15896 -16.62774,2.70655 -16.621,10.12519 0.002,2.32833 0.8597,5.5175 1.97601,7.34836 1.83332,3.00683 1.92827,4.45108 1.34781,20.5 l -0.62445,17.26528 10.14845,0 10.14844,0 0,-17.43428 z m 135.36504,108.0152 c -4.00369,-2.44133 -6.92709,-9.47242 -5.49957,-13.22707 0.53691,-1.4122 3.93683,-5.43008 7.55537,-8.92861 l 6.57916,-6.36097 -0.0539,-13.53214 -0.0539,-13.53213 -5.9618,-4.25168 c -13.18403,-9.40223 -13.28974,-18.69267 -0.36453,-32.03721 l 5.43413,-5.61046 0,-11.64009 0,-11.64009 -6.95815,-7.0694 c -7.93712,-8.06403 -9.24836,-11.15812 -6.3652,-15.0198 2.66707,-3.57224 12.34162,-8.74152 19.92549,-10.64653 15.17912,-3.81287 33.90535,-0.22414 43.69867,8.37451 6.11423,5.36837 5.27141,8.21091 -5.68075,19.15917 l -4.62006,4.61842 0,12.29117 0,12.29116 5.37489,5.63501 c 11.01599,11.54912 12.22181,18.79096 4.45237,26.73993 -2.37999,2.43498 -5.78976,5.33664 -7.57726,6.44813 l -3.25,2.02088 0,13.81499 0,13.81499 7.12736,7.12736 7.12736,7.12736 -0.52883,4.69174 c -0.72161,6.40206 -5.79166,11.26044 -11.75104,11.26044 -3.91681,0 -11.17998,-2.90486 -12.46602,-4.98571 -0.34477,-0.55786 -4.17375,-1.01429 -8.50883,-1.01429 -4.33508,0 -8.16406,0.45643 -8.50883,1.01429 -1.25165,2.02521 -8.50198,4.98562 -12.20133,4.98197 -2.08441,-0.002 -5.20057,-0.86396 -6.9248,-1.91534 z m 36.40274,-34.33092 -0.26778,-24.25 -5.01572,-0.85163 c -3.26717,-0.55474 -6.49184,-0.45415 -9.25,0.28854 l -4.23428,1.14018 0,23.96145 0,23.96146 9.51778,0 9.51778,0 -0.26778,-24.25 z m 3.73222,-34.69395 c 0,-5.6738 -13.88751,-8.43974 -22.61504,-4.50418 -3.12764,1.41037 -3.88496,2.28055 -3.88496,4.46389 l 0,2.71202 13.25,-0.11389 13.25,-0.11389 0,-2.44395 z m 0,-11.02016 c 0,-4.18541 -4.64825,-6.54091 -12.82693,-6.50006 -8.55821,0.0427 -13.67307,2.22109 -13.67307,5.82318 0,1.26921 0.19755,2.50521 0.43901,2.74667 0.24145,0.24145 6.20395,0.39654 13.25,0.34463 12.7063,-0.0936 12.81099,-0.11333 12.81099,-2.41442 z m -3.5,-28.76172 c 0,-15.45498 0.20522,-17.56242 1.99626,-20.5 2.81285,-4.6135 2.64883,-10.91268 -0.3757,-14.42891 -2.09481,-2.43536 -3.2013,-2.80726 -9.25,-3.109 -7.89522,-0.39386 -12.65216,1.74401 -14.45983,6.49855 -1.07401,2.82486 0.41085,10.72787 2.22644,11.84997 0.47456,0.29329 0.86283,8.7192 0.86283,18.72424 l 0,18.19098 9.5,0 9.5,0 0,-17.22583 z m -208.73031,-64.70909 c -4.14144,-1.86151 -7.26119,-6.99602 -7.26595,-11.95836 -0.003,-3.50968 0.68599,-4.56147 6.99626,-10.67461 l 7,-6.78132 0,-14.07539 c 0,-7.79118 -0.40638,-14.0754 -0.9102,-14.0754 -1.74308,0 -11.21431,-8.15634 -13.1416,-11.31715 -4.00201,-6.56343 -1.59268,-14.01047 7.67691,-23.72867 l 5.37489,-5.63501 0,-11.82952 0,-11.82953 -6.47985,-6.71195 c -7.99603,-8.28245 -9.36984,-11.31901 -6.73813,-14.89341 2.53142,-3.43819 11.29933,-8.62445 18.13743,-10.72836 7.45128,-2.29258 22.69959,-2.3326 30.08055,-0.0789 6.76476,2.0655 15.68584,7.36833 18.24717,10.8464 1.75172,2.37869 1.78834,2.87637 0.44146,6 -0.80779,1.87338 -4.21819,6.09206 -7.57867,9.37485 l -6.10996,5.96869 0,11.90387 0,11.90388 5.80399,6.20448 c 12.249,13.09422 12.2904,20.89608 0.16175,30.48323 -2.82994,2.23693 -5.55493,4.06715 -6.05554,4.06715 -0.50406,0 -0.9102,6.31568 -0.9102,14.15422 l 0,14.15421 5.84998,5.29393 c 7.05858,6.38765 9.28753,10.43136 8.07684,14.65281 -2.28269,7.95926 -8.3678,11.81525 -15.37874,9.74514 -2.22645,-0.6574 -5.48056,-2.27641 -7.23136,-3.59779 -2.602,-1.96381 -4.37024,-2.40252 -9.68355,-2.40252 -5.4988,0 -7.25181,0.46717 -11.37819,3.03228 -5.9047,3.67056 -10.66429,4.47502 -14.98529,2.5328 z m 34.73031,-35.45809 c 0,-27.1439 0.74213,-25.10699 -9.14753,-25.10699 -10.41724,0 -9.85247,-1.46373 -9.85247,25.53518 l 0,23.46482 9.5,0 9.5,0 0,-23.89301 z m -7,-32.25798 c 10.95716,0.76957 10.47579,0.86073 10.81144,-2.04734 0.26238,-2.27331 -0.32202,-3.0215 -3.71017,-4.75 -7.95526,-4.05848 -23.10127,-1.28332 -23.10127,4.23277 0,3.49488 0.91737,3.92594 6.47901,3.04438 2.76154,-0.43772 7.04599,-0.65364 9.52099,-0.47981 z m 11,-13.38368 c 0,-4.99554 -8.8456,-8.30756 -17.32861,-6.48828 -6.20764,1.33131 -9.67139,3.43695 -9.67139,5.87934 0,0.99565 0.21465,2.02493 0.47701,2.28729 0.26236,0.26235 6.33736,0.47701 13.5,0.47701 12.66922,0 13.02299,-0.0585 13.02299,-2.15536 z m -3,-30.14544 c 0,-10.71692 0.40004,-18.4491 0.97283,-18.80309 0.53505,-0.33069 1.44796,-2.36579 2.02869,-4.52246 2.16244,-8.03068 -3.1719,-13.99434 -12.5176,-13.99434 -4.94152,0 -7.65301,1.0377 -11.23392,4.29928 -2.65189,2.41539 -3.02431,8.72222 -0.75,12.70072 1.08928,1.9055 1.43756,6.78298 1.46456,20.51087 l 0.0354,18.01087 10,0 10,0 0,-18.20185 z m 138.64255,110.64173 c -3.8235,-1.13219 -6.61843,-3.75211 -8.33727,-7.81521 -2.20313,-5.20792 -0.8861,-8.25755 6.74983,-15.62942 l 6.94489,-6.70473 -0.0269,-13.65613 -0.0269,-13.65613 -4.06735,-2.5 c -5.93168,-3.64592 -11.85694,-10.42763 -11.99401,-13.72766 -0.30098,-7.24605 1.83311,-11.67714 9.55848,-19.8466 l 5.55667,-5.87609 0,-11.44911 0,-11.44912 -6.9382,-7.1554 c -9.81601,-10.12329 -10.18563,-13.3662 -2.15758,-18.92964 13.94128,-9.66131 36.40727,-11.01635 51.96216,-3.13409 14.15763,7.17421 14.52004,12.01649 1.78683,23.87421 l -4.65321,4.33327 0,12.29646 0,12.29646 5.65596,6.10911 c 12.46718,13.46604 12.09471,22.07655 -1.35568,31.34019 l -5.30028,3.65045 0,14.21332 0,14.21332 4.5658,3.74132 c 6.77605,5.55247 9.83541,10.63979 9.10505,15.14052 -0.68853,4.24291 -3.87081,8.06254 -8.28535,9.94476 -3.76699,1.60613 -8.97164,0.44717 -14.32352,-3.18953 -5.0749,-3.44848 -15.78167,-3.4549 -20.3787,-0.0122 -2.86913,2.14868 -5.17054,3.12295 -9.68328,4.09929 -0.825,0.1785 -2.78585,-0.0562 -4.35745,-0.5216 z m 33.35745,-35.94257 0,-23.98095 -2.70105,-0.67792 c -3.6667,-0.92028 -10.20472,-0.94697 -13.54895,-0.0553 l -2.75,0.73322 0,23.98095 0,23.98095 9.5,0 9.5,0 0,-23.98095 z m -12.8207,-32.5488 c 2.02361,-0.36647 6.04442,-0.15907 8.93513,0.46087 4.31121,0.92459 5.51064,0.87238 6.67349,-0.29046 5.89035,-5.89036 -12.28395,-11.63687 -21.78792,-6.88911 -5.5228,2.75895 -5.11977,9.06774 0.5,7.82668 1.1,-0.24293 3.65568,-0.74152 5.6793,-1.10798 z m 16.61472,-13.02542 c 0.42762,-2.98904 -2.73714,-5.32874 -8.97871,-6.63793 -4.73963,-0.99414 -6.277,-0.89001 -11.39698,0.77197 -3.97598,1.29063 -6.02813,2.51464 -6.2529,3.72954 -0.74374,4.02002 0.14422,4.29967 13.47761,4.24465 12.18984,-0.0503 12.87222,-0.1597 13.15098,-2.10823 z m -3.79402,-29.17066 c 0,-15.45498 0.20522,-17.56242 1.99626,-20.5 2.23088,-3.65897 2.61172,-10.42193 0.72194,-12.82006 -4.34485,-5.51362 -14.62176,-6.84148 -20.78808,-2.686 -4.8979,3.30069 -5.8169,7.48031 -3.09087,14.05733 1.92483,4.64402 2.16075,7.06723 2.16075,22.19389 l 0,16.98067 9.5,0 9.5,0 0,-17.22583 z"
         id="path4275"
         inkscape:connector-curvature="0" />
      <path
         style="fill:#000000"
         d="m 677.95013,-552.18744 c -23.50841,-5.01368 -43.56655,-21.39692 -52.19536,-42.63255 -5.47116,-13.46462 -5.26854,-6.64292 -5.28728,-178.00366 -0.0196,-178.89511 -0.51997,-166.92074 7.67709,-183.70528 8.62425,-17.65925 25.73056,-31.52856 45.95065,-37.25545 l 7.8549,-2.22473 113.3918,-0.28994 c 98.76222,-0.25254 114.54994,-0.0901 122.36842,1.25917 27.23957,4.70078 48.69276,22.97199 57.51859,48.98731 l 2.72119,8.02108 0,164 c 0,156.10198 -0.0884,164.31303 -1.83635,170.5 -5.84136,20.67619 -22.51276,39.39009 -42.22738,47.40086 -14.07445,5.71896 -11.31579,5.60633 -135.14411,5.51761 -96.89492,-0.0694 -114.83161,-0.3032 -120.79216,-1.57442 z m 244.5,-3.67461 c 22.30413,-5.96033 40.33269,-22.16069 48.62086,-43.69045 l 2.87914,-7.47899 0.2794,-163 c 0.31316,-182.69211 0.78905,-170.13285 -7.0397,-185.78688 -7.59369,-15.184 -21.90667,-27.0837 -40.7397,-33.87068 l -6.5,-2.34244 -117.19938,-0.27389 c -132.19386,-0.30894 -124.87487,-0.69148 -141.22576,7.38138 -17.33191,8.55722 -31.34532,25.71185 -35.53997,43.50655 -1.3076,5.54716 -1.50727,27.6458 -1.52011,168.24162 -0.0164,179.19315 -0.46557,166.68982 6.50794,181.14434 9.74539,20.20001 29.95153,34.29788 53.67014,37.44577 3.46893,0.46039 56.93214,0.75238 118.80714,0.64887 103.29595,-0.17281 113.03179,-0.33031 119,-1.9252 z"
         id="path4273"
         inkscape:connector-curvature="0" />
    </g>
  </g>
</svg>
