<?xml version="1.0" encoding="UTF-8" standalone="no"?>
<!-- Created with Inkscape (http://www.inkscape.org/) -->

<svg
   xmlns:dc="http://purl.org/dc/elements/1.1/"
   xmlns:cc="http://creativecommons.org/ns#"
   xmlns:rdf="http://www.w3.org/1999/02/22-rdf-syntax-ns#"
   xmlns:svg="http://www.w3.org/2000/svg"
   xmlns="http://www.w3.org/2000/svg"
   xmlns:sodipodi="http://sodipodi.sourceforge.net/DTD/sodipodi-0.dtd"
   xmlns:inkscape="http://www.inkscape.org/namespaces/inkscape"
   width="358.83759"
   height="446.88733"
   id="svg2"
   version="1.1"
   inkscape:version="0.48.5 r10040"
   sodipodi:docname="bamb3.svg">
  <defs
     id="defs4" />
  <sodipodi:namedview
     id="base"
     pagecolor="#ffffff"
     bordercolor="#666666"
     borderopacity="1.0"
     inkscape:pageopacity="0.0"
     inkscape:pageshadow="2"
     inkscape:zoom="0.56054688"
     inkscape:cx="-167.19544"
     inkscape:cy="73.219175"
     inkscape:document-units="px"
     inkscape:current-layer="layer1"
     showgrid="false"
     fit-margin-top="0"
     fit-margin-left="0"
     fit-margin-right="0"
     fit-margin-bottom="0"
     inkscape:window-width="958"
     inkscape:window-height="1078"
     inkscape:window-x="1920"
     inkscape:window-y="0"
     inkscape:window-maximized="0" />
  <metadata
     id="metadata7">
    <rdf:RDF>
      <cc:Work
         rdf:about="">
        <dc:format>image/svg+xml</dc:format>
        <dc:type
           rdf:resource="http://purl.org/dc/dcmitype/StillImage" />
        <dc:title></dc:title>
      </cc:Work>
    </rdf:RDF>
  </metadata>
  <g
     inkscape:label="Layer 1"
     inkscape:groupmode="layer"
     id="layer1"
     transform="translate(-1398.8648,677.59133)">
    <g
       id="g4225"
       transform="translate(799.21951,362.14634)">
      <path
         style="fill:#c2c6c1"
         d="m 663.5571,-593.72284 c -15.77748,-1.84862 -31.99456,-9.83967 -43.47157,-21.42083 -8.17926,-8.2535 -13.48275,-16.85549 -17.29636,-28.05383 l -2.72441,-8 0,-164.5 c 0,-154.10263 0.11153,-164.90373 1.76453,-170.88747 4.10705,-14.86723 13.44862,-28.73503 25.44997,-37.78103 8.21374,-6.1911 14.42266,-9.3796 24.31072,-12.4844 l 7.47478,-2.3471 120,0 120,0 7.5,2.3419 c 24.73288,7.7228 42.16968,25.1573 49.66457,49.6581 1.74891,5.71718 1.83543,13.77762 1.83543,171 l 0,165 -2.72441,8 c -3.88894,11.41952 -9.16785,19.87769 -17.78288,28.49271 -12.19044,12.19045 -26.56018,18.99455 -44.49271,21.06738 -9.52769,1.10132 -220.04789,1.02295 -229.50766,-0.0854 z m 242.50766,-7.19907 c 17.92254,-6.10355 32.92605,-18.67988 40.33452,-33.80944 7.71392,-15.75337 7.16548,-1.82724 7.16548,-181.94635 0,-160.32918 -0.0158,-161.61693 -2.07081,-169.03278 -5.2233,-18.84892 -18.06926,-33.87242 -36.42919,-42.60432 -15.38417,-7.3166 -6.80965,-6.8827 -136,-6.8827 -108.03649,0 -116.44623,0.122 -122.5,1.7768 -20.28139,5.5439 -36.81677,18.6997 -45.41915,36.1361 -6.95894,14.10529 -6.5497,2.81042 -6.56607,181.2238 l -0.0148,161.1367 2.2812,7.87594 c 7.03432,24.28637 26.53212,42.1644 52.2188,47.88076 4.84263,1.07769 28.47217,1.30002 122.5,1.15258 l 116.5,-0.18268 8,-2.72441 z m -225.02113,-52.09672 c -6.8897,-6.8897 -5.53328,-14.06329 4.25743,-22.51597 l 5.2637,-4.54435 -0.0197,-13.55928 -0.0197,-13.55927 -5.64974,-4.5 c -6.97522,-5.55575 -9.19267,-8.49736 -9.95727,-13.20903 -0.81616,-5.02942 2.42418,-11.41114 9.79468,-19.29022 l 5.85182,-6.25561 0,-10.7198 0,-10.7198 -6.36767,-6.65277 c -9.83765,-10.27812 -10.94386,-14.02996 -5.48978,-18.61927 15.49898,-13.04152 45.30157,-13.84455 61.46428,-1.65614 4.06274,3.06374 4.94483,4.30365 5.19755,7.30594 0.27674,3.28756 -0.38171,4.34961 -7.25,11.69388 l -7.55438,8.07792 0,10.64502 0,10.64502 6.12519,6.54784 c 9.11141,9.74013 11.69447,16.78751 8.45159,23.05855 -1.55129,2.99985 -9.00482,10.23681 -12.43249,12.07125 -2.03306,1.08806 -2.14429,1.8621 -2.14429,14.92168 l 0,13.77409 5.2637,4.54435 c 9.79071,8.45268 11.14713,15.62627 4.25743,22.51597 -4.52269,4.52269 -10.54192,4.62904 -18.17512,0.32113 -4.26381,-2.40634 -6.49916,-3 -11.29613,-3 -4.92702,0 -6.81366,0.52842 -10.71093,3 -3.75239,2.37969 -5.84793,3 -10.13473,3 -4.78748,0 -5.78324,-0.37902 -8.72535,-3.32113 z m 37.28923,-33.39776 -0.2681,-23.7189 -4.20652,-0.83135 c -2.60455,-0.51476 -5.74641,-0.41672 -8.25,0.25743 l -4.04348,1.0888 0,23.46145 0,23.46146 8.5181,0 8.5181,0 -0.2681,-23.71889 z m 4.6319,-34.03499 c -0.055,-0.68536 -0.1675,-1.64485 -0.25,-2.13218 -0.31445,-1.8575 -7.17998,-4.11394 -12.5172,-4.11394 -6.93534,0 -12.6328,2.49267 -12.6328,5.52691 0,2.10089 0.32872,2.15402 12.75,2.06091 9.51905,-0.0713 12.72466,-0.41135 12.65,-1.3417 z m 0.38788,-11.10977 c 1.23657,-3.70969 -8.63671,-7.89586 -15.88796,-6.73634 -5.58444,0.89299 -9.89992,3.27263 -9.89992,5.459 0,0.99421 0.18746,1.99516 0.41657,2.22432 0.22911,0.22917 5.93748,0.39157 12.68526,0.36089 8.89592,-0.0404 12.38343,-0.4 12.68605,-1.30787 z m -3.7875,-29.92619 c -3.4e-4,-15.31686 0.22784,-17.73719 1.99962,-21.21016 2.26432,-4.43843 2.47914,-6.8543 0.91479,-10.28768 -3.36202,-7.37883 -18.31067,-7.69601 -23.35409,-0.49553 -2.0913,2.98577 -1.9657,6.06903 0.4393,10.78321 1.77155,3.47252 2.00014,5.89526 2.00124,21.21016 l 10e-4,17.28984 8.99915,0 8.99914,0 -3.8e-4,-17.28984 z m 100.09441,109.21614 c -3.48003,-2.92824 -5.67635,-8.97305 -4.68925,-12.90595 0.3673,-1.46346 3.80132,-5.70248 7.63114,-9.42005 l 6.96332,-6.75921 0,-12.95494 0,-12.95493 -3.23299,-1.90978 c -5.80426,-3.42866 -11.72129,-9.63682 -12.88414,-13.51805 -1.89972,-6.34069 2.29925,-15.05726 11.53706,-23.94956 l 3.58007,-3.44616 0,-11.08514 0,-11.08514 -6.07586,-5.96869 c -9.81367,-9.64057 -11.24736,-14.33605 -5.78158,-18.9352 15.53722,-13.07371 45.26167,-13.87463 61.46427,-1.65614 4.12909,3.11378 4.94202,4.27681 5.20602,7.44807 0.28839,3.46416 -0.23953,4.32776 -6.75,11.04204 l -7.06285,7.28395 0,11.83388 0,11.83387 5.5295,5.79711 c 8.53666,8.9498 11.23452,16.57181 8.04728,22.73525 -1.55129,2.99985 -9.00482,10.23681 -12.43249,12.07125 -2.03241,1.08771 -2.14426,1.86317 -2.1438,14.8624 l 4.9e-4,13.71482 5.10124,4.39311 c 8.55573,7.36807 10.66469,12.78939 7.41776,19.06825 -3.97461,7.68605 -11.99911,9.21661 -21.17397,4.03864 -4.38483,-2.47464 -6.4463,-3 -11.77184,-3 -3.55088,0 -6.73823,0.45643 -7.083,1.01429 -1.4234,2.30311 -8.61971,4.98571 -13.37461,4.98571 -3.87293,0 -5.63497,-0.56533 -8.02177,-2.5737 z m 37.24787,-21.6763 c 0.35654,-6.1875 0.65029,-16.74135 0.65279,-23.453 l 0.005,-12.20299 -3.75,-1.04143 c -2.0625,-0.57278 -4.425,-1.04143 -5.25,-1.04143 -0.825,0 -3.1875,0.46865 -5.25,1.04143 l -3.75,1.04143 0,23.45299 0,23.453 8.34721,0 8.34721,0 0.64824,-11.25 z m 4.05734,-46.50388 c -0.055,-0.68536 -0.1675,-1.64485 -0.25,-2.13218 -0.0825,-0.48733 -1.68051,-1.61233 -3.55113,-2.5 -7.21412,-3.42332 -21.59887,-0.86834 -21.59887,3.83634 0,2.19906 0.19447,2.23166 12.75,2.13754 9.51905,-0.0713 12.72466,-0.41135 12.65,-1.3417 z m 0.1,-11.6942 c 0,-1.00984 -1.2705,-2.78464 -2.82333,-3.944 -5.68929,-4.24767 -22.67667,-1.81223 -22.67667,3.25109 0,0.99421 0.18746,1.99516 0.41657,2.22432 0.22911,0.22917 5.96661,0.39147 12.75,0.36067 11.27939,-0.0512 12.33343,-0.21292 12.33343,-1.89208 z m -3.5,-29.09048 c 0,-15.06426 0.23174,-17.49311 2,-20.96144 4.82915,-9.4721 0.23488,-16.5 -10.78638,-16.5 -5.79948,0 -11.16891,3.08808 -12.63932,7.26915 -0.73491,2.08972 -0.45278,3.91197 1.2368,7.98839 1.95859,4.72545 2.1889,7.06777 2.1889,22.26179 l 0,16.98067 9,0 9,0 0,-17.03856 z m -173.98007,-65.1779 c -4.31205,-2.20993 -8.01993,-7.58579 -8.01993,-11.62767 0,-3.78442 3.55076,-9.02093 9.47445,-13.97252 l 4.52555,-3.78289 0,-13.72443 0,-13.72442 -5.82481,-4.24174 c -6.24292,-4.5462 -10.17519,-10.25816 -10.17519,-14.7803 0,-4.36696 3.54714,-10.64611 9.97979,-17.66621 l 5.8984,-6.43706 -0.57583,-11.41315 -0.57583,-11.41315 -4.61327,-4.4412 c -6.77814,-6.52533 -9.11326,-10.03759 -9.11326,-13.70727 0,-2.69814 0.79228,-3.86486 4.59746,-6.77034 7.54869,-5.76385 19.85153,-9.58119 30.87907,-9.58119 6.13007,0 18.73622,3.04757 24.25747,5.8643 6.26125,3.19425 10.266,7.48326 10.266,10.99469 0,2.4242 -1.55167,4.71578 -7.5,11.07634 l -7.5,8.01977 0,10.79728 0,10.79727 5.66221,5.97518 c 7.03339,7.42214 10.81365,15.12506 9.87589,20.12379 -0.73645,3.92558 -6.79023,11.10802 -12.15936,14.42632 l -3.37874,2.08818 0,13.59273 0,13.59273 7.12823,7.35137 c 6.94777,7.16527 7.11417,7.45612 6.57323,11.48914 -0.68056,5.074 -3.25052,8.74234 -7.77254,11.09445 -4.36219,2.26897 -8.82957,1.5836 -15.24537,-2.33887 -4.00387,-2.44788 -5.89188,-2.94467 -11.19098,-2.94467 -3.50599,0 -6.65663,0.45643 -7.0014,1.01429 -0.97546,1.57833 -7.7124,4.75231 -11.53768,5.43576 -2.3596,0.42158 -4.5558,0.0521 -6.93356,-1.16651 z m 33.98007,-35.67655 c 0,-26.46816 0.65406,-24.60699 -8.64753,-24.60699 -9.10958,0 -9.35247,0.33446 -9.35247,12.87818 0,5.9443 0.29415,16.27847 0.65368,22.96482 l 0.65367,12.157 8.34633,0 8.34632,0 0,-23.39301 z m -11.8207,-33.13674 c 2.02361,-0.36647 6.04442,-0.15907 8.93513,0.46087 4.37749,0.9388 5.50301,0.88001 6.7348,-0.35178 1.27756,-1.27756 1.28639,-1.71116 0.0649,-3.18406 -2.1191,-2.55512 -7.29454,-4.39528 -12.36177,-4.39528 -5.27597,0 -12.14106,2.48579 -12.99244,4.70445 -0.84736,2.20819 1.42076,4.51282 3.86588,3.92811 1.14081,-0.27281 3.72988,-0.79585 5.7535,-1.16231 z m 16.63249,-12.73145 c 0.42127,-2.18749 -4.9844,-5.49259 -10.27922,-6.28486 -2.66902,-0.39937 -5.89231,0.0136 -9.53257,1.22133 -4.5728,1.51711 -5.55021,2.25583 -5.79782,4.38194 l -0.29782,2.5572 12.79144,-0.0952 c 11.15403,-0.083 12.83298,-0.3109 13.11599,-1.78045 z m -3.81179,-29.52511 c 0,-15.31992 0.22823,-17.74074 2,-21.21369 2.71923,-5.33013 2.5146,-8.39251 -0.80939,-12.1127 -4.99527,-5.59068 -16.50912,-5.11172 -21.2245,0.88292 -2.503,3.18204 -2.49262,6.77418 0.0339,11.72978 1.76816,3.46815 2.00007,5.89796 2.00065,20.96144 l 6.4e-4,17.03856 8.99936,0.004 8.99935,0.004 0,-17.29336 z m 103.07108,111.03476 c -4.50924,-2.29933 -7.09013,-5.9716 -7.77254,-11.05936 -0.54094,-4.03302 -0.37454,-4.32387 6.57323,-11.48914 l 7.12823,-7.35137 0,-13.59273 0,-13.59273 -3.37874,-2.08818 c -5.00543,-3.09352 -11.30302,-10.3495 -12.0892,-13.92898 -1.29902,-5.91438 3.92753,-15.95225 11.99361,-23.03435 l 3.47433,-3.05051 0,-11.09387 0,-11.09387 -7.5,-7.87336 c -6.09217,-6.39545 -7.5,-8.46692 -7.5,-11.03547 0,-5.85328 8.29711,-11.5878 21.74089,-15.02614 9.59598,-2.45424 16.92849,-2.45264 26.54087,0.006 8.58802,2.19645 12.55818,4.02525 17.96824,8.27686 6.54811,5.14597 5.2147,9.41498 -6.5272,20.89738 l -4.7228,4.61841 0,10.89685 0,10.89685 5.88804,6.18773 c 6.44375,6.77172 10.11196,13.26413 10.11196,17.89729 0,4.27067 -4.33884,10.37511 -10.59716,14.90945 l -5.40284,3.91452 0,13.73047 0,13.73046 4.52555,3.78289 c 9.32601,7.79557 11.50734,13.97783 7.20452,20.41877 -4.93244,7.3834 -12.04748,8.34436 -21.04652,2.84255 -6.42448,-3.92779 -15.14934,-4.18202 -20.00027,-0.58277 -3.28923,2.44051 -8.78192,4.63926 -11.5825,4.63655 -0.88043,-8.6e-4 -3.14379,-0.78836 -5.0297,-1.75 z m 33.92892,-35.64146 c 0,-26.43299 0.63076,-24.60699 -8.5,-24.60699 -9.13076,0 -8.5,-1.826 -8.5,24.60699 l 0,23.39301 8.5,0 8.5,0 0,-23.39301 z m -11,-33.11323 c 1.925,-0.31606 5.75,-0.13636 8.5,0.39932 3.92431,0.76442 5.30422,0.67635 6.4141,-0.40937 1.21879,-1.19228 1.21879,-1.61882 0,-3.08843 -3.60569,-4.34767 -13.64587,-5.68677 -20.89386,-2.7867 -3.00693,1.20313 -4.02024,2.16933 -4.02024,3.83333 0,2.9944 0.92095,3.72324 3.9518,3.12742 1.40151,-0.27551 4.1232,-0.75952 6.0482,-1.07557 z m 15.5,-12.97572 c 0,-1.122 -1.43881,-2.74625 -3.49808,-3.94892 -6.86227,-4.00779 -22.00192,-1.47095 -22.00192,3.6867 l 0,2.35788 12.75,-0.0949 c 11.84042,-0.0881 12.75,-0.23082 12.75,-2.0008 z m -3.5,-29.05307 c 0,-15.06779 0.2317,-17.49654 2,-20.96497 2.75194,-5.39776 2.53611,-8.86843 -0.78244,-12.58254 -6.61266,-7.40085 -23.21756,-3.28335 -23.21756,5.75724 0,1.32274 0.9,4.16912 2,6.3253 1.77163,3.47268 2.00007,5.89455 2.00065,21.21016 l 6.4e-4,17.28984 8.99936,0.004 8.99935,0.004 0,-17.04208 z"
         id="path4239"
         inkscape:connector-curvature="0" />
      <path
         style="fill:#bebebe"
         d="m 663.5571,-593.72284 c -15.77748,-1.84862 -31.99456,-9.83967 -43.47157,-21.42083 -8.17926,-8.2535 -13.48275,-16.85549 -17.29636,-28.05383 l -2.72441,-8 0,-164.5 c 0,-154.10263 0.11153,-164.90373 1.76453,-170.88747 4.10705,-14.86723 13.44862,-28.73503 25.44997,-37.78103 8.21374,-6.1911 14.42266,-9.3796 24.31072,-12.4844 l 7.47478,-2.3471 120,0 120,0 7.5,2.3419 c 24.73288,7.7228 42.16968,25.1573 49.66457,49.6581 1.74891,5.71718 1.83543,13.77762 1.83543,171 l 0,165 -2.72441,8 c -3.88894,11.41952 -9.16785,19.87769 -17.78288,28.49271 -12.19044,12.19045 -26.56018,18.99455 -44.49271,21.06738 -9.52769,1.10132 -220.04789,1.02295 -229.50766,-0.0854 z m 242.50766,-7.19907 c 17.92254,-6.10355 32.92605,-18.67988 40.33452,-33.80944 7.71392,-15.75337 7.16548,-1.82724 7.16548,-181.94635 0,-160.32918 -0.0158,-161.61693 -2.07081,-169.03278 -5.2233,-18.84892 -18.06926,-33.87242 -36.42919,-42.60432 -15.38417,-7.3166 -6.80965,-6.8827 -136,-6.8827 -108.03649,0 -116.44623,0.122 -122.5,1.7768 -20.28139,5.5439 -36.81677,18.6997 -45.41915,36.1361 -6.95894,14.10529 -6.5497,2.81042 -6.56607,181.2238 l -0.0148,161.1367 2.2812,7.87594 c 7.03432,24.28637 26.53212,42.1644 52.2188,47.88076 4.84263,1.07769 28.47217,1.30002 122.5,1.15258 l 116.5,-0.18268 8,-2.72441 z m -222.66811,-50.42484 c -3.29924,-2.12019 -6.83189,-8.22135 -6.83189,-11.79922 0,-1.96531 1.85935,-4.57649 7,-9.83043 l 7,-7.15428 0,-13.60396 0,-13.60397 -6.3386,-5.07944 c -6.12386,-4.90736 -9.6614,-10.02771 -9.6614,-13.98423 0,-3.60417 5.02208,-11.96787 10.5047,-17.49439 l 5.4953,-5.5393 0,-11.5407 0,-11.54071 -6.9583,-6.99983 c -10.12998,-10.19044 -10.4366,-13.60849 -1.75492,-19.56299 8.97332,-6.15453 15.5418,-7.98006 28.71322,-7.98006 13.05713,0 19.50328,1.76995 28.73021,7.88861 8.73393,5.79172 8.39262,9.42924 -1.85172,19.73472 l -6.87849,6.91955 0,11.43139 0,11.4314 5.65759,5.72854 c 6.71083,6.795 10.85564,14.9124 9.9434,19.47362 -0.83573,4.17865 -4.5201,8.79115 -10.56902,13.23146 l -5.03197,3.69381 0,13.54866 0,13.54867 7,7.36918 c 7.62461,8.02673 8.25259,9.92126 5.33004,16.08008 -3.61708,7.62243 -12.50062,9.46329 -20.66899,4.28307 -4.10047,-2.60044 -5.66707,-3 -11.7625,-3 -6.08191,0 -7.5056,0.36124 -10.53741,2.67371 -4.48616,3.42176 -12.54235,4.23913 -16.52925,1.67704 z m 35.16811,-35.27879 0,-23.92805 -5.25,-0.60552 c -2.8875,-0.33304 -6.6,-0.22079 -8.25,0.24945 l -3,0.85498 -0.2681,23.67859 -0.2681,23.67859 8.5181,0 8.5181,0 0,-23.92804 z m 4.80471,-34.2952 c 0.5791,-3.00918 -5.4376,-5.76877 -12.58683,-5.77302 -8.16145,-0.005 -13.21788,2.03092 -13.21788,5.32166 l 0,2.42746 12.73654,-0.12643 c 11.19978,-0.11118 12.77656,-0.33435 13.06817,-1.84967 z m -0.26094,-9.98719 c 1.59653,-1.59654 -0.95449,-4.78101 -5.09744,-6.36322 -7.92482,-3.02651 -19.66303,-0.33711 -20.24415,4.63825 l -0.29782,2.54981 12.50028,-0.093 c 6.87515,-0.0512 12.78776,-0.38048 13.13913,-0.73184 z m -3.54377,-30.32813 c 0,-15.06426 0.23174,-17.49311 2,-20.96144 2.91128,-5.71031 2.61713,-10.03671 -0.92308,-13.57692 -2.59628,-2.59629 -3.60981,-2.92308 -9.06574,-2.92308 -3.37846,0 -7.12558,0.50267 -8.32692,1.11704 -5.76275,2.94709 -7.12487,8.6344 -3.68426,15.38296 1.76826,3.46833 2,5.89718 2,20.96144 l 0,17.03856 9,0 9,0 0,-17.03856 z m 100.59585,108.48858 c -4.47607,-3.93005 -6.24623,-8.96566 -4.57228,-13.00692 0.66962,-1.61661 4.08825,-5.62475 7.59696,-8.90697 l 6.37947,-5.96768 0,-13.29596 0,-13.29596 -6.34443,-4.60117 c -13.39697,-9.71589 -13.31998,-19.06064 0.26643,-32.33777 l 5.078,-4.96241 0,-11.97718 0,-11.97718 -5.01088,-4.63087 c -6.39856,-5.91332 -9.98912,-10.79025 -9.98912,-13.56787 0,-1.29657 1.68317,-3.71 4.1276,-5.91839 15.41064,-13.92259 47.61137,-13.75963 62.68067,0.31721 5.26725,4.92035 3.97463,9.3638 -5.21099,17.91304 l -5.59728,5.2095 0,12.30083 0,12.30084 5.49806,5.9077 c 12.67088,13.61498 12.29042,21.92552 -1.46609,32.02372 l -5.03197,3.69381 0,13.58912 0,13.58912 7,7.21913 c 7.63086,7.86974 8.30455,9.88089 5.37671,16.05085 -3.74765,7.89759 -12.31424,9.70946 -20.71566,4.38144 -4.14939,-2.63147 -5.63253,-3 -12.07333,-3 -5.61289,0 -7.66617,0.38989 -8.71528,1.6549 -2.00814,2.42143 -7.23469,4.3451 -11.80553,4.3451 -3.03006,0 -4.83788,-0.73802 -7.47106,-3.04998 z m 36.87579,-25.20002 c 0.37521,-8.3875 0.53509,-19.07185 0.35528,-23.743 l -0.32692,-8.49301 -4.72891,-0.86132 c -2.70191,-0.49213 -6.34535,-0.47927 -8.5,0.03 l -3.77109,0.8913 -0.2681,23.71302 -0.2681,23.71301 8.41282,0 8.41281,0 0.68221,-15.25 z m 4.52836,-42.91987 c 0,-3.20398 -5.74393,-5.8222 -12.78212,-5.82639 -8.12537,-0.005 -13.21788,2.03329 -13.21788,5.29006 l 0,2.39586 13,0 c 12.00598,0 13,-0.14219 13,-1.85953 z m -6e-5,-11.63636 c 9e-5,-3.52345 -7.66292,-6.61157 -14.62358,-5.89317 -7.17169,0.74019 -10.80535,2.60723 -11.1719,5.74034 l -0.29553,2.52616 13.04547,-0.0335 c 12.94651,-0.0333 13.04548,-0.051 13.04554,-2.33978 z m -3.99994,-28.48361 c 0,-14.81639 0.23508,-17.25062 2,-20.71016 2.946,-5.77464 2.6349,-10.51895 -0.92308,-14.07692 -2.59936,-2.59937 -3.60666,-2.92308 -9.0957,-2.92308 -11.9856,0 -16.83797,6.47998 -11.98122,16 1.77172,3.47286 2,5.89377 2,21.21016 l 0,17.28984 9,0 9,0 0,-16.78984 z m -173.92891,-65.46171 c -4.4997,-2.29446 -7.08989,-5.96975 -7.76747,-11.02148 -0.53501,-3.9888 -0.35693,-4.29712 6.57323,-11.38001 l 7.12315,-7.28014 0,-13.64741 0,-13.64741 -4.0174,-2.78406 c -5.96541,-4.13403 -10.78537,-9.91969 -11.51818,-13.82589 -0.94183,-5.0204 2.32131,-11.57062 9.47595,-19.02144 l 6.00692,-6.25558 -0.59308,-11.94251 -0.59308,-11.94252 -5.7676,-6 c -9.44875,-9.8295 -10.01747,-12.43877 -3.9132,-17.95361 9.73017,-8.79062 27.64902,-12.58468 42.68883,-9.03875 11.1429,2.62717 23.23084,10.29069 23.23084,14.72792 0,3.03615 -3.21522,7.64866 -9.43298,13.53243 l -5.56702,5.26799 0,11.64708 0,11.64708 6.03327,6.28302 c 12.9731,13.51013 12.7127,21.79637 -1.0013,31.86337 l -5.03197,3.69381 0,13.98848 0,13.98848 5.5497,5.07211 c 6.84947,6.26003 8.84539,9.86106 7.99072,14.41682 -0.79456,4.23535 -6.36221,9.94608 -10.60554,10.87807 -2.54165,0.55824 -4.61968,-0.0288 -10.3091,-2.91205 -5.96906,-3.02501 -8.15749,-3.61049 -13.48142,-3.60673 -5.29006,0.004 -6.84612,0.41719 -9.28106,2.46605 -2.57406,2.16593 -8.47666,4.51969 -11.3633,4.5313 -0.55,0.002 -2.54301,-0.78278 -4.42891,-1.74442 z m 33.69701,-35.99845 -0.2681,-23.75 -5.5,-0.31263 c -3.025,-0.17195 -6.9625,-0.0391 -8.75,0.29531 l -3.25,0.60795 0,11.29768 c 0,6.21373 0.29415,16.76834 0.65368,23.45469 l 0.65367,12.157 8.36443,0 8.36442,0 -0.2681,-23.75 z m -12.81732,-32.33286 c 3.65574,-0.78402 6.48021,-0.77598 10.23436,0.0291 4.16138,0.89246 5.452,0.84516 6.53674,-0.23959 3.30618,-3.30618 -3.19814,-7.71052 -11.37301,-7.70111 -9.76921,0.0112 -16.42107,3.79265 -13.29582,7.55834 1.42821,1.72089 1.50454,1.72431 7.89773,0.35322 z m 17.81959,-12.72826 c 1.26419,-3.79257 -8.70398,-7.87277 -16.19506,-6.62902 -6.1354,1.01868 -9.57531,3.10501 -9.57531,5.80752 0,2.30447 0.0632,2.31554 12.66775,2.22106 9.461,-0.0709 12.77784,-0.42521 13.10262,-1.39956 z m -3.77037,-29.32968 c 0,-14.44334 0.2612,-17.21643 1.97804,-21 2.36332,-5.2083 2.50667,-8.0212 0.59696,-11.71417 -1.788,-3.45761 -5.41436,-5.14503 -11.05695,-5.14503 -11.63608,0 -16.51621,7.2028 -11.51805,17 1.76492,3.45954 2,5.89377 2,20.71016 l 0,16.78984 9,0 9,0 0,-16.6408 z m 105.20832,111.42961 c -3.42673,-0.65619 -9.01999,-6.76801 -9.74874,-10.65258 -0.85467,-4.55576 1.14125,-8.15679 7.99072,-14.41682 l 5.5497,-5.07211 0,-13.98848 0,-13.98848 -5.03197,-3.69381 c -13.714,-10.067 -13.9744,-18.35324 -1.0013,-31.86337 l 6.03327,-6.28302 0,-11.46413 0,-11.46413 -6.92569,-6.98078 c -6.96676,-7.02217 -9.209,-11.37441 -7.3806,-14.32588 2.05908,-3.32383 10.84353,-8.99092 17.19946,-11.09585 17.02006,-5.63663 38.11635,-2.06733 48.85683,8.26613 5.233,5.03469 4.13056,8.57144 -5.67414,18.2032 l -6.07586,5.96869 0,11.44638 0,11.44637 6.03327,6.28302 c 13.13775,13.68161 12.67372,22.61218 -1.68839,32.49356 l -4.34488,2.98936 0,13.84851 0,13.84851 7.12833,7.12834 c 6.90692,6.90691 7.11162,7.25296 6.59014,11.14088 -0.72776,5.42581 -4.84568,10.5959 -9.56595,12.01013 -3.28171,0.98322 -4.49101,0.83753 -8.94223,-1.07733 -2.83103,-1.21788 -5.66659,-2.84 -6.30125,-3.60472 -0.78931,-0.95107 -3.42368,-1.3904 -8.33721,-1.3904 -6.09997,0 -7.69646,0.37862 -10.58621,2.51061 -2.93687,2.16676 -9.45667,4.74701 -10.98562,4.34763 -0.275,-0.0718 -1.53126,-0.32808 -2.79168,-0.56943 z m 31.55978,-37.03881 -0.2681,-23.75 -5.95833,-0.30612 c -3.27708,-0.16837 -6.98958,-0.0473 -8.25,0.26905 l -2.29167,0.57517 0,23.48095 0,23.48095 8.5181,0 8.5181,0 -0.2681,-23.75 z m -12.84567,-32.32678 c 3.68151,-0.78955 6.52412,-0.76471 10.65613,0.0931 6.28152,1.30404 8.04905,0.53649 6.92442,-3.00694 -0.93625,-2.94984 -6.28958,-5.02592 -12.72086,-4.93329 -9.38355,0.13515 -14.12045,2.9939 -12.39808,7.48233 0.66259,1.72667 1.09146,1.74743 7.53839,0.36481 z m 18.07757,-12.95789 c 0,-2.42429 -2.90793,-4.62159 -7.86262,-5.94117 -7.75845,-2.06631 -18.13738,0.97335 -18.13738,5.31186 0,2.2624 0.12674,2.28467 13,2.28467 11.43114,0 13,-0.19977 13,-1.65536 z m -4,-29.25517 c 0,-14.81639 0.23508,-17.25062 2,-20.71016 4.97432,-9.75047 0.47568,-17 -10.54921,-17 -11.34268,0 -16.25454,7.07773 -11.45079,16.5 1.76826,3.46833 2,5.89718 2,20.96144 l 0,17.03856 9,0 9,0 0,-16.78984 z"
         id="path4237"
         inkscape:connector-curvature="0" />
      <path
         style="fill:#868f85"
         d="m 663.75762,-593.7518 c -17.10136,-2.26947 -29.99075,-8.71769 -42.8077,-21.41555 -7.79084,-7.71846 -9.7849,-10.41009 -13.72784,-18.53015 -8.24036,-16.97013 -7.75365,-4.76549 -7.43745,-186.5 l 0.28013,-161 2.61732,-7.66665 c 5.4995,-16.10915 15.60916,-29.54555 28.74592,-38.20525 8.51037,-5.6101 14.68458,-8.2881 24.63676,-10.6863 7.66124,-1.8462 12.86964,-1.9278 123,-1.9278 109.95099,0 115.35124,0.084 123,1.9197 10.20501,2.4488 16.16732,5.0267 24.61611,10.6435 10.13668,6.7388 19.19468,17.085 24.40741,27.87857 8.03369,16.63462 7.57185,4.76208 7.25658,186.54423 l -0.2801,161.5 -2.93246,8.4012 c -7.85853,22.51386 -27.4866,40.64149 -51.28082,47.36073 l -7.78672,2.19889 -113,0.16094 c -62.15,0.0885 -115.83821,-0.21571 -119.30714,-0.67606 z m 235.80566,-5.44539 c 25.9298,-5.4545 46.68113,-25.06976 52.46056,-49.58851 1.31545,-5.58066 1.51327,-27.35167 1.52614,-167.9517 0.0165,-180.05001 0.55983,-166.17926 -7.12453,-181.87343 -3.17433,-6.48307 -5.86778,-10.15387 -11.74006,-15.99997 -11.57367,-11.5221 -23.95292,-17.7705 -39.72268,-20.05 -9.31766,-1.3468 -222.47825,-1.3468 -231.7959,0 -15.71557,2.2716 -28.01151,8.4697 -39.67088,19.9971 -5.92184,5.8549 -8.54399,9.4207 -11.76569,16.00005 -7.71481,15.75517 -7.16718,1.82258 -7.1507,181.92625 0.0164,179.30899 -0.42444,167.42275 6.7516,182.0399 2.75256,5.60679 5.83415,9.67406 12.20781,16.1126 7.15273,7.22554 10.05578,9.3612 18.02581,13.26085 5.225,2.55654 12.425,5.27319 16,6.03699 10.08971,2.15569 231.7866,2.23802 241.99852,0.0899 z m -216.16663,-52.14956 c -3.29924,-2.12019 -6.83189,-8.22135 -6.83189,-11.79922 0,-1.96531 1.85935,-4.57649 7,-9.83043 l 7,-7.15428 0,-13.60396 0,-13.60397 -6.3386,-5.07944 c -6.12386,-4.90736 -9.6614,-10.02771 -9.6614,-13.98423 0,-3.60417 5.02208,-11.96787 10.5047,-17.49439 l 5.4953,-5.5393 0,-11.5407 0,-11.54071 -6.9583,-6.99983 c -10.12998,-10.19044 -10.4366,-13.60849 -1.75492,-19.56299 8.97332,-6.15453 15.5418,-7.98006 28.71322,-7.98006 13.05713,0 19.50328,1.76995 28.73021,7.88861 8.73393,5.79172 8.39262,9.42924 -1.85172,19.73472 l -6.87849,6.91955 0,11.43139 0,11.4314 5.65759,5.72854 c 6.71083,6.795 10.85564,14.9124 9.9434,19.47362 -0.83573,4.17865 -4.5201,8.79115 -10.56902,13.23146 l -5.03197,3.69381 0,13.54866 0,13.54867 7,7.36918 c 7.62461,8.02673 8.25259,9.92126 5.33004,16.08008 -3.61708,7.62243 -12.50062,9.46329 -20.66899,4.28307 -4.10047,-2.60044 -5.66707,-3 -11.7625,-3 -6.08191,0 -7.5056,0.36124 -10.53741,2.67371 -4.48616,3.42176 -12.54235,4.23913 -16.52925,1.67704 z m 35.16811,-35.27879 0,-23.92805 -5.25,-0.60552 c -2.8875,-0.33304 -6.6,-0.22079 -8.25,0.24945 l -3,0.85498 -0.2681,23.67859 -0.2681,23.67859 8.5181,0 8.5181,0 0,-23.92804 z m 4.80471,-34.2952 c 0.5791,-3.00918 -5.4376,-5.76877 -12.58683,-5.77302 -8.16145,-0.005 -13.21788,2.03092 -13.21788,5.32166 l 0,2.42746 12.73654,-0.12643 c 11.19978,-0.11118 12.77656,-0.33435 13.06817,-1.84967 z m -0.26094,-9.98719 c 1.59653,-1.59654 -0.95449,-4.78101 -5.09744,-6.36322 -7.92482,-3.02651 -19.66303,-0.33711 -20.24415,4.63825 l -0.29782,2.54981 12.50028,-0.093 c 6.87515,-0.0512 12.78776,-0.38048 13.13913,-0.73184 z m -3.54377,-30.32813 c 0,-15.06426 0.23174,-17.49311 2,-20.96144 2.91128,-5.71031 2.61713,-10.03671 -0.92308,-13.57692 -2.59628,-2.59629 -3.60981,-2.92308 -9.06574,-2.92308 -3.37846,0 -7.12558,0.50267 -8.32692,1.11704 -5.76275,2.94709 -7.12487,8.6344 -3.68426,15.38296 1.76826,3.46833 2,5.89718 2,20.96144 l 0,17.03856 9,0 9,0 0,-17.03856 z m 100.59585,108.48858 c -4.47607,-3.93005 -6.24623,-8.96566 -4.57228,-13.00692 0.66962,-1.61661 4.08825,-5.62475 7.59696,-8.90697 l 6.37947,-5.96768 0,-13.29596 0,-13.29596 -6.34443,-4.60117 c -13.39697,-9.71589 -13.31998,-19.06064 0.26643,-32.33777 l 5.078,-4.96241 0,-11.97718 0,-11.97718 -5.01088,-4.63087 c -6.39856,-5.91332 -9.98912,-10.79025 -9.98912,-13.56787 0,-1.29657 1.68317,-3.71 4.1276,-5.91839 15.41064,-13.92259 47.61137,-13.75963 62.68067,0.31721 5.26725,4.92035 3.97463,9.3638 -5.21099,17.91304 l -5.59728,5.2095 0,12.30083 0,12.30084 5.49806,5.9077 c 12.67088,13.61498 12.29042,21.92552 -1.46609,32.02372 l -5.03197,3.69381 0,13.58912 0,13.58912 7,7.21913 c 7.63086,7.86974 8.30455,9.88089 5.37671,16.05085 -3.74765,7.89759 -12.31424,9.70946 -20.71566,4.38144 -4.14939,-2.63147 -5.63253,-3 -12.07333,-3 -5.61289,0 -7.66617,0.38989 -8.71528,1.6549 -2.00814,2.42143 -7.23469,4.3451 -11.80553,4.3451 -3.03006,0 -4.83788,-0.73802 -7.47106,-3.04998 z m 36.87579,-25.20002 c 0.37521,-8.3875 0.53509,-19.07185 0.35528,-23.743 l -0.32692,-8.49301 -4.72891,-0.86132 c -2.70191,-0.49213 -6.34535,-0.47927 -8.5,0.03 l -3.77109,0.8913 -0.2681,23.71302 -0.2681,23.71301 8.41282,0 8.41281,0 0.68221,-15.25 z m 4.52836,-42.91987 c 0,-3.20398 -5.74393,-5.8222 -12.78212,-5.82639 -8.12537,-0.005 -13.21788,2.03329 -13.21788,5.29006 l 0,2.39586 13,0 c 12.00598,0 13,-0.14219 13,-1.85953 z m -6e-5,-11.63636 c 9e-5,-3.52345 -7.66292,-6.61157 -14.62358,-5.89317 -7.17169,0.74019 -10.80535,2.60723 -11.1719,5.74034 l -0.29553,2.52616 13.04547,-0.0335 c 12.94651,-0.0333 13.04548,-0.051 13.04554,-2.33978 z m -3.99994,-28.48361 c 0,-14.81639 0.23508,-17.25062 2,-20.71016 2.946,-5.77464 2.6349,-10.51895 -0.92308,-14.07692 -2.59936,-2.59937 -3.60666,-2.92308 -9.0957,-2.92308 -11.9856,0 -16.83797,6.47998 -11.98122,16 1.77172,3.47286 2,5.89377 2,21.21016 l 0,17.28984 9,0 9,0 0,-16.78984 z m -173.92891,-65.46171 c -4.4997,-2.29446 -7.08989,-5.96975 -7.76747,-11.02148 -0.53501,-3.9888 -0.35693,-4.29712 6.57323,-11.38001 l 7.12315,-7.28014 0,-13.64741 0,-13.64741 -4.0174,-2.78406 c -5.96541,-4.13403 -10.78537,-9.91969 -11.51818,-13.82589 -0.94183,-5.0204 2.32131,-11.57062 9.47595,-19.02144 l 6.00692,-6.25558 -0.59308,-11.94251 -0.59308,-11.94252 -5.7676,-6 c -9.44875,-9.8295 -10.01747,-12.43877 -3.9132,-17.95361 9.73017,-8.79062 27.64902,-12.58468 42.68883,-9.03875 11.1429,2.62717 23.23084,10.29069 23.23084,14.72792 0,3.03615 -3.21522,7.64866 -9.43298,13.53243 l -5.56702,5.26799 0,11.64708 0,11.64708 6.03327,6.28302 c 12.9731,13.51013 12.7127,21.79637 -1.0013,31.86337 l -5.03197,3.69381 0,13.98848 0,13.98848 5.5497,5.07211 c 6.84947,6.26003 8.84539,9.86106 7.99072,14.41682 -0.79456,4.23535 -6.36221,9.94608 -10.60554,10.87807 -2.54165,0.55824 -4.61968,-0.0288 -10.3091,-2.91205 -5.96906,-3.02501 -8.15749,-3.61049 -13.48142,-3.60673 -5.29006,0.004 -6.84612,0.41719 -9.28106,2.46605 -2.57406,2.16593 -8.47666,4.51969 -11.3633,4.5313 -0.55,0.002 -2.54301,-0.78278 -4.42891,-1.74442 z m 33.69701,-35.99845 -0.2681,-23.75 -5.5,-0.31263 c -3.025,-0.17195 -6.9625,-0.0391 -8.75,0.29531 l -3.25,0.60795 0,11.29768 c 0,6.21373 0.29415,16.76834 0.65368,23.45469 l 0.65367,12.157 8.36443,0 8.36442,0 -0.2681,-23.75 z m -12.81732,-32.33286 c 3.65574,-0.78402 6.48021,-0.77598 10.23436,0.0291 4.16138,0.89246 5.452,0.84516 6.53674,-0.23959 3.30618,-3.30618 -3.19814,-7.71052 -11.37301,-7.70111 -9.76921,0.0112 -16.42107,3.79265 -13.29582,7.55834 1.42821,1.72089 1.50454,1.72431 7.89773,0.35322 z m 17.81959,-12.72826 c 1.26419,-3.79257 -8.70398,-7.87277 -16.19506,-6.62902 -6.1354,1.01868 -9.57531,3.10501 -9.57531,5.80752 0,2.30447 0.0632,2.31554 12.66775,2.22106 9.461,-0.0709 12.77784,-0.42521 13.10262,-1.39956 z m -3.77037,-29.32968 c 0,-14.44334 0.2612,-17.21643 1.97804,-21 2.36332,-5.2083 2.50667,-8.0212 0.59696,-11.71417 -1.788,-3.45761 -5.41436,-5.14503 -11.05695,-5.14503 -11.63608,0 -16.51621,7.2028 -11.51805,17 1.76492,3.45954 2,5.89377 2,20.71016 l 0,16.78984 9,0 9,0 0,-16.6408 z m 105.20832,111.42961 c -3.42673,-0.65619 -9.01999,-6.76801 -9.74874,-10.65258 -0.85467,-4.55576 1.14125,-8.15679 7.99072,-14.41682 l 5.5497,-5.07211 0,-13.98848 0,-13.98848 -5.03197,-3.69381 c -13.714,-10.067 -13.9744,-18.35324 -1.0013,-31.86337 l 6.03327,-6.28302 0,-11.46413 0,-11.46413 -6.92569,-6.98078 c -6.96676,-7.02217 -9.209,-11.37441 -7.3806,-14.32588 2.05908,-3.32383 10.84353,-8.99092 17.19946,-11.09585 17.02006,-5.63663 38.11635,-2.06733 48.85683,8.26613 5.233,5.03469 4.13056,8.57144 -5.67414,18.2032 l -6.07586,5.96869 0,11.44638 0,11.44637 6.03327,6.28302 c 13.13775,13.68161 12.67372,22.61218 -1.68839,32.49356 l -4.34488,2.98936 0,13.84851 0,13.84851 7.12833,7.12834 c 6.90692,6.90691 7.11162,7.25296 6.59014,11.14088 -0.72776,5.42581 -4.84568,10.5959 -9.56595,12.01013 -3.28171,0.98322 -4.49101,0.83753 -8.94223,-1.07733 -2.83103,-1.21788 -5.66659,-2.84 -6.30125,-3.60472 -0.78931,-0.95107 -3.42368,-1.3904 -8.33721,-1.3904 -6.09997,0 -7.69646,0.37862 -10.58621,2.51061 -2.93687,2.16676 -9.45667,4.74701 -10.98562,4.34763 -0.275,-0.0718 -1.53126,-0.32808 -2.79168,-0.56943 z m 31.55978,-37.03881 -0.2681,-23.75 -5.95833,-0.30612 c -3.27708,-0.16837 -6.98958,-0.0473 -8.25,0.26905 l -2.29167,0.57517 0,23.48095 0,23.48095 8.5181,0 8.5181,0 -0.2681,-23.75 z m -12.84567,-32.32678 c 3.68151,-0.78955 6.52412,-0.76471 10.65613,0.0931 6.28152,1.30404 8.04905,0.53649 6.92442,-3.00694 -0.93625,-2.94984 -6.28958,-5.02592 -12.72086,-4.93329 -9.38355,0.13515 -14.12045,2.9939 -12.39808,7.48233 0.66259,1.72667 1.09146,1.74743 7.53839,0.36481 z m 18.07757,-12.95789 c 0,-2.42429 -2.90793,-4.62159 -7.86262,-5.94117 -7.75845,-2.06631 -18.13738,0.97335 -18.13738,5.31186 0,2.2624 0.12674,2.28467 13,2.28467 11.43114,0 13,-0.19977 13,-1.65536 z m -4,-29.25517 c 0,-14.81639 0.23508,-17.25062 2,-20.71016 4.97432,-9.75047 0.47568,-17 -10.54921,-17 -11.34268,0 -16.25454,7.07773 -11.45079,16.5 1.76826,3.46833 2,5.89718 2,20.96144 l 0,17.03856 9,0 9,0 0,-16.78984 z"
         id="path4235"
         inkscape:connector-curvature="0" />
      <path
         style="fill:#7f7f7f"
         d="m 663.75762,-593.7518 c -17.10136,-2.26947 -29.99075,-8.71769 -42.8077,-21.41555 -7.79084,-7.71846 -9.7849,-10.41009 -13.72784,-18.53015 -8.24036,-16.97013 -7.75365,-4.76549 -7.43745,-186.5 l 0.28013,-161 2.61732,-7.66665 c 5.4995,-16.10915 15.60916,-29.54555 28.74592,-38.20525 8.51037,-5.6101 14.68458,-8.2881 24.63676,-10.6863 7.66124,-1.8462 12.86964,-1.9278 123,-1.9278 109.95099,0 115.35124,0.084 123,1.9197 10.20501,2.4488 16.16732,5.0267 24.61611,10.6435 10.13668,6.7388 19.19468,17.085 24.40741,27.87857 8.03369,16.63462 7.57185,4.76208 7.25658,186.54423 l -0.2801,161.5 -2.93246,8.4012 c -7.85853,22.51386 -27.4866,40.64149 -51.28082,47.36073 l -7.78672,2.19889 -113,0.16094 c -62.15,0.0885 -115.83821,-0.21571 -119.30714,-0.67606 z m 235.80566,-5.44539 c 25.9298,-5.4545 46.68113,-25.06976 52.46056,-49.58851 1.31545,-5.58066 1.51327,-27.35167 1.52614,-167.9517 0.0165,-180.05001 0.55983,-166.17926 -7.12453,-181.87343 -3.17433,-6.48307 -5.86778,-10.15387 -11.74006,-15.99997 -11.57367,-11.5221 -23.95292,-17.7705 -39.72268,-20.05 -9.31766,-1.3468 -222.47825,-1.3468 -231.7959,0 -15.71557,2.2716 -28.01151,8.4697 -39.67088,19.9971 -5.92184,5.8549 -8.54399,9.4207 -11.76569,16.00005 -7.71481,15.75517 -7.16718,1.82258 -7.1507,181.92625 0.0164,179.30899 -0.42444,167.42275 6.7516,182.0399 2.75256,5.60679 5.83415,9.67406 12.20781,16.1126 7.15273,7.22554 10.05578,9.3612 18.02581,13.26085 5.225,2.55654 12.425,5.27319 16,6.03699 10.08971,2.15569 231.7866,2.23802 241.99852,0.0899 z m -215.54986,-52.05177 c -4.05586,-2.00168 -6.44866,-6.29282 -6.44866,-11.56475 0,-4.01429 0.47667,-4.77402 7,-11.15668 l 7,-6.84905 0,-13.27281 0,-13.27281 -5.58778,-3.84846 c -13.60478,-9.36996 -13.90236,-19.63772 -0.94242,-32.51647 l 5.50199,-5.46751 0.0141,-11.9401 0.0141,-11.9401 -5.40819,-5.0599 c -5.62881,-5.26632 -9.58166,-10.90346 -9.58807,-13.67354 -0.0109,-4.72859 12.61085,-11.90969 25.63345,-14.58398 6.4504,-1.32465 9.21434,-1.41969 15.38673,-0.52909 9.02121,1.30165 17.02926,4.16431 23.33688,8.3423 7.89369,5.22857 7.24431,9.61119 -2.90605,19.61283 l -6.45475,6.36017 0,11.53465 0,11.53465 4.67665,4.67106 c 13.92217,13.90552 13.89546,24.02366 -0.0889,33.65503 l -5.58775,3.84846 0,13.27281 0,13.27281 7,6.84905 c 6.52333,6.38266 7,7.14239 7,11.15668 0,7.44921 -5.15774,13.11621 -11.93754,13.11621 -3.14107,0 -12.37245,-4.07453 -13.55071,-5.98098 -0.34638,-0.56046 -3.69813,-1.01902 -7.44832,-1.01902 -5.13215,0 -7.15798,0.41018 -8.19099,1.65848 -1.94553,2.351 -8.82863,5.29774 -12.37244,5.29679 -1.65,-4.5e-4 -4.3731,-0.67847 -6.05134,-1.50673 z m 35.31948,-34.71639 0.26814,-23.76786 -2.58324,-0.98214 c -3.31173,-1.25912 -10.58485,-1.26273 -13.88794,-0.007 l -2.5651,0.97535 0,23.46139 0,23.46139 3.25,0.42393 c 1.7875,0.23317 5.95,0.37418 9.25,0.31336 l 6,-0.11057 0.26814,-23.76785 z m 4.06951,-34.12855 c 0.5099,-2.64636 -2.40879,-5.2236 -7.54386,-6.66134 -7.97708,-2.23344 -19.29379,1.31285 -19.29379,6.04606 0,0.92309 0.19755,1.8759 0.43901,2.11736 0.24145,0.24145 6.20395,0.39655 13.25,0.34466 11.36853,-0.0837 12.84901,-0.29165 13.14864,-1.84674 z m -9.83765,-10.08275 c 9.33455,-0.0205 9.5,-0.0623 9.5,-2.40215 0,-7.54821 -21.52078,-8.22071 -25.92511,-0.81013 -1.42023,2.38962 1.84633,5.04901 4.87265,3.96697 1.12885,-0.40362 6.32746,-0.74323 11.55246,-0.75469 z m 7,-31.45275 c 0,-15.72678 0.23779,-18.35143 2.02963,-22.40218 1.85104,-4.18458 1.90238,-4.89287 0.58353,-8.04934 -2.73727,-6.55119 -10.34108,-9.13791 -18.12405,-6.16557 -2.47085,0.94363 -5.16671,2.67831 -5.99079,3.85484 -1.87719,2.68007 -1.87637,8.40885 0.002,11.69415 1.09218,1.91058 1.43747,6.83021 1.46455,20.8665 l 0.0354,18.36649 6.25,-0.63414 c 3.4375,-0.34877 7.59999,-0.2401 9.25,0.24151 1.64999,0.48161 3.33749,0.68799 3.75,0.45863 0.41249,-0.22936 0.75,-8.43326 0.75,-18.23089 z m 102.41844,110.96305 c -4.15539,-1.68103 -7.41844,-6.84414 -7.41844,-11.73816 0,-4.31619 0.36488,-4.91198 7,-11.4297 l 7,-6.87615 0,-13.26777 0,-13.26776 -6.01297,-4.37876 c -13.23119,-9.6352 -13.44289,-18.09834 -0.79102,-31.62323 l 5.80399,-6.20448 0,-11.82161 0,-11.82161 -5.25,-4.92126 c -6.68652,-6.26782 -8.73518,-9.39392 -8.74341,-13.34177 -0.0121,-5.80818 10.30744,-12.09482 24.70861,-15.05242 6.39744,-1.31386 9.14099,-1.40308 15.39471,-0.50065 13.84051,1.99724 27.14191,8.38502 28.46877,13.67165 0.90174,3.59282 -2.00287,8.61896 -8.62408,14.92308 l -5.9546,5.66944 3e-5,11.725 3e-5,11.72501 3.3838,2.69994 c 1.86109,1.48496 5.23607,5.47374 7.49997,8.86395 4.56991,6.84349 5.40702,12.53921 2.63169,17.90611 -1.49379,2.88866 -8.08552,8.76426 -12.26552,10.93299 -2.16456,1.12305 -2.25,1.67997 -2.25,14.66642 l 0,13.49904 6.37947,5.96768 c 8.2755,7.74132 9.45704,10.48498 7.13438,16.56679 -1.96455,5.14408 -6.23303,8.39318 -11.01385,8.38357 -3.21237,-0.006 -12.80779,-4.05746 -13.93648,-5.88371 -0.38889,-0.62925 -3.60944,-1.10278 -7.50009,-1.10278 -5.13215,0 -7.15798,0.41018 -8.19099,1.65848 -3.35718,4.05686 -12.54489,6.35861 -17.454,4.37267 z m 34.3497,-35.299 0.26814,-23.76786 -2.58324,-0.98214 c -3.50493,-1.33258 -10.79506,-1.23907 -13.90599,0.17837 l -2.54705,1.16051 0,23.27613 0,23.27612 3.25,0.42393 c 1.7875,0.23317 5.95,0.37418 9.25,0.31336 l 6,-0.11057 0.26814,-23.76785 z m 3.73186,-34.68023 c 0,-1.39875 -1.13283,-3.18186 -2.82333,-4.444 -5.43464,-4.05754 -21.42568,-2.03153 -23.33999,2.9571 -1.24438,3.24279 1.22751,3.93619 13.8282,3.87898 12.244,-0.0556 12.33512,-0.0733 12.33512,-2.39208 z m -8.83975,-9.34686 c 10.36156,0.23196 12.17895,-0.95677 7.9414,-5.19432 -5.54579,-5.54579 -23.26586,-4.01811 -25.33324,2.18403 -0.71389,2.14166 2.7314,4.34765 5.55392,3.55613 1.47272,-0.413 6.79978,-0.65862 11.83792,-0.54584 z m 6.33975,-31.93718 c 0,-14.79872 0.27753,-18.2618 1.62873,-20.32401 0.89581,-1.36717 1.67681,-4.31905 1.73556,-6.55975 0.0889,-3.38878 -0.42993,-4.55357 -3.08451,-6.92544 -3.94256,-3.52268 -9.1687,-4.60814 -14.49845,-3.01131 -8.18447,2.45213 -11.00485,8.96433 -7.08203,16.35229 1.45057,2.73191 1.65588,5.77637 1.4027,20.8001 l -0.2966,17.59976 10.0973,-0.0467 10.0973,-0.0467 0,-17.83825 z M 682.3399,-827.2563 c -2.90782,-1.57802 -4.47544,-3.90939 -5.84899,-8.6987 -1.27172,-4.43424 0.90633,-8.51815 7.93543,-14.87912 l 6.13842,-5.55495 -0.0539,-13.40421 -0.0539,-13.40422 -5.96181,-4.25168 c -13.14406,-9.37373 -13.42477,-18.65818 -0.95667,-31.64241 l 6.02631,-6.27577 0,-11.29891 0,-11.2989 -6.89751,-7.26128 c -8.39546,-8.83824 -9.58533,-12.31386 -5.62924,-16.44313 12.08705,-12.61616 41.63661,-14.9744 58.65202,-4.68079 10.99347,6.65058 11.1223,10.45 0.71294,21.0258 l -6.83821,6.94754 0,11.49935 0,11.49935 5.37489,5.63501 c 8.99196,9.42714 11.64197,17.24497 8.14063,24.01582 -1.49379,2.88866 -8.08552,8.76426 -12.26552,10.93299 -2.16508,1.12332 -2.25,1.67844 -2.25,14.70759 l 0,13.54021 7,6.78132 c 6.47547,6.27318 7,7.09551 7,10.97427 0,13.01363 -13.02652,17.29732 -24.69331,8.12023 -3.32125,-2.6125 -14.32257,-2.91733 -16.36735,-0.45352 -3.97422,4.78864 -13.80977,6.77385 -19.1642,3.86811 z m 35.99374,-34.37232 c 0.14788,-12.88712 -0.11158,-23.81158 -0.57658,-24.27658 -1.54292,-1.54292 -10.80292,-2.07591 -14.55463,-0.83773 l -3.63767,1.20053 0,23.25579 c 0,12.79068 0.31619,23.57197 0.70264,23.95842 0.38646,0.38645 4.54896,0.57395 9.25,0.41667 l 8.54736,-0.28598 0.26888,-23.43112 z m 3.73112,-35.05084 c 0,-3.75985 -5.60278,-6.53355 -13,-6.43573 -8.62351,0.11403 -14.75677,3.70022 -13.21219,7.72532 0.37994,0.99012 3.62323,1.28442 13.35699,1.212 l 12.8552,-0.0956 0,-2.40595 z m -17.54922,-9.1009 c 3.59178,-0.7703 6.4824,-0.77551 10.0144,-0.018 5.88604,1.26233 8.25416,0.60485 7.83769,-2.17606 -0.59968,-4.0043 -5.29678,-6.22305 -13.17421,-6.22305 -9.71729,0 -15.97181,3.97175 -12.61809,8.01273 1.47442,1.77657 1.52904,1.77936 7.94021,0.40441 z m 9.54922,-13.91714 4.5,0.68293 0,-17.3813 c 0,-15.40786 0.22708,-17.82641 2,-21.30163 1.1,-2.15618 2,-5.55771 2,-7.55895 0,-6.50972 -8.18034,-11.63727 -15.69012,-9.83479 -8.41106,2.0188 -12.24221,6.95616 -10.24642,13.20497 0.64798,2.02882 1.57378,4.11627 2.05734,4.63877 0.48356,0.5225 0.8792,9.11 0.8792,19.08333 0,9.97334 0.22818,18.36151 0.50706,18.6404 0.27888,0.27888 2.52888,0.20022 5,-0.1748 2.47112,-0.37502 6.51794,-0.37454 8.99294,10e-4 z m 106.26257,92.49205 c -3.58831,-2.02229 -5.76257,-6.38875 -5.76257,-11.57267 0,-3.85363 0.54647,-4.71674 7,-11.05609 l 7,-6.87615 -0.0539,-13.24357 -0.0539,-13.24357 -5.9618,-4.25168 c -7.00677,-4.9969 -9.92147,-9.28299 -9.92663,-14.59719 -0.005,-5.38952 2.46245,-10.00732 9.19227,-17.20151 l 5.80396,-6.20448 0,-11.46234 0,-11.46233 -6.83821,-6.94754 c -10.40936,-10.5758 -10.28053,-14.37522 0.71294,-21.0258 17.01541,-10.29361 46.56497,-7.93537 58.65202,4.68079 3.95609,4.12927 2.76622,7.60489 -5.62924,16.44313 l -6.89751,7.26128 0,11.2989 0,11.29891 6.02631,6.27577 c 12.4681,12.98423 12.18739,22.26868 -0.95668,31.64241 l -5.9618,4.25168 -0.0539,13.40422 -0.0539,13.40421 6.13842,5.55495 c 8.82318,7.98452 10.08806,12.23937 5.94172,19.98688 -3.19571,5.97123 -12.66449,6.55005 -20.88254,1.27654 -6.8752,-4.41181 -13.4972,-4.39279 -19.96522,0.0573 -5.5158,3.79497 -13.06226,4.79192 -17.46981,2.30792 z m 36.00631,-34.42317 c 0.14788,-12.88712 -0.11158,-23.81158 -0.57658,-24.27658 -1.54292,-1.54292 -10.80292,-2.07591 -14.55463,-0.83773 l -3.63767,1.20053 0,23.25579 c 0,12.79068 0.31619,23.57197 0.70264,23.95842 0.38646,0.38645 4.54896,0.57395 9.25,0.41667 l 8.54736,-0.28598 0.26888,-23.43112 z m 3.73112,-35.05084 c 0,-3.75985 -5.60278,-6.53355 -13,-6.43573 -8.62351,0.11403 -14.75677,3.70022 -13.21219,7.72532 0.37994,0.99012 3.62323,1.28442 13.35699,1.212 l 12.8552,-0.0956 0,-2.40595 z m -17.54922,-9.1009 c 3.59178,-0.7703 6.4824,-0.77551 10.0144,-0.018 5.88604,1.26233 8.25416,0.60485 7.83769,-2.17606 -0.59968,-4.0043 -5.29678,-6.22305 -13.17421,-6.22305 -9.71729,0 -15.97181,3.97175 -12.61809,8.01273 1.47442,1.77657 1.52904,1.77936 7.94021,0.40441 z m 9.54216,-13.91821 c 2.47112,0.37502 4.72112,0.45368 5,0.1748 0.27888,-0.27889 0.50706,-8.73051 0.50706,-18.78138 0,-10.63574 0.40252,-18.52309 0.96297,-18.86947 0.52964,-0.32733 1.4102,-2.21486 1.95681,-4.19451 2.49668,-9.04225 -6.38884,-16.16406 -16.70224,-13.38695 -8.03017,2.1623 -11.51555,9.41465 -7.71754,16.05858 1.08988,1.90655 1.43754,6.7926 1.46456,20.58333 0.0195,9.94584 0.26362,18.31151 0.5425,18.5904 0.27888,0.27888 2.52888,0.20022 5,-0.1748 2.47112,-0.37502 6.51476,-0.37502 8.98588,0 z"
         id="path4233"
         inkscape:connector-curvature="0" />
      <path
         style="fill:#485346"
         d="m 657.56476,-595.24517 c -27.65146,-6.0103 -49.47307,-26.72896 -55.47474,-52.67084 -1.3782,-5.95715 -1.52436,-25.3917 -1.2898,-171.5 l 0.26454,-164.78149 3.12817,-8.10759 c 7.48595,-19.40211 21.07961,-33.50481 39.81222,-41.30321 14.99278,-6.2415 13.50523,-6.1792 139.16714,-5.8297 127.50492,0.3546 118.72307,-0.1474 134.89247,7.712 14.5409,7.0679 26.31117,18.6679 33.02123,32.54367 6.84887,14.16274 6.44765,2.83033 6.46399,182.57487 0.0144,158.57287 -0.0339,162.78054 -1.95722,170.30048 -3.16456,12.37332 -8.18149,20.82429 -18.49624,31.15674 -7.35813,7.37076 -10.60685,9.81484 -17.53176,13.18953 -17.04476,8.30636 -6.02747,7.6745 -138,7.9146 -98.08001,0.17844 -118.5743,-0.0197 -124,-1.19906 z m 245.30048,-4.19424 c 23.70326,-6.69146 42.27893,-24.66434 49.35983,-47.75809 1.75419,-5.72115 1.83969,-13.57546 1.83969,-169 l 0,-163 -2.33157,-7.5 c -3.5992,-11.57764 -8.51224,-19.5463 -17.64517,-28.6195 -6.59956,-6.5564 -9.98747,-9.0152 -17.59812,-12.7721 -16.11439,-7.9544 -9.20551,-7.5737 -137.42514,-7.5737 -127.90548,0 -121.367,-0.3522 -137.03804,7.3816 -16.42463,8.1056 -29.40428,22.8354 -35.2062,39.95318 l -2.75576,8.13052 -0.28019,160 c -0.31404,179.32739 -0.72596,168.41508 6.96451,184.5 3.37984,7.06906 5.6125,10.03793 13.26232,17.6355 12.38569,12.30109 24.00465,18.07112 40.94142,20.33171 3.36157,0.44868 56.51194,0.74314 118.11194,0.65437 l 112,-0.16141 7.80048,-2.20208 z m -218.85182,-51.80955 c -4.05586,-2.00168 -6.44866,-6.29282 -6.44866,-11.56475 0,-4.01429 0.47667,-4.77402 7,-11.15668 l 7,-6.84905 0,-13.27281 0,-13.27281 -5.58778,-3.84846 c -13.60478,-9.36996 -13.90236,-19.63772 -0.94242,-32.51647 l 5.50199,-5.46751 0.0141,-11.9401 0.0141,-11.9401 -5.40819,-5.0599 c -5.62881,-5.26632 -9.58166,-10.90346 -9.58807,-13.67354 -0.0109,-4.72859 12.61085,-11.90969 25.63345,-14.58398 6.4504,-1.32465 9.21434,-1.41969 15.38673,-0.52909 9.02121,1.30165 17.02926,4.16431 23.33688,8.3423 7.89369,5.22857 7.24431,9.61119 -2.90605,19.61283 l -6.45475,6.36017 0,11.53465 0,11.53465 4.67665,4.67106 c 13.92217,13.90552 13.89546,24.02366 -0.0889,33.65503 l -5.58775,3.84846 0,13.27281 0,13.27281 7,6.84905 c 6.52333,6.38266 7,7.14239 7,11.15668 0,7.44921 -5.15774,13.11621 -11.93754,13.11621 -3.14107,0 -12.37245,-4.07453 -13.55071,-5.98098 -0.34638,-0.56046 -3.69813,-1.01902 -7.44832,-1.01902 -5.13215,0 -7.15798,0.41018 -8.19099,1.65848 -1.94553,2.351 -8.82863,5.29774 -12.37244,5.29679 -1.65,-4.5e-4 -4.3731,-0.67847 -6.05134,-1.50673 z m 35.31948,-34.71639 0.26814,-23.76786 -2.58324,-0.98214 c -3.31173,-1.25912 -10.58485,-1.26273 -13.88794,-0.007 l -2.5651,0.97535 0,23.46139 0,23.46139 3.25,0.42393 c 1.7875,0.23317 5.95,0.37418 9.25,0.31336 l 6,-0.11057 0.26814,-23.76785 z m 4.06951,-34.12855 c 0.5099,-2.64636 -2.40879,-5.2236 -7.54386,-6.66134 -7.97708,-2.23344 -19.29379,1.31285 -19.29379,6.04606 0,0.92309 0.19755,1.8759 0.43901,2.11736 0.24145,0.24145 6.20395,0.39655 13.25,0.34466 11.36853,-0.0837 12.84901,-0.29165 13.14864,-1.84674 z m -9.83765,-10.08275 c 9.33455,-0.0205 9.5,-0.0623 9.5,-2.40215 0,-7.54821 -21.52078,-8.22071 -25.92511,-0.81013 -1.42023,2.38962 1.84633,5.04901 4.87265,3.96697 1.12885,-0.40362 6.32746,-0.74323 11.55246,-0.75469 z m 7,-31.45275 c 0,-15.72678 0.23779,-18.35143 2.02963,-22.40218 1.85104,-4.18458 1.90238,-4.89287 0.58353,-8.04934 -2.73727,-6.55119 -10.34108,-9.13791 -18.12405,-6.16557 -2.47085,0.94363 -5.16671,2.67831 -5.99079,3.85484 -1.87719,2.68007 -1.87637,8.40885 0.002,11.69415 1.09218,1.91058 1.43747,6.83021 1.46455,20.8665 l 0.0354,18.36649 6.25,-0.63414 c 3.4375,-0.34877 7.59999,-0.2401 9.25,0.24151 1.64999,0.48161 3.33749,0.68799 3.75,0.45863 0.41249,-0.22936 0.75,-8.43326 0.75,-18.23089 z m 102.41844,110.96305 c -4.15539,-1.68103 -7.41844,-6.84414 -7.41844,-11.73816 0,-4.31619 0.36488,-4.91198 7,-11.4297 l 7,-6.87615 0,-13.26777 0,-13.26776 -6.01297,-4.37876 c -13.23119,-9.6352 -13.44289,-18.09834 -0.79102,-31.62323 l 5.80399,-6.20448 0,-11.82161 0,-11.82161 -5.25,-4.92126 c -6.68652,-6.26782 -8.73518,-9.39392 -8.74341,-13.34177 -0.0121,-5.80818 10.30744,-12.09482 24.70861,-15.05242 6.39744,-1.31386 9.14099,-1.40308 15.39471,-0.50065 13.84051,1.99724 27.14191,8.38502 28.46877,13.67165 0.90174,3.59282 -2.00287,8.61896 -8.62408,14.92308 l -5.9546,5.66944 3e-5,11.725 3e-5,11.72501 3.3838,2.69994 c 1.86109,1.48496 5.23607,5.47374 7.49997,8.86395 4.56991,6.84349 5.40702,12.53921 2.63169,17.90611 -1.49379,2.88866 -8.08552,8.76426 -12.26552,10.93299 -2.16456,1.12305 -2.25,1.67997 -2.25,14.66642 l 0,13.49904 6.37947,5.96768 c 8.2755,7.74132 9.45704,10.48498 7.13438,16.56679 -1.96455,5.14408 -6.23303,8.39318 -11.01385,8.38357 -3.21237,-0.006 -12.80779,-4.05746 -13.93648,-5.88371 -0.38889,-0.62925 -3.60944,-1.10278 -7.50009,-1.10278 -5.13215,0 -7.15798,0.41018 -8.19099,1.65848 -3.35718,4.05686 -12.54489,6.35861 -17.454,4.37267 z m 34.3497,-35.299 0.26814,-23.76786 -2.58324,-0.98214 c -3.50493,-1.33258 -10.79506,-1.23907 -13.90599,0.17837 l -2.54705,1.16051 0,23.27613 0,23.27612 3.25,0.42393 c 1.7875,0.23317 5.95,0.37418 9.25,0.31336 l 6,-0.11057 0.26814,-23.76785 z m 3.73186,-34.68023 c 0,-1.39875 -1.13283,-3.18186 -2.82333,-4.444 -5.43464,-4.05754 -21.42568,-2.03153 -23.33999,2.9571 -1.24438,3.24279 1.22751,3.93619 13.8282,3.87898 12.244,-0.0556 12.33512,-0.0733 12.33512,-2.39208 z m -8.83975,-9.34686 c 10.36156,0.23196 12.17895,-0.95677 7.9414,-5.19432 -5.54579,-5.54579 -23.26586,-4.01811 -25.33324,2.18403 -0.71389,2.14166 2.7314,4.34765 5.55392,3.55613 1.47272,-0.413 6.79978,-0.65862 11.83792,-0.54584 z m 6.33975,-31.93718 c 0,-14.79872 0.27753,-18.2618 1.62873,-20.32401 0.89581,-1.36717 1.67681,-4.31905 1.73556,-6.55975 0.0889,-3.38878 -0.42993,-4.55357 -3.08451,-6.92544 -3.94256,-3.52268 -9.1687,-4.60814 -14.49845,-3.01131 -8.18447,2.45213 -11.00485,8.96433 -7.08203,16.35229 1.45057,2.73191 1.65588,5.77637 1.4027,20.8001 l -0.2966,17.59976 10.0973,-0.0467 10.0973,-0.0467 0,-17.83825 z M 682.3399,-827.2563 c -2.90782,-1.57802 -4.47544,-3.90939 -5.84899,-8.6987 -1.27172,-4.43424 0.90633,-8.51815 7.93543,-14.87912 l 6.13842,-5.55495 -0.0539,-13.40421 -0.0539,-13.40422 -5.96181,-4.25168 c -13.14406,-9.37373 -13.42477,-18.65818 -0.95667,-31.64241 l 6.02631,-6.27577 0,-11.29891 0,-11.2989 -6.89751,-7.26128 c -8.39546,-8.83824 -9.58533,-12.31386 -5.62924,-16.44313 12.08705,-12.61616 41.63661,-14.9744 58.65202,-4.68079 10.99347,6.65058 11.1223,10.45 0.71294,21.0258 l -6.83821,6.94754 0,11.49935 0,11.49935 5.37489,5.63501 c 8.99196,9.42714 11.64197,17.24497 8.14063,24.01582 -1.49379,2.88866 -8.08552,8.76426 -12.26552,10.93299 -2.16508,1.12332 -2.25,1.67844 -2.25,14.70759 l 0,13.54021 7,6.78132 c 6.47547,6.27318 7,7.09551 7,10.97427 0,13.01363 -13.02652,17.29732 -24.69331,8.12023 -3.32125,-2.6125 -14.32257,-2.91733 -16.36735,-0.45352 -3.97422,4.78864 -13.80977,6.77385 -19.1642,3.86811 z m 35.99374,-34.37232 c 0.14788,-12.88712 -0.11158,-23.81158 -0.57658,-24.27658 -1.54292,-1.54292 -10.80292,-2.07591 -14.55463,-0.83773 l -3.63767,1.20053 0,23.25579 c 0,12.79068 0.31619,23.57197 0.70264,23.95842 0.38646,0.38645 4.54896,0.57395 9.25,0.41667 l 8.54736,-0.28598 0.26888,-23.43112 z m 3.73112,-35.05084 c 0,-3.75985 -5.60278,-6.53355 -13,-6.43573 -8.62351,0.11403 -14.75677,3.70022 -13.21219,7.72532 0.37994,0.99012 3.62323,1.28442 13.35699,1.212 l 12.8552,-0.0956 0,-2.40595 z m -17.54922,-9.1009 c 3.59178,-0.7703 6.4824,-0.77551 10.0144,-0.018 5.88604,1.26233 8.25416,0.60485 7.83769,-2.17606 -0.59968,-4.0043 -5.29678,-6.22305 -13.17421,-6.22305 -9.71729,0 -15.97181,3.97175 -12.61809,8.01273 1.47442,1.77657 1.52904,1.77936 7.94021,0.40441 z m 9.54922,-13.91714 4.5,0.68293 0,-17.3813 c 0,-15.40786 0.22708,-17.82641 2,-21.30163 1.1,-2.15618 2,-5.55771 2,-7.55895 0,-6.50972 -8.18034,-11.63727 -15.69012,-9.83479 -8.41106,2.0188 -12.24221,6.95616 -10.24642,13.20497 0.64798,2.02882 1.57378,4.11627 2.05734,4.63877 0.48356,0.5225 0.8792,9.11 0.8792,19.08333 0,9.97334 0.22818,18.36151 0.50706,18.6404 0.27888,0.27888 2.52888,0.20022 5,-0.1748 2.47112,-0.37502 6.51794,-0.37454 8.99294,10e-4 z m 106.26257,92.49205 c -3.58831,-2.02229 -5.76257,-6.38875 -5.76257,-11.57267 0,-3.85363 0.54647,-4.71674 7,-11.05609 l 7,-6.87615 -0.0539,-13.24357 -0.0539,-13.24357 -5.9618,-4.25168 c -7.00677,-4.9969 -9.92147,-9.28299 -9.92663,-14.59719 -0.005,-5.38952 2.46245,-10.00732 9.19227,-17.20151 l 5.80396,-6.20448 0,-11.46234 0,-11.46233 -6.83821,-6.94754 c -10.40936,-10.5758 -10.28053,-14.37522 0.71294,-21.0258 17.01541,-10.29361 46.56497,-7.93537 58.65202,4.68079 3.95609,4.12927 2.76622,7.60489 -5.62924,16.44313 l -6.89751,7.26128 0,11.2989 0,11.29891 6.02631,6.27577 c 12.4681,12.98423 12.18739,22.26868 -0.95668,31.64241 l -5.9618,4.25168 -0.0539,13.40422 -0.0539,13.40421 6.13842,5.55495 c 8.82318,7.98452 10.08806,12.23937 5.94172,19.98688 -3.19571,5.97123 -12.66449,6.55005 -20.88254,1.27654 -6.8752,-4.41181 -13.4972,-4.39279 -19.96522,0.0573 -5.5158,3.79497 -13.06226,4.79192 -17.46981,2.30792 z m 36.00631,-34.42317 c 0.14788,-12.88712 -0.11158,-23.81158 -0.57658,-24.27658 -1.54292,-1.54292 -10.80292,-2.07591 -14.55463,-0.83773 l -3.63767,1.20053 0,23.25579 c 0,12.79068 0.31619,23.57197 0.70264,23.95842 0.38646,0.38645 4.54896,0.57395 9.25,0.41667 l 8.54736,-0.28598 0.26888,-23.43112 z m 3.73112,-35.05084 c 0,-3.75985 -5.60278,-6.53355 -13,-6.43573 -8.62351,0.11403 -14.75677,3.70022 -13.21219,7.72532 0.37994,0.99012 3.62323,1.28442 13.35699,1.212 l 12.8552,-0.0956 0,-2.40595 z m -17.54922,-9.1009 c 3.59178,-0.7703 6.4824,-0.77551 10.0144,-0.018 5.88604,1.26233 8.25416,0.60485 7.83769,-2.17606 -0.59968,-4.0043 -5.29678,-6.22305 -13.17421,-6.22305 -9.71729,0 -15.97181,3.97175 -12.61809,8.01273 1.47442,1.77657 1.52904,1.77936 7.94021,0.40441 z m 9.54216,-13.91821 c 2.47112,0.37502 4.72112,0.45368 5,0.1748 0.27888,-0.27889 0.50706,-8.73051 0.50706,-18.78138 0,-10.63574 0.40252,-18.52309 0.96297,-18.86947 0.52964,-0.32733 1.4102,-2.21486 1.95681,-4.19451 2.49668,-9.04225 -6.38884,-16.16406 -16.70224,-13.38695 -8.03017,2.1623 -11.51555,9.41465 -7.71754,16.05858 1.08988,1.90655 1.43754,6.7926 1.46456,20.58333 0.0195,9.94584 0.26362,18.31151 0.5425,18.5904 0.27888,0.27888 2.52888,0.20022 5,-0.1748 2.47112,-0.37502 6.51476,-0.37502 8.98588,0 z"
         id="path4231"
         inkscape:connector-curvature="0" />
      <path
         style="fill:#0e1f0b"
         d="m 657.93008,-595.19067 c -14.46145,-3.14508 -26.70565,-9.87792 -37.38451,-20.557 -8.80714,-8.80732 -14.9386,-19.55491 -18.01233,-31.57307 -1.91812,-7.49978 -1.96848,-11.83297 -1.96848,-169.37676 0,-156.58387 0.061,-161.9185 1.93456,-169.24415 7.06416,-27.62055 31.13872,-48.59965 60.4487,-52.67635 10.73344,-1.4929 221.50004,-1.4929 232.23348,0 24.65426,3.4291 45.40646,18.3737 55.98692,40.31881 6.84297,14.19308 6.4851,3.46674 6.1757,185.10169 l -0.27936,164 -3.1886,8.27315 c -9.15284,23.74803 -28.86883,40.42228 -54.1255,45.77513 -9.58045,2.03046 -232.46936,1.99225 -241.82058,-0.0414 z m 235.49718,-2.54882 c 27.07128,-3.39445 49.38287,-21.26725 57.8982,-46.3796 l 2.7393,-8.07841 0.26771,-161.22905 c 0.29669,-178.68455 0.64318,-168.55615 -6.2639,-183.10051 -8.91104,-18.76414 -25.13309,-31.89494 -45.91377,-37.16464 -7.69131,-1.9504 -11.09383,-2.0058 -123.09004,-2.0058 -111.72838,0 -115.41712,0.06 -123.09004,1.9928 -20.65426,5.2035 -36.94703,18.4868 -46.07163,37.5615 -6.67763,13.95938 -6.40876,5.88478 -6.10911,183.46728 l 0.27078,160.47842 3.08529,8.61775 c 8.85489,24.7333 30.74335,42.45514 56.57595,45.80633 9.65406,1.25239 219.73635,1.28342 229.70126,0.0339 z m -209.56395,-53.85898 c -3.93037,-2.46836 -6.29855,-6.82894 -6.29855,-11.59763 0,-3.13691 0.89691,-4.47373 7,-10.43325 l 7,-6.83532 0,-13.54832 0,-13.54832 -3.25,-2.22677 c -15.83082,-10.84661 -16.64723,-19.26546 -3.2695,-33.71501 l 5.5195,-5.96172 0,-11.89765 0,-11.89765 -6.10996,-5.96869 c -7.52068,-7.3468 -9.67349,-11.62406 -7.51138,-14.92386 2.36073,-3.60293 10.49655,-8.44755 18.10773,-10.78257 13.96074,-4.283 31.65132,-2.08054 42.84558,5.33423 9.78883,6.48385 9.65501,9.50974 -0.88241,19.95349 l -6.44956,6.39223 0,11.93848 0,11.93847 5.37489,5.63501 c 6.5331,6.84928 9.62511,12.63266 9.62511,18.0031 0,3.24923 -0.72058,4.83455 -3.6928,8.12445 -2.03105,2.24812 -5.63105,5.42104 -8,7.05092 l -4.3072,2.96343 0,13.56837 0,13.56838 7,6.83532 c 6.24193,6.0951 6.9996,7.24667 6.99626,10.63359 -0.008,7.82654 -7.079,14.25572 -14.20845,12.91823 -1.88908,-0.35439 -5.55477,-1.98887 -8.14598,-3.63216 -3.86704,-2.45241 -5.775,-2.98781 -10.64732,-2.98781 -5.02961,0 -6.60969,0.47483 -10.34763,3.10958 -5.73314,4.04109 -11.88874,4.79017 -16.34833,1.98945 z m 35.70145,-34.4824 0,-24.38337 -2.25,-0.60297 c -3.47213,-0.9305 -11.33301,-0.73933 -14.1849,0.34496 l -2.5651,0.97525 0,23.45833 0,23.45833 2.75,0.41659 c 1.5125,0.22912 5.7875,0.48401 9.5,0.56642 l 6.75,0.14983 0,-24.38337 z m 3.5,-34.58074 c 0,-4.18541 -4.64825,-6.54091 -12.82693,-6.50006 -8.55821,0.0427 -13.67307,2.22109 -13.67307,5.82318 0,1.26921 0.19755,2.50521 0.43901,2.74667 0.24145,0.24145 6.20395,0.39654 13.25,0.34463 12.7063,-0.0936 12.81099,-0.11333 12.81099,-2.41442 z m -8.25,-9.25671 8.75,0.27918 0,-2.54388 c 0,-5.888 -14.66993,-8.92629 -22.99706,-4.76293 -6.26477,3.13224 -4.80724,8.94349 1.88555,7.51778 1.98633,-0.42313 7.54901,-0.6437 12.36151,-0.49015 z m 6.01706,-31.52918 c 0.27949,-14.94306 0.71216,-19.69633 2.13102,-23.41089 1.67223,-4.37789 1.67914,-4.87412 0.11385,-8.17273 -5.07746,-10.69994 -25.71193,-7.71518 -25.71193,3.71922 0,1.92892 0.72,4.9504 1.6,6.7144 1.28838,2.58261 1.6,6.70827 1.6,21.1828 l 0,17.97553 5.75,-0.60295 c 3.1625,-0.33162 7.325,-0.21081 9.25,0.26847 1.925,0.47929 3.81868,0.91749 4.20818,0.97379 0.3895,0.0563 0.866,-8.33514 1.05888,-18.64764 z m 101.03149,109.84903 c -3.68299,-2.313 -6.29855,-6.77527 -6.29855,-10.74562 0,-3.50253 3.70362,-8.84625 9.47445,-13.67006 l 4.52555,-3.78289 0,-13.78977 0,-13.78976 -6.02665,-4.68012 c -13.12147,-10.18974 -13.23885,-17.6792 -0.49285,-31.4464 l 5.5195,-5.96172 0,-11.75018 0,-11.75018 -7,-7.36918 c -5.89096,-6.20165 -7,-7.91596 -7,-10.82036 0,-2.92542 0.70039,-3.98596 4.59746,-6.9616 5.58059,-4.26109 12.51704,-6.94136 22.11137,-8.54391 14.0181,-2.34145 32.19124,2.77708 40.16347,11.3122 3.41111,3.65194 2.29323,6.52347 -5.91605,15.19674 l -6.95625,7.34943 0,11.67474 0,11.67475 5.80399,6.20448 c 6.8073,7.27703 9.19601,11.80939 9.19601,17.44863 0,3.31728 -0.70206,4.87308 -3.6928,8.18348 -2.03105,2.24812 -5.63105,5.42104 -8,7.05092 l -4.3072,2.96343 0,13.79542 0,13.79543 5.05702,4.26414 c 2.78137,2.34528 6.18599,5.97012 7.56583,8.05521 2.23317,3.37454 2.39346,4.21943 1.45893,7.69002 -2.80899,10.43177 -13.2652,13.04614 -23.11473,5.77939 -2.73101,-2.01487 -4.52389,-2.47569 -9.63209,-2.47569 -5.41055,0 -6.88513,0.42901 -10.68808,3.10958 -5.73314,4.04109 -11.88874,4.79017 -16.34833,1.98945 z m 35.70145,-34.4824 0,-24.38337 -2.25,-0.60297 c -3.47213,-0.9305 -11.33301,-0.73933 -14.1849,0.34496 l -2.5651,0.97525 0,23.46139 0,23.46139 3.25,0.40332 c 1.7875,0.22183 6.0625,0.47534 9.5,0.56336 l 6.25,0.16004 0,-24.38337 z m 3.81891,-34.95891 c 0.9244,-7.8531 -24.47629,-8.85532 -26.43703,-1.04312 -0.31359,1.24945 -0.33952,2.64493 -0.0576,3.10106 0.2819,0.45613 6.28677,0.78927 13.34414,0.7403 l 12.83159,-0.089 0.31891,-2.70921 z m -9.36465,-8.92919 c 9.41052,0.24017 11.25965,-0.52606 9.44632,-3.9143 -2.46381,-4.60366 -14.7493,-6.44669 -22.20568,-3.33122 -6.45027,2.6951 -5.36583,9.59811 1.21679,7.74546 1.42357,-0.40066 6.61772,-0.62563 11.54257,-0.49994 z m 6.80087,-31.47853 c 0.28315,-15.6718 0.65409,-19.51864 2.25947,-23.43197 1.80287,-4.39472 1.82092,-4.89123 0.29419,-8.09281 -2.84889,-5.97418 -11.7553,-8.44572 -19.21022,-5.33085 -6.34777,2.65227 -8.39359,9.23541 -4.94283,15.90529 1.38824,2.68328 1.61949,6.09023 1.43134,21.08727 l -0.22441,17.88694 5.81866,-0.61072 c 3.20027,-0.33589 7.39367,-0.21858 9.31867,0.2607 1.925,0.47929 3.81868,0.91749 4.20818,0.97379 0.3895,0.0563 0.86063,-8.33514 1.04695,-18.64764 z m -177.56886,-67.2206 c -4.16999,-3.6613 -6.06554,-8.90166 -4.60729,-12.73714 0.53062,-1.39564 3.87993,-5.31273 7.44289,-8.70464 l 6.47813,-6.16711 0,-13.49049 0,-13.49049 -5.51762,-3.96976 c -13.65878,-9.8271 -13.9224,-18.31966 -1.00188,-32.27536 l 5.5195,-5.96172 0,-11.74545 0,-11.74545 -6.06496,-6.04618 c -10.63869,-10.60573 -11.01614,-13.79165 -2.34114,-19.76022 15.13661,-10.41426 38.04652,-10.80254 55.14044,-0.93451 10.25255,5.91861 10.20275,9.26088 -0.3001,20.13994 l -6.43424,6.66472 0,12.12778 0,12.12778 3.46721,3.04425 c 1.90697,1.67434 5.28197,5.76187 7.5,9.08341 3.19429,4.78348 4.03279,6.96 4.03279,10.46803 0,3.88995 -0.56506,5.03299 -4.64352,9.39319 -2.55394,2.73037 -6.15394,5.89779 -8,7.03872 l -3.35648,2.07442 0,13.59273 0,13.59273 7.12727,7.35039 7.12727,7.35038 -0.52874,4.69098 c -0.69036,6.12485 -5.8182,11.25967 -11.24436,11.25967 -3.47065,0 -12.7209,-3.9604 -13.96969,-5.98098 -0.34638,-0.56046 -3.51507,-1.01902 -7.04153,-1.01902 -5.57503,0 -6.993,0.40971 -10.8659,3.13958 -3.04598,2.147 -6.00743,3.28883 -9.36726,3.61166 -4.42998,0.42567 -5.27082,0.15802 -8.55079,-2.72184 z m 37.31373,-33.05415 0,-24.02475 -2.75,-1.06996 c -2.74544,-1.06819 -13.16032,-0.67203 -15.18209,0.57749 -0.7091,0.43824 -1.06791,8.70411 -1.06791,24.60099 l 0,23.94098 9.5,0 9.5,0 0,-24.02475 z m 3.79402,-34.56467 c 0.42985,-2.95451 -2.75753,-5.29877 -8.97871,-6.60368 -4.73963,-0.99414 -6.277,-0.89001 -11.39698,0.77197 -3.97598,1.29063 -6.02813,2.51464 -6.2529,3.72954 -0.7465,4.03493 0.1343,4.31036 13.47937,4.21498 12.10037,-0.0865 12.87246,-0.21055 13.14922,-2.11281 z m -10.79402,-9.56157 c 11.11466,0.78064 10.5,0.9112 10.5,-2.23031 0,-2.26625 -0.74379,-3.28019 -3.4844,-4.75 -7.38883,-3.96267 -23.0156,-0.96454 -23.0156,4.41574 0,3.49488 0.91737,3.92594 6.47901,3.04438 2.76154,-0.43772 7.04599,-0.65364 9.52099,-0.47981 z m 7,-30.57484 c 0,-15.45498 0.20522,-17.56242 1.99626,-20.5 2.62693,-4.30856 2.62151,-10.71908 -0.0119,-14.06692 -4.37396,-5.56059 -15.48907,-5.9086 -21.35367,-0.66858 -2.51692,2.24887 -3.08259,3.50424 -2.99991,6.65759 0.056,2.13737 0.83705,5.30774 1.73556,7.04527 1.33204,2.57588 1.63366,6.44551 1.63366,20.95881 l 0,17.79966 9.5,0 9.5,0 0,-17.22583 z m 99.88235,106.84348 c -3.28438,-3.28438 -3.88235,-4.53299 -3.88235,-8.10658 0,-3.87579 0.57739,-4.8197 7,-11.44336 l 7,-7.21913 0,-13.59273 0,-13.59273 -3.35648,-2.07442 c -1.84606,-1.14093 -5.44606,-4.30835 -8,-7.03872 -4.07846,-4.3602 -4.64352,-5.50324 -4.64352,-9.39319 0,-3.49142 0.83136,-5.67011 3.9276,-10.29284 2.16018,-3.22517 5.53518,-7.41473 7.5,-9.31012 l 3.5724,-3.44616 0,-11.90107 0,-11.90106 -6.43424,-6.66472 c -10.0844,-10.44563 -10.41936,-13.39339 -2.16706,-19.07112 15.71264,-10.81058 41.402,-10.87111 57.0074,-0.13431 8.66669,5.96285 8.31431,8.94267 -2.33075,19.70942 l -6.07535,6.1448 0,11.72154 0,11.72154 5.5195,5.96172 c 13.47307,14.55252 12.58617,23.7456 -3.2695,33.88948 l -3.25,2.07923 0,13.83345 0,13.83346 4.75,4.16678 c 2.6125,2.29174 5.94059,5.92785 7.39576,8.08026 2.26525,3.35064 2.52453,4.45346 1.80285,7.6682 -0.51715,2.30368 -2.21025,5.01072 -4.38107,7.00473 -4.85636,4.46083 -9.28253,4.39573 -16.99752,-0.25 -4.99479,-3.0077 -6.69233,-3.5 -12.06873,-3.5 -4.6086,0 -6.61787,0.43681 -7.62885,1.65848 -2.11114,2.55113 -8.94084,5.29515 -13.24009,5.31956 -3.17441,0.018 -4.56351,-0.67391 -7.75,-3.86039 z m 38.11765,-32.1424 0,-24.02475 -2.75,-1.06996 c -2.74544,-1.06819 -13.16032,-0.67203 -15.18209,0.57749 -0.7091,0.43824 -1.06791,8.70411 -1.06791,24.60099 l 0,23.94098 9.5,0 9.5,0 0,-24.02475 z m 3.83127,-34.33761 c 0.95384,-4.9529 -8.72271,-8.70254 -17.63441,-6.83329 -3.01996,0.63344 -6.32469,1.90635 -7.34385,2.82867 -1.73414,1.56938 -2.45179,4.43486 -1.3793,5.50736 0.26055,0.26054 6.22017,0.43096 13.24362,0.37871 11.42251,-0.085 12.8062,-0.2835 13.11394,-1.88145 z m -10.83127,-9.80012 c 11.10194,0.80809 10.5,0.94209 10.5,-2.33752 0,-2.42887 -0.66632,-3.33286 -3.5,-4.74845 -9.36685,-4.67926 -26.93884,0.79751 -21.9285,6.8346 0.95924,1.15581 2.26794,1.31445 5.83262,0.707 2.52773,-0.43074 6.62088,-0.63578 9.09588,-0.45563 z m -3.37889,-13.97763 c 2.72586,-0.0614 6.3822,0.20156 8.1252,0.58439 l 3.16909,0.69605 0.33925,-18.82017 c 0.28014,-15.5411 0.66415,-19.60881 2.20402,-23.34659 1.65565,-4.01882 1.70646,-4.8498 0.45305,-7.41006 -2.33857,-4.77686 -6.35571,-7.07293 -12.23771,-6.99467 -11.6074,0.15442 -17.08008,7.94387 -12.20484,17.37155 1.20918,2.33828 1.53083,6.76701 1.53083,21.07734 0,17.10998 0.10186,18.08472 1.8325,17.53543 1.00788,-0.31989 4.06275,-0.63186 6.78861,-0.69327 z"
         id="path4229"
         inkscape:connector-curvature="0" />
      <path
         style="fill:#000000"
         d="m 657.93008,-595.19067 c -14.46145,-3.14508 -26.70565,-9.87792 -37.38451,-20.557 -8.80714,-8.80732 -14.9386,-19.55491 -18.01233,-31.57307 -1.91812,-7.49978 -1.96848,-11.83297 -1.96848,-169.37676 0,-156.58387 0.061,-161.9185 1.93456,-169.24415 7.06416,-27.62055 31.13872,-48.59965 60.4487,-52.67635 10.73344,-1.4929 221.50004,-1.4929 232.23348,0 24.65426,3.4291 45.40646,18.3737 55.98692,40.31881 6.84297,14.19308 6.4851,3.46674 6.1757,185.10169 l -0.27936,164 -3.1886,8.27315 c -9.15284,23.74803 -28.86883,40.42228 -54.1255,45.77513 -9.58045,2.03046 -232.46936,1.99225 -241.82058,-0.0414 z m 235.49718,-2.54882 c 27.07128,-3.39445 49.38287,-21.26725 57.8982,-46.3796 l 2.7393,-8.07841 0.26771,-161.22905 c 0.29669,-178.68455 0.64318,-168.55615 -6.2639,-183.10051 -8.91104,-18.76414 -25.13309,-31.89494 -45.91377,-37.16464 -7.69131,-1.9504 -11.09383,-2.0058 -123.09004,-2.0058 -111.72838,0 -115.41712,0.06 -123.09004,1.9928 -20.65426,5.2035 -36.94703,18.4868 -46.07163,37.5615 -6.67763,13.95938 -6.40876,5.88478 -6.10911,183.46728 l 0.27078,160.47842 3.08529,8.61775 c 8.85489,24.7333 30.74335,42.45514 56.57595,45.80633 9.65406,1.25239 219.73635,1.28342 229.70126,0.0339 z"
         id="path4227"
         inkscape:connector-curvature="0" />
    </g>
  </g>
</svg>
