<?xml version="1.0" encoding="UTF-8" standalone="no"?>
<!-- Created with Inkscape (http://www.inkscape.org/) -->

<svg
   xmlns:dc="http://purl.org/dc/elements/1.1/"
   xmlns:cc="http://creativecommons.org/ns#"
   xmlns:rdf="http://www.w3.org/1999/02/22-rdf-syntax-ns#"
   xmlns:svg="http://www.w3.org/2000/svg"
   xmlns="http://www.w3.org/2000/svg"
   xmlns:sodipodi="http://sodipodi.sourceforge.net/DTD/sodipodi-0.dtd"
   xmlns:inkscape="http://www.inkscape.org/namespaces/inkscape"
   width="358.7999"
   height="446.54688"
   id="svg2"
   version="1.1"
   inkscape:version="0.48.5 r10040"
   sodipodi:docname="bamb1.svg">
  <defs
     id="defs4" />
  <sodipodi:namedview
     id="base"
     pagecolor="#ffffff"
     bordercolor="#666666"
     borderopacity="1.0"
     inkscape:pageopacity="0.0"
     inkscape:pageshadow="2"
     inkscape:zoom="0.56054688"
     inkscape:cx="-126.40123"
     inkscape:cy="95.924607"
     inkscape:document-units="px"
     inkscape:current-layer="layer1"
     showgrid="false"
     fit-margin-top="0"
     fit-margin-left="0"
     fit-margin-right="0"
     fit-margin-bottom="0"
     inkscape:window-width="958"
     inkscape:window-height="1078"
     inkscape:window-x="1920"
     inkscape:window-y="0"
     inkscape:window-maximized="0" />
  <metadata
     id="metadata7">
    <rdf:RDF>
      <cc:Work
         rdf:about="">
        <dc:format>image/svg+xml</dc:format>
        <dc:type
           rdf:resource="http://purl.org/dc/dcmitype/StillImage" />
        <dc:title></dc:title>
      </cc:Work>
    </rdf:RDF>
  </metadata>
  <g
     inkscape:label="Layer 1"
     inkscape:groupmode="layer"
     id="layer1"
     transform="translate(-1358.0706,654.54544)">
    <g
       id="g4133"
       transform="translate(731.42857,396.04181)">
      <path
         style="fill:#c2c6c1"
         d="m 689.85594,-604.76126 c -26.91216,-3.19565 -50.855,-22.42268 -59.7867,-48.01104 l -2.93246,-8.4012 -0.27938,-163.5 c -0.31159,-182.35 -0.74435,-170.31917 6.67869,-185.6691 7.13851,-14.7615 18.80781,-26.0693 34.37203,-33.3073 16.02753,-7.4534 9.22678,-7.1256 141.22866,-6.8077 l 118,0.2841 8.76121,3.1347 c 12.26425,4.3881 18.98121,8.6229 28.33676,17.8653 9.40715,9.2933 15.11426,18.7932 18.59883,30.95884 l 2.3032,8.04116 0,162.5 c 0,181.20565 0.53976,166.89453 -6.88319,182.5 -8.93362,18.78141 -25.96322,32.72815 -47.33009,38.76193 l -7.78672,2.19889 -113,0.15799 c -62.15,0.0869 -116.27638,-0.23106 -120.28084,-0.70657 z m 243.28084,-7.22001 c 21.72435,-7.62461 36.82993,-22.4872 44.30864,-43.59586 l 2.69136,-7.59637 0.26483,-161.24286 c 0.22985,-139.94406 0.0672,-162.20147 -1.23104,-168.5 -4.76493,-23.11684 -23.61719,-43.02864 -48.02115,-50.72014 l -8.01264,-2.5253 -112.8686,-0.2886 c -122.72051,-0.3138 -123.10063,-0.2993 -136.69169,5.2233 -19.43142,7.8957 -34.85213,25.1964 -40.60336,45.5536 -1.7475,6.18549 -1.83635,14.33861 -1.83635,168.5 l 0,162 2.33157,7.5 c 3.5992,11.57764 8.51224,19.54633 17.64517,28.61954 6.6457,6.60223 9.93427,8.98069 17.59812,12.72783 16.18994,7.91585 8.94913,7.53637 139.92514,7.33328 l 116.5,-0.18065 8,-2.80777 z m -156.14342,-52.00426 c -3.04239,-2.78814 -3.69296,-4.13339 -4.11301,-8.50484 l -0.49896,-5.19282 7.1277,-7.00159 7.12769,-7.00158 0,-13.2738 0,-13.27381 -5.49063,-3.96976 c -6.98345,-5.04909 -9.66797,-8.69729 -10.25911,-13.94186 -0.61306,-5.439 2.24217,-11.09585 9.37485,-18.57373 l 5.37489,-5.63501 0,-11.79116 0,-11.79117 -4.73656,-4.61842 c -10.66042,-10.39453 -11.83574,-14.65272 -5.56425,-20.15917 9.75596,-8.56584 28.41118,-12.14348 44.06997,-8.45161 11.64853,2.74638 22.23084,9.76459 22.23084,14.74353 0,2.89399 -3.96882,8.51631 -10.38177,14.70704 l -4.61823,4.45821 0,11.06661 0,11.06662 5.55667,5.87609 c 7.02094,7.42454 9.44333,12.13279 9.44333,18.35442 0,4.1082 -0.5411,5.49199 -3.49853,8.94709 -1.92419,2.24798 -5.52338,5.36648 -7.99821,6.92999 l -4.49968,2.84276 -0.002,13.15613 -0.002,13.15613 6.94489,6.70473 c 4.02525,3.88605 7.19862,7.85994 7.54843,9.4526 0.83791,3.81495 -2.09271,10.60896 -5.67717,13.16132 -4.09156,2.91345 -12.1269,2.25276 -17.73452,-1.45819 -3.31153,-2.19147 -5.16799,-2.66944 -10.31019,-2.65452 -5.29203,0.0154 -6.95866,0.48386 -10.67192,3 -3.52947,2.39159 -5.46225,2.9818 -9.76469,2.9818 -4.6784,0 -5.82625,-0.42343 -8.97825,-3.31203 z m 37.64342,-33.21935 c 0,-26.46558 0.53438,-24.79203 -7.943,-24.87568 -2.50635,-0.0247 -5.7945,0.29031 -7.307,0.7001 l -2.75,0.74506 0,23.48095 0,23.48095 9,0 9,0 0,-23.53138 z m 4,-34.66189 c 0,-1.00987 -1.4625,-2.72783 -3.25,-3.81769 -7.23046,-4.4085 -24.51621,-1.0341 -22.43852,4.38028 0.36,0.93814 3.80696,1.27354 13.08861,1.27354 11.5584,0 12.59991,-0.15178 12.59991,-1.83613 z m 0.46603,-10.57941 c 0.73861,-1.92387 -2.84706,-4.96159 -7.50324,-6.35662 -7.68326,-2.30196 -20.08609,2.03845 -18.3977,6.43833 0.67697,1.76415 25.222,1.68672 25.90094,-0.0817 z m -3.46565,-29.8502 c -3.4e-4,-15.13895 0.2393,-17.66472 2.06824,-21.79934 2.55662,-5.77967 1.91127,-9.57547 -2.21886,-13.05075 -2.3101,-1.94382 -4.12443,-2.52703 -7.86139,-2.52703 -12.03989,0 -16.95303,6.76211 -11.98837,16.5 1.76808,3.46799 2.00014,5.89868 2.00124,20.96144 l 10e-4,17.03856 8.99915,0 8.99914,0 -3.8e-4,-17.12288 z m -34.00038,-63.99729 c -6.63911,-2.32842 -10,-6.82467 -10,-13.37814 0,-3.95553 0.50373,-4.75707 7,-11.1384 l 7,-6.87615 -0.0258,-13.24357 -0.0258,-13.24357 -5.14142,-3.48947 c -13.91007,-9.44075 -14.26405,-19.34108 -1.1819,-33.05635 l 5.37492,-5.63501 0,-11.6416 0,-11.64159 -5.62356,-5.26799 c -5.92719,-5.55243 -9.47753,-11.66541 -8.63852,-14.8738 1.29474,-4.95108 14.30551,-12.04613 25.57605,-13.94715 13.08528,-2.20712 27.99039,0.67818 37.88522,7.33374 9.09412,6.11698 8.86619,9.77104 -1.26099,20.21524 l -6.9382,7.1554 0,11.46608 0,11.46608 4.62433,4.45821 c 7.4932,7.22402 10.37567,12.4352 10.37567,18.75806 0,5.28463 -0.13572,5.54109 -5.93578,11.21645 -3.26468,3.19449 -6.86468,6.10298 -8,6.46332 -1.95101,0.61922 -2.06422,1.39376 -2.06422,14.12199 l 0,13.46684 6.37947,5.96768 c 8.24078,7.70885 9.45345,10.49437 7.17081,16.47138 -3.22733,8.45066 -9.84835,11.14062 -18.38365,7.46883 -2.80701,-1.20755 -5.62293,-2.82122 -6.25759,-3.58594 -0.76223,-0.91843 -3.29622,-1.3904 -7.46504,-1.3904 -5.22889,0 -7.13702,0.50495 -11.12755,2.94467 -4.83011,2.95302 -10.51196,4.41873 -13.31645,3.43516 z m 32,-36.77284 c 0,-20.40888 -0.20178,-23.47044 -1.58179,-24 -2.02688,-0.77779 -11.23548,-0.76265 -14.16821,0.0233 l -2.25,0.60297 0,23.38337 0,23.38337 9,0 9,0 0,-23.39301 z m -8.5,-33.05917 c 2.2,0.0233 5.8,0.24708 8,0.49728 3.72131,0.42321 4,0.28072 4,-2.0451 0,-5.4754 -12.74015,-7.88969 -21.25,-4.02693 -2.90419,1.31826 -4.25,2.55156 -4.25,3.8947 0,2.51408 1.62208,3.13689 6,2.30375 1.925,-0.36634 5.3,-0.647 7.5,-0.6237 z m 12.49997,-13.08221 c 9e-5,-6.77514 -21.47754,-7.97404 -25.52517,-1.42483 -1.82268,2.94915 0.37479,3.54508 12.91438,3.50227 12.00105,-0.041 12.61077,-0.14141 12.61079,-2.07744 z m -2.99997,-28.94628 c 0,-15.10696 0.23753,-17.55377 2.15266,-22.17435 1.90794,-4.60326 2.00226,-5.55676 0.82969,-8.3876 -1.73966,-4.1999 -6.40395,-6.94897 -11.79809,-6.95364 -10.53891,-0.009 -16.01691,7.61783 -11.60261,16.15416 1.28185,2.47881 1.55954,6.40268 1.46497,20.70034 l -0.11668,17.64176 9.53503,0 9.53503,0 0,-16.98067 z"
         id="path4147"
         inkscape:connector-curvature="0" />
      <path
         style="fill:#bebebe"
         d="m 689.85594,-604.76126 c -26.91216,-3.19565 -50.855,-22.42268 -59.7867,-48.01104 l -2.93246,-8.4012 -0.27938,-163.5 c -0.31159,-182.35 -0.74435,-170.31917 6.67869,-185.6691 7.13851,-14.7615 18.80781,-26.0693 34.37203,-33.3073 16.02753,-7.4534 9.22678,-7.1256 141.22866,-6.8077 l 118,0.2841 8.76121,3.1347 c 12.26425,4.3881 18.98121,8.6229 28.33676,17.8653 9.40715,9.2933 15.11426,18.7932 18.59883,30.95884 l 2.3032,8.04116 0,162.5 c 0,181.20565 0.53976,166.89453 -6.88319,182.5 -8.93362,18.78141 -25.96322,32.72815 -47.33009,38.76193 l -7.78672,2.19889 -113,0.15799 c -62.15,0.0869 -116.27638,-0.23106 -120.28084,-0.70657 z m 243.28084,-7.22001 c 21.72435,-7.62461 36.82993,-22.4872 44.30864,-43.59586 l 2.69136,-7.59637 0.26483,-161.24286 c 0.22985,-139.94406 0.0672,-162.20147 -1.23104,-168.5 -4.76493,-23.11684 -23.61719,-43.02864 -48.02115,-50.72014 l -8.01264,-2.5253 -112.8686,-0.2886 c -122.72051,-0.3138 -123.10063,-0.2993 -136.69169,5.2233 -19.43142,7.8957 -34.85213,25.1964 -40.60336,45.5536 -1.7475,6.18549 -1.83635,14.33861 -1.83635,168.5 l 0,162 2.33157,7.5 c 3.5992,11.57764 8.51224,19.54633 17.64517,28.61954 6.6457,6.60223 9.93427,8.98069 17.59812,12.72783 16.18994,7.91585 8.94913,7.53637 139.92514,7.33328 l 116.5,-0.18065 8,-2.80777 z m -154.778,-50.82771 c -3.43228,-2.56016 -5.722,-6.83281 -5.722,-10.67736 0,-3.23721 3.22136,-7.73038 9.75,-13.59933 l 4.25,-3.82055 0,-13.81555 0,-13.81554 -3.25,-2.22677 c -4.9519,-3.39283 -9.76265,-8.10786 -11.33532,-11.10976 -3.14338,-6.00008 -0.68502,-12.84499 8.09975,-22.55248 l 5.48557,-6.06175 0,-11.72655 0,-11.72655 -7,-7.36918 c -5.85988,-6.16893 -7,-7.92506 -7,-10.78214 0,-2.75257 0.72559,-3.98394 3.75,-6.36391 17.31808,-13.62797 46.87156,-13.49163 62.1224,0.28659 6.03979,5.45659 5.5155,7.46713 -4.68281,17.95734 l -6.18959,6.36676 0,11.8779 0,11.87789 4.55945,4.45821 c 14.67903,14.35308 14.00332,24.60578 -2.30945,35.0421 l -3.25,2.07923 4.9e-4,13.66844 4.9e-4,13.66844 5.0519,4.35061 c 2.77855,2.39284 6.221,6.11723 7.64988,8.27642 2.37113,3.58302 2.49646,4.26468 1.43526,7.80665 -1.67031,5.57499 -7.11928,10.06632 -12.21265,10.06632 -3.87638,0 -11.13703,-2.91543 -12.41654,-4.98571 -0.34477,-0.55786 -4.17375,-1.01429 -8.50883,-1.01429 -4.33508,0 -8.16406,0.45643 -8.50883,1.01429 -0.34478,0.55786 -2.37841,1.90786 -4.51918,3 -5.10225,2.60298 -11.64566,2.53871 -15.24999,-0.14977 z m 36.0461,-34.61452 -0.2681,-23.75 -4.5,-0.86351 c -2.93753,-0.56369 -5.97566,-0.4635 -8.75,0.28854 l -4.25,1.15206 0,23.46145 0,23.46146 9.0181,0 9.0181,0 -0.2681,-23.75 z m 4.2319,-34.99149 c 0,-7.18366 -24.77139,-6.85975 -25.79935,0.33735 -0.29103,2.0376 0.0635,2.09486 12.75,2.05955 13.03684,-0.0363 13.04935,-0.0386 13.04935,-2.3969 z m 0.5,-10.6886 c 0,-1.01974 -1.26804,-2.8008 -2.81787,-3.95791 -5.36962,-4.009 -21.70725,-2.25893 -23.21342,2.4866 -0.32879,1.03593 -0.37079,2.25081 -0.0933,2.69975 0.27746,0.44894 6.26901,0.77336 13.31455,0.72094 11.77307,-0.0876 12.81008,-0.2454 12.81008,-1.94938 z m -3.24254,-30.06991 c 0.27861,-14.81552 0.67251,-18.81273 2.2265,-22.59389 1.65097,-4.01715 1.72143,-4.99605 0.56117,-7.79716 -1.70373,-4.11317 -5.63884,-6.10895 -12.04513,-6.10895 -11.48015,0 -16.06103,7.07955 -11,17 1.76475,3.45919 2.00015,5.89527 2.00124,20.71016 l 10e-4,16.78984 8.95825,0 8.95826,0 0.33848,-18 z m -36.23753,-64.25155 c -4.46002,-2.2408 -8.01993,-7.56868 -8.01993,-12.00291 0,-2.928 1.07408,-4.56641 7,-10.67783 l 7,-7.21913 0,-13.63911 c 0,-12.92157 -0.11281,-13.69948 -2.14429,-14.78669 -3.42767,-1.83444 -10.8812,-9.0714 -12.43249,-12.07125 -3.1587,-6.10826 -0.52471,-13.38977 8.1693,-22.58355 l 5.40748,-5.71833 0,-11.94911 0,-11.94912 -7.06285,-7.28395 c -6.51287,-6.71675 -7.0385,-7.57694 -6.75,-11.04641 0.27349,-3.28915 1.00213,-4.24302 5.79213,-7.58261 15.48599,-10.79686 39.97352,-11.13024 56.31515,-0.76668 2.51752,1.59656 5.33466,4.05871 6.26031,5.47143 2.40067,3.66389 0.54645,7.54501 -7.27384,15.22509 l -6.2809,6.1683 0,11.69805 0,11.69805 5.5195,5.96172 c 12.97966,14.01958 12.59843,23.1275 -1.37312,32.80559 l -5.0527,3.5 -0.0468,13.40893 -0.0468,13.40892 6.46559,6.18546 c 3.55607,3.40201 6.90837,7.35009 7.44956,8.77353 2.04209,5.3711 -2.82316,13.54761 -9.3412,15.69875 -3.77796,1.24684 -8.36041,0.0933 -13.72074,-3.45403 -5.35647,-3.54475 -15.49942,-3.62504 -20.16993,-0.15966 -3.03959,2.25528 -8.73932,4.63985 -11.0825,4.63655 -0.60543,-8.6e-4 -2.66681,-0.78836 -4.58085,-1.75 z m 33.74817,-35.99845 -0.2681,-23.75 -6.46915,-0.30341 c -3.55803,-0.16687 -7.49553,-0.0458 -8.75,0.26906 l -2.28085,0.57245 0,23.48095 0,23.48095 9.0181,0 9.0181,0 -0.2681,-23.75 z m -6.2681,-32.45045 c 2.75,0.16475 6.125,0.38975 7.5,0.5 2.05345,0.16465 2.5,-0.2461 2.5,-2.29955 0,-3.3968 -5.32282,-5.9964 -12.28212,-5.99845 -8.73696,-0.003 -14.44425,3.36019 -12.83231,7.56084 0.49119,1.28003 1.45931,1.41557 5.35699,0.75 2.61659,-0.44681 7.00744,-0.67759 9.75744,-0.51284 z m 10.95256,-12.53652 c 0.7679,-2.00111 -2.86997,-5.02907 -7.55904,-6.2917 -4.18811,-1.12774 -8.47698,-0.7926 -14.59574,1.14054 -3.004,0.94907 -5.03954,3.87892 -3.93575,5.6649 0.27012,0.43706 6.13803,0.79466 13.03979,0.79466 9.41514,0 12.67403,-0.32672 13.05074,-1.3084 z m -3.45256,-29.88591 c 0,-15.13844 0.23974,-17.66486 2.06862,-21.79934 2.55662,-5.77967 1.91127,-9.57547 -2.21886,-13.05075 -2.32779,-1.95871 -4.11767,-2.52703 -7.9586,-2.52703 -11.95763,0 -16.69138,6.36236 -12.39116,16.65424 1.13522,2.71696 1.5,7.75533 1.5,20.71788 l 0,17.12788 9.5,0 9.5,0 0,-17.12288 z"
         id="path4145"
         inkscape:connector-curvature="0" />
      <path
         style="fill:#868f85"
         d="m 690.2973,-604.78527 c -24.71223,-3.24767 -45.8,-18.25785 -56.74132,-40.38823 -7.28963,-14.74432 -6.88252,-3.99103 -6.90184,-182.30259 -0.0194,-179.42781 -0.50616,-167.17611 7.27796,-183.19741 3.3466,-6.888 5.84375,-10.2264 13.16725,-17.6031 9.94399,-10.0162 17.74816,-14.9703 30.37078,-19.2796 l 7.66665,-2.6173 120,0 120,0 7.46476,2.344 c 20.63896,6.4809 36.74976,19.838 45.45112,37.6825 7.53445,15.45139 6.97508,1.9749 7.32492,176.4735 0.19368,96.60819 -0.0572,159.82272 -0.65546,165.18243 -3.35972,30.09733 -24.12709,53.62273 -55.08534,62.40102 -6.1239,1.73645 -13.03838,1.85352 -119.5,2.02336 -62.32169,0.0994 -116.06738,-0.22285 -119.83948,-0.71858 z m 236.13164,-5.44846 c 4.4089,-0.89246 11.74493,-3.50798 17.14035,-6.11108 7.80238,-3.76437 10.8488,-5.96714 17.62761,-12.74595 6.54062,-6.54063 9.03333,-9.9269 12.34717,-16.77329 7.59009,-15.68109 7.15322,-3.92303 6.8575,-184.56638 l -0.26479,-161.74307 -2.33033,-7 c -5.73165,-17.2171 -17.80442,-31.2873 -33.42937,-38.9602 -17.58909,-8.6375 -7.27403,-8.0398 -138.7403,-8.0398 -130.89593,0 -121.2521,-0.5328 -137.8781,7.617 -6.02361,2.9527 -10.52221,6.1553 -16.00762,11.396 -8.75575,8.3652 -14.00336,16.5746 -17.88987,27.987 l -2.72441,8 0,163 c 0,155.13168 0.0886,163.31377 1.83635,169.5 5.71187,20.21786 21.65109,37.94571 40.51783,45.06455 12.86606,4.85466 10.61623,4.77154 131.43798,4.85595 99.35554,0.0694 114.77004,-0.11844 121.5,-1.48073 z m -148.07016,-52.57525 c -3.43228,-2.56016 -5.722,-6.83281 -5.722,-10.67736 0,-3.23721 3.22136,-7.73038 9.75,-13.59933 l 4.25,-3.82055 0,-13.81555 0,-13.81554 -3.25,-2.22677 c -4.9519,-3.39283 -9.76265,-8.10786 -11.33532,-11.10976 -3.14338,-6.00008 -0.68502,-12.84499 8.09975,-22.55248 l 5.48557,-6.06175 0,-11.72655 0,-11.72655 -7,-7.36918 c -5.85988,-6.16893 -7,-7.92506 -7,-10.78214 0,-2.75257 0.72559,-3.98394 3.75,-6.36391 17.31808,-13.62797 46.87156,-13.49163 62.1224,0.28659 6.03979,5.45659 5.5155,7.46713 -4.68281,17.95734 l -6.18959,6.36676 0,11.8779 0,11.87789 4.55945,4.45821 c 14.67903,14.35308 14.00332,24.60578 -2.30945,35.0421 l -3.25,2.07923 4.9e-4,13.66844 4.9e-4,13.66844 5.0519,4.35061 c 2.77855,2.39284 6.221,6.11723 7.64988,8.27642 2.37113,3.58302 2.49646,4.26468 1.43526,7.80665 -1.67031,5.57499 -7.11928,10.06632 -12.21265,10.06632 -3.87638,0 -11.13703,-2.91543 -12.41654,-4.98571 -0.34477,-0.55786 -4.17375,-1.01429 -8.50883,-1.01429 -4.33508,0 -8.16406,0.45643 -8.50883,1.01429 -0.34478,0.55786 -2.37841,1.90786 -4.51918,3 -5.10225,2.60298 -11.64566,2.53871 -15.24999,-0.14977 z m 36.0461,-34.61452 -0.2681,-23.75 -4.5,-0.86351 c -2.93753,-0.56369 -5.97566,-0.4635 -8.75,0.28854 l -4.25,1.15206 0,23.46145 0,23.46146 9.0181,0 9.0181,0 -0.2681,-23.75 z m 4.2319,-34.99149 c 0,-7.18366 -24.77139,-6.85975 -25.79935,0.33735 -0.29103,2.0376 0.0635,2.09486 12.75,2.05955 13.03684,-0.0363 13.04935,-0.0386 13.04935,-2.3969 z m 0.5,-10.6886 c 0,-1.01974 -1.26804,-2.8008 -2.81787,-3.95791 -5.36962,-4.009 -21.70725,-2.25893 -23.21342,2.4866 -0.32879,1.03593 -0.37079,2.25081 -0.0933,2.69975 0.27746,0.44894 6.26901,0.77336 13.31455,0.72094 11.77307,-0.0876 12.81008,-0.2454 12.81008,-1.94938 z m -3.24254,-30.06991 c 0.27861,-14.81552 0.67251,-18.81273 2.2265,-22.59389 1.65097,-4.01715 1.72143,-4.99605 0.56117,-7.79716 -1.70373,-4.11317 -5.63884,-6.10895 -12.04513,-6.10895 -11.48015,0 -16.06103,7.07955 -11,17 1.76475,3.45919 2.00015,5.89527 2.00124,20.71016 l 10e-4,16.78984 8.95825,0 8.95826,0 0.33848,-18 z m -36.23753,-64.25155 c -4.46002,-2.2408 -8.01993,-7.56868 -8.01993,-12.00291 0,-2.928 1.07408,-4.56641 7,-10.67783 l 7,-7.21913 0,-13.63911 c 0,-12.92157 -0.11281,-13.69948 -2.14429,-14.78669 -3.42767,-1.83444 -10.8812,-9.0714 -12.43249,-12.07125 -3.1587,-6.10826 -0.52471,-13.38977 8.1693,-22.58355 l 5.40748,-5.71833 0,-11.94911 0,-11.94912 -7.06285,-7.28395 c -6.51287,-6.71675 -7.0385,-7.57694 -6.75,-11.04641 0.27349,-3.28915 1.00213,-4.24302 5.79213,-7.58261 15.48599,-10.79686 39.97352,-11.13024 56.31515,-0.76668 2.51752,1.59656 5.33466,4.05871 6.26031,5.47143 2.40067,3.66389 0.54645,7.54501 -7.27384,15.22509 l -6.2809,6.1683 0,11.69805 0,11.69805 5.5195,5.96172 c 12.97966,14.01958 12.59843,23.1275 -1.37312,32.80559 l -5.0527,3.5 -0.0468,13.40893 -0.0468,13.40892 6.46559,6.18546 c 3.55607,3.40201 6.90837,7.35009 7.44956,8.77353 2.04209,5.3711 -2.82316,13.54761 -9.3412,15.69875 -3.77796,1.24684 -8.36041,0.0933 -13.72074,-3.45403 -5.35647,-3.54475 -15.49942,-3.62504 -20.16993,-0.15966 -3.03959,2.25528 -8.73932,4.63985 -11.0825,4.63655 -0.60543,-8.6e-4 -2.66681,-0.78836 -4.58085,-1.75 z m 33.74817,-35.99845 -0.2681,-23.75 -6.46915,-0.30341 c -3.55803,-0.16687 -7.49553,-0.0458 -8.75,0.26906 l -2.28085,0.57245 0,23.48095 0,23.48095 9.0181,0 9.0181,0 -0.2681,-23.75 z m -6.2681,-32.45045 c 2.75,0.16475 6.125,0.38975 7.5,0.5 2.05345,0.16465 2.5,-0.2461 2.5,-2.29955 0,-3.3968 -5.32282,-5.9964 -12.28212,-5.99845 -8.73696,-0.003 -14.44425,3.36019 -12.83231,7.56084 0.49119,1.28003 1.45931,1.41557 5.35699,0.75 2.61659,-0.44681 7.00744,-0.67759 9.75744,-0.51284 z m 10.95256,-12.53652 c 0.7679,-2.00111 -2.86997,-5.02907 -7.55904,-6.2917 -4.18811,-1.12774 -8.47698,-0.7926 -14.59574,1.14054 -3.004,0.94907 -5.03954,3.87892 -3.93575,5.6649 0.27012,0.43706 6.13803,0.79466 13.03979,0.79466 9.41514,0 12.67403,-0.32672 13.05074,-1.3084 z m -3.45256,-29.88591 c 0,-15.13844 0.23974,-17.66486 2.06862,-21.79934 2.55662,-5.77967 1.91127,-9.57547 -2.21886,-13.05075 -2.32779,-1.95871 -4.11767,-2.52703 -7.9586,-2.52703 -11.95763,0 -16.69138,6.36236 -12.39116,16.65424 1.13522,2.71696 1.5,7.75533 1.5,20.71788 l 0,17.12788 9.5,0 9.5,0 0,-17.12288 z"
         id="path4143"
         inkscape:connector-curvature="0" />
      <path
         style="fill:#7f7f7f"
         d="m 690.2973,-604.78527 c -24.71223,-3.24767 -45.8,-18.25785 -56.74132,-40.38823 -7.28963,-14.74432 -6.88252,-3.99103 -6.90184,-182.30259 -0.0194,-179.42781 -0.50616,-167.17611 7.27796,-183.19741 3.3466,-6.888 5.84375,-10.2264 13.16725,-17.6031 9.94399,-10.0162 17.74816,-14.9703 30.37078,-19.2796 l 7.66665,-2.6173 120,0 120,0 7.46476,2.344 c 20.63896,6.4809 36.74976,19.838 45.45112,37.6825 7.53445,15.45139 6.97508,1.9749 7.32492,176.4735 0.19368,96.60819 -0.0572,159.82272 -0.65546,165.18243 -3.35972,30.09733 -24.12709,53.62273 -55.08534,62.40102 -6.1239,1.73645 -13.03838,1.85352 -119.5,2.02336 -62.32169,0.0994 -116.06738,-0.22285 -119.83948,-0.71858 z m 236.13164,-5.44846 c 4.4089,-0.89246 11.74493,-3.50798 17.14035,-6.11108 7.80238,-3.76437 10.8488,-5.96714 17.62761,-12.74595 6.54062,-6.54063 9.03333,-9.9269 12.34717,-16.77329 7.59009,-15.68109 7.15322,-3.92303 6.8575,-184.56638 l -0.26479,-161.74307 -2.33033,-7 c -5.73165,-17.2171 -17.80442,-31.2873 -33.42937,-38.9602 -17.58909,-8.6375 -7.27403,-8.0398 -138.7403,-8.0398 -130.89593,0 -121.2521,-0.5328 -137.8781,7.617 -6.02361,2.9527 -10.52221,6.1553 -16.00762,11.396 -8.75575,8.3652 -14.00336,16.5746 -17.88987,27.987 l -2.72441,8 0,163 c 0,155.13168 0.0886,163.31377 1.83635,169.5 5.71187,20.21786 21.65109,37.94571 40.51783,45.06455 12.86606,4.85466 10.61623,4.77154 131.43798,4.85595 99.35554,0.0694 114.77004,-0.11844 121.5,-1.48073 z m -146.89889,-51.87929 c -3.49822,-1.9784 -5.70948,-5.55895 -6.50484,-10.53285 -0.65155,-4.07458 -0.58608,-4.18482 6.97692,-11.74782 l 7.63465,-7.63465 0,-13.15416 0,-13.15417 -4.97019,-3.22057 c -7.74566,-5.01902 -11.02981,-9.59962 -11.02981,-15.38394 0,-6.21518 2.68865,-11.42091 9.56584,-18.52121 l 5.43416,-5.61046 0,-11.07922 0,-11.07921 -6.44956,-6.39223 c -10.19549,-10.10486 -10.91206,-14.64105 -3.15581,-19.97749 6.25761,-4.30536 13.26561,-6.82291 22.79907,-8.19037 7.02262,-1.0073 9.50939,-0.94458 16.0911,0.40585 8.92628,1.83148 16.77411,5.17352 21.4652,9.14108 2.51194,2.1245 3.25,3.53523 3.25,6.21201 0,2.91686 -1.10443,4.63014 -7,10.85893 l -7,7.39565 0,11.71176 0,11.71176 5.37489,5.63501 c 11.12293,11.66123 12.40866,19.60019 4.48687,27.70477 -2.39897,2.45433 -5.82426,5.3718 -7.61176,6.48329 l -3.25,2.02088 0,13.41201 0,13.41201 7,6.87615 c 6.34375,6.23151 7,7.2495 7,10.85855 0,4.54298 -3.19967,10.02975 -7.03002,12.055 -3.74838,1.98191 -10.25874,0.88805 -15.77238,-2.65004 -3.9827,-2.55569 -5.90159,-3.1268 -10.50591,-3.1268 -4.70231,0 -6.36928,0.51883 -10.08737,3.13958 -5.26673,3.71233 -12.55946,4.76882 -16.71105,2.4209 z m 35.87487,-34.82833 0.26814,-23.76786 -2.58324,-0.98214 c -3.31173,-1.25912 -10.58485,-1.26273 -13.88794,-0.007 l -2.5651,0.97535 0,23.46139 0,23.46139 3.25,0.42393 c 1.7875,0.23317 5.95,0.37418 9.25,0.31336 l 6,-0.11057 0.26814,-23.76785 z m 3.42246,-33.52275 c 3.28389,-3.28389 -6.33639,-8.73974 -14.08999,-7.99071 -6.60577,0.63814 -12.10061,3.46652 -12.10061,6.22858 0,1.22067 0.20658,2.42597 0.45906,2.67845 0.96843,0.96843 24.69159,0.12363 25.73154,-0.91632 z m -10.1906,-10.68258 c 9.75309,-0.0249 10.5,-0.16626 10.5,-1.98699 0,-3.38626 -6.00442,-6.54293 -12.39788,-6.51787 -6.98818,0.0274 -14.10212,2.99334 -14.10212,5.87946 0,2.19908 2.86497,4.30567 4.47864,3.2931 0.56175,-0.35249 5.74636,-0.65296 11.52136,-0.6677 z m 9.01887,-51.78983 c 2.55969,-4.19815 2.54499,-9.75045 -0.0345,-13.02974 -4.65298,-5.91531 -15.86379,-6.02782 -21.67408,-0.21753 -3.83756,3.83756 -4.12653,6.48636 -1.31028,12.01028 1.77924,3.48989 2,5.89718 2,21.80963 l 0,17.88674 5.75,-0.59618 c 3.1625,-0.3279 7.325,-0.24077 9.25,0.19363 l 3.5,0.78981 0.27261,-17.80482 c 0.23993,-15.67082 0.50916,-18.1928 2.24626,-21.04182 z m -38.92247,-45.00173 c -3.58584,-1.84284 -6.17298,-5.88732 -6.8116,-10.6486 -0.56382,-4.20356 -0.5027,-4.30496 7.07323,-11.73496 l 7.64197,-7.49476 0,-12.8433 0,-12.8433 -4.91895,-3.61084 c -6.78699,-4.98211 -10.86309,-9.88075 -11.63198,-13.97927 -0.93338,-4.97535 2.99593,-12.89806 9.90821,-19.97805 l 5.64272,-5.77963 0,-11.00851 0,-11.0085 -6.36767,-6.65277 c -9.60289,-10.03284 -10.68451,-13.3134 -5.88233,-17.84107 7.45976,-7.03335 25.83781,-12.07003 37.83972,-10.37035 9.20867,1.30411 18.14987,4.55169 23.66028,8.59378 7.56839,5.55169 6.58483,10.05467 -4.5,20.60225 l -4.75,4.51979 0,11.78776 0,11.78776 5.37087,5.80117 c 6.90946,7.46305 10.04777,13.80828 9.3612,18.92706 -0.66164,4.93285 -3.4295,8.58376 -10.24144,13.50885 l -5.49063,3.96976 0,13.72071 0,13.72071 5.03171,4.2428 c 8.53665,7.19821 10.69695,12.6327 7.48827,18.83761 -4.09294,7.91488 -11.58185,9.17983 -20.94996,3.53864 -4.85165,-2.92151 -6.76376,-3.5 -11.56873,-3.5 -4.01572,0 -6.15119,0.47569 -7.06195,1.57309 -3.81766,4.6 -13.73041,6.7896 -18.84294,4.16217 z m 35.24857,-24.39337 c 0.36027,-7.51196 0.65503,-18.26794 0.65503,-23.90218 l 0,-10.24406 -3.14922,-1.09782 c -4.01068,-1.39813 -8.69088,-1.39813 -12.70156,0 l -3.14922,1.09782 0,23.90218 0,23.90217 8.84497,0 8.84497,0 0.65503,-13.65811 z m 3.91879,-44.22251 c 1.94587,-1.97242 -4.10254,-6.8227 -9.52141,-7.63531 -4.91537,-0.7371 -12.31436,0.87371 -14.99235,3.26394 -1.6304,1.45522 -2.32959,4.33907 -1.30131,5.36735 0.24678,0.24678 5.87797,0.40559 12.51376,0.35291 8.23117,-0.0653 12.4579,-0.49398 13.30131,-1.34889 z m -17.40231,-10.1739 c 2.95188,-0.68063 6.17068,-0.67118 9.95951,0.0292 4.65354,0.86025 5.85511,0.7778 7.1216,-0.48869 1.99962,-1.99962 0.57295,-4.39115 -4.01745,-6.73446 -7.34448,-3.74918 -21.92511,-0.6793 -21.92511,4.61624 0,3.61812 1.92305,4.17751 8.86145,2.57771 z m 6.63855,-14.39415 c 0.55,0.15158 2.4625,0.52829 4.25,0.83714 l 3.25,0.56153 0,-17.76356 c 0,-15.78926 0.22229,-18.19956 2,-21.68644 2.67966,-5.25599 2.51901,-8.72974 -0.5737,-12.40521 -5.18527,-6.16236 -15.46941,-6.20553 -21.58432,-0.0906 -3.33881,3.33881 -3.51679,5.91188 -0.82002,11.85503 1.73218,3.81739 1.97804,6.56062 1.97804,22.07072 l 0,17.71152 5.25,-0.68286 c 2.8875,-0.37557 5.7,-0.55883 6.25,-0.40725 z"
         id="path4141"
         inkscape:connector-curvature="0" />
      <path
         style="fill:#475145"
         d="m 686.40017,-605.70631 c -22.2233,-3.74204 -42.51098,-18.68635 -52.18964,-38.44391 -7.64823,-15.61275 -7.07375,-0.70836 -7.07375,-183.52328 l 0,-163.5 2.34186,-7.5 c 4.01921,-12.8718 8.69799,-20.6379 18.1087,-30.0577 9.48425,-9.4934 18.7644,-15.0205 32.07681,-19.1042 l 7.47263,-2.2924 113,-0.3195 c 76.28811,-0.2157 115.64525,0.028 121.14215,0.7501 25.78424,3.3869 46.57437,18.1944 56.89614,40.5237 6.83836,14.79355 6.46357,4.2263 6.44435,181.69741 -0.0195,179.8665 0.49984,167.33715 -7.61746,183.78086 -3.81228,7.72277 -6.19183,10.99124 -12.8477,17.6471 -6.94757,6.94758 -9.7273,8.92349 -18.59316,13.21655 -17.77686,8.608 -10.21578,8.17416 -140.13216,8.04046 -62.86069,-0.0647 -116.42364,-0.47652 -119.02877,-0.91519 z m 233.23661,-3.00068 c 28.68666,-3.7168 51.2775,-22.83962 59.61888,-50.46651 1.70873,-5.65935 1.83083,-14.82854 2.15057,-161.5 0.22941,-105.23438 -0.004,-158.48067 -0.72118,-164.72091 -1.90921,-16.60549 -7.87127,-29.02279 -19.5636,-40.74549 -8.14411,-8.1653 -16.73184,-13.477 -27.98467,-17.3092 l -8,-2.7244 -119.5,0 -119.5,0 -8,2.8236 c -12.00778,4.2381 -18.12064,8.1453 -27.53909,17.6023 -8.65746,8.6929 -12.79966,15.1258 -17.25607,26.7988 l -2.20484,5.7753 -0.26757,162.76844 c -0.29642,180.32464 -0.68627,168.87462 6.23771,183.20393 9.9197,20.52902 31.08104,35.48821 54.52986,38.54777 8.56277,1.11725 219.34567,1.06767 228,-0.0536 z m -140.10673,-53.40603 c -3.49822,-1.9784 -5.70948,-5.55895 -6.50484,-10.53285 -0.65155,-4.07458 -0.58608,-4.18482 6.97692,-11.74782 l 7.63465,-7.63465 0,-13.15416 0,-13.15417 -4.97019,-3.22057 c -7.74566,-5.01902 -11.02981,-9.59962 -11.02981,-15.38394 0,-6.21518 2.68865,-11.42091 9.56584,-18.52121 l 5.43416,-5.61046 0,-11.07922 0,-11.07921 -6.44956,-6.39223 c -10.19549,-10.10486 -10.91206,-14.64105 -3.15581,-19.97749 6.25761,-4.30536 13.26561,-6.82291 22.79907,-8.19037 7.02262,-1.0073 9.50939,-0.94458 16.0911,0.40585 8.92628,1.83148 16.77411,5.17352 21.4652,9.14108 2.51194,2.1245 3.25,3.53523 3.25,6.21201 0,2.91686 -1.10443,4.63014 -7,10.85893 l -7,7.39565 0,11.71176 0,11.71176 5.37489,5.63501 c 11.12293,11.66123 12.40866,19.60019 4.48687,27.70477 -2.39897,2.45433 -5.82426,5.3718 -7.61176,6.48329 l -3.25,2.02088 0,13.41201 0,13.41201 7,6.87615 c 6.34375,6.23151 7,7.2495 7,10.85855 0,4.54298 -3.19967,10.02975 -7.03002,12.055 -3.74838,1.98191 -10.25874,0.88805 -15.77238,-2.65004 -3.9827,-2.55569 -5.90159,-3.1268 -10.50591,-3.1268 -4.70231,0 -6.36928,0.51883 -10.08737,3.13958 -5.26673,3.71233 -12.55946,4.76882 -16.71105,2.4209 z m 35.87487,-34.82833 0.26814,-23.76786 -2.58324,-0.98214 c -3.31173,-1.25912 -10.58485,-1.26273 -13.88794,-0.007 l -2.5651,0.97535 0,23.46139 0,23.46139 3.25,0.42393 c 1.7875,0.23317 5.95,0.37418 9.25,0.31336 l 6,-0.11057 0.26814,-23.76785 z m 3.42246,-33.52275 c 3.28389,-3.28389 -6.33639,-8.73974 -14.08999,-7.99071 -6.60577,0.63814 -12.10061,3.46652 -12.10061,6.22858 0,1.22067 0.20658,2.42597 0.45906,2.67845 0.96843,0.96843 24.69159,0.12363 25.73154,-0.91632 z m -10.1906,-10.68258 c 9.75309,-0.0249 10.5,-0.16626 10.5,-1.98699 0,-3.38626 -6.00442,-6.54293 -12.39788,-6.51787 -6.98818,0.0274 -14.10212,2.99334 -14.10212,5.87946 0,2.19908 2.86497,4.30567 4.47864,3.2931 0.56175,-0.35249 5.74636,-0.65296 11.52136,-0.6677 z m 9.01887,-51.78983 c 2.55969,-4.19815 2.54499,-9.75045 -0.0345,-13.02974 -4.65298,-5.91531 -15.86379,-6.02782 -21.67408,-0.21753 -3.83756,3.83756 -4.12653,6.48636 -1.31028,12.01028 1.77924,3.48989 2,5.89718 2,21.80963 l 0,17.88674 5.75,-0.59618 c 3.1625,-0.3279 7.325,-0.24077 9.25,0.19363 l 3.5,0.78981 0.27261,-17.80482 c 0.23993,-15.67082 0.50916,-18.1928 2.24626,-21.04182 z m -38.92247,-45.00173 c -3.58584,-1.84284 -6.17298,-5.88732 -6.8116,-10.6486 -0.56382,-4.20356 -0.5027,-4.30496 7.07323,-11.73496 l 7.64197,-7.49476 0,-12.8433 0,-12.8433 -4.91895,-3.61084 c -6.78699,-4.98211 -10.86309,-9.88075 -11.63198,-13.97927 -0.93338,-4.97535 2.99593,-12.89806 9.90821,-19.97805 l 5.64272,-5.77963 0,-11.00851 0,-11.0085 -6.36767,-6.65277 c -9.60289,-10.03284 -10.68451,-13.3134 -5.88233,-17.84107 7.45976,-7.03335 25.83781,-12.07003 37.83972,-10.37035 9.20867,1.30411 18.14987,4.55169 23.66028,8.59378 7.56839,5.55169 6.58483,10.05467 -4.5,20.60225 l -4.75,4.51979 0,11.78776 0,11.78776 5.37087,5.80117 c 6.90946,7.46305 10.04777,13.80828 9.3612,18.92706 -0.66164,4.93285 -3.4295,8.58376 -10.24144,13.50885 l -5.49063,3.96976 0,13.72071 0,13.72071 5.03171,4.2428 c 8.53665,7.19821 10.69695,12.6327 7.48827,18.83761 -4.09294,7.91488 -11.58185,9.17983 -20.94996,3.53864 -4.85165,-2.92151 -6.76376,-3.5 -11.56873,-3.5 -4.01572,0 -6.15119,0.47569 -7.06195,1.57309 -3.81766,4.6 -13.73041,6.7896 -18.84294,4.16217 z m 35.24857,-24.39337 c 0.36027,-7.51196 0.65503,-18.26794 0.65503,-23.90218 l 0,-10.24406 -3.14922,-1.09782 c -4.01068,-1.39813 -8.69088,-1.39813 -12.70156,0 l -3.14922,1.09782 0,23.90218 0,23.90217 8.84497,0 8.84497,0 0.65503,-13.65811 z m 3.91879,-44.22251 c 1.94587,-1.97242 -4.10254,-6.8227 -9.52141,-7.63531 -4.91537,-0.7371 -12.31436,0.87371 -14.99235,3.26394 -1.6304,1.45522 -2.32959,4.33907 -1.30131,5.36735 0.24678,0.24678 5.87797,0.40559 12.51376,0.35291 8.23117,-0.0653 12.4579,-0.49398 13.30131,-1.34889 z m -17.40231,-10.1739 c 2.95188,-0.68063 6.17068,-0.67118 9.95951,0.0292 4.65354,0.86025 5.85511,0.7778 7.1216,-0.48869 1.99962,-1.99962 0.57295,-4.39115 -4.01745,-6.73446 -7.34448,-3.74918 -21.92511,-0.6793 -21.92511,4.61624 0,3.61812 1.92305,4.17751 8.86145,2.57771 z m 6.63855,-14.39415 c 0.55,0.15158 2.4625,0.52829 4.25,0.83714 l 3.25,0.56153 0,-17.76356 c 0,-15.78926 0.22229,-18.19956 2,-21.68644 2.67966,-5.25599 2.51901,-8.72974 -0.5737,-12.40521 -5.18527,-6.16236 -15.46941,-6.20553 -21.58432,-0.0906 -3.33881,3.33881 -3.51679,5.91188 -0.82002,11.85503 1.73218,3.81739 1.97804,6.56062 1.97804,22.07072 l 0,17.71152 5.25,-0.68286 c 2.8875,-0.37557 5.7,-0.55883 6.25,-0.40725 z"
         id="path4139"
         inkscape:connector-curvature="0" />
      <path
         style="fill:#0e1f0b"
         d="m 684.18902,-606.32558 c -26.662,-5.71414 -48.21436,-26.11703 -55.29713,-52.34792 -1.63961,-6.07226 -1.75511,-17.1936 -1.75511,-169 0,-152.90198 0.10545,-162.88205 1.78525,-168.96835 5.63257,-20.40805 19.27493,-36.85175 38.21475,-46.06185 16.31591,-7.9341 7.67665,-7.4698 139,-7.4698 l 117,0 7.94341,2.3 c 23.89594,6.919 42.23997,23.9703 50.24065,46.7 l 2.81594,8 0,165.5 0,165.5 -2.72441,8 c -6.89372,20.2428 -21.94025,36.14414 -41.78647,44.16038 -13.37194,5.40117 -11.96285,5.34622 -134.82709,5.25809 -96.66319,-0.0693 -114.70111,-0.30421 -120.60979,-1.57055 z m 246.43143,-4.19729 c 24.87583,-7.60252 42.09743,-24.97186 48.73259,-49.15063 1.67746,-6.1127 1.78374,-16.12288 1.78374,-168 0,-180.9873 0.60829,-165.80251 -7.29081,-182 -5.59863,-11.4802 -17.69584,-23.2472 -30.20919,-29.3846 -16.23674,-7.9636 -9.25264,-7.5785 -137.80259,-7.598 -127.64292,-0.019 -121.4373,-0.3382 -136.69741,7.0212 -14.64211,7.0612 -25.16438,17.4104 -32.00303,31.4766 -6.86536,14.12105 -6.46584,2.9917 -6.48219,180.57484 -0.0144,156.58235 0.0344,160.78246 1.95722,168.30048 3.06493,11.98377 8.22037,20.88942 17.48112,30.19741 11.69425,11.7539 24.55369,18.2386 40.26998,20.30717 3.7273,0.49059 57.6269,0.81338 119.7769,0.71733 l 113,-0.17465 7.48367,-2.28715 z m -149.56523,-51.06831 c -2.9825,-1.27987 -7.13958,-6.5362 -7.89715,-9.98538 -0.90606,-4.12527 1.29285,-7.85599 8.44543,-14.3287 l 6.03328,-5.45981 0,-13.57266 0,-13.57265 -3.25,-2.07923 c -16.26405,-10.40515 -16.97933,-20.96177 -2.37433,-35.0421 l 4.62433,-4.45821 0,-11.89555 0,-11.89555 -6.94686,-7.01604 c -8.47303,-8.55742 -9.51954,-11.63641 -5.41219,-15.92356 4.06273,-4.24057 13.58527,-8.6208 22.84653,-10.50906 6.61904,-1.34955 9.22777,-1.43573 15.22699,-0.50305 9.65286,1.50069 17.37201,4.31585 23.08374,8.41859 7.49565,5.38413 7.0414,8.99378 -2.35693,18.72876 l -6.44128,6.672 0,11.76266 0,11.76265 5.48557,6.06175 c 9.20473,10.17156 11.43736,17.0869 7.56623,23.43567 -1.92729,3.16081 -11.39852,11.31715 -13.1416,11.31715 -0.50412,0 -0.9102,6.32369 -0.9102,14.17429 l 0,14.17429 7,7.21913 c 7.83423,8.07948 8.71512,11.107 5.00311,17.1952 -4.26209,6.9904 -11.58509,7.79059 -20.36128,2.2249 -6.73868,-4.27355 -14.49433,-4.24016 -21.46396,0.0924 -5.2372,3.25562 -11.29657,4.48811 -14.75943,3.00211 z m 34.58156,-35.04714 c 0,-22.66985 -0.10452,-24.02075 -1.93426,-25 -2.44405,-1.30801 -11.12358,-1.34389 -14.50064,-0.0599 l -2.5651,0.97522 0,23.45833 0,23.45833 2.75,0.41659 c 1.5125,0.22912 5.7875,0.48401 9.5,0.56642 l 6.75,0.14983 0,-23.96482 z m 3.5,-34.95831 c 0,-4.22718 -4.60727,-6.58069 -12.82333,-6.55048 -8.55634,0.0315 -13.67667,2.2151 -13.67667,5.83262 0,1.26921 0.19412,2.50177 0.43137,2.73903 0.23725,0.23725 6.19975,0.41077 13.25,0.38561 12.79241,-0.0457 12.81863,-0.0506 12.81863,-2.40678 z m -8.18041,-9.29408 8.81958,0.2828 -0.31958,-2.7828 c -0.93851,-8.17205 -25.506,-8.5369 -26.65708,-0.39588 -0.44226,3.1279 1.5181,4.25175 5.83749,3.34656 1.925,-0.40341 7.46881,-0.60621 12.31959,-0.45068 z m 6.93041,-52.48313 c 6.40952,-11.72151 -5.76198,-21.58705 -18.82875,-15.26154 -5.97598,2.89292 -7.43343,6.71631 -4.90521,12.86799 1.55979,3.79527 1.94739,7.78814 2.22958,22.96812 l 0.34158,18.37424 5.7064,-0.59802 c 3.13852,-0.32891 7.2814,-0.25304 9.2064,0.16859 l 3.5,0.76661 0.5,-18.04282 c 0.40541,-14.62955 0.83106,-18.64826 2.25,-21.24317 z m -39.78161,-45.09648 c -3.85834,-2.42852 -6.96918,-9.07172 -6.01965,-12.85496 0.38315,-1.52659 3.81393,-5.79553 7.62395,-9.48653 l 6.92731,-6.7109 0,-13.54971 0,-13.54972 -2.91411,-1.50694 c -4.89772,-2.53272 -12.68839,-10.80694 -13.36616,-14.19578 -1.24002,-6.20009 3.04087,-14.22605 12.15346,-22.78573 l 3.12681,-2.93709 0,-11.83533 0,-11.83533 -5.56948,-5.30908 c -10.36907,-9.88428 -11.54632,-13.5812 -5.90272,-18.53635 15.72122,-13.80341 47.65546,-13.54941 62.80663,0.49955 4.62423,4.28783 3.20177,8.57602 -5.75739,17.35656 l -5.57704,5.46584 0,12.44375 0,12.44374 5.37489,5.63501 c 5.92614,6.21294 9.62511,12.57534 9.62511,16.55564 0,4.93385 -4.54176,10.77566 -12.75,16.3996 l -3.25,2.22677 0,13.82846 0,13.82845 7,7 c 7.823,7.82301 8.72836,10.86003 5.04048,16.90835 -4.30758,7.06468 -12.71724,8.02599 -20.74027,2.37083 -3.70547,-2.61185 -5.26646,-3.07228 -10.41597,-3.07228 -5.19669,0 -6.67914,0.44658 -10.43423,3.14328 -5.60645,4.02625 -12.52434,4.8654 -16.98162,2.0599 z m 35.87323,-22.95318 c 0.35765,-7.0125 0.65209,-17.82364 0.65432,-24.02475 0.004,-11.18415 -0.0165,-11.28259 -2.56104,-12.25 -1.4108,-0.53639 -4.53151,-0.97525 -6.9349,-0.97525 -2.40339,0 -5.5241,0.43886 -6.9349,0.97525 l -2.5651,0.97525 0,24.02475 0,24.02475 8.84568,0 8.84568,0 0.65026,-12.75 z m 4.47458,-45.98323 c 0.23018,-1.61288 -0.57711,-2.75891 -2.96742,-4.21254 -5.11032,-3.10777 -10.95878,-3.57913 -17.60794,-1.41915 -5.19892,1.68888 -5.76923,2.15573 -6.04157,4.94557 l -0.30073,3.08066 13.30073,-0.0894 c 12.93893,-0.087 13.30933,-0.14971 13.61693,-2.30509 z m -13.3162,-9.68353 c 1.65,-0.009 4.8,0.31133 7,0.71111 5.02429,0.91301 6.98228,-0.23666 6.13723,-3.60359 -0.88448,-3.52405 -7.82214,-6.09106 -14.86135,-5.49886 -8.93724,0.75188 -13.11593,3.8736 -11.34893,8.47833 0.48702,1.26917 1.46313,1.40477 5.33457,0.74109 2.60617,-0.44678 6.08848,-0.81941 7.73848,-0.82808 z m 9.5,-30.37308 c 0,-15.3164 0.22828,-17.7373 2,-21.21016 2.90673,-5.69765 2.62946,-10.52439 -0.80167,-13.95552 -5.40831,-5.4083 -16.64985,-4.86189 -21.62533,1.05113 -3.09203,3.67467 -3.25251,7.14869 -0.573,12.40439 1.77486,3.48129 2,5.89718 2,21.46144 l 0,17.53856 9.5,0 9.5,0 0,-17.28984 z"
         id="path4137"
         inkscape:connector-curvature="0" />
      <path
         style="fill:#000000"
         d="m 684.18902,-606.32558 c -26.662,-5.71414 -48.21436,-26.11703 -55.29713,-52.34792 -1.63961,-6.07226 -1.75511,-17.1936 -1.75511,-169 0,-152.90198 0.10545,-162.88205 1.78525,-168.96835 5.63257,-20.40805 19.27493,-36.85175 38.21475,-46.06185 16.31591,-7.9341 7.67665,-7.4698 139,-7.4698 l 117,0 7.94341,2.3 c 23.89594,6.919 42.23997,23.9703 50.24065,46.7 l 2.81594,8 0,165.5 0,165.5 -2.72441,8 c -6.89372,20.2428 -21.94025,36.14414 -41.78647,44.16038 -13.37194,5.40117 -11.96285,5.34622 -134.82709,5.25809 -96.66319,-0.0693 -114.70111,-0.30421 -120.60979,-1.57055 z m 246.43143,-4.19729 c 24.87583,-7.60252 42.09743,-24.97186 48.73259,-49.15063 1.67746,-6.1127 1.78374,-16.12288 1.78374,-168 0,-180.9873 0.60829,-165.80251 -7.29081,-182 -5.59863,-11.4802 -17.69584,-23.2472 -30.20919,-29.3846 -16.23674,-7.9636 -9.25264,-7.5785 -137.80259,-7.598 -127.64292,-0.019 -121.4373,-0.3382 -136.69741,7.0212 -14.64211,7.0612 -25.16438,17.4104 -32.00303,31.4766 -6.86536,14.12105 -6.46584,2.9917 -6.48219,180.57484 -0.0144,156.58235 0.0344,160.78246 1.95722,168.30048 3.06493,11.98377 8.22037,20.88942 17.48112,30.19741 11.69425,11.7539 24.55369,18.2386 40.26998,20.30717 3.7273,0.49059 57.6269,0.81338 119.7769,0.71733 l 113,-0.17465 7.48367,-2.28715 z"
         id="path4135"
         inkscape:connector-curvature="0" />
    </g>
  </g>
</svg>
