<?xml version="1.0" encoding="UTF-8" standalone="no"?>
<!-- Created with Inkscape (http://www.inkscape.org/) -->

<svg
   xmlns:dc="http://purl.org/dc/elements/1.1/"
   xmlns:cc="http://creativecommons.org/ns#"
   xmlns:rdf="http://www.w3.org/1999/02/22-rdf-syntax-ns#"
   xmlns:svg="http://www.w3.org/2000/svg"
   xmlns="http://www.w3.org/2000/svg"
   xmlns:sodipodi="http://sodipodi.sourceforge.net/DTD/sodipodi-0.dtd"
   xmlns:inkscape="http://www.inkscape.org/namespaces/inkscape"
   width="358.75864"
   height="445.78812"
   id="svg2"
   version="1.1"
   inkscape:version="0.48.5 r10040"
   sodipodi:docname="char7.svg">
  <defs
     id="defs4" />
  <sodipodi:namedview
     id="base"
     pagecolor="#ffffff"
     bordercolor="#666666"
     borderopacity="1.0"
     inkscape:pageopacity="0.0"
     inkscape:pageshadow="2"
     inkscape:zoom="1.1210937"
     inkscape:cx="216.85832"
     inkscape:cy="175.57833"
     inkscape:document-units="px"
     inkscape:current-layer="layer1"
     showgrid="false"
     fit-margin-top="0"
     fit-margin-left="0"
     fit-margin-right="0"
     fit-margin-bottom="0"
     inkscape:window-width="958"
     inkscape:window-height="1078"
     inkscape:window-x="1920"
     inkscape:window-y="0"
     inkscape:window-maximized="0" />
  <metadata
     id="metadata7">
    <rdf:RDF>
      <cc:Work
         rdf:about="">
        <dc:format>image/svg+xml</dc:format>
        <dc:type
           rdf:resource="http://purl.org/dc/dcmitype/StillImage" />
        <dc:title></dc:title>
      </cc:Work>
    </rdf:RDF>
  </metadata>
  <g
     inkscape:label="Layer 1"
     inkscape:groupmode="layer"
     id="layer1"
     transform="translate(-889.29326,377.79813)">
    <g
       id="g3420"
       transform="translate(222.99652,48.167247)">
      <path
         style="fill:#e0c5c6"
         d="m 721.55013,17.99315 c -25.83798,-6.35397 -46.16316,-25.91489 -53.10144,-51.10475 -1.68678,-6.12394 -1.79036,-15.98825 -1.79036,-170.5 l 0,-164 2.72119,-8.02108 c 6.58729,-19.41694 20.07769,-34.5433 38.45975,-43.12373 15.53453,-7.25125 7.57202,-6.85519 137.81906,-6.85519 107.67978,0 117.53611,0.13789 123.72998,1.73097 21.57143,5.54822 39.03259,19.35273 48.35799,38.23099 7.9172,16.02759 7.4814,4.7039 7.1798,186.54379 l -0.2678,161.49425 -2.7145,8 c -8.1407,23.99133 -27.44117,41.61185 -52.03823,47.50878 -7.98028,1.91321 -12.01834,1.97505 -124.74724,1.9106 -107.3876,-0.0614 -117.05599,-0.20334 -123.6082,-1.81463 z m 248.1082,-4.45957 c 24.54508,-7.29415 42.87147,-25.67763 48.95287,-49.10528 1.3654,-5.26002 1.5454,-24.87605 1.5323,-167 -0.013,-139.86941 -0.2126,-161.8794 -1.5201,-167.42586 -4.1948,-17.79547 -18.2089,-34.95055 -35.53993,-43.5056 -16.10889,-7.95176 -9.23566,-7.57155 -137.22773,-7.59108 -128.16919,-0.0195 -120.72468,-0.43486 -137.62992,7.67808 -17.26201,8.28416 -30.7858,24.9294 -35.55755,43.76466 -2.2474,8.87104 -2.25545,323.75266 -0.009,333.2824 6.14181,26.04879 28.56463,46.52751 56.07358,51.21189 2.70875,0.46126 56.675,0.75657 119.925,0.65624 107.11071,-0.16989 115.41162,-0.30473 121,-1.96545 z m -99.5,-43.76691 c -11.73355,-2.5339 -31.59361,-8.96017 -39.15229,-12.6688 l -5.65229,-2.77327 -3.18175,2.8429 c -2.47643,2.21268 -3.79773,2.7076 -5.96041,2.2326 -4.39037,-0.96429 -9.508,2.04299 -11.69083,6.8699 -2.09489,4.63245 -5.29312,5.71818 -10.49587,3.56313 -4.23629,-1.75473 -6.56438,-5.64208 -9.03509,-15.08641 -1.20262,-4.59708 -2.24011,-8.45425 -2.30553,-8.57149 -0.0654,-0.11724 -2.57302,0.43992 -5.57244,1.23813 -17.11675,4.55516 -29.93931,-1.17823 -29.94976,-13.39154 -0.004,-4.25945 0.0637,-4.35018 2.74626,-3.69831 1.5125,0.36754 8.87813,0.92579 16.36807,1.24055 l 13.61806,0.57229 -2.41514,-11.37397 c -1.32834,-6.25569 -2.50647,-15.19898 -2.61807,-19.87398 -0.19412,-8.13157 -0.10511,-8.51389 2.0536,-8.82041 3.46951,-0.49263 7.79794,4.48405 9.01663,10.367 5.82308,28.10969 5.33614,26.45341 7.77723,26.45341 2.68145,0 26.63808,-6.76797 27.60445,-7.79851 0.36179,-0.38582 0.41785,-3.91721 0.12456,-7.84754 l -0.53325,-7.14606 -4.62307,1.53778 c -6.0123,1.99987 -7.12022,2.95101 -7.13672,6.12677 -0.0438,8.41923 -3.92336,9.50699 -7.58811,2.12756 -4.97691,-10.02165 -9.15091,-34.14738 -7.91098,-45.72559 0.90683,-8.46786 3.09686,-10.68725 9.70031,-9.83036 6.64535,0.86232 16.09876,-1.53878 37.22815,-9.45569 36.27453,-13.5916 41.82266,-14.73509 47.98283,-9.8895 4.50896,3.54675 3.60381,7.23713 -3.38211,13.78919 -5.38278,5.04849 -6.13916,6.26457 -7.53339,12.11195 -0.88219,3.69992 -1.8123,13.82329 -2.15913,23.5 l -0.60929,17 16.39269,0.0489 c 15.24505,0.0455 16.95275,0.24268 24.39268,2.81629 12.27199,4.24509 20.10255,8.47992 24.49849,13.24895 3.52718,3.82653 4.00151,4.91868 4.00151,9.21343 0,3.78455 -0.64466,5.76223 -2.88761,8.85853 -8.39103,11.58348 -39.49225,28.0433 -56.11239,29.69657 -3.66147,0.36422 -8.67564,-0.13868 -15,-1.50445 z m -48.04105,-31.69566 c 0.0474,-4.98528 1.82801,-5.05253 -15.63135,0.59036 l -11.17239,3.61094 2.04341,4.05804 c 3.56288,7.07559 3.02876,7.02756 14.3696,1.29218 l 10.34968,-5.23413 0.041,-4.31739 z m 49.62333,11.26551 c 19.87676,-5.76006 30.88915,-12.23036 35.25188,-20.71214 2.36665,-4.60113 2.38898,-4.83193 0.65315,-6.75 -2.13852,-2.36304 -8.08261,-2.59761 -21.66959,-0.85515 l -8.81772,1.13083 0,6.67217 c 0,5.84238 -0.37361,7.1802 -3.00417,10.75721 -3.42497,4.65722 -9.05177,7.76272 -12.49799,6.89777 -1.28295,-0.322 -3.28685,-2.12939 -4.4531,-4.01642 -1.16625,-1.88703 -2.66592,-3.61879 -3.3326,-3.84836 -1.28098,-0.44111 -9.90084,2.25294 -13.86442,4.33318 -1.29125,0.6777 -4.11396,2.61725 -6.27271,4.31011 -3.87493,3.03867 -3.89406,3.08657 -1.5,3.75562 1.33375,0.37274 8.78715,0.72256 16.56312,0.77738 12.37376,0.0872 15.23709,-0.21878 22.94415,-2.4522 z M 852.35332,-69.1333 c 2.56715,-1.18994 4.38498,-3.73166 3.38445,-4.73219 -0.2572,-0.2572 -5.62149,0.73087 -11.92066,2.19572 -9.8015,2.27929 -11.53799,2.98021 -12.04225,4.86076 -1.56211,5.82564 -1.27602,5.90164 8.63347,2.2932 5.0875,-1.85256 10.46274,-3.93043 11.94499,-4.61749 z m -6.37356,-16.82184 10.32143,-2.65646 -0.57143,-2.875 c -0.31429,-1.58125 -0.57143,-4.22672 -0.57143,-5.87883 l 0,-3.00383 -5.25,0.66993 c -2.8875,0.36846 -8.0625,1.14763 -11.5,1.73149 l -6.25,1.06155 0,7.50433 c 0,6.74719 0.17657,7.43366 1.75,6.80381 0.9625,-0.38529 6.39464,-1.89593 12.07143,-3.35699 z m -29.57143,-14.20904 c 4.12449,-1.14543 4.38173,-2.05931 3.13665,-11.14316 l -0.61335,-4.47488 -4.38665,1.57743 -4.38665,1.57743 0,6.75788 c 0,7.39039 0.0425,7.4292 6.25,5.7053 z m 23.15893,-7.45824 c 2.69991,-0.81905 7.25353,-1.48918 10.11916,-1.48918 l 5.21023,0 0.61983,-3.75 c 1.21529,-7.35246 0.86506,-9.25 -1.70727,-9.25 -8.63319,0 -17.81132,1.43166 -18.59511,2.90057 -1.2614,2.36402 -2.42711,13.10119 -1.42099,13.08861 0.47587,-0.006 3.07424,-0.68096 5.77415,-1.5 z m -23.15893,-14.0501 c 2.91806,-0.69598 3.42506,-2.80789 2.176,-9.06408 -0.55059,-2.75774 -0.77314,-2.86099 -5.45629,-2.53143 -5.4206,0.38144 -5.0435,-0.65013 -3.45688,9.45646 0.46571,2.96646 0.96844,3.68979 2.29187,3.29748 0.93241,-0.27639 2.9328,-0.79769 4.4453,-1.15843 z m 35.91078,-8.26781 c 4.63087,0.32662 4.6645,0.30627 5.239,-3.17127 1.20432,-7.28995 0.96131,-7.93194 -2.64978,-7.00033 -1.7875,0.46116 -7.56275,1.58956 -12.83389,2.50757 l -9.58389,1.66911 1.40309,4.26197 1.4031,4.26196 6.18079,-1.42887 c 3.39944,-0.78588 8.27815,-1.28094 10.84158,-1.10014 z m -78.04185,-14.15997 c -13.95607,-2.13909 -19.11893,-5.63666 -19.11893,-12.9521 0,-3.74755 0.0488,-3.79404 4.63957,-4.42328 2.55176,-0.34975 14.13927,-0.63862 25.75,-0.64191 11.61074,-0.003 24.87039,-0.29866 29.4659,-0.65635 l 8.35547,-0.65036 -0.55953,-3.44796 c -0.37838,-2.33171 -1.78842,-4.51142 -4.35547,-6.73289 l -3.79594,-3.28493 9.04089,-9.36076 c 4.97249,-5.14842 10.52876,-11.96704 12.34727,-15.15248 3.7365,-6.5452 4.66093,-6.47263 8.29521,0.65116 3.09953,6.07558 2.14747,12.26521 -3.04371,19.78805 -4.04089,5.85589 -4.9426,9.03887 -3.29582,11.63408 0.64245,1.01245 1.97577,0.83668 6.34946,-0.83704 6.27419,-2.40099 8.44101,-5.33808 11.33881,-15.36955 2.71168,-9.38717 0.55854,-20.13256 -5.39862,-26.94223 -1.54333,-1.76418 -1.34808,-2.12296 3.53717,-6.5 2.84386,-2.54801 7.68939,-6.15505 10.76785,-8.01563 l 5.5972,-3.38288 4.71328,2.914 c 8.39771,5.1919 11.58355,12.52076 9.17783,21.11315 -1.2021,4.29348 -9.13755,17.03469 -15.58257,25.01949 l -2.6482,3.28088 8.40198,-3.16439 c 20.27684,-7.63676 40.793,-14.16782 45.98442,-14.63856 9.81196,-0.88972 17.91755,3.24481 17.91755,9.13946 0,7.54654 -9.74484,11.0961 -34.84869,12.69365 -23.09345,1.4696 -30.13761,3.56102 -68.26186,20.26696 -22.07634,9.6738 -23.43901,10.02003 -40.38945,10.26257 -8.25,0.11804 -17.42148,-0.15653 -20.38107,-0.61015 z m -28.11893,-111.65669 c -5.73322,-0.95061 -7,-1.46601 -7,-2.84798 0,-2.07175 3.66828,-3.71853 19,-8.52957 16.28341,-5.10968 21.0329,-7.40294 27.64603,-13.34872 3.80533,-3.42132 5.59857,-6.03413 7.25015,-10.56376 2.49063,-6.83079 7.76105,-13.06458 11.04558,-13.06458 2.78131,0 15.93206,4.38482 21.17928,7.06175 6.62333,3.37897 11.87896,8.7414 11.87896,12.12035 0,4.48656 -1.58922,6.59602 -8.1772,10.85403 -14.73347,9.52271 -43.34629,16.90076 -70.8228,18.26226 -5.225,0.25891 -10.625,0.2842 -12,0.0562 z m 184.53563,-2.44262 c -21.04262,-2.87045 -47.25006,-10.70185 -60.12744,-17.96749 -10.59446,-5.97757 -23.34611,-18.88865 -35.40338,-35.84601 -9.75819,-13.72393 -15.96025,-20.20142 -24.25481,-25.33196 -3.96563,-2.45291 -4.75,-3.43563 -4.75,-5.95117 0,-4.13797 2.40851,-8.85021 6.59679,-12.90662 3.29317,-3.18948 3.94999,-3.40845 10.21138,-3.40424 11.7979,0.008 13.72132,1.70827 36.75861,32.4955 22.09286,29.52507 33.9383,38.44215 74.43322,56.03228 7.975,3.46417 15.0625,6.72917 15.75,7.25555 1.45558,1.11446 1.6649,4.33771 0.33507,5.15959 -1.83131,1.13182 -12.75505,1.39141 -19.54944,0.46457 z"
         id="path3434"
         inkscape:connector-curvature="0" />
      <path
         style="fill:#bebebe"
         d="m 721.55013,17.99315 c -25.83798,-6.35397 -46.16316,-25.91489 -53.10144,-51.10475 -1.68678,-6.12394 -1.79036,-15.98825 -1.79036,-170.5 l 0,-164 2.72119,-8.02108 c 6.58729,-19.41694 20.07769,-34.5433 38.45975,-43.12373 15.53453,-7.25125 7.57202,-6.85519 137.81906,-6.85519 107.67978,0 117.53611,0.13789 123.72998,1.73097 21.57143,5.54822 39.03259,19.35273 48.35799,38.23099 7.9172,16.02759 7.4814,4.7039 7.1798,186.54379 l -0.2678,161.49425 -2.7145,8 c -8.1407,23.99133 -27.44117,41.61185 -52.03823,47.50878 -7.98028,1.91321 -12.01834,1.97505 -124.74724,1.9106 -107.3876,-0.0614 -117.05599,-0.20334 -123.6082,-1.81463 z m 248.1082,-4.45957 c 24.54508,-7.29415 42.87147,-25.67763 48.95287,-49.10528 1.3654,-5.26002 1.5454,-24.87605 1.5323,-167 -0.013,-139.86941 -0.2126,-161.8794 -1.5201,-167.42586 -4.1948,-17.79547 -18.2089,-34.95055 -35.53993,-43.5056 -16.10889,-7.95176 -9.23566,-7.57155 -137.22773,-7.59108 -128.16919,-0.0195 -120.72468,-0.43486 -137.62992,7.67808 -17.26201,8.28416 -30.7858,24.9294 -35.55755,43.76466 -2.2474,8.87104 -2.25545,323.75266 -0.009,333.2824 6.14181,26.04879 28.56463,46.52751 56.07358,51.21189 2.70875,0.46126 56.675,0.75657 119.925,0.65624 107.11071,-0.16989 115.41162,-0.30473 121,-1.96545 z m -91.5,-42.32407 c -14.8644,-2.54001 -37.57191,-9.53679 -47.84378,-14.74195 -4.39354,-2.22637 -5.10941,-2.34048 -6.22794,-0.99274 -1.98815,2.39558 -5.18623,3.79673 -8.17329,3.58091 -5.17097,-0.37362 -9.41421,2.27386 -11.61367,7.24609 -1.84957,4.18127 -2.33634,4.58658 -5.50836,4.58658 -3.89259,0 -8.84689,-3.53465 -11.02967,-7.86912 -0.72868,-1.44698 -2.11439,-5.90724 -3.07935,-9.91168 -1.40708,-5.83918 -2.07816,-7.18306 -3.38921,-6.78716 -9.27586,2.80105 -19.4306,3.30683 -24.43247,1.21692 -1.77843,-0.74308 -4.68898,-3.00874 -6.46788,-5.0348 -2.63923,-3.00591 -3.23438,-4.52684 -3.23438,-8.26553 0,-4.49939 0.0494,-4.56934 2.75,-3.88984 1.5125,0.38057 8.87436,0.93236 16.3597,1.2262 l 13.60969,0.53427 -2.83789,-14.35963 c -4.21483,-21.32683 -3.80224,-27.27288 1.75678,-25.31788 4.25136,1.49512 6.25416,6.14347 9.55678,22.18061 1.67379,8.1277 3.12528,14.87579 3.22554,14.99575 0.31606,0.37817 18.83288,-4.53719 24.5794,-6.52469 l 5.5,-1.90224 -0.35988,-7.39559 c -0.19794,-4.06757 -0.46525,-7.51289 -0.59401,-7.65627 -0.41442,-0.46141 -8.82768,2.74947 -10.20978,3.89651 -0.73498,0.60998 -1.33633,2.54295 -1.33633,4.29549 0,1.75253 -0.63436,4.05396 -1.40968,5.11428 -1.37857,1.88531 -1.45535,1.88652 -3.47904,0.0551 -5.13009,-4.64266 -10.31315,-25.85899 -10.48924,-42.93661 -0.12187,-11.81957 -0.11813,-11.83928 2.71096,-14.27343 2.43355,-2.09383 3.49106,-2.35133 7.5,-1.82621 6.69441,0.87688 14.79103,-1.29182 40.89639,-10.95419 34.56819,-12.79471 36.73524,-13.21387 43.52061,-8.41783 4.64852,3.28567 3.78784,6.72333 -3.2537,12.99573 -5.64978,5.03267 -6.0937,5.75951 -7.53057,12.32988 -0.83978,3.84008 -1.80257,14.63196 -2.13953,23.98196 l -0.61266,17 15.89323,0.0331 c 14.7388,0.0307 16.51064,0.23898 24.39323,2.86749 19.7815,6.59631 29,13.78019 29,22.59941 0,4.36923 -2.05637,7.84366 -7.84949,13.26245 -15.13335,14.15547 -45.46519,27.2263 -58.15051,25.05866 z m -65.995,-23.57111 9.95414,-5.25 0.0204,-4.25 c 0.0113,-2.3375 -0.30169,-4.25 -0.69544,-4.25 -1.5091,0 -26.2841,8.08752 -26.2841,8.58015 0,1.81261 5.51831,10.41985 6.68041,10.41985 0.20375,0 4.84981,-2.3625 10.32459,-5.25 z m 64.71751,0.47754 c 17.3731,-5.97343 26.49201,-11.80739 30.38574,-19.43973 4.36676,-8.55956 -1.18658,-10.64743 -20.78398,-7.81407 -3.75335,0.54265 -7.38677,0.99556 -8.07427,1.00645 -0.86007,0.0136 -1.25,1.90697 -1.25,6.06947 0,3.32731 -0.65201,7.31051 -1.44892,8.85156 -1.7232,3.33231 -7.56279,8.65033 -10.53434,9.59347 -2.41772,0.76735 -6.38748,-1.45039 -8.00447,-4.47177 -0.58196,-1.0874 -1.86269,-2.40768 -2.84607,-2.93397 -2.62034,-1.40237 -14.11112,2.89297 -20.261,7.57371 l -5.04175,3.83734 2.81828,0.68032 c 1.55005,0.37418 10.24327,0.57635 19.31827,0.44927 15.6169,-0.2187 16.9936,-0.40078 25.72251,-3.40205 z m -32.72251,-13.80632 c 8.553,-3.07004 12,-5.25668 12,-7.61235 0,-0.44488 -0.5625,-0.79936 -1.25,-0.78775 -2.00862,0.0339 -21.75043,4.64597 -22.31843,5.21397 -0.2844,0.28441 -0.79397,2.2233 -1.13238,4.30864 -0.55796,3.43828 -0.43751,3.72147 1.29276,3.0395 1.04943,-0.41363 6.18305,-2.28653 11.40805,-4.16201 z m 1.28939,-20.06644 10.78938,-2.85478 -0.66458,-5.5 c -0.36552,-3.025 -0.80435,-5.6586 -0.97517,-5.85244 -0.34207,-0.38819 -16.60338,1.64014 -20.18902,2.51824 -2.08352,0.51025 -2.25,1.1041 -2.25,8.02594 0,5.5685 0.3188,7.35288 1.25,6.99637 0.6875,-0.2632 6.10522,-1.7632 12.03939,-3.33333 z m -29.03939,-14.40736 c 3.47395,-0.96477 3.74919,-1.31402 3.73899,-4.74442 -0.006,-2.03665 -0.28329,-5.34959 -0.61609,-7.36209 l -0.60508,-3.65909 -4.38391,1.62479 -4.38391,1.62479 0,6.7843 c 0,7.41918 0.0404,7.45621 6.25,5.73172 z m 23.75,-7.44742 c 3.025,-0.81194 7.57862,-1.4816 10.11916,-1.48813 4.55804,-0.0117 4.62736,-0.0615 5.23899,-3.76187 0.34091,-2.0625 0.62479,-5.04915 0.63084,-6.63701 l 0.011,-2.88701 -9.75,0.70132 c -5.3625,0.38573 -10.28381,1.23488 -10.93625,1.88701 -1.42756,1.42688 -2.94591,13.69074 -1.69292,13.67382 0.48355,-0.007 3.35417,-0.67619 6.37917,-1.48813 z m -23.6375,-14.08916 c 2.78479,-0.66556 2.85043,-0.82969 2.41782,-6.04633 -0.24457,-2.94921 -0.63269,-5.50843 -0.8625,-5.68716 -0.2298,-0.17874 -2.50694,-0.13779 -5.0603,0.091 l -4.64249,0.41596 0.45454,4.15785 c 0.83493,7.63754 1.27583,8.80746 3.11374,8.26216 0.94418,-0.28013 3.00481,-0.81718 4.57919,-1.19346 z m 27.4702,-7.45771 c 3.31938,-0.65305 7.59656,-1.00508 9.50484,-0.7823 3.29736,0.38495 3.49866,0.22942 4.05502,-3.13289 0.32199,-1.94587 0.59038,-4.47511 0.59643,-5.62054 l 0.011,-2.08259 -12.75,2.44738 c -7.0125,1.34606 -12.87935,2.56257 -13.03744,2.70337 -0.15809,0.14079 0.1428,1.32664 0.66864,2.63521 0.52585,1.30858 1.22149,3.21342 1.54587,4.23298 0.33767,1.06131 1.18412,1.62569 1.98009,1.32025 0.76466,-0.29343 4.10615,-1.06782 7.42554,-1.72087 z m -70.28546,-15.06444 c -12.59802,-1.83575 -18.54724,-5.95101 -18.54724,-12.82969 0,-3.74731 0.0488,-3.79384 4.63957,-4.42308 2.55176,-0.34975 14.13927,-0.63862 25.75,-0.64191 11.61074,-0.003 24.82293,-0.295 29.36043,-0.64822 l 8.25,-0.64222 0,-3.02382 c 0,-2.24215 -1.00709,-3.93851 -3.89586,-6.56223 l -3.89586,-3.53841 8.45644,-8.98324 c 4.65105,-4.94078 10.18774,-11.87406 12.30376,-15.40729 l 3.84731,-6.42406 2.63223,3.97757 c 4.99629,7.5499 4.38414,14.39439 -2.04011,22.81061 -3.33946,4.37493 -4.65859,10.5563 -2.53309,11.86994 0.48115,0.29736 3.29365,-0.25909 6.25,-1.23658 5.09282,-1.68389 5.55035,-2.12354 8.70985,-8.36961 5.72093,-11.30981 5.40871,-22.31061 -0.91626,-32.28405 l -2.81249,-4.43484 4.69704,-3.9001 c 2.58337,-2.14505 7.24038,-5.57639 10.34891,-7.6252 5.42945,-3.57852 5.76599,-3.66609 8.55187,-2.22546 4.9536,2.56161 11,9.94019 11.74137,14.32832 1.16194,6.87745 -3.72449,17.15948 -14.2171,29.91559 -2.8996,3.52511 -4.98388,6.40929 -4.63175,6.40929 0.35214,0 8.61812,-2.907 18.36884,-6.45999 31.11562,-11.33801 39.3095,-13.12342 46.47937,-10.12766 7.1026,2.96766 9.8308,9.21859 5.66774,12.9861 -4.92611,4.45807 -13.53999,6.1825 -42.61221,8.53062 -14.50782,1.17178 -22.61437,3.74404 -53,16.81721 -29.27703,12.59622 -31.77246,13.28098 -47.85534,13.13178 -7.22956,-0.0671 -15.8234,-0.51228 -19.09742,-0.98937 z m -27.54724,-111.53408 c -5.73322,-0.95061 -7,-1.46601 -7,-2.84798 0,-2.07175 3.66828,-3.71853 19,-8.52957 16.28341,-5.10968 21.0329,-7.40294 27.64603,-13.34872 3.80533,-3.42132 5.59857,-6.03413 7.25015,-10.56376 2.49063,-6.83079 7.76105,-13.06458 11.04558,-13.06458 2.78131,0 15.93206,4.38482 21.17928,7.06175 6.62333,3.37897 11.87896,8.7414 11.87896,12.12035 0,4.48656 -1.58922,6.59602 -8.1772,10.85403 -14.73347,9.52271 -43.34629,16.90076 -70.8228,18.26226 -5.225,0.25891 -10.625,0.2842 -12,0.0562 z m 184.53563,-2.44262 c -21.04262,-2.87045 -47.25006,-10.70185 -60.12744,-17.96749 -10.59446,-5.97757 -23.34611,-18.88865 -35.40338,-35.84601 -9.75819,-13.72393 -15.96025,-20.20142 -24.25481,-25.33196 -3.96563,-2.45291 -4.75,-3.43563 -4.75,-5.95117 0,-4.13797 2.40851,-8.85021 6.59679,-12.90662 3.29317,-3.18948 3.94999,-3.40845 10.21138,-3.40424 11.7979,0.008 13.72132,1.70827 36.75861,32.4955 22.09286,29.52507 33.9383,38.44215 74.43322,56.03228 7.975,3.46417 15.0625,6.72917 15.75,7.25555 1.45558,1.11446 1.6649,4.33771 0.33507,5.15959 -1.83131,1.13182 -12.75505,1.39141 -19.54944,0.46457 z"
         id="path3432"
         inkscape:connector-curvature="0" />
      <path
         style="fill:#c38c8f"
         d="m 723.52229,18.405 c -20.81066,-4.55993 -40.34234,-19.55704 -49.44605,-37.96642 -8.01995,-16.21783 -7.32861,-0.21493 -7.69193,-178.05018 -0.2345,-114.78054 -0.009,-161.22488 0.80955,-167 3.92327,-27.6681 23.87416,-49.70879 53.13584,-58.70169 l 7.32863,-2.25228 112.5,-0.31971 c 78.7371,-0.22376 115.04632,0.015 120.98449,0.79543 16.87609,2.21808 31.95747,9.78693 44.01548,22.08995 7.813,7.97174 13.1063,16.61369 16.7756,27.3883 l 2.7244,8 0.278,160.5 c 0.1899,109.67653 -0.059,162.69025 -0.785,167.4168 -2.2245,14.47581 -9.7477,28.32574 -21.3086,39.22827 -8.66524,8.17173 -17.3145,13.42877 -28.18437,17.13052 l -8,2.72441 -118.5,0.18055 C 752.10515,19.7153 728.49601,19.49482 723.52229,18.405 z m 246.13604,-4.7931 c 22.47372,-6.53003 40.93237,-23.53928 47.58417,-43.84779 l 2.4158,-7.37571 0,-166 0,-166 -2.6228,-6.74155 c -3.9025,-10.03072 -8.6114,-17.31564 -15.9471,-24.67097 -7.77085,-7.79166 -16.4372,-13.11943 -27.43007,-16.86307 l -8,-2.72441 -119.5,0 c -113.08231,0 -119.82223,0.0986 -125.5,1.83542 -19.58069,5.98982 -34.65101,18.31824 -42.94647,35.13278 -6.92707,14.04087 -6.52239,2.8343 -6.53875,181.0717 -0.0165,179.49348 -0.55905,165.68086 7.12453,181.37343 6.92775,14.1489 21.51153,27.05094 36.90863,32.65249 11.675,4.24742 13.09445,4.29094 133.45206,4.09156 106.05389,-0.17569 115.46675,-0.32613 121,-1.93388 z m -91.5,-42.40239 c -14.8644,-2.54001 -37.57191,-9.53679 -47.84378,-14.74195 -4.39354,-2.22637 -5.10941,-2.34048 -6.22794,-0.99274 -1.98815,2.39558 -5.18623,3.79673 -8.17329,3.58091 -5.17097,-0.37362 -9.41421,2.27386 -11.61367,7.24609 -1.84957,4.18127 -2.33634,4.58658 -5.50836,4.58658 -3.89259,0 -8.84689,-3.53465 -11.02967,-7.86912 -0.72868,-1.44698 -2.11439,-5.90724 -3.07935,-9.91168 -1.40708,-5.83918 -2.07816,-7.18306 -3.38921,-6.78716 -9.27586,2.80105 -19.4306,3.30683 -24.43247,1.21692 -1.77843,-0.74308 -4.68898,-3.00874 -6.46788,-5.0348 -2.63923,-3.00591 -3.23438,-4.52684 -3.23438,-8.26553 0,-4.49939 0.0494,-4.56934 2.75,-3.88984 1.5125,0.38057 8.87436,0.93236 16.3597,1.2262 l 13.60969,0.53427 -2.83789,-14.35963 c -4.21483,-21.32683 -3.80224,-27.27288 1.75678,-25.31788 4.25136,1.49512 6.25416,6.14347 9.55678,22.18061 1.67379,8.1277 3.12528,14.87579 3.22554,14.99575 0.31606,0.37817 18.83288,-4.53719 24.5794,-6.52469 l 5.5,-1.90224 -0.35988,-7.39559 c -0.19794,-4.06757 -0.46525,-7.51289 -0.59401,-7.65627 -0.41442,-0.46141 -8.82768,2.74947 -10.20978,3.89651 -0.73498,0.60998 -1.33633,2.54295 -1.33633,4.29549 0,1.75253 -0.63436,4.05396 -1.40968,5.11428 -1.37857,1.88531 -1.45535,1.88652 -3.47904,0.0551 -5.13009,-4.64266 -10.31315,-25.85899 -10.48924,-42.93661 -0.12187,-11.81957 -0.11813,-11.83928 2.71096,-14.27343 2.43355,-2.09383 3.49106,-2.35133 7.5,-1.82621 6.69441,0.87688 14.79103,-1.29182 40.89639,-10.95419 34.56819,-12.79471 36.73524,-13.21387 43.52061,-8.41783 4.64852,3.28567 3.78784,6.72333 -3.2537,12.99573 -5.64978,5.03267 -6.0937,5.75951 -7.53057,12.32988 -0.83978,3.84008 -1.80257,14.63196 -2.13953,23.98196 l -0.61266,17 15.89323,0.0331 c 14.7388,0.0307 16.51064,0.23898 24.39323,2.86749 19.7815,6.59631 29,13.78019 29,22.59941 0,4.36923 -2.05637,7.84366 -7.84949,13.26245 -15.13335,14.15547 -45.46519,27.2263 -58.15051,25.05866 z m -65.995,-23.57111 9.95414,-5.25 0.0204,-4.25 c 0.0113,-2.3375 -0.30169,-4.25 -0.69544,-4.25 -1.5091,0 -26.2841,8.08752 -26.2841,8.58015 0,1.81261 5.51831,10.41985 6.68041,10.41985 0.20375,0 4.84981,-2.3625 10.32459,-5.25 z m 64.71751,0.47754 c 17.3731,-5.97343 26.49201,-11.80739 30.38574,-19.43973 4.36676,-8.55956 -1.18658,-10.64743 -20.78398,-7.81407 -3.75335,0.54265 -7.38677,0.99556 -8.07427,1.00645 -0.86007,0.0136 -1.25,1.90697 -1.25,6.06947 0,3.32731 -0.65201,7.31051 -1.44892,8.85156 -1.7232,3.33231 -7.56279,8.65033 -10.53434,9.59347 -2.41772,0.76735 -6.38748,-1.45039 -8.00447,-4.47177 -0.58196,-1.0874 -1.86269,-2.40768 -2.84607,-2.93397 -2.62034,-1.40237 -14.11112,2.89297 -20.261,7.57371 l -5.04175,3.83734 2.81828,0.68032 c 1.55005,0.37418 10.24327,0.57635 19.31827,0.44927 15.6169,-0.2187 16.9936,-0.40078 25.72251,-3.40205 z m -32.72251,-13.80632 c 8.553,-3.07004 12,-5.25668 12,-7.61235 0,-0.44488 -0.5625,-0.79936 -1.25,-0.78775 -2.00862,0.0339 -21.75043,4.64597 -22.31843,5.21397 -0.2844,0.28441 -0.79397,2.2233 -1.13238,4.30864 -0.55796,3.43828 -0.43751,3.72147 1.29276,3.0395 1.04943,-0.41363 6.18305,-2.28653 11.40805,-4.16201 z m 1.28939,-20.06644 10.78938,-2.85478 -0.66458,-5.5 c -0.36552,-3.025 -0.80435,-5.6586 -0.97517,-5.85244 -0.34207,-0.38819 -16.60338,1.64014 -20.18902,2.51824 -2.08352,0.51025 -2.25,1.1041 -2.25,8.02594 0,5.5685 0.3188,7.35288 1.25,6.99637 0.6875,-0.2632 6.10522,-1.7632 12.03939,-3.33333 z m -29.03939,-14.40736 c 3.47395,-0.96477 3.74919,-1.31402 3.73899,-4.74442 -0.006,-2.03665 -0.28329,-5.34959 -0.61609,-7.36209 l -0.60508,-3.65909 -4.38391,1.62479 -4.38391,1.62479 0,6.7843 c 0,7.41918 0.0404,7.45621 6.25,5.73172 z m 23.75,-7.44742 c 3.025,-0.81194 7.57862,-1.4816 10.11916,-1.48813 4.55804,-0.0117 4.62736,-0.0615 5.23899,-3.76187 0.34091,-2.0625 0.62479,-5.04915 0.63084,-6.63701 l 0.011,-2.88701 -9.75,0.70132 c -5.3625,0.38573 -10.28381,1.23488 -10.93625,1.88701 -1.42756,1.42688 -2.94591,13.69074 -1.69292,13.67382 0.48355,-0.007 3.35417,-0.67619 6.37917,-1.48813 z m -23.6375,-14.08916 c 2.78479,-0.66556 2.85043,-0.82969 2.41782,-6.04633 -0.24457,-2.94921 -0.63269,-5.50843 -0.8625,-5.68716 -0.2298,-0.17874 -2.50694,-0.13779 -5.0603,0.091 l -4.64249,0.41596 0.45454,4.15785 c 0.83493,7.63754 1.27583,8.80746 3.11374,8.26216 0.94418,-0.28013 3.00481,-0.81718 4.57919,-1.19346 z m 27.4702,-7.45771 c 3.31938,-0.65305 7.59656,-1.00508 9.50484,-0.7823 3.29736,0.38495 3.49866,0.22942 4.05502,-3.13289 0.32199,-1.94587 0.59038,-4.47511 0.59643,-5.62054 l 0.011,-2.08259 -12.75,2.44738 c -7.0125,1.34606 -12.87935,2.56257 -13.03744,2.70337 -0.15809,0.14079 0.1428,1.32664 0.66864,2.63521 0.52585,1.30858 1.22149,3.21342 1.54587,4.23298 0.33767,1.06131 1.18412,1.62569 1.98009,1.32025 0.76466,-0.29343 4.10615,-1.06782 7.42554,-1.72087 z m -70.28546,-15.06444 c -12.59802,-1.83575 -18.54724,-5.95101 -18.54724,-12.82969 0,-3.74731 0.0488,-3.79384 4.63957,-4.42308 2.55176,-0.34975 14.13927,-0.63862 25.75,-0.64191 11.61074,-0.003 24.82293,-0.295 29.36043,-0.64822 l 8.25,-0.64222 0,-3.02382 c 0,-2.24215 -1.00709,-3.93851 -3.89586,-6.56223 l -3.89586,-3.53841 8.45644,-8.98324 c 4.65105,-4.94078 10.18774,-11.87406 12.30376,-15.40729 l 3.84731,-6.42406 2.63223,3.97757 c 4.99629,7.5499 4.38414,14.39439 -2.04011,22.81061 -3.33946,4.37493 -4.65859,10.5563 -2.53309,11.86994 0.48115,0.29736 3.29365,-0.25909 6.25,-1.23658 5.09282,-1.68389 5.55035,-2.12354 8.70985,-8.36961 5.72093,-11.30981 5.40871,-22.31061 -0.91626,-32.28405 l -2.81249,-4.43484 4.69704,-3.9001 c 2.58337,-2.14505 7.24038,-5.57639 10.34891,-7.6252 5.42945,-3.57852 5.76599,-3.66609 8.55187,-2.22546 4.9536,2.56161 11,9.94019 11.74137,14.32832 1.16194,6.87745 -3.72449,17.15948 -14.2171,29.91559 -2.8996,3.52511 -4.98388,6.40929 -4.63175,6.40929 0.35214,0 8.61812,-2.907 18.36884,-6.45999 31.11562,-11.33801 39.3095,-13.12342 46.47937,-10.12766 7.1026,2.96766 9.8308,9.21859 5.66774,12.9861 -4.92611,4.45807 -13.53999,6.1825 -42.61221,8.53062 -14.50782,1.17178 -22.61437,3.74404 -53,16.81721 -29.27703,12.59622 -31.77246,13.28098 -47.85534,13.13178 -7.22956,-0.0671 -15.8234,-0.51228 -19.09742,-0.98937 z m -28.54323,-111.63043 c -1.92279,-0.23192 -4.07164,-0.89942 -4.77522,-1.48335 -2.64912,-2.19857 2.18957,-4.76509 19.3236,-10.24955 15.99701,-5.12051 17.82692,-5.9578 24.31085,-11.12371 5.58698,-4.45129 7.32656,-6.51043 8.56121,-10.13395 2.28269,-6.69932 6.05456,-12.65091 9.02518,-14.24074 2.32574,-1.2447 3.4146,-1.14543 9.83286,0.89641 9.57897,3.04735 20.18595,8.6562 23.245,12.29167 3.67273,4.36479 3.24045,7.85845 -1.50256,12.14347 -11.4839,10.37502 -40.06038,19.12908 -70.51783,21.6023 -7.03864,0.57155 -13.06969,0.96717 -13.40232,0.87915 -0.33263,-0.088 -2.17797,-0.34978 -4.10077,-0.5817 z m 183.49599,-2.8402 c -21.68167,-3.34434 -41.68147,-9.28968 -55.58798,-16.52464 -11.41442,-5.93844 -23.70756,-17.88815 -36.3533,-35.33771 -10.31603,-14.23486 -19.87399,-24.14541 -26.59141,-27.57239 -3.40678,-1.73801 -3.96731,-2.48794 -3.96731,-5.30786 0,-4.20847 4.93591,-12.05614 9.22932,-14.67385 6.19509,-3.77715 15.19983,-2.0167 22.48487,4.39584 2.52772,2.22499 10.32713,11.70828 17.33204,21.07399 7.00491,9.36571 15.28197,19.94524 18.39348,23.51007 12.87745,14.75363 26.53107,23.32779 62.06029,38.97245 12.05367,5.30761 15.06112,7.02859 15.31118,8.76161 0.25195,1.74616 -0.41422,2.35807 -3.5,3.21496 -4.72811,1.31294 -7.45929,1.23853 -18.81118,-0.51247 z"
         id="path3430"
         inkscape:connector-curvature="0" />
      <path
         style="fill:#7c7c7c"
         d="m 723.52229,18.405 c -20.81066,-4.55993 -40.34234,-19.55704 -49.44605,-37.96642 -8.01995,-16.21783 -7.32861,-0.21493 -7.69193,-178.05018 -0.2345,-114.78054 -0.009,-161.22488 0.80955,-167 3.92327,-27.6681 23.87416,-49.70879 53.13584,-58.70169 l 7.32863,-2.25228 112.5,-0.31971 c 78.7371,-0.22376 115.04632,0.015 120.98449,0.79543 16.87609,2.21808 31.95747,9.78693 44.01548,22.08995 7.813,7.97174 13.1063,16.61369 16.7756,27.3883 l 2.7244,8 0.278,160.5 c 0.1899,109.67653 -0.059,162.69025 -0.785,167.4168 -2.2245,14.47581 -9.7477,28.32574 -21.3086,39.22827 -8.66524,8.17173 -17.3145,13.42877 -28.18437,17.13052 l -8,2.72441 -118.5,0.18055 C 752.10515,19.7153 728.49601,19.49482 723.52229,18.405 z m 246.13604,-4.7931 c 22.47372,-6.53003 40.93237,-23.53928 47.58417,-43.84779 l 2.4158,-7.37571 0,-166 0,-166 -2.6228,-6.74155 c -3.9025,-10.03072 -8.6114,-17.31564 -15.9471,-24.67097 -7.77085,-7.79166 -16.4372,-13.11943 -27.43007,-16.86307 l -8,-2.72441 -119.5,0 c -113.08231,0 -119.82223,0.0986 -125.5,1.83542 -19.58069,5.98982 -34.65101,18.31824 -42.94647,35.13278 -6.92707,14.04087 -6.52239,2.8343 -6.53875,181.0717 -0.0165,179.49348 -0.55905,165.68086 7.12453,181.37343 6.92775,14.1489 21.51153,27.05094 36.90863,32.65249 11.675,4.24742 13.09445,4.29094 133.45206,4.09156 106.05389,-0.17569 115.46675,-0.32613 121,-1.93388 z M 793.46266,-31.0676 c -4.36933,-2.66415 -5.83214,-5.24421 -8.15343,-14.38074 -1.09507,-4.31021 -2.22029,-8.06599 -2.50049,-8.34618 -0.2802,-0.2802 -3.6675,0.20883 -7.52733,1.08674 -3.85984,0.8779 -8.74621,1.59618 -10.8586,1.59618 -4.7214,0 -11.97259,-3.5735 -14.61616,-7.20309 -2.11905,-2.90942 -2.95157,-11.43884 -1.08429,-11.1089 8.96655,1.58435 19.9035,2.38782 25.03007,1.83882 3.52325,-0.37731 6.4059,-0.81332 6.4059,-0.96891 0,-0.15558 -1.125,-5.80665 -2.5,-12.55792 -2.08451,-10.23495 -3.41902,-27 -2.14922,-27 0.19292,0 1.81633,0.5109 3.60757,1.13532 4.18845,1.46011 5.27633,4.11623 8.99055,21.95084 1.61975,7.77759 3.17664,14.37271 3.45975,14.65582 0.66981,0.66982 7.57818,-1.00666 20.45973,-4.96503 l 10.36838,-3.1861 -0.46933,-7.31303 c -0.25812,-4.02217 -0.74769,-7.59141 -1.08792,-7.93164 -0.34023,-0.34024 -2.98467,0.23194 -5.87654,1.27149 -5.16868,1.85801 -5.27206,1.97489 -6.09041,6.88621 -0.45787,2.74787 -1.24487,5.41299 -1.74889,5.92249 -2.88494,2.91631 -8.14847,-9.26361 -11.39174,-26.36076 -1.90175,-10.02522 -2.05507,-26.55133 -0.27893,-30.06561 1.14677,-2.269 1.89906,-2.51735 8.14165,-2.68778 9.67708,-0.26419 14.10737,-1.47643 39.56535,-10.82613 26.80339,-9.84382 32.12666,-11.48609 37.23116,-11.48609 4.4118,0 9.23208,2.15885 10.14766,4.5448 1.3615,3.54802 0.37386,5.48406 -5.41259,10.61008 -5.13155,4.54587 -6.25347,6.16753 -7.50302,10.84512 -1.3708,5.13149 -3.41481,27.70619 -3.44838,38.08503 l -0.0148,4.58503 14.75,-0.0723 c 15.98168,-0.0784 20.41543,0.7284 34.93626,6.35702 19.77318,7.66454 25.28644,18.6058 15.00159,29.77117 -10.79259,11.71657 -38.10875,25.5482 -53.24706,26.96184 -10.19696,0.95221 -38.16512,-6.12247 -53.72278,-13.58942 l -6.08474,-2.9204 -3.16103,2.41103 c -2.02628,1.54546 -4.49121,2.411 -6.86632,2.411 -5.33687,0 -9.50668,2.51597 -11.29712,6.81642 -2.40509,5.77679 -5.38856,6.65184 -11.0045,3.22758 z m 18.82118,-21.20789 9.87449,-5.16389 0,-4.33611 c 0,-2.6609 -0.45511,-4.33611 -1.17801,-4.33611 -1.89204,0 -24.23686,7.0995 -25.18289,8.00123 -0.98536,0.9392 4.17792,10.99877 5.64534,10.99877 0.53162,0 5.4101,-2.32375 10.84107,-5.16389 z m 61.17387,1.70283 c 11.86438,-3.45009 23.05752,-8.90496 28.42531,-13.85282 7.55732,-6.96609 9.20404,-12.37626 4.67107,-15.34638 -2.36888,-1.55215 -3.65674,-1.59313 -14.25,-0.45352 -16.65459,1.79168 -16.03187,1.54399 -15.41646,6.13221 0.87676,6.53672 -0.49472,10.70163 -5.11013,15.51854 -3.50685,3.65995 -4.92185,4.46303 -7.86372,4.46303 -2.99061,0 -4.11441,-0.66542 -6.75545,-4 -1.74243,-2.2 -3.91775,-3.98932 -4.83403,-3.97626 -4.82819,0.06878 -23.16597,10.47121 -23.16597,13.1413 0,0.98027 13.91984,1.64826 26,1.24771 6.44027,-0.21355 12.33407,-1.13913 18.29938,-2.87381 z m -31.79938,-13.89562 c 9.84743,-3.26196 14.5,-5.99885 14.5,-8.52967 0,-1.88133 -0.15095,-1.88276 -8.40111,-0.0799 -17.06366,3.72892 -16.59889,3.50179 -16.59889,8.11178 0,2.8336 0.3794,3.92873 1.25,3.60811 0.6875,-0.25318 4.85,-1.65283 9.25,-3.11032 z m -1.06379,-19.58131 c 3.88509,-1.0659 8.99717,-2.43886 11.36018,-3.05104 l 4.2964,-1.11304 -0.2964,-6.19897 -0.29639,-6.19896 -3,0.26918 c -1.65,0.14805 -6.75351,0.78911 -11.34112,1.42457 -7.35461,1.01874 -8.44862,1.43812 -9.25,3.54592 -1.35636,3.56749 -1.15363,13.26033 0.27733,13.26033 0.65242,0 4.36492,-0.8721 8.25,-1.93799 z m -20.28737,-24.0841 c -0.1867,-4.11285 -0.51154,-7.65538 -0.72186,-7.87228 -0.21031,-0.21691 -2.35672,0.35963 -4.76979,1.28119 l -4.38739,1.67556 -0.66718,6.51207 c -0.36695,3.58164 -0.4306,6.89486 -0.14145,7.36272 0.28915,0.46785 2.88854,0.32595 5.77643,-0.31535 l 5.2507,-1.166 -0.33946,-7.47791 z m 31.05856,-0.80759 c 2.03907,0.13652 3.90716,0.0415 4.1513,-0.21106 0.24414,-0.25259 0.60081,-3.34388 0.7926,-6.86952 l 0.3487,-6.41026 -7.5,0.22667 c -4.125,0.12467 -9.07479,0.55269 -10.99953,0.95116 -3.38962,0.70173 -3.53741,0.92736 -4.7053,7.18359 -0.66318,3.5525 -1.04163,6.95222 -0.84102,7.55493 0.24978,0.75041 2.67864,0.50172 7.70531,-0.78894 4.03729,-1.03663 9.00887,-1.77308 11.04794,-1.63657 z m -35.35662,-12.26815 c 3.06364,-1.06799 3.14922,-1.262 3.14922,-7.13929 l 0,-6.04146 -5.13561,0.60824 c -2.82459,0.33453 -5.32729,0.7999 -5.56155,1.03417 -0.23427,0.23426 -0.11512,3.17324 0.26478,6.53105 0.75641,6.68582 1.33232,7.08177 7.28316,5.00729 z m 32.81337,-7.58221 9.16415,-0.55101 0.38542,-5.63447 c 0.21198,-3.09897 0.30234,-5.77025 0.2008,-5.9362 -0.23552,-0.3849 -25.33836,4.39223 -25.86909,4.92296 -0.21799,0.21798 0.12189,2.33788 0.75528,4.71089 1.04989,3.93341 1.37458,4.25821 3.67546,3.6767 1.38811,-0.35082 6.6477,-0.88581 11.68798,-1.18887 z m -67.16415,-14.99702 c -7.87544,-0.6711 -17.05637,-2.49429 -20.29405,-4.03009 -3.81608,-1.81016 -6.46121,-6.25505 -6.01597,-10.10925 l 0.31002,-2.6836 30,-0.67519 c 16.5,-0.37135 31.94125,-0.96574 34.31389,-1.32085 4.2197,-0.63157 4.30037,-0.71509 3.69464,-3.82481 -0.37803,-1.94076 -2.13454,-4.51244 -4.50923,-6.6019 l -3.88997,-3.42275 8.1246,-8.57725 c 4.46853,-4.71749 9.87155,-11.27725 12.00671,-14.57725 2.13517,-3.3 4.37288,-6 4.9727,-6 1.88688,0 5.11999,7.58153 5.11999,12.0062 0,4.52681 -2.97086,11.30336 -6.79253,15.4938 -1.78454,1.95674 -2.17591,3.31489 -1.80099,6.25 0.54765,4.28742 0.72792,4.3352 7.86622,2.08505 4.98257,-1.57061 5.45513,-2.01698 8.34074,-7.87848 5.93629,-12.05832 5.93442,-20.41436 -0.007,-31.38404 -1.61688,-2.98523 -2.93977,-5.7314 -2.93977,-6.1026 0,-0.85851 10.30532,-8.87257 15.2809,-11.88336 2.52957,-1.53068 4.59199,-2.0843 6.23166,-1.67277 3.14767,0.79001 9.17211,6.07574 11.03852,9.68498 2.03411,3.93354 1.76471,11.6084 -0.58963,16.79748 -2.24577,4.94977 -9.70254,15.70382 -14.80653,21.35374 -1.8632,2.0625 -3.15893,3.75 -2.87938,3.75 0.27954,0 6.30552,-2.19324 13.39107,-4.87387 35.9316,-13.59377 46.56668,-15.78043 55.06739,-11.3223 4.72677,2.47892 6.21722,5.81305 4.39068,9.82187 -2.23535,4.90606 -13.91551,7.85327 -36.62468,9.24134 -19.62088,1.19931 -25.78591,2.99961 -59.03708,17.23991 -12.6704,5.42628 -26.57988,10.77206 -30.90997,11.87951 -7.46456,1.90911 -17.12044,2.3533 -29.05295,1.33648 z m -36.49599,-112.06468 c -1.92279,-0.23192 -4.07164,-0.89942 -4.77522,-1.48335 -2.64912,-2.19857 2.18957,-4.76509 19.3236,-10.24955 15.99701,-5.12051 17.82692,-5.9578 24.31085,-11.12371 5.58698,-4.45129 7.32656,-6.51043 8.56121,-10.13395 2.28269,-6.69932 6.05456,-12.65091 9.02518,-14.24074 2.32574,-1.2447 3.4146,-1.14543 9.83286,0.89641 9.57897,3.04735 20.18595,8.6562 23.245,12.29167 3.67273,4.36479 3.24045,7.85845 -1.50256,12.14347 -11.4839,10.37502 -40.06038,19.12908 -70.51783,21.6023 -7.03864,0.57155 -13.06969,0.96717 -13.40232,0.87915 -0.33263,-0.088 -2.17797,-0.34978 -4.10077,-0.5817 z m 183.49599,-2.8402 c -21.68167,-3.34434 -41.68147,-9.28968 -55.58798,-16.52464 -11.41442,-5.93844 -23.70756,-17.88815 -36.3533,-35.33771 -10.31603,-14.23486 -19.87399,-24.14541 -26.59141,-27.57239 -3.40678,-1.73801 -3.96731,-2.48794 -3.96731,-5.30786 0,-4.20847 4.93591,-12.05614 9.22932,-14.67385 6.19509,-3.77715 15.19983,-2.0167 22.48487,4.39584 2.52772,2.22499 10.32713,11.70828 17.33204,21.07399 7.00491,9.36571 15.28197,19.94524 18.39348,23.51007 12.87745,14.75363 26.53107,23.32779 62.06029,38.97245 12.05367,5.30761 15.06112,7.02859 15.31118,8.76161 0.25195,1.74616 -0.41422,2.35807 -3.5,3.21496 -4.72811,1.31294 -7.45929,1.23853 -18.81118,-0.51247 z"
         id="path3428"
         inkscape:connector-curvature="0" />
      <path
         style="fill:#a55357"
         d="M 727.98919,18.87927 C 711.65464,16.07375 698.66178,9.4771 687.65833,-1.59724 678.74398,-10.56901 674.31312,-17.394 670.33774,-28.27668 l -2.67941,-7.33492 -0.27936,-164 c -0.3122,-183.28193 -0.75228,-171.22203 6.79778,-186.28688 8.64264,-17.24491 24.45236,-30.32407 43.98158,-36.38535 l 7.5,-2.32777 120,0 120,0 7.5,2.34186 c 20.61864,6.43814 35.91697,19.35186 44.61197,37.65814 6.8238,14.36663 6.388,1.98152 6.388,181.55014 0,158.96437 -0.045,162.80492 -1.9856,170.39368 -3.0632,11.97711 -8.2239,20.7534 -18.0169,30.63982 -7.10964,7.17741 -10.05854,9.34716 -18.00003,13.24412 -17.93152,8.79914 -6.66412,8.11879 -137.49744,8.30233 -63.8,0.0895 -118.10112,-0.19815 -120.66914,-0.63922 z m 245.66914,-6.30681 c 23.12765,-8.14075 41.36717,-28.03905 46.00067,-50.18406 1.2504,-5.97638 1.4646,-30.10456 1.4646,-165 0,-175.58794 0.4,-165.01933 -6.8129,-180 -6.9134,-14.35871 -17.77369,-25.04102 -32.65237,-32.11728 -15.38417,-7.31666 -6.80965,-6.88272 -136,-6.88272 -130.11353,0 -120.86962,-0.50331 -137,7.45938 -14.26881,7.04373 -24.53588,17.31766 -31.51958,31.54062 -7.44528,15.163 -7.07409,5.08811 -6.76064,183.5 l 0.28022,159.5 2.33844,7 c 5.75878,17.23859 18.40883,32.28567 33.89107,40.31303 16.69019,8.65366 7.24684,8.12423 140.77049,7.89211 l 118,-0.20514 8,-2.81594 z M 793.46266,-31.0676 c -4.36933,-2.66415 -5.83214,-5.24421 -8.15343,-14.38074 -1.09507,-4.31021 -2.22029,-8.06599 -2.50049,-8.34618 -0.2802,-0.2802 -3.6675,0.20883 -7.52733,1.08674 -3.85984,0.8779 -8.74621,1.59618 -10.8586,1.59618 -4.7214,0 -11.97259,-3.5735 -14.61616,-7.20309 -2.11905,-2.90942 -2.95157,-11.43884 -1.08429,-11.1089 8.96655,1.58435 19.9035,2.38782 25.03007,1.83882 3.52325,-0.37731 6.4059,-0.81332 6.4059,-0.96891 0,-0.15558 -1.125,-5.80665 -2.5,-12.55792 -2.08451,-10.23495 -3.41902,-27 -2.14922,-27 0.19292,0 1.81633,0.5109 3.60757,1.13532 4.18845,1.46011 5.27633,4.11623 8.99055,21.95084 1.61975,7.77759 3.17664,14.37271 3.45975,14.65582 0.66981,0.66982 7.57818,-1.00666 20.45973,-4.96503 l 10.36838,-3.1861 -0.46933,-7.31303 c -0.25812,-4.02217 -0.74769,-7.59141 -1.08792,-7.93164 -0.34023,-0.34024 -2.98467,0.23194 -5.87654,1.27149 -5.16868,1.85801 -5.27206,1.97489 -6.09041,6.88621 -0.45787,2.74787 -1.24487,5.41299 -1.74889,5.92249 -2.88494,2.91631 -8.14847,-9.26361 -11.39174,-26.36076 -1.90175,-10.02522 -2.05507,-26.55133 -0.27893,-30.06561 1.14677,-2.269 1.89906,-2.51735 8.14165,-2.68778 9.67708,-0.26419 14.10737,-1.47643 39.56535,-10.82613 26.80339,-9.84382 32.12666,-11.48609 37.23116,-11.48609 4.4118,0 9.23208,2.15885 10.14766,4.5448 1.3615,3.54802 0.37386,5.48406 -5.41259,10.61008 -5.13155,4.54587 -6.25347,6.16753 -7.50302,10.84512 -1.3708,5.13149 -3.41481,27.70619 -3.44838,38.08503 l -0.0148,4.58503 14.75,-0.0723 c 15.98168,-0.0784 20.41543,0.7284 34.93626,6.35702 19.77318,7.66454 25.28644,18.6058 15.00159,29.77117 -10.79259,11.71657 -38.10875,25.5482 -53.24706,26.96184 -10.19696,0.95221 -38.16512,-6.12247 -53.72278,-13.58942 l -6.08474,-2.9204 -3.16103,2.41103 c -2.02628,1.54546 -4.49121,2.411 -6.86632,2.411 -5.33687,0 -9.50668,2.51597 -11.29712,6.81642 -2.40509,5.77679 -5.38856,6.65184 -11.0045,3.22758 z m 18.82118,-21.20789 9.87449,-5.16389 0,-4.33611 c 0,-2.6609 -0.45511,-4.33611 -1.17801,-4.33611 -1.89204,0 -24.23686,7.0995 -25.18289,8.00123 -0.98536,0.9392 4.17792,10.99877 5.64534,10.99877 0.53162,0 5.4101,-2.32375 10.84107,-5.16389 z m 61.17387,1.70283 c 11.86438,-3.45009 23.05752,-8.90496 28.42531,-13.85282 7.55732,-6.96609 9.20404,-12.37626 4.67107,-15.34638 -2.36888,-1.55215 -3.65674,-1.59313 -14.25,-0.45352 -16.65459,1.79168 -16.03187,1.54399 -15.41646,6.13221 0.87676,6.53672 -0.49472,10.70163 -5.11013,15.51854 -3.50685,3.65995 -4.92185,4.46303 -7.86372,4.46303 -2.99061,0 -4.11441,-0.66542 -6.75545,-4 -1.74243,-2.2 -3.91775,-3.98932 -4.83403,-3.97626 -4.82819,0.06878 -23.16597,10.47121 -23.16597,13.1413 0,0.98027 13.91984,1.64826 26,1.24771 6.44027,-0.21355 12.33407,-1.13913 18.29938,-2.87381 z m -31.79938,-13.89562 c 9.84743,-3.26196 14.5,-5.99885 14.5,-8.52967 0,-1.88133 -0.15095,-1.88276 -8.40111,-0.0799 -17.06366,3.72892 -16.59889,3.50179 -16.59889,8.11178 0,2.8336 0.3794,3.92873 1.25,3.60811 0.6875,-0.25318 4.85,-1.65283 9.25,-3.11032 z m -1.06379,-19.58131 c 3.88509,-1.0659 8.99717,-2.43886 11.36018,-3.05104 l 4.2964,-1.11304 -0.2964,-6.19897 -0.29639,-6.19896 -3,0.26918 c -1.65,0.14805 -6.75351,0.78911 -11.34112,1.42457 -7.35461,1.01874 -8.44862,1.43812 -9.25,3.54592 -1.35636,3.56749 -1.15363,13.26033 0.27733,13.26033 0.65242,0 4.36492,-0.8721 8.25,-1.93799 z m -20.28737,-24.0841 c -0.1867,-4.11285 -0.51154,-7.65538 -0.72186,-7.87228 -0.21031,-0.21691 -2.35672,0.35963 -4.76979,1.28119 l -4.38739,1.67556 -0.66718,6.51207 c -0.36695,3.58164 -0.4306,6.89486 -0.14145,7.36272 0.28915,0.46785 2.88854,0.32595 5.77643,-0.31535 l 5.2507,-1.166 -0.33946,-7.47791 z m 31.05856,-0.80759 c 2.03907,0.13652 3.90716,0.0415 4.1513,-0.21106 0.24414,-0.25259 0.60081,-3.34388 0.7926,-6.86952 l 0.3487,-6.41026 -7.5,0.22667 c -4.125,0.12467 -9.07479,0.55269 -10.99953,0.95116 -3.38962,0.70173 -3.53741,0.92736 -4.7053,7.18359 -0.66318,3.5525 -1.04163,6.95222 -0.84102,7.55493 0.24978,0.75041 2.67864,0.50172 7.70531,-0.78894 4.03729,-1.03663 9.00887,-1.77308 11.04794,-1.63657 z m -35.35662,-12.26815 c 3.06364,-1.06799 3.14922,-1.262 3.14922,-7.13929 l 0,-6.04146 -5.13561,0.60824 c -2.82459,0.33453 -5.32729,0.7999 -5.56155,1.03417 -0.23427,0.23426 -0.11512,3.17324 0.26478,6.53105 0.75641,6.68582 1.33232,7.08177 7.28316,5.00729 z m 32.81337,-7.58221 9.16415,-0.55101 0.38542,-5.63447 c 0.21198,-3.09897 0.30234,-5.77025 0.2008,-5.9362 -0.23552,-0.3849 -25.33836,4.39223 -25.86909,4.92296 -0.21799,0.21798 0.12189,2.33788 0.75528,4.71089 1.04989,3.93341 1.37458,4.25821 3.67546,3.6767 1.38811,-0.35082 6.6477,-0.88581 11.68798,-1.18887 z m -67.16415,-14.99702 c -7.87544,-0.6711 -17.05637,-2.49429 -20.29405,-4.03009 -3.81608,-1.81016 -6.46121,-6.25505 -6.01597,-10.10925 l 0.31002,-2.6836 30,-0.67519 c 16.5,-0.37135 31.94125,-0.96574 34.31389,-1.32085 4.2197,-0.63157 4.30037,-0.71509 3.69464,-3.82481 -0.37803,-1.94076 -2.13454,-4.51244 -4.50923,-6.6019 l -3.88997,-3.42275 8.1246,-8.57725 c 4.46853,-4.71749 9.87155,-11.27725 12.00671,-14.57725 2.13517,-3.3 4.37288,-6 4.9727,-6 1.88688,0 5.11999,7.58153 5.11999,12.0062 0,4.52681 -2.97086,11.30336 -6.79253,15.4938 -1.78454,1.95674 -2.17591,3.31489 -1.80099,6.25 0.54765,4.28742 0.72792,4.3352 7.86622,2.08505 4.98257,-1.57061 5.45513,-2.01698 8.34074,-7.87848 5.93629,-12.05832 5.93442,-20.41436 -0.007,-31.38404 -1.61688,-2.98523 -2.93977,-5.7314 -2.93977,-6.1026 0,-0.85851 10.30532,-8.87257 15.2809,-11.88336 2.52957,-1.53068 4.59199,-2.0843 6.23166,-1.67277 3.14767,0.79001 9.17211,6.07574 11.03852,9.68498 2.03411,3.93354 1.76471,11.6084 -0.58963,16.79748 -2.24577,4.94977 -9.70254,15.70382 -14.80653,21.35374 -1.8632,2.0625 -3.15893,3.75 -2.87938,3.75 0.27954,0 6.30552,-2.19324 13.39107,-4.87387 35.9316,-13.59377 46.56668,-15.78043 55.06739,-11.3223 4.72677,2.47892 6.21722,5.81305 4.39068,9.82187 -2.23535,4.90606 -13.91551,7.85327 -36.62468,9.24134 -19.62088,1.19931 -25.78591,2.99961 -59.03708,17.23991 -12.6704,5.42628 -26.57988,10.77206 -30.90997,11.87951 -7.46456,1.90911 -17.12044,2.3533 -29.05295,1.33648 z m -39.75,-113.01227 c -2.62459,-0.68587 -2.10842,-3.07967 1,-4.63762 1.5125,-0.75807 8.825,-3.29356 16.25,-5.63442 7.425,-2.34086 15.11456,-5.07912 17.08792,-6.08501 4.17857,-2.12997 15.91208,-11.71808 15.91208,-13.00266 0,-2.41039 4.3536,-12.04046 6.48112,-14.33609 3.22957,-3.48476 7.30646,-3.40129 17.61436,0.36063 13.33186,4.86553 20.90452,10.82093 20.90452,16.44004 0,7.29846 -24.08284,18.84574 -50,23.97409 -15.04922,2.97786 -39.09321,4.52998 -45.25,2.92104 z m 180.75,-3.25451 c -20.35379,-3.62339 -42.06762,-10.62203 -53.17609,-17.1393 -8.43241,-4.94725 -23.6468,-20.57305 -33.55855,-34.46599 -8.93693,-12.52658 -19.58321,-23.5105 -26.12239,-26.95087 -3.65538,-1.92316 -3.77743,-2.15369 -3.17637,-6 0.69569,-4.4518 4.74821,-10.93942 8.27813,-13.25231 3.2413,-2.12378 12.13879,-1.84477 17.42378,0.54637 5.5651,2.51788 9.21221,6.46537 22.36405,24.20594 18.13062,24.45647 25.53509,32.43687 37.96744,40.92059 10.47983,7.15134 21.09377,12.70855 40.5,21.20485 13.41083,5.87144 17.57068,8.12347 17.80247,9.63779 0.20776,1.35732 -0.41848,2.16917 -2,2.59276 -4.13602,1.1078 -16.09893,0.51661 -26.30247,-1.29983 z"
         id="path3426"
         inkscape:connector-curvature="0" />
      <path
         style="fill:#871a1f"
         d="M 727.98919,18.87927 C 711.65464,16.07375 698.66178,9.4771 687.65833,-1.59724 678.74398,-10.56901 674.31312,-17.394 670.33774,-28.27668 l -2.67941,-7.33492 -0.27936,-164 c -0.3122,-183.28193 -0.75228,-171.22203 6.79778,-186.28688 8.64264,-17.24491 24.45236,-30.32407 43.98158,-36.38535 l 7.5,-2.32777 120,0 120,0 7.5,2.34186 c 20.61864,6.43814 35.91697,19.35186 44.61197,37.65814 6.8238,14.36663 6.388,1.98152 6.388,181.55014 0,158.96437 -0.045,162.80492 -1.9856,170.39368 -3.0632,11.97711 -8.2239,20.7534 -18.0169,30.63982 -7.10964,7.17741 -10.05854,9.34716 -18.00003,13.24412 -17.93152,8.79914 -6.66412,8.11879 -137.49744,8.30233 -63.8,0.0895 -118.10112,-0.19815 -120.66914,-0.63922 z m 245.66914,-6.30681 c 23.12765,-8.14075 41.36717,-28.03905 46.00067,-50.18406 1.2504,-5.97638 1.4646,-30.10456 1.4646,-165 0,-175.58794 0.4,-165.01933 -6.8129,-180 -6.9134,-14.35871 -17.77369,-25.04102 -32.65237,-32.11728 -15.38417,-7.31666 -6.80965,-6.88272 -136,-6.88272 -130.11353,0 -120.86962,-0.50331 -137,7.45938 -14.26881,7.04373 -24.53588,17.31766 -31.51958,31.54062 -7.44528,15.163 -7.07409,5.08811 -6.76064,183.5 l 0.28022,159.5 2.33844,7 c 5.75878,17.23859 18.40883,32.28567 33.89107,40.31303 16.69019,8.65366 7.24684,8.12423 140.77049,7.89211 l 118,-0.20514 8,-2.81594 z m -179,-43.19986 c -5.46872,-2.81493 -6.53947,-4.87642 -10.4572,-20.13294 l -1.06535,-4.14874 -4.35166,1.30966 c -16.56703,4.98594 -29.21188,0.81619 -31.08139,-10.24939 -0.94489,-5.59275 -0.32967,-6.32658 4.21346,-5.02575 4.00342,1.1463 26.66095,1.67549 27.69093,0.64675 0.33933,-0.33891 -0.52283,-6.24545 -1.91592,-13.12564 -1.39308,-6.88019 -2.53287,-15.74572 -2.53287,-19.70118 0,-6.98999 0.0631,-7.17295 2.25,-6.52164 5.26845,1.56906 6.61813,4.33761 10.13457,20.78863 1.8532,8.66987 3.61874,16.01269 3.92344,16.31738 0.78721,0.78721 9.56351,-1.18314 21.04815,-4.72548 l 9.85617,-3.04004 -0.3722,-7.37061 c -0.20471,-4.05384 -0.66294,-7.66136 -1.0183,-8.01671 -0.35535,-0.35535 -3.08834,0.12375 -6.0733,1.06468 -5.41861,1.70807 -5.42866,1.71889 -6.33787,6.82588 -1.92762,10.82733 -6.93798,4.80666 -11.55204,-13.88144 -1.72626,-6.99176 -2.23679,-12.07996 -2.29006,-22.82399 -0.082,-16.5327 -0.0837,-16.52998 10.77835,-16.54713 8.30614,-0.0131 15.7277,-2.07055 39.15309,-10.85421 26.04101,-9.76442 32.14643,-11.57225 37.16979,-11.00604 4.93226,0.55594 9.33021,3.87 9.33021,7.03075 0,1.08696 -2.81954,4.65741 -6.37728,8.07569 -5.57536,5.35683 -6.52541,6.81891 -7.55534,11.62731 -1.18291,5.52267 -2.96616,27.05818 -3.03209,36.61721 l -0.0353,5.11721 14.75,-0.10576 c 12.66706,-0.0908 15.87973,0.22191 22.75,2.21459 17.17442,4.98134 30.26845,13.40168 32.08303,20.63154 1.93785,7.72101 -5.38283,16.07627 -23.55864,26.88802 -15.58952,9.27332 -30.66326,14.20307 -40.64828,13.29371 -11.51932,-1.04909 -34.06256,-7.58948 -47.48712,-13.77726 l -6.79816,-3.13347 -3.12214,2.6271 c -2.23717,1.88246 -4.2613,2.62711 -7.14111,2.62711 -5.40278,0 -9.08554,2.3778 -11.40373,7.36292 -2.1792,4.68621 -4.38483,5.45767 -8.92384,3.12128 z m 27.29998,-31.36644 0.29999,-4.98645 -7.79999,2.40276 c -14.69189,4.52578 -18.80026,6.15635 -19.0773,7.57156 -0.15253,0.77915 1.09022,3.57303 2.76166,6.20863 l 3.03899,4.79198 10.23833,-5.50101 10.23834,-5.50102 0.29998,-4.98645 z m 53.7229,10.83054 c 17.8513,-5.7068 27.79948,-11.73953 31.58046,-19.15086 2.51982,-4.93925 2.15042,-7.80893 -1.25007,-9.71125 -2.3025,-1.28807 -4.25342,-1.30812 -15,-0.15416 -6.7943,0.72957 -12.83086,1.50888 -13.41458,1.73181 -0.64215,0.24524 -0.9092,2.66258 -0.67617,6.12074 0.33479,4.96822 0.007,6.30372 -2.51022,10.21542 -3.34956,5.20594 -8.79406,8.58949 -12.35158,7.67606 -1.3204,-0.33903 -3.30072,-1.98245 -4.40072,-3.65205 -1.1,-1.66961 -2.83141,-3.30229 -3.84758,-3.62819 -3.14215,-1.00772 -15.75217,4.28864 -21.11215,8.86736 l -4.95974,4.23682 8.95974,0.6289 c 17.17721,1.2057 28.03243,0.32002 38.98261,-3.1806 z m -34.38543,-12.99898 c 12.52554,-4.61831 14.59857,-5.78808 15.12345,-8.53381 0.54058,-2.82783 1.04448,-2.85828 -15.2609,0.92211 l -9.5,2.20257 -0.3075,4.22991 c -0.16937,2.32992 0.13687,4.2299 0.68178,4.2299 0.54411,0 4.71253,-1.37281 9.26317,-3.05068 z m -0.63745,-19.82551 c 3.85,-1.09191 8.9125,-2.4838 11.25,-3.09309 l 4.25,-1.10781 0,-6.54091 0,-6.54091 -2.75,0.52123 c -1.5125,0.28668 -6.71795,1.04824 -11.56767,1.69235 -7.92782,1.05293 -8.91176,1.41859 -9.75,3.62332 -1.44554,3.80206 -1.20354,14.34908 0.31767,13.84517 0.6875,-0.22774 4.4,-1.30745 8.25,-2.39935 z m -25.00776,-15.45647 4.99225,-1.29407 -0.33756,-7.43664 c -0.18565,-4.09015 -0.48951,-7.59398 -0.67524,-7.78629 -0.42053,-0.43545 -7.72569,1.8625 -8.64831,2.72046 -1.06314,0.98863 -2.18877,15.13155 -1.20259,15.10991 0.48357,-0.0106 3.12572,-0.60162 5.87145,-1.31337 z m 26.97098,-8.21051 c 3.82977,-0.87968 8.44227,-1.32194 10.25,-0.98281 l 3.28678,0.61661 0,-4.42032 c 0,-2.43117 0.27827,-5.81167 0.61838,-7.51222 l 0.61838,-3.0919 -4.86838,0.44995 c -2.67761,0.24747 -7.85941,0.71342 -11.51511,1.03544 l -6.64674,0.58549 -0.65374,4.68147 c -0.35956,2.5748 -0.91533,6.19311 -1.23504,8.04067 -0.51092,2.95244 -0.35344,3.28885 1.30047,2.77812 1.03498,-0.3196 5.01523,-1.30083 8.845,-2.1805 z m -28.46322,-12.82849 4.5,-1.3413 0.30149,-6.28891 0.30149,-6.28891 -5.1871,0.61434 c -2.85291,0.33788 -5.36942,0.79664 -5.59224,1.01947 -0.33398,0.33398 0.70819,13.69012 1.06445,13.64179 0.0615,-0.008 2.13691,-0.61876 4.61191,-1.35648 z m 34.63698,-8.29147 9.13698,-0.59756 0.48734,-5.61966 c 0.26804,-3.09081 0.36762,-5.75843 0.22129,-5.92805 -0.14633,-0.16962 -5.37728,0.62715 -11.62432,1.7706 -17.67216,3.23468 -15.88573,2.2653 -13.98832,7.59056 1.46336,4.10705 1.8857,4.51386 4.13005,3.97827 1.375,-0.32813 6.61164,-0.86551 11.63698,-1.19416 z m -69.36943,-15.3038 c -10.84107,-1.23688 -17.05715,-2.98515 -20.29203,-5.70712 -3.38743,-2.85034 -5.07759,-9.01396 -2.85735,-10.42014 0.76001,-0.48135 9.93183,-0.90847 20.38183,-0.94916 19.52752,-0.076 46.13887,-1.26219 46.97032,-2.09364 0.25742,-0.25742 0.19722,-2.13686 -0.13377,-4.17655 -0.45065,-2.77703 -1.56157,-4.41433 -4.42285,-6.51854 l -3.82104,-2.81002 7.57841,-7.42895 c 4.16812,-4.08592 9.70107,-10.69305 12.29545,-14.68252 4.38208,-6.73847 4.82568,-7.12904 6.24677,-5.5 6.1405,7.03907 5.37184,15.56778 -2.2811,25.31009 -2.38057,3.0305 -2.70952,4.1847 -2.22411,7.8037 0.3345,2.49391 1.02835,4.08427 1.68079,3.85255 0.61112,-0.21704 3.51944,-1.24658 6.46294,-2.28785 4.681,-1.65593 5.65549,-2.49252 7.77462,-6.67442 3.5526,-7.01072 5.64985,-16.12229 4.85006,-21.07125 -0.7966,-4.92923 -3.88055,-12.36327 -6.18527,-14.90995 -1.52368,-1.68365 -1.44343,-2.00099 1.20509,-4.76545 5.02425,-5.24419 16.3597,-12.25789 18.80247,-11.63385 3.37877,0.86315 9.25436,6.16853 11.07082,9.99645 3.80357,8.01543 0.11669,18.43934 -11.71915,33.13355 -3.5441,4.4 -6.33879,8.11403 -6.21041,8.25339 0.12838,0.13937 10.09439,-3.30143 22.14669,-7.64621 12.0523,-4.34479 25.21399,-8.69145 29.2482,-9.65925 6.9244,-1.66114 7.63562,-1.66485 12.70694,-0.0663 5.5012,1.7341 9.45813,5.35891 9.45813,8.66429 0,2.64692 -5.4066,6.69824 -11.29742,8.46548 -2.86142,0.85843 -11.27758,2.01069 -18.70258,2.56058 -28.50434,2.11103 -32.69188,3.22842 -66.5,17.74466 -28.99405,12.44921 -31.91312,13.34966 -44.5,13.72687 -5.775,0.17307 -13.7546,-0.0566 -17.73245,-0.51049 z m -37.51755,-112.7224 c -2.62459,-0.68587 -2.10842,-3.07967 1,-4.63762 1.5125,-0.75807 8.825,-3.29356 16.25,-5.63442 7.425,-2.34086 15.11456,-5.07912 17.08792,-6.08501 4.17857,-2.12997 15.91208,-11.71808 15.91208,-13.00266 0,-2.41039 4.3536,-12.04046 6.48112,-14.33609 3.22957,-3.48476 7.30646,-3.40129 17.61436,0.36063 13.33186,4.86553 20.90452,10.82093 20.90452,16.44004 0,7.29846 -24.08284,18.84574 -50,23.97409 -15.04922,2.97786 -39.09321,4.52998 -45.25,2.92104 z m 180.75,-3.25451 c -20.35379,-3.62339 -42.06762,-10.62203 -53.17609,-17.1393 -8.43241,-4.94725 -23.6468,-20.57305 -33.55855,-34.46599 -8.93693,-12.52658 -19.58321,-23.5105 -26.12239,-26.95087 -3.65538,-1.92316 -3.77743,-2.15369 -3.17637,-6 0.69569,-4.4518 4.74821,-10.93942 8.27813,-13.25231 3.2413,-2.12378 12.13879,-1.84477 17.42378,0.54637 5.5651,2.51788 9.21221,6.46537 22.36405,24.20594 18.13062,24.45647 25.53509,32.43687 37.96744,40.92059 10.47983,7.15134 21.09377,12.70855 40.5,21.20485 13.41083,5.87144 17.57068,8.12347 17.80247,9.63779 0.20776,1.35732 -0.41848,2.16917 -2,2.59276 -4.13602,1.1078 -16.09893,0.51661 -26.30247,-1.29983 z"
         id="path3424"
         inkscape:connector-curvature="0" />
      <path
         style="fill:#010101"
         d="m 726.01278,18.34129 c -23.1079,-4.23056 -42.32148,-18.82667 -52.45811,-39.8512 -6.84597,-14.1993 -6.48825,-3.5092 -6.17719,-184.60169 l 0.28085,-163.5 3.1886,-8.27315 c 6.91933,-17.95295 18.75839,-30.94654 35.78324,-39.27276 17.08151,-8.35394 10.06744,-7.95503 139.736,-7.94708 109.23957,0.007 114.64582,0.0919 122.29216,1.92667 10.1894,2.44504 16.16695,5.02652 24.56147,10.60719 12.5499,8.34317 22.4215,21.01169 27.7593,35.62453 l 2.6792,7.3346 0,166.5 c 0,159.89177 -0.074,166.71829 -1.8662,172 -6.6779,19.68004 -19.4536,34.47553 -37.13377,43.00454 -16.52759,7.97299 -6.17294,7.38978 -135.5,7.63188 -95.38396,0.17855 -116.83159,-0.0276 -123.14555,-1.18353 z m 241.22244,-3.88181 c 23.3177,-4.94295 42.45548,-21.98957 50.60018,-45.07108 l 2.8229,-8 0.2787,-160.5 c 0.313,-180.23061 0.7366,-169.11479 -7.0508,-185 -3.2732,-6.67682 -5.8895,-10.21593 -12.1974,-16.5 -11.98923,-11.94376 -24.17361,-18.1565 -40.13252,-20.46331 -4.24439,-0.61351 -48.87467,-1.00469 -116.01696,-1.01688 -93.69912,-0.017 -110.36357,0.19722 -117.92614,1.51602 -25.58618,4.46186 -45.5559,21.31755 -54.03857,45.61194 l -2.91628,8.35223 -0.27084,159.97809 c -0.30259,178.72437 -0.65363,169.03607 6.6674,184.01115 8.58565,17.56183 22.50378,29.52164 41.18978,35.39427 3.52751,1.10862 7.53866,2.20208 8.91366,2.4299 1.375,0.22783 54.475,0.46769 118,0.53304 95.30083,0.098 116.6502,-0.125 122.07689,-1.27537 z m -225.38398,-271.1989 c -1.00354,-0.30034 -1.67053,-1.28148 -1.5,-2.2065 0.22066,-1.19687 5.40698,-3.36345 18.42721,-7.69792 11.10517,-3.69695 19.62215,-7.1432 22,-8.90191 5.42465,-4.01222 11.37801,-9.77174 11.38965,-11.0188 0.0183,-1.9611 5.11534,-12.0393 7.23073,-14.29705 2.60801,-2.78352 6.57276,-2.89463 13.85743,-0.38833 13.26299,4.56314 23.90207,12.17294 23.90207,17.0964 0,3.69553 -5.19257,8.10066 -15.37556,13.04392 -17.88949,8.68432 -40.54137,13.80624 -64.12444,14.49947 -7.7,0.22634 -14.81319,0.16817 -15.80709,-0.12928 z m 178.54687,-3.86218 c -24.56819,-4.66224 -43.86312,-11.78415 -56.65373,-20.91135 -8.23523,-5.87653 -15.72614,-14.10622 -26.32077,-28.91659 -10.04534,-14.04251 -19.70155,-24.10163 -26.57328,-27.68206 -4.62042,-2.40741 -4.77447,-2.62835 -4.15933,-5.96544 0.91654,-4.97225 2.85835,-8.29268 6.95104,-11.88612 3.58528,-3.14792 4.95355,-3.52275 11.51629,-3.15489 8.40775,0.47128 13.33012,4.66928 26.71026,22.77961 11.8076,15.98187 24.0585,30.85584 29.65431,36.0037 9.79538,9.01124 30.62962,20.72485 56.36915,31.69234 12.66534,5.39665 14.72331,6.99223 11.7874,9.13901 -2.82945,2.06895 -14.99632,1.61262 -29.28134,-1.09821 z"
         id="path3422"
         inkscape:connector-curvature="0" />
    </g>
  </g>
</svg>
