<?xml version="1.0" encoding="UTF-8" standalone="no"?>
<!-- Created with Inkscape (http://www.inkscape.org/) -->

<svg
   xmlns:dc="http://purl.org/dc/elements/1.1/"
   xmlns:cc="http://creativecommons.org/ns#"
   xmlns:rdf="http://www.w3.org/1999/02/22-rdf-syntax-ns#"
   xmlns:svg="http://www.w3.org/2000/svg"
   xmlns="http://www.w3.org/2000/svg"
   xmlns:sodipodi="http://sodipodi.sourceforge.net/DTD/sodipodi-0.dtd"
   xmlns:inkscape="http://www.inkscape.org/namespaces/inkscape"
   width="359.00095"
   height="445.92505"
   id="svg2"
   version="1.1"
   inkscape:version="0.48.5 r10040"
   sodipodi:docname="char6.svg">
  <defs
     id="defs4" />
  <sodipodi:namedview
     id="base"
     pagecolor="#ffffff"
     bordercolor="#666666"
     borderopacity="1.0"
     inkscape:pageopacity="0.0"
     inkscape:pageshadow="2"
     inkscape:zoom="1.1210937"
     inkscape:cx="241.06723"
     inkscape:cy="95.361755"
     inkscape:document-units="px"
     inkscape:current-layer="layer1"
     showgrid="false"
     fit-margin-top="0"
     fit-margin-left="0"
     fit-margin-right="0"
     fit-margin-bottom="0"
     inkscape:window-width="958"
     inkscape:window-height="1078"
     inkscape:window-x="1920"
     inkscape:window-y="0"
     inkscape:window-maximized="0" />
  <metadata
     id="metadata7">
    <rdf:RDF>
      <cc:Work
         rdf:about="">
        <dc:format>image/svg+xml</dc:format>
        <dc:type
           rdf:resource="http://purl.org/dc/dcmitype/StillImage" />
        <dc:title></dc:title>
      </cc:Work>
    </rdf:RDF>
  </metadata>
  <g
     inkscape:label="Layer 1"
     inkscape:groupmode="layer"
     id="layer1"
     transform="translate(-696.69666,430.50007)">
    <g
       id="g3361"
       transform="translate(-10.703833,-170.36934)">
      <path
         style="fill:#e0c5c6"
         d="M 762.79213,183.94539 C 738.06665,177.865 718.71346,160.20781 710.61488,136.34064 l -2.71455,-8 -0.2801,-161.5 c -0.31525,-181.76892 -0.77512,-169.9327 7.24611,-186.5 9.05722,-18.70707 26.75198,-32.7258 48.30401,-38.26903 6.19387,-1.59308 16.0502,-1.73097 123.72998,-1.73097 107.67978,0 117.53607,0.13789 123.72997,1.73097 21.552,5.54323 39.2468,19.56196 48.304,38.26903 8.0213,16.5673 7.5614,4.73108 7.2461,186.5 l -0.2801,161.5 -2.7145,8 c -6.6021,19.45674 -19.4507,33.73538 -38.2855,42.54644 -15.5806,7.28877 -8.9939,6.96204 -138.69738,6.87994 -107.18522,-0.0678 -116.85983,-0.21064 -123.41079,-1.82163 z m 248.10817,-4.48496 c 24.4287,-7.36294 42.1017,-24.7731 48.4682,-47.74743 2.0037,-7.2306 2.0318,-9.56313 2.0318,-168.39216 0,-179.58411 0.5494,-165.69127 -7.1761,-181.4678 -8.2541,-16.85602 -25.5869,-30.34908 -44.9477,-34.9904 -8.1326,-1.94959 -11.68578,-2.00819 -122.17876,-2.01499 -128.16481,-0.008 -120.72702,-0.42339 -137.62992,7.68843 -12.89096,6.18646 -23.80785,16.89356 -29.89138,29.31696 -7.7255,15.77653 -7.17611,1.88369 -7.17611,181.4678 0,158.73068 0.0293,161.16584 2.02807,168.37854 7.22558,26.07436 29.78601,45.48219 57.47193,49.44078 1.65,0.23592 54.75,0.36139 118,0.27882 107.80832,-0.14073 115.37527,-0.26321 120.99997,-1.95855 z M 911.42736,135.7529 c -11.57832,-2.48071 -31.52878,-8.94909 -39.17932,-12.70279 l -5.65229,-2.77327 -3.18175,2.8429 c -2.50221,2.23572 -3.78723,2.70991 -6.01669,2.22024 -4.08612,-0.89746 -10.55555,2.60571 -11.4589,6.20495 -0.38438,1.53149 -1.16779,3.34954 -1.74092,4.04012 -1.56793,1.88923 -6.87785,1.50376 -10.60734,-0.77004 -3.69607,-2.25344 -5.30221,-5.4647 -7.79088,-15.57678 -0.93365,-3.79367 -1.76379,-6.99352 -1.84475,-7.11076 -0.081,-0.11724 -2.60127,0.43992 -5.60069,1.23813 -17.11675,4.55516 -29.93931,-1.17823 -29.94976,-13.39154 -0.004,-4.25843 0.0644,-4.35013 2.74626,-3.70254 1.5125,0.36522 8.7125,0.92638 16,1.24703 10.88369,0.47887 13.24932,0.33645 13.24617,-0.79746 -0.002,-0.75925 -1.11659,-7.00545 -2.47662,-13.88045 -4.08955,-20.67279 -3.30125,-27.04409 2.99133,-24.177 3.9838,1.81515 5.32968,5.13877 8.64277,21.34329 l 3.18118,15.55939 6.44702,-1.47057 c 13.73552,-3.13309 23.72236,-6.74252 23.63482,-8.54207 -0.0458,-0.94217 -0.15834,-4.38353 -0.25,-7.64747 l -0.16667,-5.93442 -6,2.02623 c -5.63273,1.9022 -6.00084,2.21955 -6.01365,5.18442 -0.0387,8.94147 -3.80976,10.26198 -7.59128,2.6582 -5.15327,-10.36207 -9.37734,-34.98262 -7.95499,-46.36673 0.99762,-7.9847 3.17593,-10.07452 9.61123,-9.22085 6.78977,0.90069 16.02633,-1.42895 37.36441,-9.42406 36.27453,-13.5916 41.82266,-14.73509 47.98283,-9.8895 4.23935,3.33467 3.56152,7.33778 -2.12675,12.56018 -2.60052,2.38753 -5.03935,4.34096 -5.41964,4.34096 -1.25722,0 -3.76795,9.36595 -4.81823,17.97377 -0.56866,4.66057 -1.03368,13.66057 -1.03338,20 l 5.4e-4,11.52623 16.24946,0.0489 c 15.08838,0.0455 16.82107,0.24668 24.24945,2.81629 12.27199,4.24509 20.10255,8.47992 24.49849,13.24895 3.52718,3.82653 4.00151,4.91868 4.00151,9.21343 0,3.78455 -0.64466,5.76223 -2.88761,8.85853 -8.38756,11.5787 -39.46289,28.02815 -56.11239,29.7026 -3.65625,0.36771 -8.6756,-0.12725 -14.97297,-1.47649 z m -48.21528,-31.82751 c 0.36072,-4.92781 2.13439,-5.00606 -15.46626,0.68233 -10.91999,3.52926 -11.13496,3.65645 -10.22509,6.04959 0.51118,1.3445 1.86019,3.7517 2.99781,5.34934 l 2.06839,2.90479 10.1567,-5.36367 10.1567,-5.36367 0.31175,-4.25871 z m 49.77053,11.36337 c 19.87676,-5.76006 30.88915,-12.23036 35.25188,-20.71214 2.36665,-4.60113 2.38898,-4.83193 0.65315,-6.75 -2.13852,-2.36304 -8.08261,-2.59761 -21.66959,-0.85515 l -8.81772,1.13083 0,6.67217 c 0,5.84238 -0.37361,7.1802 -3.00417,10.75721 -3.42497,4.65722 -9.05177,7.76272 -12.49799,6.89777 -1.28295,-0.322 -3.28685,-2.12939 -4.4531,-4.01642 -1.16625,-1.88703 -2.66592,-3.61879 -3.3326,-3.84836 -1.28098,-0.44111 -9.90084,2.25294 -13.86442,4.33318 -1.29125,0.6777 -4.11396,2.61725 -6.27271,4.31011 -3.87493,3.03867 -3.89406,3.08657 -1.5,3.75562 1.33375,0.37274 8.78715,0.72256 16.56312,0.77738 12.37376,0.0872 15.23709,-0.21878 22.94415,-2.4522 z M 893.56558,96.81947 c 2.54925,-1.16942 4.64026,-4.97883 2.7329,-4.97883 -3.06716,0 -22.45083,5.27024 -23.09132,6.27831 -0.42691,0.67193 -0.7831,2.43976 -0.79152,3.92851 l -0.0153,2.70682 9.25,-3.3561 c 5.0875,-1.84585 10.44936,-3.90627 11.91525,-4.57871 z m -6.34382,-16.82237 10.32143,-2.65646 -0.57143,-2.875 c -0.31429,-1.58125 -0.57143,-4.22672 -0.57143,-5.87883 l 0,-3.00383 -5.25,0.66993 c -2.8875,0.36846 -8.0625,1.14763 -11.5,1.73149 l -6.25,1.06155 0,7.50433 c 0,6.74719 0.17657,7.43366 1.75,6.80381 0.9625,-0.38529 6.39464,-1.89593 12.07143,-3.35699 z M 857.65033,65.78806 c 4.12449,-1.14543 4.38173,-2.05931 3.13665,-11.14316 l -0.61335,-4.47488 -4.38665,1.57743 -4.38665,1.57743 0,6.75788 c 0,7.39039 0.0425,7.4292 6.25,5.7053 z m 22.75,-7.44742 c 3.025,-0.81194 7.80133,-1.4816 10.61408,-1.48813 l 5.11407,-0.0119 0.63593,-4.63957 c 1.26763,-9.24841 1.91177,-8.69058 -9.11408,-7.89283 -5.3625,0.38799 -10.28381,1.22901 -10.93625,1.86892 -1.07087,1.05031 -3.09963,13.67999 -2.19292,13.65161 0.20855,-0.007 2.85417,-0.67619 5.87917,-1.48813 z M 857.77169,44.24926 c 2.84131,-0.67917 2.86452,-0.74455 2.2179,-6.24625 -0.3594,-3.05794 -0.75151,-5.61617 -0.87136,-5.68494 -0.11984,-0.0688 -2.30702,0.0621 -4.86038,0.2909 l -4.64249,0.41596 0.45454,4.15785 c 0.83493,7.63754 1.27583,8.80746 3.11374,8.26216 0.94418,-0.28013 3.0088,-0.81818 4.58805,-1.19568 z m 35.79567,-8.23735 4.66703,0.32873 0.66544,-5.33419 c 0.366,-2.93381 0.51584,-5.43503 0.33298,-5.55828 -0.18287,-0.12325 -6.02653,0.87212 -12.98593,2.21192 l -12.65346,2.436 0.99153,3.12228 c 0.54534,1.71725 1.14268,3.63243 1.32743,4.25596 0.24359,0.8221 2.07457,0.73176 6.66193,-0.32873 3.47931,-0.80433 8.42618,-1.31449 10.99305,-1.13369 z m -78.0481,-14.20276 c -13.92314,-2.02332 -19.11893,-5.56851 -19.11893,-13.04524 0,-2.1578 0.1125,-3.97484 0.25,-4.03787 0.1375,-0.063 14.99946,-0.43499 33.02658,-0.82658 21.10162,-0.45838 33.15935,-1.09475 33.85117,-1.78657 1.92597,-1.92597 -0.035,-6.95177 -3.68112,-9.4346 -1.88813,-1.28571 -3.43604,-2.79891 -3.4398,-3.36268 -0.004,-0.56376 3.39454,-4.38876 7.55177,-8.5 4.15722,-4.11123 9.63158,-10.73086 12.16523,-14.71028 5.13391,-8.06347 5.77633,-8.12495 9.45954,-0.90525 3.11122,6.09849 2.15038,12.30759 -3.04448,19.67389 -3.98949,5.6571 -5.39918,11.06974 -3.23189,12.40919 0.49885,0.30831 3.37162,-0.3826 6.38394,-1.53535 4.88045,-1.86764 5.75047,-2.65742 7.98833,-7.25154 3.13454,-6.43492 4.70794,-12.06362 4.71515,-16.86812 0.007,-4.48275 -3.26425,-13.58953 -6.23983,-17.37237 l -2.16381,-2.75084 5.12527,-4.58215 c 2.81889,-2.52018 7.62576,-6.09339 10.68193,-7.94046 l 5.55666,-3.35832 4.44954,2.60761 c 8.51449,4.98982 11.60731,11.51134 9.63625,20.31896 -1.14285,5.10682 -8.0941,16.65265 -15.69618,26.07094 l -2.6482,3.28088 8.40198,-3.15664 c 21.56166,-8.10076 40.49262,-14.14833 45.79381,-14.62903 10.00805,-0.9075 18.10816,3.17302 18.10816,9.12218 0,7.50363 -9.75488,11.08831 -34.49782,12.67709 -23.75646,1.52544 -26.54285,2.31062 -62.08094,17.4938 -13.24332,5.65804 -26.80827,10.99463 -30.14434,11.85909 -6.51527,1.68827 -27.18959,1.98887 -37.15797,0.54026 z m 74.38107,-107.07766 c -9.24053,-1.33258 -18.74659,-4.53785 -24.11362,-8.13068 -4.03062,-2.69821 -5.20202,-4.20821 -6.79581,-8.76017 -1.05914,-3.025 -2.03862,-5.65082 -2.17662,-5.83515 -0.138,-0.18433 -3.5501,2.14455 -7.58243,5.17529 -13.77777,10.3555 -27.13322,15.25569 -39.44301,14.47186 -7.84576,-0.49958 -10.38851,-2.46571 -10.38851,-8.03273 0,-7.57636 2.82864,-9.81551 16.78385,-13.28609 12.43634,-3.09285 21.60467,-6.24922 32.06511,-11.03902 l 8.34896,-3.82296 -0.37489,-16.0656 c -0.40658,-17.42377 -0.60644,-18.17193 -6.72776,-25.18409 -5.40821,-6.19528 -10.88208,-16.06979 -12.21844,-22.04128 -1.04137,-4.65332 -0.96123,-5.82666 0.64053,-9.37873 1.00695,-2.23301 3.34313,-5.38785 5.19152,-7.01076 2.73684,-2.40297 4.26404,-2.95074 8.22683,-2.95074 4.22111,0 5.66783,0.60266 10.91443,4.54659 10.66411,8.01636 19.14986,18.96614 19.14986,24.71047 0,1.2852 -1.9832,5.3562 -4.4071,9.04666 -3.05374,4.64941 -4.58117,8.1665 -4.97393,11.45311 -1.20093,10.04931 -1.81214,22.12159 -1.17242,23.15669 0.84944,1.37442 8.02966,-3.4738 25.05345,-16.91654 31.92958,-25.213 44.14176,-30.47855 62.57856,-26.98208 14.15321,2.6841 20.28404,10.58186 15.45843,19.91358 -1.86844,3.61316 -2.32349,3.77074 -19.03699,6.59239 -7.7,1.29995 -17.97681,3.52397 -22.83735,4.94227 -17.88637,5.21922 -40.4091,15.08933 -54.44125,23.85772 l -5.2786,3.29849 2.30359,3.4183 c 3.56642,5.29221 9.9499,7.35323 22.75361,7.34641 8.71545,-0.005 11.85965,-0.46048 18.5,-2.68206 10.18288,-3.40677 12.93364,-3.41616 16.04884,-0.0548 8.10015,8.74021 3.98381,22.33533 -7.82446,25.84201 -5.6233,1.66994 -23.9391,1.88489 -34.22438,0.40164 z"
         id="path3375"
         inkscape:connector-curvature="0" />
      <path
         style="fill:#bebebe"
         d="M 762.79213,183.94539 C 738.06665,177.865 718.71346,160.20781 710.61488,136.34064 l -2.71455,-8 -0.2801,-161.5 c -0.31525,-181.76892 -0.77512,-169.9327 7.24611,-186.5 9.05722,-18.70707 26.75198,-32.7258 48.30401,-38.26903 6.19387,-1.59308 16.0502,-1.73097 123.72998,-1.73097 107.67978,0 117.53607,0.13789 123.72997,1.73097 21.552,5.54323 39.2468,19.56196 48.304,38.26903 8.0213,16.5673 7.5614,4.73108 7.2461,186.5 l -0.2801,161.5 -2.7145,8 c -6.6021,19.45674 -19.4507,33.73538 -38.2855,42.54644 -15.5806,7.28877 -8.9939,6.96204 -138.69738,6.87994 -107.18522,-0.0678 -116.85983,-0.21064 -123.41079,-1.82163 z m 248.10817,-4.48496 c 24.4287,-7.36294 42.1017,-24.7731 48.4682,-47.74743 2.0037,-7.2306 2.0318,-9.56313 2.0318,-168.39216 0,-179.58411 0.5494,-165.69127 -7.1761,-181.4678 -8.2541,-16.85602 -25.5869,-30.34908 -44.9477,-34.9904 -8.1326,-1.94959 -11.68578,-2.00819 -122.17876,-2.01499 -128.16481,-0.008 -120.72702,-0.42339 -137.62992,7.68843 -12.89096,6.18646 -23.80785,16.89356 -29.89138,29.31696 -7.7255,15.77653 -7.17611,1.88369 -7.17611,181.4678 0,158.73068 0.0293,161.16584 2.02807,168.37854 7.22558,26.07436 29.78601,45.48219 57.47193,49.44078 1.65,0.23592 54.75,0.36139 118,0.27882 107.80832,-0.14073 115.37527,-0.26321 120.99997,-1.95855 z m -91.49997,-42.31635 c -14.99071,-2.54362 -36.97485,-9.24968 -47.15529,-14.3843 -4.99198,-2.51776 -5.80336,-2.67389 -6.91775,-1.33113 -1.9869,2.39406 -5.18559,3.79509 -8.17197,3.57932 -5.22546,-0.37756 -9.61982,2.35152 -11.7361,7.2886 -1.77496,4.14082 -2.25476,4.54407 -5.40663,4.54407 -3.86198,0 -8.80795,-3.528 -11.03188,-7.86912 -0.74128,-1.44698 -2.13845,-5.90361 -3.10481,-9.9036 -1.39555,-5.77651 -2.0881,-7.17283 -3.3663,-6.78716 -19.7809,5.96846 -34.10927,0.74917 -34.10927,-12.42473 0,-4.13585 0.0729,-4.23019 2.75,-3.5566 1.5125,0.38057 8.87436,0.93236 16.3597,1.2262 l 13.60969,0.53427 -2.83789,-14.35963 c -3.13089,-15.84215 -3.66729,-24.62086 -1.55395,-25.43183 2.38375,-0.91473 6.54213,1.41952 8.18358,4.59372 0.8838,1.70909 2.97482,9.71592 4.6467,17.79296 1.67188,8.07704 3.13097,14.78367 3.24242,14.90363 0.34553,0.37191 18.79919,-4.51879 24.59975,-6.51956 l 5.5,-1.8971 -0.35624,-7.40072 c -0.19593,-4.0704 -0.47426,-7.52905 -0.6185,-7.6859 -0.14424,-0.15684 -2.79643,0.663 -5.89376,1.82185 -5.46149,2.04341 -5.6315,2.21984 -5.6315,5.84404 0,2.05536 -0.63436,4.60456 -1.40968,5.66488 -1.37857,1.88531 -1.45535,1.88652 -3.47904,0.0551 -5.15185,-4.66236 -10.36698,-25.96614 -10.5109,-42.93697 -0.10015,-11.8088 -0.0938,-11.84194 2.73262,-14.27344 2.43343,-2.0934 3.49127,-2.35093 7.5,-1.82584 6.71866,0.88005 14.80807,-1.29667 41.29412,-11.11156 12.74259,-4.72199 25.95052,-9.31516 29.35096,-10.20702 6.11225,-1.60312 6.23863,-1.59383 11.10227,0.81627 4.14031,2.05167 4.96778,2.93245 5.22347,5.56003 0.26445,2.7175 -0.4813,3.82155 -5.75369,8.51805 -5.70112,5.07839 -6.14835,5.80666 -7.60129,12.37782 -0.84908,3.84008 -1.80982,14.65046 -2.13499,24.02308 l -0.59122,17.04112 12.97298,-0.4042 c 14.60993,-0.4552 22.85359,1.0786 36.63698,6.81665 16.62418,6.92066 23.0065,15.64754 18.21711,24.90921 -3.8268,7.4002 -22.96707,20.71996 -38.99891,27.13942 -7.01311,2.80818 -19.531,6.10253 -22.05079,5.80313 -0.55,-0.0654 -2.125,-0.3097 -3.5,-0.54301 z m -66.2657,-23.52253 10.23431,-5.28091 0.0157,-4.25 c 0.009,-2.3375 -0.30645,-4.25 -0.7002,-4.25 -1.63179,0 -26.2841,8.10844 -26.2841,8.64516 0,1.04016 5.29898,10.35385 5.90893,10.38575 0.32509,0.017 5.19651,-2.3455 10.82537,-5.25 z m 64.98821,0.44663 c 17.79351,-6.11798 27.0275,-12.14764 30.44922,-19.8829 2.06128,-4.65981 1.64167,-6.9517 -1.45253,-7.93376 -2.79498,-0.88709 -11.01635,-0.6485 -19.39493,0.56286 -3.75335,0.54265 -7.38677,0.99556 -8.07427,1.00645 -0.86007,0.0136 -1.25,1.90697 -1.25,6.06947 0,3.32731 -0.65201,7.31051 -1.44892,8.85156 -1.7232,3.33231 -7.56279,8.65033 -10.53434,9.59347 -2.41772,0.76735 -6.38748,-1.45039 -8.00447,-4.47177 -0.58196,-1.0874 -1.86269,-2.40768 -2.84607,-2.93397 -2.62034,-1.40237 -14.11112,2.89297 -20.261,7.57371 l -5.04175,3.83734 2.81828,0.68032 c 1.55005,0.37418 10.24327,0.57635 19.31827,0.44927 15.6169,-0.2187 16.9936,-0.40078 25.72251,-3.40205 z M 892.70217,97.36765 c 3.26145,-1.54766 5.3913,-4.1672 4.28649,-5.27202 -0.58676,-0.58676 -20.51516,3.69137 -22.83833,4.90282 -1.14481,0.59697 -1.75,2.08884 -1.75,4.31397 l 0,3.4014 8.37919,-2.83234 c 4.60856,-1.5578 9.97375,-3.58902 11.92265,-4.51383 z m -6.07133,-17.16235 10.73052,-2.84491 -0.61941,-5.50987 c -0.34068,-3.03044 -0.75301,-5.66848 -0.91629,-5.86232 -0.32747,-0.38876 -16.59738,1.64202 -20.17533,2.51824 -2.08352,0.51025 -2.25,1.1041 -2.25,8.02594 0,5.5685 0.3188,7.35288 1.25,6.99637 0.6875,-0.2632 6.07873,-1.75876 11.98051,-3.32345 z M 857.65033,65.78806 c 4.1302,-1.14702 4.38267,-2.05246 3.12689,-11.21434 l -0.6231,-4.54606 -4.3769,1.62219 -4.37689,1.62219 0,6.7843 c 0,7.41918 0.0404,7.45621 6.25,5.73172 z m 23.75,-7.44742 c 3.025,-0.81194 7.57633,-1.4816 10.11408,-1.48813 l 4.61407,-0.0119 0.63593,-4.63957 c 1.27272,-9.28554 1.91503,-8.72645 -9.11408,-7.93313 -5.3625,0.38573 -10.28381,1.23488 -10.93625,1.88701 -1.42756,1.42688 -2.94591,13.69074 -1.69292,13.67382 0.48355,-0.007 3.35417,-0.67619 6.37917,-1.48813 z M 857.77169,44.24926 c 2.84131,-0.67917 2.86452,-0.74455 2.2179,-6.24625 -0.3594,-3.05794 -0.75151,-5.61617 -0.87136,-5.68494 -0.11984,-0.0688 -2.3535,0.0658 -4.96367,0.29912 l -4.74577,0.42416 0.55874,4.14965 c 1.06939,7.94207 1.40077,8.79254 3.21611,8.25394 0.94418,-0.28013 3.0088,-0.81818 4.58805,-1.19568 z m 26.93705,-7.56818 c 2.64709,-0.5677 6.76997,-0.87653 9.16196,-0.68628 4.27926,0.34034 4.35837,0.28971 4.92835,-3.15413 0.3186,-1.92502 0.58422,-4.4372 0.59027,-5.58263 l 0.011,-2.08259 -12.75,2.44738 c -7.0125,1.34606 -12.87935,2.56257 -13.03744,2.70337 -0.15809,0.14079 0.1428,1.32664 0.66864,2.63521 0.52585,1.30858 1.22149,3.21342 1.54587,4.23298 0.40434,1.27086 1.13671,1.64389 2.32913,1.18631 0.95663,-0.36709 3.90513,-1.13193 6.55221,-1.69962 z m -69.80841,-14.9409 c -12.60386,-1.79935 -18.5,-5.99613 -18.5,-13.16799 0,-3.35776 0.1367,-3.47844 4.63957,-4.09563 2.55177,-0.34975 14.13927,-0.63862 25.75,-0.64191 11.61074,-0.003 24.87039,-0.29866 29.4659,-0.65635 l 8.35547,-0.65036 -0.55674,-3.59365 c -0.38648,-2.49463 -1.63151,-4.47963 -4.07106,-6.49067 l -3.5143,-2.89701 7.63766,-8.10299 c 4.20071,-4.45664 9.78807,-11.38929 12.41637,-15.4059 l 4.77871,-7.30292 2.58933,3.91274 c 4.95183,7.48272 4.32257,14.35404 -2.083,22.7458 -3.33946,4.37493 -4.65859,10.5563 -2.53309,11.86994 0.48115,0.29736 3.29365,-0.25754 6.25,-1.23313 5.13638,-1.695 5.52299,-2.07392 8.70235,-8.52929 5.58593,-11.3417 5.29079,-22.35214 -0.85909,-32.04951 l -2.86216,-4.51315 4.69704,-3.9001 c 2.58337,-2.14505 7.26347,-5.59172 10.40022,-7.65927 l 5.70318,-3.75918 3.45019,2.13233 c 5.5383,3.42286 10.35273,9.40841 11.09329,13.79176 1.17879,6.97718 -3.88268,17.45849 -14.65486,30.34737 l -5.70501,6.82604 6.70501,-2.56799 c 18.95432,-7.25941 44.16345,-15.43936 49.20538,-15.96635 9.64633,-1.00824 17.99964,3.3797 17.99964,9.45509 0,7.6102 -9.21504,10.32494 -44.5,13.10963 -14.62533,1.15423 -21.79409,3.42059 -52.23168,16.51274 -30.10505,12.94911 -32.48604,13.60814 -48.62366,13.45843 -7.22956,-0.06707 -15.84466,-0.5074 -19.14466,-0.97852 z m 75,-107.00869 c -9.24053,-1.33258 -18.74659,-4.53785 -24.11362,-8.13068 -4.03062,-2.69821 -5.20202,-4.20821 -6.79581,-8.76017 -1.05914,-3.025 -2.03862,-5.65082 -2.17662,-5.83515 -0.138,-0.18433 -3.5501,2.14455 -7.58243,5.17529 -13.77777,10.3555 -27.13322,15.25569 -39.44301,14.47186 -7.84576,-0.49958 -10.38851,-2.46571 -10.38851,-8.03273 0,-7.57636 2.82864,-9.81551 16.78385,-13.28609 12.43634,-3.09285 21.60467,-6.24922 32.06511,-11.03902 l 8.34896,-3.82296 -0.37489,-16.0656 c -0.40658,-17.42377 -0.60644,-18.17193 -6.72776,-25.18409 -5.40821,-6.19528 -10.88208,-16.06979 -12.21844,-22.04128 -1.04137,-4.65332 -0.96123,-5.82666 0.64053,-9.37873 1.00695,-2.23301 3.34313,-5.38785 5.19152,-7.01076 2.73684,-2.40297 4.26404,-2.95074 8.22683,-2.95074 4.22111,0 5.66783,0.60266 10.91443,4.54659 10.66411,8.01636 19.14986,18.96614 19.14986,24.71047 0,1.2852 -1.9832,5.3562 -4.4071,9.04666 -3.05374,4.64941 -4.58117,8.1665 -4.97393,11.45311 -1.20093,10.04931 -1.81214,22.12159 -1.17242,23.15669 0.84944,1.37442 8.02966,-3.4738 25.05345,-16.91654 31.92958,-25.213 44.14176,-30.47855 62.57856,-26.98208 14.15321,2.6841 20.28404,10.58186 15.45843,19.91358 -1.86844,3.61316 -2.32349,3.77074 -19.03699,6.59239 -7.7,1.29995 -17.97681,3.52397 -22.83735,4.94227 -17.88637,5.21922 -40.4091,15.08933 -54.44125,23.85772 l -5.2786,3.29849 2.30359,3.4183 c 3.56642,5.29221 9.9499,7.35323 22.75361,7.34641 8.71545,-0.005 11.85965,-0.46048 18.5,-2.68206 10.18288,-3.40677 12.93364,-3.41616 16.04884,-0.0548 8.10015,8.74021 3.98381,22.33533 -7.82446,25.84201 -5.6233,1.66994 -23.9391,1.88489 -34.22438,0.40164 z"
         id="path3373"
         inkscape:connector-curvature="0" />
      <path
         style="fill:#c38c8f"
         d="m 762.90033,183.89931 c -21.50814,-5.68872 -38.76649,-19.52909 -48.03361,-38.52063 -7.92608,-16.24331 -7.46732,-5.06487 -7.45884,-181.74588 0.005,-104.41051 0.35835,-159.45417 1.05095,-163.72289 4.87765,-30.06248 30.70936,-54.43036 62.58501,-59.03845 9.24339,-1.33626 222.46959,-1.33626 231.71296,0 31.8757,4.60809 57.7074,28.97597 62.585,59.03845 0.6926,4.26872 1.046,59.31238 1.051,163.72289 0.01,177.15441 0.5012,165.43833 -7.6607,182.15247 -3.856,7.89647 -6.0234,10.84703 -13.2219,18 -9.836,9.77375 -16.4054,13.96847 -28.8487,18.42063 l -8.7612,3.13474 -118.99997,0.20506 c -113.00131,0.19472 -119.35286,0.11172 -126,-1.64639 z m 247.99997,-4.33517 c 25.4151,-7.38468 44.9948,-27.66435 49.4555,-51.2235 0.8266,-4.3657 1.0555,-50.26217 0.8403,-168.5 l -0.2958,-162.5 -2.6792,-7.3346 c -7.3815,-20.20775 -22.0686,-34.39874 -43.3208,-41.85763 l -8,-2.80777 -119.99997,0 -120,0 -8,2.80777 c -10.996,3.85927 -20.28401,9.5789 -27.72315,17.07213 -7.34354,7.39692 -11.87782,14.60215 -15.59764,24.7855 l -2.67921,7.3346 -0.26467,163.28094 c -0.2328,143.62627 -0.0806,164.07477 1.26476,169.87566 4.71327,20.32322 22.11053,39.46626 42.67064,46.95254 11.52817,4.1976 13.1651,4.2473 133.32927,4.04824 106.05389,-0.17569 115.46677,-0.32613 120.99997,-1.93388 z m -91.49997,-42.42006 c -14.99071,-2.54362 -36.97485,-9.24968 -47.15529,-14.3843 -4.99198,-2.51776 -5.80336,-2.67389 -6.91775,-1.33113 -1.9869,2.39406 -5.18559,3.79509 -8.17197,3.57932 -5.22546,-0.37756 -9.61982,2.35152 -11.7361,7.2886 -1.77496,4.14082 -2.25476,4.54407 -5.40663,4.54407 -3.86198,0 -8.80795,-3.528 -11.03188,-7.86912 -0.74128,-1.44698 -2.13845,-5.90361 -3.10481,-9.9036 -1.39555,-5.77651 -2.0881,-7.17283 -3.3663,-6.78716 -19.7809,5.96846 -34.10927,0.74917 -34.10927,-12.42473 0,-4.13585 0.0729,-4.23019 2.75,-3.5566 1.5125,0.38057 8.87436,0.93236 16.3597,1.2262 l 13.60969,0.53427 -2.83789,-14.35963 c -3.13089,-15.84215 -3.66729,-24.62086 -1.55395,-25.43183 2.38375,-0.91473 6.54213,1.41952 8.18358,4.59372 0.8838,1.70909 2.97482,9.71592 4.6467,17.79296 1.67188,8.07704 3.13097,14.78367 3.24242,14.90363 0.34553,0.37191 18.79919,-4.51879 24.59975,-6.51956 l 5.5,-1.8971 -0.35624,-7.40072 c -0.19593,-4.0704 -0.47426,-7.52905 -0.6185,-7.6859 -0.14424,-0.15684 -2.79643,0.663 -5.89376,1.82185 -5.46149,2.04341 -5.6315,2.21984 -5.6315,5.84404 0,2.05536 -0.63436,4.60456 -1.40968,5.66488 -1.37857,1.88531 -1.45535,1.88652 -3.47904,0.0551 -5.15185,-4.66236 -10.36698,-25.96614 -10.5109,-42.93697 -0.10015,-11.8088 -0.0938,-11.84194 2.73262,-14.27344 2.43343,-2.0934 3.49127,-2.35093 7.5,-1.82584 6.71866,0.88005 14.80807,-1.29667 41.29412,-11.11156 12.74259,-4.72199 25.95052,-9.31516 29.35096,-10.20702 6.11225,-1.60312 6.23863,-1.59383 11.10227,0.81627 4.14031,2.05167 4.96778,2.93245 5.22347,5.56003 0.26445,2.7175 -0.4813,3.82155 -5.75369,8.51805 -5.70112,5.07839 -6.14835,5.80666 -7.60129,12.37782 -0.84908,3.84008 -1.80982,14.65046 -2.13499,24.02308 l -0.59122,17.04112 12.97298,-0.4042 c 14.60993,-0.4552 22.85359,1.0786 36.63698,6.81665 16.62418,6.92066 23.0065,15.64754 18.21711,24.90921 -3.8268,7.4002 -22.96707,20.71996 -38.99891,27.13942 -7.01311,2.80818 -19.531,6.10253 -22.05079,5.80313 -0.55,-0.0654 -2.125,-0.3097 -3.5,-0.54301 z m -66.2657,-23.52253 10.23431,-5.28091 0.0157,-4.25 c 0.009,-2.3375 -0.30645,-4.25 -0.7002,-4.25 -1.63179,0 -26.2841,8.10844 -26.2841,8.64516 0,1.04016 5.29898,10.35385 5.90893,10.38575 0.32509,0.017 5.19651,-2.3455 10.82537,-5.25 z m 64.98821,0.44663 c 17.79351,-6.11798 27.0275,-12.14764 30.44922,-19.8829 2.06128,-4.65981 1.64167,-6.9517 -1.45253,-7.93376 -2.79498,-0.88709 -11.01635,-0.6485 -19.39493,0.56286 -3.75335,0.54265 -7.38677,0.99556 -8.07427,1.00645 -0.86007,0.0136 -1.25,1.90697 -1.25,6.06947 0,3.32731 -0.65201,7.31051 -1.44892,8.85156 -1.7232,3.33231 -7.56279,8.65033 -10.53434,9.59347 -2.41772,0.76735 -6.38748,-1.45039 -8.00447,-4.47177 -0.58196,-1.0874 -1.86269,-2.40768 -2.84607,-2.93397 -2.62034,-1.40237 -14.11112,2.89297 -20.261,7.57371 l -5.04175,3.83734 2.81828,0.68032 c 1.55005,0.37418 10.24327,0.57635 19.31827,0.44927 15.6169,-0.2187 16.9936,-0.40078 25.72251,-3.40205 z M 892.70217,97.36765 c 3.26145,-1.54766 5.3913,-4.1672 4.28649,-5.27202 -0.58676,-0.58676 -20.51516,3.69137 -22.83833,4.90282 -1.14481,0.59697 -1.75,2.08884 -1.75,4.31397 l 0,3.4014 8.37919,-2.83234 c 4.60856,-1.5578 9.97375,-3.58902 11.92265,-4.51383 z m -6.07133,-17.16235 10.73052,-2.84491 -0.61941,-5.50987 c -0.34068,-3.03044 -0.75301,-5.66848 -0.91629,-5.86232 -0.32747,-0.38876 -16.59738,1.64202 -20.17533,2.51824 -2.08352,0.51025 -2.25,1.1041 -2.25,8.02594 0,5.5685 0.3188,7.35288 1.25,6.99637 0.6875,-0.2632 6.07873,-1.75876 11.98051,-3.32345 z M 857.65033,65.78806 c 4.1302,-1.14702 4.38267,-2.05246 3.12689,-11.21434 l -0.6231,-4.54606 -4.3769,1.62219 -4.37689,1.62219 0,6.7843 c 0,7.41918 0.0404,7.45621 6.25,5.73172 z m 23.75,-7.44742 c 3.025,-0.81194 7.57633,-1.4816 10.11408,-1.48813 l 4.61407,-0.0119 0.63593,-4.63957 c 1.27272,-9.28554 1.91503,-8.72645 -9.11408,-7.93313 -5.3625,0.38573 -10.28381,1.23488 -10.93625,1.88701 -1.42756,1.42688 -2.94591,13.69074 -1.69292,13.67382 0.48355,-0.007 3.35417,-0.67619 6.37917,-1.48813 z M 857.77169,44.24926 c 2.84131,-0.67917 2.86452,-0.74455 2.2179,-6.24625 -0.3594,-3.05794 -0.75151,-5.61617 -0.87136,-5.68494 -0.11984,-0.0688 -2.3535,0.0658 -4.96367,0.29912 l -4.74577,0.42416 0.55874,4.14965 c 1.06939,7.94207 1.40077,8.79254 3.21611,8.25394 0.94418,-0.28013 3.0088,-0.81818 4.58805,-1.19568 z m 26.93705,-7.56818 c 2.64709,-0.5677 6.76997,-0.87653 9.16196,-0.68628 4.27926,0.34034 4.35837,0.28971 4.92835,-3.15413 0.3186,-1.92502 0.58422,-4.4372 0.59027,-5.58263 l 0.011,-2.08259 -12.75,2.44738 c -7.0125,1.34606 -12.87935,2.56257 -13.03744,2.70337 -0.15809,0.14079 0.1428,1.32664 0.66864,2.63521 0.52585,1.30858 1.22149,3.21342 1.54587,4.23298 0.40434,1.27086 1.13671,1.64389 2.32913,1.18631 0.95663,-0.36709 3.90513,-1.13193 6.55221,-1.69962 z m -69.80841,-14.9409 c -12.60386,-1.79935 -18.5,-5.99613 -18.5,-13.16799 0,-3.35776 0.1367,-3.47844 4.63957,-4.09563 2.55177,-0.34975 14.13927,-0.63862 25.75,-0.64191 11.61074,-0.003 24.87039,-0.29866 29.4659,-0.65635 l 8.35547,-0.65036 -0.55674,-3.59365 c -0.38648,-2.49463 -1.63151,-4.47963 -4.07106,-6.49067 l -3.5143,-2.89701 7.63766,-8.10299 c 4.20071,-4.45664 9.78807,-11.38929 12.41637,-15.4059 l 4.77871,-7.30292 2.58933,3.91274 c 4.95183,7.48272 4.32257,14.35404 -2.083,22.7458 -3.33946,4.37493 -4.65859,10.5563 -2.53309,11.86994 0.48115,0.29736 3.29365,-0.25754 6.25,-1.23313 5.13638,-1.695 5.52299,-2.07392 8.70235,-8.52929 5.58593,-11.3417 5.29079,-22.35214 -0.85909,-32.04951 l -2.86216,-4.51315 4.69704,-3.9001 c 2.58337,-2.14505 7.26347,-5.59172 10.40022,-7.65927 l 5.70318,-3.75918 3.45019,2.13233 c 5.5383,3.42286 10.35273,9.40841 11.09329,13.79176 1.17879,6.97718 -3.88268,17.45849 -14.65486,30.34737 l -5.70501,6.82604 6.70501,-2.56799 c 18.95432,-7.25941 44.16345,-15.43936 49.20538,-15.96635 9.64633,-1.00824 17.99964,3.3797 17.99964,9.45509 0,7.6102 -9.21504,10.32494 -44.5,13.10963 C 920.275,-6.09824 913.10624,-3.83188 882.66865,9.26027 852.5636,22.20938 850.18261,22.86841 834.04499,22.7187 826.81543,22.65163 818.20033,22.2113 814.90033,21.74018 z M 891.21429,-85.191 c -8.2937,-1.28424 -17.66524,-3.85184 -21.84866,-5.98606 -5.05228,-2.57748 -9.78171,-8.26716 -11.16215,-13.42848 l -1.15904,-4.33354 -7.07206,5.27799 c -9.36989,6.9929 -16.59985,10.88434 -24.92739,13.4169 -11.42145,3.47347 -23.19058,2.31649 -25.02348,-2.45997 -1.46318,-3.813 -0.6071,-8.09415 2.12882,-10.64592 3.86772,-3.60739 6.11173,-4.59734 14.34915,-6.33014 9.2819,-1.95251 22.31256,-6.35932 32.15085,-10.87302 l 7.75,-3.55563 -0.006,-14.27524 c -0.003,-7.85139 -0.48429,-15.99923 -1.06939,-18.10633 -0.58509,-2.10709 -3.25824,-6.55433 -5.94032,-9.88276 -2.68208,-3.32843 -6.5578,-9.25119 -8.61271,-13.1617 -4.78143,-9.09908 -5.08901,-14.5346 -1.14471,-20.22901 5.69706,-8.22489 12.96451,-9.62981 20.63873,-3.98982 6.09182,4.47703 17.39505,16.2518 19.48198,20.29471 2.48782,4.81954 2.03999,7.43225 -2.31677,13.51639 -2.18282,3.04828 -4.39253,7.50903 -4.91046,9.91279 -1.45408,6.75041 -2.49256,26.87048 -1.38647,26.87048 1.39484,0 14.2238,-9.17125 26.26612,-18.7773 29.1195,-23.22835 43.56988,-29.53491 60.1844,-26.2662 11.81909,2.32526 17.8156,7.09221 17.8156,14.16258 0,2.80396 -0.74684,4.66567 -2.75,6.85516 -2.5278,2.76293 -3.80041,3.17042 -15.75,5.04319 -23.51189,3.68485 -44.44548,10.67386 -67.2471,22.45154 -16.67413,8.61265 -17.56539,9.31059 -15.96374,12.50101 4.52078,9.00522 25.24527,11.69887 42.96185,5.58393 8.90501,-3.07359 10.724,-3.14801 13.99806,-0.57263 5.74965,4.52267 6.96915,14.09478 2.58084,20.25759 -4.00352,5.62242 -8.91151,7.18052 -23.32991,7.40634 -7.15,0.11198 -15.55872,-0.1926 -18.68604,-0.67685 z"
         id="path3371"
         inkscape:connector-curvature="0" />
      <path
         style="fill:#7c7c7c"
         d="m 762.90033,183.89931 c -21.50814,-5.68872 -38.76649,-19.52909 -48.03361,-38.52063 -7.92608,-16.24331 -7.46732,-5.06487 -7.45884,-181.74588 0.005,-104.41051 0.35835,-159.45417 1.05095,-163.72289 4.87765,-30.06248 30.70936,-54.43036 62.58501,-59.03845 9.24339,-1.33626 222.46959,-1.33626 231.71296,0 31.8757,4.60809 57.7074,28.97597 62.585,59.03845 0.6926,4.26872 1.046,59.31238 1.051,163.72289 0.01,177.15441 0.5012,165.43833 -7.6607,182.15247 -3.856,7.89647 -6.0234,10.84703 -13.2219,18 -9.836,9.77375 -16.4054,13.96847 -28.8487,18.42063 l -8.7612,3.13474 -118.99997,0.20506 c -113.00131,0.19472 -119.35286,0.11172 -126,-1.64639 z m 247.99997,-4.33517 c 25.4151,-7.38468 44.9948,-27.66435 49.4555,-51.2235 0.8266,-4.3657 1.0555,-50.26217 0.8403,-168.5 l -0.2958,-162.5 -2.6792,-7.3346 c -7.3815,-20.20775 -22.0686,-34.39874 -43.3208,-41.85763 l -8,-2.80777 -119.99997,0 -120,0 -8,2.80777 c -10.996,3.85927 -20.28401,9.5789 -27.72315,17.07213 -7.34354,7.39692 -11.87782,14.60215 -15.59764,24.7855 l -2.67921,7.3346 -0.26467,163.28094 c -0.2328,143.62627 -0.0806,164.07477 1.26476,169.87566 4.71327,20.32322 22.11053,39.46626 42.67064,46.95254 11.52817,4.1976 13.1651,4.2473 133.32927,4.04824 106.05389,-0.17569 115.46677,-0.32613 120.99997,-1.93388 z m -176.19564,-44.6795 c -4.36933,-2.66415 -5.83214,-5.24421 -8.15343,-14.38074 -1.09507,-4.31021 -2.20494,-8.05063 -2.46637,-8.31206 -0.26143,-0.26143 -3.87843,0.2276 -8.03777,1.08673 -10.33984,2.13576 -13.4209,1.97726 -19.39046,-0.9975 -4.24091,-2.11333 -5.42343,-3.31118 -6.78283,-6.87073 -1.72377,-4.51362 -1.66342,-9.20298 0.1143,-8.88169 8.61836,1.55758 19.89166,2.38655 25.00633,1.83882 3.52325,-0.37731 6.4059,-0.81332 6.4059,-0.96891 0,-0.15558 -1.14285,-5.85727 -2.53966,-12.6704 -2.38396,-11.62811 -3.53427,-25.14693 -2.24908,-26.43212 0.31491,-0.31491 2.14536,0.0846 4.06766,0.88778 4.12581,1.72387 5.2392,4.6194 8.80679,22.90338 1.26061,6.46061 2.61122,12.26307 3.00137,12.89435 0.83787,1.35568 5.0392,0.47343 20.7813,-4.36396 l 10.36838,-3.1861 -0.46933,-7.31303 c -0.25812,-4.02217 -0.74769,-7.59141 -1.08792,-7.93164 -0.34023,-0.34024 -2.98551,0.23224 -5.87839,1.27216 -5.16288,1.85592 -5.2786,1.98613 -6.28046,7.06715 -0.56136,2.84701 -1.3554,5.50471 -1.76453,5.90598 -2.69628,2.64455 -8.25996,-10.48263 -11.21111,-26.45194 -1.87896,-10.16749 -2.01677,-26.6478 -0.25202,-30.13953 1.14677,-2.269 1.89906,-2.51735 8.14165,-2.68778 9.67708,-0.26419 14.10737,-1.47643 39.56535,-10.82613 12.375,-4.54485 24.94418,-8.98847 27.9315,-9.87472 11.60621,-3.44322 20.0685,-0.85866 20.0685,6.12934 0,0.86743 -2.86409,4.31812 -6.36466,7.66822 -5.56359,5.32445 -6.51377,6.7833 -7.54949,11.59107 -1.24381,5.77377 -3.00695,26.57693 -3.05668,36.06559 l -0.0292,5.56559 15.25,0.003 c 13.78326,0.002 16.11554,0.267 24.24913,2.75223 23.4483,7.16465 33.15652,16.03734 29.53945,26.99717 -4.04726,12.26331 -42.85358,33.64404 -60.99868,33.60783 -9.55033,-0.0191 -37.55764,-7.7687 -50.47327,-13.966 l -5.93336,-2.847 -3.16103,2.41103 c -2.09017,1.59425 -4.48412,2.4123 -7.06663,2.41477 -5.0739,0.005 -9.71736,2.90099 -11.42853,7.12799 -2.21584,5.47367 -5.1561,6.27598 -10.67275,2.91227 z m 18.82118,-21.20789 9.87449,-5.16389 0,-4.33611 c 0,-2.80128 -0.44246,-4.33673 -1.25,-4.33787 -2.96597,-0.004 -25.00975,7.51509 -25.4583,8.68398 -0.54702,1.4255 4.69444,10.31315 6.08381,10.31599 0.48153,9.9e-4 5.31903,-2.32196 10.75,-5.1621 z m 61.17387,1.70283 c 11.86438,-3.45009 23.05752,-8.90496 28.42531,-13.85282 7.55732,-6.96609 9.20404,-12.37626 4.67107,-15.34638 -2.36888,-1.55215 -3.65674,-1.59313 -14.25,-0.45352 -16.65459,1.79168 -16.03187,1.54399 -15.41646,6.13221 0.8974,6.69063 -0.49067,10.79557 -5.26484,15.56974 -6.04866,6.04867 -9.93263,6.13374 -14.53843,0.31843 -2.85435,-3.60391 -3.60429,-4.02095 -6.2714,-3.48753 -6.83028,1.36606 -21.65463,10.06561 -21.65463,12.70785 0,1.01335 13.7338,1.69255 26,1.28583 6.44027,-0.21355 12.33407,-1.13913 18.29938,-2.87381 z M 884.8059,100.72915 c 9.58045,-3.46877 12.59443,-5.33842 12.59443,-7.81261 0,-1.83399 -0.19688,-1.83498 -8.40111,-0.0421 -17.04209,3.72415 -16.59889,3.50862 -16.59889,8.07213 0,4.61506 -0.9892,4.6324 12.40557,-0.21742 z m -2.96936,-18.8265 c 3.88509,-1.0659 8.99717,-2.43886 11.36018,-3.05104 l 4.2964,-1.11304 -0.2964,-6.19897 -0.29639,-6.19896 -3.5,0.28511 c -7.59645,0.61882 -18.56576,2.55158 -19.75,3.47991 -1.67514,1.31314 -1.73324,14.73498 -0.0638,14.73498 0.65242,0 4.36492,-0.8721 8.25,-1.93799 z M 861.49328,57.84389 c -0.13355,-4.11754 -0.43995,-7.68358 -0.68089,-7.92452 -0.24094,-0.24095 -2.56972,0.44333 -5.17507,1.5206 l -4.73699,1.95868 -0.30402,5.85903 c -0.43844,8.44941 -0.30415,8.61395 5.90495,7.23513 l 5.23483,-1.16248 -0.24281,-7.48644 z m 31.40705,-0.80778 4,0.27336 0.5773,-6.48442 c 0.31752,-3.56642 0.31752,-6.75223 0,-7.07956 -0.81654,-0.84179 -20.16615,0.78231 -21.14931,1.77516 -0.95538,0.96478 -3.05946,13.29826 -2.43974,14.30098 0.23347,0.37776 3.70663,-0.15594 7.71812,-1.18602 4.0115,-1.03007 9.09363,-1.74985 11.29363,-1.5995 z m -35.64922,-12.2933 c 3.06364,-1.06799 3.14922,-1.262 3.14922,-7.13929 l 0,-6.04146 -5.13561,0.60824 c -2.82459,0.33453 -5.32729,0.7999 -5.56155,1.03417 -0.23427,0.23426 -0.11512,3.17324 0.26478,6.53105 0.75641,6.68582 1.33232,7.08177 7.28316,5.00729 z m 33.14922,-7.78572 8.5,-0.61645 0.59,-5.5 c 0.3245,-3.025 0.48873,-5.63577 0.36495,-5.80172 -0.28404,-0.38079 -25.37277,4.38621 -25.90952,4.92296 -0.21799,0.21798 0.12263,2.34063 0.75691,4.71699 1.10655,4.1457 1.27562,4.29178 4.17546,3.60766 1.66221,-0.39214 6.8472,-0.99039 11.5222,-1.32944 z m -67.5,-14.79351 c -7.87544,-0.6711 -17.05636,-2.49429 -20.29405,-4.03009 -3.81608,-1.81016 -6.46121,-6.25505 -6.01596,-10.10925 l 0.31001,-2.6836 30,-0.6852 c 16.5,-0.37686 31.94125,-0.97125 34.31389,-1.32085 4.22107,-0.62198 4.30057,-0.70407 3.69464,-3.8148 -0.3777,-1.93907 -2.13356,-4.51169 -4.50142,-6.59533 l -3.88216,-3.41619 8.4914,-9.02037 c 4.67027,-4.96121 10.10612,-11.63643 12.07966,-14.83382 1.97355,-3.19739 3.96516,-5.81344 4.4258,-5.81344 0.46065,0 1.74669,1.78207 2.85787,3.96016 3.82776,7.50304 2.01877,17.06013 -4.55541,24.06673 -1.93742,2.06485 -2.26047,3.20764 -1.76676,6.25 0.68337,4.21116 1.16281,4.3444 7.66282,2.12963 5.40884,-1.84298 7.93124,-4.89343 10.89645,-13.17757 3.25278,-9.08755 2.82368,-15.84597 -1.5546,-24.4851 -2.01913,-3.98412 -3.66913,-7.58322 -3.66666,-7.99801 0.007,-1.2038 15.95141,-12.69442 18.5034,-13.33493 2.68527,-0.67395 5.83457,0.75383 9.84036,4.46128 9.45424,8.75011 7.22462,20.33549 -7.4283,38.59837 -3.76391,4.69119 -6.6823,8.52944 -6.48532,8.52944 0.19698,0 6.1554,-2.19324 13.24095,-4.87387 35.8586,-13.56616 46.57425,-15.77729 55.01068,-11.35123 4.4174,2.31753 5.87561,4.88605 4.92475,8.67457 -1.33941,5.33662 -13.83727,9.1188 -33.3147,10.0819 -22.73385,1.12412 -27.47806,2.45143 -62.89309,17.59596 -12.70816,5.43439 -26.61764,10.7789 -30.90996,11.87669 -7.39301,1.89081 -17.09313,2.33221 -28.98429,1.31892 z M 891.21429,-85.191 c -8.2937,-1.28424 -17.66524,-3.85184 -21.84866,-5.98606 -5.05228,-2.57748 -9.78171,-8.26716 -11.16215,-13.42848 l -1.15904,-4.33354 -7.07206,5.27799 c -9.36989,6.9929 -16.59985,10.88434 -24.92739,13.4169 -11.42145,3.47347 -23.19058,2.31649 -25.02348,-2.45997 -1.46318,-3.813 -0.6071,-8.09415 2.12882,-10.64592 3.86772,-3.60739 6.11173,-4.59734 14.34915,-6.33014 9.2819,-1.95251 22.31256,-6.35932 32.15085,-10.87302 l 7.75,-3.55563 -0.006,-14.27524 c -0.003,-7.85139 -0.48429,-15.99923 -1.06939,-18.10633 -0.58509,-2.10709 -3.25824,-6.55433 -5.94032,-9.88276 -2.68208,-3.32843 -6.5578,-9.25119 -8.61271,-13.1617 -4.78143,-9.09908 -5.08901,-14.53461 -1.14471,-20.22901 5.69706,-8.22489 12.96451,-9.62981 20.63873,-3.98982 6.09182,4.47703 17.39505,16.2518 19.48198,20.29471 2.48782,4.81954 2.03999,7.43225 -2.31677,13.51639 -2.18282,3.04828 -4.39253,7.50903 -4.91046,9.91279 -1.45408,6.75041 -2.49256,26.87048 -1.38647,26.87048 1.39484,0 14.2238,-9.17125 26.26612,-18.7773 29.1195,-23.22835 43.56988,-29.53491 60.1844,-26.2662 11.81909,2.32526 17.8156,7.09221 17.8156,14.16258 0,2.80396 -0.74684,4.66567 -2.75,6.85516 -2.5278,2.76293 -3.80041,3.17042 -15.75,5.04319 -23.51189,3.68485 -44.44548,10.67386 -67.2471,22.45154 -16.67413,8.61265 -17.56539,9.31059 -15.96374,12.50101 4.52078,9.00522 25.24527,11.69887 42.96185,5.58393 8.90501,-3.07359 10.724,-3.14801 13.99806,-0.57263 5.74965,4.52267 6.96915,14.09478 2.58084,20.25759 -4.00352,5.62242 -8.91151,7.18052 -23.32991,7.40634 -7.15,0.11198 -15.55872,-0.1926 -18.68604,-0.67685 z"
         id="path3369"
         inkscape:connector-curvature="0" />
      <path
         style="fill:#a55357"
         d="m 766.90033,184.35722 c -15.36617,-2.92194 -27.13468,-9.11646 -38,-20.00182 -8.88561,-8.902 -13.32411,-15.73886 -17.32079,-26.68016 l -2.67921,-7.3346 -0.27936,-164 c -0.31228,-183.33063 -0.7542,-171.25499 6.81721,-186.28688 8.9833,-17.83499 23.76573,-30.06496 43.96215,-36.37126 l 7.5,-2.34186 120,0 119.99997,0 7.5,2.34186 c 20.1965,6.3063 34.9789,18.53627 43.9622,36.37126 7.5714,15.03189 7.1295,2.95625 6.8172,186.28688 l -0.2794,164 -2.6792,7.3346 c -3.9983,10.94583 -8.4304,17.77008 -17.3956,26.78494 -6.6116,6.64811 -9.7829,8.9576 -17.5,12.74411 -17.8439,8.75535 -6.6451,8.07948 -137.42517,8.29386 -93.02257,0.15249 -117.38657,-0.0735 -123,-1.14093 z m 247.99997,-5.83252 c 23.6519,-8.32525 41.3722,-28.05551 45.9701,-51.18406 1.4212,-7.14919 1.5603,-25.0162 1.3084,-168 -0.2694,-152.95586 -0.3638,-160.24214 -2.1426,-165.5 -6.6156,-19.55462 -19.3348,-34.15113 -37.1359,-42.61728 -15.3841,-7.31666 -6.8096,-6.88272 -135.99997,-6.88272 -129.19035,0 -120.61583,-0.43394 -136,6.88272 -17.68648,8.41164 -30.67783,23.31411 -37.15196,42.61728 -1.7574,5.23986 -1.85798,13.06759 -2.12654,165.5 -0.31524,178.93332 -0.69972,168.51807 6.7962,184.10322 6.43046,13.3699 20.80603,27.04416 34.59708,32.90926 2.13687,0.90878 7.03522,2.49505 10.88522,3.52506 6.67567,1.78596 12.46737,1.86323 125,1.6676 l 117.99997,-0.20514 8,-2.81594 z M 834.70466,134.88464 c -4.36933,-2.66415 -5.83214,-5.24421 -8.15343,-14.38074 -1.09507,-4.31021 -2.20494,-8.05063 -2.46637,-8.31206 -0.26143,-0.26143 -3.87843,0.2276 -8.03777,1.08673 -10.33984,2.13576 -13.4209,1.97726 -19.39046,-0.9975 -4.24091,-2.11333 -5.42343,-3.31118 -6.78283,-6.87073 -1.72377,-4.51362 -1.66342,-9.20298 0.1143,-8.88169 8.61836,1.55758 19.89166,2.38655 25.00633,1.83882 3.52325,-0.37731 6.4059,-0.81332 6.4059,-0.96891 0,-0.15558 -1.14285,-5.85727 -2.53966,-12.6704 -2.38396,-11.62811 -3.53427,-25.14693 -2.24908,-26.43212 0.31491,-0.31491 2.14536,0.0846 4.06766,0.88778 4.12581,1.72387 5.2392,4.6194 8.80679,22.90338 1.26061,6.46061 2.61122,12.26307 3.00137,12.89435 0.83787,1.35568 5.0392,0.47343 20.7813,-4.36396 l 10.36838,-3.1861 -0.46933,-7.31303 c -0.25812,-4.02217 -0.74769,-7.59141 -1.08792,-7.93164 -0.34023,-0.34024 -2.98551,0.23224 -5.87839,1.27216 -5.16288,1.85592 -5.2786,1.98613 -6.28046,7.06715 -0.56136,2.84701 -1.3554,5.50471 -1.76453,5.90598 -2.69628,2.64455 -8.25996,-10.48263 -11.21111,-26.45194 -1.87896,-10.16749 -2.01677,-26.6478 -0.25202,-30.13953 1.14677,-2.269 1.89906,-2.51735 8.14165,-2.68778 9.67708,-0.26419 14.10737,-1.47643 39.56535,-10.82613 12.375,-4.54485 24.94418,-8.98847 27.9315,-9.87472 11.60621,-3.44322 20.0685,-0.85866 20.0685,6.12934 0,0.86743 -2.86409,4.31812 -6.36466,7.66822 -5.56359,5.32445 -6.51377,6.7833 -7.54949,11.59107 -1.24381,5.77377 -3.00695,26.57693 -3.05668,36.06559 l -0.0292,5.56559 15.25,0.003 c 13.78326,0.002 16.11554,0.267 24.24913,2.75223 23.4483,7.16465 33.15652,16.03734 29.53945,26.99717 -4.04726,12.26331 -42.85358,33.64404 -60.99868,33.60783 -9.55033,-0.0191 -37.55764,-7.7687 -50.47327,-13.966 l -5.93336,-2.847 -3.16103,2.41103 c -2.09017,1.59425 -4.48412,2.4123 -7.06663,2.41477 -5.0739,0.005 -9.71736,2.90099 -11.42853,7.12799 -2.21584,5.47367 -5.1561,6.27598 -10.67275,2.91227 z m 18.82118,-21.20789 9.87449,-5.16389 0,-4.33611 c 0,-2.80128 -0.44246,-4.33673 -1.25,-4.33787 -2.96597,-0.004 -25.00975,7.51509 -25.4583,8.68398 -0.54702,1.4255 4.69444,10.31315 6.08381,10.31599 0.48153,9.9e-4 5.31903,-2.32196 10.75,-5.1621 z m 61.17387,1.70283 c 11.86438,-3.45009 23.05752,-8.90496 28.42531,-13.85282 7.55732,-6.96609 9.20404,-12.37626 4.67107,-15.34638 -2.36888,-1.55215 -3.65674,-1.59313 -14.25,-0.45352 -16.65459,1.79168 -16.03187,1.54399 -15.41646,6.13221 0.8974,6.69063 -0.49067,10.79557 -5.26484,15.56974 -6.04866,6.04867 -9.93263,6.13374 -14.53843,0.31843 -2.85435,-3.60391 -3.60429,-4.02095 -6.2714,-3.48753 -6.83028,1.36606 -21.65463,10.06561 -21.65463,12.70785 0,1.01335 13.7338,1.69255 26,1.28583 6.44027,-0.21355 12.33407,-1.13913 18.29938,-2.87381 z M 884.8059,100.72915 c 9.58045,-3.46877 12.59443,-5.33842 12.59443,-7.81261 0,-1.83399 -0.19688,-1.83498 -8.40111,-0.0421 -17.04209,3.72415 -16.59889,3.50862 -16.59889,8.07213 0,4.61506 -0.9892,4.6324 12.40557,-0.21742 z m -2.96936,-18.8265 c 3.88509,-1.0659 8.99717,-2.43886 11.36018,-3.05104 l 4.2964,-1.11304 -0.2964,-6.19897 -0.29639,-6.19896 -3.5,0.28511 c -7.59645,0.61882 -18.56576,2.55158 -19.75,3.47991 -1.67514,1.31314 -1.73324,14.73498 -0.0638,14.73498 0.65242,0 4.36492,-0.8721 8.25,-1.93799 z M 861.49328,57.84389 c -0.13355,-4.11754 -0.43995,-7.68358 -0.68089,-7.92452 -0.24094,-0.24095 -2.56972,0.44333 -5.17507,1.5206 l -4.73699,1.95868 -0.30402,5.85903 c -0.43844,8.44941 -0.30415,8.61395 5.90495,7.23513 l 5.23483,-1.16248 -0.24281,-7.48644 z m 31.40705,-0.80778 4,0.27336 0.5773,-6.48442 c 0.31752,-3.56642 0.31752,-6.75223 0,-7.07956 -0.81654,-0.84179 -20.16615,0.78231 -21.14931,1.77516 -0.95538,0.96478 -3.05946,13.29826 -2.43974,14.30098 0.23347,0.37776 3.70663,-0.15594 7.71812,-1.18602 4.0115,-1.03007 9.09363,-1.74985 11.29363,-1.5995 z m -35.64922,-12.2933 c 3.06364,-1.06799 3.14922,-1.262 3.14922,-7.13929 l 0,-6.04146 -5.13561,0.60824 c -2.82459,0.33453 -5.32729,0.7999 -5.56155,1.03417 -0.23427,0.23426 -0.11512,3.17324 0.26478,6.53105 0.75641,6.68582 1.33232,7.08177 7.28316,5.00729 z m 33.14922,-7.78572 8.5,-0.61645 0.59,-5.5 c 0.3245,-3.025 0.48873,-5.63577 0.36495,-5.80172 -0.28404,-0.38079 -25.37277,4.38621 -25.90952,4.92296 -0.21799,0.21798 0.12263,2.34063 0.75691,4.71699 1.10655,4.1457 1.27562,4.29178 4.17546,3.60766 1.66221,-0.39214 6.8472,-0.99039 11.5222,-1.32944 z m -67.5,-14.79351 c -7.87544,-0.6711 -17.05636,-2.49429 -20.29405,-4.03009 -3.81608,-1.81016 -6.46121,-6.25505 -6.01596,-10.10925 l 0.31001,-2.6836 30,-0.6852 c 16.5,-0.37686 31.94125,-0.97125 34.31389,-1.32085 4.22107,-0.62198 4.30057,-0.70407 3.69464,-3.8148 -0.3777,-1.93907 -2.13356,-4.51169 -4.50142,-6.59533 l -3.88216,-3.41619 8.4914,-9.02037 c 4.67027,-4.96121 10.10612,-11.63643 12.07966,-14.83382 1.97355,-3.19739 3.96516,-5.81344 4.4258,-5.81344 0.46065,0 1.74669,1.78207 2.85787,3.96016 3.82776,7.50304 2.01877,17.06013 -4.55541,24.06673 -1.93742,2.06485 -2.26047,3.20764 -1.76676,6.25 0.68337,4.21116 1.16281,4.3444 7.66282,2.12963 5.40884,-1.84298 7.93124,-4.89343 10.89645,-13.17757 3.25278,-9.08755 2.82368,-15.84597 -1.5546,-24.4851 -2.01913,-3.98412 -3.66913,-7.58322 -3.66666,-7.99801 0.007,-1.2038 15.95141,-12.69442 18.5034,-13.33493 2.68527,-0.67395 5.83457,0.75383 9.84036,4.46128 9.45424,8.75011 7.22462,20.33549 -7.4283,38.59837 -3.76391,4.69119 -6.6823,8.52944 -6.48532,8.52944 0.19698,0 6.1554,-2.19324 13.24095,-4.87387 35.8586,-13.56616 46.57425,-15.77729 55.01068,-11.35123 4.4174,2.31753 5.87561,4.88605 4.92475,8.67457 -1.33941,5.33662 -13.83727,9.1188 -33.3147,10.0819 -22.73385,1.12412 -27.47806,2.45143 -62.89309,17.59596 -12.70816,5.43439 -26.61764,10.7789 -30.90996,11.87669 -7.39301,1.89081 -17.09313,2.33221 -28.98429,1.31892 z m 72.42753,-107.32514 c -15.97707,-1.83935 -27.68224,-5.85509 -32.67412,-11.20964 -1.23563,-1.3254 -3.03563,-4.70687 -4,-7.51439 l -1.75341,-5.10459 -6.5,4.91185 c -13.50194,10.20299 -26.23934,15.30416 -38.3479,15.35785 -7.37037,0.0327 -7.99407,-0.13512 -10.25,-2.7578 -3.44581,-4.006 -3.15308,-8.1301 0.86209,-12.14527 2.73659,-2.73659 4.87825,-3.6271 13.25,-5.50941 10.88564,-2.44753 25.73862,-7.64272 34.63717,-12.11519 l 5.65135,-2.84041 0.70903,-10.40233 c 0.64232,-9.42367 0.41904,-13.72799 -1.13459,-21.87231 -0.28368,-1.48712 -2.94303,-5.74962 -5.90965,-9.47224 -6.96129,-8.73524 -11.63422,-18.00365 -12.23633,-24.26985 -0.85406,-8.88837 6.08801,-17.05407 14.49851,-17.05407 1.61009,0 4.98393,1.36217 7.49744,3.02705 6.94597,4.60082 18.23482,16.99719 20.22554,22.20983 1.62796,4.26273 1.62905,4.70857 0.0194,7.89057 -0.93831,1.8549 -2.53191,4.27869 -3.54133,5.3862 -3.72512,4.08711 -5.0767,9.49319 -5.66164,22.64546 -0.37375,8.40363 -0.22,12.84089 0.44493,12.84089 1.58533,0 11.09996,-6.71714 24.88572,-17.56882 16.54587,-13.02433 25.2561,-18.93055 34.40026,-23.32602 7.33621,-3.52643 7.76207,-3.60491 19.5,-3.59374 10.18135,0.01 12.71584,0.34037 16.72333,2.18197 7.61979,3.50159 10.52399,10.02699 7.26632,16.32663 -2.06146,3.98642 -3.35584,4.50647 -15.98965,6.42421 -23.07279,3.50232 -51.34174,13.14279 -71.66635,24.44014 -13.47695,7.49111 -14.36087,8.262 -12.80557,11.16809 1.97234,3.68535 5.00872,5.79252 10.89514,7.56092 7.66851,2.30378 24.50171,1.50213 31.98628,-1.5233 11.71326,-4.73475 18.11841,-1.45359 18.83086,9.64648 0.46539,7.25078 -1.72182,11.10787 -8.0307,14.16195 -5.28643,2.55911 -19.58452,3.50354 -31.78213,2.09929 z"
         id="path3367"
         inkscape:connector-curvature="0" />
      <path
         style="fill:#871a1f"
         d="m 766.90033,184.35722 c -15.36617,-2.92194 -27.13468,-9.11646 -38,-20.00182 -8.88561,-8.902 -13.32411,-15.73886 -17.32079,-26.68016 l -2.67921,-7.3346 -0.27936,-164 c -0.31228,-183.33063 -0.7542,-171.25499 6.81721,-186.28688 8.9833,-17.83499 23.76573,-30.06496 43.96215,-36.37126 l 7.5,-2.34186 120,0 119.99997,0 7.5,2.34186 c 20.1965,6.3063 34.9789,18.53627 43.9622,36.37126 7.5714,15.03189 7.1295,2.95625 6.8172,186.28688 l -0.2794,164 -2.6792,7.3346 c -3.9983,10.94583 -8.4304,17.77008 -17.3956,26.78494 -6.6116,6.64811 -9.7829,8.9576 -17.5,12.74411 -17.8439,8.75535 -6.6451,8.07948 -137.42517,8.29386 -93.02257,0.15249 -117.38657,-0.0735 -123,-1.14093 z m 247.99997,-5.83252 c 23.6519,-8.32525 41.3722,-28.05551 45.9701,-51.18406 1.4212,-7.14919 1.5603,-25.0162 1.3084,-168 -0.2694,-152.95586 -0.3638,-160.24214 -2.1426,-165.5 -6.6156,-19.55462 -19.3348,-34.15113 -37.1359,-42.61728 -15.3841,-7.31666 -6.8096,-6.88272 -135.99997,-6.88272 -129.19035,0 -120.61583,-0.43394 -136,6.88272 -17.68648,8.41164 -30.67783,23.31411 -37.15196,42.61728 -1.7574,5.23986 -1.85798,13.06759 -2.12654,165.5 -0.31524,178.93332 -0.69972,168.51807 6.7962,184.10322 6.43046,13.3699 20.80603,27.04416 34.59708,32.90926 2.13687,0.90878 7.03522,2.49505 10.88522,3.52506 6.67567,1.78596 12.46737,1.86323 125,1.6676 l 117.99997,-0.20514 8,-2.81594 z M 835.90033,135.32484 c -1.65,-0.84931 -3.791,-2.48488 -4.75779,-3.6346 -1.56319,-1.85899 -4.59494,-10.71221 -6.14943,-17.95743 l -0.55952,-2.60782 -5.1909,1.3465 c -13.2473,3.4363 -20.84928,2.56223 -26.45309,-3.04158 -3.19222,-3.19222 -5.18074,-9.08434 -4.0555,-12.01669 0.45262,-1.1795 1.24749,-1.2439 4.35988,-0.35327 3.98974,1.1417 26.70927,1.70906 27.7272,0.69242 0.32396,-0.32354 -0.54958,-6.17354 -1.9412,-13 -2.25309,-11.05227 -3.4393,-25.28541 -2.20981,-26.5149 1.09973,-1.09974 5.89628,1.82799 7.60905,4.64442 1.0339,1.7001 3.10717,9.30003 4.60727,16.88873 1.5001,7.58869 3.08737,14.37997 3.52726,15.09173 0.89523,1.44852 7.47241,0.12391 22.88123,-4.60818 l 8.35852,-2.56693 -0.47753,-7.44091 c -0.26264,-4.0925 -0.73006,-7.69345 -1.03872,-8.0021 -0.30865,-0.30865 -3.00343,0.20866 -5.98839,1.14959 -5.41861,1.70807 -5.42866,1.71889 -6.33787,6.82588 -1.92583,10.81724 -6.90242,4.84912 -11.57523,-13.88144 -1.7659,-7.07847 -2.25435,-11.94703 -2.29005,-22.8255 -0.0542,-16.52792 -0.0562,-16.52496 10.80153,-16.55241 8.44126,-0.0213 14.11612,-1.58158 37.68266,-10.36046 27.78722,-10.35116 33.56199,-12.06539 38.69566,-11.48675 5.77047,0.65041 9.84121,4.33447 8.90613,8.06013 -0.34823,1.38746 -2.85879,4.24272 -5.57902,6.34502 -7.76475,6.00088 -9.40813,12.02001 -10.63202,38.94149 l -0.68734,15.11914 14.88351,-0.10769 c 12.871,-0.0931 15.96525,0.20918 22.88351,2.23576 16.63716,4.87356 28.61404,12.16632 31.52592,19.19624 1.657,4.00033 0.0118,9.6859 -4.18623,14.46721 -3.92938,4.47532 -18.6956,14.36163 -28.15556,18.85077 -13.51883,6.41524 -19.39097,8.05328 -28.68413,8.00148 -11.9316,-0.0665 -33.66712,-5.92331 -50.11101,-13.50279 l -6.79816,-3.13347 -3.12214,2.6271 c -2.25308,1.89585 -4.28379,2.63697 -7.29542,2.66255 -5.69355,0.0483 -8.57967,1.89383 -11.06733,7.07684 -2.3717,4.94143 -4.51494,5.73507 -9.10594,3.37192 z m 27.30186,-31.43329 c 0.22735,-3.78689 -0.0195,-4.91694 -1,-4.57823 -0.71602,0.24735 -6.47686,2.06975 -12.80186,4.04979 -6.325,1.98004 -12.07824,3.78942 -12.78497,4.02084 -1.39471,0.45669 0.1793,4.29087 3.98118,9.69788 l 1.92743,2.74119 10.18818,-5.45177 10.18818,-5.45177 0.30186,-5.02793 z m 53.72102,10.8981 c 17.52611,-5.6016 27.86511,-11.86889 31.57444,-19.13977 2.52566,-4.9507 2.15859,-7.81953 -1.24405,-9.72305 -2.3025,-1.28807 -4.25342,-1.30812 -15,-0.15416 -6.7943,0.72957 -12.83086,1.50888 -13.41458,1.73181 -0.64341,0.24572 -0.90663,2.6558 -0.66849,6.12074 0.34795,5.06257 0.0426,6.23904 -2.67304,10.29952 -5.6146,8.395 -13.08164,10.13649 -16.76036,3.90891 -2.44616,-4.14101 -4.39035,-4.47103 -11.80446,-2.00377 -6.36363,2.11768 -9.39334,3.93906 -14.85552,8.93076 l -2.82318,2.58 8.82318,0.6289 c 16.9809,1.21036 27.9088,0.31582 38.84606,-3.17989 z m -32.79635,-13.57557 c 10.53842,-3.9104 13.27347,-5.66256 13.27347,-8.50343 0,-2.04982 0.36371,-2.08591 -15.13357,1.5018 l -9.36643,2.16838 -0.3075,4.22991 c -0.17769,2.44431 0.129,4.2299 0.72653,4.2299 0.56871,0 5.43209,-1.63195 10.8075,-3.62656 z m -2.22653,-19.24963 c 3.85,-1.09191 8.9125,-2.4838 11.25,-3.09309 l 4.25,-1.10781 0,-5.90244 c 0,-3.24634 -0.3375,-6.10394 -0.75,-6.35023 -1.2413,-0.74113 -21.59814,2.3738 -22.97361,3.51534 -1.77115,1.46992 -1.79602,15.92378 -0.0264,15.33758 0.6875,-0.22774 4.4,-1.30745 8.25,-2.39935 z m -22.5,-16.11009 c 1.375,-0.36169 2.455,-1.18774 2.4,-1.83567 -0.055,-0.64793 -0.1675,-4.10305 -0.25,-7.67805 -0.16732,-7.25035 -0.32531,-7.36227 -6.86657,-4.86414 l -4.28343,1.63586 0,7.33914 0,7.33914 3.25,-0.63933 c 1.7875,-0.35164 4.375,-0.93526 5.75,-1.29695 z M 883.39,58.30384 c 3.80544,-0.96294 8.045,-1.39346 10.25,-1.04087 l 3.76033,0.60131 0.0137,-5.26182 c 0.008,-2.894 0.28095,-6.25886 0.60765,-7.47745 0.56447,-2.10552 0.35257,-2.19334 -4.26366,-1.76696 -2.6717,0.24678 -7.83403,0.71058 -11.47183,1.03069 l -6.61419,0.582 -1.13581,6.87758 c -1.47387,8.92462 -1.45278,9.22032 0.61419,8.61239 0.9625,-0.28309 4.67035,-1.25368 8.23967,-2.15687 z m -23.18818,-20.42015 0.30149,-6.33383 -5.1871,0.61434 c -2.85291,0.33788 -5.36942,0.79664 -5.59224,1.01947 -0.22283,0.22283 -0.1059,3.32591 0.25984,6.89575 l 0.66499,6.49062 4.62576,-1.17626 4.62577,-1.17626 0.30149,-6.33383 z m 29.8636,-0.70765 9.1651,-0.59903 0.38447,-5.61819 c 0.21146,-3.09 0.25959,-5.79576 0.10695,-6.0128 -0.2254,-0.32051 -15.78166,2.43028 -24.95166,4.41215 -2.09112,0.45195 -2.10026,0.54396 -0.5,5.03523 1.46336,4.10705 1.8857,4.51386 4.13005,3.97827 1.375,-0.32813 6.62429,-0.86617 11.66509,-1.19563 z M 820.66788,21.87371 c -10.84107,-1.23688 -17.05715,-2.98515 -20.29203,-5.70712 -3.38743,-2.85034 -5.07758,-9.01396 -2.85735,-10.42014 0.76,-0.48135 9.93183,-0.90847 20.38183,-0.94916 20.47951,-0.0797 46.151,-1.27431 47.06687,-2.19018 0.31052,-0.31052 0.0829,-2.35345 -0.50585,-4.53985 -0.73393,-2.72563 -2.15363,-4.71749 -4.51628,-6.3364 l -3.44586,-2.36114 8.32375,-8.51454 c 4.57806,-4.683 10.10421,-11.33462 12.28034,-14.78138 3.69172,-5.84732 4.05979,-6.14856 5.49831,-4.5 2.78157,3.18772 3.79872,6.06636 3.79872,10.75076 0,4.97489 -1.65983,8.96117 -6.06781,14.5726 -2.38057,3.0305 -2.70952,4.1847 -2.22411,7.8037 0.33832,2.52236 1.0209,4.07455 1.68079,3.82211 0.61112,-0.23379 3.54308,-1.27045 6.51546,-2.3037 5.06703,-1.76138 5.58065,-2.25338 8.2293,-7.88296 5.76565,-12.25463 5.50969,-23.3594 -0.75722,-32.85241 l -2.54606,-3.85674 2.83482,-2.97297 c 4.96082,-5.20256 16.14568,-12.07899 18.61935,-11.44713 3.39128,0.86624 9.26544,6.16542 11.08508,10.00003 3.80205,8.01222 0.13139,18.36456 -11.74826,33.13355 -3.53921,4.4 -6.32643,8.11294 -6.19383,8.25097 0.1326,0.13803 9.47939,-3.11313 20.77063,-7.22481 11.29124,-4.11168 24.38123,-8.45108 29.08887,-9.64312 8.50845,-2.15445 8.59353,-2.15609 14.31002,-0.27519 3.73758,1.22978 6.47028,2.87087 7.80629,4.68798 1.88391,2.56229 1.93118,3.01753 0.56591,5.44993 -3.41192,6.07876 -12.62099,8.55791 -37.79921,10.17586 -19.51701,1.25415 -25.19835,2.91729 -57.7034,16.89188 -28.96419,12.4523 -31.88084,13.35288 -44.46662,13.73006 -5.775,0.17307 -13.7546,-0.0566 -17.73245,-0.51049 z m 74.65998,-107.03527 c -15.97707,-1.83935 -27.68224,-5.85509 -32.67412,-11.20964 -1.23563,-1.3254 -3.03563,-4.70687 -4,-7.51439 l -1.75341,-5.10459 -6.5,4.91185 c -13.50194,10.20299 -26.23934,15.30416 -38.3479,15.35785 -7.37037,0.0327 -7.99407,-0.13512 -10.25,-2.7578 -3.44581,-4.006 -3.15308,-8.1301 0.86209,-12.14527 2.73659,-2.73659 4.87825,-3.6271 13.25,-5.50941 10.88564,-2.44753 25.73862,-7.64272 34.63717,-12.11519 l 5.65135,-2.84041 0.70903,-10.40233 c 0.64232,-9.42367 0.41904,-13.72799 -1.13459,-21.87231 -0.28368,-1.48712 -2.94303,-5.74962 -5.90965,-9.47224 -6.96129,-8.73524 -11.63422,-18.00365 -12.23633,-24.26985 -0.85406,-8.88837 6.08801,-17.05407 14.49851,-17.05407 1.61009,0 4.98393,1.36217 7.49744,3.02705 6.94597,4.60082 18.23482,16.99719 20.22554,22.20983 1.62796,4.26273 1.62905,4.70857 0.0194,7.89057 -0.93831,1.8549 -2.53191,4.27869 -3.54133,5.3862 -3.72512,4.08711 -5.0767,9.49319 -5.66164,22.64546 -0.37375,8.40363 -0.22,12.84089 0.44493,12.84089 1.58533,0 11.09996,-6.71714 24.88572,-17.56882 16.54587,-13.02433 25.2561,-18.93055 34.40026,-23.32602 7.33621,-3.52643 7.76207,-3.60491 19.5,-3.59374 10.18135,0.01 12.71584,0.34037 16.72333,2.18197 7.61979,3.50159 10.52399,10.02699 7.26632,16.32663 -2.06146,3.98642 -3.35584,4.50647 -15.98965,6.42421 -23.07279,3.50232 -51.34174,13.14279 -71.66635,24.44014 -13.47695,7.49111 -14.36087,8.262 -12.80557,11.16809 1.97234,3.68535 5.00872,5.79252 10.89514,7.56092 7.66851,2.30378 24.50171,1.50213 31.98628,-1.5233 11.71326,-4.73475 18.11841,-1.45359 18.83086,9.64648 0.46539,7.25078 -1.72182,11.10787 -8.0307,14.16195 -5.28643,2.55911 -19.58452,3.50354 -31.78213,2.09929 z"
         id="path3365"
         inkscape:connector-curvature="0" />
      <path
         style="fill:#010101"
         d="m 767.15396,184.2765 c -23.18869,-4.24108 -42.15306,-18.66944 -52.35729,-39.83417 -6.84214,-14.19136 -6.48514,-3.52026 -6.17572,-184.60169 l 0.27938,-163.5 2.67941,-7.33492 c 5.27171,-14.4314 15.38485,-27.42847 27.61721,-35.49271 8.57615,-5.65387 14.73174,-8.32772 24.70338,-10.73059 7.66124,-1.84614 12.86964,-1.92777 123,-1.92777 110.13036,0 115.33877,0.0816 122.99997,1.92777 9.9717,2.40287 16.1273,5.07672 24.7034,10.73059 12.2324,8.06424 22.346,21.06191 27.6174,35.49303 l 2.6792,7.3346 0.2647,164.41864 c 0.2925,181.79096 0.7158,169.15069 -6.1474,183.58136 -7.0834,14.89372 -18.228,26.15203 -33.1173,33.45512 -16.3516,8.02039 -6.0967,7.43905 -135.49997,7.6813 -96.03421,0.17977 -116.80553,-0.0226 -123.24637,-1.20056 z m 247.23964,-5.28963 c 19.7499,-7.15927 33.022,-18.64908 41.1753,-35.64623 7.2907,-15.19862 6.8974,-4.27605 6.5992,-183.2712 l -0.2678,-160.7288 -2.3384,-7 c -3.7238,-11.14699 -8.7912,-19.30752 -17.0766,-27.5 -11.5875,-11.45768 -23.9844,-17.69355 -39.687,-19.96331 -4.24441,-0.61351 -48.87469,-1.00469 -116.01698,-1.01688 -93.69912,-0.017 -110.36357,0.19722 -117.92614,1.51602 -26.35271,4.59553 -46.82729,22.38665 -54.62328,47.46417 l -2.33157,7.5 0,163 c 0,155.23103 0.0874,163.28313 1.83325,168.94028 7.02735,22.77072 23.43963,39.43056 45.75309,46.44323 3.52751,1.10862 7.53866,2.20741 8.91366,2.44175 1.375,0.23434 55.825,0.36952 121,0.3004 l 118.49997,-0.12566 6.4933,-2.35377 z M 898.90033,-84.77072 c -15.1376,-1.53859 -27.14181,-4.89775 -33.2093,-9.29302 -3.45243,-2.50093 -4.75952,-4.61682 -7.92782,-12.83339 -0.83789,-2.17297 -1.10551,-2.06409 -9.24125,3.76018 -4.6081,3.29887 -11.25015,7.36853 -14.7601,9.04368 -8.05366,3.84365 -19.42873,6.28868 -25.23709,5.42462 -8.10536,-1.20576 -11.62519,-8.0418 -7.10168,-13.79252 2.00285,-2.5462 11.27799,-6.69819 14.96313,-6.69819 3.07414,0 17.65332,-4.82041 29.17161,-9.64519 l 10.6575,-4.46422 0.71261,-10.45503 c 0.75572,-11.08736 -0.62014,-24.59103 -2.80499,-27.53012 -0.67244,-0.90459 -3.20036,-4.06587 -5.6176,-7.02507 -5.91579,-7.24217 -11.10502,-18.20103 -11.10502,-23.45212 0,-8.23636 8.85735,-16.428 16.26122,-15.03902 6.59937,1.23805 23.56077,17.75197 26.69205,25.98787 1.21487,3.19534 -0.16003,6.877 -4.90067,13.1229 -3.566,4.69828 -5.36055,14.96648 -4.858,27.79678 l 0.3054,7.79679 9,-6.14249 c 4.95,-3.37836 11.25,-8.03981 14,-10.35878 15.72787,-13.26267 32.57323,-24.32375 42.17005,-27.6899 8.67578,-3.04309 22.75199,-2.39838 30.51034,1.39743 7.1658,3.5059 9.67472,7.9027 7.8964,13.83821 -1.52717,5.09724 -4.42889,6.47822 -17.76932,8.45673 -13.67279,2.0278 -26.07155,5.17118 -38.80747,9.83863 -11.81344,4.32938 -38.71981,17.45046 -43,20.96926 -2.8979,2.38241 -2.94767,2.56216 -1.46235,5.28184 0.8457,1.54853 3.5457,3.93344 6,5.29982 3.84979,2.14328 6.01065,2.53572 15.74126,2.85884 9.98532,0.33157 12.23859,0.0753 19.64638,-2.23432 12.78008,-3.98462 15.5231,-3.5905 18.72759,2.69083 1.54275,3.02405 1.94922,5.2859 1.60106,8.9093 -0.88842,9.24598 -8.20139,13.76656 -23.09109,14.27398 -5.03957,0.17174 -10.96285,0.1293 -13.16285,-0.0943 z"
         id="path3363"
         inkscape:connector-curvature="0" />
    </g>
  </g>
</svg>
