<?xml version="1.0" encoding="UTF-8" standalone="no"?>
<!-- Created with Inkscape (http://www.inkscape.org/) -->

<svg
   xmlns:dc="http://purl.org/dc/elements/1.1/"
   xmlns:cc="http://creativecommons.org/ns#"
   xmlns:rdf="http://www.w3.org/1999/02/22-rdf-syntax-ns#"
   xmlns:svg="http://www.w3.org/2000/svg"
   xmlns="http://www.w3.org/2000/svg"
   xmlns:sodipodi="http://sodipodi.sourceforge.net/DTD/sodipodi-0.dtd"
   xmlns:inkscape="http://www.inkscape.org/namespaces/inkscape"
   width="358.85056"
   height="445.84634"
   id="svg2"
   version="1.1"
   inkscape:version="0.48.5 r10040"
   sodipodi:docname="char5.svg">
  <defs
     id="defs4" />
  <sodipodi:namedview
     id="base"
     pagecolor="#ffffff"
     bordercolor="#666666"
     borderopacity="1.0"
     inkscape:pageopacity="0.0"
     inkscape:pageshadow="2"
     inkscape:zoom="1.1210937"
     inkscape:cx="262.26428"
     inkscape:cy="272.01781"
     inkscape:document-units="px"
     inkscape:current-layer="layer1"
     showgrid="false"
     fit-margin-top="0"
     fit-margin-left="0"
     fit-margin-right="0"
     fit-margin-bottom="0"
     inkscape:window-width="958"
     inkscape:window-height="1078"
     inkscape:window-x="1920"
     inkscape:window-y="0"
     inkscape:window-maximized="0" />
  <metadata
     id="metadata7">
    <rdf:RDF>
      <cc:Work
         rdf:about="">
        <dc:format>image/svg+xml</dc:format>
        <dc:type
           rdf:resource="http://purl.org/dc/dcmitype/StillImage" />
        <dc:title></dc:title>
      </cc:Work>
    </rdf:RDF>
  </metadata>
  <g
     inkscape:label="Layer 1"
     inkscape:groupmode="layer"
     id="layer1"
     transform="translate(-675.49962,253.7653)">
    <g
       id="g3302"
       transform="translate(41.031359,-3.5679442)">
      <path
         style="fill:#e0c5c6"
         d="m 690.96826,194.22516 c -24.65682,-5.37788 -44.72757,-23.13327 -53.17637,-47.04195 l -2.82363,-7.9904 -0.26466,-163.24369 c -0.29603,-182.60066 -0.74592,-170.56734 6.96089,-186.18601 3.40994,-6.9106 5.97906,-10.32674 13.26634,-17.64015 9.99776,-10.03363 18.93628,-15.41134 32.5648,-19.59208 l 7.47263,-2.29234 113,-0.31949 c 120.11686,-0.33962 123.75976,-0.22198 136.81916,4.41798 27.17847,9.65644 44.69968,31.75191 47.74364,60.20805 0.67828,6.3408 0.92375,63.11942 0.71616,165.64773 -0.35455,175.09997 0.34766,159.523 -7.95659,176.5 -5.8454,11.9502 -18.63782,24.73197 -30.82237,30.79672 -17.50497,8.71295 -8.84758,8.21383 -140.90996,8.12378 -92.09723,-0.0628 -117.8505,-0.35442 -122.59004,-1.38815 z m 246,-4.80478 c 3.3,-0.9611 9.825,-3.6106 14.5,-5.88778 11.9981,-5.84424 23.96106,-17.79563 29.86869,-29.83979 7.6293,-15.55419 7.19843,-4.07703 6.89907,-183.7712 l -0.26776,-160.7288 -2.82363,-7.9904 c -3.82238,-10.81667 -8.82313,-18.74533 -16.72012,-26.5096 -7.89398,-7.76132 -16.59199,-13.07575 -27.45625,-16.77559 l -8,-2.72441 -119.5,0 -119.5,0 -8,2.82 c -18.72361,6.60008 -32.54889,18.61839 -40.46939,35.18 -6.96954,14.57318 -6.53061,2.44152 -6.53061,180.5 l 0,161.5 2.90221,8.85486 c 7.82072,23.86159 28.17955,41.57245 53.09779,46.19162 5.51535,1.0224 31.28463,1.25847 121.5,1.11307 105.69785,-0.17035 114.96125,-0.31887 120.5,-1.93198 z m -97.59202,-43.65167 c -13.46816,-2.88756 -26.14888,-6.7775 -36.33054,-11.14475 l -9.36327,-4.01622 -3.72945,2.53088 c -2.42722,1.64715 -4.51007,2.33495 -5.96506,1.96977 -1.22959,-0.30861 -3.88201,0.12681 -5.89428,0.96759 -2.79091,1.16611 -4.12066,2.60645 -5.60649,6.07276 -1.8427,4.29886 -2.16145,4.54407 -5.90663,4.54407 -2.82777,0 -4.86243,-0.76035 -7.12162,-2.66133 -3.47435,-2.92347 -4.42184,-4.90226 -6.62627,-13.83867 -0.81405,-3.3 -1.64484,-6.51016 -1.84621,-7.13369 -0.26561,-0.82246 -2.10282,-0.72953 -6.69214,0.3385 -16.80319,3.91042 -28.57423,-1.2429 -29.11606,-12.74692 -0.20637,-4.38172 -0.1587,-4.4537 2.79004,-4.21248 7.79263,0.63745 29.49957,1.47276 29.49617,1.13504 -0.002,-0.20925 -1.11659,-6.00545 -2.47662,-12.88045 -1.36003,-6.875 -2.48331,-15.7625 -2.49617,-19.75 -0.0215,-6.66779 0.14251,-7.25 2.04236,-7.25 6.04219,0 7.89016,3.38467 11.4212,20.91866 3.81307,18.93438 2.37121,17.32388 13.01306,14.53523 4.95,-1.29712 11.475,-3.20837 14.5,-4.24721 l 5.5,-1.88882 0.29377,-5.45349 c 0.16158,-2.99941 -0.0634,-6.39859 -0.5,-7.55371 l -0.79377,-2.10023 -5.06783,1.89672 c -4.96841,1.8595 -5.08612,1.99967 -6,7.14478 -1.91739,10.7948 -7.38392,4.95014 -12.10638,-12.94379 -2.16208,-8.1924 -2.60804,-12.16918 -2.70714,-24.14054 -0.11638,-14.05815 -0.0719,-14.37039 2.32511,-16.31719 1.9788,-1.60715 3.32114,-1.86412 7.05513,-1.35056 6.61405,0.90966 14.48548,-1.19474 40.83446,-10.91697 33.63234,-12.40964 38.4285,-13.31115 44.67535,-8.39738 4.34569,3.41832 3.39944,6.8972 -3.53669,13.00264 -7.86156,6.92003 -9.27607,12.34169 -10.38694,39.81186 l -0.54592,13.5 16.23042,0.031 c 15.08307,0.0288 16.83131,0.23039 24.73043,2.85135 27.27933,9.0514 35.46624,20.56241 23.70179,33.32532 -11.34374,12.30651 -37.71737,25.75513 -54.20179,27.63894 -3.15799,0.36089 -8.16531,-0.10725 -13.59202,-1.27073 z m -59.90018,-22.3259 9.82921,-5.25 0.3387,-4.25 c 0.18629,-2.3375 0.16139,-4.25 -0.0553,-4.25 -1.39155,0 -26.12039,8.19644 -26.12039,8.65767 0,0.87844 5.25999,10.34233 5.74822,10.34233 0.23671,0 4.85351,-2.3625 10.25958,-5.25 z m 58.25767,2.30998 c 9.84909,-2.51897 21.37805,-7.35015 28.093,-11.7723 8.14051,-5.36095 12.77698,-13.75223 9.44153,-17.08768 -1.49842,-1.49842 -10.50438,-1.54082 -21.73228,-0.10232 l -8.56772,1.09768 0.34903,4.93968 c 0.46763,6.61814 -0.29474,9.16407 -4.01192,13.3977 -3.88237,4.42178 -8.33891,6.80912 -11.316,6.06192 -1.24491,-0.31246 -3.46934,-2.14908 -4.94318,-4.08138 -1.73017,-2.26837 -3.51601,-3.51328 -5.03984,-3.51328 -4.0907,0 -13.1207,4.03797 -17.94493,8.02448 l -4.64421,3.83775 2.77553,0.41905 c 1.52653,0.23048 8.89104,0.48648 16.36556,0.56889 10.5543,0.11636 15.28446,-0.28353 21.17543,-1.79019 z M 822.0773,105.60232 c 2.27922,-1.89159 1.7289,-4.20394 -0.85904,-3.60954 -1.2375,0.28424 -6.6375,1.49496 -12,2.6905 l -9.75,2.17371 0,3.80094 0,3.80095 10.60904,-3.85108 c 5.83497,-2.1181 11.23497,-4.37057 12,-5.00548 z m -9.36254,-15.51121 10.7465,-2.8983 0.004,-5.86522 0.004,-5.86523 -5.75,0.66684 c -3.1625,0.36676 -8.28042,1.14093 -11.37316,1.72037 l -5.62317,1.05354 -0.61814,5.14485 c -0.93703,7.79892 -0.79847,9.91862 0.61447,9.40014 0.6875,-0.25227 6.08592,-1.76292 11.9965,-3.35699 z M 784.10574,75.55388 c 3.89912,-0.98182 4.44495,-1.43017 3.95647,-3.25 -0.31165,-1.16109 -0.57279,-4.45202 -0.5803,-7.31319 l -0.0136,-5.20212 -4.5,1.66782 -4.5,1.66782 0,6.7843 c 0,3.73136 0.25073,6.7843 0.55718,6.7843 0.30645,0 2.59258,-0.51252 5.0803,-1.13893 z m 23.36252,-7.36107 c 3.025,-0.81194 7.8625,-1.4816 10.75,-1.48813 l 5.25,-0.01187 0.0137,-4.25 c 0.008,-2.3375 0.30246,-5.32929 0.65545,-6.64842 l 0.64179,-2.39842 -9.74874,0.71561 c -5.3618,0.39358 -10.34416,0.94409 -11.07191,1.22335 -0.72775,0.27926 -1.61832,2.83653 -1.97904,5.68281 -0.36073,2.84629 -0.87864,5.96257 -1.15092,6.92507 -0.59726,2.1113 -0.332,2.12129 6.63972,0.25 z m -24.86602,-13.65829 3.86602,-1.15829 0,-5.71887 0,-5.71888 -4.75,0.51022 c -2.6125,0.28062 -4.86335,0.6012 -5.00189,0.71239 -0.45735,0.36707 1.02621,12.53172 1.52833,12.53172 0.27034,0 2.23123,-0.52123 4.35754,-1.15829 z m 28.67892,-7.88468 c 3.3085,-0.65091 7.85407,-1.00813 10.10128,-0.79382 4.08026,0.38911 4.08584,0.38484 4.09947,-3.13678 0.008,-1.93954 0.26704,-4.47027 0.57674,-5.62385 l 0.56307,-2.09742 -12.82673,2.4622 c -7.0547,1.35422 -12.90568,2.52701 -13.00218,2.60621 -0.0965,0.0792 0.33698,2.06386 0.9633,4.41035 0.68289,2.55846 1.6133,4.08425 2.32418,3.81146 0.65198,-0.25019 3.89238,-0.98745 7.20087,-1.63835 z m -70.8129,-15.12271 c -11.82875,-1.67209 -18,-6.50607 -18,-14.09953 0,-2.17198 0.54811,-2.53807 4.63957,-3.09887 2.55176,-0.34975 15.03927,-0.68852 27.75,-0.7528 12.71074,-0.0643 26.03543,-0.40179 29.61043,-0.75 6.49285,-0.63242 6.49971,-0.63642 6.23364,-3.63312 -0.18199,-2.04964 -1.51569,-4.08821 -4.21008,-6.43514 l -3.94371,-3.43514 7.97539,-8.30736 c 4.38647,-4.56904 10.0153,-11.46073 12.50853,-15.31486 2.49322,-3.85412 4.72994,-7.0075 4.97049,-7.0075 1.01928,0 5.33588,7.75726 5.93538,10.66632 0.94262,4.57408 -0.98826,10.55024 -5.18358,16.04335 -2.81055,3.67997 -3.60483,5.59286 -3.4267,8.25262 0.12754,1.90426 0.36004,3.59045 0.51668,3.74708 0.57282,0.57283 10.17259,-3.02771 11.78149,-4.41882 2.23697,-1.93416 5.6799,-10.14748 6.99159,-16.67889 1.24776,-6.21303 -0.55102,-14.11985 -4.71161,-20.71065 -1.34063,-2.1237 -2.43751,-4.25383 -2.43751,-4.73362 0,-1.03062 9.66995,-8.71672 15.80781,-12.56476 5.07529,-3.18187 6.76782,-2.88426 12.36747,2.17469 5.17167,4.67229 6.82956,8.06545 6.80276,13.92302 -0.0334,7.29835 -4.62869,16.05694 -14.71656,28.04966 -2.42887,2.8875 -4.20498,5.25 -3.9469,5.25 0.25807,0 6.29274,-2.20318 13.41038,-4.89595 21.22092,-8.02837 35.36995,-12.31624 42.27504,-12.81148 5.51435,-0.39549 7.18237,-0.0998 11,1.94975 8.76865,4.70766 7.80332,11.5163 -2.19747,15.49913 -5.59245,2.22719 -13.31832,3.33122 -36.30253,5.18762 -14.50782,1.17178 -22.61437,3.74404 -53,16.81721 -29.44162,12.66703 -31.70245,13.28093 -48.35534,13.13029 -7.50456,-0.06788 -16.56966,-0.5369 -20.14466,-1.04225 z m 136.5,-95.03158 c -4.7359,-2.69105 -11.72287,-9.2489 -24.82757,-23.30274 -23.19001,-24.86961 -27.71787,-31.39412 -23.03411,-33.19145 6.29601,-2.41601 52.53517,22.79953 61.29378,33.42525 4.09678,4.9701 4.11375,9.90988 0.0583,16.98112 -4.0614,7.08166 -8.34191,9.01332 -13.49042,6.08782 z m -156.99032,-0.62831 c -4.39403,-0.74267 -5.89374,-3.38763 -2.82001,-4.97353 0.99568,-0.51373 5.63533,-1.47779 10.31033,-2.14235 11.47554,-1.63128 37.41485,-11.88012 43.31108,-17.11256 3.87571,-3.43939 4.05877,-3.83885 2.91229,-6.35509 -0.67285,-1.47675 -1.22337,-4.95883 -1.22337,-7.73795 0,-4.41316 0.4305,-5.48345 3.4,-8.45295 2.94498,-2.94498 4.05825,-3.4 8.3185,-3.4 9.89676,0 21.25668,4.90948 27.59596,11.92631 7.17007,7.93641 6.97945,15.67505 -0.51993,21.10757 -7.87974,5.70805 -29.07992,12.10636 -51.03224,15.40174 -11.33613,1.70173 -34.54122,2.70413 -40.25261,1.73881 z m 24.24466,-56.77308 c -6.49319,-1.99672 -12.1551,-7.66279 -11.2564,-11.26465 1.41493,-5.67084 2.3493,-5.96846 18.32609,-5.83729 10.60949,0.0871 17.03118,-0.37224 23.17597,-1.65779 14.45335,-3.02378 24.00024,-5.80937 23.99474,-7.00117 -0.008,-1.64749 -2.818,-5.71436 -8.21371,-11.88593 -5.698,-6.51731 -8.72952,-12.85378 -8.75907,-18.30818 -0.0286,-5.27452 4.14578,-13.61471 8.68845,-17.35917 7.13105,-5.87801 13.19236,-4.83455 23.42859,4.03325 6.78672,5.87943 11.01722,12.40715 11.15335,17.20977 0.13343,4.70719 -3.5502,11.24812 -10.09183,17.91981 -3.10085,3.1625 -5.15482,5.75 -4.56437,5.75 0.59045,0 7.8693,-2.6811 16.17521,-5.95801 21.88009,-8.63228 28.24873,-10.405 35.13686,-9.7804 10.04812,0.91113 35.34375,10.53774 44.13059,16.79452 4.06743,2.89627 6.05736,7.19959 6.20286,13.41398 0.15064,6.43416 -1.96848,10.08138 -7.10945,12.23605 -5.26167,2.20526 -13.57771,0.45713 -29.68522,-6.24015 -19.63784,-8.16515 -24.24617,-9.57924 -33.19512,-10.18608 -10.67232,-0.7237 -16.85174,0.55462 -38.29188,7.92137 -29.13093,10.00926 -36.17474,11.80825 -45.92424,11.72907 -4.71667,-0.0383 -10.71131,-0.72636 -13.32142,-1.529 z"
         id="path3316"
         inkscape:connector-curvature="0" />
      <path
         style="fill:#bebebe"
         d="m 690.96826,194.22516 c -24.65682,-5.37788 -44.72757,-23.13327 -53.17637,-47.04195 l -2.82363,-7.9904 -0.26466,-163.24369 c -0.29603,-182.60066 -0.74592,-170.56734 6.96089,-186.18601 3.40994,-6.9106 5.97906,-10.32674 13.26634,-17.64015 9.99776,-10.03363 18.93628,-15.41134 32.5648,-19.59208 l 7.47263,-2.29234 113,-0.31949 c 120.11686,-0.33962 123.75976,-0.22198 136.81916,4.41798 27.17847,9.65644 44.69968,31.75191 47.74364,60.20805 0.67828,6.3408 0.92375,63.11942 0.71616,165.64773 -0.35455,175.09997 0.34766,159.523 -7.95659,176.5 -5.8454,11.9502 -18.63782,24.73197 -30.82237,30.79672 -17.50497,8.71295 -8.84758,8.21383 -140.90996,8.12378 -92.09723,-0.0628 -117.8505,-0.35442 -122.59004,-1.38815 z m 246,-4.80478 c 3.3,-0.9611 9.825,-3.6106 14.5,-5.88778 11.9981,-5.84424 23.96106,-17.79563 29.86869,-29.83979 7.6293,-15.55419 7.19843,-4.07703 6.89907,-183.7712 l -0.26776,-160.7288 -2.82363,-7.9904 c -3.82238,-10.81667 -8.82313,-18.74533 -16.72012,-26.5096 -7.89398,-7.76132 -16.59199,-13.07575 -27.45625,-16.77559 l -8,-2.72441 -119.5,0 -119.5,0 -8,2.82 c -18.72361,6.60008 -32.54889,18.61839 -40.46939,35.18 -6.96954,14.57318 -6.53061,2.44152 -6.53061,180.5 l 0,161.5 2.90221,8.85486 c 7.82072,23.86159 28.17955,41.57245 53.09779,46.19162 5.51535,1.0224 31.28463,1.25847 121.5,1.11307 105.69785,-0.17035 114.96125,-0.31887 120.5,-1.93198 z m -99.5,-44.18364 c -13.78545,-3.07586 -28.86638,-7.95588 -37.23782,-12.04976 l -6.73782,-3.29498 -3.6349,2.88866 c -2.66393,2.11702 -4.28647,2.72512 -6.07411,2.27645 -4.13504,-1.03783 -9.66092,2.19742 -11.86954,6.94928 -2.35874,5.07483 -5.72358,5.91394 -10.89604,2.71718 -3.90866,-2.41568 -6.81682,-7.9139 -8.63551,-16.3264 -0.68912,-3.18761 -1.55044,-5.97951 -1.91404,-6.20422 -0.3636,-0.22472 -3.09989,0.24048 -6.08065,1.03377 -15.42151,4.10424 -27.61135,-0.67978 -29.3888,-11.53391 -0.87997,-5.3736 0.17189,-6.19427 6.42045,-5.00925 6.49495,1.23174 26.04878,1.34191 26.04878,0.14677 0,-0.47437 -1.125,-6.38625 -2.5,-13.13752 -1.375,-6.75127 -2.5,-15.36315 -2.5,-19.13752 0,-6.03042 0.22615,-6.86248 1.86514,-6.86248 2.57595,0 7.08256,3.73224 8.26641,6.846 0.5402,1.42084 2.10628,8.22424 3.48017,15.11867 3.47136,17.41987 2.72284,15.96604 7.66969,14.89676 2.32022,-0.50153 9.05609,-2.30883 14.96859,-4.01623 l 10.75,-3.10437 0,-6.28863 c 0,-9.43069 -0.15575,-9.61738 -6.28547,-7.53382 -5.09243,1.73097 -5.14665,1.79379 -6.17603,7.15629 -1.19518,6.22618 -3.43764,7.53509 -6.05795,3.53599 -4.62314,-7.0558 -9.48055,-28.94453 -9.48055,-42.72178 0,-12.71616 2.33851,-16.29179 10.02567,-15.32946 6.47641,0.81075 16.33351,-1.70974 37.44447,-9.57469 27.17095,-10.12262 37.40859,-13.23006 41.22707,-12.51371 4.11822,0.77258 9.30279,5.0865 9.30279,7.74056 0,1.19192 -2.63984,4.57017 -6.37728,8.16111 -5.57438,5.35589 -6.52575,6.81976 -7.55656,11.62731 -0.93869,4.37787 -2.84665,29.27542 -3.0298,39.5368 -0.0351,1.96732 0.40921,2.02292 13.0255,1.62983 10.0433,-0.31292 14.72302,-0.008 20.25,1.31951 15.79453,3.79361 28.48065,10.16648 33.86566,17.01241 3.53612,4.49545 3.22614,11.18512 -0.74875,16.15863 -9.54155,11.9387 -39.68561,27.9413 -55.92877,29.69096 -3.34578,0.36039 -8.47386,-0.23652 -15.5,-1.80421 z m -58.01566,-21.58471 9.81337,-5.04079 0.44045,-4.20921 c 0.24224,-2.31507 0.30852,-4.37596 0.14727,-4.57975 -0.65232,-0.82448 -26.38543,8.01466 -26.38543,9.0632 0,1.35393 4.85073,9.80733 5.62764,9.80733 0.29883,0 4.95935,-2.26835 10.3567,-5.04078 z m 60.02269,1.67836 c 22.31216,-6.20641 35.1304,-14.54734 36.63856,-23.84101 1.00894,-6.21741 -3.21903,-7.12769 -22.07953,-4.75371 l -9.17934,1.15541 0.4044,5.65086 c 0.36483,5.09802 0.0769,6.13323 -2.94336,10.58122 -4.15935,6.1256 -9.46475,9.15692 -13.1153,7.49361 -1.382,-0.62968 -3.10686,-2.25501 -3.83301,-3.61185 -2.15057,-4.01837 -4.11058,-4.4758 -10.20045,-2.38057 -6.92239,2.38164 -9.22438,3.59356 -14.12399,7.43578 -3.87493,3.03867 -3.89406,3.08657 -1.5,3.75562 1.33375,0.37274 8.95315,0.72256 16.93202,0.77738 12.38552,0.0851 15.74904,-0.2458 23,-2.26274 z m -18.75703,-18.68435 c 2.58958,-1.19993 3.92984,-4.95323 1.76874,-4.95323 -0.53969,0 -5.93969,1.1627 -12,2.58378 l -11.01874,2.58379 0,3.89825 0,3.89826 9.25,-3.36829 c 5.0875,-1.85256 10.4875,-3.94171 12,-4.64256 z m -7.5,-16.51678 10.25,-2.75138 0,-5.84253 c 0,-5.39339 -0.17297,-5.84225 -2.25,-5.83873 -2.73477,0.005 -19.8195,2.73236 -20.33359,3.24645 -0.20177,0.20177 -0.67424,3.67412 -1.04992,7.71632 -0.64331,6.92171 -0.57199,7.31664 1.22522,6.78536 1.04956,-0.31026 6.52079,-1.80223 12.15829,-3.31549 z m -28.63423,-14.45197 3.61577,-1.00436 -0.49497,-7.24006 c -0.27224,-3.98203 -0.582,-7.34772 -0.68835,-7.47931 -0.10636,-0.13158 -2.03843,0.48551 -4.2935,1.37133 l -4.10011,1.61057 -0.32731,6.88093 c -0.36248,7.62046 -0.28982,7.68818 6.28847,5.8609 z m 31.50756,-8.69063 7.12333,-0.56337 0.55358,-6.10499 c 0.30447,-3.35775 0.3741,-6.28449 0.15472,-6.50386 -0.21938,-0.21938 -4.99425,0.001 -10.61083,0.48975 -11.51708,1.00219 -10.88202,0.42227 -12.12814,11.07498 l -0.60669,5.18636 4.19535,-1.50775 c 2.30744,-0.82926 7.40085,-1.76126 11.31868,-2.07112 z m -33.37333,-12.34643 3.75,-1.04143 0,-5.83016 0,-5.83016 -4.75,0.51022 c -2.6125,0.28062 -4.86335,0.6012 -5.00189,0.71239 -0.52471,0.42113 1.06505,12.53146 1.64435,12.52614 0.33415,-0.003 2.29504,-0.47422 4.35754,-1.047 z m 28.5629,-7.99039 c 3.3085,-0.65091 7.80706,-1.01261 9.99681,-0.80379 l 3.98136,0.37969 0.47879,-5.51647 c 0.26333,-3.03405 0.42284,-5.5677 0.35446,-5.63032 -0.1516,-0.13883 -25.05264,4.7599 -25.29977,4.97718 -0.0965,0.0848 0.33698,2.07411 0.9633,4.4206 0.68289,2.55846 1.6133,4.08425 2.32418,3.81146 0.65198,-0.25019 3.89238,-0.98745 7.20087,-1.63835 z M 741.50888,31.5672 c -8.82881,-1.32041 -14.55768,-4.03371 -17.01021,-8.05636 -2.29635,-3.76648 -2.6239,-7.32755 -0.78041,-8.48444 0.6875,-0.43144 15.99259,-1.06309 34.01132,-1.40366 18.01872,-0.34058 33.01024,-0.86815 33.31448,-1.17239 0.30424,-0.30425 0.24952,-2.17172 -0.12159,-4.14994 -0.48662,-2.59389 -1.74616,-4.38469 -4.51727,-6.42259 l -3.84251,-2.82581 7.98916,-7.9296 c 4.39404,-4.36128 9.86207,-10.8546 12.15118,-14.4296 2.28911,-3.575 4.33602,-6.725 4.54869,-7 0.85203,-1.10172 5.21702,5.28805 6.26107,9.16539 1.34487,4.99445 -0.4326,10.56968 -5.47647,17.1775 -2.62463,3.43846 -3.13789,4.90182 -2.78361,7.93645 0.2389,2.04636 0.81825,3.72066 1.28744,3.72066 0.4692,0 3.28855,-0.91122 6.26523,-2.02494 5.02469,-1.87998 5.59786,-2.43878 8.0064,-7.80573 3.88359,-8.65378 5.03396,-15.18197 3.73918,-21.2193 -1.15741,-5.39685 -3.3582,-10.34901 -5.87387,-13.21726 -1.42002,-1.61904 -1.30508,-2.02431 1.37059,-4.83292 1.60632,-1.68613 6.21409,-5.2739 10.23948,-7.97282 7.29618,-4.8919 7.32878,-4.90215 10.5,-3.30292 1.74961,0.88232 4.45877,2.79034 6.02038,4.24005 9.31416,8.64679 7.45373,18.86588 -6.84679,37.60841 -3.57852,4.69009 -6.3179,8.52743 -6.08751,8.52743 0.2304,0 8.30093,-2.90467 17.93452,-6.45482 21.18668,-7.80767 33.77954,-11.54518 38.89939,-11.54518 7.2211,0 15.76111,5.14056 15.76111,9.48722 0,1.17623 -1.24388,3.33031 -2.76417,4.78684 -5.15674,4.94047 -11.54454,6.25792 -41.89145,8.63991 -14.73015,1.15619 -22.03233,3.44029 -51.52568,16.11708 -31.30641,13.45606 -30.87468,13.33337 -47.8187,13.58988 -7.975,0.12073 -17.40672,-0.21522 -20.95938,-0.74654 z m 135.45938,-95.07165 c -4.7359,-2.69105 -11.72287,-9.2489 -24.82757,-23.30274 -23.19001,-24.86961 -27.71787,-31.39412 -23.03411,-33.19145 6.29601,-2.41601 52.53517,22.79953 61.29378,33.42525 4.09678,4.9701 4.11375,9.90988 0.0583,16.98112 -4.0614,7.08166 -8.34191,9.01332 -13.49042,6.08782 z m -156.99032,-0.62831 c -4.39403,-0.74267 -5.89374,-3.38763 -2.82001,-4.97353 0.99568,-0.51373 5.63533,-1.47779 10.31033,-2.14235 11.47554,-1.63128 37.41485,-11.88012 43.31108,-17.11256 3.87571,-3.43939 4.05877,-3.83885 2.91229,-6.35509 -0.67285,-1.47675 -1.22337,-4.95883 -1.22337,-7.73795 0,-4.41316 0.4305,-5.48345 3.4,-8.45295 2.94498,-2.94498 4.05825,-3.4 8.3185,-3.4 9.89676,0 21.25668,4.90948 27.59596,11.92631 7.17007,7.93641 6.97945,15.67505 -0.51993,21.10757 -7.87974,5.70805 -29.07992,12.10636 -51.03224,15.40174 -11.33613,1.70173 -34.54122,2.70413 -40.25261,1.73881 z m 24.24466,-56.77308 c -6.49319,-1.99672 -12.1551,-7.66279 -11.2564,-11.26465 1.41493,-5.67084 2.3493,-5.96846 18.32609,-5.83729 10.60949,0.0871 17.03118,-0.37224 23.17597,-1.65779 14.45335,-3.02378 24.00024,-5.80937 23.99474,-7.00117 -0.008,-1.64749 -2.818,-5.71436 -8.21371,-11.88593 -5.698,-6.51731 -8.72952,-12.85378 -8.75907,-18.30818 -0.0286,-5.27452 4.14578,-13.61471 8.68845,-17.35917 7.13105,-5.87801 13.19236,-4.83455 23.42859,4.03325 6.78672,5.87943 11.01722,12.40715 11.15335,17.20977 0.13343,4.70719 -3.5502,11.24812 -10.09183,17.91981 -3.10085,3.1625 -5.15482,5.75 -4.56437,5.75 0.59045,0 7.8693,-2.6811 16.17521,-5.95801 21.88009,-8.63228 28.24873,-10.405 35.13686,-9.7804 10.04812,0.91113 35.34375,10.53774 44.13059,16.79452 4.06743,2.89627 6.05736,7.19959 6.20286,13.41398 0.15064,6.43416 -1.96848,10.08138 -7.10945,12.23605 -5.26167,2.20526 -13.57771,0.45713 -29.68522,-6.24015 -19.63784,-8.16515 -24.24617,-9.57924 -33.19512,-10.18608 -10.67232,-0.7237 -16.85174,0.55462 -38.29188,7.92137 -29.13093,10.00926 -36.17474,11.80825 -45.92424,11.72907 -4.71667,-0.0383 -10.71131,-0.72636 -13.32142,-1.529 z"
         id="path3314"
         inkscape:connector-curvature="0" />
      <path
         style="fill:#c38c8f"
         d="m 689.46826,193.64612 c -26.11983,-6.74438 -46.678,-26.73451 -53.028,-51.56279 -1.92262,-7.51736 -1.972,-11.74662 -1.972,-168.89052 0,-155.95359 0.0626,-161.42475 1.92984,-168.72569 5.23667,-20.47515 19.21094,-37.40621 38.57016,-46.73111 16.68039,-8.03457 7.69089,-7.5432 138,-7.5432 131.51949,0 123.34867,-0.4788 140.78482,8.24977 7.36527,3.68706 10.85295,6.26736 17.79852,13.16793 9.96538,9.9008 15.55899,19.13141 19.11346,31.54115 l 2.3032,8.04115 0,161.5 c 0,151.92819 -0.10612,161.91488 -1.7905,168.5 -5.30352,20.73421 -19.64048,37.80479 -39.91681,47.52772 -15.1149,7.24791 -8.98112,6.94188 -138.29269,6.89985 -111.41755,-0.0362 -116.29628,-0.1142 -123.5,-1.97426 z m 248.5,-4.308 c 20.00915,-5.94661 35.62772,-18.79189 43.94906,-36.14531 6.92574,-14.44304 6.55282,-4.15793 6.53358,-180.19741 -0.0148,-135.55252 -0.2318,-159.82745 -1.48199,-165.80259 -3.92238,-18.74653 -17.59536,-36.01567 -35.52238,-44.86518 -16.17377,-7.98404 -9.1898,-7.59792 -137.78086,-7.61746 -128.55848,-0.0195 -121.46999,-0.408 -137.69741,7.54637 -20.19522,9.89932 -33.31412,27.88235 -36.46548,49.9859 -0.81772,5.73549 -1.04295,51.96737 -0.80847,165.95037 0.35833,174.1842 -0.15091,160.58258 6.5433,174.76834 9.20094,19.49777 28.65474,33.88494 50.99404,37.71294 2.60513,0.44641 56.71161,0.72965 120.23661,0.62942 107.59397,-0.16976 115.9107,-0.30429 121.5,-1.96539 z m -100.5,-44.10138 c -13.78545,-3.07586 -28.86638,-7.95588 -37.23782,-12.04976 l -6.73782,-3.29498 -3.6349,2.88866 c -2.66393,2.11702 -4.28647,2.72512 -6.07411,2.27645 -4.13504,-1.03783 -9.66092,2.19742 -11.86954,6.94928 -2.35874,5.07483 -5.72358,5.91394 -10.89604,2.71718 -3.90866,-2.41568 -6.81682,-7.9139 -8.63551,-16.3264 -0.68912,-3.18761 -1.55044,-5.97951 -1.91404,-6.20422 -0.3636,-0.22472 -3.09989,0.24048 -6.08065,1.03377 -15.42151,4.10424 -27.61135,-0.67978 -29.3888,-11.53391 -0.87997,-5.3736 0.17189,-6.19427 6.42045,-5.00925 6.49495,1.23174 26.04878,1.34191 26.04878,0.14677 0,-0.47437 -1.125,-6.38625 -2.5,-13.13752 -1.375,-6.75127 -2.5,-15.36315 -2.5,-19.13752 0,-6.03042 0.22615,-6.86248 1.86514,-6.86248 2.57595,0 7.08256,3.73224 8.26641,6.846 0.5402,1.42084 2.10628,8.22424 3.48017,15.11867 3.47136,17.41987 2.72284,15.96604 7.66969,14.89676 2.32022,-0.50153 9.05609,-2.30883 14.96859,-4.01623 l 10.75,-3.10437 0,-6.28863 c 0,-9.43069 -0.15575,-9.61738 -6.28547,-7.53382 -5.09243,1.73097 -5.14665,1.79379 -6.17603,7.15629 -1.19518,6.22618 -3.43764,7.53509 -6.05795,3.53599 -4.62314,-7.0558 -9.48055,-28.94453 -9.48055,-42.72178 0,-12.71616 2.33851,-16.29179 10.02567,-15.32946 6.47641,0.81075 16.33351,-1.70974 37.44447,-9.57469 27.17095,-10.12262 37.40859,-13.23006 41.22707,-12.51371 4.11822,0.77258 9.30279,5.0865 9.30279,7.74056 0,1.19192 -2.63984,4.57017 -6.37728,8.16111 -5.57438,5.35589 -6.52575,6.81976 -7.55656,11.62731 -0.93869,4.37787 -2.84665,29.27542 -3.0298,39.5368 -0.0351,1.96732 0.40921,2.02292 13.0255,1.62983 10.0433,-0.31292 14.72302,-0.008 20.25,1.31951 15.79453,3.79361 28.48065,10.16648 33.86566,17.01241 3.53612,4.49545 3.22614,11.18512 -0.74875,16.15863 -9.54155,11.9387 -39.68561,27.9413 -55.92877,29.69096 -3.34578,0.36039 -8.47386,-0.23652 -15.5,-1.80421 z m -58.01566,-21.58471 9.81337,-5.04079 0.44045,-4.20921 c 0.24224,-2.31507 0.30852,-4.37596 0.14727,-4.57975 -0.65232,-0.82448 -26.38543,8.01466 -26.38543,9.0632 0,1.35393 4.85073,9.80733 5.62764,9.80733 0.29883,0 4.95935,-2.26835 10.3567,-5.04078 z m 60.02269,1.67836 c 22.31216,-6.20641 35.1304,-14.54734 36.63856,-23.84101 1.00894,-6.21741 -3.21903,-7.12769 -22.07953,-4.75371 l -9.17934,1.15541 0.4044,5.65086 c 0.36483,5.09802 0.0769,6.13323 -2.94336,10.58122 -4.15935,6.1256 -9.46475,9.15692 -13.1153,7.49361 -1.382,-0.62968 -3.10686,-2.25501 -3.83301,-3.61185 -2.15057,-4.01837 -4.11058,-4.4758 -10.20045,-2.38057 -6.92239,2.38164 -9.22438,3.59356 -14.12399,7.43578 -3.87493,3.03867 -3.89406,3.08657 -1.5,3.75562 1.33375,0.37274 8.95315,0.72256 16.93202,0.77738 12.38552,0.0851 15.74904,-0.2458 23,-2.26274 z m -18.75703,-18.68435 c 2.58958,-1.19993 3.92984,-4.95323 1.76874,-4.95323 -0.53969,0 -5.93969,1.1627 -12,2.58378 l -11.01874,2.58379 0,3.89825 0,3.89826 9.25,-3.36829 c 5.0875,-1.85256 10.4875,-3.94171 12,-4.64256 z m -7.5,-16.51678 10.25,-2.75138 0,-5.84253 c 0,-5.39339 -0.17297,-5.84225 -2.25,-5.83873 -2.73477,0.005 -19.8195,2.73236 -20.33359,3.24645 -0.20177,0.20177 -0.67424,3.67412 -1.04992,7.71632 -0.64331,6.92171 -0.57199,7.31664 1.22522,6.78536 1.04956,-0.31026 6.52079,-1.80223 12.15829,-3.31549 z m -28.63423,-14.45197 3.61577,-1.00436 -0.49497,-7.24006 c -0.27224,-3.98203 -0.582,-7.34772 -0.68835,-7.47931 -0.10636,-0.13158 -2.03843,0.48551 -4.2935,1.37133 l -4.10011,1.61057 -0.32731,6.88093 c -0.36248,7.62046 -0.28982,7.68818 6.28847,5.8609 z m 31.50756,-8.69063 7.12333,-0.56337 0.55358,-6.10499 c 0.30447,-3.35775 0.3741,-6.28449 0.15472,-6.50386 -0.21938,-0.21938 -4.99425,0.001 -10.61083,0.48975 -11.51708,1.00219 -10.88202,0.42227 -12.12814,11.07498 l -0.60669,5.18636 4.19535,-1.50775 c 2.30744,-0.82926 7.40085,-1.76126 11.31868,-2.07112 z m -33.37333,-12.34643 3.75,-1.04143 0,-5.83016 0,-5.83016 -4.75,0.51022 c -2.6125,0.28062 -4.86335,0.6012 -5.00189,0.71239 -0.52471,0.42113 1.06505,12.53146 1.64435,12.52614 0.33415,-0.003 2.29504,-0.47422 4.35754,-1.047 z m 28.5629,-7.99039 c 3.3085,-0.65091 7.80706,-1.01261 9.99681,-0.80379 l 3.98136,0.37969 0.47879,-5.51647 c 0.26333,-3.03405 0.42284,-5.5677 0.35446,-5.63032 -0.1516,-0.13883 -25.05264,4.7599 -25.29977,4.97718 -0.0965,0.0848 0.33698,2.07411 0.9633,4.4206 0.68289,2.55846 1.6133,4.08425 2.32418,3.81146 0.65198,-0.25019 3.89238,-0.98745 7.20087,-1.63835 z M 741.50888,31.5672 c -8.82881,-1.32041 -14.55768,-4.03371 -17.01021,-8.05636 -2.29635,-3.76648 -2.6239,-7.32755 -0.78041,-8.48444 0.6875,-0.43144 15.99259,-1.06309 34.01132,-1.40366 18.01872,-0.34058 33.01024,-0.86815 33.31448,-1.17239 0.30424,-0.30425 0.24952,-2.17172 -0.12159,-4.14994 -0.48662,-2.59389 -1.74616,-4.38469 -4.51727,-6.42259 l -3.84251,-2.82581 7.98916,-7.9296 c 4.39404,-4.36128 9.86207,-10.8546 12.15118,-14.4296 2.28911,-3.575 4.33602,-6.725 4.54869,-7 0.85203,-1.10172 5.21702,5.28805 6.26107,9.16539 1.34487,4.99445 -0.4326,10.56968 -5.47647,17.1775 -2.62463,3.43846 -3.13789,4.90182 -2.78361,7.93645 0.2389,2.04636 0.81825,3.72066 1.28744,3.72066 0.4692,0 3.28855,-0.91122 6.26523,-2.02494 5.02469,-1.87998 5.59786,-2.43878 8.0064,-7.80573 3.88359,-8.65378 5.03396,-15.18197 3.73918,-21.2193 -1.15741,-5.39685 -3.3582,-10.34901 -5.87387,-13.21726 -1.42002,-1.61904 -1.30508,-2.02431 1.37059,-4.83292 1.60632,-1.68613 6.21409,-5.2739 10.23948,-7.97282 7.29618,-4.8919 7.32878,-4.90215 10.5,-3.30292 1.74961,0.88232 4.45877,2.79034 6.02038,4.24005 9.31416,8.64679 7.45373,18.86588 -6.84679,37.60841 -3.57852,4.69009 -6.3179,8.52743 -6.08751,8.52743 0.2304,0 8.30093,-2.90467 17.93452,-6.45482 21.18668,-7.80767 33.77954,-11.54518 38.89939,-11.54518 7.2211,0 15.76111,5.14056 15.76111,9.48722 0,1.17623 -1.24388,3.33031 -2.76417,4.78684 -5.15674,4.94047 -11.54454,6.25792 -41.89145,8.63991 -14.73015,1.15619 -22.03233,3.44029 -51.52568,16.11708 -31.30641,13.45606 -30.87468,13.33337 -47.8187,13.58988 -7.975,0.12073 -17.40672,-0.21522 -20.95938,-0.74654 z M 874.8683,-65.15548 c -5.28977,-3.86323 -30.34905,-29.74105 -39.82226,-41.123 -7.6499,-9.19128 -8.54804,-11.38856 -5.45197,-13.33807 4.97828,-3.1347 48.7443,20.85068 59.66568,32.69898 4.933,5.35168 5.5421,9.87337 2.10281,15.61038 -5.65617,9.43496 -9.8546,11.00081 -16.49426,6.15171 z m -152.90004,1.19335 c -1.1,-0.23261 -3.0125,-0.63898 -4.25,-0.90305 -2.91967,-0.62301 -2.89519,-3.24621 0.0407,-4.36244 1.25989,-0.479 6.54739,-1.5598 11.75,-2.40176 9.56532,-1.548 29.3869,-8.87237 38.76475,-14.32415 5.07955,-2.95298 6.91826,-6.13287 5.29742,-9.16143 -1.57586,-2.94452 -1.3615,-9.79144 0.41405,-13.22496 2.30092,-4.44949 6.75446,-6.31112 13.61072,-5.68941 15.12062,1.37109 31.49754,15.04621 29.40864,24.5569 -1.87424,8.5334 -18.02513,16.07635 -46.12285,21.54075 -18.09882,3.51983 -41.90428,5.45176 -48.91344,3.96955 z m 21.8128,-57.3808 c -2.85296,-1.13145 -6.5448,-3.6034 -8.20408,-5.49322 -2.69826,-3.07314 -2.90501,-3.75696 -1.95762,-6.47465 1.59905,-4.58702 3.87016,-5.30761 14.2707,-4.52785 12.20593,0.91512 26.38776,-1.06969 46.92068,-6.56673 3.50462,-0.93825 3.78413,-1.26121 3.17882,-3.67297 -0.36502,-1.45435 -3.38388,-5.8133 -6.70859,-9.68655 -11.07512,-12.90244 -12.43691,-20.51032 -5.53262,-30.90894 4.71841,-7.10644 10.7102,-10.2516 16.53971,-8.68187 4.3809,1.17965 16.63261,11.8084 20.12482,17.45892 4.34895,7.03675 2.00524,14.29402 -8.10743,25.10449 l -6.15552,6.58027 7.90917,-2.94788 c 4.35004,-1.62133 13.98416,-5.29877 21.40916,-8.17209 18.61485,-7.20354 21.8576,-7.37649 38.22076,-2.03839 14.68682,4.79122 27.43357,10.87138 31.66744,15.10525 5.11833,5.11832 5.92961,16.18683 1.54182,21.03528 -0.9612,1.06211 -3.56786,2.42124 -5.79258,3.0203 -5.50191,1.48151 -12.72467,-0.39117 -30.9838,-8.03333 -16.70849,-6.99315 -24.42623,-9.03474 -34.15364,-9.03474 -9.52484,0 -16.05486,1.65669 -44,11.16294 -23.15154,7.87558 -24.3712,8.17595 -34.5,8.49657 -8.77439,0.27774 -11.35248,-0.006 -15.6872,-1.72481 z"
         id="path3312"
         inkscape:connector-curvature="0" />
      <path
         style="fill:#7b7b7b"
         d="m 689.46826,193.64612 c -26.11983,-6.74438 -46.678,-26.73451 -53.028,-51.56279 -1.92262,-7.51736 -1.972,-11.74662 -1.972,-168.89052 0,-155.95359 0.0626,-161.42475 1.92984,-168.72569 5.23667,-20.47515 19.21094,-37.40621 38.57016,-46.73111 16.68039,-8.03457 7.69089,-7.5432 138,-7.5432 131.51949,0 123.34867,-0.4788 140.78482,8.24977 7.36527,3.68706 10.85295,6.26736 17.79852,13.16793 9.96538,9.9008 15.55899,19.13141 19.11346,31.54115 l 2.3032,8.04115 0,161.5 c 0,151.92819 -0.10612,161.91488 -1.7905,168.5 -5.30352,20.73421 -19.64048,37.80479 -39.91681,47.52772 -15.1149,7.24791 -8.98112,6.94188 -138.29269,6.89985 -111.41755,-0.0362 -116.29628,-0.1142 -123.5,-1.97426 z m 248.5,-4.308 c 20.00915,-5.94661 35.62772,-18.79189 43.94906,-36.14531 6.92574,-14.44304 6.55282,-4.15793 6.53358,-180.19741 -0.0148,-135.55252 -0.2318,-159.82745 -1.48199,-165.80259 -3.92238,-18.74653 -17.59536,-36.01567 -35.52238,-44.86518 -16.17377,-7.98404 -9.1898,-7.59792 -137.78086,-7.61746 -128.55848,-0.0195 -121.46999,-0.408 -137.69741,7.54637 -20.19522,9.89932 -33.31412,27.88235 -36.46548,49.9859 -0.81772,5.73549 -1.04295,51.96737 -0.80847,165.95037 0.35833,174.1842 -0.15091,160.58258 6.5433,174.76834 9.20094,19.49777 28.65474,33.88494 50.99404,37.71294 2.60513,0.44641 56.71161,0.72965 120.23661,0.62942 107.59397,-0.16976 115.9107,-0.30429 121.5,-1.96539 z m -176.20141,-44.2463 c -4.35611,-2.17948 -5.88064,-4.82855 -8.38697,-14.57345 -1.1777,-4.57906 -2.26363,-8.46209 -2.41317,-8.62895 -0.14954,-0.16687 -3.98296,0.44856 -8.51869,1.36762 -16.81811,3.40779 -26.97976,-1.72263 -26.97976,-13.62156 0,-3.52965 0.26097,-4.0565 1.73009,-3.49275 3.78308,1.4517 18.13848,2.6524 24.34172,2.03596 l 6.57182,-0.65307 -2.80002,-14.16641 c -2.84285,-14.38312 -3.58773,-24.08848 -1.92753,-25.11454 1.54742,-0.95635 5.8913,1.22452 7.5837,3.80747 0.88241,1.34672 2.97229,9.12931 4.64417,17.29463 1.67188,8.16532 3.4078,15.2329 3.8576,15.70572 0.8738,0.91854 17.20061,-2.97519 25.50224,-6.08194 l 4.99621,-1.86974 -0.35563,-7.454 c -0.19559,-4.0997 -0.49355,-7.60196 -0.66213,-7.7828 -0.16858,-0.18084 -2.78727,0.4532 -5.81931,1.40896 -5.67424,1.78865 -6.60132,2.9599 -6.66459,8.41984 -0.0756,6.52546 -3.69029,6.10392 -6.86386,-0.80046 -6.89666,-15.00432 -10.30597,-47.8852 -5.46681,-52.72436 0.96423,-0.96422 3.59259,-1.40356 8.14201,-1.36097 8.56736,0.0802 14.90746,-1.59378 35.78621,-9.4487 28.83111,-10.84674 35.94504,-12.96408 41.69956,-12.41114 3.94443,0.37901 5.61355,1.10109 7.432,3.21517 3.18617,3.70413 2.34899,5.866 -4.85242,12.53046 -5.55889,5.14441 -6.03961,5.95257 -7.43548,12.5 -0.8208,3.85 -1.77158,14.46407 -2.11287,23.58683 l -0.62051,16.58683 14.89692,-0.0782 c 16.96658,-0.089 24.43347,1.50409 38.87876,8.29513 10.78396,5.06977 15.51964,10.21689 15.51441,16.86228 -0.005,6.11766 -2.34884,9.91707 -9.70113,15.72446 -17.55631,13.8673 -40.66981,23.32022 -54.30495,22.20956 -11.70322,-0.9533 -37.7904,-8.52365 -49.11147,-14.25187 l -4.62129,-2.33828 -3.32299,2.45163 c -2.18957,1.61542 -4.65371,2.45163 -7.22442,2.45163 -5.29988,0 -9.142,2.50503 -11.35825,7.4055 -2.13973,4.73124 -4.92334,5.56011 -10.05317,2.99351 z m 18.77534,-21.64901 9.89534,-5.25 0.0154,-4.71862 c 0.0109,-3.34012 -0.34981,-4.59428 -1.23464,-4.29304 -0.6875,0.23407 -6.98494,2.26789 -13.99431,4.5196 l -12.74432,4.09403 2.11533,4.19901 c 2.54192,5.04582 3.79682,6.69902 5.08504,6.69902 0.53177,0 5.41975,-2.3625 10.86219,-5.25 z m 50.58241,4.23569 c 12.88405,-2.09113 31.7558,-9.89661 38.72771,-16.01803 3.97109,-3.48666 7.94844,-10.93763 7.06603,-13.23715 -1.29268,-3.36867 -6.00338,-4.14171 -17.31076,-2.84074 -16.25553,1.87027 -15.13932,1.2077 -15.13932,8.9865 0,5.47581 -0.44945,7.32088 -2.52868,10.38075 -1.39077,2.0467 -3.84342,4.40116 -5.45034,5.23213 -4.93385,2.55139 -7.50374,1.93386 -11.38201,-2.73507 l -3.5269,-4.24592 -6.9625,2.37037 c -4.2755,1.45559 -9.21767,4.15549 -12.80604,6.99592 l -5.84353,4.62555 9,0.56103 c 15.49843,0.96612 19.81627,0.95368 26.15634,-0.0753 z m -20.8308,-16.56865 c 5.48649,-1.97063 10.92022,-4.46316 12.07495,-5.53896 2.27753,-2.12184 2.87768,-5.38584 0.84951,-4.62015 -0.6875,0.25955 -5.975,1.48241 -11.75,2.71748 -5.775,1.23507 -10.78292,2.53336 -11.12871,2.88508 -1.15018,1.16993 -1.99921,8.13951 -0.99155,8.13951 0.5337,0 5.45931,-1.61233 10.9458,-3.58296 z m 2.45253,-20.59218 11.77806,-3.20653 -0.6606,-6.05917 c -0.36333,-3.33254 -0.71346,-6.12327 -0.77806,-6.20163 -0.2239,-0.27155 -20.03566,2.64042 -21.82232,3.20749 -1.51475,0.48076 -1.79515,1.73074 -1.79515,8.00237 0,4.08793 0.3375,7.43967 0.75,7.4483 0.4125,0.009 6.05013,-1.42724 12.52807,-3.19083 z M 785.46826,75.6952 c 2.37871,-0.64039 2.49695,-1.01966 2.4371,-7.81728 -0.0346,-3.92934 -0.29913,-7.38047 -0.58784,-7.66919 -0.62405,-0.62405 -6.8159,1.35724 -8.59926,2.75162 -0.78469,0.61353 -1.25,3.54459 -1.25,7.87396 l 0,6.8966 2.75,-0.68133 c 1.5125,-0.37474 3.875,-0.98421 5.25,-1.35438 z m 25,-7.65613 c 3.575,-0.83407 7.9096,-1.29006 9.63246,-1.01332 2.95429,0.47455 3.16695,0.29455 3.73899,-3.16489 0.3336,-2.01743 0.61149,-5.30027 0.61754,-7.29521 l 0.011,-3.62717 -4.25,0.35639 c -17.83494,1.49558 -17.54246,1.43492 -18.12592,3.75958 -0.30671,1.22206 -0.86842,4.86594 -1.24822,8.09751 -0.64723,5.50686 -0.57087,5.8294 1.21679,5.1396 1.04904,-0.4048 4.83235,-1.41842 8.40735,-2.25249 z m -27.25,-13.28347 4.25,-1.13988 0,-5.40244 c 0,-2.97134 -0.47074,-5.69337 -1.04609,-6.04895 -0.57534,-0.35559 -3.19074,-0.35155 -5.81199,0.009 l -4.76592,0.65548 0.739,5.18202 c 0.40645,2.85011 0.77185,5.99608 0.812,6.99104 0.0402,0.99496 0.4105,1.60306 0.823,1.35133 0.4125,-0.25173 2.6625,-0.97063 5,-1.59756 z m 33.44299,-7.74141 8.69298,-0.56057 0.67795,-5.42613 c 0.37288,-2.98438 0.4807,-5.62339 0.23962,-5.86448 -0.24109,-0.24108 -5.35801,0.46449 -11.37094,1.56794 -17.1357,3.14462 -15.41158,2.19293 -13.65256,7.53604 1.39099,4.22521 1.72856,4.54946 4.11759,3.95515 1.4313,-0.35606 6.51421,-0.89964 11.29536,-1.20795 z M 746.10132,31.66104 c -16.7813,-1.90768 -23.05331,-5.51875 -22.4317,-12.91492 l 0.29864,-3.55331 29.5,-0.67793 c 16.225,-0.37287 31.46561,-0.9709 33.86803,-1.32898 l 4.36802,-0.65103 -0.59223,-3.6495 C 790.69546,6.31803 789.40024,4.28493 786.74405,2.0289 l -3.77579,-3.20698 8.65547,-8.81455 c 4.76051,-4.84801 10.31003,-11.43831 12.33226,-14.64511 3.52346,-5.58741 3.75518,-5.75959 5.55688,-4.12908 5.4628,4.94376 5.06708,14.95271 -0.93506,23.65075 -4.12614,5.97944 -4.57773,7.46151 -3.49899,11.48345 l 0.58325,2.17456 5.95669,-2.14325 c 6.67897,-2.40313 8.57091,-4.67648 11.86858,-14.26134 3.33794,-9.70189 1.9704,-19.70399 -3.72808,-27.26705 l -2.50339,-3.32251 2.26873,-2.41495 c 3.56655,-3.79642 16.56463,-12.44003 18.70705,-12.44003 5.60582,0 14.15914,10.3572 14.21465,17.21249 0.0512,6.32547 -6.21564,17.74015 -16.97049,30.91066 -2.62699,3.21704 -2.99871,4.07673 -1.5,3.46912 11.4155,-4.62806 43.65378,-15.7622 49.63991,-17.14414 6.615,-1.52712 8.2752,-1.58971 12.29714,-0.46364 6.62876,1.85594 9.5554,4.43884 9.5554,8.4331 0,7.60974 -9.10481,10.64364 -37.5,12.49572 -19.16271,1.24989 -25.52578,3.09652 -56.74935,16.46928 -13.35929,5.72166 -26.75585,11.16415 -29.77014,12.09443 -6.55482,2.02296 -24.14273,2.76495 -35.34745,1.49121 z M 874.8683,-65.15548 c -5.28977,-3.86323 -30.34905,-29.74105 -39.82226,-41.123 -7.6499,-9.19128 -8.54804,-11.38856 -5.45197,-13.33807 4.97828,-3.1347 48.7443,20.85068 59.66568,32.69898 4.933,5.35168 5.5421,9.87337 2.10281,15.61038 -5.65617,9.43496 -9.8546,11.00081 -16.49426,6.15171 z m -152.90004,1.19335 c -1.1,-0.23261 -3.0125,-0.63898 -4.25,-0.90305 -2.91967,-0.62301 -2.89519,-3.24621 0.0407,-4.36244 1.25989,-0.479 6.54739,-1.5598 11.75,-2.40176 9.56532,-1.548 29.3869,-8.87237 38.76475,-14.32415 5.07955,-2.95298 6.91826,-6.13287 5.29742,-9.16143 -1.57586,-2.94452 -1.3615,-9.79144 0.41405,-13.22496 2.30092,-4.44949 6.75446,-6.31112 13.61072,-5.68941 15.12062,1.37109 31.49754,15.04621 29.40864,24.5569 -1.87424,8.5334 -18.02513,16.07635 -46.12285,21.54075 -18.09882,3.51983 -41.90428,5.45176 -48.91344,3.96955 z m 21.8128,-57.3808 c -2.85296,-1.13145 -6.5448,-3.6034 -8.20408,-5.49322 -2.69826,-3.07314 -2.90501,-3.75696 -1.95762,-6.47465 1.59905,-4.58702 3.87016,-5.30761 14.2707,-4.52785 12.20593,0.91512 26.38776,-1.06969 46.92068,-6.56673 3.50462,-0.93825 3.78413,-1.26121 3.17882,-3.67297 -0.36502,-1.45435 -3.38388,-5.8133 -6.70859,-9.68655 -11.07512,-12.90244 -12.43691,-20.51032 -5.53262,-30.90894 4.71841,-7.10644 10.7102,-10.2516 16.53971,-8.68187 4.3809,1.17965 16.63261,11.8084 20.12482,17.45892 4.34895,7.03675 2.00524,14.29402 -8.10743,25.10449 l -6.15552,6.58027 7.90917,-2.94788 c 4.35004,-1.62133 13.98416,-5.29877 21.40916,-8.17209 18.61485,-7.20354 21.8576,-7.37649 38.22076,-2.03839 14.68682,4.79122 27.43357,10.87138 31.66744,15.10525 5.11833,5.11832 5.92961,16.18683 1.54182,21.03528 -0.9612,1.06211 -3.56786,2.42124 -5.79258,3.0203 -5.50191,1.48151 -12.72467,-0.39117 -30.9838,-8.03333 -16.70849,-6.99315 -24.42623,-9.03474 -34.15364,-9.03474 -9.52484,0 -16.05486,1.65669 -44,11.16294 -23.15154,7.87558 -24.3712,8.17595 -34.5,8.49657 -8.77439,0.27774 -11.35248,-0.006 -15.6872,-1.72481 z"
         id="path3310"
         inkscape:connector-curvature="0" />
      <path
         style="fill:#a55357"
         d="m 693.96826,194.22949 c -28.27425,-5.2953 -49.5443,-24.46982 -57.16897,-51.53668 -1.74063,-6.1791 -1.83103,-14.54712 -1.83103,-169.5 0,-181.93328 -0.53976,-167.76577 6.97197,-183 7.14884,-14.49829 17.57031,-24.60415 33.02803,-32.02781 16.24073,-7.79969 10.15313,-7.47219 138.89247,-7.47219 97.23903,0 115.53631,0.22288 121.51318,1.48015 28.52897,6.00126 50.98672,28.43597 56.01096,55.95351 0.7484,4.09896 1.08339,55.05304 1.08339,164.79216 0,141.00014 -0.17792,159.71984 -1.58264,166.52056 -4.33469,20.98557 -18.34449,38.81611 -37.91736,48.25816 -16.55522,7.98631 -6.09273,7.39906 -136,7.63365 -92.16076,0.16642 -117.43858,-0.06 -123,-1.10151 z m 242.73356,-4.46854 c 19.57867,-5.00738 37.2154,-19.21268 45.40153,-36.56814 7.37393,-15.63348 6.7938,-1.4712 7.1265,-173.97485 0.18485,-95.84053 -0.0721,-158.29744 -0.67328,-163.68243 -3.17002,-28.3932 -22.7649,-50.98996 -51.58831,-59.4915 -5.55391,-1.63814 -14.39161,-1.79377 -118.8686,-2.09322 -123.26757,-0.35331 -123.30448,-0.35187 -136.93216,5.35578 -20.09354,8.41573 -35.58752,25.89958 -40.71361,45.9424 -1.94056,7.58752 -1.98529,11.39765 -1.97085,167.85378 0.0164,177.1859 -0.38664,166.08438 6.53875,180.12184 8.82766,17.89328 26.12796,31.73267 45.66935,36.53325 6.76692,1.66238 15.38121,1.79288 122.86716,1.86133 111.0902,0.0708 115.88409,-0.002 123.14352,-1.85824 z M 761.76685,145.09182 c -4.35611,-2.17948 -5.88064,-4.82855 -8.38697,-14.57345 -1.1777,-4.57906 -2.26363,-8.46209 -2.41317,-8.62895 -0.14954,-0.16687 -3.98296,0.44856 -8.51869,1.36762 -16.81811,3.40779 -26.97976,-1.72263 -26.97976,-13.62156 0,-3.52965 0.26097,-4.0565 1.73009,-3.49275 3.78308,1.4517 18.13848,2.6524 24.34172,2.03596 l 6.57182,-0.65307 -2.80002,-14.16641 c -2.84285,-14.38312 -3.58773,-24.08848 -1.92753,-25.11454 1.54742,-0.95635 5.8913,1.22452 7.5837,3.80747 0.88241,1.34672 2.97229,9.12931 4.64417,17.29463 1.67188,8.16532 3.4078,15.2329 3.8576,15.70572 0.8738,0.91854 17.20061,-2.97519 25.50224,-6.08194 l 4.99621,-1.86974 -0.35563,-7.454 c -0.19559,-4.0997 -0.49355,-7.60196 -0.66213,-7.7828 -0.16858,-0.18084 -2.78727,0.4532 -5.81931,1.40896 -5.67424,1.78865 -6.60132,2.9599 -6.66459,8.41984 -0.0756,6.52546 -3.69029,6.10392 -6.86386,-0.80046 -6.89666,-15.00432 -10.30597,-47.8852 -5.46681,-52.72436 0.96423,-0.96422 3.59259,-1.40356 8.14201,-1.36097 8.56736,0.0802 14.90746,-1.59378 35.78621,-9.4487 28.83111,-10.84674 35.94504,-12.96408 41.69956,-12.41114 3.94443,0.37901 5.61355,1.10109 7.432,3.21517 3.18617,3.70413 2.34899,5.866 -4.85242,12.53046 -5.55889,5.14441 -6.03961,5.95257 -7.43548,12.5 -0.8208,3.85 -1.77158,14.46407 -2.11287,23.58683 l -0.62051,16.58683 14.89692,-0.0782 c 16.96658,-0.089 24.43347,1.50409 38.87876,8.29513 10.78396,5.06977 15.51964,10.21689 15.51441,16.86228 -0.005,6.11766 -2.34884,9.91707 -9.70113,15.72446 -17.55631,13.8673 -40.66981,23.32022 -54.30495,22.20956 -11.70322,-0.9533 -37.7904,-8.52365 -49.11147,-14.25187 l -4.62129,-2.33828 -3.32299,2.45163 c -2.18957,1.61542 -4.65371,2.45163 -7.22442,2.45163 -5.29988,0 -9.142,2.50503 -11.35825,7.4055 -2.13973,4.73124 -4.92334,5.56011 -10.05317,2.99351 z m 18.77534,-21.64901 9.89534,-5.25 0.0154,-4.71862 c 0.0109,-3.34012 -0.34981,-4.59428 -1.23464,-4.29304 -0.6875,0.23407 -6.98494,2.26789 -13.99431,4.5196 l -12.74432,4.09403 2.11533,4.19901 c 2.54192,5.04582 3.79682,6.69902 5.08504,6.69902 0.53177,0 5.41975,-2.3625 10.86219,-5.25 z m 50.58241,4.23569 c 12.88405,-2.09113 31.7558,-9.89661 38.72771,-16.01803 3.97109,-3.48666 7.94844,-10.93763 7.06603,-13.23715 -1.29268,-3.36867 -6.00338,-4.14171 -17.31076,-2.84074 -16.25553,1.87027 -15.13932,1.2077 -15.13932,8.9865 0,5.47581 -0.44945,7.32088 -2.52868,10.38075 -1.39077,2.0467 -3.84342,4.40116 -5.45034,5.23213 -4.93385,2.55139 -7.50374,1.93386 -11.38201,-2.73507 l -3.5269,-4.24592 -6.9625,2.37037 c -4.2755,1.45559 -9.21767,4.15549 -12.80604,6.99592 l -5.84353,4.62555 9,0.56103 c 15.49843,0.96612 19.81627,0.95368 26.15634,-0.0753 z m -20.8308,-16.56865 c 5.48649,-1.97063 10.92022,-4.46316 12.07495,-5.53896 2.27753,-2.12184 2.87768,-5.38584 0.84951,-4.62015 -0.6875,0.25955 -5.975,1.48241 -11.75,2.71748 -5.775,1.23507 -10.78292,2.53336 -11.12871,2.88508 -1.15018,1.16993 -1.99921,8.13951 -0.99155,8.13951 0.5337,0 5.45931,-1.61233 10.9458,-3.58296 z m 2.45253,-20.59218 11.77806,-3.20653 -0.6606,-6.05917 c -0.36333,-3.33254 -0.71346,-6.12327 -0.77806,-6.20163 -0.2239,-0.27155 -20.03566,2.64042 -21.82232,3.20749 -1.51475,0.48076 -1.79515,1.73074 -1.79515,8.00237 0,4.08793 0.3375,7.43967 0.75,7.4483 0.4125,0.009 6.05013,-1.42724 12.52807,-3.19083 z M 785.46826,75.6952 c 2.37871,-0.64039 2.49695,-1.01966 2.4371,-7.81728 -0.0346,-3.92934 -0.29913,-7.38047 -0.58784,-7.66919 -0.62405,-0.62405 -6.8159,1.35724 -8.59926,2.75162 -0.78469,0.61353 -1.25,3.54459 -1.25,7.87396 l 0,6.8966 2.75,-0.68133 c 1.5125,-0.37474 3.875,-0.98421 5.25,-1.35438 z m 25,-7.65613 c 3.575,-0.83407 7.9096,-1.29006 9.63246,-1.01332 2.95429,0.47455 3.16695,0.29455 3.73899,-3.16489 0.3336,-2.01743 0.61149,-5.30027 0.61754,-7.29521 l 0.011,-3.62717 -4.25,0.35639 c -17.83494,1.49558 -17.54246,1.43492 -18.12592,3.75958 -0.30671,1.22206 -0.86842,4.86594 -1.24822,8.09751 -0.64723,5.50686 -0.57087,5.8294 1.21679,5.1396 1.04904,-0.4048 4.83235,-1.41842 8.40735,-2.25249 z m -27.25,-13.28347 4.25,-1.13988 0,-5.40244 c 0,-2.97134 -0.47074,-5.69337 -1.04609,-6.04895 -0.57534,-0.35559 -3.19074,-0.35155 -5.81199,0.009 l -4.76592,0.65548 0.739,5.18202 c 0.40645,2.85011 0.77185,5.99608 0.812,6.99104 0.0402,0.99496 0.4105,1.60306 0.823,1.35133 0.4125,-0.25173 2.6625,-0.97063 5,-1.59756 z m 33.44299,-7.74141 8.69298,-0.56057 0.67795,-5.42613 c 0.37288,-2.98438 0.4807,-5.62339 0.23962,-5.86448 -0.24109,-0.24108 -5.35801,0.46449 -11.37094,1.56794 -17.1357,3.14462 -15.41158,2.19293 -13.65256,7.53604 1.39099,4.22521 1.72856,4.54946 4.11759,3.95515 1.4313,-0.35606 6.51421,-0.89964 11.29536,-1.20795 z M 746.10132,31.66104 c -16.7813,-1.90768 -23.05331,-5.51875 -22.4317,-12.91492 l 0.29864,-3.55331 29.5,-0.67793 c 16.225,-0.37287 31.46561,-0.9709 33.86803,-1.32898 l 4.36802,-0.65103 -0.59223,-3.6495 C 790.69546,6.31803 789.40024,4.28493 786.74405,2.0289 l -3.77579,-3.20698 8.65547,-8.81455 c 4.76051,-4.84801 10.31003,-11.43831 12.33226,-14.64511 3.52346,-5.58741 3.75518,-5.75959 5.55688,-4.12908 5.4628,4.94376 5.06708,14.95271 -0.93506,23.65075 -4.12614,5.97944 -4.57773,7.46151 -3.49899,11.48345 l 0.58325,2.17456 5.95669,-2.14325 c 6.67897,-2.40313 8.57091,-4.67648 11.86858,-14.26134 3.33794,-9.70189 1.9704,-19.70399 -3.72808,-27.26705 l -2.50339,-3.32251 2.26873,-2.41495 c 3.56655,-3.79642 16.56463,-12.44003 18.70705,-12.44003 5.60582,0 14.15914,10.3572 14.21465,17.21249 0.0512,6.32547 -6.21564,17.74015 -16.97049,30.91066 -2.62699,3.21704 -2.99871,4.07673 -1.5,3.46912 11.4155,-4.62806 43.65378,-15.7622 49.63991,-17.14414 6.615,-1.52712 8.2752,-1.58971 12.29714,-0.46364 6.62876,1.85594 9.5554,4.43884 9.5554,8.4331 0,7.60974 -9.10481,10.64364 -37.5,12.49572 -19.16271,1.24989 -25.52578,3.09652 -56.74935,16.46928 -13.35929,5.72166 -26.75585,11.16415 -29.77014,12.09443 -6.55482,2.02296 -24.14273,2.76495 -35.34745,1.49121 z m 130.86694,-95.61401 c -5.68106,-2.96495 -37.27343,-35.68002 -46.92639,-48.59401 -5.2397,-7.00983 -1.1696,-8.64392 10.25583,-4.11758 11.36665,4.50305 22.06985,10.25041 34.10584,18.31401 13.4719,9.0256 19.06472,14.62275 19.06472,19.07948 0,6.33897 -7.50945,17.0323 -11.88486,16.92384 -0.88833,-0.022 -2.96514,-0.7446 -4.61514,-1.60574 z m -159.75,-1.04355 c -2.05807,-0.53783 -2.24467,-1.67616 -0.5,-3.05034 1.58132,-1.24552 4.61466,-1.96471 13.75304,-3.26076 10.14119,-1.43828 36.03139,-12.18174 41.21829,-17.10404 l 3.79823,-3.60447 -1.61271,-3.85976 c -1.84254,-4.40982 -1.42462,-10.22904 1.00043,-13.93014 5.89167,-8.99183 31.70616,-1.69559 39.19147,11.07714 2.78808,4.75749 3.09158,9.99111 0.77147,13.30352 -5.5172,7.87691 -33.51688,16.84694 -62.58081,20.0485 -9.50471,1.047 -31.57179,1.28654 -35.03941,0.38035 z m 29.25,-55.91369 c -10.15488,-2.71671 -15.5135,-9.58428 -11.62381,-14.89698 1.35658,-1.85286 2.41493,-1.97621 14.38573,-1.67661 13.75712,0.3443 24.86495,-1.06528 40.3194,-5.11652 10.95444,-2.87159 11.17393,-3.93183 2.86711,-13.84941 -7.95535,-9.49796 -10.23414,-14.03086 -10.23414,-20.35746 0,-7.77024 5.70121,-17.18668 11.8125,-19.51019 6.77812,-2.57703 12.24587,-0.35655 21.80398,8.85472 5.43891,5.24154 8.66923,10.75626 8.66923,14.79991 0,4.40245 -3.8636,11.13648 -10.39817,18.12341 -7.12814,7.62158 -8.23637,7.74274 16.39817,-1.79278 25.98514,-10.05831 28.0381,-10.27819 45,-4.81977 20.14841,6.48385 32.08013,13.08844 34.47973,19.08564 3.08164,7.70178 1.27641,16.18225 -3.95179,18.56437 -6.4738,2.94967 -15.69118,0.72225 -41.80355,-10.10201 -13.78473,-5.71413 -23.65055,-7.38252 -33.87601,-5.7287 -4.04161,0.65367 -17.92338,4.73975 -30.84838,9.08017 -34.17996,11.4782 -40.71198,12.62959 -53,9.34221 z"
         id="path3308"
         inkscape:connector-curvature="0" />
      <path
         style="fill:#871a1f"
         d="m 693.96826,194.22949 c -28.27425,-5.2953 -49.5443,-24.46982 -57.16897,-51.53668 -1.74063,-6.1791 -1.83103,-14.54712 -1.83103,-169.5 0,-181.93328 -0.53976,-167.76577 6.97197,-183 7.14884,-14.49829 17.57031,-24.60415 33.02803,-32.02781 16.24073,-7.79969 10.15313,-7.47219 138.89247,-7.47219 97.23903,0 115.53631,0.22288 121.51318,1.48015 28.52897,6.00126 50.98672,28.43597 56.01096,55.95351 0.7484,4.09896 1.08339,55.05304 1.08339,164.79216 0,141.00014 -0.17792,159.71984 -1.58264,166.52056 -4.33469,20.98557 -18.34449,38.81611 -37.91736,48.25816 -16.55522,7.98631 -6.09273,7.39906 -136,7.63365 -92.16076,0.16642 -117.43858,-0.06 -123,-1.10151 z m 242.73356,-4.46854 c 19.57867,-5.00738 37.2154,-19.21268 45.40153,-36.56814 7.37393,-15.63348 6.7938,-1.4712 7.1265,-173.97485 0.18485,-95.84053 -0.0721,-158.29744 -0.67328,-163.68243 -3.17002,-28.3932 -22.7649,-50.98996 -51.58831,-59.4915 -5.55391,-1.63814 -14.39161,-1.79377 -118.8686,-2.09322 -123.26757,-0.35331 -123.30448,-0.35187 -136.93216,5.35578 -20.09354,8.41573 -35.58752,25.89958 -40.71361,45.9424 -1.94056,7.58752 -1.98529,11.39765 -1.97085,167.85378 0.0164,177.1859 -0.38664,166.08438 6.53875,180.12184 8.82766,17.89328 26.12796,31.73267 45.66935,36.53325 6.76692,1.66238 15.38121,1.79288 122.86716,1.86133 111.0902,0.0708 115.88409,-0.002 123.14352,-1.85824 z M 762.53934,144.94126 c -4.88621,-2.49154 -6.75396,-5.58162 -9.25671,-15.31467 l -2.20271,-8.56621 -7.55583,1.80841 c -9.50497,2.27492 -13.5146,2.26065 -18.55583,-0.066 -6.05745,-2.7957 -8.70904,-6.23007 -9.26325,-11.9979 l -0.47595,-4.95321 4.3696,1.06935 c 4.39787,1.07626 27.29444,1.70348 28.17457,0.7718 0.25978,-0.275 -0.58522,-5.45 -1.87778,-11.5 -2.80631,-13.13532 -4.01029,-24.63983 -2.80282,-26.7822 0.76747,-1.3617 1.2817,-1.38248 4.16306,-0.16824 4.19,1.76572 5.18403,4.28797 8.74934,22.20044 2.20382,11.07222 3.18498,14.24618 4.39978,14.23286 2.10313,-0.0231 13.89281,-3.13912 22.83664,-6.03583 l 7.27318,-2.35563 -0.65788,-7.5457 c -0.36183,-4.15014 -0.84486,-7.7558 -1.0734,-8.01258 -0.64157,-0.72087 -10.72061,3.06528 -11.54978,4.33862 -0.40408,0.62054 -0.74158,2.50475 -0.75,4.18713 -0.008,1.68238 -0.61314,3.87646 -1.34383,4.87573 -1.25431,1.71537 -1.44996,1.66248 -3.50243,-0.94681 -7.03886,-8.94847 -12.61489,-47.57983 -7.90514,-54.76781 1.57167,-2.39868 2.25988,-2.60658 8.47335,-2.55972 8.83525,0.0666 15.41897,-1.73407 40.74758,-11.14485 32.35121,-12.02001 36.05715,-12.81147 42.26516,-9.02637 5.20072,3.17094 4.52861,6.54405 -2.62033,13.15061 -5.51019,5.09215 -5.97507,5.88311 -7.57751,12.89266 -1.03791,4.54017 -1.93397,14.07601 -2.28571,24.32456 l -0.57855,16.85686 10.53318,-0.71794 c 12.77363,-0.87065 21.56203,0.41941 34.69721,5.09325 17.34827,6.17297 24.55123,12.75724 23.77708,21.73478 -0.35964,4.17061 -1.0781,5.50011 -5.30567,9.81813 -12.36777,12.63236 -41.64544,26.87511 -55.19132,26.84899 -9.82872,-0.019 -36.72912,-7.46441 -50.53314,-13.98649 l -6.63047,-3.13275 -3.36178,2.56415 c -2.21044,1.68596 -4.63075,2.56413 -7.06704,2.56413 -5.31108,0 -9.34513,2.44001 -11.14131,6.73886 -2.37683,5.68856 -3.96019,6.28013 -9.39356,3.50959 z m 27.92892,-31.36941 c 0,-3.40274 -0.36686,-4.69719 -1.25,-4.41054 -0.6875,0.22315 -6.65,2.04968 -13.25,4.05894 -6.6,2.00926 -12.37919,4.01425 -12.84264,4.45552 -0.89515,0.85232 0.22684,3.50583 3.68297,8.71027 l 2.12054,3.19322 10.76956,-5.59556 10.76957,-5.59557 0,-4.81628 z m 51.5,11.6239 c 17.98029,-5.21125 29.95809,-12.62648 33.9359,-21.0091 2.17824,-4.59029 0.99484,-8.09664 -3.07758,-9.11876 -2.48088,-0.62266 -22.50122,1.07504 -26.60832,2.25635 -1.41555,0.40715 -1.75,1.64663 -1.75,6.48562 0,6.94554 -1.50315,10.36151 -6.48371,14.73451 -5.08593,4.4655 -8.48845,4.234 -12.51629,-0.85156 -1.74243,-2.2 -4.03919,-4 -5.1039,-4 -5.09995,0 -23.8961,10.35534 -23.8961,13.16504 0,0.98697 13.88123,1.64434 26.5,1.25495 7.0644,-0.21799 12.64204,-1.07432 19,-2.91705 z m -32.93484,-13.46957 c 11.06172,-3.9043 14.15611,-5.5798 14.95528,-8.09776 0.36419,-1.14748 0.48632,-2.26219 0.27138,-2.47712 -0.52739,-0.52739 -23.11407,4.54327 -23.964,5.37987 -0.36971,0.3639 -0.98229,2.34914 -1.36129,4.41164 -0.84607,4.60416 -0.74803,4.61177 10.09863,0.78337 z m 15.09953,-24.36473 c 0.1865,-0.1865 0.0556,-3.05146 -0.29091,-6.36659 l -0.63,-6.0275 -4.62189,0.49631 c -2.54204,0.27296 -7.77189,1.01128 -11.62189,1.64069 l -7,1.1444 -0.2879,8.06457 -0.2879,8.06458 12.2007,-3.33868 c 6.71039,-1.83628 12.35329,-3.49128 12.53979,-3.67778 z m -39.2918,-11.24967 3.87288,-0.68766 -0.47383,-7.38326 c -0.2606,-4.0608 -0.75587,-7.66531 -1.10059,-8.01003 -0.34472,-0.34472 -2.66179,0.15042 -5.14906,1.10032 l -4.52229,1.72708 0,7.48468 c 0,6.65743 0.19342,7.42786 1.75,6.97061 0.9625,-0.28274 3.4928,-0.82352 5.62289,-1.20174 z m 25.62711,-8.07271 c 3.575,-0.83407 7.9096,-1.29006 9.63246,-1.01332 2.95429,0.47455 3.16695,0.29455 3.73899,-3.16489 0.3336,-2.01743 0.61149,-5.28007 0.61754,-7.25032 l 0.011,-3.58228 -5.75,0.36306 c -3.1625,0.19968 -8.07053,0.60134 -10.90673,0.89257 -5.77675,0.59319 -5.756,0.56082 -6.96741,10.86807 -0.64723,5.50686 -0.57087,5.8294 1.21679,5.1396 1.04904,-0.4048 4.83235,-1.41842 8.40735,-2.25249 z m -23.25,-14.33544 c 0.1375,-0.006 0.25,-2.49994 0.25,-5.5422 0,-6.41258 -0.77099,-7.02997 -7.51582,-6.01852 -3.94772,0.592 -4.43693,0.93833 -4.04232,2.8617 0.24692,1.20351 0.72181,4.29717 1.05531,6.87479 l 0.60636,4.68659 4.69823,-1.42577 c 2.58403,-0.78417 4.81074,-1.43063 4.94824,-1.43659 z m 29.39849,-6.68731 8.6485,-0.55844 0.6015,-3.00754 c 0.83142,-4.15707 0.75337,-8.75814 -0.14849,-8.7545 -0.82098,0.003 -20.4156,3.68596 -23.9381,4.49898 -2.1473,0.4956 -2.15894,0.59062 -0.62446,5.09408 1.43643,4.21568 1.77719,4.53605 4.18811,3.93746 1.44345,-0.35838 6.51627,-0.9029 11.27294,-1.21004 z M 749.96826,32.07986 c -8.54539,-0.86515 -17.14363,-2.5998 -20.29405,-4.0942 -3.81608,-1.81016 -6.46121,-6.25505 -6.01597,-10.10925 l 0.31002,-2.6836 30,-0.67519 c 34.52412,-0.77701 38.82059,-1.18789 38.09325,-3.64295 -0.27405,-0.92502 -0.76682,-2.81336 -1.09505,-4.19629 -0.32822,-1.38294 -2.14714,-3.57677 -4.04203,-4.87517 l -3.44526,-2.36073 8.38081,-8.80678 c 4.60944,-4.84374 10.0424,-11.54208 12.07325,-14.88522 2.03084,-3.34313 4.11345,-5.81822 4.62803,-5.5002 1.96514,1.21453 4.907,8.52687 4.907,12.19693 0,2.65481 -1.06381,5.51213 -3.45869,9.28984 -5.49239,8.66372 -5.83852,9.55795 -5.14027,13.27997 l 0.65234,3.47727 6.40972,-2.08396 6.40972,-2.08395 3.16242,-6.86096 c 5.45877,-11.84295 5.09518,-22.44488 -1.10502,-32.22159 l -2.80069,-4.41623 4.18523,-3.40892 c 2.30188,-1.87491 6.76428,-5.11333 9.91645,-7.1965 5.24626,-3.46709 5.97699,-3.68577 8.63592,-2.58441 6.37221,2.63946 12.13383,10.60505 12.13208,16.77292 -0.002,5.69715 -8.8011,20.94419 -17.32371,30.01714 -1.67134,1.77926 -2.80754,3.46627 -2.52489,3.74892 0.28264,0.28265 7.08297,-1.92792 15.11183,-4.91236 35.96298,-13.36797 44.22359,-15.06144 52.47156,-10.75693 4.18684,2.18506 5.83827,5.01596 5.10456,8.75028 -1.03349,5.26 -14.38287,8.95087 -37.33856,10.32343 -19.45807,1.16343 -26.00259,3.04267 -57,16.36735 -30.42707,13.07951 -32.95614,13.86174 -46,14.2277 -6.05,0.16973 -12.8,0.12637 -15,-0.0964 z m 127,-96.03283 c -5.68106,-2.96495 -37.27343,-35.68002 -46.92639,-48.59401 -5.2397,-7.00983 -1.1696,-8.64392 10.25583,-4.11758 11.36665,4.50305 22.06985,10.25041 34.10584,18.31401 13.4719,9.0256 19.06472,14.62275 19.06472,19.07948 0,6.33897 -7.50945,17.0323 -11.88486,16.92384 -0.88833,-0.022 -2.96514,-0.7446 -4.61514,-1.60574 z m -159.75,-1.04355 c -2.05807,-0.53783 -2.24467,-1.67616 -0.5,-3.05034 1.58132,-1.24552 4.61466,-1.96471 13.75304,-3.26076 10.14119,-1.43828 36.03139,-12.18174 41.21829,-17.10404 l 3.79823,-3.60447 -1.61271,-3.85976 c -1.84254,-4.40982 -1.42462,-10.22904 1.00043,-13.93014 5.89167,-8.99183 31.70616,-1.69559 39.19147,11.07714 2.78808,4.75749 3.09158,9.99111 0.77147,13.30352 -5.5172,7.87691 -33.51688,16.84694 -62.58081,20.0485 -9.50471,1.047 -31.57179,1.28654 -35.03941,0.38035 z m 29.25,-55.91369 c -10.15488,-2.71671 -15.5135,-9.58428 -11.62381,-14.89698 1.35658,-1.85286 2.41493,-1.97621 14.38573,-1.67661 13.75712,0.3443 24.86495,-1.06528 40.3194,-5.11652 10.95444,-2.87159 11.17393,-3.93183 2.86711,-13.84941 -7.95535,-9.49796 -10.23414,-14.03086 -10.23414,-20.35746 0,-7.77024 5.70121,-17.18668 11.8125,-19.51019 6.77812,-2.57703 12.24587,-0.35655 21.80398,8.85472 5.43891,5.24154 8.66923,10.75626 8.66923,14.79991 0,4.40245 -3.8636,11.13648 -10.39817,18.12341 -7.12814,7.62158 -8.23637,7.74274 16.39817,-1.79278 25.98514,-10.05831 28.0381,-10.27819 45,-4.81977 20.14841,6.48385 32.08013,13.08844 34.47973,19.08564 3.08164,7.70178 1.27641,16.18225 -3.95179,18.56437 -6.4738,2.94967 -15.69118,0.72225 -41.80355,-10.10201 -13.78473,-5.71413 -23.65055,-7.38252 -33.87601,-5.7287 -4.04161,0.65367 -17.92338,4.73975 -30.84838,9.08017 -34.17996,11.4782 -40.71198,12.62959 -53,9.34221 z"
         id="path3306"
         inkscape:connector-curvature="0" />
      <path
         style="fill:#000000"
         d="m 696.29912,194.68374 c -23.67911,-4.06727 -43.77699,-18.39432 -53.74365,-38.31192 -8.21914,-16.4253 -7.58721,-1.12691 -7.58721,-183.67901 0,-183.04461 -0.67926,-167.02065 7.77865,-183.5 3.06186,-5.96569 6.28208,-10.18447 12.66365,-16.59053 9.40799,-9.44408 16.82923,-14.1124 29.5577,-18.59322 l 8,-2.81625 120,0 120,0 7.5,2.34186 c 20.94879,6.54123 36.90593,20.08263 45.57339,38.67407 6.82489,14.63918 6.51421,5.40251 6.20524,184.48407 l -0.27863,161.5 -2.93246,8.4012 c -6.10781,17.49823 -19.38394,32.49048 -35.97865,40.62937 -17.45707,8.56184 -6.56676,7.91607 -136.58889,8.09945 -63.525,0.0896 -117.60112,-0.19799 -120.16914,-0.63909 z m 246.07034,-6.42339 c 21.79316,-7.60697 38.76399,-25.62278 44.80844,-47.56754 1.68615,-6.12166 1.79036,-15.87115 1.79036,-167.5 0,-151.39732 -0.10639,-161.38769 -1.78374,-167.5 -5.54748,-20.21521 -17.80353,-35.12993 -36.21626,-44.07251 -16.34596,-7.93881 -6.8802,-7.42749 -137.5,-7.42749 l -116.5,0 -7.95493,2.30316 c -22.58209,6.53811 -38.62798,21.12055 -46.94346,42.66203 l -3.10161,8.03481 -0.27943,162.5 c -0.31318,182.13365 -0.78806,169.63477 7.03973,185.28688 8.08366,16.16372 25.36964,29.80884 43.96921,34.70818 6.98906,1.841 11.8574,1.90719 125.77049,1.71004 l 118.5,-0.2051 8.4012,-2.93246 z M 877.4824,-63.89723 c -5.43457,-2.35688 -41.93933,-40.49636 -48.44649,-50.61598 -3.89181,-6.05236 1.14823,-6.2998 14.31087,-0.7026 11.35106,4.82686 17.44412,8.16587 29.62148,16.23264 16.19799,10.73019 20.51407,15.12752 20.49062,20.87632 -0.0122,2.9982 -5.32019,12.21667 -8.19286,14.22876 -2.72174,1.90638 -3.34723,1.90484 -7.78362,-0.0191 z m -159.94408,-1.43801 c -4.19973,-1.79855 -0.50138,-3.74383 10.42994,-5.48603 13.21429,-2.10604 37.55611,-11.56872 43.34182,-16.84877 3.80394,-3.47148 4.27688,-5.09193 2.5162,-8.62131 -3.27336,-6.56159 0.12048,-14.69854 7.08999,-16.99868 6.59504,-2.17656 20.77124,2.57236 28.48674,9.54285 5.06541,4.5763 7.06525,8.19501 7.06525,12.78457 0,9.48756 -18.11082,17.77497 -52,23.79489 -13.23885,2.3517 -43.00366,3.51392 -46.92994,1.83248 z m 29.8805,-55.33393 c -11.83708,-3.19249 -17.45767,-10.73417 -11.49522,-15.42423 2.20431,-1.73391 3.67033,-1.88133 14.33925,-1.44193 12.66774,0.52172 18.47445,-0.18565 36.95541,-4.50189 10.86268,-2.53698 11.25,-2.71922 11.25,-5.29312 0,-1.77726 -1.69965,-4.60796 -5.09977,-8.49347 -10.37895,-11.86061 -12.85845,-17.98159 -10.48228,-25.87699 2.70651,-8.99306 9.7873,-15.59554 16.73297,-15.60265 7.101,-0.007 22.94234,14.64599 24.43497,22.60239 0.94658,5.04574 -1.86098,10.57135 -9.47912,18.656 -3.51628,3.73161 -6.12618,7.0518 -5.79977,7.3782 0.32641,0.32641 6.12836,-1.53156 12.89324,-4.12882 27.79097,-10.6699 31.11576,-11.71646 37.29976,-11.74108 11.21889,-0.0447 43.2163,12.5384 48.8207,19.19886 2.8148,3.3452 4.26459,10.0894 3.20549,14.91145 -0.37027,1.68586 -2.08819,4.25581 -3.81759,5.71101 -4.78671,4.02775 -12.89543,3.13553 -27.77506,-3.05614 -24.0187,-9.9946 -30.47511,-11.87007 -40.93354,-11.89044 -10.95707,-0.0213 -20.19854,2.23245 -42.65645,10.403 -25.82544,9.39571 -37.63359,11.49168 -48.39299,8.58985 z"
         id="path3304"
         inkscape:connector-curvature="0" />
    </g>
  </g>
</svg>
