<?xml version="1.0" encoding="UTF-8" standalone="no"?>
<!-- Created with Inkscape (http://www.inkscape.org/) -->

<svg
   xmlns:dc="http://purl.org/dc/elements/1.1/"
   xmlns:cc="http://creativecommons.org/ns#"
   xmlns:rdf="http://www.w3.org/1999/02/22-rdf-syntax-ns#"
   xmlns:svg="http://www.w3.org/2000/svg"
   xmlns="http://www.w3.org/2000/svg"
   xmlns:sodipodi="http://sodipodi.sourceforge.net/DTD/sodipodi-0.dtd"
   xmlns:inkscape="http://www.inkscape.org/namespaces/inkscape"
   width="358.41547"
   height="445.91696"
   id="svg2"
   version="1.1"
   inkscape:version="0.48.5 r10040"
   sodipodi:docname="circ3.svg">
  <defs
     id="defs4" />
  <sodipodi:namedview
     id="base"
     pagecolor="#ffffff"
     bordercolor="#666666"
     borderopacity="1.0"
     inkscape:pageopacity="0.0"
     inkscape:pageshadow="2"
     inkscape:zoom="0.56054688"
     inkscape:cx="-48.919364"
     inkscape:cy="323.18019"
     inkscape:document-units="px"
     inkscape:current-layer="layer1"
     showgrid="false"
     fit-margin-top="0"
     fit-margin-left="0"
     fit-margin-right="0"
     fit-margin-bottom="0"
     inkscape:window-width="958"
     inkscape:window-height="1078"
     inkscape:window-x="1920"
     inkscape:window-y="0"
     inkscape:window-maximized="0" />
  <metadata
     id="metadata7">
    <rdf:RDF>
      <cc:Work
         rdf:about="">
        <dc:format>image/svg+xml</dc:format>
        <dc:type
           rdf:resource="http://purl.org/dc/dcmitype/StillImage" />
        <dc:title></dc:title>
      </cc:Work>
    </rdf:RDF>
  </metadata>
  <g
     inkscape:label="Layer 1"
     inkscape:groupmode="layer"
     id="layer1"
     transform="translate(-1080.7838,389.19652)">
    <g
       id="g3718"
       transform="translate(-124.87805,246.18815)">
      <path
         style="fill:#c2c5cd"
         d="m 1266.9928,-190.40781 c -16.561,-2.84442 -29.2466,-9.34904 -40.9607,-21.00286 -7.3063,-7.26874 -9.3235,-10.03484 -13.1535,-18.0367 -2.4881,-5.19822 -5.1297,-11.92631 -5.8703,-14.95131 -1.1005,-4.49571 -1.3464,-35.26362 -1.3464,-168.5 0,-152.66935 0.1118,-163.40483 1.7645,-169.38747 6.587,-23.84454 24.1624,-41.78153 49.2355,-50.24865 l 7,-2.36388 117.6998,-0.2738 c 127.4921,-0.29658 124.083,-0.4228 137.7571,5.1004 19.8467,8.01644 34.9381,24.01023 41.8904,44.39535 l 2.6527,7.77805 0.2707,161.47907 c 0.3057,182.40031 0.7796,170.44181 -7.4108,187.01837 -3.8786,7.84991 -6.1821,10.98689 -13.2788,18.08364 -7.1301,7.1301 -10.1969,9.37656 -18.0837,13.24668 -17.9315,8.79914 -6.6641,8.11879 -137.4974,8.30233 -63.8,0.0895 -118.1011,-0.19815 -120.6691,-0.63922 z m 245.6595,-7.3145 c 18.4623,-6.52419 32.0425,-18.45202 40.5652,-35.62965 6.2236,-12.54386 5.9134,-3.15015 5.9296,-179.56682 0.015,-159.80606 -8e-4,-161.07644 -2.056,-168.49288 -5.2233,-18.8489 -18.0693,-33.87237 -36.4292,-42.6043 -15.3842,-7.31666 -6.8096,-6.88272 -136,-6.88272 -108.0365,0 -116.4462,0.12198 -122.5,1.77677 -20.2825,5.54422 -37.1727,18.9908 -45.519,36.2384 -6.8478,14.15117 -6.4499,3.04178 -6.4662,180.52473 -0.016,178.75898 -0.5443,165.20926 7.0386,180.70003 8.3537,17.0656 24.7547,30.136 44.2682,35.27855 6.8693,1.81033 12.2594,1.88296 125.1784,1.68666 l 118,-0.20514 7.9904,-2.82363 z m -201.8474,-58.19356 c -22.2387,-5.63865 -38.0265,-23.47205 -40.8565,-46.15033 -4.6886,-37.57098 29.6284,-67.6302 67.1204,-58.7927 9.318,2.1964 17.6974,7.01111 25.1198,14.43352 33.4833,33.48332 11.3944,89.64754 -36.0267,91.60285 -6.3148,0.26038 -11.4638,-0.10621 -15.357,-1.09334 z m 24.0068,-9.87774 c 33.1043,-8.81433 44.3604,-49.55542 20.3305,-73.58532 -9.5309,-9.53084 -21.1181,-13.70734 -35.3275,-12.7334 -6.38,0.43729 -9.3234,1.23515 -15.1135,4.09676 -22.6029,11.17098 -31.5598,37.24702 -20.4386,59.50256 3.29,6.58386 12.3036,15.74943 18.6946,19.00988 9.5643,4.87934 22.0154,6.3293 31.8545,3.70952 z m -21.4654,-5.10284 c -19.1373,-5.38166 -30.7734,-23.46294 -28.0263,-43.55007 1.1765,-8.60283 5.2199,-16.16088 12.0077,-22.44514 8.1059,-7.5047 14.6527,-9.93657 26.8342,-9.96791 8.6169,-0.0222 10.1229,0.26994 16.2007,3.14262 8.5484,4.04035 15.0964,10.59155 19.0668,19.07619 2.7123,5.79602 3.1201,7.76664 3.1461,15.20071 0.037,10.46198 -1.2702,15.10114 -6.4294,22.82718 -4.3317,6.4868 -11.5939,12.13238 -18.9842,14.75812 -6.504,2.31087 -17.4409,2.75095 -23.8156,0.9583 z m 25.9465,-11.08675 c 3.3863,-1.72947 7.6894,-6.8514 8.5131,-10.13298 0.9286,-3.69999 -0.7661,-7.72257 -3.4133,-8.10195 -1.4406,-0.20644 -5.0037,1.63587 -10.0726,5.20806 -9.5086,6.7009 -10.5576,7.8833 -9.7718,11.01439 1.1011,4.38713 8.1983,5.35582 14.7446,2.01248 z m -19.0909,-0.24676 c 3.6491,-2.95486 2.0048,-5.94258 -6.6969,-12.16872 -9.8662,-7.0593 -10.8992,-7.44389 -13.3666,-4.97648 -2.6848,2.68475 -2.4836,6.76601 0.5539,11.23606 4.6685,6.87021 14.6057,9.88005 19.5096,5.90914 z m 12.5627,-15.25163 c 4.0557,-3.78885 5.6794,-7.72236 5.1449,-12.46411 -0.8499,-7.54068 -6.3385,-12.45575 -13.9019,-12.44924 -14.5252,0.0125 -19.8982,17.69197 -7.8457,25.8154 4.6784,3.15324 12.7301,2.71578 16.6027,-0.90205 z m -15.1481,-4.37164 c -1.8061,-1.80606 -2.4546,-3.53535 -2.4546,-6.54545 0,-8.61582 9.0093,-12.14456 15.2002,-5.95361 2.6322,2.63217 2.9663,3.54998 2.4569,6.75 -1.2067,7.58043 -10.0333,10.91833 -15.2025,5.74906 z m 32.2942,-1.08206 c 4.5723,-3.20254 4.835,-13.46162 0.4965,-19.386 -2.6054,-3.55769 -7.9135,-6.13395 -10.6046,-5.14684 -3.1385,1.15121 -3.1602,4.98776 -0.081,14.356 3.7651,11.45522 5.6607,13.34857 10.189,10.17684 z m -44.0638,-8.96339 c 4.3866,-12.39566 4.1541,-16.5 -0.9347,-16.5 -5.1452,0 -9.6665,4.73429 -11.8748,12.43424 -1.9143,6.67459 1.882,13.96163 6.967,13.37325 2.3732,-0.27459 2.9982,-1.27034 5.8425,-9.30749 z m 29.8391,-15.59394 c 1.0875,-1.0886 1.3801,-2.4395 0.9229,-4.26108 -1.6399,-6.5339 -13.3982,-9.75117 -21.1621,-5.79032 -6.5826,3.35817 -7.6135,9.99445 -1.7849,11.48969 1.1,0.28219 6.1472,0.43265 11.2159,0.33436 6.922,-0.13423 9.6123,-0.57546 10.8082,-1.77265 z m 98.9759,72.13417 c -25.6151,-5.54003 -43.5467,-27.53516 -43.4852,-53.33945 0.034,-14.3173 5.4734,-27.20005 15.9585,-37.79725 16.7124,-16.89106 41.5025,-20.65989 63.968,-9.72505 8.4355,4.10586 18.4594,14.13043 22.8199,22.82152 14.8054,29.50895 0.3521,65.66315 -30.3514,75.92256 -7.6076,2.54204 -22.0546,3.6003 -28.9098,2.11767 z m 21.965,-10.57314 c 8.4629,-2.2043 14.7459,-5.95894 21.0747,-12.59409 20.628,-21.6263 14.2373,-55.98943 -12.9077,-69.40521 -21.9913,-10.86869 -48.5967,-1.48975 -59.2179,20.8755 -15.9058,33.49307 15.0117,70.51084 51.0509,61.1238 z m -21.4408,-5.00585 c -7.6624,-2.14909 -12.9391,-5.4936 -18.8205,-11.92873 -21.4011,-23.41619 -6.2206,-61.55155 25.5625,-64.21613 12.2849,-1.02992 21.8232,2.34479 30.9056,10.93457 16.177,15.29949 15.7966,40.84174 -0.8376,56.24203 -9.6533,8.93726 -24.2451,12.49236 -36.81,8.96826 z m 26.7079,-11.63961 c 3.7506,-2.27745 6.8471,-6.29694 7.8117,-10.13991 0.8266,-3.29374 -1.7326,-7.68172 -4.4803,-7.68172 -2.2706,0 -17.5122,11.10139 -18.9627,13.81172 -1.2456,2.32746 0.2438,4.65677 3.8992,6.09812 3.1373,1.23704 7.5492,0.45176 11.7321,-2.08821 z m -19.9546,0.62167 c 4.3007,-3.01231 2.4629,-6.03933 -8.2775,-13.63407 -8.2369,-5.82447 -9.3686,-6.23813 -11.5832,-4.23395 -1.1277,1.02053 -1.9168,3.05094 -1.9168,4.93182 0,9.38986 14.5235,18.01707 21.7775,12.9362 z m 10.1839,-13.92332 c 8.9125,-4.60883 10.3996,-15.96773 3.0165,-23.04115 -2.4044,-2.30354 -4.0895,-2.93161 -8.7747,-3.27051 -5.1763,-0.37442 -6.1465,-0.12694 -9.0369,2.30523 -6.2825,5.28631 -7.8617,12.19348 -4.1717,18.24559 3.9752,6.51986 12.4949,9.10757 18.9668,5.76084 z m -12.6329,-5.91385 c -6.1224,-5.26623 -2.0858,-15.60613 6.0924,-15.60613 1.8338,0 4.4842,0.92411 5.9442,2.07258 2.1449,1.68714 2.6349,2.90441 2.6349,6.54545 0,8.50131 -8.3105,12.45963 -14.6715,6.9881 z m 31.1267,-0.22731 c 4.5205,-1.73468 5.9044,-11.79355 2.5319,-18.40403 -3.3223,-6.51227 -10.0699,-9.32054 -13.692,-5.69843 -1.3685,1.36847 -1.1948,2.57289 1.6797,11.64396 3.8427,12.12692 5.3122,14.058 9.4804,12.4585 z m -45.1604,-4.12882 c 3.0313,-7.11114 6.0152,-17.9997 5.3837,-19.64539 -1.458,-3.79966 -7.2767,-3.16022 -11.7255,1.28859 -7.1673,7.16722 -5.5486,22.1068 2.3951,22.1068 1.7626,0 2.7468,-0.93519 3.9467,-3.75 z m 30.1401,-20.22525 c 1.7873,-0.67954 2.5651,-1.71598 2.5651,-3.41821 0,-4.01469 -1.0468,-5.58975 -5.0835,-7.64914 -7.3924,-3.7713 -17.8012,-1.53681 -20.7502,4.45448 -2.7355,5.55775 0.3805,7.43073 12.5186,7.52473 4.5017,0.0349 9.3392,-0.37547 10.75,-0.91186 z m -143.4349,-137.51979 c -16.2645,-3.66855 -30.5237,-14.97738 -37.5559,-29.78515 -9.7262,-20.4806 -5.5183,-44.87943 10.4766,-60.74651 11.1553,-11.06616 23.248,-15.9733 39.3631,-15.9733 30.0091,0 53.7162,24.02057 53.7162,54.42639 0,23.02157 -16.0338,44.19245 -38.7034,51.10352 -7.321,2.23189 -19.7552,2.67605 -27.2966,0.97505 z m 21.9134,-10.04624 c 3.5273,-0.83145 8.5892,-2.696 11.2487,-4.14344 5.9114,-3.21743 14.7875,-12.33919 17.8653,-18.35987 11.5078,-22.51106 2.1281,-49.41837 -21.0274,-60.32118 -8.888,-4.18494 -21.528,-4.88361 -31.8163,-1.75864 -31.5047,9.56925 -41.2433,49.40438 -17.7555,72.62794 11.7204,11.58859 25.8121,15.64954 41.4852,11.95519 z m -17.1329,-4.48908 c -30.4822,-5.1355 -42.8185,-43.25526 -21.1976,-65.50157 12.4404,-12.80015 34.2027,-15.12383 49.6395,-5.30025 6.3223,4.02337 10.44,8.90096 14.17,16.78481 2.7737,5.86258 3.0911,7.48869 3.0351,15.54737 -0.081,11.71203 -2.6153,18.42859 -9.9345,26.33424 -6.0702,6.5565 -13.1452,10.45151 -21.9267,12.07128 -6.5415,1.2066 -6.9921,1.20869 -13.7858,0.0641 z m 3.7587,-12.00219 c 3.4767,-2.88542 1.7618,-5.65304 -7.6947,-12.4179 -5.0356,-3.60225 -9.6127,-6.54955 -10.1713,-6.54955 -1.9636,0 -4.6732,3.33623 -4.6732,5.75386 0,5.46319 5.4078,12.04564 12,14.60649 2.2374,0.86917 8.8698,-0.007 10.5392,-1.3929 z m 20.8897,-1.34543 c 5.744,-4.38118 7.9374,-10.20056 5.5359,-14.68776 -1.5998,-2.98935 -5.0927,-2.3182 -11.552,2.2197 -11.4943,8.07522 -13.0622,10.36599 -9.6644,14.12053 2.5916,2.86372 10.9086,1.98725 15.6805,-1.65247 z m -11.4488,-12.37357 c 13.5139,-6.78964 8.5654,-26.58178 -6.6461,-26.58178 -14.5009,0 -19.1442,20.24882 -6.1158,26.67025 4.2755,2.10732 8.449,2.07839 12.7619,-0.0885 z m -10.4801,-4.35296 c -3.339,-1.91012 -4.5,-4.08054 -4.5,-8.41231 0,-5.4741 3.0622,-8.49584 8.5645,-8.45138 4.3368,0.035 6.467,1.26354 8.3637,4.8235 1.5758,2.9576 0.6504,8.31114 -1.8237,10.55016 -2.3913,2.16408 -8.039,2.95764 -10.6045,1.49003 z m 32.2537,-4.6423 c 3.361,-5.12962 1.4127,-15.04331 -3.9087,-19.88825 -4.9984,-4.55096 -10.845,-3.7594 -10.845,1.4683 0,3.90818 5.5824,19.38824 7.4965,20.78786 2.2015,1.60976 5.317,0.59323 7.2572,-2.36791 z m -48.92,0.49681 c 2.1353,-4.1004 6.1663,-17.05584 6.1663,-19.81816 0,-2.89361 -1.5087,-3.93184 -5.7137,-3.93184 -6.141,0 -12.8468,12.76548 -10.2683,19.54741 2.4409,6.42 7.527,8.59762 9.8157,4.20259 z m 33.2159,-23.30975 c 1.8959,-2.28445 0.109,-6.41673 -3.9607,-9.15931 -4.0103,-2.70256 -11.2881,-3.0602 -16.6535,-0.81837 -4.0543,1.69395 -6.8644,6.86722 -5.3091,9.7734 0.8204,1.53292 2.4956,1.76403 12.7864,1.76403 9.5083,0 12.0976,-0.30743 13.1369,-1.55975 z m 101.9504,72.90002 c -11.4657,-1.77655 -23.2796,-7.62714 -31.0174,-15.36073 -9.8429,-9.83754 -14.7296,-20.76179 -15.647,-34.97954 -2.028,-31.42843 22.2714,-57 54.1644,-57 26.0677,0 47.6824,17.33611 52.9891,42.5 2.7451,13.01712 1.1318,24.71996 -5.0222,36.43112 -10.2825,19.5676 -34.0301,31.73068 -55.4669,28.40915 z m 16.2008,-10.45486 c 8.6412,-1.8175 15.8341,-5.77667 22.371,-12.31359 13.4551,-13.45503 16.8708,-32.00397 9.0422,-49.1037 -5.3005,-11.57796 -14.8123,-19.95209 -26.7977,-23.59253 -10.4217,-3.1655 -22.9351,-2.41037 -31.9569,1.92847 -19.7403,9.49376 -29.6808,30.10423 -24.3642,50.51634 2.117,8.12751 4.959,13.22217 10.8512,19.45237 6.3088,6.67057 12.1767,10.19721 20.6536,12.41295 7.7373,2.02241 13.039,2.20604 20.2008,0.69969 z m -17.2008,-5.2528 c -12.1382,-2.64785 -23.77,-12.32256 -28.1165,-23.38595 -1.7386,-4.42533 -2.2642,-7.81603 -2.2857,-14.74666 -0.025,-7.98721 0.3173,-9.73679 3.0398,-15.54737 7.3611,-15.71086 20.9259,-23.75587 38.354,-22.74697 23.2022,1.34315 39.6083,21.75966 35.9396,44.72493 -2.668,16.70142 -15.461,29.29586 -32.6104,32.10453 -6.9528,1.13869 -7.3004,1.12892 -14.3208,-0.40251 z m 3.3979,-10.76806 c 2.7914,-1.27184 3.9142,-3.35128 3.1076,-5.75543 -0.6342,-1.89018 -17.1336,-14.10912 -19.0517,-14.10912 -2.3322,0 -4.4538,3.05997 -4.4538,6.42355 0,4.48456 3.6194,9.46304 8.9073,12.25197 4.8964,2.58244 7.778,2.88062 11.4906,1.18903 z m 20.5577,-0.84191 c 6.5686,-3.35106 10.1132,-10.02819 8.0139,-15.09636 -1.7992,-4.34353 -4.46,-3.74188 -14.2896,3.23103 -7.365,5.22455 -8.6799,6.58041 -8.6799,8.95031 0,1.60504 0.7443,3.22654 1.75,3.81228 2.8336,1.65044 9.0381,1.22887 13.2056,-0.89726 z m -9.5721,-13.4095 c 1.8255,-0.76277 4.3986,-2.90027 5.7178,-4.75 6.4271,-9.01126 -0.3658,-22.19647 -11.4353,-22.19647 -15.2071,0 -20.0942,19.6983 -6.5949,26.58178 4.1376,2.10981 7.871,2.2204 12.3124,0.36469 z m -10.3638,-4.89759 c -5.2701,-2.66654 -6.3876,-8.93648 -2.4308,-13.63882 2.1408,-2.54414 3.3223,-3.07673 6.8257,-3.07673 5.4198,0 8.5854,3.03554 8.5854,8.23266 0,4.98842 -0.795,6.60999 -4.0715,8.30433 -3.4446,1.78126 -5.6537,1.82554 -8.9088,0.17856 z m 31.0572,-3.63863 c 2.3852,-2.38516 2.9231,-3.77124 2.9231,-7.53212 0,-5.47963 -1.8519,-10.2457 -5.1211,-13.17986 -4.3314,-3.88742 -9.9533,-4.21932 -11.3161,-0.66806 -0.7463,1.94483 5.0577,20.06947 7.2221,22.55312 2.0721,2.37768 2.8946,2.22433 6.292,-1.17308 z m -47.7021,-0.32692 c 0.7815,-1.2375 2.6906,-6.20574 4.2424,-11.04053 3.1953,-9.95522 2.7867,-12.00051 -2.5021,-12.52537 -6.3313,-0.62831 -13.2413,9.99943 -11.732,18.04424 1.2738,6.79003 7.1426,10.03326 9.9917,5.52166 z m 33.4369,-24.95055 c 0.692,-5.99666 -4.5979,-9.79945 -13.6317,-9.79945 -8.2186,0 -15.8063,7.13062 -12.205,11.46985 1.0979,1.32293 3.3478,1.54248 13.422,1.30975 l 12.103,-0.2796 0.3117,-2.70055 z"
         id="path3732"
         inkscape:connector-curvature="0" />
      <path
         style="fill:#bebebe"
         d="m 1266.9928,-190.40781 c -16.561,-2.84442 -29.2466,-9.34904 -40.9607,-21.00286 -7.3063,-7.26874 -9.3235,-10.03484 -13.1535,-18.0367 -2.4881,-5.19822 -5.1297,-11.92631 -5.8703,-14.95131 -1.1005,-4.49571 -1.3464,-35.26362 -1.3464,-168.5 0,-152.66935 0.1118,-163.40483 1.7645,-169.38747 6.587,-23.84454 24.1624,-41.78153 49.2355,-50.24865 l 7,-2.36388 117.6998,-0.2738 c 127.4921,-0.29658 124.083,-0.4228 137.7571,5.1004 19.8467,8.01644 34.9381,24.01023 41.8904,44.39535 l 2.6527,7.77805 0.2707,161.47907 c 0.3057,182.40031 0.7796,170.44181 -7.4108,187.01837 -3.8786,7.84991 -6.1821,10.98689 -13.2788,18.08364 -7.1301,7.1301 -10.1969,9.37656 -18.0837,13.24668 -17.9315,8.79914 -6.6641,8.11879 -137.4974,8.30233 -63.8,0.0895 -118.1011,-0.19815 -120.6691,-0.63922 z m 245.6595,-7.3145 c 18.4623,-6.52419 32.0425,-18.45202 40.5652,-35.62965 6.2236,-12.54386 5.9134,-3.15015 5.9296,-179.56682 0.015,-159.80606 -8e-4,-161.07644 -2.056,-168.49288 -5.2233,-18.8489 -18.0693,-33.87237 -36.4292,-42.6043 -15.3842,-7.31666 -6.8096,-6.88272 -136,-6.88272 -108.0365,0 -116.4462,0.12198 -122.5,1.77677 -20.2825,5.54422 -37.1727,18.9908 -45.519,36.2384 -6.8478,14.15117 -6.4499,3.04178 -6.4662,180.52473 -0.016,178.75898 -0.5443,165.20926 7.0386,180.70003 8.3537,17.0656 24.7547,30.136 44.2682,35.27855 6.8693,1.81033 12.2594,1.88296 125.1784,1.68666 l 118,-0.20514 7.9904,-2.82363 z m -197.4904,-57.36675 c -27.163,-4.54186 -48.0677,-30.98695 -45.5221,-57.58687 1.2419,-12.97717 5.7538,-22.75077 15.054,-32.60944 23.4774,-24.88724 63.7258,-22.03146 83.3512,5.91407 7.399,10.53593 9.6363,17.92175 9.5333,31.47262 -0.068,8.9695 -0.511,12.10754 -2.3992,17 -9.6056,24.88912 -34.937,40.00322 -60.0172,35.80962 z m 25,-12.20568 c 24.5417,-9.5162 35.092,-38.4017 22.8154,-62.46588 -2.6943,-5.28128 -10.2738,-13.23633 -15.5668,-16.33826 -18.301,-10.72513 -43.0362,-7.34616 -56.6665,7.74099 -8.4698,9.3751 -12.8372,24.16927 -10.7871,36.54086 2.9296,17.67959 14.9734,31.18812 32.205,36.12165 6.5783,1.88341 21.1672,1.05009 28,-1.59936 z m -25.5,-3.44991 c -23.9329,-6.23205 -36.4218,-31.87661 -26.2316,-53.86383 3.8231,-8.24918 9.7743,-14.20779 18.4947,-18.51786 7.1582,-3.53794 8.195,-3.77009 16.6847,-3.73613 11.7018,0.0468 18.4008,2.57754 26.3817,9.96641 12.9199,11.96158 16.4524,29.28234 9.1433,44.83182 -7.5943,16.15623 -27.5548,25.72498 -44.4728,21.31959 z m 25.2697,-11.38279 c 8.2701,-3.83904 11.3327,-18.27124 3.8773,-18.27124 -3.3148,0 -18.5337,10.95961 -19.3087,13.90478 -1.6822,6.39274 6.2383,8.63393 15.4314,4.36646 z m -19.5984,0.0738 c 3.6068,-3.26416 2.3401,-5.88811 -5.7203,-11.84902 -6.3132,-4.66889 -11.1953,-7.49602 -12.9447,-7.49602 -0.1999,0 -1.0706,0.70714 -1.9349,1.57143 -4.3365,4.33657 0.6712,15.2116 8.4291,18.30512 3.9625,1.58005 10.1354,1.31046 12.1708,-0.53154 z m 11.6389,-14.37064 c 8.1119,-4.94569 8.1119,-19.00305 0,-23.94874 -4.4255,-2.69813 -11.9812,-2.7011 -16.3413,-0.006 -3.3061,2.04328 -6.4689,8.00102 -6.4689,12.18531 0,3.95847 3.9225,10.50683 7.2875,12.166 4.5249,2.23105 11.5058,2.05289 15.5227,-0.39614 z m -13.7335,-5.56326 c -7.4532,-6.27152 -0.4456,-18.02658 8.8137,-14.78478 1.4353,0.50249 3.4785,2.52744 4.5405,4.49987 1.7023,3.16172 1.7744,3.96396 0.6091,6.77718 -1.3649,3.29532 -5.4606,6.09662 -8.9136,6.09662 -1.0851,0 -3.3575,-1.165 -5.0497,-2.58889 z m 31.6721,-0.94772 c 6.5017,-4.55395 3.79,-20.08173 -4.1663,-23.85724 -5.1047,-2.42234 -8.5862,-1.30423 -8.5697,2.75226 0.013,3.10735 4.0852,17.08768 6.044,20.74767 1.227,2.2928 3.7374,2.42683 6.692,0.35731 z m -46.6819,-1.58845 c 2.2413,-4.1879 5.9331,-16.28615 5.9331,-19.44313 0,-7.41037 -10.3961,-5.36787 -14.6615,2.88051 -2.2159,4.28512 -2.2322,12.67479 -0.031,16.03415 2.2219,3.39104 7.0708,3.68358 8.7594,0.52847 z m 30.694,-21.50812 c 3.0415,-0.81498 3.9063,-4.69964 1.7716,-7.95766 -4.8797,-7.44727 -21.6347,-6.95616 -25.2882,0.74122 -1.5111,3.18376 -0.7219,5.71155 2.1448,6.86988 2.4452,0.98803 18.0345,1.24082 21.3718,0.34656 z m 99.5149,70.12171 c -9.4762,-2.05904 -19.1104,-7.62132 -26.5525,-15.32995 -18.8364,-19.51114 -20.7996,-47.86181 -4.7891,-69.15861 20.0428,-26.66053 57.1935,-29.47653 81.3396,-6.16547 22.5224,21.74353 21.9061,56.04446 -1.3945,77.61672 -13.089,12.1181 -30.876,16.88925 -48.6035,13.03731 z m 22.6095,-9.54845 c 22.1654,-5.11003 37.1495,-27.61629 33.3066,-50.02669 -3.7878,-22.08879 -21.3347,-36.91342 -43.6919,-36.91342 -12.9134,0 -24.2923,4.79422 -32.6916,13.77377 -22.4016,23.94906 -11.2025,64.18026 20.2158,72.62314 6.4289,1.72758 16.6684,1.97088 22.8611,0.5432 z m -19.2676,-5.05241 c -6.2022,-1.45605 -15.2831,-6.80106 -19.7053,-11.59853 -2.2458,-2.43647 -5.4817,-7.41809 -7.1907,-11.07026 -2.6589,-5.68183 -3.1102,-7.8007 -3.1269,-14.67961 -0.024,-9.73118 1.9784,-16.1461 7.1829,-23.0154 11.7299,-15.48219 30.8696,-20.55702 47.7458,-12.65969 24.6756,11.54708 30.61,43.09755 11.669,62.03851 -9.7861,9.78617 -23.7792,13.98888 -36.5748,10.98498 z m 20.6596,-9.94783 c 8.1662,-2.26776 14.1858,-11.01875 11.8245,-17.18987 -1.1501,-3.00549 -3.7257,-3.55681 -7.4086,-1.5858 -4.4917,2.40387 -15.5048,10.90245 -16.0839,12.41159 -0.8162,2.12704 1.0414,5.34361 3.7061,6.41723 2.9164,1.17505 3.5546,1.17079 7.9619,-0.0532 z m -15.2373,-1.77115 c 3.7136,-3.00711 2.0526,-6.03782 -6.7596,-12.33369 -4.2792,-3.05726 -8.7455,-5.86111 -9.925,-6.23078 -5.0512,-1.58307 -7.1843,6.70046 -3.3309,12.93531 3.9396,6.37447 15.1882,9.53803 20.0155,5.62916 z m 10.6857,-13.84286 c 3.8612,-1.83224 7.2139,-7.69175 7.2523,-12.67473 0.033,-4.23064 -2.9072,-9.63678 -6.398,-11.76545 -4.203,-2.56303 -12.0669,-2.49588 -16.3902,0.13995 -8.1593,4.97464 -8.0248,19.0548 0.2302,24.08869 3.8407,2.34205 10.6186,2.43573 15.3057,0.21154 z m -11.8376,-4.8255 c -7.9585,-4.32536 -4.4991,-16.50036 4.6884,-16.50036 7.9663,0 11.5129,10.22262 5.3468,15.41111 -3.4391,2.89382 -6.1696,3.19019 -10.0352,1.08925 z m 31.6574,-2.95491 c 4.4037,-4.40378 2.935,-16.09377 -2.6666,-21.22422 -3.6225,-3.31778 -10.3464,-3.57438 -11.3435,-0.43291 -0.6107,1.92444 4.8569,20.58823 6.6975,22.86168 1.5947,1.96968 4.64,1.46805 7.3126,-1.20455 z m -44.8605,-8.04545 c 3.5953,-10.15968 4.1207,-14.97686 1.7332,-15.89301 -3.1577,-1.21174 -6.3267,-0.55487 -9.2696,1.92145 -8.5694,7.21068 -7.6232,24.14318 1.3003,23.27008 2.8762,-0.2814 3.2337,-0.81458 6.2361,-9.29852 z m 27.1014,-14.10728 c 3.2614,-0.65228 4.1995,-2.46712 3.2577,-6.30257 -2.0444,-8.32636 -20.4306,-9.53474 -25.5766,-1.68096 -2.1697,3.31143 -1.2679,7.29731 1.7842,7.88529 3.6085,0.69521 17.2242,0.76034 20.5347,0.0982 z m -140.4452,-137.43076 c -21.9897,-3.91839 -39.4684,-21.18119 -44.0056,-43.46196 -5.1215,-25.14985 10.244,-51.62674 35.2035,-60.66063 7.3078,-2.64498 21.7088,-3.5525 29.781,-1.87672 19.666,4.08264 37.4771,22.00246 41.5829,41.83657 4.4382,21.43981 -5.3338,44.08812 -24.3309,56.39123 -10.4053,6.7388 -26.1104,9.93129 -38.2309,7.77151 z m 17.768,-9.98267 c 12.1122,-2.29704 23.6152,-10.11525 29.5985,-20.1172 12.1517,-20.31346 5.8694,-48.00361 -13.6927,-60.35263 -7.7389,-4.88533 -15.5415,-6.74458 -26.6061,-6.33983 -9.2643,0.33889 -10.711,0.6755 -17.658,4.10893 -17.3471,8.57337 -27.091,27.38369 -23.9631,46.25991 4.1508,25.04898 27.3159,41.18302 52.3214,36.44082 z m -16.9435,-5.4932 c -7.7677,-1.71053 -13.4488,-4.94511 -19.544,-11.12768 -18.6137,-18.88044 -12.397,-50.6684 12.1602,-62.17835 5.0097,-2.34805 6.9595,-2.68006 15.7391,-2.68006 9.2961,0 10.5013,0.2364 16.6587,3.2677 8.4916,4.18038 16.7561,12.87468 19.9122,20.94772 3.4039,8.70698 3.2758,20.82496 -0.3016,28.52004 -3.4326,7.38379 -7.1051,12.14976 -12.5883,16.33648 -8.8187,6.73359 -20.9585,9.35362 -32.0363,6.91415 z m 4.6118,-11.04279 c 2.8515,-1.99729 2.8396,-5.53096 -0.027,-8.15004 -4.3106,-3.93774 -15.8898,-11.29326 -17.778,-11.29326 -2.3072,0 -3.972,2.84436 -3.972,6.78638 0,9.00576 14.7506,17.57872 21.7775,12.65692 z m 20.3008,-0.7171 c 6.4832,-4.36903 9.4091,-11.0785 6.8865,-15.79194 -1.8091,-3.38046 -5.6679,-2.28482 -14.5592,4.13386 -7.1929,5.1927 -8.4056,6.48392 -8.4056,8.95031 0,3.60734 2.1345,4.91173 8.1021,4.95116 3.1689,0.0209 5.6529,-0.6777 7.9762,-2.24339 z m -9.14,-13.55347 c 8.6144,-4.61995 9.4653,-17.77708 1.5522,-24.00151 -5.8021,-4.56397 -16.2642,-3.1065 -20.5108,2.85736 -8.9256,12.53481 5.3418,28.44693 18.9586,21.14415 z m -9.9383,-3.87896 c -6.1914,-2.26332 -8.1064,-10.27827 -3.5454,-14.83922 4.9753,-4.97535 13.7883,-1.91054 15.1673,5.27462 0.5321,2.77239 0.1217,3.7272 -2.9011,6.75 -3.3628,3.3628 -5.412,4.02417 -8.7208,2.8146 z m 28.7488,-2.83038 c 4.8051,-3.36562 4.8944,-13.94258 0.1738,-20.57215 -2.3285,-3.26997 -7.0813,-5.31921 -10.4032,-4.48547 -3.365,0.84458 -3.3376,4.5972 0.1103,15.09082 3.6919,11.23607 5.6099,13.12521 10.1191,9.9668 z m -46.4058,-2.21339 c 2.2992,-4.5343 5.8674,-17.71921 5.4999,-20.32211 -0.2844,-2.01352 -0.9893,-2.48124 -4.1303,-2.74048 -3.1838,-0.26278 -4.325,0.22499 -7.1604,3.0604 -7.7102,7.71016 -6.4394,22.75219 1.9221,22.75219 1.6946,0 2.9138,-0.86664 3.8687,-2.75 z m 32.9704,-23.38176 c 1.6017,-2.54438 -0.9415,-7.46387 -4.8068,-9.29808 -4.7249,-2.24212 -13.2431,-2.02818 -17.2815,0.43404 -3.9175,2.38845 -5.6922,6.25442 -4.1738,9.09164 0.9699,1.81236 1.9903,1.94313 13.1432,1.68453 9.8902,-0.22933 12.2787,-0.57745 13.1189,-1.91213 z m 100.45,73.15645 c -12.6383,-2.28149 -22.8664,-7.94883 -31.5721,-17.49383 -23.6426,-25.92195 -16.3746,-66.82967 14.8284,-83.46068 11.1248,-5.92945 26.9318,-7.78904 38.9727,-4.58487 20.9766,5.582 37.1349,23.71761 40.2102,45.13087 3.552,24.73207 -11.9287,49.59377 -36.1006,57.9768 -7.5029,2.60209 -19.3406,3.69501 -26.3386,2.43171 z m 24.4532,-12.00453 c 24.6037,-9.20543 35.568,-37.58869 23.7995,-61.60962 -3.8237,-7.80476 -11.9846,-15.55342 -20.7576,-19.70909 -6.4358,-3.0486 -7.3314,-3.20145 -18.7585,-3.20145 -11.4142,0 -12.3282,0.15547 -18.7233,3.18498 -22.94,10.86716 -32.0951,36.85513 -21.1408,60.01079 5.1656,10.91909 17.867,20.62573 30.4724,23.2875 6.4745,1.36716 18.7785,0.40517 25.1083,-1.96311 z m -22.5661,-3.04963 c -15.4951,-2.66224 -28.3366,-15.40269 -31.6398,-31.39079 -3.3939,-16.42675 5.7143,-33.88832 21.8096,-41.81204 6.1574,-3.0313 7.3626,-3.2677 16.6587,-3.2677 8.7796,0 10.7294,0.33201 15.7391,2.68006 19.0895,8.94725 28.2176,31.48148 20.3651,50.27498 -3.9117,9.36206 -13.6725,18.6131 -23.0832,21.87764 -5.5463,1.924 -14.0838,2.62847 -19.8495,1.63785 z m 3.127,-11.52723 c 4.3428,-3.04185 2.9554,-5.92693 -6.0074,-12.49219 -8.9658,-6.56749 -12.0046,-7.83132 -14.2831,-5.94033 -2.5359,2.10461 -1.9021,9.34244 1.1341,12.95071 5.2601,6.25137 14.3458,8.85131 19.1564,5.48181 z m 19.153,0.0926 c 9.0974,-4.70443 12.2641,-18.5359 4.2437,-18.5359 -3.0308,0 -18.4417,10.64885 -19.5354,13.49886 -0.7167,1.86761 0.7122,5.07459 2.5997,5.83504 2.646,1.06597 9.9791,0.60491 12.692,-0.79798 z m -7.8284,-14.80585 c 9.0876,-6.07087 8.8878,-19.54249 -0.3615,-24.3851 -4.5396,-2.37676 -12.0535,-2.23914 -15.4945,0.28381 -5.9069,4.33084 -7.8644,12.88495 -4.4188,19.30956 3.6659,6.83554 13.6746,9.20097 20.2748,4.79173 z m -13.1749,-5.50381 c -4.4374,-3.96483 -4.6757,-9.32551 -0.5714,-12.85585 6.0736,-5.22436 14.6442,-1.473 14.6442,6.40982 0,4.53379 -2.8869,7.84716 -7.6709,8.80394 -2.4945,0.49891 -3.7025,0.054 -6.4019,-2.35791 z m 33.3228,-2.42394 c 4.5497,-5.26178 0.5466,-19.98707 -6.1924,-22.77845 -3.7108,-1.53707 -7.7214,-0.65863 -8.5229,1.86678 -0.7406,2.33349 4.9562,20.45742 7.1061,22.60728 1.892,1.89198 5.1313,1.17015 7.6092,-1.69561 z m -45.5412,-7.3023 c 1.7648,-4.95 3.1148,-10.575 3,-12.5 -0.1818,-3.04743 -0.5783,-3.54226 -3.0663,-3.82679 -7.0531,-0.80663 -12.4179,4.87498 -13.2748,14.05871 -0.391,4.19082 -0.065,5.94527 1.5932,8.57974 1.7607,2.79689 2.5863,3.26321 5.3119,3 3.0949,-0.29888 3.3588,-0.68077 6.436,-9.31166 z m 30.099,-16.25 c 1.4162,-2.82201 -0.1419,-6.55853 -3.7481,-8.98876 -6.3935,-4.30858 -19.3358,-2.34018 -21.9211,3.334 -2.9154,6.39842 -1.145,7.40476 13.0262,7.40476 10.2034,0 11.8814,-0.23226 12.643,-1.75 z"
         id="path3730"
         inkscape:connector-curvature="0" />
      <path
         style="fill:#878c9b"
         d="m 1264.7955,-190.99913 c -26.0184,-4.69999 -47.2964,-23.17256 -56.3258,-48.89955 l -2.8078,-8 0,-163.5 c 0,-133.13739 0.2485,-164.52137 1.3381,-169 0.736,-3.025 3.3458,-9.62173 5.7995,-14.6594 9.3423,-19.18015 27.0699,-33.18442 48.5153,-38.32554 8.0983,-1.94141 11.7746,-2.00105 123.3471,-2.00105 110.1304,0 115.3388,0.0816 123,1.92777 9.9682,2.40203 16.1271,5.07664 24.6914,10.72262 9.9672,6.57085 19.0235,16.90186 24.3229,27.74671 8.0355,16.44381 7.5783,4.73168 7.2644,186.08889 l -0.2787,161 -2.7244,8 c -6.9921,20.53168 -22.4213,36.80743 -42.707,45.05027 -13.3721,5.43355 -13.9677,5.45729 -134.4496,5.35999 -91.3729,-0.0738 -112.5169,-0.34225 -118.9854,-1.51071 z m 247.3664,-6.241 c 19.5516,-7.04294 33.2237,-18.90443 41.1016,-35.65855 6.2564,-13.30549 5.8984,-2.4307 5.8984,-179.16088 0,-111.91863 -0.3316,-162.86166 -1.0842,-166.5399 -0.5963,-2.91457 -3.105,-9.5103 -5.5748,-14.65718 -9.5214,-19.84156 -29.0578,-33.79736 -51.943,-37.10535 -4.2444,-0.61351 -48.8747,-1.00469 -116.017,-1.01688 -93.6991,-0.017 -110.3636,0.19722 -117.9261,1.51602 -22.03,3.84171 -40.229,17.06209 -49.5079,35.96417 -7.4584,15.19363 -6.947,1.86542 -6.947,181.05014 0,156.03993 0.061,161.36888 1.9346,168.69401 5.6555,22.11289 22.5255,39.56503 45.0654,46.62042 3.575,1.11904 7.625,2.22635 9,2.46069 1.375,0.23434 55.825,0.36952 121,0.3004 l 118.5,-0.12566 6.5,-2.34145 z m -197,-57.84893 c -27.163,-4.54186 -48.0677,-30.98695 -45.5221,-57.58687 1.2419,-12.97717 5.7538,-22.75077 15.054,-32.60944 23.4774,-24.88724 63.7258,-22.03146 83.3512,5.91407 7.399,10.53593 9.6363,17.92175 9.5333,31.47262 -0.068,8.9695 -0.511,12.10754 -2.3992,17 -9.6056,24.88912 -34.937,40.00322 -60.0172,35.80962 z m 25,-12.20568 c 24.5417,-9.5162 35.092,-38.4017 22.8154,-62.46588 -2.6943,-5.28128 -10.2738,-13.23633 -15.5668,-16.33826 -18.301,-10.72513 -43.0362,-7.34616 -56.6665,7.74099 -8.4698,9.3751 -12.8372,24.16927 -10.7871,36.54086 2.9296,17.67959 14.9734,31.18812 32.205,36.12165 6.5783,1.88341 21.1672,1.05009 28,-1.59936 z m -25.5,-3.44991 c -23.9329,-6.23205 -36.4218,-31.87661 -26.2316,-53.86383 3.8231,-8.24918 9.7743,-14.20779 18.4947,-18.51786 7.1582,-3.53794 8.195,-3.77009 16.6847,-3.73613 11.7018,0.0468 18.4008,2.57754 26.3817,9.96641 12.9199,11.96158 16.4524,29.28234 9.1433,44.83182 -7.5943,16.15623 -27.5548,25.72498 -44.4728,21.31959 z m 25.2697,-11.38279 c 8.2701,-3.83904 11.3327,-18.27124 3.8773,-18.27124 -3.3148,0 -18.5337,10.95961 -19.3087,13.90478 -1.6822,6.39274 6.2383,8.63393 15.4314,4.36646 z m -19.5984,0.0738 c 3.6068,-3.26416 2.3401,-5.88811 -5.7203,-11.84902 -6.3132,-4.66889 -11.1953,-7.49602 -12.9447,-7.49602 -0.1999,0 -1.0706,0.70714 -1.9349,1.57143 -4.3365,4.33657 0.6712,15.2116 8.4291,18.30512 3.9625,1.58005 10.1354,1.31046 12.1708,-0.53154 z m 11.6389,-14.37064 c 8.1119,-4.94569 8.1119,-19.00305 0,-23.94874 -4.4255,-2.69813 -11.9812,-2.7011 -16.3413,-0.006 -3.3061,2.04328 -6.4689,8.00102 -6.4689,12.18531 0,3.95847 3.9225,10.50683 7.2875,12.166 4.5249,2.23105 11.5058,2.05289 15.5227,-0.39614 z m -13.7335,-5.56326 c -7.4532,-6.27152 -0.4456,-18.02658 8.8137,-14.78478 1.4353,0.50249 3.4785,2.52744 4.5405,4.49987 1.7023,3.16172 1.7744,3.96396 0.6091,6.77718 -1.3649,3.29532 -5.4606,6.09662 -8.9136,6.09662 -1.0851,0 -3.3575,-1.165 -5.0497,-2.58889 z m 31.6721,-0.94772 c 6.5017,-4.55395 3.79,-20.08173 -4.1663,-23.85724 -5.1047,-2.42234 -8.5862,-1.30423 -8.5697,2.75226 0.013,3.10735 4.0852,17.08768 6.044,20.74767 1.227,2.2928 3.7374,2.42683 6.692,0.35731 z m -46.6819,-1.58845 c 2.2413,-4.1879 5.9331,-16.28615 5.9331,-19.44313 0,-7.41037 -10.3961,-5.36787 -14.6615,2.88051 -2.2159,4.28512 -2.2322,12.67479 -0.031,16.03415 2.2219,3.39104 7.0708,3.68358 8.7594,0.52847 z m 30.694,-21.50812 c 3.0415,-0.81498 3.9063,-4.69964 1.7716,-7.95766 -4.8797,-7.44727 -21.6347,-6.95616 -25.2882,0.74122 -1.5111,3.18376 -0.7219,5.71155 2.1448,6.86988 2.4452,0.98803 18.0345,1.24082 21.3718,0.34656 z m 99.5149,70.12171 c -9.4762,-2.05904 -19.1104,-7.62132 -26.5525,-15.32995 -18.8364,-19.51114 -20.7996,-47.86181 -4.7891,-69.15861 20.0428,-26.66053 57.1935,-29.47653 81.3396,-6.16547 22.5224,21.74353 21.9061,56.04446 -1.3945,77.61672 -13.089,12.1181 -30.876,16.88925 -48.6035,13.03731 z m 22.6095,-9.54845 c 22.1654,-5.11003 37.1495,-27.61629 33.3066,-50.02669 -3.7878,-22.08879 -21.3347,-36.91342 -43.6919,-36.91342 -12.9134,0 -24.2923,4.79422 -32.6916,13.77377 -22.4016,23.94906 -11.2025,64.18026 20.2158,72.62314 6.4289,1.72758 16.6684,1.97088 22.8611,0.5432 z m -19.2676,-5.05241 c -6.2022,-1.45605 -15.2831,-6.80106 -19.7053,-11.59853 -2.2458,-2.43647 -5.4817,-7.41809 -7.1907,-11.07026 -2.6589,-5.68183 -3.1102,-7.8007 -3.1269,-14.67961 -0.024,-9.73118 1.9784,-16.1461 7.1829,-23.0154 11.7299,-15.48219 30.8696,-20.55702 47.7458,-12.65969 24.6756,11.54708 30.61,43.09755 11.669,62.03851 -9.7861,9.78617 -23.7792,13.98888 -36.5748,10.98498 z m 20.6596,-9.94783 c 8.1662,-2.26776 14.1858,-11.01875 11.8245,-17.18987 -1.1501,-3.00549 -3.7257,-3.55681 -7.4086,-1.5858 -4.4917,2.40387 -15.5048,10.90245 -16.0839,12.41159 -0.8162,2.12704 1.0414,5.34361 3.7061,6.41723 2.9164,1.17505 3.5546,1.17079 7.9619,-0.0532 z m -15.2373,-1.77115 c 3.7136,-3.00711 2.0526,-6.03782 -6.7596,-12.33369 -4.2792,-3.05726 -8.7455,-5.86111 -9.925,-6.23078 -5.0512,-1.58307 -7.1843,6.70046 -3.3309,12.93531 3.9396,6.37447 15.1882,9.53803 20.0155,5.62916 z m 10.6857,-13.84286 c 3.8612,-1.83224 7.2139,-7.69175 7.2523,-12.67473 0.033,-4.23064 -2.9072,-9.63678 -6.398,-11.76545 -4.203,-2.56303 -12.0669,-2.49588 -16.3902,0.13995 -8.1593,4.97464 -8.0248,19.0548 0.2302,24.08869 3.8407,2.34205 10.6186,2.43573 15.3057,0.21154 z m -11.8376,-4.8255 c -7.9585,-4.32536 -4.4991,-16.50036 4.6884,-16.50036 7.9663,0 11.5129,10.22262 5.3468,15.41111 -3.4391,2.89382 -6.1696,3.19019 -10.0352,1.08925 z m 31.6574,-2.95491 c 4.4037,-4.40378 2.935,-16.09377 -2.6666,-21.22422 -3.6225,-3.31778 -10.3464,-3.57438 -11.3435,-0.43291 -0.6107,1.92444 4.8569,20.58823 6.6975,22.86168 1.5947,1.96968 4.64,1.46805 7.3126,-1.20455 z m -44.8605,-8.04545 c 3.5953,-10.15968 4.1207,-14.97686 1.7332,-15.89301 -3.1577,-1.21174 -6.3267,-0.55487 -9.2696,1.92145 -8.5694,7.21068 -7.6232,24.14318 1.3003,23.27008 2.8762,-0.2814 3.2337,-0.81458 6.2361,-9.29852 z m 27.1014,-14.10728 c 3.2614,-0.65228 4.1995,-2.46712 3.2577,-6.30257 -2.0444,-8.32636 -20.4306,-9.53474 -25.5766,-1.68096 -2.1697,3.31143 -1.2679,7.29731 1.7842,7.88529 3.6085,0.69521 17.2242,0.76034 20.5347,0.0982 z m -140.4452,-137.43076 c -21.9897,-3.91839 -39.4684,-21.18119 -44.0056,-43.46196 -5.1215,-25.14985 10.244,-51.62674 35.2035,-60.66063 7.3078,-2.64498 21.7088,-3.5525 29.781,-1.87672 19.666,4.08264 37.4771,22.00246 41.5829,41.83657 4.4382,21.43981 -5.3338,44.08812 -24.3309,56.39123 -10.4053,6.7388 -26.1104,9.93129 -38.2309,7.77151 z m 17.768,-9.98267 c 12.1122,-2.29704 23.6152,-10.11525 29.5985,-20.1172 12.1517,-20.31346 5.8694,-48.00361 -13.6927,-60.35263 -7.7389,-4.88533 -15.5415,-6.74458 -26.6061,-6.33983 -9.2643,0.33889 -10.711,0.6755 -17.658,4.10893 -17.3471,8.57337 -27.091,27.38369 -23.9631,46.25991 4.1508,25.04898 27.3159,41.18302 52.3214,36.44082 z m -16.9435,-5.4932 c -7.7677,-1.71053 -13.4488,-4.94511 -19.544,-11.12768 -18.6137,-18.88044 -12.397,-50.6684 12.1602,-62.17835 5.0097,-2.34805 6.9595,-2.68006 15.7391,-2.68006 9.2961,0 10.5013,0.2364 16.6587,3.2677 8.4916,4.18038 16.7561,12.87468 19.9122,20.94772 3.4039,8.70698 3.2758,20.82496 -0.3016,28.52004 -3.4326,7.38379 -7.1051,12.14976 -12.5883,16.33648 -8.8187,6.73359 -20.9585,9.35362 -32.0363,6.91415 z m 4.6118,-11.04279 c 2.8515,-1.99729 2.8396,-5.53096 -0.027,-8.15004 -4.3106,-3.93774 -15.8898,-11.29326 -17.778,-11.29326 -2.3072,0 -3.972,2.84436 -3.972,6.78638 0,9.00576 14.7506,17.57872 21.7775,12.65692 z m 20.3008,-0.7171 c 6.4832,-4.36903 9.4091,-11.0785 6.8865,-15.79194 -1.8091,-3.38046 -5.6679,-2.28482 -14.5592,4.13386 -7.1929,5.1927 -8.4056,6.48392 -8.4056,8.95031 0,3.60734 2.1345,4.91173 8.1021,4.95116 3.1689,0.0209 5.6529,-0.6777 7.9762,-2.24339 z m -9.14,-13.55347 c 8.6144,-4.61995 9.4653,-17.77708 1.5522,-24.00151 -5.8021,-4.56397 -16.2642,-3.1065 -20.5108,2.85736 -8.9256,12.53481 5.3418,28.44693 18.9586,21.14415 z m -9.9383,-3.87896 c -6.1914,-2.26332 -8.1064,-10.27827 -3.5454,-14.83922 4.9753,-4.97535 13.7883,-1.91054 15.1673,5.27462 0.5321,2.77239 0.1217,3.7272 -2.9011,6.75 -3.3628,3.3628 -5.412,4.02417 -8.7208,2.8146 z m 28.7488,-2.83038 c 4.8051,-3.36562 4.8944,-13.94258 0.1738,-20.57215 -2.3285,-3.26997 -7.0813,-5.31921 -10.4032,-4.48547 -3.365,0.84458 -3.3376,4.5972 0.1103,15.09082 3.6919,11.23607 5.6099,13.12521 10.1191,9.9668 z m -46.4058,-2.21339 c 2.2992,-4.5343 5.8674,-17.71921 5.4999,-20.32211 -0.2844,-2.01352 -0.9893,-2.48124 -4.1303,-2.74048 -3.1838,-0.26278 -4.325,0.22499 -7.1604,3.0604 -7.7102,7.71016 -6.4394,22.75219 1.9221,22.75219 1.6946,0 2.9138,-0.86664 3.8687,-2.75 z m 32.9704,-23.38176 c 1.6017,-2.54438 -0.9415,-7.46387 -4.8068,-9.29808 -4.7249,-2.24212 -13.2431,-2.02818 -17.2815,0.43404 -3.9175,2.38845 -5.6922,6.25442 -4.1738,9.09164 0.9699,1.81236 1.9903,1.94313 13.1432,1.68453 9.8902,-0.22933 12.2787,-0.57745 13.1189,-1.91213 z m 100.45,73.15645 c -12.6383,-2.28149 -22.8664,-7.94883 -31.5721,-17.49383 -23.6426,-25.92195 -16.3746,-66.82967 14.8284,-83.46068 11.1248,-5.92945 26.9318,-7.78904 38.9727,-4.58487 20.9766,5.582 37.1349,23.71761 40.2102,45.13087 3.552,24.73207 -11.9287,49.59377 -36.1006,57.9768 -7.5029,2.60209 -19.3406,3.69501 -26.3386,2.43171 z m 24.4532,-12.00453 c 24.6037,-9.20543 35.568,-37.58869 23.7995,-61.60962 -3.8237,-7.80476 -11.9846,-15.55342 -20.7576,-19.70909 -6.4358,-3.0486 -7.3314,-3.20145 -18.7585,-3.20145 -11.4142,0 -12.3282,0.15547 -18.7233,3.18498 -22.94,10.86716 -32.0951,36.85513 -21.1408,60.01079 5.1656,10.91909 17.867,20.62573 30.4724,23.2875 6.4745,1.36716 18.7785,0.40517 25.1083,-1.96311 z m -22.5661,-3.04963 c -15.4951,-2.66224 -28.3366,-15.40269 -31.6398,-31.39079 -3.3939,-16.42675 5.7143,-33.88832 21.8096,-41.81204 6.1574,-3.0313 7.3626,-3.2677 16.6587,-3.2677 8.7796,0 10.7294,0.33201 15.7391,2.68006 19.0895,8.94725 28.2176,31.48148 20.3651,50.27498 -3.9117,9.36206 -13.6725,18.6131 -23.0832,21.87764 -5.5463,1.924 -14.0838,2.62847 -19.8495,1.63785 z m 3.127,-11.52723 c 4.3428,-3.04185 2.9554,-5.92693 -6.0074,-12.49219 -8.9658,-6.56749 -12.0046,-7.83132 -14.2831,-5.94033 -2.5359,2.10461 -1.9021,9.34244 1.1341,12.95071 5.2601,6.25137 14.3458,8.85131 19.1564,5.48181 z m 19.153,0.0926 c 9.0974,-4.70443 12.2641,-18.5359 4.2437,-18.5359 -3.0308,0 -18.4417,10.64885 -19.5354,13.49886 -0.7167,1.86761 0.7122,5.07459 2.5997,5.83504 2.646,1.06597 9.9791,0.60491 12.692,-0.79798 z m -7.8284,-14.80585 c 9.0876,-6.07087 8.8878,-19.54249 -0.3615,-24.3851 -4.5396,-2.37676 -12.0535,-2.23914 -15.4945,0.28381 -5.9069,4.33084 -7.8644,12.88495 -4.4188,19.30956 3.6659,6.83554 13.6746,9.20097 20.2748,4.79173 z m -13.1749,-5.50381 c -4.4374,-3.96483 -4.6757,-9.32551 -0.5714,-12.85585 6.0736,-5.22436 14.6442,-1.473 14.6442,6.40982 0,4.53379 -2.8869,7.84716 -7.6709,8.80394 -2.4945,0.49891 -3.7025,0.054 -6.4019,-2.35791 z m 33.3228,-2.42394 c 4.5497,-5.26178 0.5466,-19.98707 -6.1924,-22.77845 -3.7108,-1.53707 -7.7214,-0.65863 -8.5229,1.86678 -0.7406,2.33349 4.9562,20.45742 7.1061,22.60728 1.892,1.89198 5.1313,1.17015 7.6092,-1.69561 z m -45.5412,-7.3023 c 1.7648,-4.95 3.1148,-10.575 3,-12.5 -0.1818,-3.04743 -0.5783,-3.54226 -3.0663,-3.82679 -7.0531,-0.80663 -12.4179,4.87498 -13.2748,14.05871 -0.391,4.19082 -0.065,5.94527 1.5932,8.57974 1.7607,2.79689 2.5863,3.26321 5.3119,3 3.0949,-0.29888 3.3588,-0.68077 6.436,-9.31166 z m 30.099,-16.25 c 1.4162,-2.82201 -0.1419,-6.55853 -3.7481,-8.98876 -6.3935,-4.30858 -19.3358,-2.34018 -21.9211,3.334 -2.9154,6.39842 -1.145,7.40476 13.0262,7.40476 10.2034,0 11.8814,-0.23226 12.643,-1.75 z"
         id="path3728"
         inkscape:connector-curvature="0" />
      <path
         style="fill:#7f7f7f"
         d="m 1264.7955,-190.99913 c -26.0184,-4.69999 -47.2964,-23.17256 -56.3258,-48.89955 l -2.8078,-8 0,-163.5 c 0,-133.13739 0.2485,-164.52137 1.3381,-169 0.736,-3.025 3.3458,-9.62173 5.7995,-14.6594 9.3423,-19.18015 27.0699,-33.18442 48.5153,-38.32554 8.0983,-1.94141 11.7746,-2.00105 123.3471,-2.00105 110.1304,0 115.3388,0.0816 123,1.92777 9.9682,2.40203 16.1271,5.07664 24.6914,10.72262 9.9672,6.57085 19.0235,16.90186 24.3229,27.74671 8.0355,16.44381 7.5783,4.73168 7.2644,186.08889 l -0.2787,161 -2.7244,8 c -6.9921,20.53168 -22.4213,36.80743 -42.707,45.05027 -13.3721,5.43355 -13.9677,5.45729 -134.4496,5.35999 -91.3729,-0.0738 -112.5169,-0.34225 -118.9854,-1.51071 z m 247.3664,-6.241 c 19.5516,-7.04294 33.2237,-18.90443 41.1016,-35.65855 6.2564,-13.30549 5.8984,-2.4307 5.8984,-179.16088 0,-111.91863 -0.3316,-162.86166 -1.0842,-166.5399 -0.5963,-2.91457 -3.105,-9.5103 -5.5748,-14.65718 -9.5214,-19.84156 -29.0578,-33.79736 -51.943,-37.10535 -4.2444,-0.61351 -48.8747,-1.00469 -116.017,-1.01688 -93.6991,-0.017 -110.3636,0.19722 -117.9261,1.51602 -22.03,3.84171 -40.229,17.06209 -49.5079,35.96417 -7.4584,15.19363 -6.947,1.86542 -6.947,181.05014 0,156.03993 0.061,161.36888 1.9346,168.69401 5.6555,22.11289 22.5255,39.56503 45.0654,46.62042 3.575,1.11904 7.625,2.22635 9,2.46069 1.375,0.23434 55.825,0.36952 121,0.3004 l 118.5,-0.12566 6.5,-2.34145 z m -205.8995,-60.67076 c -22.2311,-7.74953 -36.1005,-27.14634 -36.1005,-50.48779 0,-18.70513 8.8704,-35.11494 24.4279,-45.19045 8.6424,-5.59713 17.1263,-7.99661 28.5721,-8.08102 15.7063,-0.11583 28.4984,4.92984 38.92,15.35147 10.1271,10.12708 15.3181,22.97746 15.3181,37.92 0,22.60348 -12.3884,40.97113 -33.5663,49.767 -5.1809,2.15183 -8.0984,2.62252 -18.1718,2.93178 -10.8667,0.33362 -12.6988,0.12481 -19.3995,-2.21099 z m 29.3995,-7.67079 c 15.8808,-3.9713 29.752,-19.50787 32.5249,-36.42994 4.6977,-28.66834 -21.997,-55.13927 -50.9098,-50.483 -21.9532,3.53547 -38.1151,22.23338 -38.1151,44.09594 0,29.3378 27.3919,50.09602 56.5,42.817 z m -25.2779,-6.73221 c -14.5242,-5.38103 -24.0015,-18.16737 -25.0098,-33.74209 -1.1543,-17.82875 9.9365,-34.13231 26.4935,-38.94554 8.3042,-2.41411 21.2011,-1.60824 28.4694,1.77891 7.9327,3.69686 14.217,9.84397 18.0749,17.68032 3.0436,6.1824 3.2499,7.27091 3.2499,17.14361 0,9.8727 -0.2063,10.96121 -3.2499,17.14361 -3.866,7.85298 -10.1636,14.00383 -18.0749,17.65395 -7.7679,3.5839 -22.0924,4.1995 -29.9531,1.28723 z m 8.31,-8.53376 c 1.9074,-0.79694 3.4679,-1.96194 3.4679,-2.5889 0,-0.62695 1.3845,0.0251 3.0767,1.44898 3.8732,3.25907 8.1839,3.34039 14.016,0.26441 7.757,-4.09119 11.4582,-13.19929 7.2523,-17.84678 -1.5526,-1.71559 -1.5271,-1.82874 0.4111,-1.82874 3.4264,0 7.2439,-5.49107 7.2439,-10.41944 0,-8.88888 -7.852,-17.83846 -14.2433,-16.23433 -1.4429,0.36213 -2.9119,1.56757 -3.2646,2.67875 -0.6279,1.97841 3.3427,15.62824 6.1794,21.24299 1.2584,2.49085 1.2197,2.83175 -0.3865,3.40517 -2.4447,0.87272 -15.3698,10.17026 -17.577,12.64382 l -1.7919,2.00824 -1.4549,-2.07715 c -1.9182,-2.73854 -16.9581,-13.24805 -18.959,-13.24805 -1.318,0 -1.2547,-0.42974 0.4047,-2.75 1.0817,-1.5125 3.1922,-6.74815 4.6898,-11.63477 3.1044,-10.12892 2.7025,-11.94205 -2.7513,-12.41387 -11.2214,-0.97078 -17.7571,19.92488 -7.986,25.53273 2.7097,1.55515 2.8059,1.8297 1.6501,4.70867 -1.6656,4.14848 -0.3737,8.32729 3.8356,12.40707 2.8695,2.78126 9.0531,5.94443 11.937,6.10628 0.4302,0.0241 2.3427,-0.60815 4.25,-1.40508 z m 11.4831,-14.80103 c 2.5477,-1.29131 5.2525,-3.6671 6.3483,-5.57587 7.0907,-12.35185 -6.451,-26.76161 -19.0899,-20.31371 -10.8863,5.55376 -11.0337,20.16789 -0.261,25.86466 5.3782,2.84404 7.433,2.84798 13.0026,0.0249 z m -12.9426,-7.38486 c -5.4803,-6.96705 1.0998,-16.11348 9.5791,-13.31507 3.9547,1.30515 5.3483,3.48987 5.3483,8.38419 0,5.03116 -2.8232,7.56574 -8.4274,7.56574 -3.592,0 -4.8185,-0.49721 -6.5,-2.63486 z m 17.9931,-23.40032 c 2.8841,-1.54348 2.4821,-6.07267 -0.8157,-9.19103 -6.0416,-5.71297 -16.5729,-5.6047 -22.408,0.23038 -3.1799,3.17992 -3.617,6.07796 -1.2706,8.4244 1.229,1.22892 3.8588,1.57143 12.0658,1.57143 5.7718,0 11.3647,-0.46583 12.4285,-1.03518 z m 95.6256,69.5344 c -16.9145,-4.64992 -31.6066,-18.77217 -36.7061,-35.28243 -2.5122,-8.1338 -2.7026,-23.41133 -0.3898,-31.28529 5.2296,-17.80436 18.762,-31.19333 36.9046,-36.51356 8.4694,-2.4836 22.9514,-2.26957 31.5721,0.4666 17.0173,5.40114 30.8705,19.94608 35.4751,37.24642 2.1512,8.08209 1.8604,21.328 -0.6477,29.5137 -5.393,17.60054 -19.4416,31.22114 -37.0309,35.9027 -6.6296,1.76454 -22.6798,1.73806 -29.1773,-0.0481 z m 27.8555,-9.05666 c 6.5454,-1.79016 16.0226,-7.95479 20.8018,-13.53102 2.0795,-2.42635 5.2106,-7.33654 6.958,-10.91154 3.006,-6.15029 3.1774,-7.11872 3.1852,-18 0.01,-10.78718 -0.1831,-11.9029 -3.0781,-18 -11.9666,-25.20236 -43.5149,-34.41078 -65.6697,-19.1679 -23.1604,15.93478 -26.7134,47.51706 -7.6172,67.70847 11.4649,12.12246 28.3938,16.55856 45.42,11.90199 z m -26.247,-6.30467 c -9.9596,-3.44138 -17.9531,-10.79155 -22.5307,-20.71755 -1.9032,-4.12702 -2.2691,-6.61667 -2.2691,-15.44137 0,-9.84897 0.2076,-10.94271 3.2499,-17.12258 3.8579,-7.83635 10.1422,-13.98346 18.075,-17.68032 7.2682,-3.38715 20.1651,-4.19302 28.4694,-1.77891 20.0603,5.83171 31.2637,27.94153 24.7011,48.7475 -3.6263,11.49664 -11.8263,19.83843 -23.5526,23.9599 -7.0295,2.47068 -19.0447,2.486 -26.143,0.0333 z m 9.8846,-9.80475 c 3.6812,-3.33149 2.3472,-5.89107 -6.4344,-12.34548 -4.5375,-3.33503 -9.2834,-6.3256 -10.5463,-6.64572 -2.0366,-0.51619 -2.1335,-0.7664 -0.856,-2.21198 0.7922,-0.89648 2.8429,-6.03798 4.5571,-11.42556 3.6946,-11.61175 3.2756,-13.7044 -2.7438,-13.7044 -6.5821,0 -12.161,7.53741 -12.161,16.43024 0,4.66445 2.5871,8.98653 6.0339,10.08051 1.8174,0.57682 1.8567,0.80742 0.4739,2.78161 -2.1136,3.0175 -1.8885,5.38231 0.9777,10.27311 4.5919,7.8355 15.5573,11.42073 20.6989,6.76767 z m 17.0977,1.31973 c 5.139,-2.15139 10.7179,-8.99922 10.7179,-13.15575 0,-3.28028 -2.7241,-7.49712 -4.8432,-7.49712 -1.0083,0 -14.7092,9.42135 -17.9068,12.31353 -2.9638,2.6807 -2.8427,5.07505 0.3849,7.61389 3.0434,2.39399 7.0635,2.64438 11.6472,0.72545 z m -7.6866,-14.55675 c 11.034,-5.01109 11.2815,-20.47277 0.4201,-26.24451 -4.3631,-2.31857 -8.5163,-2.35055 -12.9957,-0.10006 -10.8802,5.46642 -10.7292,21.30033 0.2508,26.28463 5.268,2.39139 7.1707,2.40064 12.3248,0.0599 z m -12.5565,-7.28468 c -2.1996,-2.36096 -2.7152,-7.67948 -1.0467,-10.7971 0.5458,-1.01979 2.4849,-2.34675 4.3091,-2.94879 8.6628,-2.859 15.2153,6.19401 9.626,13.29959 -2.7693,3.52063 -9.7975,3.764 -12.8884,0.4463 z m 33.8263,-1.16804 c 3.1156,-3.31639 3.7656,-8.70299 1.7021,-14.10602 -1.8898,-4.94858 -7.5479,-10.53738 -10.6679,-10.53738 -3.3073,0 -5.8995,1.91029 -5.8995,4.3476 0,2.81155 5.5301,19.38127 7.0996,21.27242 1.742,2.09902 5.2962,1.65205 7.7657,-0.97662 z m -15.7996,-22.67858 c 4.9107,-2.62809 -0.1027,-10.82061 -7.9077,-12.92227 -5.2945,-1.42567 -11.5586,0.0913 -15.408,3.73124 -3.1838,3.01059 -3.6837,7.58299 -1,9.14611 2.3002,1.33971 21.829,1.37579 24.3157,0.0449 z m -148.5657,-138.83141 c -18.6213,-5.35087 -33.704,-21.34798 -37.5374,-39.81333 -1.6757,-8.07217 -0.7682,-22.4732 1.8768,-29.78095 4.4951,-12.41961 13.6243,-22.90763 25.2632,-29.02372 26.5014,-13.92606 59.8009,-3.90675 73.0666,21.98459 4.63,9.0367 6.2208,15.97426 6.0763,26.5 -0.3309,24.11346 -16.3464,44.36329 -39.9487,50.51091 -7.5581,1.96864 -21.257,1.78905 -28.7968,-0.3775 z m 28.409,-9.02797 c 31.9726,-9.95098 42.0414,-49.93766 18.5019,-73.4772 -22.0294,-22.02935 -58.2555,-15.95532 -72.1171,12.09188 -3.3001,6.67731 -3.7526,8.52172 -4.0831,16.64466 -0.7144,17.55496 6.6143,31.21439 21.929,40.87211 9.0386,5.69996 24.5091,7.37313 35.7693,3.86855 z m -24.409,-5.45024 c -11.2637,-3.73307 -19.0622,-10.47331 -23.8981,-20.6552 -2.7858,-5.86529 -3.0848,-7.42765 -3.0628,-16 0.03,-11.60433 2.435,-18.53046 8.9521,-25.77895 18.3639,-20.42512 52.7497,-15.59941 64.1079,8.99692 2.6182,5.66977 2.9009,7.30539 2.9009,16.78203 0,9.39869 -0.2849,11.08007 -2.7161,16.03042 -4.2697,8.69374 -8.984,13.46501 -17.4274,17.63795 -6.6665,3.29476 -8.5342,3.75816 -16.196,4.01838 -5.3019,0.18008 -10.2117,-0.21996 -12.6605,-1.03155 z m 24.7821,-9.00233 c 1.7699,-0.74092 4.9054,-3.21722 6.9679,-5.50288 2.9616,-3.28201 3.75,-4.96355 3.75,-7.99788 0,-5.10889 -2.9068,-7.97125 -6.4537,-6.35515 -4.0208,1.83199 -17.5463,12.19108 -17.5463,13.43857 0,0.63624 -1.4625,-0.22366 -3.25,-1.9109 -5.2538,-4.95908 -15.9991,-12.32463 -17.98,-12.32463 -1.7499,0 -1.7457,-0.12024 0.096,-2.75 1.0592,-1.5125 3.1867,-6.97131 4.7276,-12.13069 l 2.8017,-9.38069 -2.3845,-1.93084 c -5.9039,-4.7807 -16.0109,4.50495 -16.0109,14.70976 0,4.72054 2.4745,9.33216 5.6566,10.54199 2.0984,0.7978 2.3425,1.23661 1.3521,2.43 -2.2267,2.68304 -1.432,8.41585 1.7124,12.35298 5.6457,7.06897 15.2399,9.42165 20.0383,4.91378 2.2571,-2.12044 2.4439,-2.1444 3.3999,-0.43618 1.9851,3.54729 7.7667,4.57504 13.1228,2.33276 z m -6.1173,-15.40287 c 6.7384,-3.96595 9.4023,-14.31094 5.1599,-20.03829 -6.9197,-9.34187 -18.922,-9.44293 -25.1438,-0.21171 -1.9526,2.89693 -2.2841,4.43234 -1.9243,8.91096 0.3854,4.7981 0.9008,5.84577 4.5503,9.25 3.6656,3.4192 4.6772,3.83904 9.2501,3.83904 3.0905,0 6.318,-0.69663 8.1078,-1.75 z m -13.7102,-6.70455 c -6.1217,-6.12167 -0.1872,-15.96346 8.4781,-14.06023 3.8752,0.85113 6.0673,3.94497 6.0673,8.56297 0,7.38446 -9.1864,10.85633 -14.5454,5.49726 z m 33.4531,-0.94716 c 7.1364,-7.59635 0.1238,-25.24547 -9.6951,-24.40039 -5.7881,0.49817 -6.1098,2.36236 -2.3742,13.75909 4.4089,13.45104 7.155,15.87225 12.0693,10.6413 z m -15.842,-22.63347 c 2.8146,-1.5063 2.4884,-6.13799 -0.6535,-9.27988 -5.914,-5.91406 -16.2914,-6.00572 -22.1019,-0.19522 -3.8552,3.85521 -4.209,6.76738 -1.0878,8.95358 2.6174,1.83326 20.655,2.22779 23.8432,0.52152 z m 96.2088,69.49614 c -18.4038,-4.95684 -34.117,-20.79087 -38.1951,-38.48877 -1.5899,-6.90004 -1.3064,-21.84424 0.5321,-28.04069 6.43,-21.6718 24.481,-36.43909 47.1128,-38.54249 25.6933,-2.38794 50.3571,14.62954 56.7445,39.15254 1.9608,7.52811 1.9608,20.38879 0,27.9169 -4.7682,18.30632 -19.7444,33.22136 -38.1131,37.95736 -7.4861,1.93011 -21.002,1.95184 -28.0812,0.0452 z m 27.9545,-9.5213 c 13.6014,-4.46873 24.8411,-15.77552 28.8711,-29.04328 1.704,-5.61 2.052,-8.83183 1.7151,-15.87777 -0.3684,-7.70656 -0.8967,-9.79896 -4.1215,-16.32378 -10.9697,-22.19579 -36.8677,-31.54463 -59.1391,-21.34846 -6.158,2.81924 -15.4876,11.05803 -19.2709,17.01788 -12.6654,19.95168 -6.381,47.73933 13.7127,60.63343 10.9532,7.02863 25.9725,8.97004 38.2326,4.94198 z m -24.729,-5.28446 c -11.3095,-3.74824 -19.3027,-10.45694 -24.0885,-20.21744 -2.6546,-5.41379 -2.9115,-6.86617 -2.9115,-16.45879 0,-9.86491 0.2042,-10.93578 3.2741,-17.17169 14.2857,-29.01843 56.327,-28.40774 70.0522,1.01757 2.3037,4.93878 2.6489,6.97269 2.6604,15.67515 0.012,9.12661 -0.257,10.5677 -3.0812,16.5 -3.9414,8.27874 -10.1656,14.49294 -18.3882,18.3586 -5.355,2.51755 -7.9643,3.09767 -15,3.335 -5.1692,0.17437 -10.0897,-0.23382 -12.5173,-1.0384 z m 24.2685,-9.20293 c 6.6922,-2.7962 11.2315,-8.56759 11.2315,-14.28017 0,-1.60996 -0.6994,-3.50768 -1.5543,-4.21715 -1.3606,-1.12922 -1.169,-1.45192 1.5375,-2.58991 3.0667,-1.28947 6.0232,-6.24856 6.0112,-10.08292 -0.024,-7.61589 -6.5853,-16.28212 -12.3277,-16.28212 -3.7731,0 -5.6667,1.50789 -5.6667,4.51241 0,2.54696 5.5437,19.23283 6.9548,20.93308 0.7227,0.87079 0.1043,1.64935 -2.2272,2.80439 -5.9791,2.96201 -17.2181,12.18341 -17.532,14.38473 -0.3727,2.61346 4.0311,6.36539 7.4714,6.36539 1.3185,0 4.0641,-0.69648 6.1015,-1.54773 z m -16.5972,-1.10726 c 2.4768,-2.24146 2.3018,-5.57161 -0.4213,-8.01669 -4.9879,-4.47873 -15.632,-11.32832 -17.6039,-11.32832 -3.0309,0 -5.4797,4.20455 -4.6498,7.98331 0.805,3.66487 4.7666,8.5959 8.9611,11.15377 3.8536,2.35003 11.2234,2.46177 13.7139,0.20793 z m 13.0218,-16.18405 c 3.6653,-3.41896 4.1596,-4.43114 4.517,-9.25 0.3121,-4.20928 -0.053,-6.13476 -1.6453,-8.6701 -5.7209,-9.11062 -17.3106,-9.67956 -24.4457,-1.20005 -2.0898,2.48361 -2.6178,4.1581 -2.6125,8.28592 0.012,9.10709 5.6034,14.65525 14.7821,14.66668 4.7561,0.006 5.7033,-0.38006 9.4044,-3.83245 z m -16.0188,-4.47541 c -2.5802,-2.74656 -2.8895,-8.21939 -0.6456,-11.42312 2.0742,-2.96123 7.4162,-3.85941 11.2286,-1.88792 3.3389,1.72658 4.2427,3.37817 4.2427,7.75273 0,6.95738 -9.992,10.7035 -14.8257,5.55831 z m -15.2434,-0.61647 c 2.339,-2.33898 8.2786,-20.35954 7.4351,-22.55772 -1.0741,-2.79903 -4.1365,-3.74221 -8.005,-2.46548 -5.2378,1.72861 -9.361,8.65582 -9.361,15.72682 0,4.61425 0.4166,5.79773 2.9231,8.30422 3.4395,3.43947 4.4215,3.57851 7.0078,0.99216 z m 32.8466,-23.62578 c 3.1212,-2.1862 2.7674,-5.09837 -1.0878,-8.95358 -5.728,-5.72804 -15.9075,-5.7243 -22.0929,0.008 -3.4019,3.15284 -3.5856,8.16914 -0.3468,9.47099 4.0053,1.60995 21.0213,1.22986 23.5275,-0.52554 z"
         id="path3726"
         inkscape:connector-curvature="0" />
      <path
         style="fill:#4b526a"
         d="m 1260.5537,-192.29393 c -26.3674,-6.48417 -47.3146,-27.2225 -52.8447,-52.31787 -1.4448,-6.55609 -1.5778,-23.73413 -1.3265,-171.28688 l 0.2794,-164 2.7067,-7.29799 c 8.6049,-23.20062 27.0829,-39.67464 51.5633,-45.97104 6.1939,-1.59308 16.0502,-1.73097 123.73,-1.73097 131.3234,0 122.6841,-0.46427 139,7.46983 14.5435,7.07222 26.3118,18.67086 33.0212,32.54534 6.8488,14.16257 6.4477,2.83566 6.464,182.52473 0.016,180.75131 0.5341,167.09827 -6.9175,182.4601 -7.2702,14.98798 -17.7458,25.14482 -33.5677,32.54644 -15.5807,7.28877 -8.9939,6.96204 -138.6974,6.87994 -107.1852,-0.0678 -116.8598,-0.21064 -123.4108,-1.82163 z m 247.9998,-3.45879 c 23.589,-7.13593 40.4289,-22.8809 48.2855,-45.14596 l 2.8229,-8 0.2787,-160 c 0.3129,-179.62391 0.7335,-168.59707 -7.0374,-184.5 -3.3086,-6.77106 -5.8918,-10.24596 -12.6999,-17.08365 -7.0911,-7.12185 -10.1639,-9.38207 -18.044,-13.27202 -16.1917,-7.99299 -9.2509,-7.60743 -137.3,-7.62697 -127.8419,-0.0195 -120.7869,-0.40356 -137.1974,7.46878 -16.2841,7.81173 -29.4073,22.66235 -35.2442,39.88334 l -2.7558,8.13052 0,163 c 0,182.15727 -0.6076,166.39333 6.9953,181.4906 9.6183,19.09946 29.1426,33.22822 51.0797,36.96379 2.7088,0.46126 56.675,0.75657 119.925,0.65624 107.136,-0.16993 115.4029,-0.30428 120.8916,-1.96467 z m -202.2911,-62.15817 c -22.2311,-7.74953 -36.1005,-27.14634 -36.1005,-50.48779 0,-18.70513 8.8704,-35.11494 24.4279,-45.19045 8.6424,-5.59713 17.1263,-7.99661 28.5721,-8.08102 15.7063,-0.11583 28.4984,4.92984 38.92,15.35147 10.1271,10.12708 15.3181,22.97746 15.3181,37.92 0,22.60348 -12.3884,40.97113 -33.5663,49.767 -5.1809,2.15183 -8.0984,2.62252 -18.1718,2.93178 -10.8667,0.33362 -12.6988,0.12481 -19.3995,-2.21099 z m 29.3995,-7.67079 c 15.8808,-3.9713 29.752,-19.50787 32.5249,-36.42994 4.6977,-28.66834 -21.997,-55.13927 -50.9098,-50.483 -21.9532,3.53547 -38.1151,22.23338 -38.1151,44.09594 0,29.3378 27.3919,50.09602 56.5,42.817 z m -25.2779,-6.73221 c -14.5242,-5.38103 -24.0015,-18.16737 -25.0098,-33.74209 -1.1543,-17.82875 9.9365,-34.13231 26.4935,-38.94554 8.3042,-2.41411 21.2011,-1.60824 28.4694,1.77891 7.9327,3.69686 14.217,9.84397 18.0749,17.68032 3.0436,6.1824 3.2499,7.27091 3.2499,17.14361 0,9.8727 -0.2063,10.96121 -3.2499,17.14361 -3.866,7.85298 -10.1636,14.00383 -18.0749,17.65395 -7.7679,3.5839 -22.0924,4.1995 -29.9531,1.28723 z m 8.31,-8.53376 c 1.9074,-0.79694 3.4679,-1.96194 3.4679,-2.5889 0,-0.62695 1.3845,0.0251 3.0767,1.44898 3.8732,3.25907 8.1839,3.34039 14.016,0.26441 7.757,-4.09119 11.4582,-13.19929 7.2523,-17.84678 -1.5526,-1.71559 -1.5271,-1.82874 0.4111,-1.82874 3.4264,0 7.2439,-5.49107 7.2439,-10.41944 0,-8.88888 -7.852,-17.83846 -14.2433,-16.23433 -1.4429,0.36213 -2.9119,1.56757 -3.2646,2.67875 -0.6279,1.97841 3.3427,15.62824 6.1794,21.24299 1.2584,2.49085 1.2197,2.83175 -0.3865,3.40517 -2.4447,0.87272 -15.3698,10.17026 -17.577,12.64382 l -1.7919,2.00824 -1.4549,-2.07715 c -1.9182,-2.73854 -16.9581,-13.24805 -18.959,-13.24805 -1.318,0 -1.2547,-0.42974 0.4047,-2.75 1.0817,-1.5125 3.1922,-6.74815 4.6898,-11.63477 3.1044,-10.12892 2.7025,-11.94205 -2.7513,-12.41387 -11.2214,-0.97078 -17.7571,19.92488 -7.986,25.53273 2.7097,1.55515 2.8059,1.8297 1.6501,4.70867 -1.6656,4.14848 -0.3737,8.32729 3.8356,12.40707 2.8695,2.78126 9.0531,5.94443 11.937,6.10628 0.4302,0.0241 2.3427,-0.60815 4.25,-1.40508 z m 11.4831,-14.80103 c 2.5477,-1.29131 5.2525,-3.6671 6.3483,-5.57587 7.0907,-12.35185 -6.451,-26.76161 -19.0899,-20.31371 -10.8863,5.55376 -11.0337,20.16789 -0.261,25.86466 5.3782,2.84404 7.433,2.84798 13.0026,0.0249 z m -12.9426,-7.38486 c -5.4803,-6.96705 1.0998,-16.11348 9.5791,-13.31507 3.9547,1.30515 5.3483,3.48987 5.3483,8.38419 0,5.03116 -2.8232,7.56574 -8.4274,7.56574 -3.592,0 -4.8185,-0.49721 -6.5,-2.63486 z m 17.9931,-23.40032 c 2.8841,-1.54348 2.4821,-6.07267 -0.8157,-9.19103 -6.0416,-5.71297 -16.5729,-5.6047 -22.408,0.23038 -3.1799,3.17992 -3.617,6.07796 -1.2706,8.4244 1.229,1.22892 3.8588,1.57143 12.0658,1.57143 5.7718,0 11.3647,-0.46583 12.4285,-1.03518 z m 95.6256,69.5344 c -16.9145,-4.64992 -31.6066,-18.77217 -36.7061,-35.28243 -2.5122,-8.1338 -2.7026,-23.41133 -0.3898,-31.28529 5.2296,-17.80436 18.762,-31.19333 36.9046,-36.51356 8.4694,-2.4836 22.9514,-2.26957 31.5721,0.4666 17.0173,5.40114 30.8705,19.94608 35.4751,37.24642 2.1512,8.08209 1.8604,21.328 -0.6477,29.5137 -5.393,17.60054 -19.4416,31.22114 -37.0309,35.9027 -6.6296,1.76454 -22.6798,1.73806 -29.1773,-0.0481 z m 27.8555,-9.05666 c 6.5454,-1.79016 16.0226,-7.95479 20.8018,-13.53102 2.0795,-2.42635 5.2106,-7.33654 6.958,-10.91154 3.006,-6.15029 3.1774,-7.11872 3.1852,-18 0.01,-10.78718 -0.1831,-11.9029 -3.0781,-18 -11.9666,-25.20236 -43.5149,-34.41078 -65.6697,-19.1679 -23.1604,15.93478 -26.7134,47.51706 -7.6172,67.70847 11.4649,12.12246 28.3938,16.55856 45.42,11.90199 z m -26.247,-6.30467 c -9.9596,-3.44138 -17.9531,-10.79155 -22.5307,-20.71755 -1.9032,-4.12702 -2.2691,-6.61667 -2.2691,-15.44137 0,-9.84897 0.2076,-10.94271 3.2499,-17.12258 3.8579,-7.83635 10.1422,-13.98346 18.075,-17.68032 7.2682,-3.38715 20.1651,-4.19302 28.4694,-1.77891 20.0603,5.83171 31.2637,27.94153 24.7011,48.7475 -3.6263,11.49664 -11.8263,19.83843 -23.5526,23.9599 -7.0295,2.47068 -19.0447,2.486 -26.143,0.0333 z m 9.8846,-9.80475 c 3.6812,-3.33149 2.3472,-5.89107 -6.4344,-12.34548 -4.5375,-3.33503 -9.2834,-6.3256 -10.5463,-6.64572 -2.0366,-0.51619 -2.1335,-0.7664 -0.856,-2.21198 0.7922,-0.89648 2.8429,-6.03798 4.5571,-11.42556 3.6946,-11.61175 3.2756,-13.7044 -2.7438,-13.7044 -6.5821,0 -12.161,7.53741 -12.161,16.43024 0,4.66445 2.5871,8.98653 6.0339,10.08051 1.8174,0.57682 1.8567,0.80742 0.4739,2.78161 -2.1136,3.0175 -1.8885,5.38231 0.9777,10.27311 4.5919,7.8355 15.5573,11.42073 20.6989,6.76767 z m 17.0977,1.31973 c 5.139,-2.15139 10.7179,-8.99922 10.7179,-13.15575 0,-3.28028 -2.7241,-7.49712 -4.8432,-7.49712 -1.0083,0 -14.7092,9.42135 -17.9068,12.31353 -2.9638,2.6807 -2.8427,5.07505 0.3849,7.61389 3.0434,2.39399 7.0635,2.64438 11.6472,0.72545 z m -7.6866,-14.55675 c 11.034,-5.01109 11.2815,-20.47277 0.4201,-26.24451 -4.3631,-2.31857 -8.5163,-2.35055 -12.9957,-0.10006 -10.8802,5.46642 -10.7292,21.30033 0.2508,26.28463 5.268,2.39139 7.1707,2.40064 12.3248,0.0599 z m -12.5565,-7.28468 c -2.1996,-2.36096 -2.7152,-7.67948 -1.0467,-10.7971 0.5458,-1.01979 2.4849,-2.34675 4.3091,-2.94879 8.6628,-2.859 15.2153,6.19401 9.626,13.29959 -2.7693,3.52063 -9.7975,3.764 -12.8884,0.4463 z m 33.8263,-1.16804 c 3.1156,-3.31639 3.7656,-8.70299 1.7021,-14.10602 -1.8898,-4.94858 -7.5479,-10.53738 -10.6679,-10.53738 -3.3073,0 -5.8995,1.91029 -5.8995,4.3476 0,2.81155 5.5301,19.38127 7.0996,21.27242 1.742,2.09902 5.2962,1.65205 7.7657,-0.97662 z m -15.7996,-22.67858 c 4.9107,-2.62809 -0.1027,-10.82061 -7.9077,-12.92227 -5.2945,-1.42567 -11.5586,0.0913 -15.408,3.73124 -3.1838,3.01059 -3.6837,7.58299 -1,9.14611 2.3002,1.33971 21.829,1.37579 24.3157,0.0449 z m -148.5657,-138.83141 c -18.6213,-5.35087 -33.704,-21.34798 -37.5374,-39.81333 -1.6757,-8.07217 -0.7682,-22.4732 1.8768,-29.78095 4.4951,-12.41961 13.6243,-22.90763 25.2632,-29.02372 26.5014,-13.92606 59.8009,-3.90675 73.0666,21.98459 4.63,9.0367 6.2208,15.97426 6.0763,26.5 -0.3309,24.11346 -16.3464,44.36329 -39.9487,50.51091 -7.5581,1.96864 -21.257,1.78905 -28.7968,-0.3775 z m 28.409,-9.02797 c 31.9726,-9.95098 42.0414,-49.93766 18.5019,-73.4772 -22.0294,-22.02935 -58.2555,-15.95532 -72.1171,12.09188 -3.3001,6.67731 -3.7526,8.52172 -4.0831,16.64466 -0.7144,17.55496 6.6143,31.21439 21.929,40.87211 9.0386,5.69996 24.5091,7.37313 35.7693,3.86855 z m -24.409,-5.45024 c -11.2637,-3.73307 -19.0622,-10.47331 -23.8981,-20.6552 -2.7858,-5.86529 -3.0848,-7.42765 -3.0628,-16 0.03,-11.60433 2.435,-18.53046 8.9521,-25.77895 18.3639,-20.42512 52.7497,-15.59941 64.1079,8.99692 2.6182,5.66977 2.9009,7.30539 2.9009,16.78203 0,9.39869 -0.2849,11.08007 -2.7161,16.03042 -4.2697,8.69374 -8.984,13.46501 -17.4274,17.63795 -6.6665,3.29476 -8.5342,3.75816 -16.196,4.01838 -5.3019,0.18008 -10.2117,-0.21996 -12.6605,-1.03155 z m 24.7821,-9.00233 c 1.7699,-0.74092 4.9054,-3.21722 6.9679,-5.50288 2.9616,-3.28201 3.75,-4.96355 3.75,-7.99788 0,-5.10889 -2.9068,-7.97125 -6.4537,-6.35515 -4.0208,1.83199 -17.5463,12.19108 -17.5463,13.43857 0,0.63624 -1.4625,-0.22366 -3.25,-1.9109 -5.2538,-4.95908 -15.9991,-12.32463 -17.98,-12.32463 -1.7499,0 -1.7457,-0.12024 0.096,-2.75 1.0592,-1.5125 3.1867,-6.97131 4.7276,-12.13069 l 2.8017,-9.38069 -2.3845,-1.93084 c -5.9039,-4.7807 -16.0109,4.50495 -16.0109,14.70976 0,4.72054 2.4745,9.33216 5.6566,10.54199 2.0984,0.7978 2.3425,1.23661 1.3521,2.43 -2.2267,2.68304 -1.432,8.41585 1.7124,12.35298 5.6457,7.06897 15.2399,9.42165 20.0383,4.91378 2.2571,-2.12044 2.4439,-2.1444 3.3999,-0.43618 1.9851,3.54729 7.7667,4.57504 13.1228,2.33276 z m -6.1173,-15.40287 c 6.7384,-3.96595 9.4023,-14.31094 5.1599,-20.03829 -6.9197,-9.34187 -18.922,-9.44293 -25.1438,-0.21171 -1.9526,2.89693 -2.2841,4.43234 -1.9243,8.91096 0.3854,4.7981 0.9008,5.84577 4.5503,9.25 3.6656,3.4192 4.6772,3.83904 9.2501,3.83904 3.0905,0 6.318,-0.69663 8.1078,-1.75 z m -13.7102,-6.70455 c -6.1217,-6.12167 -0.1872,-15.96346 8.4781,-14.06023 3.8752,0.85113 6.0673,3.94497 6.0673,8.56297 0,7.38446 -9.1864,10.85633 -14.5454,5.49726 z m 33.4531,-0.94716 c 7.1364,-7.59635 0.1238,-25.24547 -9.6951,-24.40039 -5.7881,0.49817 -6.1098,2.36236 -2.3742,13.75909 4.4089,13.45104 7.155,15.87225 12.0693,10.6413 z m -15.842,-22.63347 c 2.8146,-1.5063 2.4884,-6.13799 -0.6535,-9.27988 -5.914,-5.91406 -16.2914,-6.00572 -22.1019,-0.19522 -3.8552,3.85521 -4.209,6.76738 -1.0878,8.95358 2.6174,1.83326 20.655,2.22779 23.8432,0.52152 z m 96.2088,69.49614 c -18.4038,-4.95684 -34.117,-20.79087 -38.1951,-38.48877 -1.5899,-6.90004 -1.3064,-21.84424 0.5321,-28.04069 6.43,-21.6718 24.481,-36.43909 47.1128,-38.54249 25.6933,-2.38794 50.3571,14.62954 56.7445,39.15254 1.9608,7.52811 1.9608,20.38879 0,27.9169 -4.7682,18.30632 -19.7444,33.22136 -38.1131,37.95736 -7.4861,1.93011 -21.002,1.95184 -28.0812,0.0452 z m 27.9545,-9.5213 c 13.6014,-4.46873 24.8411,-15.77552 28.8711,-29.04328 1.704,-5.61 2.052,-8.83183 1.7151,-15.87777 -0.3684,-7.70656 -0.8967,-9.79896 -4.1215,-16.32378 -10.9697,-22.19579 -36.8677,-31.54463 -59.1391,-21.34846 -6.158,2.81924 -15.4876,11.05803 -19.2709,17.01788 -12.6654,19.95168 -6.381,47.73933 13.7127,60.63343 10.9532,7.02863 25.9725,8.97004 38.2326,4.94198 z m -24.729,-5.28446 c -11.3095,-3.74824 -19.3027,-10.45694 -24.0885,-20.21744 -2.6546,-5.41379 -2.9115,-6.86617 -2.9115,-16.45879 0,-9.86491 0.2042,-10.93578 3.2741,-17.17169 14.2857,-29.01843 56.327,-28.40774 70.0522,1.01757 2.3037,4.93878 2.6489,6.97269 2.6604,15.67515 0.012,9.12661 -0.257,10.5677 -3.0812,16.5 -3.9414,8.27874 -10.1656,14.49294 -18.3882,18.3586 -5.355,2.51755 -7.9643,3.09767 -15,3.335 -5.1692,0.17437 -10.0897,-0.23382 -12.5173,-1.0384 z m 24.2685,-9.20293 c 6.6922,-2.7962 11.2315,-8.56759 11.2315,-14.28017 0,-1.60996 -0.6994,-3.50768 -1.5543,-4.21715 -1.3606,-1.12922 -1.169,-1.45192 1.5375,-2.58991 3.0667,-1.28947 6.0232,-6.24856 6.0112,-10.08292 -0.024,-7.61589 -6.5853,-16.28212 -12.3277,-16.28212 -3.7731,0 -5.6667,1.50789 -5.6667,4.51241 0,2.54696 5.5437,19.23283 6.9548,20.93308 0.7227,0.87079 0.1043,1.64935 -2.2272,2.80439 -5.9791,2.96201 -17.2181,12.18341 -17.532,14.38473 -0.3727,2.61346 4.0311,6.36539 7.4714,6.36539 1.3185,0 4.0641,-0.69648 6.1015,-1.54773 z m -16.5972,-1.10726 c 2.4768,-2.24146 2.3018,-5.57161 -0.4213,-8.01669 -4.9879,-4.47873 -15.632,-11.32832 -17.6039,-11.32832 -3.0309,0 -5.4797,4.20455 -4.6498,7.98331 0.805,3.66487 4.7666,8.5959 8.9611,11.15377 3.8536,2.35003 11.2234,2.46177 13.7139,0.20793 z m 13.0218,-16.18405 c 3.6653,-3.41896 4.1596,-4.43114 4.517,-9.25 0.3121,-4.20928 -0.053,-6.13476 -1.6453,-8.6701 -5.7209,-9.11062 -17.3106,-9.67956 -24.4457,-1.20005 -2.0898,2.48361 -2.6178,4.1581 -2.6125,8.28592 0.012,9.10709 5.6034,14.65525 14.7821,14.66668 4.7561,0.006 5.7033,-0.38006 9.4044,-3.83245 z m -16.0188,-4.47541 c -2.5802,-2.74656 -2.8895,-8.21939 -0.6456,-11.42312 2.0742,-2.96123 7.4162,-3.85941 11.2286,-1.88792 3.3389,1.72658 4.2427,3.37817 4.2427,7.75273 0,6.95738 -9.992,10.7035 -14.8257,5.55831 z m -15.2434,-0.61647 c 2.339,-2.33898 8.2786,-20.35954 7.4351,-22.55772 -1.0741,-2.79903 -4.1365,-3.74221 -8.005,-2.46548 -5.2378,1.72861 -9.361,8.65582 -9.361,15.72682 0,4.61425 0.4166,5.79773 2.9231,8.30422 3.4395,3.43947 4.4215,3.57851 7.0078,0.99216 z m 32.8466,-23.62578 c 3.1212,-2.1862 2.7674,-5.09837 -1.0878,-8.95358 -5.728,-5.72804 -15.9075,-5.7243 -22.0929,0.008 -3.4019,3.15284 -3.5856,8.16914 -0.3468,9.47099 4.0053,1.60995 21.0213,1.22986 23.5275,-0.52554 z"
         id="path3724"
         inkscape:connector-curvature="0" />
      <path
         style="fill:#0f1938"
         d="m 1262.5259,-191.88208 c -24.3503,-5.33552 -44.5618,-23.07579 -53.1848,-46.682 l -2.6792,-7.3346 -0.2794,-163.5 c -0.2473,-144.74518 -0.1014,-164.30792 1.2722,-170.54327 5.7578,-26.13679 26.8111,-46.46311 55.5072,-53.59064 4.4911,-1.1155 26.8707,-1.36609 122,-1.36609 l 116.5,0 8,2.31315 c 26.1487,7.56075 44.613,25.57674 51.4317,50.18308 2.0521,7.4052 2.0682,8.73061 2.0535,169.48367 -0.016,180.90971 0.5004,167.79847 -7.2349,183.5201 -3.3364,6.78118 -5.9078,10.21882 -12.7162,17 -9.7531,9.71412 -16.3342,13.91475 -28.7729,18.36526 l -8.7612,3.13474 -118.5,0.18055 c -96.0532,0.14635 -119.6623,-0.0741 -124.636,-1.16395 z m 246.136,-3.7931 c 19.4135,-5.64084 36.4325,-19.37856 44.3024,-35.76097 7.6234,-15.86909 7.1997,-5.14702 7.1802,-181.67037 -0.019,-174.44507 0.3305,-164.78338 -6.4819,-179.12821 -8.3719,-17.62882 -23.2717,-30.36746 -42.5007,-36.336 l -7.5,-2.32795 -119.5,0 -119.5,0 -8,2.80665 c -19.3086,6.77406 -32.705,18.56613 -41.1498,36.22173 -6.6206,13.84174 -6.3502,6.19302 -6.3502,179.60175 0,175.80416 -0.4297,165.12444 7.2781,180.86987 7.0568,14.41534 22.2541,27.92111 37.7698,33.56582 11.675,4.24742 13.0945,4.29094 133.4521,4.09156 106.0539,-0.17569 115.4668,-0.32613 121,-1.93388 z m -199.3877,-61.30405 c -17.73,-4.76819 -32.9144,-20.16936 -37.5281,-38.06379 -8.6893,-33.70177 17.097,-66.78605 51.9158,-66.60884 14.5606,0.0741 25.8917,4.39136 36.3387,13.84537 11.3982,10.3147 17.3135,23.37086 17.353,38.30127 0.013,4.7336 -0.5025,10.85629 -1.1446,13.60598 -4.083,17.48547 -18.9214,32.98106 -36.9024,38.53688 -7.6711,2.37022 -21.9655,2.55258 -30.0324,0.38313 z m 29.8877,-9.54924 c 25.0049,-8.58892 36.609,-37.55166 24.7887,-61.87021 -8.3109,-17.09833 -28.1132,-27.22127 -47.1121,-24.08367 -15.0602,2.48714 -26.9434,11.36927 -33.5588,25.08367 -3.5154,7.28781 -3.6178,7.82682 -3.6178,19.05186 0,11.31555 0.076,11.70576 3.718,19.07464 10.2266,20.69226 33.7875,30.2986 55.782,22.74371 z m -26.714,-5.27408 c -10.3729,-3.3572 -19.4419,-11.41291 -24.1153,-21.42098 -2.2825,-4.88809 -2.6501,-6.99267 -2.6501,-15.17515 0,-8.19986 0.3654,-10.28255 2.6698,-15.21807 3.5372,-7.57608 10.883,-15.26005 18.2934,-19.13553 5.6851,-2.97322 6.6216,-3.1464 17.0162,-3.1464 10.0678,0 11.4916,0.2414 16.8008,2.84839 7.4017,3.63451 14.7239,10.95668 18.3541,18.35416 2.5781,5.25329 2.8451,6.78299 2.8451,16.29745 0,9.6133 -0.2459,10.98555 -2.9121,16.24966 -3.9508,7.8005 -10.7503,14.44306 -18.5879,18.15887 -5.449,2.58336 -7.8744,3.11964 -15,3.31655 -5.0991,0.14092 -10.186,-0.31079 -12.714,-1.12895 z m 8.7777,-10.44637 c 1.5284,-1.86801 1.6153,-1.85743 3.8549,0.46958 4.4101,4.58205 14.1183,2.51944 20.0753,-4.26519 2.3659,-2.69456 3.0061,-4.35953 3.0061,-7.81752 0,-2.66101 -0.6197,-5.0135 -1.5714,-5.9652 -1.4286,-1.42857 -1.3363,-1.57143 1.0147,-1.57143 1.8445,0 3.1543,-0.93196 4.5677,-3.25 5.2848,-8.66784 -1.3486,-23.75 -10.4459,-23.75 -3.6776,0 -5.5651,1.53041 -5.5651,4.51241 0,2.62038 5.5624,19.25537 7.0298,21.02351 0.8085,0.97416 0.5822,1.45244 -0.9114,1.9265 -1.0928,0.34684 -5.9326,3.57226 -10.755,7.16759 -7.1717,5.34679 -8.9589,6.27814 -9.8158,5.11536 -1.6361,-2.22019 -16.6843,-12.74537 -18.2225,-12.74537 -1.1627,0 -1.159,-0.427 0.024,-2.75 0.7705,-1.5125 2.6807,-6.70574 4.245,-11.54053 3.2795,-10.13564 2.8423,-12.02671 -2.8935,-12.51672 -4.6914,-0.40079 -8.0788,1.89078 -10.6518,7.20581 -3.7045,7.65255 -2.2803,16.44619 3.0455,18.80361 2.0717,0.91704 2.5206,1.55659 1.7468,2.48895 -1.5437,1.86 -1.2626,7.59375 0.5435,11.08632 4.0808,7.89134 17.265,11.76674 21.6788,6.37232 z m 10.7879,-13.88831 c 4.7182,-3.52259 6.533,-6.9288 6.533,-12.26145 0,-14.63251 -18.9661,-20.29977 -27.1147,-8.10212 -3.8805,5.80875 -2.7314,14.65955 2.5203,19.41223 4.4163,3.99667 13.3521,4.46735 18.0614,0.95134 z m -14.397,-6.716 c -5.0881,-5.08801 -1.348,-13.94545 5.8885,-13.94545 7.4466,0 11.215,7.8782 6.5843,13.76514 -2.8403,3.61083 -8.954,3.69921 -12.4728,0.18031 z m 18.3454,-23.74545 c 2.9491,-2.94911 0.8278,-8.90345 -4.0796,-11.45115 -6.6991,-3.47786 -17.3583,-1.69989 -21.4386,3.57601 -1.8111,2.34175 -1.5488,6.82023 0.4682,7.99504 2.5388,1.47869 23.552,1.37811 25.05,-0.1199 z m 93.1422,68.91272 c -13.972,-4.76322 -25.0422,-14.04141 -31.1501,-26.10755 -4.309,-8.51248 -5.7684,-14.73741 -5.7684,-24.60517 0,-15.5608 4.5343,-26.55114 15.4763,-37.51215 11.1513,-11.17063 22.3608,-15.73774 38.5,-15.6861 40.2245,0.12872 65.6321,42.8837 46.7188,78.61664 -6.3801,12.054 -19.761,22.53429 -33.2603,26.05042 -8.8493,2.30493 -22.5318,1.96593 -30.5163,-0.75609 z m 32.0578,-8.99402 c 11.0752,-4.0542 20.1122,-12.46262 25.2986,-23.53909 5.6962,-12.16508 4.8447,-29.25348 -2.0434,-41.00713 -3.8223,-6.52226 -11.8258,-13.8657 -18.668,-17.12836 -32.9462,-15.71032 -69.5947,10.59278 -64.5354,46.3179 3.9818,28.1164 32.9899,45.22503 59.9482,35.35668 z m -27.0547,-5.11208 c -11.2095,-4.30978 -19.0912,-11.3451 -23.6458,-21.10662 -2.4794,-5.31403 -2.7995,-7.14328 -2.7993,-16 2e-4,-8.96446 0.2948,-10.60035 2.8451,-15.79745 3.63,-7.39749 10.9595,-14.72707 18.3573,-18.35748 5.3041,-2.60297 6.7334,-2.84507 16.7974,-2.84507 10.1721,0 11.4339,0.21976 16.7657,2.91993 7.1903,3.64145 15.006,11.78976 18.5384,19.32743 2.3413,4.99605 2.6935,7.00208 2.6778,15.25264 -0.015,8.16588 -0.3919,10.30301 -2.68,15.21807 -3.6942,7.93532 -10.7381,15.1329 -18.5952,19.00092 -5.6451,2.77909 -7.7042,3.23801 -15.605,3.47793 -5.9208,0.17979 -10.344,-0.20125 -12.6564,-1.0903 z m 6.652,-9.08281 c 3.1479,-1.31531 3.4986,-1.83177 3.2178,-4.73904 -0.2697,-2.79286 -1.5278,-4.16469 -8.7345,-9.52381 -4.6307,-3.44353 -9.2753,-6.26096 -10.3214,-6.26096 -1.6856,0 -1.7324,-0.16968 -0.4111,-1.49097 0.8201,-0.82003 2.8913,-5.99827 4.6028,-11.50718 3.6871,-11.86788 3.2659,-14.00185 -2.7636,-14.00185 -2.0582,0 -4.7484,0.70474 -5.9782,1.56608 -6.222,4.3581 -8.4907,18.24322 -3.7545,22.97937 1.35,1.35 3.1603,2.45455 4.023,2.45455 1.4069,0 1.4,0.25718 -0.067,2.49559 -3.5646,5.44035 1.841,15.08582 10.0891,18.00226 5.1087,1.8064 5.8316,1.80826 10.0972,0.026 z m 20.8731,-0.80549 c 7.3187,-4.14514 10.9559,-13.3798 6.9942,-17.75749 -1.4075,-1.55526 -1.2788,-1.74798 1.5442,-2.3126 7.5391,-1.50781 7.842,-15.99747 0.4881,-23.35131 -5.2874,-5.28746 -12.5538,-4.32301 -12.4546,1.65308 0.036,2.16836 4.1375,15.20294 6.3167,20.07447 0.4981,1.1136 -1.1132,2.70466 -5.9785,5.90341 -9.5558,6.28258 -13.3805,9.88962 -13.3805,12.61901 0,5.41575 9.3344,7.21312 16.4704,3.17143 z m -7.7376,-14.27889 c 5.7169,-3.74586 8.0316,-13.12671 4.7872,-19.40079 -4.7885,-9.2599 -17.3588,-10.54203 -24.4273,-2.49149 -2.708,3.0843 -3.0927,4.25488 -3.0927,9.41092 0,4.93863 0.4356,6.40615 2.7004,9.09775 1.4853,1.7651 4.0728,3.83135 5.75,4.59168 3.6332,1.64697 10.8577,1.0359 14.2824,-1.20807 z m -14.6602,-7.07429 c -6.7095,-8.52971 5.4898,-19.22546 12.557,-11.00938 5.0345,5.85295 1.3162,13.64424 -6.5116,13.64424 -3.1009,0 -4.4277,-0.57831 -6.0454,-2.63486 z m 18.7274,-23.56514 c 1.5368,-1.53679 1.4921,-5.84008 -0.082,-7.87514 -2.7295,-3.5293 -6.8591,-5.25821 -12.547,-5.25303 -8.8301,0.008 -14.1712,3.61207 -14.1712,9.56243 0,4.20434 1.6492,4.76574 14,4.76574 7.6889,0 12.0046,-0.4046 12.8,-1.2 z M 1310.3677,-464.9553 c -9.7265,-2.61802 -16.3756,-6.56562 -24.2856,-14.4184 -11.1448,-11.06421 -15.8848,-22.10788 -15.9083,-37.06488 -0.024,-14.88195 5.3013,-27.56968 15.9806,-38.07802 20.8084,-20.47544 52.9261,-20.8864 74.4014,-0.95199 22.2003,20.6073 22.6324,54.99611 0.9642,76.73019 -6.7599,6.78048 -16.973,12.34153 -26.1573,14.24275 -7.167,1.4836 -18.5533,1.27421 -24.995,-0.45965 z m 32.0818,-11.1847 c 4.0083,-1.88308 9.1809,-5.47161 12.6325,-8.76386 25.9535,-24.75544 12.7733,-68.57629 -22.7201,-75.53886 -22.2531,-4.36529 -44.8677,8.97033 -51.3384,30.27389 -3.1014,10.2107 -2.3403,23.0131 1.9079,32.09128 5.2933,11.3116 14.1286,19.2428 26.0867,23.41748 5.5819,1.94869 8.2421,2.2706 16.6438,2.01413 8.7985,-0.26859 10.8156,-0.68842 16.7876,-3.49406 z m -30.7876,-4.25216 c -21.8424,-7.3233 -32.3964,-31.67216 -22.705,-52.38224 13.8581,-29.61399 55.9702,-29.38826 70.0949,0.37572 2.2728,4.7892 2.6101,6.79236 2.6101,15.5 0,8.75678 -0.3332,10.71088 -2.6801,15.71807 -3.6836,7.85935 -10.7768,15.14309 -18.403,18.89745 -8.4277,4.14894 -19.9375,4.90161 -28.9169,1.891 z m 27.53,-9.25652 c 5.6719,-2.86535 8.97,-7.71794 8.97,-13.19788 0,-2.28367 -0.4829,-4.63507 -1.0732,-5.22534 -0.7643,-0.76428 -0.3378,-1.2578 1.4818,-1.71448 4.9843,-1.25097 7.2259,-10.7646 4.2274,-17.94111 -0.7502,-1.79552 -2.8098,-4.48106 -4.5767,-5.96788 -4.9472,-4.16273 -12.0593,-3.37852 -12.0593,1.32971 0,2.41314 5.7953,20.01542 7.1122,21.60223 0.8648,1.04199 0.803,1.36475 -0.2612,1.36475 -1.4048,0 -13.4514,8.37923 -17.5718,12.22236 -2.2164,2.06734 -2.2242,2.06749 -4,0.0789 -3.3433,-3.74417 -16.0197,-12.30126 -18.2229,-12.30126 -1.9439,0 -2.027,-0.17218 -0.7157,-1.48345 2.0562,-2.05622 7.9755,-20.19962 7.3592,-22.55666 -0.4201,-1.6064 -0.1994,-1.76248 1.3326,-0.94254 2.4397,1.30568 21.5737,1.26385 24.0333,-0.0525 2.9679,-1.58836 2.5193,-6.53366 -0.9031,-9.95609 -7.1389,-7.13894 -25.1626,-3.2832 -25.1626,5.38291 0,2.23368 -0.3258,2.43397 -3.25,1.99765 -7.0586,-1.05324 -13.6818,7.0163 -13.728,16.72582 -0.024,4.94717 2.4419,9.26255 5.9231,10.36745 1.7139,0.54395 1.762,0.85346 0.508,3.27051 -2.5248,4.86656 0.9539,12.42127 7.3837,16.03499 5.0051,2.81304 12.3782,2.99689 15.0011,0.37406 1.7838,-1.7838 1.9177,-1.7691 4.5557,0.5 3.458,2.97445 7.8663,3.00285 13.6364,0.0879 z m -7.3343,-14.706 c 4.5645,-2.78317 6.5243,-6.30619 6.6084,-11.87972 0.2165,-14.35358 -16.2177,-20.47506 -26.2212,-9.76698 -3.1974,3.42263 -4.0386,11.8538 -1.6446,16.48335 3.5221,6.81094 14.2726,9.42222 21.2574,5.16335 z m -13.6703,-6.01856 c -4.3862,-4.38621 -3.4293,-10.81885 2.0685,-13.90464 5.1522,-2.89188 11.9061,1.42682 11.9061,7.61322 0,6.98036 -9.1612,11.10478 -13.9746,6.29142 z m 114.2019,45.58891 c -13.6264,-3.45832 -27.6549,-14.27076 -33.8819,-26.11435 -4.72,-8.97737 -6.3454,-15.65669 -6.3454,-26.07617 0,-11.20805 2.3319,-19.54923 7.8267,-27.99596 19.0453,-29.2769 58.9327,-33.76326 83.4031,-9.38081 11.3604,11.31964 16.4113,24.6178 15.5363,40.90427 -1.1567,21.52799 -14.8952,39.85478 -35.3468,47.1519 -7.4886,2.67193 -23.552,3.45013 -31.192,1.51112 z m 33.0462,-11.90497 c 9.2028,-4.54825 16.6264,-12.13553 20.9882,-21.45085 2.6569,-5.67431 3.2293,-8.23234 3.568,-15.94557 0.5347,-12.17831 -1.9683,-20.75395 -8.5985,-29.45968 -23.9415,-31.43605 -74.6379,-18.53238 -80.1281,20.39483 -3.1281,22.17953 9.5632,42.15264 31.3969,49.41118 2.6296,0.8742 7.6655,1.22111 14.6989,1.01259 9.9777,-0.29582 11.196,-0.56291 18.0746,-3.9625 z m -30.3441,-3.07675 c -10.2924,-2.7751 -19.9215,-11.11689 -24.769,-21.45748 -2.3248,-4.95932 -2.6604,-6.93649 -2.6604,-15.67515 0,-9.04097 0.2819,-10.57419 2.9396,-15.98724 7.5396,-15.3561 24.7705,-24.45092 40.9312,-21.60427 13.0039,2.29059 23.3854,10.13384 28.9436,21.86674 2.9071,6.13695 3.1804,7.55518 3.1264,16.22477 -0.05,8.01397 -0.4629,10.37989 -2.6397,15.12504 -7.9053,17.23224 -27.5564,26.44593 -45.8717,21.50759 z m 25.7915,-9.73956 c 7.7141,-3.73433 12.0317,-13.9976 7.7077,-18.32164 -1.4286,-1.42857 -1.399,-1.57143 0.3257,-1.57143 2.9384,0 6.3514,-4.36882 6.9604,-8.90982 1.1416,-8.51116 -5.261,-18.09018 -12.0914,-18.09018 -3.7127,0 -5.6288,1.51977 -5.6105,4.45 0.018,2.8317 4.7811,17.55114 6.5695,20.3 1.2004,1.84515 1.2192,2.25 0.1046,2.25 -1.77,0 -17.7868,11.42713 -18.9632,13.52923 -1.335,2.3855 -0.088,5.99125 2.5046,7.24058 3.5507,1.71124 7.7562,1.4161 12.4926,-0.87674 z m -18.6552,0.0718 c 1.9566,-1.0471 2.6258,-5.38011 1.169,-7.5684 -1.5361,-2.30748 -16.6242,-12.39647 -18.5389,-12.39647 -1.8364,0 -1.8744,-0.14776 -0.4496,-1.75 0.8559,-0.9625 3.0316,-6.42783 4.8348,-12.14518 l 3.2787,-10.39517 -2.2907,-1.85483 c -3.0038,-2.43233 -5.0472,-2.33984 -9.1711,0.41511 -4.3759,2.92332 -6.8944,8.01145 -6.8963,13.93302 0,5.85539 1.4867,9.24289 4.7067,10.71002 1.8708,0.85237 2.288,1.56182 1.6823,2.86027 -2.706,5.80018 1.0293,14.21394 7.789,17.545 3.7656,1.85558 10.9979,2.19234 13.8861,0.64658 z m 11.6358,-14.92434 c 4.2496,-2.59119 6.2985,-6.82973 6.2985,-13.02959 0,-4.51405 -0.4306,-5.55007 -3.8154,-9.17872 -3.2679,-3.50329 -4.5393,-4.15989 -8.8593,-4.57498 -9.7641,-0.93821 -16.3143,4.69733 -16.3216,14.04242 -0.01,9.26385 5.3492,14.69286 14.4963,14.69286 3.199,0 6.1532,-0.70312 8.2015,-1.95204 z m -14.2469,-6.49503 c -3.614,-3.61398 -3.354,-8.61085 0.6221,-11.95656 4.0319,-3.39261 7.375,-3.29105 11.0002,0.33419 5.639,5.63896 2.2961,14.07687 -5.5769,14.07687 -2.4792,0 -4.3508,-0.75988 -6.0454,-2.45455 z m 17.6111,-23.58063 c 2.7627,-1.47852 2.5284,-6.46165 -0.4435,-9.43352 -5.5323,-5.53233 -17.5005,-5.80682 -22.7848,-0.52257 -3.3068,3.30685 -3.8546,8.29943 -1.0874,9.91117 2.3002,1.33971 21.829,1.37579 24.3157,0.0449 z"
         id="path3722"
         inkscape:connector-curvature="0" />
      <path
         style="fill:#000000"
         d="m 1262.5259,-191.88208 c -24.3503,-5.33552 -44.5618,-23.07579 -53.1848,-46.682 l -2.6792,-7.3346 -0.2794,-163.5 c -0.2473,-144.74518 -0.1014,-164.30792 1.2722,-170.54327 5.7578,-26.13679 26.8111,-46.46311 55.5072,-53.59064 4.4911,-1.1155 26.8707,-1.36609 122,-1.36609 l 116.5,0 8,2.31315 c 26.1487,7.56075 44.613,25.57674 51.4317,50.18308 2.0521,7.4052 2.0682,8.73061 2.0535,169.48367 -0.016,180.90971 0.5004,167.79847 -7.2349,183.5201 -3.3364,6.78118 -5.9078,10.21882 -12.7162,17 -9.7531,9.71412 -16.3342,13.91475 -28.7729,18.36526 l -8.7612,3.13474 -118.5,0.18055 c -96.0532,0.14635 -119.6623,-0.0741 -124.636,-1.16395 z m 246.136,-3.7931 c 19.4135,-5.64084 36.4325,-19.37856 44.3024,-35.76097 7.6234,-15.86909 7.1997,-5.14702 7.1802,-181.67037 -0.019,-174.44507 0.3305,-164.78338 -6.4819,-179.12821 -8.3719,-17.62882 -23.2717,-30.36746 -42.5007,-36.336 l -7.5,-2.32795 -119.5,0 -119.5,0 -8,2.80665 c -19.3086,6.77406 -32.705,18.56613 -41.1498,36.22173 -6.6206,13.84174 -6.3502,6.19302 -6.3502,179.60175 0,175.80416 -0.4297,165.12444 7.2781,180.86987 7.0568,14.41534 22.2541,27.92111 37.7698,33.56582 11.675,4.24742 13.0945,4.29094 133.4521,4.09156 106.0539,-0.17569 115.4668,-0.32613 121,-1.93388 z"
         id="path3720"
         inkscape:connector-curvature="0" />
    </g>
  </g>
</svg>
