<?xml version="1.0" encoding="UTF-8" standalone="no"?>
<!-- Created with Inkscape (http://www.inkscape.org/) -->

<svg
   xmlns:dc="http://purl.org/dc/elements/1.1/"
   xmlns:cc="http://creativecommons.org/ns#"
   xmlns:rdf="http://www.w3.org/1999/02/22-rdf-syntax-ns#"
   xmlns:svg="http://www.w3.org/2000/svg"
   xmlns="http://www.w3.org/2000/svg"
   xmlns:sodipodi="http://sodipodi.sourceforge.net/DTD/sodipodi-0.dtd"
   xmlns:inkscape="http://www.inkscape.org/namespaces/inkscape"
   sodipodi:docname="char5dora.svg"
   inkscape:version="0.48.5 r10040"
   version="1.1"
   id="svg2"
   height="445.77139"
   width="358.79144">
  <defs
     id="defs4" />
  <sodipodi:namedview
     id="base"
     pagecolor="#ffffff"
     bordercolor="#666666"
     borderopacity="1.0"
     inkscape:pageopacity="0.0"
     inkscape:pageshadow="2"
     inkscape:zoom="0.56054688"
     inkscape:cx="-2.2068746"
     inkscape:cy="402.75011"
     inkscape:document-units="px"
     inkscape:current-layer="layer1"
     showgrid="false"
     fit-margin-top="0"
     fit-margin-left="0"
     fit-margin-right="0"
     fit-margin-bottom="0"
     inkscape:window-width="958"
     inkscape:window-height="1078"
     inkscape:window-x="1920"
     inkscape:window-y="0"
     inkscape:window-maximized="0" />
  <metadata
     id="metadata7">
    <rdf:RDF>
      <cc:Work
         rdf:about="">
        <dc:format>image/svg+xml</dc:format>
        <dc:type
           rdf:resource="http://purl.org/dc/dcmitype/StillImage" />
        <dc:title></dc:title>
      </cc:Work>
    </rdf:RDF>
  </metadata>
  <g
     inkscape:label="Layer 1"
     inkscape:groupmode="layer"
     id="layer1"
     transform="translate(-1013.6167,1367.7555)">
    <g
       id="g5000"
       transform="translate(528.05575,640.44599)">
      <path
         style="fill:#edc5c7"
         d="m 545.98038,-1562.9974 c -18.64207,-3.875 -34.84327,-13.2664 -45.0435,-26.1105 -2.50793,-3.158 -6.29919,-9.3418 -8.42502,-13.7418 -7.56018,-15.6479 -7.12641,-3.8363 -6.81238,-185.5 l 0.2809,-162.5 2.81594,-8 c 6.24617,-17.7452 19.28853,-32.6852 35.71018,-40.9059 17.08332,-8.5519 9.10946,-8.0941 140.97388,-8.0941 130.84068,0 121.77588,-0.4925 138.5,7.5249 18.79398,9.0097 32.78464,25.8305 38.2398,45.9751 1.64648,6.0801 1.7602,17.0307 1.7602,169.5 0,155.184 -0.0881,163.3109 -1.83773,169.4829 -7.27068,25.6486 -26.60449,44.2254 -53.07223,50.9942 -7.73126,1.9772 -10.54402,2.0203 -124.5,1.9069 -64.12452,-0.064 -117.49004,-0.3031 -118.59004,-0.5317 z m 244,-6.2171 c 20.22549,-6.8327 34.64401,-18.775 42.91915,-35.5481 6.95708,-14.1015 6.5497,-2.9228 6.56607,-180.1771 0.0145,-156.9312 -0.0248,-160.2446 -1.98856,-167.9231 -4.89986,-19.1582 -18.6427,-35.2921 -37.49666,-44.0204 -14.51351,-6.7189 -9.26147,-6.4684 -135.19741,-6.4491 -127.99297,0.02 -121.06987,-0.3636 -137.30259,7.598 -12.51335,6.1374 -24.61056,17.9044 -30.20919,29.3846 -7.89735,16.1939 -7.29081,1.1361 -7.29081,181 0,131.1409 0.24629,161.5061 1.34643,166 0.74054,3.025 3.35654,9.7004 5.81333,14.8343 9.15747,19.1361 28.53463,33.338 50.57779,37.0694 2.90368,0.4915 56.80866,0.8248 120.26245,0.7435 l 115,-0.1472 7,-2.3648 z m -198.38767,-59.7157 c -13.90157,-3.7387 -27.03324,-14.5873 -33.34009,-27.5438 -15.20735,-31.2412 0.43186,-66.6939 33.72776,-76.4578 8.72729,-2.5592 23.0828,-2.3166 31.5,0.5324 16.94683,5.7361 29.87165,18.599 35.14587,34.9776 3.19046,9.9076 2.99432,24.1453 -0.4686,34.0157 -5.96372,16.9984 -18.92651,29.1947 -36.60877,34.444 -6.79366,2.0168 -22.51322,2.0335 -29.95617,0.032 z m 29.88767,-10.5543 c 19.59058,-6.7113 32.33639,-27.6288 29.09593,-47.7501 -3.10564,-19.2843 -17.701,-33.8437 -37.22922,-37.1376 -19.04585,-3.2125 -38.45898,7.383 -47.15165,25.7349 -3.0167,6.3688 -3.21506,7.4695 -3.21506,17.8395 0,10.7385 0.10541,11.2651 3.71796,18.5746 10.15792,20.5532 33.21948,30.1254 54.78204,22.7387 z m -26.71396,-4.316 c -23.16122,-7.2384 -34.03447,-34.2238 -22.49296,-55.8233 3.36146,-6.2908 10.89698,-13.2219 17.98885,-16.5458 5.11578,-2.3978 6.87671,-2.6801 16.71807,-2.6801 10.14752,0 11.464,0.2278 16.98724,2.9396 7.60758,3.7352 14.33238,10.4484 18.02325,17.9923 3.66891,7.499 4.61367,20.1893 2.13722,28.708 -3.24102,11.1487 -13.30844,21.27 -25.07585,25.21 -5.90815,1.9782 -18.2692,2.0797 -24.28582,0.1993 z m 9.06518,-11.456 c 1.18047,-1.1804 1.6294,-2.5789 1.23094,-3.8344 -0.72601,-2.2874 -17.14985,-14.2588 -19.56202,-14.2588 -2.54609,0 -4.02014,2.1082 -4.02014,5.7497 0,10.8987 15.32997,19.3648 22.35122,12.3435 z m 16.9309,1.53 c 6.83757,-2.9256 11.32866,-10.4004 9.48895,-15.793 -1.80361,-5.2868 -3.76665,-4.8059 -15.34994,3.7603 -8.61186,6.3688 -9.51629,8.0707 -5.92879,11.1566 2.98865,2.5707 7.11289,2.8772 11.78978,0.8761 z m -6.36736,-15.4089 c 4.4348,-3.311 6.41857,-6.8772 6.41857,-11.5383 0,-15.0104 -19.97084,-19.9466 -26.85331,-6.6374 -3.994,7.7236 0.56512,17.9702 9.01998,20.2725 3.25845,0.8872 8.77529,-0.1261 11.41476,-2.0968 z m -13.65233,-4.743 c -2.62951,-1.8418 -3.92785,-7.7155 -2.43143,-10.9997 1.46634,-3.2183 6.68259,-5.8085 10.0267,-4.9789 4.57616,1.1353 7.1423,4.3715 7.1423,9.0073 0,5.4834 -3.0492,8.5 -8.59194,8.5 -2.17968,0 -4.94521,-0.6879 -6.14563,-1.5287 z m -14.53088,-3.5885 c 0.68766,-1.4395 2.44916,-6.4843 3.91444,-11.2107 3.02899,-9.7703 2.52024,-11.6721 -3.12241,-11.6721 -9.07288,0 -15.10558,15.5896 -8.8908,22.9754 3.14852,3.7418 6.28413,3.706 8.09877,-0.093 z m 47.65621,1.2412 c 4.31477,-4.7677 3.19944,-14.3713 -2.34606,-20.2008 -3.21148,-3.376 -4.41258,-4.009 -7.10255,-3.7431 -5.21197,0.515 -5.57512,2.3555 -2.44779,12.4056 1.52564,4.9029 3.39958,9.9268 4.16432,11.1643 1.70144,2.7533 5.41625,2.933 7.73208,0.374 z m -15.03281,-24.3212 c 1.6278,-2.5863 -0.35094,-6.8963 -4.19744,-9.1428 -8.31158,-4.8542 -22.01682,-0.4933 -22.12571,7.0403 -0.0509,3.5216 2.68459,4.2904 14.36155,4.0365 8.99055,-0.1954 11.07994,-0.5333 11.9616,-1.934 z m 89.33637,71.6964 c -8.35469,-2.2967 -15.71997,-6.5616 -22.69494,-13.1414 -30.38122,-28.6601 -17.90174,-79.0912 22.50362,-90.9399 8.46938,-2.4836 22.95135,-2.2695 31.57213,0.4666 24.99905,7.9345 41.12974,33.8267 37.12438,59.5902 -3.25282,20.923 -19.10791,38.6909 -39.32793,44.0727 -6.62962,1.7645 -22.67982,1.738 -29.17726,-0.048 z m 26.79193,-9.7019 c 10.90173,-2.737 22.73392,-12.522 27.76424,-22.9604 13.01654,-27.0107 -3.67595,-58.3025 -33.5838,-62.9564 -17.53891,-2.7292 -37.70152,7.5124 -45.71551,23.2211 -17.48066,34.2649 13.69767,72.1954 51.53507,62.6957 z m -25.18341,-5.6035 c -32.24689,-11.4892 -35.07809,-56.3625 -4.50569,-71.4132 6.30897,-3.1059 7.25063,-3.2806 17.68482,-3.2806 9.84417,0 11.62704,0.2841 16.69618,2.6604 11.53466,5.4072 19.59111,16.0911 21.83036,28.9498 2.91913,16.7629 -6.0195,33.9528 -21.52732,41.3992 -7.89664,3.7917 -22.04696,4.5816 -30.17835,1.6844 z m 9.88454,-10.8607 c 3.30573,-2.9916 2.14366,-5.0406 -6.43438,-11.3454 -9.55396,-7.0221 -12.45108,-8.117 -14.40559,-5.444 -2.39041,3.269 -1.63941,8.0507 1.89701,12.0785 5.99424,6.827 14.31746,8.897 18.94296,4.7109 z m 20.31352,-0.4615 c 7.08291,-4.8316 9.49869,-14.1975 4.36999,-16.9423 -1.82158,-0.9749 -3.14674,-0.4131 -9.73819,4.1283 -10.27357,7.0784 -11.1297,7.8892 -11.1297,10.5407 0,5.6469 9.61095,6.9713 16.4979,2.2733 z m -10.80657,-12.8184 c 3.0335,-1.3772 4.79001,-3.0764 6.35849,-6.1509 6.99915,-13.7194 -9.19117,-26.8965 -21.50606,-17.5035 -8.33465,6.3572 -6.74012,19.3359 2.91433,23.7213 5.09166,2.3128 7.01479,2.3023 12.23324,-0.067 z m -12.58951,-5.9514 c -2.80314,-2.8031 -3.51125,-7.4094 -1.68264,-10.9455 3.46897,-6.7083 14.15741,-5.9993 16.49851,1.0943 1.27586,3.8659 0.72393,6.2055 -2.24102,9.4994 -2.65267,2.947 -9.78028,3.1464 -12.57485,0.3518 z m -14.73927,-2.3518 c 2.2256,-3.5549 6.81708,-18.4602 6.46055,-20.9729 -0.26763,-1.8862 -1.0274,-2.3286 -4.42536,-2.5774 -3.61932,-0.2649 -4.46753,0.1157 -7.20489,3.2334 -5.96981,6.7993 -6.68574,16.4608 -1.52081,20.5236 3.34184,2.6287 4.94641,2.5791 6.69051,-0.2067 z m 48.56487,-0.3849 c 2.44737,-3.1113 2.76819,-9.7645 0.70855,-14.6939 -1.71644,-4.108 -7.05322,-8.6712 -10.14127,-8.6712 -1.98172,0 -5.4947,2.2503 -5.4947,3.5198 0,1.2075 5.46027,17.4337 6.63939,19.7302 1.84716,3.5976 5.50872,3.6485 8.28803,0.1151 z m -15.4649,-22.9705 c 3.28412,-3.2841 -1.29222,-9.4638 -8.43213,-11.3864 -5.52116,-1.4867 -12.30631,0.3426 -15.54435,4.1907 -2.88776,3.432 -3.09266,5.0516 -0.91461,7.2297 2.30685,2.3068 22.57793,2.2792 24.89109,-0.034 z m -85.18801,-31.9336 c -9.02367,-2.4305 -17.36172,-7.3409 -24.35895,-14.3455 -26.08851,-26.1161 -18.67145,-70.0278 14.58444,-86.3455 7.82335,-3.8387 14.25991,-5.2454 24,-5.2454 9.74009,0 16.17665,1.4067 24,5.2454 21.57967,10.5885 33.64862,34.187 29.56863,57.8157 -3.5149,20.3561 -19.54451,37.6567 -39.77182,42.9252 -7.09037,1.8468 -21.07253,1.8219 -28.0223,-0.05 z m 27.87015,-10.436 c 15.80516,-4.9117 27.16578,-18.1351 30.05486,-34.983 4.96725,-28.9667 -21.91386,-55.4786 -50.86323,-50.1646 -24.38255,4.4757 -40.55308,26.7377 -36.51717,50.2733 4.60778,26.8706 31.14029,43.0117 57.32554,34.8743 z m -24.64466,-4.3698 c -15.46627,-5.1259 -24.87716,-15.8748 -27.64223,-31.5724 -4.49466,-25.5166 19.33846,-48.742 45.22724,-44.074 37.57513,6.7753 44.54416,57.167 10.133,73.2699 -5.55563,2.5999 -8.12064,3.1761 -15.20071,3.4149 -5.16923,0.1744 -10.08966,-0.2338 -12.5173,-1.0384 z m 24.1849,-9.7188 c 5.36666,-2.0277 11.3151,-9.2698 11.3151,-13.776 0,-1.0663 -0.84714,-2.985 -1.88253,-4.2637 -2.34815,-2.8998 -3.86346,-2.3175 -14.56714,5.5983 -5.75806,4.2583 -7.55033,6.1544 -7.55033,7.9877 0,4.6022 6.37126,6.8391 12.6849,4.4537 z m -16.51364,-1.5914 c 3.79598,-3.4353 2.41978,-5.4617 -9.29825,-13.691 -7.17516,-5.039 -10.22198,-5.739 -11.83783,-2.7197 -2.52255,4.7134 0.40329,11.4229 6.8865,15.7919 4.12821,2.782 11.50529,3.1024 14.24958,0.6188 z m 10.98448,-14.1204 c 1.46066,-0.8495 3.65155,-3.3162 4.86863,-5.4818 3.90827,-6.9538 1.24628,-15.2476 -6.09545,-18.9913 -8.88053,-4.5282 -19.27868,0.9817 -20.612,10.9223 -1.56032,11.6331 11.35565,19.6474 21.83882,13.5508 z m -13.83241,-5.4746 c -2.95161,-3.2791 -3.51769,-5.6311 -2.26722,-9.42 1.09498,-3.3178 5.11306,-6.33 8.44389,-6.33 3.33083,0 7.34891,3.0122 8.44389,6.33 2.05584,6.2292 -1.88083,11.67 -8.44389,11.67 -3.03837,0 -4.69436,-0.6032 -6.17667,-2.25 z m -15.42293,-1.13 c 1.56951,-1.8911 7.0996,-18.4609 7.0996,-21.2724 0,-1.2525 -0.89077,-2.754 -1.97948,-3.3366 -6.53899,-3.4996 -16.30094,8.3502 -14.55331,17.6659 0.70353,3.7501 4.4753,8.3231 6.86489,8.3231 0.78266,0 1.93839,-0.621 2.5683,-1.38 z m 49.02702,-1.2549 c 4.19687,-5.3354 1.71931,-17.7457 -4.33463,-21.7124 -3.25034,-2.1297 -8.22085,-2.1397 -9.40765,-0.019 -0.50283,0.8986 -0.58575,3.0361 -0.18426,4.75 1.05981,4.5245 4.64697,15.0899 5.94989,17.5244 1.5699,2.9334 5.44994,2.6693 7.97665,-0.5429 z m -15.4649,-22.9705 c 3.1988,-3.1988 -1.20412,-9.7094 -7.76001,-11.4747 -5.86121,-1.5783 -11.58107,-0.2413 -15.42861,3.6062 -3.63176,3.6318 -4.04678,5.5582 -1.70247,7.9025 2.30685,2.3068 22.57793,2.2792 24.89109,-0.034 z m -83.25671,-33.9512 c -9.76928,-2.6296 -16.36912,-6.5568 -24.23079,-14.4184 -11.09565,-11.0957 -15.97502,-22.7099 -15.97502,-38.025 0,-14.8272 5.26475,-27.3589 15.9643,-38 21.58431,-21.4664 56.16669,-21.0617 77.37414,0.9054 16.21938,16.8003 19.85003,39.9878 9.54768,60.9773 -7.31588,14.905 -21.07427,25.7887 -36.68534,29.0203 -7.19773,1.49 -19.56406,1.2713 -25.99497,-0.4596 z m 32.98192,-12.6916 c 17.87404,-8.8339 28.12121,-27.7448 24.93318,-46.0138 -4.87266,-27.9226 -33.29377,-44.5024 -59.48676,-34.7023 -33.70901,12.6121 -38.76434,58.6298 -8.56942,78.0058 8.18169,5.2502 15.0176,7.0034 26.04745,6.6804 8.77291,-0.2569 10.26383,-0.6036 17.07555,-3.9701 z m -31.68773,-2.7246 c -26.91325,-8.9268 -35.22629,-44.143 -15.15762,-64.2117 19.12679,-19.1268 52.04553,-13.4192 63.49721,11.0093 2.37677,5.0702 2.65989,6.8479 2.6555,16.6752 -0.005,10.3842 -0.18078,11.3368 -3.1464,17.0162 -3.86619,7.4042 -11.58239,14.7858 -19.01097,18.1867 -7.78071,3.5621 -20.35056,4.1394 -28.83772,1.3243 z m 27.11609,-9.9403 c 7.83846,-3.5596 12.40077,-13.4986 8.14828,-17.7511 -2.15797,-2.158 -5.03705,-0.9507 -14.18136,5.9468 -9.18425,6.9276 -9.86802,8.1561 -6.27725,11.278 3.34491,2.9081 6.74519,3.0535 12.31033,0.5263 z m -18.668,-0.059 c 2.19268,-1.1735 3.19751,-3.4848 2.4087,-5.5404 -0.83748,-2.1825 -16.81536,-13.4874 -19.06243,-13.4874 -2.88365,0 -4.29436,2.0115 -4.29436,6.1233 0,8.8285 13.27914,17.0088 20.94809,12.9045 z m 14.02018,-16.7778 c 4.87916,-4.9014 5.83798,-9.6389 3.17102,-15.668 -2.38977,-5.4025 -5.78787,-7.7606 -11.94613,-8.2899 -11.33471,-0.9743 -19.08994,11.6667 -13.10173,21.3558 2.79588,4.5239 6.31788,6.2639 12.77622,6.3121 4.89621,0.036 5.69551,-0.2894 9.10062,-3.71 z m -15.05493,-2.5318 c -4.66551,-3.5821 -5.10339,-9.682 -0.99026,-13.7951 3.26704,-3.2671 6.64457,-3.7152 11.0054,-1.4601 3.25514,1.6833 4.07152,3.3203 4.07152,8.1642 0,4.8579 -3.67884,8.3831 -8.70455,8.341 -2.0875,-0.017 -4.50945,-0.58 -5.38211,-1.25 z m -16.57275,-2.2017 c 1.59147,-1.5914 7.65941,-18.8543 7.65941,-21.7904 0,-0.9729 -1.16921,-2.3017 -2.59825,-2.9528 -2.17093,-0.9892 -3.19882,-0.8623 -6.25,0.7714 -7.99434,4.2805 -10.78162,17.9363 -4.72441,23.1465 3.14857,2.7082 3.92235,2.8162 5.91325,0.8253 z m 47.11461,0.8623 c 4.08956,-1.5693 5.78499,-10.4749 3.18077,-16.7076 -2.86979,-6.8684 -11.45094,-11.0089 -14.70064,-7.0933 -1.0987,1.3239 -0.77667,3.2157 2.00006,11.75 4.20048,12.9102 4.91698,13.8172 9.51981,12.0509 z m -14.38946,-24.414 c 3.04649,-1.6304 2.50953,-6.303 -1.07049,-9.3153 -7.89457,-6.6429 -23.99525,-2.6012 -23.99525,6.0233 0,1.2253 0.7875,2.6865 1.75,3.2471 2.29981,1.3395 20.83005,1.3752 23.31574,0.045 z m 91.20877,70.4962 c -19.86031,-5.3492 -35.95916,-22.8054 -39.3003,-42.6139 -4.11391,-24.39 7.31715,-47.0152 29.17977,-57.7549 19.8085,-9.7306 41.95631,-7.2432 59.46676,6.6787 6.26401,4.9802 13.42119,15.5138 16.46279,24.2291 3.27011,9.3701 3.31374,24.8451 0.0964,34.1904 -6.00576,17.4448 -20.22617,30.6881 -37.82426,35.2254 -7.48602,1.9301 -21.00194,1.9518 -28.08115,0.045 z m 27.49057,-10.3108 c 11.95055,-3.7194 21.62687,-12.2118 26.80729,-23.5273 7.73317,-16.8915 4.71138,-35.1351 -8.03265,-48.4959 -11.48201,-12.0377 -27.27312,-16.6917 -42.86012,-12.6318 -8.27611,2.1557 -13.31192,5.0125 -19.88122,11.2785 -19.72942,18.8187 -17.8496,49.797 4.03202,66.445 11.00164,8.3703 26.60829,11.0792 39.93468,6.9315 z m -24.26508,-4.495 c -10.46089,-3.467 -19.33446,-10.4901 -23.45216,-18.5614 -7.88898,-15.4637 -5.78445,-32.7836 5.45918,-44.928 11.90311,-12.8568 30.16326,-16.4537 46.02737,-9.0665 6.24255,2.9069 15.38334,11.9594 18.21031,18.0345 9.27071,19.9224 0.99511,43.0096 -18.72453,52.2375 -5.34419,2.5009 -7.9845,3.0856 -15.00287,3.3223 -5.16923,0.1744 -10.08966,-0.2338 -12.5173,-1.0384 z m 25.04137,-10.5349 c 7.79818,-3.5422 12.24282,-11.7483 9.02396,-16.6609 -2.48833,-3.7977 -3.64832,-3.4015 -15.37668,5.2514 -6.28925,4.6401 -7.26783,5.7681 -7,8.0685 0.32728,2.8111 3.69232,5.1971 7.31135,5.184 1.1,0 3.81862,-0.8333 6.04137,-1.843 z m -17.37011,-0.7753 c 2.4466,-2.2141 2.30525,-4.5685 -0.42126,-7.0167 -4.79818,-4.3083 -15.59737,-11.3283 -17.42699,-11.3283 -7.35962,0 -4.92742,11.9805 3.59867,17.7262 4.12821,2.782 11.50529,3.1024 14.24958,0.6188 z m 12.23289,-15.395 c 10.30486,-9.0478 4.4976,-24.9596 -9.10449,-24.9463 -10.5552,0.01 -17.45854,11.6035 -12.3364,20.7171 2.95502,5.2578 6.40548,7.2202 12.75194,7.2526 4.40832,0.022 5.75266,-0.4453 8.68895,-3.0234 z m -15.07566,-4.3439 c -3.42516,-2.9462 -3.88643,-9.2271 -0.91847,-12.5067 4.2118,-4.654 12.71306,-3.4424 15.04742,2.1445 3.89606,9.3246 -6.48448,16.9377 -14.12895,10.3622 z m -16.02969,-0.8561 c 1.83746,-1.3663 7.7012,-17.7053 7.7012,-21.459 0,-3.6135 -3.87071,-4.9207 -8.31931,-2.8097 -8.2997,3.9384 -11.22745,17.0628 -5.15987,23.1304 2.73201,2.732 3.44558,2.8726 5.77798,1.1383 z m 49.24665,-1.2046 c 1.9625,-1.9624 2.45455,-3.4739 2.45455,-7.5398 0,-8.958 -5.25288,-16.0056 -11.92963,-16.0056 -4.96873,0 -5.4876,2.5716 -2.45947,12.1895 4.5686,14.5106 6.72654,16.564 11.93455,11.3559 z m -15.56813,-23.5227 c 4.54433,-4.5444 -3.46141,-11.9955 -12.9116,-12.0171 -6.54987,-0.015 -13.9835,6.5274 -12.54965,11.045 0.76194,2.4007 2.19389,2.6961 13.73393,2.8334 8.47237,0.1008 10.00911,-0.1431 11.72732,-1.8613 z"
         id="path5014"
         inkscape:connector-curvature="0" />
      <path
         style="fill:#bebebe"
         d="m 545.98038,-1562.9974 c -18.64207,-3.875 -34.84327,-13.2664 -45.0435,-26.1105 -2.50793,-3.158 -6.29919,-9.3418 -8.42502,-13.7418 -7.56018,-15.6479 -7.12641,-3.8363 -6.81238,-185.5 l 0.2809,-162.5 2.81594,-8 c 6.24617,-17.7452 19.28853,-32.6852 35.71018,-40.9059 17.08332,-8.5519 9.10946,-8.0941 140.97388,-8.0941 130.84068,0 121.77588,-0.4925 138.5,7.5249 18.79398,9.0097 32.78464,25.8305 38.2398,45.9751 1.64648,6.0801 1.7602,17.0307 1.7602,169.5 0,155.184 -0.0881,163.3109 -1.83773,169.4829 -7.27068,25.6486 -26.60449,44.2254 -53.07223,50.9942 -7.73126,1.9772 -10.54402,2.0203 -124.5,1.9069 -64.12452,-0.064 -117.49004,-0.3031 -118.59004,-0.5317 z m 244,-6.2171 c 20.22549,-6.8327 34.64401,-18.775 42.91915,-35.5481 6.95708,-14.1015 6.5497,-2.9228 6.56607,-180.1771 0.0145,-156.9312 -0.0248,-160.2446 -1.98856,-167.9231 -4.89986,-19.1582 -18.6427,-35.2921 -37.49666,-44.0204 -14.51351,-6.7189 -9.26147,-6.4684 -135.19741,-6.4491 -127.99297,0.02 -121.06987,-0.3636 -137.30259,7.598 -12.51335,6.1374 -24.61056,17.9044 -30.20919,29.3846 -7.89735,16.1939 -7.29081,1.1361 -7.29081,181 0,131.1409 0.24629,161.5061 1.34643,166 0.74054,3.025 3.35654,9.7004 5.81333,14.8343 9.15747,19.1361 28.53463,33.338 50.57779,37.0694 2.90368,0.4915 56.80866,0.8248 120.26245,0.7435 l 115,-0.1472 7,-2.3648 z m -198.5,-60.023 c -9.51814,-3.0808 -16.27044,-7.1758 -23.10935,-14.0147 -20.78872,-20.7887 -21.2874,-53.1525 -1.14439,-74.2703 10.97124,-11.5022 23.56399,-17.0652 38.75374,-17.12 15.41043,-0.056 28.41298,5.2093 39.00386,15.7928 17.11243,17.1005 20.72215,42.1623 9.2004,63.877 -6.22131,11.7252 -20.16374,22.6844 -33.16882,26.0717 -8.07648,2.1037 -22.5044,1.9393 -29.53544,-0.3365 z m 27.5,-9.2836 c 11.16381,-2.8241 22.84421,-12.5217 27.8651,-23.135 15.15814,-32.0417 -11.7636,-68.3029 -46.67544,-62.8676 -22.4417,3.4939 -37.68966,21.1629 -37.68966,43.674 0,29.7479 26.81572,49.8377 56.5,42.3286 z m -25.27788,-5.7427 c -10.46992,-3.8811 -17.9578,-10.9891 -23.01837,-21.8504 -2.27119,-4.8746 -2.67466,-7.0942 -2.68802,-14.7874 -0.0147,-8.4693 0.22704,-9.543 3.75661,-16.6846 4.2927,-8.6857 9.8314,-14.1936 18.60651,-18.503 5.05532,-2.4826 6.67967,-2.7605 16.13674,-2.7605 9.83595,0 10.94146,0.2095 17.105,3.2413 7.93486,3.9031 14.95457,11.0509 18.69935,19.0406 2.34687,5.0072 2.68006,6.9613 2.68006,15.7181 0,8.7568 -0.33319,10.7109 -2.68006,15.7181 -3.72633,7.9503 -10.76805,15.1387 -18.6132,19.0009 -5.61457,2.764 -7.74705,3.244 -15.605,3.5124 -7.1358,0.2438 -10.24174,-0.1117 -14.37962,-1.6455 z m 7.63468,-9.1858 c 3.57029,-1.2446 5.13215,-5.0036 3.09761,-7.455 -2.36701,-2.8521 -16.74808,-12.4451 -18.65667,-12.4451 -2.98711,0 -4.29774,2.0477 -4.29774,6.7147 0,3.4777 0.63046,4.9989 3.25,7.8417 1.7875,1.9399 5.05,4.1635 7.25,4.9414 4.9382,1.7461 5.43989,1.7677 9.3568,0.4023 z m 23.01519,-2.1967 c 5.24648,-3.472 8.00167,-10.1387 5.93422,-14.359 -2.02748,-4.1387 -5.54919,-3.4457 -14.11068,2.7767 -10.56605,7.6794 -11.42404,9.1504 -7.57945,12.995 2.86849,2.8685 10.29248,2.2028 15.75591,-1.4127 z m -8.90057,-13.6831 c 8.52595,-6.071 6.98515,-20.6335 -2.6072,-24.6415 -10.9214,-4.5632 -21.25179,3.0323 -20.12158,14.7946 1.03932,10.8165 13.6777,16.2919 22.72878,9.8469 z m -15.38253,-6.097 c -3.14672,-3.7397 -3.2807,-6.7741 -0.45757,-10.3631 3.05144,-3.8793 6.24318,-4.8484 10.33602,-3.1383 9.14044,3.8191 6.57527,16.5781 -3.33299,16.5781 -3.19048,0 -4.45784,-0.5957 -6.54546,-3.0767 z m -14.22634,-1.1733 c 2.2256,-3.5549 6.81708,-18.4602 6.46055,-20.9729 -0.26217,-1.8477 -1.04468,-2.3365 -4.14954,-2.592 -4.95937,-0.4082 -8.32315,1.8299 -10.73539,7.1429 -2.28463,5.0318 -2.46422,10.754 -0.45921,14.6313 2.3488,4.5421 6.62178,5.4034 8.88359,1.7907 z m 48.56487,-0.3849 c 4.33297,-5.5084 1.3895,-18.5985 -4.91523,-21.8588 -3.76078,-1.9448 -7.91107,-1.6444 -9.3647,0.6779 -1.08413,1.7319 0.13584,6.7172 4.5433,18.5658 1.73036,4.6517 2.27832,5.25 4.80848,5.25 1.89385,0 3.55359,-0.8874 4.92815,-2.6349 z m -16.50921,-21.9721 c 1.00076,-0.384 1.58179,-1.8207 1.58179,-3.9111 0,-9.0057 -17.11909,-12.4537 -24.61495,-4.9579 -2.5734,2.5734 -3.11378,6.3473 -1.18505,8.276 1.25955,1.2595 21.20831,1.748 24.21821,0.593 z m 88.58179,69.3312 c -39.19978,-13.4135 -50.63864,-60.6445 -21.60917,-89.2242 21.8294,-21.4912 55.06538,-21.2862 76.60917,0.4726 7.73073,7.8078 11.3476,14.1566 14.02185,24.6128 2.33883,9.1448 2.45319,14.5089 0.5053,23.7015 -4.15868,19.6259 -19.86277,36.1794 -39.0687,41.1819 -8.83423,2.301 -22.53676,1.966 -30.45845,-0.7446 z m 30.5,-9.4387 c 7.31663,-2.2812 12.61165,-5.653 18.26576,-11.6313 24.45306,-25.8556 10.15063,-67.8019 -25.14514,-73.746 -31.57974,-5.3183 -58.14613,23.6185 -50.08771,54.5568 6.52522,25.0521 31.73073,38.6888 56.96709,30.8205 z m -25,-4.6303 c -11.40352,-3.7794 -21.61026,-13.1136 -25.55526,-23.3706 -3.02696,-7.8701 -3.12854,-19.7052 -0.23176,-27.0038 4.50115,-11.3409 13.89292,-20.2773 25.05627,-23.8413 8.05329,-2.5711 20.9991,-1.6586 28.4,2.0019 24.66834,12.201 29.91685,43.9464 10.32859,62.4722 -7.86447,7.4379 -14.89114,10.4068 -25.49784,10.7735 -5.17114,0.1787 -10.06652,-0.2254 -12.5,-1.0319 z m 6.1007,-10.1328 c 3.00177,-1.2542 3.48829,-1.8968 3.21788,-4.25 -0.24764,-2.1551 -2.18548,-4.1641 -8.70294,-9.0224 -10.79034,-8.0435 -15.11564,-8.1867 -15.11564,-0.5003 0,6.2651 3.98439,11.4122 10.6838,13.8015 4.90536,1.7495 5.66615,1.7472 9.9169,-0.029 z m 20.80528,-0.7889 c 7.42593,-4.2463 10.60971,-12.0227 6.83223,-16.6877 -1.75898,-2.1722 -2.23311,-2.2891 -4.84402,-1.1943 -1.5918,0.6675 -6.04419,3.5684 -9.89419,6.4464 -5.4829,4.0987 -7.07277,5.8689 -7.33579,8.1681 -0.22292,1.9487 0.26147,3.3721 1.44113,4.2347 2.74264,2.0054 9.42063,1.5375 13.80064,-0.9671 z m -7.40598,-14.5603 c 8.5377,-6.1995 7.40202,-19.5912 -2.07108,-24.4217 -6.65516,-3.3935 -14.38106,-1.2307 -18.7481,5.2485 -4.4661,6.6261 -1.64891,16.3372 5.89026,20.3043 4.12188,2.1689 11.11383,1.6391 14.92892,-1.1311 z m -14.64424,-5.5436 c -5.89959,-5.0746 -1.8299,-15.0296 6.14424,-15.0296 7.82179,0 11.61455,9.3764 6.04545,14.9454 -3.25847,3.2585 -8.45758,3.2944 -12.18969,0.084 z m -15.15572,-1.3796 c 2.16413,-2.5081 6.98157,-17.8426 6.61189,-21.0465 -0.24718,-2.1423 -0.90789,-2.7716 -3.18276,-3.0316 -4.79799,-0.5483 -7.50801,0.6871 -10.08349,4.5967 -3.10164,4.7083 -4.13013,10.9305 -2.58208,15.6211 1.79113,5.4272 6.26943,7.2989 9.23644,3.8603 z m 47.40026,0.9847 c 2.10282,-1.4041 3.3997,-5.1302 3.3997,-9.7678 0,-8.6146 -5.13902,-15.4669 -11.59967,-15.4669 -5.53643,0 -5.97128,2.399 -2.467,13.6097 1.65208,5.2853 3.52303,10.2353 4.15767,11 1.23807,1.4917 4.7117,1.8253 6.5093,0.625 z m -13.65311,-25.136 c 1.51962,-2.8395 -0.45423,-7.3763 -4.16217,-9.5666 -4.34236,-2.5651 -13.41166,-2.5183 -17.88161,0.092 -3.9222,2.2907 -5.95551,7.4029 -3.91992,9.8557 0.99864,1.2033 3.72828,1.5199 13.10377,1.5199 10.61406,0 11.94792,-0.1972 12.85993,-1.9013 z m -85.25587,-31.5995 c -26.89213,-7.3928 -44.38871,-34.2778 -39.75865,-61.0924 3.69685,-21.41 21.11516,-39.3719 42.56733,-43.8959 8.80139,-1.8561 13.19861,-1.8561 22,0 21.45217,4.524 38.87048,22.4859 42.56733,43.8959 4.66999,27.0459 -12.98398,53.8971 -40.19829,61.1404 -6.59951,1.7566 -20.7042,1.7316 -27.17772,-0.048 z m 32.56721,-12.2222 c 23.19911,-10.9154 32.1899,-37.4659 20.5386,-60.6522 -8.89569,-17.7026 -30.49013,-27.2419 -50.10383,-22.1331 -12.90545,3.3614 -22.99708,11.2012 -28.49043,22.1331 -12.59674,25.0677 -1.25184,53.1698 25.28407,62.6302 3.87475,1.3814 7.39729,1.7208 15.51306,1.4946 9.38018,-0.2614 11.22079,-0.6317 17.25853,-3.4726 z m -29.97249,-2.6704 c -14.09703,-4.5975 -24.85973,-16.9419 -27.41402,-31.4429 -2.77211,-15.7375 6.39524,-33.2548 21.19189,-40.4941 23.9275,-11.7067 51.37363,2.5386 56.05091,29.092 2.82246,16.0233 -7.0517,33.7265 -22.86218,40.9891 -6.94674,3.1911 -20.09753,4.0961 -26.9666,1.8559 z m 26.31289,-10.512 c 5.5195,-2.5067 8.89753,-7.396 8.89952,-12.8811 0.003,-8.0708 -4.09674,-7.9109 -15.42845,0.6017 -5.62917,4.2287 -7.64873,6.3667 -7.87709,8.339 -0.63005,5.4418 6.69083,7.4442 14.40602,3.9404 z m -18.53319,-0.1298 c 1.93578,-1.036 2.55092,-4.4925 1.16895,-6.5684 -1.59855,-2.4012 -16.66337,-12.3964 -18.68388,-12.3964 -3.12149,0 -4.55081,1.9008 -4.55081,6.0521 0,4.5629 3.3454,9.6311 7.9844,12.0963 3.81632,2.028 11.03542,2.4465 14.08134,0.8164 z m 11.43426,-14.8479 c 6.06007,-3.4036 8.27672,-12.6906 4.5054,-18.876 -9.40042,-15.418 -32.62298,-3.6156 -25.6603,13.0412 3.25304,7.7823 12.9335,10.4523 21.1549,5.8348 z m -12.75002,-4.197 c -2.67061,-1.5555 -4.88012,-6.5532 -4.16205,-9.4142 0.80422,-3.2043 5.87829,-7.5057 8.85394,-7.5057 2.8854,0 7.42246,3.513 8.62624,6.6791 1.14669,3.0161 -1.02486,8.6922 -3.91771,10.2404 -2.5163,1.3467 -7.08864,1.3469 -9.40042,4e-4 z m -16.32373,-3.1699 c 2.12459,-3.2467 6.55859,-16.7655 6.56678,-20.0214 0.0108,-4.2762 -4.06211,-5.7502 -8.7973,-3.1839 -5.12586,2.778 -7.62605,7.5918 -7.66436,14.7566 -0.0278,5.2084 0.28393,6.1392 2.77439,8.2832 3.49188,3.0062 5.23511,3.0467 7.12049,0.1655 z m 47.17405,1.4847 c 3.46872,-2.3161 4.53319,-11.5861 2.02088,-17.5989 -1.85636,-4.4429 -6.13019,-7.6358 -10.22085,-7.6358 -5.53109,0 -5.92318,2.3355 -2.30066,13.7044 1.71667,5.3876 3.57662,10.3581 4.13322,11.0456 1.11124,1.3726 4.63586,1.6409 6.36741,0.4847 z m -14.0994,-24.8785 c 3.48243,-3.4824 -0.33702,-9.3832 -7.33092,-11.3257 -5.48627,-1.5238 -8.28157,-1.2655 -13.1953,1.2195 -3.4,1.7194 -4.67189,3.0471 -5.39392,5.6303 -1.45159,5.1934 0.59777,6.1197 13.53894,6.1197 8.62842,0 11.06031,-0.3229 12.3812,-1.6438 z m -84.0009,-34.2228 c -9.10354,-2.6159 -16.31571,-6.9539 -23.49773,-14.1334 -11.55433,-11.5503 -16.612,-24.5922 -15.70599,-40.5 0.83427,-14.6481 5.72034,-25.3939 16.29897,-35.8461 28.14707,-27.8107 75.92561,-16.163 89.19396,21.7441 3.30797,9.4507 3.45281,23.0022 0.34922,32.6741 -5.5789,17.3859 -20.90946,31.7681 -38.84162,36.4388 -7.49914,1.9533 -20.29008,1.7796 -27.79681,-0.3775 z m 28.40904,-10.028 c 12.04939,-3.7502 21.0444,-11.5075 26.25504,-22.6423 15.78097,-33.7232 -12.94788,-70.0081 -49.36486,-62.3485 -21.85457,4.5967 -35.7102,22.9482 -34.61538,45.8475 0.35096,7.3404 0.95226,9.792 3.9498,16.104 5.53006,11.6448 14.65909,19.4939 27.36636,23.5297 6.1719,1.9602 19.31981,1.7161 26.40904,-0.4904 z m -23.97969,-4.4728 c -6.57346,-1.7724 -12.79599,-5.7135 -18.2837,-11.5803 -21.00871,-22.4601 -8.76119,-58.0105 22.07531,-64.0772 16.20954,-3.189 34.33087,6.2591 42.01948,21.9082 2.48092,5.0496 2.75956,6.6769 2.75956,16.1167 0,8.8028 -0.36677,11.2953 -2.26912,15.4203 -8.2069,17.7958 -27.80753,27.1988 -46.30153,22.2123 z m 24.35277,-9.9926 c 7.26268,-3.0695 11.94919,-11.2987 9.42907,-16.5567 -0.67453,-1.4074 -2.06573,-2.7205 -3.09155,-2.918 -2.13324,-0.4109 -18.23688,10.251 -19.74811,13.0747 -3.10409,5.8001 5.31894,9.8198 13.41059,6.4 z m -16.84945,-1.5656 c 0.95845,-1.0591 1.58705,-2.7466 1.39688,-3.75 -0.54,-2.8493 -16.37602,-14.3244 -19.76816,-14.3244 -3.15783,0 -4.06139,1.4314 -4.06139,6.4339 0,4.1771 3.52063,9.3424 7.9844,11.7145 4.70892,2.5023 12.15123,2.4642 14.44827,-0.074 z m 10.60006,-13.5913 c 3.86032,-1.9963 6.31503,-6.8841 6.33541,-12.6151 0.0377,-10.6155 -10.37788,-16.8156 -20.87836,-12.4282 -9.06547,3.7878 -10.15139,17.9616 -1.8749,24.4719 3.24791,2.5548 11.99372,2.8592 16.41785,0.5714 z m -14.10965,-6.4062 c -1.6077,-1.6077 -2.92308,-3.88 -2.92308,-5.0496 0,-5.1941 4.87981,-10.0273 10.12398,-10.0273 3.36104,0 7.87602,5.3237 7.87602,9.2867 0,7.9733 -9.31605,11.5511 -15.07692,5.7902 z m -15.02268,-0.4569 c 1.56951,-1.8911 7.0996,-18.4609 7.0996,-21.2724 0,-2.8667 -3.2423,-4.6729 -6.93307,-3.8623 -7.56148,1.6608 -12.56696,14.7795 -8.58052,22.4884 1.94911,3.7692 6.33681,5.1492 8.41399,2.6463 z m 49.02702,-1.2549 c 3.97331,-5.0512 1.60678,-17.7762 -4.04171,-21.7326 -1.2819,-0.8979 -4.02202,-1.6325 -6.08916,-1.6325 -3.15664,0 -3.85711,0.3931 -4.37461,2.455 -0.64081,2.5532 3.61896,17.1476 6.21551,21.295 1.92223,3.0703 5.71046,2.8944 8.28997,-0.3849 z m -16.50921,-21.9721 c 2.28515,-0.8769 2.0514,-6.9234 -0.3609,-9.3357 -5.08967,-5.0897 -17.15243,-5.116 -22.21989,-0.049 -3.21757,3.2176 -3.7249,7.375 -1.08742,8.9112 1.88073,1.0954 21.04804,1.4786 23.66821,0.4731 z m 91.69072,70.0873 c -23.21394,-6.5087 -39.20996,-25.6982 -40.77678,-48.9176 -1.06353,-15.7607 4.25532,-29.39 16.0571,-41.1456 8.15788,-8.1259 16.36987,-12.6411 27.11075,-14.9062 8.80139,-1.8561 13.19861,-1.8561 22,0 28.29082,5.9661 47.24663,33.3479 42.51324,61.4106 -3.15678,18.7155 -17.50157,35.744 -35.51324,42.1573 -7.94205,2.8279 -23.7816,3.5351 -31.39107,1.4015 z m 33.20488,-12.7908 c 22.41486,-11.078 30.92141,-37.3027 19.48332,-60.0647 -8.68832,-17.2899 -29.19219,-26.7052 -48.99791,-22.4995 -24.57299,5.2179 -39.6473,29.8415 -33.26631,54.3397 3.13211,12.025 11.45073,22.4526 22.29569,27.9481 7.52682,3.8142 11.48473,4.5425 22.89467,4.2128 9.44484,-0.2728 10.78424,-0.5726 17.59054,-3.9364 z m -28.81381,-1.5659 c -6.46198,-1.6961 -12.7337,-5.2314 -17.82794,-10.0493 -23.47132,-22.1982 -11.50741,-60.1814 20.83934,-66.161 25.07115,-4.6347 48.98115,19.2029 44.45314,44.3185 -2.3563,13.0697 -12.15858,25.3982 -23.71788,29.8305 -6.15264,2.3591 -18.52163,3.4328 -23.74666,2.0613 z m 26.36201,-12.4136 c 4.80463,-3.1795 7.55832,-8.6559 6.68724,-13.2992 -1.05342,-5.6152 -4.3112,-5.5908 -12.55601,0.094 -9.20584,6.3474 -10.99324,8.1322 -10.99324,10.9776 0,5.8609 9.47958,7.1133 16.86201,2.2278 z m -20.43344,0.7186 c 1.67269,-1.6727 2.013,-4.2193 0.80612,-6.0322 -0.40408,-0.6069 -4.28933,-3.6444 -8.63388,-6.75 -10.89099,-7.785 -14.60686,-7.6105 -14.59707,0.6854 0.005,4.396 3.20393,9.2035 7.70378,11.5783 4.67049,2.4649 12.49894,2.7406 14.72105,0.5185 z m 11.38161,-14.4542 c 3.52229,-2.1475 6.18982,-7.158 6.18982,-11.6266 0,-1.494 -0.91989,-4.6166 -2.0442,-6.9391 -6.20813,-12.8243 -26.9558,-7.9307 -26.9558,6.3578 0,8.6198 5.71423,14.226 14.5,14.226 3.25487,0 6.15534,-0.7044 8.31018,-2.0181 z m -13.0602,-4.0545 c -2.67061,-1.5555 -4.88012,-6.5532 -4.16205,-9.4142 0.80422,-3.2043 5.87829,-7.5057 8.85394,-7.5057 2.8854,0 7.42246,3.513 8.62624,6.6791 1.14669,3.0161 -1.02486,8.6922 -3.91771,10.2404 -2.5163,1.3467 -7.08864,1.3469 -9.40042,4e-4 z m -16.33228,-3.1699 c 1.85951,-2.8582 6.55266,-17.5183 6.56953,-20.5214 0.008,-1.4826 -0.88958,-2.6826 -2.58548,-3.4553 -2.17188,-0.9896 -3.19027,-0.863 -6.20602,0.7714 -5.12586,2.778 -7.62605,7.5918 -7.66436,14.7566 -0.0278,5.2084 0.28393,6.1392 2.77439,8.2832 3.49199,3.0063 5.23738,3.0469 7.11194,0.1655 z m 48.50972,-0.3849 c 2.46934,-3.1392 2.80208,-10.6834 0.69376,-15.7293 -1.83767,-4.3982 -6.13437,-7.6358 -10.13359,-7.6358 -5.81061,0 -6.1453,1.7648 -2.51477,13.2599 1.77878,5.6321 3.69268,10.8026 4.25311,11.4901 1.70941,2.097 5.49862,1.4156 7.70149,-1.3849 z m -15.42652,-23.0089 c 2.04112,-2.0411 1.25845,-6.1413 -1.6407,-8.5952 -8.00312,-6.7739 -24.8602,-2.9683 -24.8602,5.6124 0,3.775 2.42987,4.5627 14.17857,4.5962 8.60218,0.024 10.99819,-0.2892 12.32233,-1.6134 z"
         id="path5012"
         inkscape:connector-curvature="0" />
      <path
         style="fill:#dc8c8f"
         d="m 540.48038,-1564.3764 c -23.63112,-6.1148 -43.64967,-24.3883 -51.56754,-47.0721 l -2.93246,-8.4012 -0.27863,-161.5 c -0.30897,-179.0816 -0.61965,-169.8449 6.20524,-184.4841 10.56446,-22.6604 32.10699,-38.1461 57.75423,-41.5161 5.72469,-0.7523 43.40411,-0.9935 120.81916,-0.7735 l 112.5,0.3197 7.47263,2.2922 c 13.5539,4.1576 22.56113,9.5756 32.58736,19.6018 6.9122,6.9122 10.03226,10.9565 13.16131,17.06 8.40375,16.3923 7.67875,0.1758 8.02143,179.4207 0.3277,171.4114 0.42239,167.7796 -4.72888,181.383 -7.07338,18.6792 -24.67934,35.0762 -45.51385,42.3885 l -8,2.8078 -119,0.207 c -114.91042,0.1999 -119.25775,0.1403 -126.5,-1.7337 z m 241,-3.0383 c 15.663,-2.5299 27.59328,-8.6233 39.03935,-19.9394 5.71383,-5.6489 8.60644,-9.5339 11.69921,-15.7131 7.83277,-15.6494 7.3572,-3.1373 7.04234,-185.2825 l -0.2809,-162.5 -2.75311,-7.1296 c -4.42144,-11.45 -7.61002,-16.365 -16.18099,-24.9419 -8.97141,-8.9776 -15.21084,-12.9207 -27.0659,-17.1049 l -8,-2.8236 -120,0 -120,0 -8,2.7244 c -26.45258,9.0085 -43.41454,29.7989 -46.54827,57.0547 -0.71665,6.2331 -0.95659,59.6069 -0.74051,164.7209 0.29937,145.625 0.43269,155.881 2.09945,161.5 3.23142,10.8937 8.57162,20.2104 16.24531,28.342 10.5682,11.1988 23.01474,17.9924 37.93021,20.7029 9.1453,1.6619 225.42181,2.0202 235.51381,0.3901 z m -190,-61.8228 c -9.51814,-3.0808 -16.27044,-7.1758 -23.10935,-14.0147 -20.78872,-20.7887 -21.2874,-53.1525 -1.14439,-74.2703 10.97124,-11.5022 23.56399,-17.0652 38.75374,-17.12 15.41043,-0.056 28.41298,5.2093 39.00386,15.7928 17.11243,17.1005 20.72215,42.1623 9.2004,63.877 -6.22131,11.7252 -20.16374,22.6844 -33.16882,26.0717 -8.07648,2.1037 -22.5044,1.9393 -29.53544,-0.3365 z m 27.5,-9.2836 c 11.16381,-2.8241 22.84421,-12.5217 27.8651,-23.135 15.15814,-32.0417 -11.7636,-68.3029 -46.67544,-62.8676 -22.4417,3.4939 -37.68966,21.1629 -37.68966,43.674 0,29.7479 26.81572,49.8377 56.5,42.3286 z m -25.27788,-5.7427 c -10.46992,-3.8811 -17.9578,-10.9891 -23.01837,-21.8504 -2.27119,-4.8746 -2.67466,-7.0942 -2.68802,-14.7874 -0.0147,-8.4693 0.22704,-9.543 3.75661,-16.6846 4.2927,-8.6857 9.8314,-14.1936 18.60651,-18.503 5.05532,-2.4826 6.67967,-2.7605 16.13674,-2.7605 9.83595,0 10.94146,0.2095 17.105,3.2413 7.93486,3.9031 14.95457,11.0509 18.69935,19.0406 2.34687,5.0072 2.68006,6.9613 2.68006,15.7181 0,8.7568 -0.33319,10.7109 -2.68006,15.7181 -3.72633,7.9503 -10.76805,15.1387 -18.6132,19.0009 -5.61457,2.764 -7.74705,3.244 -15.605,3.5124 -7.1358,0.2438 -10.24174,-0.1117 -14.37962,-1.6455 z m 7.63468,-9.1858 c 3.57029,-1.2446 5.13215,-5.0036 3.09761,-7.455 -2.36701,-2.8521 -16.74808,-12.4451 -18.65667,-12.4451 -2.98711,0 -4.29774,2.0477 -4.29774,6.7147 0,3.4777 0.63046,4.9989 3.25,7.8417 1.7875,1.9399 5.05,4.1635 7.25,4.9414 4.9382,1.7461 5.43989,1.7677 9.3568,0.4023 z m 23.01519,-2.1967 c 5.24648,-3.472 8.00167,-10.1387 5.93422,-14.359 -2.02748,-4.1387 -5.54919,-3.4457 -14.11068,2.7767 -10.56605,7.6794 -11.42404,9.1504 -7.57945,12.995 2.86849,2.8685 10.29248,2.2028 15.75591,-1.4127 z m -8.90057,-13.6831 c 8.52595,-6.071 6.98515,-20.6335 -2.6072,-24.6415 -10.9214,-4.5632 -21.25179,3.0323 -20.12158,14.7946 1.03932,10.8165 13.6777,16.2919 22.72878,9.8469 z m -15.38253,-6.097 c -3.14672,-3.7397 -3.2807,-6.7741 -0.45757,-10.3631 3.05144,-3.8793 6.24318,-4.8484 10.33602,-3.1383 9.14044,3.8191 6.57527,16.5781 -3.33299,16.5781 -3.19048,0 -4.45784,-0.5957 -6.54546,-3.0767 z m -14.22634,-1.1733 c 2.2256,-3.5549 6.81708,-18.4602 6.46055,-20.9729 -0.26217,-1.8477 -1.04468,-2.3365 -4.14954,-2.592 -4.95937,-0.4082 -8.32315,1.8299 -10.73539,7.1429 -2.28463,5.0318 -2.46422,10.754 -0.45921,14.6313 2.3488,4.5421 6.62178,5.4034 8.88359,1.7907 z m 48.56487,-0.3849 c 4.33297,-5.5084 1.3895,-18.5985 -4.91523,-21.8588 -3.76078,-1.9448 -7.91107,-1.6444 -9.3647,0.6779 -1.08413,1.7319 0.13584,6.7172 4.5433,18.5658 1.73036,4.6517 2.27832,5.25 4.80848,5.25 1.89385,0 3.55359,-0.8874 4.92815,-2.6349 z m -16.50921,-21.9721 c 1.00076,-0.384 1.58179,-1.8207 1.58179,-3.9111 0,-9.0057 -17.11909,-12.4537 -24.61495,-4.9579 -2.5734,2.5734 -3.11378,6.3473 -1.18505,8.276 1.25955,1.2595 21.20831,1.748 24.21821,0.593 z m 88.58179,69.3312 c -39.19978,-13.4135 -50.63864,-60.6445 -21.60917,-89.2242 21.8294,-21.4912 55.06538,-21.2862 76.60917,0.4726 7.73073,7.8078 11.3476,14.1566 14.02185,24.6128 2.33883,9.1448 2.45319,14.5089 0.5053,23.7015 -4.15868,19.6259 -19.86277,36.1794 -39.0687,41.1819 -8.83423,2.301 -22.53676,1.966 -30.45845,-0.7446 z m 30.5,-9.4387 c 7.31663,-2.2812 12.61165,-5.653 18.26576,-11.6313 24.45306,-25.8556 10.15063,-67.8019 -25.14514,-73.746 -31.57974,-5.3183 -58.14613,23.6185 -50.08771,54.5568 6.52522,25.0521 31.73073,38.6888 56.96709,30.8205 z m -25,-4.6303 c -11.40352,-3.7794 -21.61026,-13.1136 -25.55526,-23.3706 -3.02696,-7.8701 -3.12854,-19.7052 -0.23176,-27.0038 4.50115,-11.3409 13.89292,-20.2773 25.05627,-23.8413 8.05329,-2.5711 20.9991,-1.6586 28.4,2.0019 24.66834,12.201 29.91685,43.9464 10.32859,62.4722 -7.86447,7.4379 -14.89114,10.4068 -25.49784,10.7735 -5.17114,0.1787 -10.06652,-0.2254 -12.5,-1.0319 z m 6.1007,-10.1328 c 3.00177,-1.2542 3.48829,-1.8968 3.21788,-4.25 -0.24764,-2.1551 -2.18548,-4.1641 -8.70294,-9.0224 -10.79034,-8.0435 -15.11564,-8.1867 -15.11564,-0.5003 0,6.2651 3.98439,11.4122 10.6838,13.8015 4.90536,1.7495 5.66615,1.7472 9.9169,-0.029 z m 20.80528,-0.7889 c 7.42593,-4.2463 10.60971,-12.0227 6.83223,-16.6877 -1.75898,-2.1722 -2.23311,-2.2891 -4.84402,-1.1943 -1.5918,0.6675 -6.04419,3.5684 -9.89419,6.4464 -5.4829,4.0987 -7.07277,5.8689 -7.33579,8.1681 -0.22292,1.9487 0.26147,3.3721 1.44113,4.2347 2.74264,2.0054 9.42063,1.5375 13.80064,-0.9671 z m -7.40598,-14.5603 c 8.5377,-6.1995 7.40202,-19.5912 -2.07108,-24.4217 -6.65516,-3.3935 -14.38106,-1.2307 -18.7481,5.2485 -4.4661,6.6261 -1.64891,16.3372 5.89026,20.3043 4.12188,2.1689 11.11383,1.6391 14.92892,-1.1311 z m -14.64424,-5.5436 c -5.89959,-5.0746 -1.8299,-15.0296 6.14424,-15.0296 7.82179,0 11.61455,9.3764 6.04545,14.9454 -3.25847,3.2585 -8.45758,3.2944 -12.18969,0.084 z m -15.15572,-1.3796 c 2.16413,-2.5081 6.98157,-17.8426 6.61189,-21.0465 -0.24718,-2.1423 -0.90789,-2.7716 -3.18276,-3.0316 -4.79799,-0.5483 -7.50801,0.6871 -10.08349,4.5967 -3.10164,4.7083 -4.13013,10.9305 -2.58208,15.6211 1.79113,5.4272 6.26943,7.2989 9.23644,3.8603 z m 47.40026,0.9847 c 2.10282,-1.4041 3.3997,-5.1302 3.3997,-9.7678 0,-8.6146 -5.13902,-15.4669 -11.59967,-15.4669 -5.53643,0 -5.97128,2.399 -2.467,13.6097 1.65208,5.2853 3.52303,10.2353 4.15767,11 1.23807,1.4917 4.7117,1.8253 6.5093,0.625 z m -13.65311,-25.136 c 1.51962,-2.8395 -0.45423,-7.3763 -4.16217,-9.5666 -4.34236,-2.5651 -13.41166,-2.5183 -17.88161,0.092 -3.9222,2.2907 -5.95551,7.4029 -3.91992,9.8557 0.99864,1.2033 3.72828,1.5199 13.10377,1.5199 10.61406,0 11.94792,-0.1972 12.85993,-1.9013 z m -85.25587,-31.5995 c -26.89213,-7.3928 -44.38871,-34.2778 -39.75865,-61.0924 3.69685,-21.41 21.11516,-39.3719 42.56733,-43.8959 8.80139,-1.8561 13.19861,-1.8561 22,0 21.45217,4.524 38.87048,22.4859 42.56733,43.8959 4.66999,27.0459 -12.98398,53.8971 -40.19829,61.1404 -6.59951,1.7566 -20.7042,1.7316 -27.17772,-0.048 z m 32.56721,-12.2222 c 23.19911,-10.9154 32.1899,-37.4659 20.5386,-60.6522 -8.89569,-17.7026 -30.49013,-27.2419 -50.10383,-22.1331 -12.90545,3.3614 -22.99708,11.2012 -28.49043,22.1331 -12.59674,25.0677 -1.25184,53.1698 25.28407,62.6302 3.87475,1.3814 7.39729,1.7208 15.51306,1.4946 9.38018,-0.2614 11.22079,-0.6317 17.25853,-3.4726 z m -29.97249,-2.6704 c -14.09703,-4.5975 -24.85973,-16.9419 -27.41402,-31.4429 -2.77211,-15.7375 6.39524,-33.2548 21.19189,-40.4941 23.9275,-11.7067 51.37363,2.5386 56.05091,29.092 2.82246,16.0233 -7.0517,33.7265 -22.86218,40.9891 -6.94674,3.1911 -20.09753,4.0961 -26.9666,1.8559 z m 26.31289,-10.512 c 5.5195,-2.5067 8.89753,-7.396 8.89952,-12.8811 0.003,-8.0708 -4.09674,-7.9109 -15.42845,0.6017 -5.62917,4.2287 -7.64873,6.3667 -7.87709,8.339 -0.63005,5.4418 6.69083,7.4442 14.40602,3.9404 z m -18.53319,-0.1298 c 1.93578,-1.036 2.55092,-4.4925 1.16895,-6.5684 -1.59855,-2.4012 -16.66337,-12.3964 -18.68388,-12.3964 -3.12149,0 -4.55081,1.9008 -4.55081,6.0521 0,4.5629 3.3454,9.6311 7.9844,12.0963 3.81632,2.028 11.03542,2.4465 14.08134,0.8164 z m 11.43426,-14.8479 c 6.06007,-3.4036 8.27672,-12.6906 4.5054,-18.876 -9.40042,-15.418 -32.62298,-3.6156 -25.6603,13.0412 3.25304,7.7823 12.9335,10.4523 21.1549,5.8348 z m -12.75002,-4.197 c -2.67061,-1.5555 -4.88012,-6.5532 -4.16205,-9.4142 0.80422,-3.2043 5.87829,-7.5057 8.85394,-7.5057 2.8854,0 7.42246,3.513 8.62624,6.6791 1.14669,3.0161 -1.02486,8.6922 -3.91771,10.2404 -2.5163,1.3467 -7.08864,1.3469 -9.40042,4e-4 z m -16.32373,-3.1699 c 2.12459,-3.2467 6.55859,-16.7655 6.56678,-20.0214 0.0108,-4.2762 -4.06211,-5.7502 -8.7973,-3.1839 -5.12586,2.778 -7.62605,7.5918 -7.66436,14.7566 -0.0278,5.2084 0.28393,6.1392 2.77439,8.2832 3.49188,3.0062 5.23511,3.0467 7.12049,0.1655 z m 47.17405,1.4847 c 3.46872,-2.3161 4.53319,-11.5861 2.02088,-17.5989 -1.85636,-4.4429 -6.13019,-7.6358 -10.22085,-7.6358 -5.53109,0 -5.92318,2.3355 -2.30066,13.7044 1.71667,5.3876 3.57662,10.3581 4.13322,11.0456 1.11124,1.3726 4.63586,1.6409 6.36741,0.4847 z m -14.0994,-24.8785 c 3.48243,-3.4824 -0.33702,-9.3832 -7.33092,-11.3257 -5.48627,-1.5238 -8.28157,-1.2655 -13.1953,1.2195 -3.4,1.7194 -4.67189,3.0471 -5.39392,5.6303 -1.45159,5.1934 0.59777,6.1197 13.53894,6.1197 8.62842,0 11.06031,-0.3229 12.3812,-1.6438 z m -84.0009,-34.2228 c -9.10354,-2.6159 -16.31571,-6.9539 -23.49773,-14.1334 -11.55433,-11.5503 -16.612,-24.5922 -15.70599,-40.5 0.83427,-14.6481 5.72034,-25.3939 16.29897,-35.8461 28.14707,-27.8107 75.92561,-16.163 89.19396,21.7441 3.30797,9.4507 3.45281,23.0022 0.34922,32.6741 -5.5789,17.3859 -20.90946,31.7681 -38.84162,36.4388 -7.49914,1.9533 -20.29008,1.7796 -27.79681,-0.3775 z m 28.40904,-10.028 c 12.04939,-3.7502 21.0444,-11.5075 26.25504,-22.6423 15.78097,-33.7232 -12.94788,-70.0081 -49.36486,-62.3485 -21.85457,4.5967 -35.7102,22.9482 -34.61538,45.8475 0.35096,7.3404 0.95226,9.792 3.9498,16.104 5.53006,11.6448 14.65909,19.4939 27.36636,23.5297 6.1719,1.9602 19.31981,1.7161 26.40904,-0.4904 z m -23.97969,-4.4728 c -6.57346,-1.7724 -12.79599,-5.7135 -18.2837,-11.5803 -21.00871,-22.4601 -8.76119,-58.0105 22.07531,-64.0772 16.20954,-3.189 34.33087,6.2591 42.01948,21.9082 2.48092,5.0496 2.75956,6.6769 2.75956,16.1167 0,8.8028 -0.36677,11.2953 -2.26912,15.4203 -8.2069,17.7958 -27.80753,27.1988 -46.30153,22.2123 z m 24.35277,-9.9926 c 7.26268,-3.0695 11.94919,-11.2987 9.42907,-16.5567 -0.67453,-1.4074 -2.06573,-2.7205 -3.09155,-2.918 -2.13324,-0.4109 -18.23688,10.251 -19.74811,13.0747 -3.10409,5.8001 5.31894,9.8198 13.41059,6.4 z m -16.84945,-1.5656 c 0.95845,-1.0591 1.58705,-2.7466 1.39688,-3.75 -0.54,-2.8493 -16.37602,-14.3244 -19.76816,-14.3244 -3.15783,0 -4.06139,1.4314 -4.06139,6.4339 0,4.1771 3.52063,9.3424 7.9844,11.7145 4.70892,2.5023 12.15123,2.4642 14.44827,-0.074 z m 10.60006,-13.5913 c 3.86032,-1.9963 6.31503,-6.8841 6.33541,-12.6151 0.0377,-10.6155 -10.37788,-16.8156 -20.87836,-12.4282 -9.06547,3.7878 -10.15139,17.9616 -1.8749,24.4719 3.24791,2.5548 11.99372,2.8592 16.41785,0.5714 z m -14.10965,-6.4062 c -1.6077,-1.6077 -2.92308,-3.88 -2.92308,-5.0496 0,-5.1941 4.87981,-10.0273 10.12398,-10.0273 3.36104,0 7.87602,5.3237 7.87602,9.2867 0,7.9733 -9.31605,11.5511 -15.07692,5.7902 z m -15.02268,-0.4569 c 1.56951,-1.8911 7.0996,-18.4609 7.0996,-21.2724 0,-2.8667 -3.2423,-4.6729 -6.93307,-3.8623 -7.56148,1.6608 -12.56696,14.7795 -8.58052,22.4884 1.94911,3.7692 6.33681,5.1492 8.41399,2.6463 z m 49.02702,-1.2549 c 3.97331,-5.0512 1.60678,-17.7762 -4.04171,-21.7326 -1.2819,-0.8979 -4.02202,-1.6325 -6.08916,-1.6325 -3.15664,0 -3.85711,0.3931 -4.37461,2.455 -0.64081,2.5532 3.61896,17.1476 6.21551,21.295 1.92223,3.0703 5.71046,2.8944 8.28997,-0.3849 z m -16.50921,-21.9721 c 2.28515,-0.8769 2.0514,-6.9234 -0.3609,-9.3357 -5.08967,-5.0897 -17.15243,-5.116 -22.21989,-0.049 -3.21757,3.2176 -3.7249,7.375 -1.08742,8.9112 1.88073,1.0954 21.04804,1.4786 23.66821,0.4731 z m 91.69072,70.0873 c -23.21394,-6.5087 -39.20996,-25.6982 -40.77678,-48.9176 -1.06353,-15.7607 4.25532,-29.39 16.0571,-41.1456 8.15788,-8.1259 16.36987,-12.6411 27.11075,-14.9062 8.80139,-1.8561 13.19861,-1.8561 22,0 28.29082,5.9661 47.24663,33.3479 42.51324,61.4106 -3.15678,18.7155 -17.50157,35.744 -35.51324,42.1573 -7.94205,2.8279 -23.7816,3.5351 -31.39107,1.4015 z m 33.20488,-12.7908 c 22.41486,-11.078 30.92141,-37.3027 19.48332,-60.0647 -8.68832,-17.2899 -29.19219,-26.7052 -48.99791,-22.4995 -24.57299,5.2179 -39.6473,29.8415 -33.26631,54.3397 3.13211,12.025 11.45073,22.4526 22.29569,27.9481 7.52682,3.8142 11.48473,4.5425 22.89467,4.2128 9.44484,-0.2728 10.78424,-0.5726 17.59054,-3.9364 z m -28.81381,-1.5659 c -6.46198,-1.6961 -12.7337,-5.2314 -17.82794,-10.0493 -23.47132,-22.1982 -11.50741,-60.1814 20.83934,-66.161 25.07115,-4.6347 48.98115,19.2029 44.45314,44.3185 -2.3563,13.0697 -12.15858,25.3982 -23.71788,29.8305 -6.15264,2.3591 -18.52163,3.4328 -23.74666,2.0613 z m 26.36201,-12.4136 c 4.80463,-3.1795 7.55832,-8.6559 6.68724,-13.2992 -1.05342,-5.6152 -4.3112,-5.5908 -12.55601,0.094 -9.20584,6.3474 -10.99324,8.1322 -10.99324,10.9776 0,5.8609 9.47958,7.1133 16.86201,2.2278 z m -20.43344,0.7186 c 1.67269,-1.6727 2.013,-4.2193 0.80612,-6.0322 -0.40408,-0.6069 -4.28933,-3.6444 -8.63388,-6.75 -10.89099,-7.785 -14.60686,-7.6105 -14.59707,0.6854 0.005,4.396 3.20393,9.2035 7.70378,11.5783 4.67049,2.4649 12.49894,2.7406 14.72105,0.5185 z m 11.38161,-14.4542 c 3.52229,-2.1475 6.18982,-7.158 6.18982,-11.6266 0,-1.494 -0.91989,-4.6166 -2.0442,-6.9391 -6.20813,-12.8243 -26.9558,-7.9307 -26.9558,6.3578 0,8.6198 5.71423,14.226 14.5,14.226 3.25487,0 6.15534,-0.7044 8.31018,-2.0181 z m -13.0602,-4.0545 c -2.67061,-1.5555 -4.88012,-6.5532 -4.16205,-9.4142 0.80422,-3.2043 5.87829,-7.5057 8.85394,-7.5057 2.8854,0 7.42246,3.513 8.62624,6.6791 1.14669,3.0161 -1.02486,8.6922 -3.91771,10.2404 -2.5163,1.3467 -7.08864,1.3469 -9.40042,4e-4 z m -16.33228,-3.1699 c 1.85951,-2.8582 6.55266,-17.5183 6.56953,-20.5214 0.008,-1.4826 -0.88958,-2.6826 -2.58548,-3.4553 -2.17188,-0.9896 -3.19027,-0.863 -6.20602,0.7714 -5.12586,2.778 -7.62605,7.5918 -7.66436,14.7566 -0.0278,5.2084 0.28393,6.1392 2.77439,8.2832 3.49199,3.0063 5.23738,3.0469 7.11194,0.1655 z m 48.50972,-0.3849 c 2.46934,-3.1392 2.80208,-10.6834 0.69376,-15.7293 -1.83767,-4.3982 -6.13437,-7.6358 -10.13359,-7.6358 -5.81061,0 -6.1453,1.7648 -2.51477,13.2599 1.77878,5.6321 3.69268,10.8026 4.25311,11.4901 1.70941,2.097 5.49862,1.4156 7.70149,-1.3849 z m -15.42652,-23.0089 c 2.04112,-2.0411 1.25845,-6.1413 -1.6407,-8.5952 -8.00312,-6.7739 -24.8602,-2.9683 -24.8602,5.6124 0,3.775 2.42987,4.5627 14.17857,4.5962 8.60218,0.024 10.99819,-0.2892 12.32233,-1.6134 z"
         id="path5010"
         inkscape:connector-curvature="0" />
      <path
         style="fill:#cb5258"
         d="m 540.48038,-1564.3764 c -23.63112,-6.1148 -43.64967,-24.3883 -51.56754,-47.0721 l -2.93246,-8.4012 -0.27863,-161.5 c -0.30897,-179.0816 -0.61965,-169.8449 6.20524,-184.4841 10.56446,-22.6604 32.10699,-38.1461 57.75423,-41.5161 5.72469,-0.7523 43.40411,-0.9935 120.81916,-0.7735 l 112.5,0.3197 7.47263,2.2922 c 13.5539,4.1576 22.56113,9.5756 32.58736,19.6018 6.9122,6.9122 10.03226,10.9565 13.16131,17.06 8.40375,16.3923 7.67875,0.1758 8.02143,179.4207 0.3277,171.4114 0.42239,167.7796 -4.72888,181.383 -7.07338,18.6792 -24.67934,35.0762 -45.51385,42.3885 l -8,2.8078 -119,0.207 c -114.91042,0.1999 -119.25775,0.1403 -126.5,-1.7337 z m 241,-3.0383 c 15.663,-2.5299 27.59328,-8.6233 39.03935,-19.9394 5.71383,-5.6489 8.60644,-9.5339 11.69921,-15.7131 7.83277,-15.6494 7.3572,-3.1373 7.04234,-185.2825 l -0.2809,-162.5 -2.75311,-7.1296 c -4.42144,-11.45 -7.61002,-16.365 -16.18099,-24.9419 -8.97141,-8.9776 -15.21084,-12.9207 -27.0659,-17.1049 l -8,-2.8236 -120,0 -120,0 -8,2.7244 c -26.45258,9.0085 -43.41454,29.7989 -46.54827,57.0547 -0.71665,6.2331 -0.95659,59.6069 -0.74051,164.7209 0.29937,145.625 0.43269,155.881 2.09945,161.5 3.23142,10.8937 8.57162,20.2104 16.24531,28.342 10.5682,11.1988 23.01474,17.9924 37.93021,20.7029 9.1453,1.6619 225.42181,2.0202 235.51381,0.3901 z m -184,-60.6254 c -10.32981,-1.7272 -23.15649,-8.5042 -30.15332,-15.9315 -16.55319,-17.5716 -19.13978,-45.7019 -6.06135,-65.9196 16.65028,-25.7395 52.13649,-32.248 77.42719,-14.2009 31.58223,22.5366 28.18738,72.0964 -6.17553,90.1536 -10.5139,5.5249 -23.84685,7.7695 -35.03699,5.8984 z m 20.3204,-9.8048 c 8.11991,-2.115 12.6626,-4.6688 19.39935,-10.9058 10.26989,-9.5081 14.90183,-21.1546 14.02202,-35.2568 -1.44512,-23.1636 -21.13611,-41.288 -44.90268,-41.3303 -26.51402,-0.047 -48.27934,25.0111 -44.0249,50.6858 4.36607,26.3484 30.11251,43.4213 55.50621,36.8071 z m -20.8204,-5.85 c -11.33636,-2.9537 -20.09673,-10.0606 -25.19231,-20.4372 -2.56024,-5.2137 -2.80769,-6.6871 -2.80769,-16.7176 0,-9.8314 0.28368,-11.6052 2.67018,-16.6965 3.54362,-7.5598 10.4056,-14.235 18.62911,-18.1218 6.07786,-2.8727 7.58377,-3.1648 16.20071,-3.1426 12.88748,0.033 19.25829,2.5442 27.58751,10.8734 6.94509,6.9451 10.30255,14.2095 11.13963,24.1024 1.39168,16.4475 -9.05062,33.0364 -24.44132,38.8281 -6.23375,2.3458 -17.44442,2.9641 -23.78582,1.3118 z m 25.36622,-10.4489 c 4.1107,-1.8856 9.13378,-8.5583 9.13378,-12.1334 0,-3.3319 -2.57937,-7.0725 -4.87684,-7.0725 -0.96989,0 -5.68056,2.7787 -10.46815,6.1749 -9.36532,6.6436 -11.17755,9.4852 -8.1691,12.8095 2.90189,3.2066 7.7114,3.2807 14.38031,0.2215 z m -19.03163,0.1974 c 4.93944,-3.4597 1.93001,-7.5729 -12.75603,-17.4344 -5.2879,-3.5507 -5.44445,-3.5659 -8.0396,-0.7803 -3.53821,3.7978 -2.15577,9.5249 3.62176,15.0041 5.09863,4.8353 12.79901,6.2749 17.17387,3.2106 z m 10.92455,-14.3979 c 12.74677,-7.7718 7.30859,-26.9889 -7.64111,-27.0017 -8.7518,-0.01 -16.19679,8.4325 -14.66079,16.6201 0.69859,3.7237 5.71008,10.0897 8.98809,11.4173 3.71169,1.5032 9.94495,1.0183 13.31381,-1.0357 z m -13.12428,-6.078 c -2.12583,-1.6722 -2.63486,-2.9139 -2.63486,-6.4274 0,-3.5135 0.50903,-4.7552 2.63486,-6.4274 5.28036,-4.1536 12.75838,-1.8239 13.91372,4.3347 0.70339,3.7493 -1.43154,8.9501 -4.09338,9.9715 -3.13315,1.2023 -7.21334,0.5993 -9.82034,-1.4514 z m 32.60662,-1.4416 c 3.16388,-3.1639 4.07765,-7.5869 2.65721,-12.862 -1.51424,-5.6235 -4.53962,-9.5758 -8.64202,-11.2899 -3.04815,-1.2736 -3.72373,-1.2579 -5.85134,0.1362 -3.13425,2.0536 -3.04616,4.2519 0.60474,15.0923 3.95034,11.7295 6.44405,13.7108 11.23141,8.9234 z m -48.02616,-0.2358 c 1.92791,-2.2119 6.78468,-16.864 6.78468,-20.4682 0,-2.8921 -2.351,-4.7818 -5.94894,-4.7818 -1.14424,0 -3.68845,1.4736 -5.6538,3.2747 -6.21947,5.6998 -7.59365,16.5358 -2.77256,21.8631 2.12003,2.3426 5.60175,2.3941 7.59062,0.1122 z m 31.78468,-22.5398 c 7.22211,-3.6408 -1.15264,-13.7102 -11.40278,-13.7102 -7.51261,0 -13.59722,4.2919 -13.59722,9.591 0,2.6269 0.52195,3.433 2.75,4.2467 3.99744,1.46 19.2746,1.3725 22.25,-0.1275 z m 91.1613,69.2574 c -17.86172,-4.6787 -30.7169,-16.8491 -36.87402,-34.9098 -2.63747,-7.7365 -3.08398,-22.4941 -0.92457,-30.5578 6.25498,-23.3574 27.5621,-39.5 52.13729,-39.5 24.57423,0 45.89491,16.2223 51.96881,39.5416 1.96082,7.5281 1.96082,20.3887 0,27.9168 -7.39322,28.3845 -37.06448,45.1691 -66.30751,37.5092 z m 25.1591,-8.4628 c 3.15733,-0.8224 7.60636,-2.4471 9.88673,-3.6105 5.02338,-2.5627 14.19339,-11.0356 17.38736,-16.0656 9.26091,-14.5844 8.38599,-35.7455 -2.04666,-49.5012 -5.43878,-7.1712 -9.64127,-10.5291 -18.32786,-14.6441 -6.28568,-2.9777 -7.43087,-3.1834 -17.71997,-3.1834 -10.64029,0 -11.25578,0.1221 -18.82178,3.7348 -9.77053,4.6653 -17.27122,12.056 -21.82034,21.5003 -2.82264,5.8601 -3.31362,8.0565 -3.67074,16.4217 -0.34265,8.026 -0.0408,10.7729 1.78743,16.2668 7.29011,21.9068 31.08619,34.8791 53.34583,29.0812 z m -21.09025,-5.9909 c -7.45554,-2.0982 -10.87814,-4.0678 -16.79797,-9.6665 -3.26217,-3.0852 -6.24932,-7.2093 -8.05801,-11.125 -2.55912,-5.5403 -2.87417,-7.3185 -2.87417,-16.2224 0,-9.1463 0.26932,-10.5685 3.1547,-16.6586 3.91886,-8.2715 9.89987,-14.2195 18.3453,-18.244 5.92878,-2.8252 7.37879,-3.0969 16.5,-3.092 8.75686,0 10.71513,0.3398 15.75264,2.6958 8.04342,3.762 15.85,11.4489 19.37319,19.0764 2.5604,5.5431 2.87417,7.3164 2.87417,16.2434 0,9.3001 -0.23556,10.4995 -3.27411,16.6717 -4.14498,8.4197 -12.01149,15.8317 -19.97923,18.825 -7.4313,2.7917 -18.13788,3.4321 -25.01651,1.4962 z m 21.9888,-8.5579 c 6.86933,-1.9078 12.78105,-8.6505 12.78105,-14.5776 0,-3.1273 -2.53722,-6.3784 -4.97788,-6.3784 -1.73376,0 -16.51203,10.4084 -18.86582,13.2873 -1.2212,1.4936 -1.56214,1.3838 -3.73961,-1.2039 -1.31775,-1.5661 -5.9686,-5.2347 -10.33522,-8.1525 -7.78342,-5.201 -7.91335,-5.3555 -6.61755,-7.868 0.72696,-1.4096 2.55229,-6.5141 4.05629,-11.3434 2.63189,-8.451 2.66763,-8.8544 0.95217,-10.75 -5.40007,-5.967 -16.47238,3.4705 -16.47238,14.0403 0,5.661 2.39746,9.9197 5.98863,10.6379 l 2.90251,0.5805 -2.0499,2.7727 c -7.07052,9.5633 13.25211,24.9967 21.7395,16.5093 2.11819,-2.1182 2.58154,-2.2509 3.10421,-0.8888 0.3379,0.8805 2.00952,2.2083 3.71471,2.9507 3.80151,1.6548 3.32691,1.6315 7.81929,0.3839 z m -4.45981,-15.9506 c 5.20944,-3.1762 7.42132,-7.5715 6.95832,-13.8269 -0.33579,-4.5369 -0.93628,-5.864 -4.07233,-9 -3.48974,-3.4898 -4.01478,-3.6785 -10.23356,-3.6785 -6.4139,0 -6.63971,0.091 -10.48333,4.2113 -3.56683,3.8238 -3.92824,4.7084 -3.92824,9.6151 0,4.0241 0.55184,6.1054 2.1613,8.1515 5.07248,6.4486 13.3214,8.3543 19.59784,4.5275 z m -13.30459,-6.46 c -5.39273,-5.3927 -1.58863,-14.5454 6.04545,-14.5454 4.87658,0 8.5,3.6234 8.5,8.5 0,7.6341 -9.15273,11.4382 -14.54545,6.0454 z m 33.02463,-0.9337 c 6.42773,-6.4277 2.54853,-21.3148 -6.36364,-24.4216 -3.33993,-1.1643 -7.40908,0.38 -7.91434,3.0037 -0.47849,2.4846 4.77828,18.5104 6.99697,21.331 2.44043,3.1025 4.2439,3.124 7.28101,0.087 z m -16.47918,-22.9015 c 4.97795,-2.5094 3.46913,-8.4099 -2.9936,-11.7069 -9.3699,-4.7802 -22.96023,0.3014 -21.83353,8.1638 0.49558,3.4583 4.36756,4.8034 13.82713,4.8034 4.8479,0 9.57415,-0.5415 11,-1.2603 z m -80,-32.8245 c -8.60949,-1.3783 -21.2564,-8.1172 -27.9035,-14.8683 -10.247,-10.4073 -15.10424,-22.4659 -15.08463,-37.4489 0.0208,-15.8589 4.40091,-26.8676 14.98813,-37.6697 10.49126,-10.7042 23.0704,-15.8988 38.5,-15.8988 15.4296,0 28.00874,5.1946 38.5,15.8988 10.46599,10.6784 14.96685,21.8317 14.98813,37.1411 0.0299,21.5193 -10.43278,38.7019 -29.13226,47.843 -11.58325,5.6625 -21.68179,7.1119 -34.85587,5.0028 z m 19.11351,-8.891 c 13.33967,-2.4896 26.00895,-12.6248 32.13458,-25.7071 2.67077,-5.7039 3.24254,-8.2528 3.58114,-15.9645 0.49013,-11.1628 -1.35386,-17.9446 -7.28438,-26.7901 -17.54475,-26.1684 -56.65567,-26.0086 -74.29207,0.3035 -5.84063,8.7138 -7.57646,15.2261 -7.07889,26.558 0.51019,11.6194 4.11694,19.9137 12.46546,28.6663 10.71824,11.2369 25.04161,15.8141 40.47416,12.9339 z m -17.11351,-6.3777 c -7.50446,-1.6582 -12.18622,-4.0798 -18.00877,-9.3148 -13.57156,-12.202 -15.94254,-34.3746 -5.3464,-49.9978 4.12695,-6.0849 8.21619,-9.4123 16.11971,-13.1164 5.02659,-2.3558 6.97141,-2.688 15.73546,-2.688 8.76405,0 10.70887,0.3322 15.73546,2.688 7.90352,3.7041 11.99276,7.0315 16.11971,13.1164 9.95096,14.6719 8.5577,35.1558 -3.26348,47.9803 -5.09132,5.5234 -13.7585,10.2056 -21.52535,11.6283 -7.10719,1.302 -8.45055,1.2764 -15.56634,-0.296 z m 6.04875,-11.4289 c 1.53892,-1.9005 1.61209,-1.8897 3.79247,0.5582 1.9736,2.2157 2.82922,2.4458 7.61889,2.0486 10.65682,-0.8838 18.60885,-11.192 14.5231,-18.8263 -0.84691,-1.5825 -0.53088,-2.1512 1.89158,-3.4039 3.02442,-1.5639 5.14174,-5.9054 5.10325,-10.4639 -0.0499,-5.9155 -5.65612,-14.0143 -10.777,-15.5688 -2.82837,-0.8586 -7.20104,1.7546 -7.20104,4.3035 0,2.9911 5.87012,19.3635 7.64618,21.326 1.56217,1.7262 1.54211,1.8385 -0.3284,1.8385 -2.15628,0 -11.78365,6.4051 -17.1377,11.4017 -2.91366,2.7192 -3.46433,2.9074 -4.5,1.5386 -1.7735,-2.3439 -15.86748,-12.6182 -18.32958,-13.362 -3.1143,-0.9407 -6.72013,3.8235 -5.92036,7.8224 2.03164,10.1582 18.16235,17.5256 23.61861,10.7874 z m 9.71039,-13.1827 c 12.79159,-7.7991 7.61602,-27.1721 -7.25914,-27.1721 -8.34822,0 -14.50327,6.0653 -14.49626,14.2847 0.01,11.3415 12.32531,18.637 21.7554,12.8874 z m -11.44377,-4.9658 c -4.58277,-1.9441 -5.75353,-8.9416 -2.24279,-13.4047 1.67218,-2.1259 2.91389,-2.6349 6.42742,-2.6349 3.51353,0 4.75524,0.509 6.42742,2.6349 2.53162,3.2184 2.67976,8.4006 0.32258,11.2847 -1.97547,2.4171 -7.64377,3.5161 -10.93463,2.12 z m -17.19356,-2.6498 c 0.97861,-0.8857 3.19775,-6.0867 4.93143,-11.5578 3.02032,-9.5316 3.07864,-10.0288 1.39447,-11.8898 -5.50494,-6.0829 -16.44771,3.2764 -16.44771,14.0676 0,8.5372 5.46101,13.5979 10.12181,9.38 z m 34.23286,-24.587 c 2.8281,-4.4921 -3.26369,-10.7994 -11.1636,-11.5585 -8.66908,-0.833 -16.19107,3.4367 -16.19107,9.1906 0,4.1195 1.72284,4.6402 14.37201,4.344 9.92182,-0.2323 12.09281,-0.5627 12.98266,-1.9761 z m -80.35467,-32.8557 c -7.09933,-1.2159 -20.33587,-7.7301 -26.20557,-12.8969 -18.01101,-15.8539 -22.51092,-43.7841 -10.65501,-66.1339 5.43112,-10.2384 16.78895,-19.8695 28.39971,-24.0822 7.30554,-2.6507 22.56454,-3.5772 30.79017,-1.8695 9.09105,1.8873 19.38411,7.5794 26.1707,14.4725 23.95987,24.3358 19.65453,64.2425 -8.92787,82.7533 -10.57274,6.8473 -26.5718,9.9833 -39.57213,7.7567 z m 18.10918,-8.9678 c 28.90479,-5.4817 45.00653,-36.2518 32.61954,-62.3353 -8.20366,-17.2745 -23.58,-26.3264 -43.25842,-25.4658 -8.20903,0.3591 -10.07916,0.8186 -16.75018,4.1156 -8.80183,4.3501 -17.11922,12.6292 -21.06337,20.9664 -15.30455,32.3512 13.30497,69.3847 48.45243,62.7191 z m -16.10918,-6.3141 c -11.74247,-2.6391 -21.21383,-9.9737 -26.68531,-20.6652 -2.58305,-5.0474 -2.81469,-6.4066 -2.81469,-16.5158 0,-10.4314 0.17436,-11.3702 3.28675,-17.6974 3.8109,-7.7471 10.0508,-13.8032 18.21325,-17.6767 4.84346,-2.2985 6.7534,-2.6101 16,-2.6101 9.45456,0 11.11954,0.2862 16.72237,2.8742 7.6307,3.5246 15.31843,11.334 19.07143,19.3732 2.32588,4.9821 2.68695,7.0414 2.69588,15.3752 0.01,9.2633 -0.13906,9.9152 -3.98968,17.4566 -2.94541,5.7686 -5.35946,8.9378 -9.15633,12.0205 -9.11288,7.3989 -22.21174,10.5673 -33.34367,8.0655 z m 4.36514,-10.7378 c 3.36516,-2.647 3.33323,-4.9003 -0.11514,-8.1244 -3.44921,-3.225 -16.04867,-11.803 -17.33626,-11.803 -0.52792,0 -0.27459,-1.0458 0.56294,-2.3241 2.12851,-3.2485 6.52332,-16.4876 6.52332,-19.6511 0,-8.0889 -10.96205,-5.8002 -15.6513,3.2678 -2.06186,3.9872 -2.03621,12.0092 0.0486,15.1909 0.89542,1.3666 2.73998,2.7638 4.09903,3.1049 2.29737,0.5766 2.36675,0.769 0.98735,2.7384 -3.8674,5.5215 0.7418,14.272 9.52349,18.0802 4.83736,2.0978 8.26546,1.953 11.358,-0.4796 z m 19.80895,-0.1825 c 7.40779,-4.5262 10.97471,-12.713 7.30544,-16.7675 -2.83959,-3.1377 -5.39542,-2.3491 -14.72953,4.545 -6.86185,5.068 -8.75,6.9915 -8.75,8.9134 0,5.5087 9.41985,7.4359 16.17409,3.3091 z m -9.55553,-13.3682 c 6.8809,-3.2652 10.34593,-12.6771 7.02873,-19.0919 -2.21495,-4.2832 -6.86499,-7.9155 -11.1666,-8.7224 -8.74692,-1.641 -18.5661,8.135 -16.93011,16.8555 1.82848,9.7467 12.22552,15.1548 21.06798,10.9588 z m -10.30319,-5.3837 c -4.56312,-1.8385 -5.96962,-10.3388 -2.31537,-13.993 2.94816,-2.9482 9.37563,-2.7153 12.54545,0.4545 6.79742,6.7975 -1.08159,17.2245 -10.23008,13.5385 z m 29.56776,-1.6237 c 7.73504,-5.4178 5.39315,-19.7166 -4.06584,-24.8246 -4.7457,-2.5627 -8.81729,-1.0941 -8.81729,3.1804 0,4.159 4.96571,18.4593 7.30079,21.0249 2.4452,2.6866 2.6055,2.7044 5.58234,0.6193 z m -12.76433,-25.7307 c 1.49529,-3.2818 -1.02914,-7.8936 -5.47588,-10.0038 -8.76939,-4.1613 -21.64292,0.2043 -21.64292,7.3395 0,4.5003 1.48678,5.0257 14.22144,5.0257 11.45407,0 11.85487,-0.073 12.89736,-2.3614 z m 91.8812,71.8013 c -19.41507,-4.1849 -34.85022,-18.4613 -40.40462,-37.3714 -1.8213,-6.2006 -2.09693,-21.1797 -0.51597,-28.0407 1.78332,-7.7392 6.84363,-16.8724 12.98684,-23.4395 16.12964,-17.2426 42.97001,-21.6756 64.73054,-10.6909 26.09926,13.1749 36.24371,47.6681 21.67884,73.7126 -7.29169,13.0387 -20.68431,22.6751 -35.97563,25.8856 -8.53473,1.7919 -13.99123,1.7784 -22.5,-0.056 z m 20.20078,-8.5545 c 13.55588,-2.8512 25.29411,-12.0377 31.54666,-24.6889 3.682,-7.45 3.75256,-7.81 3.75256,-19.1446 0,-10.9576 -0.16387,-11.8863 -3.18522,-18.0519 -8.71459,-17.7837 -24.07765,-26.8008 -43.98283,-25.8151 -7.43215,0.368 -9.9414,0.9697 -15.83195,3.7965 -9.22484,4.4267 -17.4949,12.6735 -21.77839,21.717 -3.05037,6.4401 -3.22161,7.4156 -3.22161,18.3535 0,11.3346 0.0706,11.6946 3.75256,19.1446 9.22077,18.657 29.35155,28.8107 48.94822,24.6889 z m -16.08036,-6.0127 c -11.64392,-1.934 -22.81915,-10.6228 -27.90664,-21.6976 -3.63102,-7.9042 -4.25383,-20.3158 -1.42224,-28.343 4.24026,-12.0205 12.47168,-20.1711 24.0638,-23.8275 21.62772,-6.8218 44.04398,4.6667 49.67172,25.4573 6.1634,22.7694 -7.70418,44.7655 -30.56069,48.4739 -3.5565,0.577 -6.91637,0.9999 -7.46637,0.9397 -0.55,-0.06 -3.42081,-0.5114 -6.37958,-1.0028 z m 2.92924,-10.3984 c 1.62269,-0.8391 2.95034,-2.0255 2.95034,-2.6363 0,-0.6109 1.18636,0.076 2.63636,1.5256 5.04951,5.0495 15.96644,2.3173 21.08407,-5.2767 2.35551,-3.4953 2.94761,-8.482 1.31389,-11.0656 -0.69706,-1.1024 -0.0664,-2.1948 2.47786,-4.292 2.23266,-1.8403 3.64354,-4.0424 4.07976,-6.3677 1.94514,-10.3685 -9.49792,-23.3766 -15.6591,-17.8008 -1.06306,0.962 -1.93284,2.495 -1.93284,3.4066 0,2.8898 5.91252,19.2784 7.64618,21.1941 1.56253,1.7266 1.54171,1.8385 -0.342,1.8385 -2.20247,0 -16.83252,9.9948 -19.43398,13.2767 -1.62167,2.0458 -1.63298,2.0461 -2.26529,0.054 -0.51018,-1.6075 -11.49861,-10.2919 -17.36386,-13.7232 -3.53483,-2.0679 -8.15728,3.8301 -6.71577,8.5689 1.23836,4.071 5.24882,8.5029 9.67844,10.6955 5.09612,2.5226 7.86109,2.6632 11.84594,0.6025 z m 10.93041,-14.2259 c 13.63909,-6.8525 8.76895,-27.5817 -6.48007,-27.5817 -8.18933,0 -14.5,6.3339 -14.5,14.5534 0,7.8383 6.80856,14.7768 14.5,14.7768 1.65,0 4.56603,-0.7868 6.48007,-1.7485 z m -10.48007,-5.4031 c -5.11047,-2.7952 -6.2402,-9.8618 -2.18555,-13.671 3.45483,-3.2456 9.88229,-3.0109 12.61297,0.4606 3.56571,4.533 2.64081,10.5028 -1.99894,12.9021 -3.33379,1.724 -5.68308,1.8099 -8.42848,0.3083 z m -17.13637,-2.6946 c 0.92048,-1.0171 3.04492,-6.2364 4.72097,-11.5984 2.89522,-9.2622 2.96145,-9.8439 1.3264,-11.6506 -5.52259,-6.1024 -16.411,3.2296 -16.411,14.0652 0,8.5381 6.07555,13.9221 10.36363,9.1838 z m 33.99104,-24.3479 c 1.47916,-2.3495 -0.18137,-6.5973 -3.5632,-9.1149 -3.38113,-2.5172 -12.57726,-3.4335 -16.82032,-1.676 -5.66252,2.3455 -8.78595,8.7733 -5.74221,11.817 0.86804,0.8681 4.72777,1.1471 13.14307,0.95 9.92182,-0.2323 12.09281,-0.5627 12.98266,-1.9761 z"
         id="path5008"
         inkscape:connector-curvature="0" />
      <path
         style="fill:#7b7b7b"
         d="m 540.48038,-1564.3764 c -23.63112,-6.1148 -43.64967,-24.3883 -51.56754,-47.0721 l -2.93246,-8.4012 -0.27863,-161.5 c -0.30897,-179.0816 -0.61965,-169.8449 6.20524,-184.4841 10.56446,-22.6604 32.10699,-38.1461 57.75423,-41.5161 5.72469,-0.7523 43.40411,-0.9935 120.81916,-0.7735 l 112.5,0.3197 7.47263,2.2922 c 13.5539,4.1576 22.56113,9.5756 32.58736,19.6018 6.9122,6.9122 10.03226,10.9565 13.16131,17.06 8.40375,16.3923 7.67875,0.1758 8.02143,179.4207 0.3277,171.4114 0.42239,167.7796 -4.72888,181.383 -7.07338,18.6792 -24.67934,35.0762 -45.51385,42.3885 l -8,2.8078 -119,0.207 c -114.91042,0.1999 -119.25775,0.1403 -126.5,-1.7337 z m 241,-3.0383 c 15.663,-2.5299 27.59328,-8.6233 39.03935,-19.9394 5.71383,-5.6489 8.60644,-9.5339 11.69921,-15.7131 7.83277,-15.6494 7.3572,-3.1373 7.04234,-185.2825 l -0.2809,-162.5 -2.75311,-7.1296 c -4.42144,-11.45 -7.61002,-16.365 -16.18099,-24.9419 -8.97141,-8.9776 -15.21084,-12.9207 -27.0659,-17.1049 l -8,-2.8236 -120,0 -120,0 -8,2.7244 c -26.45258,9.0085 -43.41454,29.7989 -46.54827,57.0547 -0.71665,6.2331 -0.95659,59.6069 -0.74051,164.7209 0.29937,145.625 0.43269,155.881 2.09945,161.5 3.23142,10.8937 8.57162,20.2104 16.24531,28.342 10.5682,11.1988 23.01474,17.9924 37.93021,20.7029 9.1453,1.6619 225.42181,2.0202 235.51381,0.3901 z m -187.35505,-61.4516 c -26.92653,-6.8282 -44.85108,-33.244 -40.70202,-59.9834 3.23519,-20.8498 19.64912,-38.6674 40.51717,-43.9821 33.02202,-8.41 66.5399,17.6819 66.5399,51.7978 0,22.6391 -14.11345,42.5042 -35.82129,50.4196 -8.52559,3.1087 -22.10302,3.886 -30.53376,1.7481 z m 23.85505,-8.8428 c 20.13849,-5.3794 33.5,-22.5315 33.5,-43.0037 0,-25.0139 -19.53364,-44.6663 -44.35534,-44.625 -13.54204,0.023 -23.97525,4.4603 -33.18438,14.1151 -22.96279,24.0741 -11.53726,64.6364 20.64435,73.2905 6.85835,1.8443 16.96553,1.9407 23.39537,0.2231 z m -20.5,-6.0144 c -11.49902,-3.1657 -20.19287,-10.2071 -25.21943,-20.4258 -3.07926,-6.26 -3.28005,-7.3145 -3.27218,-17.1848 0.008,-9.8589 0.20662,-10.8958 3.18268,-16.6037 4.03567,-7.7402 12.46267,-15.5341 20.06227,-18.5551 4.46303,-1.7741 7.75699,-2.2897 14.74666,-2.308 8.04989,-0.021 9.70738,0.3101 15.70071,3.1381 8.52877,4.0245 15.08165,10.5748 19.11991,19.1124 2.8281,5.9791 3.16942,7.6699 3.16942,15.7007 0,7.9919 -0.34641,9.7281 -3.09243,15.5 -8.11766,17.0625 -27.20407,26.3596 -44.39761,21.6262 z m 21.21895,-8.6702 c 9.03259,-2.5086 15.26045,-12.4547 11.82183,-18.8798 -0.76626,-1.4318 -0.45407,-2.0225 1.55196,-2.9365 5.65191,-2.5752 6.75836,-13.3114 2.09378,-20.3164 -4.96345,-7.4539 -14.69427,-8.5133 -14.67955,-1.598 0.008,3.6576 4.29225,17.0489 6.56678,20.5247 1.32079,2.0184 1.30291,2.25 -0.17371,2.25 -1.60835,0 -12.67449,7.3096 -17.15004,11.3283 -2.69249,2.4176 -2.9063,5.79 -0.5,7.8862 3.28229,2.8594 5.25957,3.1883 10.46895,1.7415 z m -15.44146,-1.5127 c 2.45447,-1.7192 2.90547,-5.2329 0.97251,-7.5768 -1.65118,-2.0022 -14.75435,-11.3792 -17.04312,-12.1965 -1.51192,-0.5399 -1.60838,-0.9855 -0.61509,-2.8415 1.88337,-3.5191 5.87679,-17.0776 5.8932,-20.0087 0.0143,-2.5458 0.17766,-2.6335 3.25841,-1.75 4.70172,1.3484 18.83171,1.1149 21.7566,-0.3596 5.00268,-2.5219 2.96949,-9.5715 -3.54566,-12.2937 -9.12317,-3.8119 -21.45434,0.6326 -21.45434,7.7328 0,2.5773 -0.23881,2.7529 -2.99401,2.2019 -4.55998,-0.912 -8.75332,1.3615 -11.66031,6.3219 -4.8829,8.3321 -2.72815,19.3377 3.94264,20.1375 2.56356,0.3073 2.57033,0.3308 0.6511,2.25 -8.4268,8.4268 10.81615,25.4023 20.83807,18.3827 z m 13.91092,-16.6651 c 2.90621,-2.9062 3.67712,-4.5269 4.06289,-8.5417 0.92839,-9.662 -4.89451,-16.24 -14.36933,-16.2328 -9.07515,0.01 -14.81874,5.5948 -14.79925,14.3978 0.0211,9.5107 5.99634,14.9606 15.7181,14.3362 5.08335,-0.3266 6.24445,-0.8163 9.38759,-3.9595 z m -16.23386,-4.2328 c -5.18798,-5.1879 -1.60019,-14.5454 5.57692,-14.5454 3.98168,0 8.96853,4.7263 8.96853,8.5 0,1.5999 -1.16091,3.8147 -2.92308,5.5769 -3.72963,3.7296 -8.1818,3.9091 -11.62237,0.4685 z m 109.8212,45.9432 c -18.26099,-3.9679 -35.05835,-20.0386 -39.74284,-38.0236 -2.00149,-7.6842 -1.971,-21.6105 0.0625,-28.5335 6.43496,-21.9079 25.61174,-37.2076 48.40462,-38.6183 16.45038,-1.0182 31.10368,4.7532 42.35778,16.6832 10.13438,10.743 14.61848,21.9402 14.61848,36.5036 0,15.1134 -4.64915,26.314 -15.39964,37.1001 -13.72471,13.7702 -31.38733,18.9981 -50.30087,14.8885 z m 22.61247,-8.5491 c 12.77548,-2.9453 24.69087,-12.6053 30.39017,-24.6379 3.07197,-6.4857 3.22161,-7.359 3.22161,-18.8016 0,-11.3981 -0.15872,-12.335 -3.16452,-18.6796 -7.62148,-16.0873 -23.0146,-25.8204 -40.83548,-25.8204 -17.97098,0 -33.1433,9.582 -40.81502,25.7767 -3.03188,6.4001 -3.18498,7.3026 -3.18498,18.7752 0,11.8971 0.0478,12.1486 3.72581,19.5905 5.7042,11.5417 15.87579,20.0506 27.79843,23.2545 6.42987,1.7279 16.66858,1.9708 22.86398,0.5426 z m -18.65615,-6 c -10.91407,-2.1515 -21.97906,-11.1022 -27.122,-21.9395 -2.27276,-4.7892 -2.61007,-6.7924 -2.61007,-15.5 0,-8.715 0.33862,-10.7222 2.63517,-15.62 10.14019,-21.626 36.85321,-29.3886 56.48635,-16.4146 10.16506,6.7173 16.15197,16.9045 17.09248,29.0843 1.97639,25.5944 -20.86282,45.4402 -46.48193,40.3898 z m 23.86949,-10.5089 c 4.76331,-2.4323 8.9,-8.1208 8.88313,-12.2154 -0.008,-2.0434 -0.41732,-4.3503 -0.90866,-5.1264 -0.64755,-1.023 -0.0243,-1.9952 2.26532,-3.5337 6.33088,-4.2539 5.92869,-15.6611 -0.79123,-22.4415 -2.7268,-2.7513 -4.12448,-3.3863 -7.45315,-3.3863 -3.52032,0 -4.09697,-0.3014 -4.09697,-2.1412 0,-5.2034 -6.35617,-9.5861 -13.90278,-9.5861 -7.63199,0 -14.09722,4.1639 -14.09722,9.0792 0,2.5842 -0.20348,2.7032 -3.79886,2.2209 -7.11777,-0.9546 -13.20114,6.6641 -13.20114,16.5329 0,5.9822 2.78954,10.1516 6.82258,10.1974 2.22151,0.025 2.39274,0.1965 1.00557,1.006 -2.8364,1.655 -3.23536,6.4951 -0.92548,11.2275 2.65418,5.4377 7.77674,8.9028 14.05309,9.5059 4.18933,0.4025 5.24115,0.1242 7.2959,-1.9306 l 2.40087,-2.4008 1.66732,2.2104 c 2.63154,3.4887 8.838,3.817 14.78171,0.7818 z m -17.10156,-6.3625 c 0,-1.0535 -15.49823,-12.3767 -18.36262,-13.4159 -1.32878,-0.4822 -1.57539,-1.0307 -0.86045,-1.914 1.55365,-1.9195 7.37556,-20.8984 6.83936,-22.2958 -0.3693,-0.9623 0.35336,-1.0128 3.20341,-0.2236 2.02417,0.5605 8.0678,0.809 13.4303,0.5523 9.46847,-0.4533 9.75,-0.4044 9.75,1.6935 0,2.6816 5.65257,19.588 6.99952,20.9349 0.64913,0.6491 0.0331,1.3879 -1.80005,2.1587 -3.6479,1.5338 -17.19947,11.4336 -17.19947,12.5647 0,0.4824 -0.45,0.8771 -1,0.8771 -0.55,0 -1,-0.4193 -1,-0.9319 z m 8.58311,-7.6746 c 4.69635,-2.2285 7.41775,-7.0051 7.41315,-13.0115 -0.007,-8.9457 -5.48633,-14.382 -14.49626,-14.382 -8.97354,0 -14.48936,5.441 -14.49626,14.2997 -0.002,2.6398 0.65447,6.0724 1.45894,7.6281 3.30682,6.3947 12.7544,8.9611 20.12043,5.4657 z m -11.08311,-5.6013 c -3.12644,-1.793 -4.4337,-4.0129 -4.4682,-7.5877 -0.0717,-7.4307 8.96023,-10.9397 14.33184,-5.5681 3.58123,3.5812 3.47863,7.6752 -0.28672,11.4405 -3.06925,3.0693 -6.22915,3.6352 -9.57692,1.7153 z m -66.5,-58.3588 c -10.36314,-2.2442 -18.59416,-6.8535 -26.51898,-14.8505 -10.81493,-10.9134 -15.44687,-22.0291 -15.46915,-37.1228 -0.0222,-15.0704 5.04757,-27.4084 15.59735,-37.9582 10.99112,-10.9911 25.47549,-16.2913 41.68266,-15.2525 10.25451,0.6572 18.27731,3.4431 26.95731,9.3608 14.76137,10.0639 22.76603,25.5001 22.73894,43.8499 -0.0223,15.0937 -4.65422,26.2094 -15.46915,37.1228 -8.05655,8.1299 -16.20592,12.6259 -27.01898,14.9062 -8.53602,1.8001 -13.99268,1.7866 -22.5,-0.056 z m 22.3067,-8.9251 c 13.47062,-3.5086 23.7602,-11.8029 29.75793,-23.9873 3.33626,-6.7776 3.43537,-7.3257 3.43537,-19 0,-11.4507 -0.15188,-12.3416 -3.20145,-18.7795 -4.44667,-9.3873 -11.85535,-16.919 -21.17205,-21.5235 -7.42334,-3.6689 -7.68208,-3.718 -19.57464,-3.718 -11.48543,0 -12.36951,0.1505 -18.81039,3.2014 -9.38728,4.4467 -16.91895,11.8554 -21.52351,21.1721 -3.6699,7.4255 -3.71796,7.6788 -3.71796,19.5957 0,11.7333 0.0966,12.2691 3.43537,19.0518 9.44188,19.1812 31.06297,29.277 51.37133,23.9873 z m -18.037,-5.5122 c -19.55877,-4.0921 -32.31592,-20.7921 -31.04238,-40.6366 0.87602,-13.6502 9.62025,-26.1239 22.55461,-32.1741 5.00146,-2.3395 6.97394,-2.6754 15.7391,-2.68 9.28491,-0.01 10.50466,0.2327 16.605,3.2359 30.70115,15.1141 28.26337,59.3311 -3.89662,70.6778 -5.53187,1.9517 -14.7046,2.6765 -19.95971,1.577 z m 4.02575,-11.2461 2.20455,-2.25 2.21427,2.25 c 1.65752,1.6843 3.36718,2.25 6.79966,2.25 5.57671,0 9.1849,-1.754 13.33763,-6.4837 2.51234,-2.8614 3.14844,-4.4761 3.14844,-7.9921 0,-2.4234 -0.48739,-4.7074 -1.08308,-5.0756 -0.64215,-0.3968 0.18224,-1.4388 2.02492,-2.5594 3.95803,-2.407 5.3855,-6.1241 4.68829,-12.2081 -1.02314,-8.9283 -7.93766,-15.8247 -14.27216,-14.2348 -2.06339,0.5179 -2.35797,0.2364 -2.35797,-2.2529 0,-5.1431 -6.16801,-9.1934 -14,-9.1934 -7.64981,0 -14,4.0599 -14,8.9507 0,2.4122 -0.2788,2.5756 -3.81896,2.2379 -7.20413,-0.687 -13.18104,6.8604 -13.18104,16.6444 0,5.4427 2.78614,10.167 5.99594,10.167 1.73642,0 1.75502,0.1919 0.30104,3.1065 -5.1839,10.3914 13.94455,24.8635 21.99847,16.6435 z m 1.70455,-5.5236 c 0,-1.24 -13.53994,-11.604 -17.54252,-13.4277 -1.55385,-0.708 -2.12966,-1.5101 -1.58339,-2.2057 1.48032,-1.8848 7.33714,-20.6003 6.84627,-21.8772 -0.35254,-0.9171 2.81818,-1.2158 12.90501,-1.2158 l 13.37238,0 0.0132,2.5 c 0.0207,3.9245 5.83755,20.3621 7.69679,21.75 1.50725,1.1251 1.44857,1.25 -0.5874,1.25 -2.23096,0 -13.01641,6.9626 -18.37032,11.8591 -1.5125,1.3833 -2.75,1.9986 -2.75,1.3673 z m 10.23531,-8.7937 c 3.95394,-2.9438 5.76507,-6.7437 5.76095,-12.087 -0.007,-8.7011 -5.90419,-14.6687 -14.49626,-14.6687 -8.60838,0 -14.48957,5.9659 -14.49626,14.705 -0.005,5.9064 2.65392,10.6827 7.25249,13.03 4.21815,2.1532 12.44916,1.6488 15.97908,-0.9793 z m -14.31223,-6.3558 c -3.72963,-3.7296 -3.90911,-8.1818 -0.46853,-11.6224 5.18797,-5.1879 14.54545,-1.6001 14.54545,5.577 0,3.9816 -4.72633,8.9685 -8.5,8.9685 -1.59987,0 -3.81475,-1.1609 -5.57692,-2.9231 z m -60.15969,-58.1097 c -12.38889,-2.0861 -22.83021,-7.8517 -31.56724,-17.431 -9.4025,-10.309 -13.5977,-21.4772 -13.53651,-36.0362 0.1656,-39.4014 41.96047,-64.4587 78.2094,-46.8889 7.43878,3.6055 19.91046,16.0552 23.43031,23.3889 13.19997,27.5025 2.61676,58.6539 -24.41663,71.8696 -11.26064,5.505 -20.75302,7.0115 -32.11933,5.0976 z m 19.14998,-9.5085 c 13.18073,-3.1069 23.51109,-11.4685 29.74031,-24.0725 6.04516,-12.2315 5.7768,-27.7814 -0.69849,-40.474 -3.5738,-7.0053 -11.66388,-14.659 -19.68496,-18.6232 -6.84595,-3.3835 -8.45554,-3.7659 -17.35308,-4.1233 -7.9174,-0.318 -11.1434,0.012 -16.74146,1.7123 -20.67746,6.2806 -34.15244,28.3624 -30.28085,49.622 4.70379,25.8293 29.43062,41.9901 55.01853,35.9587 z m -17.1329,-5.4891 c -11.84049,-1.9948 -23.49216,-10.8516 -28.5923,-21.7338 -2.38466,-5.0882 -2.68745,-6.9213 -2.68179,-16.2358 0.006,-9.4055 0.2913,-11.0811 2.73976,-16.0749 3.72651,-7.6003 10.8883,-14.6035 18.75386,-18.3385 5.91699,-2.8098 7.39694,-3.0866 16.5,-3.0864 8.86077,2e-4 10.63082,0.3103 15.53727,2.722 11.31498,5.5617 18.59501,14.2775 21.54559,25.7948 5.45727,21.3018 -8.75156,42.7817 -31.01652,46.8885 -6.50069,1.1991 -6.06231,1.1969 -12.78587,0.064 z m 3.71898,-10.9692 c 0.8253,-0.6849 1.50055,-2.535 1.50055,-4.1114 0,-2.3595 -1.10462,-3.6772 -6.25,-7.4554 -3.4375,-2.5241 -7.84292,-5.5224 -9.78982,-6.6628 l -3.53983,-2.0734 3.28983,-9.4423 c 1.8094,-5.1933 3.28938,-10.6377 3.28884,-12.0987 l -9.8e-4,-2.6564 13.13991,0 c 11.27057,0 13.29252,-0.2415 14.21258,-1.6972 1.61262,-2.5516 -0.31737,-6.8638 -4.26161,-9.5219 -2.48268,-1.673 -4.81957,-2.2809 -8.76892,-2.2809 -9.15441,0 -14.32,3.3156 -14.32,9.1915 0,2.1297 -0.364,2.294 -4.37585,1.9749 -3.89427,-0.3097 -4.76408,0.04 -7.90361,3.1797 -5.88395,5.884 -6.90302,16.4798 -2.09584,21.7917 0.9269,1.0242 2.54105,1.8622 3.58699,1.8622 1.76547,0 1.79018,0.1592 0.34501,2.2225 -1.9336,2.7606 -1.98388,6.0591 -0.14598,9.5772 1.79272,3.4315 6.35735,7.779 9.58928,9.133 3.09213,1.2955 10.47902,0.7446 12.49945,-0.9323 z m 20.90383,-1.3588 c 5.85096,-4.4628 8.12978,-10.9085 5.55648,-15.7168 -0.86978,-1.6252 -0.63395,-2.0982 1.4392,-2.8864 4.37164,-1.6621 6.39392,-8.3802 4.56602,-15.1685 -1.351,-5.0172 -7.6513,-11.8699 -10.91307,-11.8699 -3.70152,0 -6.05191,1.861 -6.05191,4.7918 0,4.2138 5.66109,20.4872 7.62703,21.9247 1.59117,1.1635 1.50796,1.2835 -0.8903,1.2835 -1.69364,0 -5.63034,2.2488 -10.94113,6.25 -8.90576,6.7097 -10.36528,9.358 -7.1284,12.9348 2.74016,3.0278 11.84368,2.1884 16.73608,-1.5432 z m -11.42321,-12.3932 c 7.06714,-3.5506 9.87402,-11.8752 6.62556,-19.6498 -3.84522,-9.2029 -17.55139,-10.9802 -24.41272,-3.1655 -4.32459,4.9254 -5.00615,10.3753 -2.03553,16.2764 3.86393,7.6757 12.13176,10.403 19.82269,6.5389 z m -10.48007,-5.415 c -3.221,-1.9136 -4.43428,-4.0888 -4.4682,-8.0108 -0.0504,-5.8232 6.34865,-9.5325 12.4234,-7.2014 1.938,0.7437 4.5448,5.4891 4.5448,8.2734 0,5.046 -8.10906,9.5474 -12.5,6.9388 z m 111.26339,45.1913 c -21.17832,-3.8232 -37.93984,-18.9768 -43.31075,-39.1561 -1.917,-7.2025 -1.84565,-21.1676 0.14274,-27.9371 3.97371,-13.5286 14.23347,-26.439 25.90477,-32.5973 21.23751,-11.2059 47.27606,-7.4469 63.95593,9.233 27.85427,27.8543 16.93089,75.095 -20.35404,88.0258 -7.50292,2.6021 -19.34068,3.695 -26.33865,2.4317 z m 24.34698,-10.9746 c 13.02388,-4.9487 23.1588,-15.5412 27.01404,-28.2338 3.15763,-10.3958 2.43121,-22.9045 -1.86271,-32.0748 -4.38993,-9.3754 -11.77744,-16.8987 -21.1352,-21.5235 -7.42334,-3.6689 -7.68208,-3.718 -19.57464,-3.718 -11.48543,0 -12.36951,0.1505 -18.81039,3.2015 -7.55332,3.5779 -16.46965,11.4242 -20.08232,17.6723 -4.59411,7.9455 -5.91147,13.9379 -5.5011,25.0236 0.34069,9.2038 0.71756,10.9077 3.79547,17.1605 6.03326,12.2566 18.01584,21.6509 31.15481,24.4254 6.44947,1.3618 18.85443,0.4027 25.00204,-1.9332 z m -22.11037,-4.0299 c -13.96395,-2.4315 -25.34117,-12.1416 -30.10064,-25.6899 -2.86166,-8.146 -2.30463,-19.5943 1.34041,-27.5484 3.63633,-7.9351 10.66561,-15.1177 18.6342,-19.0406 6.09948,-3.0028 7.32293,-3.2413 16.62603,-3.2413 9.3031,0 10.52655,0.2385 16.62603,3.2413 7.92932,3.9036 14.95154,11.056 18.69391,19.0406 2.31767,4.9449 2.67996,7.0027 2.67931,15.2181 -8e-4,10.175 -1.50027,15.0215 -7.20265,23.2799 -7.29886,10.5704 -23.79726,17.0909 -37.2966,14.7403 z m 3.29545,-11.2702 2.20455,-2.25 2.21427,2.25 c 1.65752,1.6843 3.36718,2.25 6.79966,2.25 8.41338,0 15.36503,-5.7465 16.22948,-13.4159 0.324,-2.8746 0.056,-5.1209 -0.72296,-6.0595 -1.0283,-1.239 -0.80436,-1.6563 1.32296,-2.4651 8.68551,-3.3022 6.27517,-22.0754 -3.346,-26.0606 -4.4616,-1.848 -8.39201,-0.374 -8.81744,3.3068 -0.4298,3.7189 5.55197,21.4346 7.65104,22.6595 1.40107,0.8176 1.26423,0.9789 -0.85242,1.0044 -2.32311,0.028 -13.33288,7.247 -18.72859,12.2802 -1.2375,1.1544 -2.25,1.5736 -2.25,0.9317 0,-1.2676 -13.30064,-11.4501 -17.39047,-13.3136 -2.33444,-1.0636 -2.41969,-1.3358 -1.17684,-3.7573 2.04645,-3.9872 6.70022,-19.3224 6.23233,-20.5368 -0.28524,-0.7404 3.44394,-0.9705 12.00867,-0.7412 13.58318,0.3636 15.32631,-0.1801 15.32631,-4.7807 0,-2.7336 -2.60963,-5.8284 -6.68426,-7.9269 -2.6535,-1.3667 -11.26216,-1.4761 -14.65461,-0.1863 -3.61055,1.3728 -6.66113,5.059 -6.66113,8.0491 0,2.3752 -0.30367,2.5751 -3.36791,2.2174 -7.64,-0.8919 -13.63209,6.4293 -13.63209,16.656 0,4.2192 0.47428,5.704 2.45455,7.6842 1.35,1.35 3.16037,2.4546 4.02305,2.4546 1.40687,0 1.4,0.2572 -0.0667,2.4956 -3.42538,5.2278 1.08089,14.0059 9.0477,17.6247 5.5754,2.5326 10.12107,2.4015 12.83682,-0.3703 z m 9.63509,-13.2141 c 5.32993,-2.7562 8.06987,-7.1257 8.06572,-12.8626 -0.005,-6.8865 -2.69205,-11.2089 -8.59017,-13.8179 -7.52695,-3.3295 -15.32414,-0.7821 -18.92607,6.1832 -1.96748,3.8047 -1.88014,11.4755 0.17019,14.9464 3.56043,6.0273 13.06655,8.7642 19.28033,5.5509 z m -9.57354,-5.5059 c -5.4495,-2.254 -6.99505,-9.4828 -2.90245,-13.5755 5.12841,-5.1284 14.54545,-1.6037 14.54545,5.4443 0,5.6575 -6.55518,10.2355 -11.643,8.1312 z"
         id="path5006"
         inkscape:connector-curvature="0" />
      <path
         style="fill:#ba1920"
         d="m 547.98038,-1563.3512 c -29.22966,-4.3962 -53.06761,-25.5772 -60.2095,-53.4985 -1.68438,-6.5851 -1.7905,-16.5718 -1.7905,-168.5 l 0,-161.5 2.30316,-7.9549 c 7.52619,-25.9949 28.53399,-45.4364 55.14583,-51.0344 6.16476,-1.2968 23.32193,-1.5107 121.15854,-1.5107 127.30739,0 122.04782,-0.2678 137.62113,7.0066 20.0835,9.3811 34.01539,25.9428 39.3415,46.7677 1.86749,7.3018 1.92928,12.7341 1.91248,168.1357 -0.0144,133.4688 -0.25282,161.7007 -1.41156,167.1669 -5.82736,27.4898 -29.21021,49.2514 -58.57108,54.51 -6.00355,1.0753 -29.7473,1.3254 -119,1.2535 -61.325,-0.049 -113.75,-0.4283 -116.5,-0.8419 z m 240.09004,-4.9978 c 20.83922,-5.2671 37.2657,-18.6772 45.93573,-37.5007 6.33594,-13.756 5.97423,-2.888 5.97423,-179.5 0,-151.5898 -0.10891,-161.8944 -1.77485,-167.9278 -5.25457,-19.0298 -18.38474,-34.7758 -36.27186,-43.498 -15.35136,-7.4856 -7.35769,-7.0742 -137.45329,-7.0742 -131.11412,0 -120.91318,-0.5739 -138,7.7642 -12.01502,5.8632 -23.9341,17.7379 -29.847,29.7358 -7.55774,15.3355 -7.11626,4.1185 -7.13564,181.3026 -0.0192,176.0395 -0.39216,165.7544 6.53358,180.1974 6.65573,13.8799 17.04911,24.1488 31.94906,31.5663 14.19251,7.0654 8.22436,6.7659 136.59004,6.8542 112.41128,0.077 115.80756,0.024 123.5,-1.9198 z m -193.94509,-60.5173 c -26.92653,-6.8282 -44.85108,-33.244 -40.70202,-59.9834 3.23519,-20.8498 19.64912,-38.6674 40.51717,-43.9821 33.02202,-8.41 66.5399,17.6819 66.5399,51.7978 0,22.6391 -14.11345,42.5042 -35.82129,50.4196 -8.52559,3.1087 -22.10302,3.886 -30.53376,1.7481 z m 23.85505,-8.8428 c 20.13849,-5.3794 33.5,-22.5315 33.5,-43.0037 0,-25.0139 -19.53364,-44.6663 -44.35534,-44.625 -13.54204,0.023 -23.97525,4.4603 -33.18438,14.1151 -22.96279,24.0741 -11.53726,64.6364 20.64435,73.2905 6.85835,1.8443 16.96553,1.9407 23.39537,0.2231 z m -20.5,-6.0144 c -11.49902,-3.1657 -20.19287,-10.2071 -25.21943,-20.4258 -3.07926,-6.26 -3.28005,-7.3145 -3.27218,-17.1848 0.008,-9.8589 0.20662,-10.8958 3.18268,-16.6037 4.03567,-7.7402 12.46267,-15.5341 20.06227,-18.5551 4.46303,-1.7741 7.75699,-2.2897 14.74666,-2.308 8.04989,-0.021 9.70738,0.3101 15.70071,3.1381 8.52877,4.0245 15.08165,10.5748 19.11991,19.1124 2.8281,5.9791 3.16942,7.6699 3.16942,15.7007 0,7.9919 -0.34641,9.7281 -3.09243,15.5 -8.11766,17.0625 -27.20407,26.3596 -44.39761,21.6262 z m 21.21895,-8.6702 c 9.03259,-2.5086 15.26045,-12.4547 11.82183,-18.8798 -0.76626,-1.4318 -0.45407,-2.0225 1.55196,-2.9365 5.65191,-2.5752 6.75836,-13.3114 2.09378,-20.3164 -4.96345,-7.4539 -14.69427,-8.5133 -14.67955,-1.598 0.008,3.6576 4.29225,17.0489 6.56678,20.5247 1.32079,2.0184 1.30291,2.25 -0.17371,2.25 -1.60835,0 -12.67449,7.3096 -17.15004,11.3283 -2.69249,2.4176 -2.9063,5.79 -0.5,7.8862 3.28229,2.8594 5.25957,3.1883 10.46895,1.7415 z m -15.44146,-1.5127 c 2.45447,-1.7192 2.90547,-5.2329 0.97251,-7.5768 -1.65118,-2.0022 -14.75435,-11.3792 -17.04312,-12.1965 -1.51192,-0.5399 -1.60838,-0.9855 -0.61509,-2.8415 1.88337,-3.5191 5.87679,-17.0776 5.8932,-20.0087 0.0143,-2.5458 0.17766,-2.6335 3.25841,-1.75 4.70172,1.3484 18.83171,1.1149 21.7566,-0.3596 5.00268,-2.5219 2.96949,-9.5715 -3.54566,-12.2937 -9.12317,-3.8119 -21.45434,0.6326 -21.45434,7.7328 0,2.5773 -0.23881,2.7529 -2.99401,2.2019 -4.55998,-0.912 -8.75332,1.3615 -11.66031,6.3219 -4.8829,8.3321 -2.72815,19.3377 3.94264,20.1375 2.56356,0.3073 2.57033,0.3308 0.6511,2.25 -8.4268,8.4268 10.81615,25.4023 20.83807,18.3827 z m 13.91092,-16.6651 c 2.90621,-2.9062 3.67712,-4.5269 4.06289,-8.5417 0.92839,-9.662 -4.89451,-16.24 -14.36933,-16.2328 -9.07515,0.01 -14.81874,5.5948 -14.79925,14.3978 0.0211,9.5107 5.99634,14.9606 15.7181,14.3362 5.08335,-0.3266 6.24445,-0.8163 9.38759,-3.9595 z m -16.23386,-4.2328 c -5.18798,-5.1879 -1.60019,-14.5454 5.57692,-14.5454 3.98168,0 8.96853,4.7263 8.96853,8.5 0,1.5999 -1.16091,3.8147 -2.92308,5.5769 -3.72963,3.7296 -8.1818,3.9091 -11.62237,0.4685 z m 109.8212,45.9432 c -18.26099,-3.9679 -35.05835,-20.0386 -39.74284,-38.0236 -2.00149,-7.6842 -1.971,-21.6105 0.0625,-28.5335 6.43496,-21.9079 25.61174,-37.2076 48.40462,-38.6183 16.45038,-1.0182 31.10368,4.7532 42.35778,16.6832 10.13438,10.743 14.61848,21.9402 14.61848,36.5036 0,15.1134 -4.64915,26.314 -15.39964,37.1001 -13.72471,13.7702 -31.38733,18.9981 -50.30087,14.8885 z m 22.61247,-8.5491 c 12.77548,-2.9453 24.69087,-12.6053 30.39017,-24.6379 3.07197,-6.4857 3.22161,-7.359 3.22161,-18.8016 0,-11.3981 -0.15872,-12.335 -3.16452,-18.6796 -7.62148,-16.0873 -23.0146,-25.8204 -40.83548,-25.8204 -17.97098,0 -33.1433,9.582 -40.81502,25.7767 -3.03188,6.4001 -3.18498,7.3026 -3.18498,18.7752 0,11.8971 0.0478,12.1486 3.72581,19.5905 5.7042,11.5417 15.87579,20.0506 27.79843,23.2545 6.42987,1.7279 16.66858,1.9708 22.86398,0.5426 z m -18.65615,-6 c -10.91407,-2.1515 -21.97906,-11.1022 -27.122,-21.9395 -2.27276,-4.7892 -2.61007,-6.7924 -2.61007,-15.5 0,-8.715 0.33862,-10.7222 2.63517,-15.62 10.14019,-21.626 36.85321,-29.3886 56.48635,-16.4146 10.16506,6.7173 16.15197,16.9045 17.09248,29.0843 1.97639,25.5944 -20.86282,45.4402 -46.48193,40.3898 z m 23.86949,-10.5089 c 4.76331,-2.4323 8.9,-8.1208 8.88313,-12.2154 -0.008,-2.0434 -0.41732,-4.3503 -0.90866,-5.1264 -0.64755,-1.023 -0.0243,-1.9952 2.26532,-3.5337 6.33088,-4.2539 5.92869,-15.6611 -0.79123,-22.4415 -2.7268,-2.7513 -4.12448,-3.3863 -7.45315,-3.3863 -3.52032,0 -4.09697,-0.3014 -4.09697,-2.1412 0,-5.2034 -6.35617,-9.5861 -13.90278,-9.5861 -7.63199,0 -14.09722,4.1639 -14.09722,9.0792 0,2.5842 -0.20348,2.7032 -3.79886,2.2209 -7.11777,-0.9546 -13.20114,6.6641 -13.20114,16.5329 0,5.9822 2.78954,10.1516 6.82258,10.1974 2.22151,0.025 2.39274,0.1965 1.00557,1.006 -2.8364,1.655 -3.23536,6.4951 -0.92548,11.2275 2.65418,5.4377 7.77674,8.9028 14.05309,9.5059 4.18933,0.4025 5.24115,0.1242 7.2959,-1.9306 l 2.40087,-2.4008 1.66732,2.2104 c 2.63154,3.4887 8.838,3.817 14.78171,0.7818 z m -17.10156,-6.3625 c 0,-1.0535 -15.49823,-12.3767 -18.36262,-13.4159 -1.32878,-0.4822 -1.57539,-1.0307 -0.86045,-1.914 1.55365,-1.9195 7.37556,-20.8984 6.83936,-22.2958 -0.3693,-0.9623 0.35336,-1.0128 3.20341,-0.2236 2.02417,0.5605 8.0678,0.809 13.4303,0.5523 9.46847,-0.4533 9.75,-0.4044 9.75,1.6935 0,2.6816 5.65257,19.588 6.99952,20.9349 0.64913,0.6491 0.0331,1.3879 -1.80005,2.1587 -3.6479,1.5338 -17.19947,11.4336 -17.19947,12.5647 0,0.4824 -0.45,0.8771 -1,0.8771 -0.55,0 -1,-0.4193 -1,-0.9319 z m 8.58311,-7.6746 c 4.69635,-2.2285 7.41775,-7.0051 7.41315,-13.0115 -0.007,-8.9457 -5.48633,-14.382 -14.49626,-14.382 -8.97354,0 -14.48936,5.441 -14.49626,14.2997 -0.002,2.6398 0.65447,6.0724 1.45894,7.6281 3.30682,6.3947 12.7544,8.9611 20.12043,5.4657 z m -11.08311,-5.6013 c -3.12644,-1.793 -4.4337,-4.0129 -4.4682,-7.5877 -0.0717,-7.4307 8.96023,-10.9397 14.33184,-5.5681 3.58123,3.5812 3.47863,7.6752 -0.28672,11.4405 -3.06925,3.0693 -6.22915,3.6352 -9.57692,1.7153 z m -66.5,-58.3588 c -10.36314,-2.2442 -18.59416,-6.8535 -26.51898,-14.8505 -10.81493,-10.9134 -15.44687,-22.0291 -15.46915,-37.1228 -0.0222,-15.0704 5.04757,-27.4084 15.59735,-37.9582 10.99112,-10.9911 25.47549,-16.2913 41.68266,-15.2525 10.25451,0.6572 18.27731,3.4431 26.95731,9.3608 14.76137,10.0639 22.76603,25.5001 22.73894,43.8499 -0.0223,15.0937 -4.65422,26.2094 -15.46915,37.1228 -8.05655,8.1299 -16.20592,12.6259 -27.01898,14.9062 -8.53602,1.8001 -13.99268,1.7866 -22.5,-0.056 z m 22.3067,-8.9251 c 13.47062,-3.5086 23.7602,-11.8029 29.75793,-23.9873 3.33626,-6.7776 3.43537,-7.3257 3.43537,-19 0,-11.4507 -0.15188,-12.3416 -3.20145,-18.7795 -4.44667,-9.3873 -11.85535,-16.919 -21.17205,-21.5235 -7.42334,-3.6689 -7.68208,-3.718 -19.57464,-3.718 -11.48543,0 -12.36951,0.1505 -18.81039,3.2014 -9.38728,4.4467 -16.91895,11.8554 -21.52351,21.1721 -3.6699,7.4255 -3.71796,7.6788 -3.71796,19.5957 0,11.7333 0.0966,12.2691 3.43537,19.0518 9.44188,19.1812 31.06297,29.277 51.37133,23.9873 z m -18.037,-5.5122 c -19.55877,-4.0921 -32.31592,-20.7921 -31.04238,-40.6366 0.87602,-13.6502 9.62025,-26.1239 22.55461,-32.1741 5.00146,-2.3395 6.97394,-2.6754 15.7391,-2.68 9.28491,-0.01 10.50466,0.2327 16.605,3.2359 30.70115,15.1141 28.26337,59.3311 -3.89662,70.6778 -5.53187,1.9517 -14.7046,2.6765 -19.95971,1.577 z m 4.02575,-11.2461 2.20455,-2.25 2.21427,2.25 c 1.65752,1.6843 3.36718,2.25 6.79966,2.25 5.57671,0 9.1849,-1.754 13.33763,-6.4837 2.51234,-2.8614 3.14844,-4.4761 3.14844,-7.9921 0,-2.4234 -0.48739,-4.7074 -1.08308,-5.0756 -0.64215,-0.3968 0.18224,-1.4388 2.02492,-2.5594 3.95803,-2.407 5.3855,-6.1241 4.68829,-12.2081 -1.02314,-8.9283 -7.93766,-15.8247 -14.27216,-14.2348 -2.06339,0.5179 -2.35797,0.2364 -2.35797,-2.2529 0,-5.1431 -6.16801,-9.1934 -14,-9.1934 -7.64981,0 -14,4.0599 -14,8.9507 0,2.4122 -0.2788,2.5756 -3.81896,2.2379 -7.20413,-0.687 -13.18104,6.8604 -13.18104,16.6444 0,5.4427 2.78614,10.167 5.99594,10.167 1.73642,0 1.75502,0.1919 0.30104,3.1065 -5.1839,10.3914 13.94455,24.8635 21.99847,16.6435 z m 1.70455,-5.5236 c 0,-1.24 -13.53994,-11.604 -17.54252,-13.4277 -1.55385,-0.708 -2.12966,-1.5101 -1.58339,-2.2057 1.48032,-1.8848 7.33714,-20.6003 6.84627,-21.8772 -0.35254,-0.9171 2.81818,-1.2158 12.90501,-1.2158 l 13.37238,0 0.0132,2.5 c 0.0207,3.9245 5.83755,20.3621 7.69679,21.75 1.50725,1.1251 1.44857,1.25 -0.5874,1.25 -2.23096,0 -13.01641,6.9626 -18.37032,11.8591 -1.5125,1.3833 -2.75,1.9986 -2.75,1.3673 z m 10.23531,-8.7937 c 3.95394,-2.9438 5.76507,-6.7437 5.76095,-12.087 -0.007,-8.7011 -5.90419,-14.6687 -14.49626,-14.6687 -8.60838,0 -14.48957,5.9659 -14.49626,14.705 -0.005,5.9064 2.65392,10.6827 7.25249,13.03 4.21815,2.1532 12.44916,1.6488 15.97908,-0.9793 z m -14.31223,-6.3558 c -3.72963,-3.7296 -3.90911,-8.1818 -0.46853,-11.6224 5.18797,-5.1879 14.54545,-1.6001 14.54545,5.577 0,3.9816 -4.72633,8.9685 -8.5,8.9685 -1.59987,0 -3.81475,-1.1609 -5.57692,-2.9231 z m -60.15969,-58.1097 c -12.38889,-2.0861 -22.83021,-7.8517 -31.56724,-17.431 -9.4025,-10.309 -13.5977,-21.4772 -13.53651,-36.0362 0.1656,-39.4014 41.96047,-64.4587 78.2094,-46.8889 7.43878,3.6055 19.91046,16.0552 23.43031,23.3889 13.19997,27.5025 2.61676,58.6539 -24.41663,71.8696 -11.26064,5.505 -20.75302,7.0115 -32.11933,5.0976 z m 19.14998,-9.5085 c 13.18073,-3.1069 23.51109,-11.4685 29.74031,-24.0725 6.04516,-12.2315 5.7768,-27.7814 -0.69849,-40.474 -3.5738,-7.0053 -11.66388,-14.659 -19.68496,-18.6232 -6.84595,-3.3835 -8.45554,-3.7659 -17.35308,-4.1233 -7.9174,-0.318 -11.1434,0.012 -16.74146,1.7123 -20.67746,6.2806 -34.15244,28.3624 -30.28085,49.622 4.70379,25.8293 29.43062,41.9901 55.01853,35.9587 z m -17.1329,-5.4891 c -11.84049,-1.9948 -23.49216,-10.8516 -28.5923,-21.7338 -2.38466,-5.0882 -2.68745,-6.9213 -2.68179,-16.2358 0.006,-9.4055 0.2913,-11.0811 2.73976,-16.0749 3.72651,-7.6003 10.8883,-14.6035 18.75386,-18.3385 5.91699,-2.8098 7.39694,-3.0866 16.5,-3.0864 8.86077,2e-4 10.63082,0.3103 15.53727,2.722 11.31498,5.5617 18.59501,14.2775 21.54559,25.7948 5.45727,21.3018 -8.75156,42.7817 -31.01652,46.8885 -6.50069,1.1991 -6.06231,1.1969 -12.78587,0.064 z m 3.71898,-10.9692 c 0.8253,-0.6849 1.50055,-2.535 1.50055,-4.1114 0,-2.3595 -1.10462,-3.6772 -6.25,-7.4554 -3.4375,-2.5241 -7.84292,-5.5224 -9.78982,-6.6628 l -3.53983,-2.0734 3.28983,-9.4423 c 1.8094,-5.1933 3.28938,-10.6377 3.28884,-12.0987 l -9.8e-4,-2.6564 13.13991,0 c 11.27057,0 13.29252,-0.2415 14.21258,-1.6972 1.61262,-2.5516 -0.31737,-6.8638 -4.26161,-9.5219 -2.48268,-1.673 -4.81957,-2.2809 -8.76892,-2.2809 -9.15441,0 -14.32,3.3156 -14.32,9.1915 0,2.1297 -0.364,2.294 -4.37585,1.9749 -3.89427,-0.3097 -4.76408,0.04 -7.90361,3.1797 -5.88395,5.884 -6.90302,16.4798 -2.09584,21.7917 0.9269,1.0242 2.54105,1.8622 3.58699,1.8622 1.76547,0 1.79018,0.1592 0.34501,2.2225 -1.9336,2.7606 -1.98388,6.0591 -0.14598,9.5772 1.79272,3.4315 6.35735,7.779 9.58928,9.133 3.09213,1.2955 10.47902,0.7446 12.49945,-0.9323 z m 20.90383,-1.3588 c 5.85096,-4.4628 8.12978,-10.9085 5.55648,-15.7168 -0.86978,-1.6252 -0.63395,-2.0982 1.4392,-2.8864 4.37164,-1.6621 6.39392,-8.3802 4.56602,-15.1685 -1.351,-5.0172 -7.6513,-11.8699 -10.91307,-11.8699 -3.70152,0 -6.05191,1.861 -6.05191,4.7918 0,4.2138 5.66109,20.4872 7.62703,21.9247 1.59117,1.1635 1.50796,1.2835 -0.8903,1.2835 -1.69364,0 -5.63034,2.2488 -10.94113,6.25 -8.90576,6.7097 -10.36528,9.358 -7.1284,12.9348 2.74016,3.0278 11.84368,2.1884 16.73608,-1.5432 z m -11.42321,-12.3932 c 7.06714,-3.5506 9.87402,-11.8752 6.62556,-19.6498 -3.84522,-9.2029 -17.55139,-10.9802 -24.41272,-3.1655 -4.32459,4.9254 -5.00615,10.3753 -2.03553,16.2764 3.86393,7.6757 12.13176,10.403 19.82269,6.5389 z m -10.48007,-5.415 c -3.221,-1.9136 -4.43428,-4.0888 -4.4682,-8.0108 -0.0504,-5.8232 6.34865,-9.5325 12.4234,-7.2014 1.938,0.7437 4.5448,5.4891 4.5448,8.2734 0,5.046 -8.10906,9.5474 -12.5,6.9388 z m 111.26339,45.1913 c -21.17832,-3.8232 -37.93984,-18.9768 -43.31075,-39.1561 -1.917,-7.2025 -1.84565,-21.1676 0.14274,-27.9371 3.97371,-13.5286 14.23347,-26.439 25.90477,-32.5973 21.23751,-11.2059 47.27606,-7.4469 63.95593,9.233 27.85427,27.8543 16.93089,75.095 -20.35404,88.0258 -7.50292,2.6021 -19.34068,3.695 -26.33865,2.4317 z m 24.34698,-10.9746 c 13.02388,-4.9487 23.1588,-15.5412 27.01404,-28.2338 3.15763,-10.3958 2.43121,-22.9045 -1.86271,-32.0748 -4.38993,-9.3754 -11.77744,-16.8987 -21.1352,-21.5235 -7.42334,-3.6689 -7.68208,-3.718 -19.57464,-3.718 -11.48543,0 -12.36951,0.1505 -18.81039,3.2015 -7.55332,3.5779 -16.46965,11.4242 -20.08232,17.6723 -4.59411,7.9455 -5.91147,13.9379 -5.5011,25.0236 0.34069,9.2038 0.71756,10.9077 3.79547,17.1605 6.03326,12.2566 18.01584,21.6509 31.15481,24.4254 6.44947,1.3618 18.85443,0.4027 25.00204,-1.9332 z m -22.11037,-4.0299 c -13.96395,-2.4315 -25.34117,-12.1416 -30.10064,-25.6899 -2.86166,-8.146 -2.30463,-19.5943 1.34041,-27.5484 3.63633,-7.9351 10.66561,-15.1177 18.6342,-19.0406 6.09948,-3.0028 7.32293,-3.2413 16.62603,-3.2413 9.3031,0 10.52655,0.2385 16.62603,3.2413 7.92932,3.9036 14.95154,11.056 18.69391,19.0406 2.31767,4.9449 2.67996,7.0027 2.67931,15.2181 -8e-4,10.175 -1.50027,15.0215 -7.20265,23.2799 -7.29886,10.5704 -23.79726,17.0909 -37.2966,14.7403 z m 3.29545,-11.2702 2.20455,-2.25 2.21427,2.25 c 1.65752,1.6843 3.36718,2.25 6.79966,2.25 8.41338,0 15.36503,-5.7465 16.22948,-13.4159 0.324,-2.8746 0.056,-5.1209 -0.72296,-6.0595 -1.0283,-1.239 -0.80436,-1.6563 1.32296,-2.4651 8.68551,-3.3022 6.27517,-22.0754 -3.346,-26.0606 -4.4616,-1.848 -8.39201,-0.374 -8.81744,3.3068 -0.4298,3.7189 5.55197,21.4346 7.65104,22.6595 1.40107,0.8176 1.26423,0.9789 -0.85242,1.0044 -2.32311,0.028 -13.33288,7.247 -18.72859,12.2802 -1.2375,1.1544 -2.25,1.5736 -2.25,0.9317 0,-1.2676 -13.30064,-11.4501 -17.39047,-13.3136 -2.33444,-1.0636 -2.41969,-1.3358 -1.17684,-3.7573 2.04645,-3.9872 6.70022,-19.3224 6.23233,-20.5368 -0.28524,-0.7404 3.44394,-0.9705 12.00867,-0.7412 13.58318,0.3636 15.32631,-0.1801 15.32631,-4.7807 0,-2.7336 -2.60963,-5.8284 -6.68426,-7.9269 -2.6535,-1.3667 -11.26216,-1.4761 -14.65461,-0.1863 -3.61055,1.3728 -6.66113,5.059 -6.66113,8.0491 0,2.3752 -0.30367,2.5751 -3.36791,2.2174 -7.64,-0.8919 -13.63209,6.4293 -13.63209,16.656 0,4.2192 0.47428,5.704 2.45455,7.6842 1.35,1.35 3.16037,2.4546 4.02305,2.4546 1.40687,0 1.4,0.2572 -0.0667,2.4956 -3.42538,5.2278 1.08089,14.0059 9.0477,17.6247 5.5754,2.5326 10.12107,2.4015 12.83682,-0.3703 z m 9.63509,-13.2141 c 5.32993,-2.7562 8.06987,-7.1257 8.06572,-12.8626 -0.005,-6.8865 -2.69205,-11.2089 -8.59017,-13.8179 -7.52695,-3.3295 -15.32414,-0.7821 -18.92607,6.1832 -1.96748,3.8047 -1.88014,11.4755 0.17019,14.9464 3.56043,6.0273 13.06655,8.7642 19.28033,5.5509 z m -9.57354,-5.5059 c -5.4495,-2.254 -6.99505,-9.4828 -2.90245,-13.5755 5.12841,-5.1284 14.54545,-1.6037 14.54545,5.4443 0,5.6575 -6.55518,10.2355 -11.643,8.1312 z"
         id="path5004"
         inkscape:connector-curvature="0" />
      <path
         style="fill:#010101"
         d="m 547.98038,-1563.3512 c -29.22966,-4.3962 -53.06761,-25.5772 -60.2095,-53.4985 -1.68438,-6.5851 -1.7905,-16.5718 -1.7905,-168.5 l 0,-161.5 2.30316,-7.9549 c 7.52619,-25.9949 28.53399,-45.4364 55.14583,-51.0344 6.16476,-1.2968 23.32193,-1.5107 121.15854,-1.5107 127.30739,0 122.04782,-0.2678 137.62113,7.0066 20.0835,9.3811 34.01539,25.9428 39.3415,46.7677 1.86749,7.3018 1.92928,12.7341 1.91248,168.1357 -0.0144,133.4688 -0.25282,161.7007 -1.41156,167.1669 -5.82736,27.4898 -29.21021,49.2514 -58.57108,54.51 -6.00355,1.0753 -29.7473,1.3254 -119,1.2535 -61.325,-0.049 -113.75,-0.4283 -116.5,-0.8419 z m 240.09004,-4.9978 c 20.83922,-5.2671 37.2657,-18.6772 45.93573,-37.5007 6.33594,-13.756 5.97423,-2.888 5.97423,-179.5 0,-151.5898 -0.10891,-161.8944 -1.77485,-167.9278 -5.25457,-19.0298 -18.38474,-34.7758 -36.27186,-43.498 -15.35136,-7.4856 -7.35769,-7.0742 -137.45329,-7.0742 -131.11412,0 -120.91318,-0.5739 -138,7.7642 -12.01502,5.8632 -23.9341,17.7379 -29.847,29.7358 -7.55774,15.3355 -7.11626,4.1185 -7.13564,181.3026 -0.0192,176.0395 -0.39216,165.7544 6.53358,180.1974 6.65573,13.8799 17.04911,24.1488 31.94906,31.5663 14.19251,7.0654 8.22436,6.7659 136.59004,6.8542 112.41128,0.077 115.80756,0.024 123.5,-1.9198 z"
         id="path5002"
         inkscape:connector-curvature="0" />
    </g>
  </g>
</svg>
