<?xml version="1.0" encoding="UTF-8" standalone="no"?>
<!-- Created with Inkscape (http://www.inkscape.org/) -->

<svg
   xmlns:dc="http://purl.org/dc/elements/1.1/"
   xmlns:cc="http://creativecommons.org/ns#"
   xmlns:rdf="http://www.w3.org/1999/02/22-rdf-syntax-ns#"
   xmlns:svg="http://www.w3.org/2000/svg"
   xmlns="http://www.w3.org/2000/svg"
   xmlns:sodipodi="http://sodipodi.sourceforge.net/DTD/sodipodi-0.dtd"
   xmlns:inkscape="http://www.inkscape.org/namespaces/inkscape"
   width="357.92572"
   height="445.8728"
   id="svg2"
   version="1.1"
   inkscape:version="0.48.5 r10040"
   sodipodi:docname="circ4.svg">
  <defs
     id="defs4" />
  <sodipodi:namedview
     id="base"
     pagecolor="#ffffff"
     bordercolor="#666666"
     borderopacity="1.0"
     inkscape:pageopacity="0.0"
     inkscape:pageshadow="2"
     inkscape:zoom="0.56054688"
     inkscape:cx="-66.150662"
     inkscape:cy="506.80752"
     inkscape:document-units="px"
     inkscape:current-layer="layer1"
     showgrid="false"
     fit-margin-top="0"
     fit-margin-left="0"
     fit-margin-right="0"
     fit-margin-bottom="0"
     inkscape:window-width="958"
     inkscape:window-height="1078"
     inkscape:window-x="1920"
     inkscape:window-y="0"
     inkscape:window-maximized="0" />
  <metadata
     id="metadata7">
    <rdf:RDF>
      <cc:Work
         rdf:about="">
        <dc:format>image/svg+xml</dc:format>
        <dc:type
           rdf:resource="http://purl.org/dc/dcmitype/StillImage" />
        <dc:title></dc:title>
      </cc:Work>
    </rdf:RDF>
  </metadata>
  <g
     inkscape:label="Layer 1"
     inkscape:groupmode="layer"
     id="layer1"
     transform="translate(-1297.82,242.98845)">
    <g
       id="g3857"
       transform="translate(221.21254,531.62369)">
      <path
         style="fill:#c2c5cd"
         d="m 1138.113,-329.61559 c -21.8691,-3.28915 -41.5503,-16.32856 -52.3124,-34.65852 -1.6663,-2.83803 -4.3027,-8.46303 -5.8586,-12.5 l -2.829,-7.33996 0,-167.5 0,-167.5 2.6792,-7.3346 c 5.3378,-14.61284 15.2094,-27.28136 27.7593,-35.62453 8.3946,-5.58067 14.3721,-8.16215 24.5615,-10.60719 7.6474,-1.83506 13.0596,-1.91998 122.7922,-1.92667 130.2278,-0.008 123.15,-0.40905 140.236,7.94708 17.3135,8.46739 29.4625,21.98464 35.8865,39.92816 l 3.0853,8.61775 0.2794,163.5 c 0.3094,181.08143 0.6664,170.41033 -6.1757,184.60169 -10.555,21.89212 -30.5503,36.40491 -55.6037,40.35768 -7.5768,1.19541 -226.569,1.23194 -234.5,0.0391 z m 244.5,-6.83993 c 19.7316,-7.1078 33.1633,-18.94387 41.6621,-36.71285 6.6753,-13.95633 6.4086,-5.99034 6.1088,-182.46794 l -0.2709,-159.47776 -2.9163,-8.35223 c -8.5191,-24.39884 -28.5075,-41.20105 -54.3112,-45.65405 -7.9012,-1.36352 -23.202,-1.51862 -121.9039,-1.23572 -126.6914,0.36312 -116.4292,-0.2531 -133.3686,8.00853 -12.1151,5.90874 -24.075,17.85366 -29.8084,29.77094 -7.6947,15.99408 -7.2828,5.09362 -6.9703,184.46253 l 0.2787,160 2.8229,8 c 6.6151,18.74673 19.1454,32.39669 37.2926,40.62506 13.1252,5.95124 8.3246,5.75634 136.8845,5.55747 l 118,-0.18253 6.5,-2.34145 z m -198.355,-58.6753 c -24.2635,-6.15224 -40.9562,-27.54313 -40.9562,-52.48325 0,-17.88165 7.9014,-33.6114 21.9024,-43.60231 9.0917,-6.48772 17.7334,-9.51152 28.9088,-10.11542 17.0025,-0.91879 30.207,4.14248 42.0218,16.10698 10.5823,10.71632 15.4782,22.61305 15.4782,37.61075 0,23.10153 -13.8379,42.70348 -35.8213,50.74221 -8.5332,3.12037 -22.9539,3.91656 -31.5337,1.74104 z m 23.855,-9.8426 c 10.7059,-2.85979 18.7757,-8.30976 25.1889,-17.01137 11.1806,-15.16995 10.9893,-37.04299 -0.4557,-52.10538 -13.4444,-17.69383 -37.4928,-22.59578 -57.5627,-11.73338 -6.2124,3.36233 -14.7779,12.62972 -18.0332,19.51089 -9.6432,20.38391 -1.6121,45.25243 18.4016,56.98122 9.0409,5.29833 22.2847,7.07636 32.4611,4.35802 z m -20.5,-5.01449 c -11.4919,-3.16373 -20.1902,-10.20588 -25.2194,-20.41766 -3.0786,-6.25097 -3.2806,-7.31013 -3.2806,-17.20041 0,-9.8844 0.2034,-10.95284 3.2741,-17.19537 4.0727,-8.27954 11.9632,-15.76765 19.9792,-18.96035 4.5482,-1.81147 7.728,-2.29392 15.2467,-2.31326 8.5942,-0.0221 10.1315,0.27408 16.1234,3.10643 9.2456,4.37042 14.1981,9.20204 18.6318,18.17713 3.5384,7.16279 3.7444,8.1067 3.7375,17.12893 -0.01,8.6359 -0.31,10.18876 -3.1744,16.24911 -8.1327,17.20678 -27.4568,26.34274 -45.3183,21.42545 z m 21.3208,-9.69828 c 5.3468,-1.48474 11.4637,-7.26209 12.2766,-11.59522 0.8593,-4.58045 -0.8739,-8.34161 -3.826,-8.3028 -3.1865,0.0419 -19.7714,12.46301 -19.7714,14.80765 0,1.90861 2.3599,4.48229 5,5.45305 2.1662,0.7965 2.1411,0.79794 6.3208,-0.36268 z m -15.5433,-1.48458 c 4.3047,-3.0151 2.9295,-5.80112 -6.0275,-12.21119 -10.3211,-7.3863 -11.2535,-7.72858 -13.8853,-5.09685 -4.1797,4.17973 -0.3213,12.94477 7.3755,16.75462 5.0528,2.50105 9.4778,2.69638 12.5373,0.55342 z m 13.9028,-16.65697 c 8.9792,-8.97919 3.0044,-23.78633 -9.598,-23.78633 -10.8521,0 -17.494,9.7596 -13.2189,19.42399 2.7762,6.27614 7.034,8.80597 13.9581,8.29347 4.4922,-0.33249 5.8729,-0.94514 8.8588,-3.93113 z m -14.1803,-1.94106 c -5.2213,-2.85584 -6.2616,-10.1746 -2.0454,-14.39072 5.3301,-5.33013 15.5454,-1.02894 15.5454,6.54545 0,6.41142 -7.8166,10.95387 -13.5,7.84527 z m 30.2482,-2.38145 c 5.3821,-3.7698 4.9831,-14.28345 -0.7918,-20.86066 -3.1796,-3.62137 -6.3479,-4.74233 -9.7973,-3.4663 -2.8185,1.04262 -2.7443,3.44455 0.4129,13.36314 3.9291,12.34345 5.6143,14.15911 10.1762,10.96382 z m -46.6813,-1.58885 c 2.2677,-4.23723 5.9331,-16.30329 5.9331,-19.53107 0,-2.74232 -0.4518,-3.4192 -2.6507,-3.97108 -3.7065,-0.93028 -8.5997,1.94876 -11.2122,6.59695 -2.8704,5.10735 -2.9007,12.78976 -0.064,16.39537 2.5402,3.22937 6.4069,3.47596 7.9943,0.50983 z m 32.5976,-23.10925 c 3.848,-3.85164 -1.9806,-10.59617 -9.9317,-11.49237 -8.5251,-0.9609 -16.218,3.65359 -15.5593,9.33296 0.4251,3.66489 2.8181,4.33775 14.5424,4.08912 7.2303,-0.15332 9.5893,-0.5691 10.9486,-1.92971 z m 92.9039,72.06882 c -18.7913,-3.58853 -36.0541,-19.94861 -41.1156,-38.9655 -1.6625,-6.24611 -1.8593,-20.39284 -0.3734,-26.84123 3.2676,-14.1806 14.7338,-28.37988 28.3123,-35.06082 9.8932,-4.86772 17.45,-6.36331 28.6083,-5.66198 23.0751,1.45034 42.782,17.40353 48.4688,39.23654 1.7456,6.70188 1.978,20.8075 0.4518,27.43064 -3.0862,13.39338 -14.4058,27.88213 -26.9218,34.45911 -11.209,5.89014 -24.6902,7.83621 -37.4304,5.40324 z m 21.3198,-9.89508 c 12.7755,-2.94522 24.6909,-12.60524 30.3902,-24.63785 3.0478,-6.43457 3.2216,-7.4222 3.2216,-18.30161 0,-10.83679 -0.1825,-11.88522 -3.1645,-18.17961 -16.2873,-34.37888 -64.3837,-34.37888 -80.671,0 -2.982,6.29439 -3.1645,7.34282 -3.1645,18.17961 0,10.87941 0.1739,11.86704 3.2216,18.30161 5.5942,11.81074 17.6443,21.70059 29.9769,24.60286 5.2384,1.23277 14.9213,1.24955 20.1897,0.035 z m -18.5444,-4.91779 c -18.7153,-3.98675 -31.429,-21.35787 -30.0763,-41.09412 2.733,-39.87274 57.5256,-49.45634 74.5973,-13.04756 2.3228,4.95372 2.6352,6.86485 2.6352,16.12001 0,9.44005 -0.2787,11.06744 -2.7605,16.12115 -6.5523,13.34221 -18.4998,21.49486 -32.7395,22.3405 -4.125,0.24496 -9.3703,0.047 -11.6562,-0.43998 z m 24.9556,-12.36245 c 4.6685,-2.55954 7.7006,-7.24699 7.7006,-11.90481 0,-4.55792 -2.2061,-6.49473 -5.8302,-5.1185 -4.2714,1.62207 -17.0363,11.36821 -17.723,13.53167 -0.3817,1.20256 0.036,2.70852 1.0675,3.84822 3.0574,3.37838 8.1988,3.25438 14.7851,-0.35658 z m -19.7205,0.0266 c 3.6667,-3.15399 2.48,-5.09715 -7.3389,-12.01673 -9.9498,-7.0118 -12.5683,-7.56593 -14.2948,-3.02505 -1.3711,3.6063 0.2686,8.20391 4.3236,12.12301 5.865,5.66841 12.7615,6.83128 17.3101,2.91877 z m 11.0773,-13.78236 c 4.2725,-2.64051 6.3449,-6.59694 6.3401,-12.1038 -0.01,-8.13369 -5.7538,-13.79966 -13.9963,-13.79966 -8.2807,0 -13.9892,5.66193 -13.9963,13.88197 -0.01,11.13443 12.1577,17.88963 21.6525,12.02149 z m -13.7331,-5.82654 c -3.8722,-3.8722 -3.9845,-8.74282 -0.2867,-12.44056 5.7923,-5.79232 15.3993,-1.98996 15.3318,6.06819 -0.072,8.55534 -9.0566,12.3609 -15.0451,6.37237 z m 32.5549,-1.32692 c 8.6682,-7.53169 -0.8897,-27.47115 -11.3189,-23.61314 -2.917,1.07907 -2.7678,3.68726 0.8181,14.29557 4.1949,12.41029 5.5537,13.616 10.5008,9.31757 z m -47.6982,0 c 0.9375,-1.14367 7.2202,-19.35476 7.2202,-20.92857 0,-1.52815 -3.2974,-3.82143 -5.4947,-3.82143 -3.088,0 -8.4248,4.56316 -10.1413,8.67119 -2.0596,4.9294 -1.7388,11.58263 0.7086,14.69395 2.2032,2.80092 5.9888,3.48113 7.7072,1.38486 z m 31.2202,-22.64067 c 5.1988,-1.43761 2.9066,-8.99694 -3.5457,-11.69286 -9.2668,-3.87194 -21.3497,1.33187 -20.2814,8.73472 0.4185,2.89986 3.1558,3.64945 13.3271,3.64945 4.4,0 9.125,-0.31109 10.5,-0.69131 z m -81,-32.67593 c -19.187,-4.15501 -34.5697,-18.76733 -40.3876,-38.3649 -2.0591,-6.93638 -2.0888,-20.8191 -0.061,-28.60394 4.2238,-16.21624 17.7661,-30.79123 33.9488,-36.53758 7.5819,-2.69227 23.0947,-3.68067 30.6321,-1.95173 19.0174,4.3622 34.7643,19.20349 40.2725,37.95625 1.8213,6.20064 2.0969,21.17973 0.516,28.04069 -3.1486,13.66408 -15.1246,28.61965 -27.9206,34.86715 -11.8038,5.76308 -24.387,7.32545 -37,4.59406 z m 21.2008,-9.55866 c 15.8916,-3.37451 29.5917,-16.24937 33.759,-31.72555 1.8201,-6.75931 1.4115,-18.79699 -0.8615,-25.38227 -3.8672,-11.20356 -12.6104,-20.74499 -23.9187,-26.1024 -6.2944,-2.98202 -7.3428,-3.16452 -18.1796,-3.16452 -10.8645,0 -11.8735,0.17691 -18.2585,3.20145 -9.3427,4.42555 -16.9219,11.86125 -21.4698,21.0634 -3.1874,6.44913 -3.7193,8.56465 -4.0869,16.25376 -0.3355,7.01723 0.013,10.27249 1.6884,15.78979 6.5725,21.63843 29.0396,34.79908 51.3276,30.06634 z m -17.1555,-4.91093 c -11.7652,-2.45463 -22.1229,-10.68456 -27.3596,-21.73904 -2.9248,-6.17405 -3.1846,-7.54372 -3.1724,-16.72477 0.012,-8.72089 0.3544,-10.7314 2.68,-15.71807 3.7352,-8.0088 10.7736,-15.17201 18.7176,-19.04945 6.1414,-2.99762 7.3039,-3.21668 17.1101,-3.2243 9.8515,-0.008 10.9401,0.19809 17.105,3.2331 13.1284,6.4631 20.9141,18.30283 21.6883,32.98159 1.1572,21.94164 -13.9501,39.01105 -36.0134,40.69068 -3.4655,0.26382 -8.3055,0.0614 -10.7556,-0.44974 z m 4.5336,-12.27799 c 2.2851,-1.96563 2.5214,-2.62993 1.5684,-4.41053 -1.0574,-1.97574 -12.1002,-10.57418 -16.8338,-13.10751 -7.1458,-3.82431 -9.2696,7.76279 -2.5698,14.02026 6.5138,6.08374 13.285,7.41169 17.8352,3.49778 z m 18.3223,0.86526 c 4.9797,-2.57509 9.0988,-8.18229 9.0988,-12.38588 0,-4.15092 -1.403,-6.1652 -4.2944,-6.1652 -2.6934,0 -18.4502,11.61991 -19.2733,14.21319 -1.5295,4.81928 8.0083,7.67881 14.4689,4.33789 z m -8.3181,-14.15754 c 9.7395,-4.62171 9.8916,-19.99399 0.2471,-24.98136 -9.8311,-5.08387 -20.8175,1.61717 -20.8265,12.70296 -0.01,10.24006 11.0151,16.81697 20.5794,12.2784 z m -12.66,-6.31662 c -6.0708,-6.07078 -2.4408,-15.07692 6.0769,-15.07692 5.57,0 9,3.37877 9,8.86565 0,3.19048 -0.5957,4.45784 -3.0767,6.54546 -4.1674,3.50665 -8.2737,3.3923 -12.0002,-0.33419 z m 32.6496,-1.38576 c 6.0674,-5.21903 3.267,-18.75715 -4.788,-23.14644 -3,-1.63474 -4.0141,-1.76121 -6.1864,-0.77144 -3.2074,1.46136 -3.2138,2.7195 -0.064,12.5828 4.488,14.05364 6.0331,15.64033 11.0383,11.33508 z m -47.8176,0.0588 c 0.5499,-0.6875 2.4892,-5.82744 4.3095,-11.42208 2.7767,-8.53428 3.0988,-10.42614 2.0001,-11.75 -3.4369,-4.14113 -12.7234,0.82797 -15.1203,8.09064 -1.5038,4.55653 -0.6965,11.84287 1.5923,14.37202 2.006,2.21656 5.7207,2.58164 7.2184,0.70942 z m 34.0699,-26.08843 c 0.5935,-5.18486 -5.588,-9.66153 -13.3411,-9.66153 -6.8234,0 -13.4839,4.18597 -13.4839,8.47431 0,4.08198 1.7429,4.60016 14.4789,4.30463 l 12.0211,-0.27894 0.325,-2.83843 z m -79.0616,-30.63287 c -16.0006,-2.90185 -30.1543,-12.60129 -38.051,-26.07605 -8.9608,-15.29041 -9.5684,-34.94905 -1.5905,-51.46097 6.5572,-13.57136 21.7939,-25.46398 36.5488,-28.52708 8.1633,-1.69469 23.4869,-0.78061 30.6777,1.83 15.1119,5.48634 27.4606,17.82196 32.7793,32.74457 2.645,7.42103 3.5728,21.77175 1.9218,29.72345 -2.6082,12.56137 -11.8113,26.06601 -22.6795,33.27995 -10.8386,7.19425 -27.2918,10.71952 -39.6066,8.48613 z m 17.3501,-10.03394 c 11.3567,-2.1195 23.1287,-10.08178 29.256,-19.78794 7.6442,-12.10932 8.7822,-28.87459 2.8241,-41.60683 -4.3013,-9.19156 -11.7695,-16.78687 -20.9837,-21.34079 -6.5945,-3.25914 -8.4891,-3.72267 -16.6802,-4.08092 -19.1123,-0.83591 -34.6401,8.00911 -42.5121,24.21596 -15.7628,32.45266 12.5033,69.24318 48.0959,62.60052 z m -15.333,-5.02508 c -11.8405,-1.99483 -23.4922,-10.85162 -28.5923,-21.73385 -2.407,-5.13589 -2.6882,-6.88627 -2.6882,-16.73579 0,-10.17213 0.2198,-11.43393 2.9199,-16.76565 3.6415,-7.19037 11.7898,-15.00605 19.3275,-18.53846 5.1029,-2.39144 6.9384,-2.69589 16.2526,-2.69589 9.2552,0 11.1663,0.31242 16.12,2.63517 15.0164,7.04101 23.8324,22.08954 22.5871,38.55517 -0.7065,9.34171 -4.0151,16.64039 -10.7912,23.80507 -5.8523,6.18798 -12.6132,9.80166 -21.3496,11.41132 -6.5418,1.20533 -6.9927,1.20738 -13.7858,0.0629 z m 2.997,-11.52634 c 4.2076,-2.94714 2.9107,-5.85561 -5.3278,-11.94831 -10.7037,-7.91574 -12.219,-8.49809 -14.5672,-5.59825 -2.2463,2.77408 -2.3777,5.25462 -0.4718,8.90292 4.3156,8.26068 14.6511,12.64706 20.3668,8.64364 z m 18.5513,0.19267 c 3.8107,-1.59221 8.3951,-6.68757 9.3152,-10.35347 0.9889,-3.94047 -0.7543,-7.73245 -3.7144,-8.07982 -3.0292,-0.35547 -19.2145,11.21045 -19.7619,14.12172 -0.9253,4.92138 6.9575,7.32143 14.1611,4.31157 z m -7.5697,-14.63057 c 9.5231,-5.80629 9.5429,-19.68281 0.035,-24.61836 -9.6681,-5.01881 -21.1275,1.46108 -21.1275,11.94692 0,11.21219 11.8297,18.31899 21.0925,12.67144 z m -12.5644,-5.49504 c -6.3507,-5.34372 -2.9566,-15.51036 5.1781,-15.51036 4.8439,0 6.4809,0.81638 8.1642,4.07152 3.1926,6.17381 0.1204,12.4938 -6.5923,13.56149 -2.8898,0.45964 -4.1533,0.0623 -6.75,-2.12265 z m 34.0538,-4.59502 c 2.3717,-4.63278 2.2039,-7.61486 -0.7635,-13.5696 -3.1355,-6.29222 -7.9689,-9.35757 -11.9177,-7.55835 -1.6889,0.76951 -2.5673,1.96825 -2.5673,3.50358 0,3.65316 5.8407,20.07547 7.6077,21.39068 2.3623,1.75821 5.6396,0.14275 7.6408,-3.76631 z m -48.9055,1.33466 c 2.2992,-4.5343 5.8674,-17.71921 5.4999,-20.32211 -0.2697,-1.90966 -1.0248,-2.4939 -3.5377,-2.73713 -6.6193,-0.64072 -12.3052,6.58359 -12.3052,15.63454 0,8.76265 7.0856,13.84899 10.343,7.4247 z m 32.7066,-22.80975 c 1.8959,-2.28445 0.109,-6.41673 -3.9607,-9.15931 -5.5933,-3.76932 -15.4238,-2.946 -20.049,1.67913 -2.2513,2.25131 -2.7542,7.58504 -0.7899,8.37765 0.6875,0.27741 6.2574,0.53991 12.3776,0.58333 8.9291,0.0633 11.3833,-0.2292 12.422,-1.4808 z m 94.2916,72.52567 c -20.3791,-3.64705 -36.6654,-18.47299 -42.7288,-38.89742 -2.0515,-6.91061 -2.0911,-20.81051 -0.081,-28.52695 4.7395,-18.19586 19.8065,-33.08768 38.5142,-38.06621 7.2009,-1.91631 20.6563,-1.86458 28.3103,0.10885 18.0052,4.64227 32.6709,19.03753 38.049,37.34731 1.9978,6.80171 2.0713,21.69123 0.1427,28.93708 -4.5418,17.06409 -18.7542,32.02625 -35.2657,37.12616 -7.6128,2.35135 -19.8237,3.24479 -26.9405,1.97118 z m 17.768,-9.98663 c 13.7127,-2.60055 25.705,-11.7604 31.9157,-24.37755 2.9458,-5.98443 3.449,-8.11797 3.7983,-16.10552 0.4476,-10.2326 -1.2126,-17.89178 -5.4426,-25.10973 -3.6883,-6.29365 -12.5898,-14.11709 -20.1221,-17.68504 -6.385,-3.02454 -7.394,-3.20145 -18.2585,-3.20145 -10.8645,0 -11.8735,0.17691 -18.2585,3.20145 -9.3532,4.43049 -16.9212,11.85988 -21.4823,21.08869 -3.2634,6.6029 -3.7225,8.48346 -4.0829,16.72438 -0.3341,7.63869 -0.017,10.45546 1.7908,15.88658 6.9891,21.00222 28.4888,33.68465 50.1421,29.57819 z m -15.4587,-4.99434 c -11.8358,-2.06873 -22.607,-10.45013 -27.9648,-21.76018 -2.9202,-6.16436 -3.1857,-7.55812 -3.1857,-16.72477 0,-8.75678 0.3332,-10.71088 2.6801,-15.71807 3.7423,-7.98459 10.7646,-15.13706 18.6939,-19.04065 6.1623,-3.0337 7.2591,-3.24128 17.126,-3.24128 9.8669,0 10.9637,0.20758 17.126,3.24128 17.1194,8.42782 25.4442,27.16611 20.3802,45.87382 -5.1055,18.86127 -24.7961,30.87599 -44.8557,27.36985 z m 3.9337,-12.47826 c 3.2012,-3.2012 2.3011,-5.05085 -5.1291,-10.53989 -11.8696,-8.76858 -14.5509,-9.4752 -16.5001,-4.34838 -2.0382,5.36088 2.5226,12.52897 10.045,15.78728 5.1718,2.24017 8.7204,1.96478 11.5842,-0.89901 z m 18.317,1.04439 c 4.9797,-2.57509 9.0988,-8.18229 9.0988,-12.38588 0,-7.56127 -3.6483,-7.98955 -12.873,-1.5112 -8.8527,6.21707 -11.127,8.35578 -11.127,10.46361 0,4.32267 9.1187,6.42375 14.9012,3.43347 z m -7.9473,-14.64534 c 4.7673,-2.67937 7.0471,-6.58345 7.0424,-12.06003 -0.01,-10.73306 -9.7638,-17.2539 -19.4203,-12.98236 -11.1232,4.92032 -11.7627,18.78308 -1.1647,25.2457 4.0429,2.46535 8.9248,2.39206 13.5426,-0.20331 z m -10.5969,-3.85948 c -5.5435,-2.33499 -7.1389,-10.3553 -2.9024,-14.59171 5.5438,-5.54386 15.5454,-1.71947 15.5454,5.94423 0,6.37615 -6.8737,11.07757 -12.643,8.64748 z m 30.2157,-3.3551 c 6.0674,-5.21903 3.267,-18.75715 -4.788,-23.14644 -3,-1.63474 -4.0141,-1.76121 -6.1864,-0.77144 -3.2074,1.46136 -3.2138,2.7195 -0.064,12.5828 4.488,14.05364 6.0331,15.64033 11.0383,11.33508 z m -47.8176,0.0588 c 0.5499,-0.6875 2.4892,-5.82744 4.3095,-11.42208 2.7767,-8.53428 3.0988,-10.42614 2.0001,-11.75 -3.2156,-3.87457 -10.9631,-0.48488 -14.2069,6.21577 -2.7599,5.70131 -2.212,13.69129 1.1241,16.39274 2.6072,2.11114 5.3524,2.33956 6.7732,0.56357 z m 33.0449,-23.94996 c 2.0529,-2.0529 1.3277,-5.30343 -1.8657,-8.36291 -2.8248,-2.70637 -3.6445,-2.93709 -10.4343,-2.93709 -6.7898,0 -7.6095,0.23072 -10.4343,2.93709 -3.1934,3.05948 -3.9186,6.31001 -1.8657,8.36291 1.6505,1.65047 22.9495,1.65047 24.6,0 z"
         id="path3871"
         inkscape:connector-curvature="0" />
      <path
         style="fill:#c38c8f"
         d="m 1136.113,-330.09743 c -15.9123,-3.02593 -27.1061,-9.049 -39,-20.98488 -10.321,-10.35739 -15.3887,-18.86679 -18.5144,-31.08794 -1.9407,-7.58827 -1.9856,-11.42811 -1.9856,-169.89368 0,-179.01436 -0.435,-166.68409 6.3875,-181.05014 8.8983,-18.73683 24.698,-32.12762 45.6125,-38.65814 l 7.5,-2.34186 119.5,0 119.5,0 7.5,2.32777 c 19.6861,6.10997 36.1431,19.78967 44.9755,37.38535 7.5596,15.06021 7.1193,3.03811 6.8054,185.78688 l -0.2809,163.5 -2.8751,7.85321 c -7.9069,21.59776 -26.4066,38.66721 -49.6523,45.81373 l -7.4726,2.29734 -115.5,0.19175 c -92.6142,0.15375 -116.887,-0.072 -122.5,-1.13939 z m 242.8768,-5.48512 c 23.0745,-5.90146 41.1958,-22.81434 48.7848,-45.53152 l 2.3384,-7 0.2802,-160 c 0.3134,-178.95249 0.6851,-168.82862 -6.7565,-184 -6.8617,-13.98891 -16.471,-23.60359 -30.5237,-30.54062 -16.1338,-7.96436 -6.8253,-7.45938 -137.5,-7.45938 -129.7494,0 -121.1126,-0.4355 -136.5,6.88272 -14.7866,7.03249 -24.7181,16.80057 -31.6377,31.11728 -7.2301,14.95923 -6.8276,4.31813 -6.8276,180.5 0,176.65732 -0.4262,165.69262 7.0298,180.81868 4.8911,9.92278 14.1441,20.23911 23.3907,26.07889 7.6836,4.8526 11.988,6.71996 21.0448,9.12977 6.6305,1.76422 13.1278,1.86544 123.09,1.9176 112.2946,0.0533 116.3417,-0.009 123.7868,-1.91342 z m -191.8768,-59.05353 c -14.9707,-3.00491 -29.1448,-13.16427 -36.9512,-26.48492 -4.6902,-8.00329 -6.8008,-16.2567 -6.7747,-26.49307 0.041,-16.06033 5.6554,-28.82844 17.3778,-39.51879 21.7602,-19.84445 54.1419,-19.18737 74.8481,1.51879 21.2309,21.23091 21.4548,54.24373 0.5116,75.43176 -12.7033,12.85178 -31.9772,18.96537 -49.0116,15.54623 z m 21.965,-10.5109 c 12.7656,-3.325 23.0191,-11.93388 28.8336,-24.20856 3.0245,-6.38507 3.2014,-7.394 3.2014,-18.25853 0,-10.86453 -0.1769,-11.87346 -3.2014,-18.25853 -10.9151,-23.04253 -37.4739,-32.23251 -60.9944,-21.10553 -16.2396,7.68259 -26.4477,27.84328 -23.3672,46.14995 4.4201,26.26868 29.5843,42.43868 55.528,35.6812 z m -21.4408,-5.07018 c -11.0866,-2.97925 -20.6465,-10.85256 -25.7173,-21.18014 -2.5347,-5.16235 -2.8069,-6.73508 -2.8069,-16.21677 0,-9.59425 0.2536,-11.01647 2.9396,-16.48724 3.9196,-7.98308 11.0116,-14.88698 19.3197,-18.80708 6.0374,-2.84871 7.6798,-3.17812 15.7407,-3.15692 7.0054,0.0184 10.282,0.53309 14.7846,2.32224 8.0864,3.21325 16.7881,11.50001 20.9477,19.94893 2.9723,6.03722 3.2644,7.4529 3.2315,15.65868 -0.046,11.41522 -2.5862,18.30587 -9.5635,25.94006 -5.9136,6.47041 -11.6583,10.02279 -19.52,12.07048 -7.1127,1.85264 -12.209,1.82835 -19.3561,-0.0922 z m 26.8288,-11.66382 c 4.3003,-2.59519 7.1385,-7.27703 7.1433,-11.78309 0,-4.04862 -1.4445,-5.95 -4.5335,-5.95 -2.1495,0 -11.5956,6.1274 -16.7128,10.84106 -8.0702,7.43378 3.6858,13.17884 14.103,6.89203 z m -20.7873,1.23173 c 1.2431,-0.66525 1.9343,-2.09215 1.9343,-3.99285 0,-2.51874 -1.1037,-3.77388 -7.4369,-8.45749 -4.0902,-3.02491 -8.6431,-6.04944 -10.1174,-6.72119 -2.3872,-1.08765 -2.8867,-0.96685 -4.5632,1.10345 -5.6454,6.97183 3.5053,19.07946 14.4332,19.0971 2.0987,0.003 4.6862,-0.45967 5.75,-1.02902 z m 11.6358,-14.92434 c 8.6766,-5.29045 8.3147,-19.87801 -0.6076,-24.49193 -6.114,-3.16168 -14.8471,-1.58203 -18.8277,3.40556 -2.3458,2.93923 -3.4067,8.8105 -2.3207,12.84352 0.9897,3.67535 4.9785,8.37939 8.0545,9.49866 3.5047,1.27528 10.6199,0.62313 13.7015,-1.25581 z m -13.7784,-5.96356 c -4.1003,-4.10025 -4.0405,-8.95891 0.1536,-12.48803 4.218,-3.54915 8.2698,-3.39625 12.1235,0.4575 2.6322,2.63217 2.9663,3.54998 2.4569,6.75 -1.2441,7.81528 -9.3089,10.70564 -14.734,5.28053 z m 33.1526,-1.65988 c 3.3913,-3.61322 3.3867,-12.3148 -0.01,-17.80985 -4.3927,-7.10684 -14.0667,-8.35821 -14.0667,-1.81953 0,3.71895 5.6447,20.36867 7.2515,21.38891 2.2346,1.41898 4.3537,0.87261 6.8242,-1.75953 z m -48.3316,0.33296 c 1.962,-2.47992 6.3823,-17.73239 6.0727,-20.95397 -0.2867,-2.98277 -0.6545,-3.32441 -3.8701,-3.59467 -6.7974,-0.57129 -11.9467,6.31525 -11.9467,15.97726 0,6.56887 1.9652,9.82138 5.9343,9.82138 1.5514,0 3.2658,-0.5625 3.8098,-1.25 z m 31.6908,-22.72525 c 4.8549,-1.84582 2.3927,-8.94535 -4.0335,-11.63038 -6.652,-2.7794 -16.9719,-0.93384 -19.3209,3.45523 -1.8479,3.45281 -1.3199,7.11863 1.1695,8.11924 3.0509,1.22631 19.0008,1.26651 22.1849,0.0559 z m 93.1662,70.38131 c -19.2109,-4.64836 -35.1787,-20.16886 -40.0699,-38.94761 -8.7637,-33.64622 17.5352,-67.45845 52.4688,-67.45845 24.1339,0 45.3294,16.15589 52.3876,39.9315 2.0904,7.04163 2.0989,21.04925 0.017,28.137 -3.8719,13.18199 -14.0713,26.2594 -25.552,32.76212 -11.3337,6.41947 -26.7268,8.60597 -39.2515,5.57544 z m 28.6394,-11.3286 c 12.0583,-4.65073 21.8205,-14.74077 25.7834,-26.64916 1.8417,-5.53443 2.1312,-8.2427 1.7918,-16.76453 -0.3565,-8.95099 -0.7918,-10.96588 -3.6481,-16.88591 -4.4705,-9.26593 -11.2907,-15.98039 -20.8861,-20.5622 -7.5845,-3.62157 -8.0727,-3.71562 -19.2815,-3.71391 -10.5923,0.002 -11.9991,0.23205 -17.8236,2.91958 -17.0167,7.8519 -26.1764,22.02452 -26.1764,40.5025 0,13.42593 4.0232,23.025 13.3458,31.84193 9.4341,8.92232 19.0635,12.42297 32.6542,11.87096 5.6793,-0.23067 10.4049,-1.07995 14.2405,-2.55926 z m -26.2163,-3.617 c -3.0116,-0.84426 -7.3021,-2.60536 -9.5344,-3.91355 -5.8331,-3.41843 -13.2033,-11.70104 -16.3097,-18.32884 -2.3174,-4.94432 -2.6801,-7.00358 -2.6801,-15.21807 0,-8.54416 0.3106,-10.154 3.0866,-16 3.8745,-8.15937 10.832,-15.09618 19.3445,-19.28685 5.966,-2.93704 7.3468,-3.21315 16.0689,-3.21315 8.7724,0 10.0823,0.26594 16.239,3.29687 8.5319,4.20026 15.2648,10.94051 19.1792,19.20027 2.7698,5.84451 3.0818,7.46465 3.0818,16.00286 0,12.57471 -2.9433,19.37903 -12.0797,27.92564 -10.1028,9.45067 -23.8496,13.05198 -36.3961,9.53482 z m 26.4724,-11.34007 c 4.2239,-2.43648 7.5034,-7.71108 7.5034,-12.06827 0,-7.90471 -4.0257,-7.9278 -14.7116,-0.0844 -9.2902,6.81896 -9.6908,7.29268 -8.8846,10.50511 1.1425,4.55185 9.5633,5.41396 16.0928,1.64757 z m -19.4966,-0.12039 c 2.6751,-2.67511 2.5228,-4.13705 -0.75,-7.19701 -3.4177,-3.1955 -16.0436,-11.80299 -17.3132,-11.80299 -0.5152,0 -1.879,0.94217 -3.0305,2.09371 -3.9883,3.98828 -0.256,13.08658 6.9242,16.8795 4.9508,2.61522 11.5686,2.62773 14.1695,0.0268 z m 11.0876,-14.28002 c 4.4266,-2.98311 5.8797,-6.05907 5.8977,-12.48467 0.013,-4.61037 -0.4107,-5.72891 -3.4085,-9 -3.3335,-3.63755 -3.6078,-3.73531 -10.4807,-3.73531 -6.5978,0 -7.2649,0.20726 -10.2389,3.18126 -2.5987,2.59873 -3.2633,4.171 -3.6295,8.58643 -0.541,6.52352 1.3987,10.92402 6.0709,13.77279 4.4843,2.73426 11.4663,2.59254 15.789,-0.3205 z m -14.1645,-5.64306 c -1.995,-1.99499 -2.9231,-3.92442 -2.9231,-6.07692 0,-4.30191 4.6981,-9 9,-9 4.3019,0 9,4.69809 9,9 0,4.30191 -4.6981,9 -9,9 -2.1525,0 -4.0819,-0.92808 -6.0769,-2.92308 z m 31.5321,0.3019 c 2.3801,-0.91333 4.5448,-5.7322 4.5448,-10.11727 0,-9.00557 -8.1436,-17.67824 -14.3752,-15.30901 -3.429,1.3037 -3.3768,3.44757 0.3524,14.47989 3.8761,11.46702 4.9348,12.68978 9.478,10.94639 z m -44.5028,-5.98116 c 4.1747,-11.15793 5.4762,-17.17626 4.0787,-18.8602 -3.0391,-3.66187 -10.9412,-0.59413 -14.0213,5.44331 -3.1507,6.17594 -2.425,15.70662 1.3899,18.25392 0.6052,0.40408 2.3055,0.74158 3.7785,0.75 2.3405,0.0134 2.9424,-0.69095 4.7742,-5.58703 z m 29.4825,-18.37291 c 1.9732,-0.75019 2.5651,-1.67326 2.5651,-4 0,-5.37127 -5.4652,-9.02475 -13.5,-9.02475 -8.0399,0 -13.5,3.65308 -13.5,9.03222 0,2.2099 0.6102,3.2775 2.25,3.93662 3.0509,1.22631 19.0008,1.26651 22.1849,0.0559 z m -79.4349,-32.13907 c -3.025,-0.48428 -9.2061,-2.70033 -13.7359,-4.92455 -33.5475,-16.47265 -40.8038,-59.85816 -14.3796,-85.9758 17.3409,-17.13965 41.494,-20.89645 63.3724,-9.85699 12.595,6.35523 24.5664,21.45781 27.6637,34.89947 1.5669,6.7999 1.2985,20.86316 -0.516,27.04069 -4.1465,14.11698 -14.234,26.46695 -27.1473,33.23622 -11.3447,5.94694 -22.2191,7.66829 -35.2573,5.58096 z m 19.0404,-9.89333 c 11.2064,-2.12527 22.6652,-9.86574 28.6986,-19.3862 6.2346,-9.83784 8.2534,-25.24079 4.8448,-36.96574 -3.453,-11.87806 -13.9202,-23.25161 -25.5838,-27.799 -8.2977,-3.23511 -21.8969,-3.675 -30.7241,-0.99382 -13.5034,4.10152 -24.3268,14.92492 -28.4283,28.42828 -3.1162,10.25929 -2.3844,22.8524 1.8538,31.90374 8.8196,18.83557 28.546,28.75605 49.339,24.81274 z m -17.0404,-5.35974 c -11.7758,-2.56878 -22.6409,-11.32846 -27.8019,-22.41454 -2.2881,-4.91506 -2.6645,-7.05219 -2.68,-15.21807 -0.016,-8.61768 0.2767,-10.12233 3.1563,-16.20071 4.0386,-8.52501 10.5999,-15.08626 19.1249,-19.12489 6.0642,-2.87288 7.6031,-3.1744 16.2007,-3.1744 8.6092,0 10.1321,0.2994 16.2408,3.19313 8.3106,3.93678 15.4268,10.86898 19.3284,18.82868 2.6466,5.39912 2.9304,6.94683 2.9306,15.97819 2e-4,8.77144 -0.331,10.70675 -2.6957,15.75264 -5.5071,11.75152 -16.5589,20.31422 -29.2378,22.65288 -7.002,1.29155 -7.4314,1.28351 -14.5663,-0.27291 z m 5,-11.63261 c 3.7986,-3.79863 2.7314,-5.5008 -8.3992,-13.39654 -8.0451,-5.70698 -10.543,-6.58297 -12.398,-4.34787 -3.9368,4.74356 -0.4941,13.70415 6.7045,17.45066 5.5405,2.88353 11.3812,3.00528 14.0927,0.29375 z m 19.0156,0.14839 c 6.2095,-3.29974 9.5714,-10.84914 7.3774,-16.5666 -1.0708,-2.79047 -5.7888,-1.77749 -11.9802,2.57217 -11.4113,8.01689 -13.0534,10.37574 -9.7578,14.0173 2.2084,2.4403 9.748,2.4283 14.3606,-0.0229 z m -8.9217,-13.69694 c 8.7778,-4.53917 9.4069,-19.77876 1.0206,-24.72117 -5.6056,-3.30359 -13.1815,-2.61225 -17.8049,1.6248 -3.2841,3.00965 -3.7001,3.96198 -4.0404,9.25 -0.3016,4.68435 0.047,6.57395 1.6954,9.20147 3.5848,5.71294 12.7571,7.94011 19.1293,4.6449 z m -11.3188,-4.96983 c -5.5636,-3.1018 -6.3742,-9.03633 -1.852,-13.55854 3.853,-3.85307 8.4054,-3.94061 12.2722,-0.23599 7.3066,7.00016 -1.558,18.73532 -10.4202,13.79453 z m 29.015,-1.12238 c 6.7181,-1.79964 6.7405,-15.90769 0.037,-23.04372 -4.1597,-4.42777 -11.8267,-3.75869 -11.8267,1.03208 0,2.81155 5.5301,19.38127 7.0996,21.27242 1.2922,1.55702 1.5096,1.59129 4.6905,0.73922 z m -43.8377,-5.96158 c 4.1747,-11.15793 5.4762,-17.17626 4.0787,-18.8602 -1.6506,-1.9889 -6.9637,-1.97342 -9.822,0.0286 -5.8672,4.10955 -8.2352,16.58849 -4.1365,21.79906 1.3745,1.74747 3.0343,2.63486 4.9281,2.63486 2.5516,0 3.0788,-0.59651 4.9517,-5.60234 z m 31.8593,-21.59821 c 0.1714,-1.4853 -0.2024,-3.66089 -0.8305,-4.83465 -3.4436,-6.43434 -21.4742,-6.51775 -24.9007,-0.1152 -1.2195,2.27871 -1.4342,6.46334 -0.3854,7.51215 0.3823,0.3823 6.3448,0.5698 13.25,0.41667 l 12.5549,-0.27842 0.3117,-2.70055 z m -79.8117,-30.85626 c -8.8621,-1.51143 -21.3316,-8.23556 -28.3867,-15.3074 -10.731,-10.7564 -16.1415,-24.08067 -15.8915,-39.13579 0.2423,-14.59712 6.1543,-27.54995 17.3739,-38.065 10.3934,-9.74086 22.1978,-14.435 36.2995,-14.435 15.4309,0 27.7532,5.09503 38.6315,15.9733 16.7299,16.72991 20.6997,40.45198 10.346,61.82429 -3.3076,6.82777 -12.2645,16.5031 -19.8006,21.38881 -10.4786,6.79344 -25.9629,9.9073 -38.5721,7.75679 z m 19.2008,-10.06845 c 20.7145,-4.39862 34.7992,-21.96075 34.7992,-43.39098 0,-19.40417 -12.126,-36.12332 -30.1757,-41.60574 -10.4174,-3.16419 -23.9328,-2.44332 -32.8243,1.75073 -22.1198,10.43377 -31.5593,36.22128 -21.5465,58.86206 2.8602,6.46749 11.1301,15.59407 17.5325,19.34869 9.0017,5.27899 21.7115,7.26556 32.2148,5.03524 z m -17.2022,-5.20809 c -11.8762,-2.60259 -22.6546,-11.19428 -27.6773,-22.06207 -2.5,-5.40939 -2.8213,-7.24339 -2.8213,-16.10458 0,-8.77764 0.3304,-10.70509 2.703,-15.76825 3.4617,-7.38709 11.642,-15.55261 19.297,-19.26209 5.3777,-2.60593 7.0372,-2.91071 16,-2.93857 9.131,-0.0284 10.5651,0.23672 16.5029,3.05072 17.7779,8.42525 26.7286,27.90754 21.1543,46.04528 -5.9108,19.23323 -25.9708,31.24447 -45.1586,27.03956 z m 3.836,-11.26334 c 4.2545,-2.97998 2.6116,-6.17663 -6.754,-13.14183 -4.6307,-3.44381 -9.211,-6.26148 -10.1786,-6.26148 -5.2728,0 -6.3024,7.82019 -1.8524,14.0697 4.1618,5.84469 14.0479,8.65163 18.785,5.33361 z m 20.4694,-0.71637 c 4.8689,-2.94744 7.6811,-7.23985 7.6894,-11.73694 0.014,-7.59382 -4.6412,-7.84474 -14.3711,-0.77461 -8.0584,5.85561 -9.6223,7.47185 -9.6223,9.94431 0,5.19262 9.4969,6.68801 16.304,2.56724 z m -9.5871,-13.3569 c 5.3383,-2.53317 7.4689,-6.65264 7.0244,-13.58106 -0.3012,-4.69379 -0.9001,-6.30526 -3.2575,-8.76595 -5.4786,-5.71838 -15.5854,-5.97238 -21.0292,-0.52848 -3.2552,3.2551 -4.7953,9.5665 -3.5044,14.36058 2.3053,8.56107 12.157,12.60052 20.7667,8.51491 z m -10.3599,-4.32162 c -8.6078,-3.47367 -5.937,-17.00842 3.3563,-17.00842 4.0117,0 9.2867,4.52866 9.2867,7.97274 0,3.33075 -2.597,7.5226 -5.4721,8.83257 -3.0127,1.37271 -4.19,1.40605 -7.1709,0.20311 z m 30.3206,-3.4075 c 2.4618,-2.11755 2.7891,-3.08664 2.7891,-8.25809 0,-4.07036 -0.6189,-6.92503 -2.0273,-9.35092 -2.5774,-4.4393 -8.0874,-7.54805 -11.7494,-6.62896 -3.5316,0.88639 -3.5645,4.51765 -0.1323,14.63705 4.2367,12.49158 5.9947,14.00945 11.1199,9.60092 z m -47.9335,0.14908 c 1.962,-2.47992 6.3823,-17.73239 6.0727,-20.95397 -0.2867,-2.98277 -0.6545,-3.32441 -3.8701,-3.59467 -6.966,-0.58546 -11.9467,6.11767 -11.9467,16.07796 0,3.99534 0.5144,5.89575 2.039,7.53212 2.246,2.4108 6.1628,2.88791 7.7051,0.93856 z m 34.0676,-25.95055 c 0.6864,-5.94851 -4.8407,-9.79945 -14.0649,-9.79945 -6.787,0 -12.0772,3.10005 -12.5714,7.36677 -0.6483,5.59707 -0.3453,5.71806 13.5547,5.41326 l 12.7699,-0.28003 0.3117,-2.70055 z m 92.1883,73.64047 c -19.8692,-4.28281 -36.5038,-19.91968 -41.4688,-38.98147 -1.917,-7.35998 -1.9542,-20.28008 -0.079,-27.32703 4.8597,-18.25845 20.6409,-33.79513 39.2505,-38.64233 7.3696,-1.91951 19.2914,-1.90199 26.7446,0.0393 18.8094,4.89925 35.3032,21.40408 39.4728,39.49942 1.5669,6.7999 1.2986,20.86316 -0.5159,27.04069 -5.6898,19.37099 -21.8874,34.22444 -41.9046,38.4271 -8.507,1.78605 -13.0098,1.77439 -21.5,-0.0557 z m 20.2008,-9.55451 c 13.4758,-2.83438 24.4409,-11.33484 30.54,-23.6755 3.7169,-7.5206 3.7592,-7.74179 3.7592,-19.65805 0,-11.49099 -0.1493,-12.3671 -3.2086,-18.82569 -4.204,-8.87531 -11.7549,-16.40611 -20.8189,-20.76371 -5.9993,-2.8842 -8.2765,-3.41187 -16.3152,-3.78059 -11.5339,-0.52904 -19.7529,1.46453 -27.9919,6.78961 -7.0241,4.53992 -11.2356,9.45032 -15.4625,18.02852 -3.0671,6.22446 -3.2029,7.01089 -3.2029,18.55186 0,11.91626 0.042,12.13745 3.7592,19.65805 9.0381,18.28747 28.8931,27.89231 48.9416,23.6755 z m -16.0804,-5.01274 c -11.6585,-1.93641 -23.7097,-11.36526 -28.835,-22.56049 -5.5038,-12.02192 -3.8255,-27.28323 4.1991,-38.18393 15.907,-21.60818 48.294,-21.29986 63.5977,0.60545 13.2364,18.94623 6.7706,45.07119 -13.8788,56.07722 -4.5867,2.44467 -16.6435,5.62447 -19.2034,5.06462 -0.275,-0.0601 -2.9208,-0.51143 -5.8796,-1.00287 z m 2.2289,-10.81539 c 2.8043,-1.06619 4.2044,-4.24549 2.8978,-6.58031 -1.3213,-2.36088 -17.3127,-13.47697 -19.3879,-13.47697 -0.9972,0 -2.5382,1.10671 -3.4245,2.45936 -3.1064,4.74098 0.7482,12.93728 7.7034,16.37997 4.7232,2.33794 8.3215,2.69683 12.2112,1.21795 z m 20.6663,-0.90889 c 6.2095,-3.29974 9.5714,-10.84914 7.3774,-16.5666 -1.0708,-2.79047 -5.7888,-1.77749 -11.9802,2.57217 -11.4113,8.01689 -13.0534,10.37574 -9.7578,14.0173 2.2084,2.4403 9.748,2.4283 14.3606,-0.0229 z m -9.5054,-13.58821 c 4.6513,-1.94342 7.4814,-6.82249 7.4861,-12.90589 0.01,-8.62796 -5.3879,-14.03891 -13.9963,-14.03891 -8.6084,0 -14.0029,5.41095 -13.9963,14.03891 0.01,11.12399 9.8889,17.34221 20.5065,12.90589 z m -10.7351,-5.11898 c -5.3684,-2.91333 -6.2818,-8.49714 -2.1862,-13.36447 2.0594,-2.44745 3.3707,-3.07673 6.4111,-3.07673 3.0405,0 4.3517,0.62928 6.4111,3.07673 4.1634,4.94794 3.1667,10.53886 -2.3911,13.41292 -3.5761,1.84926 -4.7608,1.8423 -8.2449,-0.0485 z m 29.6281,-1.57904 c 6.1784,-2.81506 5.8487,-15.70728 -0.5765,-22.54664 -4.1597,-4.42777 -11.8267,-3.75869 -11.8267,1.03208 0,3.71007 5.8785,20.04711 7.7012,21.4024 2.0284,1.50829 1.6572,1.49944 4.702,0.11216 z m -46.0098,-2.11216 c 2.7442,-4.28938 7.0092,-19.8872 5.9156,-21.63477 -1.3862,-2.21532 -6.9331,-2.59155 -9.8669,-0.66924 -6.022,3.94573 -8.5464,16.60915 -4.3695,21.91915 2.5775,3.27677 6.3587,3.45166 8.3208,0.38486 z m 33.4329,-24.07909 c 1.2182,-6.35141 -4.0852,-10.66135 -13.126,-10.66717 -6.2539,-0.004 -11.0186,1.85391 -12.6707,4.94087 -1.1766,2.19856 -1.3655,6.38618 -0.3345,7.41714 0.3823,0.3823 6.3393,0.5698 13.2377,0.41667 11.2326,-0.24934 12.5793,-0.46946 12.8935,-2.10752 z"
         id="path3869"
         inkscape:connector-curvature="0" />
      <path
         style="fill:#8b909e"
         d="m 1136.113,-330.09743 c -15.9123,-3.02593 -27.1061,-9.049 -39,-20.98488 -10.321,-10.35739 -15.3887,-18.86679 -18.5144,-31.08794 -1.9407,-7.58827 -1.9856,-11.42811 -1.9856,-169.89368 0,-179.01436 -0.435,-166.68409 6.3875,-181.05014 8.8983,-18.73683 24.698,-32.12762 45.6125,-38.65814 l 7.5,-2.34186 119.5,0 119.5,0 7.5,2.32777 c 19.6861,6.10997 36.1431,19.78967 44.9755,37.38535 7.5596,15.06021 7.1193,3.03811 6.8054,185.78688 l -0.2809,163.5 -2.8751,7.85321 c -7.9069,21.59776 -26.4066,38.66721 -49.6523,45.81373 l -7.4726,2.29734 -115.5,0.19175 c -92.6142,0.15375 -116.887,-0.072 -122.5,-1.13939 z m 242.8768,-5.48512 c 23.0745,-5.90146 41.1958,-22.81434 48.7848,-45.53152 l 2.3384,-7 0.2802,-160 c 0.3134,-178.95249 0.6851,-168.82862 -6.7565,-184 -6.8617,-13.98891 -16.471,-23.60359 -30.5237,-30.54062 -16.1338,-7.96436 -6.8253,-7.45938 -137.5,-7.45938 -129.7494,0 -121.1126,-0.4355 -136.5,6.88272 -14.7866,7.03249 -24.7181,16.80057 -31.6377,31.11728 -7.2301,14.95923 -6.8276,4.31813 -6.8276,180.5 0,176.65732 -0.4262,165.69262 7.0298,180.81868 4.8911,9.92278 14.1441,20.23911 23.3907,26.07889 7.6836,4.8526 11.988,6.71996 21.0448,9.12977 6.6305,1.76422 13.1278,1.86544 123.09,1.9176 112.2946,0.0533 116.3417,-0.009 123.7868,-1.91342 z m -191.8768,-59.05353 c -14.9707,-3.00491 -29.1448,-13.16427 -36.9512,-26.48492 -4.6902,-8.00329 -6.8008,-16.2567 -6.7747,-26.49307 0.041,-16.06033 5.6554,-28.82844 17.3778,-39.51879 21.7602,-19.84445 54.1419,-19.18737 74.8481,1.51879 21.2309,21.23091 21.4548,54.24373 0.5116,75.43176 -12.7033,12.85178 -31.9772,18.96537 -49.0116,15.54623 z m 21.965,-10.5109 c 12.7656,-3.325 23.0191,-11.93388 28.8336,-24.20856 3.0245,-6.38507 3.2014,-7.394 3.2014,-18.25853 0,-10.86453 -0.1769,-11.87346 -3.2014,-18.25853 -10.9151,-23.04253 -37.4739,-32.23251 -60.9944,-21.10553 -16.2396,7.68259 -26.4477,27.84328 -23.3672,46.14995 4.4201,26.26868 29.5843,42.43868 55.528,35.6812 z m -21.4408,-5.07018 c -11.0866,-2.97925 -20.6465,-10.85256 -25.7173,-21.18014 -2.5347,-5.16235 -2.8069,-6.73508 -2.8069,-16.21677 0,-9.59425 0.2536,-11.01647 2.9396,-16.48724 3.9196,-7.98308 11.0116,-14.88698 19.3197,-18.80708 6.0374,-2.84871 7.6798,-3.17812 15.7407,-3.15692 7.0054,0.0184 10.282,0.53309 14.7846,2.32224 8.0864,3.21325 16.7881,11.50001 20.9477,19.94893 2.9723,6.03722 3.2644,7.4529 3.2315,15.65868 -0.046,11.41522 -2.5862,18.30587 -9.5635,25.94006 -5.9136,6.47041 -11.6583,10.02279 -19.52,12.07048 -7.1127,1.85264 -12.209,1.82835 -19.3561,-0.0922 z m 26.8288,-11.66382 c 4.3003,-2.59519 7.1385,-7.27703 7.1433,-11.78309 0,-4.04862 -1.4445,-5.95 -4.5335,-5.95 -2.1495,0 -11.5956,6.1274 -16.7128,10.84106 -8.0702,7.43378 3.6858,13.17884 14.103,6.89203 z m -20.7873,1.23173 c 1.2431,-0.66525 1.9343,-2.09215 1.9343,-3.99285 0,-2.51874 -1.1037,-3.77388 -7.4369,-8.45749 -4.0902,-3.02491 -8.6431,-6.04944 -10.1174,-6.72119 -2.3872,-1.08765 -2.8867,-0.96685 -4.5632,1.10345 -5.6454,6.97183 3.5053,19.07946 14.4332,19.0971 2.0987,0.003 4.6862,-0.45967 5.75,-1.02902 z m 11.6358,-14.92434 c 8.6766,-5.29045 8.3147,-19.87801 -0.6076,-24.49193 -6.114,-3.16168 -14.8471,-1.58203 -18.8277,3.40556 -2.3458,2.93923 -3.4067,8.8105 -2.3207,12.84352 0.9897,3.67535 4.9785,8.37939 8.0545,9.49866 3.5047,1.27528 10.6199,0.62313 13.7015,-1.25581 z m -13.7784,-5.96356 c -4.1003,-4.10025 -4.0405,-8.95891 0.1536,-12.48803 4.218,-3.54915 8.2698,-3.39625 12.1235,0.4575 2.6322,2.63217 2.9663,3.54998 2.4569,6.75 -1.2441,7.81528 -9.3089,10.70564 -14.734,5.28053 z m 33.1526,-1.65988 c 3.3913,-3.61322 3.3867,-12.3148 -0.01,-17.80985 -4.3927,-7.10684 -14.0667,-8.35821 -14.0667,-1.81953 0,3.71895 5.6447,20.36867 7.2515,21.38891 2.2346,1.41898 4.3537,0.87261 6.8242,-1.75953 z m -48.3316,0.33296 c 1.962,-2.47992 6.3823,-17.73239 6.0727,-20.95397 -0.2867,-2.98277 -0.6545,-3.32441 -3.8701,-3.59467 -6.7974,-0.57129 -11.9467,6.31525 -11.9467,15.97726 0,6.56887 1.9652,9.82138 5.9343,9.82138 1.5514,0 3.2658,-0.5625 3.8098,-1.25 z m 31.6908,-22.72525 c 4.8549,-1.84582 2.3927,-8.94535 -4.0335,-11.63038 -6.652,-2.7794 -16.9719,-0.93384 -19.3209,3.45523 -1.8479,3.45281 -1.3199,7.11863 1.1695,8.11924 3.0509,1.22631 19.0008,1.26651 22.1849,0.0559 z m 93.1662,70.38131 c -19.2109,-4.64836 -35.1787,-20.16886 -40.0699,-38.94761 -8.7637,-33.64622 17.5352,-67.45845 52.4688,-67.45845 24.1339,0 45.3294,16.15589 52.3876,39.9315 2.0904,7.04163 2.0989,21.04925 0.017,28.137 -3.8719,13.18199 -14.0713,26.2594 -25.552,32.76212 -11.3337,6.41947 -26.7268,8.60597 -39.2515,5.57544 z m 28.6394,-11.3286 c 12.0583,-4.65073 21.8205,-14.74077 25.7834,-26.64916 1.8417,-5.53443 2.1312,-8.2427 1.7918,-16.76453 -0.3565,-8.95099 -0.7918,-10.96588 -3.6481,-16.88591 -4.4705,-9.26593 -11.2907,-15.98039 -20.8861,-20.5622 -7.5845,-3.62157 -8.0727,-3.71562 -19.2815,-3.71391 -10.5923,0.002 -11.9991,0.23205 -17.8236,2.91958 -17.0167,7.8519 -26.1764,22.02452 -26.1764,40.5025 0,13.42593 4.0232,23.025 13.3458,31.84193 9.4341,8.92232 19.0635,12.42297 32.6542,11.87096 5.6793,-0.23067 10.4049,-1.07995 14.2405,-2.55926 z m -26.2163,-3.617 c -3.0116,-0.84426 -7.3021,-2.60536 -9.5344,-3.91355 -5.8331,-3.41843 -13.2033,-11.70104 -16.3097,-18.32884 -2.3174,-4.94432 -2.6801,-7.00358 -2.6801,-15.21807 0,-8.54416 0.3106,-10.154 3.0866,-16 3.8745,-8.15937 10.832,-15.09618 19.3445,-19.28685 5.966,-2.93704 7.3468,-3.21315 16.0689,-3.21315 8.7724,0 10.0823,0.26594 16.239,3.29687 8.5319,4.20026 15.2648,10.94051 19.1792,19.20027 2.7698,5.84451 3.0818,7.46465 3.0818,16.00286 0,12.57471 -2.9433,19.37903 -12.0797,27.92564 -10.1028,9.45067 -23.8496,13.05198 -36.3961,9.53482 z m 26.4724,-11.34007 c 4.2239,-2.43648 7.5034,-7.71108 7.5034,-12.06827 0,-7.90471 -4.0257,-7.9278 -14.7116,-0.0844 -9.2902,6.81896 -9.6908,7.29268 -8.8846,10.50511 1.1425,4.55185 9.5633,5.41396 16.0928,1.64757 z m -19.4966,-0.12039 c 2.6751,-2.67511 2.5228,-4.13705 -0.75,-7.19701 -3.4177,-3.1955 -16.0436,-11.80299 -17.3132,-11.80299 -0.5152,0 -1.879,0.94217 -3.0305,2.09371 -3.9883,3.98828 -0.256,13.08658 6.9242,16.8795 4.9508,2.61522 11.5686,2.62773 14.1695,0.0268 z m 11.0876,-14.28002 c 4.4266,-2.98311 5.8797,-6.05907 5.8977,-12.48467 0.013,-4.61037 -0.4107,-5.72891 -3.4085,-9 -3.3335,-3.63755 -3.6078,-3.73531 -10.4807,-3.73531 -6.5978,0 -7.2649,0.20726 -10.2389,3.18126 -2.5987,2.59873 -3.2633,4.171 -3.6295,8.58643 -0.541,6.52352 1.3987,10.92402 6.0709,13.77279 4.4843,2.73426 11.4663,2.59254 15.789,-0.3205 z m -14.1645,-5.64306 c -1.995,-1.99499 -2.9231,-3.92442 -2.9231,-6.07692 0,-4.30191 4.6981,-9 9,-9 4.3019,0 9,4.69809 9,9 0,4.30191 -4.6981,9 -9,9 -2.1525,0 -4.0819,-0.92808 -6.0769,-2.92308 z m 31.5321,0.3019 c 2.3801,-0.91333 4.5448,-5.7322 4.5448,-10.11727 0,-9.00557 -8.1436,-17.67824 -14.3752,-15.30901 -3.429,1.3037 -3.3768,3.44757 0.3524,14.47989 3.8761,11.46702 4.9348,12.68978 9.478,10.94639 z m -44.5028,-5.98116 c 4.1747,-11.15793 5.4762,-17.17626 4.0787,-18.8602 -3.0391,-3.66187 -10.9412,-0.59413 -14.0213,5.44331 -3.1507,6.17594 -2.425,15.70662 1.3899,18.25392 0.6052,0.40408 2.3055,0.74158 3.7785,0.75 2.3405,0.0134 2.9424,-0.69095 4.7742,-5.58703 z m 29.4825,-18.37291 c 1.9732,-0.75019 2.5651,-1.67326 2.5651,-4 0,-5.37127 -5.4652,-9.02475 -13.5,-9.02475 -8.0399,0 -13.5,3.65308 -13.5,9.03222 0,2.2099 0.6102,3.2775 2.25,3.93662 3.0509,1.22631 19.0008,1.26651 22.1849,0.0559 z m -79.4349,-32.13907 c -3.025,-0.48428 -9.2061,-2.70033 -13.7359,-4.92455 -33.5475,-16.47265 -40.8038,-59.85816 -14.3796,-85.9758 17.3409,-17.13965 41.494,-20.89645 63.3724,-9.85699 12.595,6.35523 24.5664,21.45781 27.6637,34.89947 1.5669,6.7999 1.2985,20.86316 -0.516,27.04069 -4.1465,14.11698 -14.234,26.46695 -27.1473,33.23622 -11.3447,5.94694 -22.2191,7.66829 -35.2573,5.58096 z m 19.0404,-9.89333 c 11.2064,-2.12527 22.6652,-9.86574 28.6986,-19.3862 6.2346,-9.83784 8.2534,-25.24079 4.8448,-36.96574 -3.453,-11.87806 -13.9202,-23.25161 -25.5838,-27.799 -8.2977,-3.23511 -21.8969,-3.675 -30.7241,-0.99382 -13.5034,4.10152 -24.3268,14.92492 -28.4283,28.42828 -3.1162,10.25929 -2.3844,22.8524 1.8538,31.90374 8.8196,18.83557 28.546,28.75605 49.339,24.81274 z m -20.7544,-6.38679 c -27.2938,-8.89473 -35.8719,-43.86171 -15.707,-64.02661 18.0155,-18.01556 50.4624,-13.24202 61.7429,9.08355 9.9352,19.66299 2.3724,42.96279 -17.0485,52.52365 -5.7158,2.8139 -7.7532,3.27067 -15.6717,3.51354 -5.742,0.17611 -10.6572,-0.22776 -13.3157,-1.09413 z m 26.214,-9.4956 c 6.2437,-2.88167 10.5,-8.62766 10.5,-14.17506 0,-1.99499 -3.2773,-5.9349 -4.9368,-5.9349 -1.2696,0 -13.8955,8.60749 -17.3132,11.80299 -3.4484,3.22415 -3.4803,5.47739 -0.1151,8.12443 3.2354,2.54502 6.633,2.59729 11.8651,0.18254 z m -17.46,-0.94124 c 3.8297,-3.10111 2.0759,-6.0625 -7.695,-12.99378 -4.7876,-3.39622 -9.3758,-6.17494 -10.1961,-6.17494 -2.6311,0 -5.1489,3.18088 -5.1489,6.50495 0,4.07635 4.6365,10.57572 9.1203,12.78455 4.5525,2.24272 11.0707,2.18616 13.9197,-0.12078 z m 10.8982,-14.05736 c 11.6534,-8.29211 7.6282,-25.27876 -6.3638,-26.85587 -10.1176,-1.14039 -18.8114,9.43614 -15.6444,19.03228 2.9231,8.85713 14.6814,13.03704 22.0082,7.82359 z m -13.202,-5.36136 c -3.7991,-2.88487 -4.2111,-10.1053 -0.7551,-13.2329 0.974,-0.88143 3.323,-1.85446 5.22,-2.16231 5.1829,-0.84107 9.2535,2.96216 9.2535,8.64583 0,3.20944 -0.5569,4.66384 -2.3381,6.10614 -2.6806,2.17059 -8.9056,2.52244 -11.3803,0.64324 z m -15.9976,-1.69976 c 2.1187,-2.27414 7.2614,-17.41927 7.2614,-21.38454 0,-3.74013 -3.8039,-5.19229 -8.4815,-3.23786 -5.2083,2.17614 -8.9471,8.57354 -8.9471,15.3091 0,4.92562 0.3326,5.78807 3.2301,8.377 3.8194,3.41261 4.5395,3.5098 6.9371,0.9363 z m 48.8069,-0.50479 c 2.0211,-2.02113 2.4545,-3.4425 2.4545,-8.04966 0,-3.07731 -0.6588,-6.86916 -1.4641,-8.42633 -4.5572,-8.81274 -15.5359,-11.01955 -15.5359,-3.12287 0,3.47492 4.9015,18.14278 6.7847,20.30341 2.1214,2.43391 4.872,2.1842 7.7608,-0.70455 z m -15.5143,-23.3696 c 1.9195,-1.55438 2.1094,-2.25686 1.2837,-4.75 -1.1487,-3.46822 -6.1588,-7.11834 -11.0231,-8.03089 -9.6699,-1.81408 -20.6922,7.20461 -15.3429,12.55389 1.8049,1.80496 3.2981,2.05115 12.4403,2.05115 8.5654,0 10.7847,-0.32023 12.642,-1.82415 z m -79.0312,-33.23266 c -8.8621,-1.51143 -21.3316,-8.23556 -28.3867,-15.3074 -10.731,-10.7564 -16.1415,-24.08067 -15.8915,-39.13579 0.2423,-14.59712 6.1543,-27.54995 17.3739,-38.065 10.3934,-9.74086 22.1978,-14.435 36.2995,-14.435 15.4309,0 27.7532,5.09503 38.6315,15.9733 16.7299,16.72991 20.6997,40.45198 10.346,61.82429 -3.3076,6.82777 -12.2645,16.5031 -19.8006,21.38881 -10.4786,6.79344 -25.9629,9.9073 -38.5721,7.75679 z m 19.2008,-10.06845 c 20.7145,-4.39862 34.7992,-21.96075 34.7992,-43.39098 0,-19.40417 -12.126,-36.12332 -30.1757,-41.60574 -10.4174,-3.16419 -23.9328,-2.44332 -32.8243,1.75073 -22.1198,10.43377 -31.5593,36.22128 -21.5465,58.86206 2.8602,6.46749 11.1301,15.59407 17.5325,19.34869 9.0017,5.27899 21.7115,7.26556 32.2148,5.03524 z m -17.2022,-5.20809 c -11.8762,-2.60259 -22.6546,-11.19428 -27.6773,-22.06207 -2.5,-5.40939 -2.8213,-7.24339 -2.8213,-16.10458 0,-8.77764 0.3304,-10.70509 2.703,-15.76825 3.4617,-7.38709 11.642,-15.55261 19.297,-19.26209 5.3777,-2.60593 7.0372,-2.91071 16,-2.93857 9.131,-0.0284 10.5651,0.23672 16.5029,3.05072 17.7779,8.42525 26.7286,27.90754 21.1543,46.04528 -5.9108,19.23323 -25.9708,31.24447 -45.1586,27.03956 z m 3.836,-11.26334 c 4.2545,-2.97998 2.6116,-6.17663 -6.754,-13.14183 -4.6307,-3.44381 -9.211,-6.26148 -10.1786,-6.26148 -5.2728,0 -6.3024,7.82019 -1.8524,14.0697 4.1618,5.84469 14.0479,8.65163 18.785,5.33361 z m 20.4694,-0.71637 c 4.8689,-2.94744 7.6811,-7.23985 7.6894,-11.73694 0.014,-7.59382 -4.6412,-7.84474 -14.3711,-0.77461 -8.0584,5.85561 -9.6223,7.47185 -9.6223,9.94431 0,5.19262 9.4969,6.68801 16.304,2.56724 z m -9.5871,-13.3569 c 5.3383,-2.53317 7.4689,-6.65264 7.0244,-13.58106 -0.3012,-4.69379 -0.9001,-6.30526 -3.2575,-8.76595 -5.4786,-5.71838 -15.5854,-5.97238 -21.0292,-0.52848 -3.2552,3.2551 -4.7953,9.5665 -3.5044,14.36058 2.3053,8.56107 12.157,12.60052 20.7667,8.51491 z m -10.3599,-4.32162 c -8.6078,-3.47367 -5.937,-17.00842 3.3563,-17.00842 4.0117,0 9.2867,4.52866 9.2867,7.97274 0,3.33075 -2.597,7.5226 -5.4721,8.83257 -3.0127,1.37271 -4.19,1.40605 -7.1709,0.20311 z m 30.3206,-3.4075 c 2.4618,-2.11755 2.7891,-3.08664 2.7891,-8.25809 0,-4.07036 -0.6189,-6.92503 -2.0273,-9.35092 -2.5774,-4.4393 -8.0874,-7.54805 -11.7494,-6.62896 -3.5316,0.88639 -3.5645,4.51765 -0.1323,14.63705 4.2367,12.49158 5.9947,14.00945 11.1199,9.60092 z m -47.9335,0.14908 c 1.962,-2.47992 6.3823,-17.73239 6.0727,-20.95397 -0.2867,-2.98277 -0.6545,-3.32441 -3.8701,-3.59467 -6.966,-0.58546 -11.9467,6.11767 -11.9467,16.07796 0,3.99534 0.5144,5.89575 2.039,7.53212 2.246,2.4108 6.1628,2.88791 7.7051,0.93856 z m 34.0676,-25.95055 c 0.6864,-5.94851 -4.8407,-9.79945 -14.0649,-9.79945 -6.787,0 -12.0772,3.10005 -12.5714,7.36677 -0.6483,5.59707 -0.3453,5.71806 13.5547,5.41326 l 12.7699,-0.28003 0.3117,-2.70055 z m 92.1883,73.64047 c -19.8692,-4.28281 -36.5038,-19.91968 -41.4688,-38.98147 -1.917,-7.35998 -1.9542,-20.28008 -0.079,-27.32703 4.8597,-18.25845 20.6409,-33.79513 39.2505,-38.64233 7.3696,-1.91951 19.2914,-1.90199 26.7446,0.0393 18.8094,4.89925 35.3032,21.40408 39.4728,39.49942 1.5669,6.7999 1.2986,20.86316 -0.5159,27.04069 -5.6898,19.37099 -21.8874,34.22444 -41.9046,38.4271 -8.507,1.78605 -13.0098,1.77439 -21.5,-0.0557 z m 20.2008,-9.55451 c 13.4758,-2.83438 24.4409,-11.33484 30.54,-23.6755 3.7169,-7.5206 3.7592,-7.74179 3.7592,-19.65805 0,-11.49099 -0.1493,-12.3671 -3.2086,-18.82569 -4.204,-8.87531 -11.7549,-16.40611 -20.8189,-20.76371 -5.9993,-2.8842 -8.2765,-3.41187 -16.3152,-3.78059 -11.5339,-0.52904 -19.7529,1.46453 -27.9919,6.78961 -7.0241,4.53992 -11.2356,9.45032 -15.4625,18.02852 -3.0671,6.22446 -3.2029,7.01089 -3.2029,18.55186 0,11.91626 0.042,12.13745 3.7592,19.65805 9.0381,18.28747 28.8931,27.89231 48.9416,23.6755 z m -16.0804,-5.01274 c -11.6585,-1.93641 -23.7097,-11.36526 -28.835,-22.56049 -5.5038,-12.02192 -3.8255,-27.28323 4.1991,-38.18393 15.907,-21.60818 48.294,-21.29986 63.5977,0.60545 13.2364,18.94623 6.7706,45.07119 -13.8788,56.07722 -4.5867,2.44467 -16.6435,5.62447 -19.2034,5.06462 -0.275,-0.0601 -2.9208,-0.51143 -5.8796,-1.00287 z m 2.2289,-10.81539 c 2.8043,-1.06619 4.2044,-4.24549 2.8978,-6.58031 -1.3213,-2.36088 -17.3127,-13.47697 -19.3879,-13.47697 -0.9972,0 -2.5382,1.10671 -3.4245,2.45936 -3.1064,4.74098 0.7482,12.93728 7.7034,16.37997 4.7232,2.33794 8.3215,2.69683 12.2112,1.21795 z m 20.6663,-0.90889 c 6.2095,-3.29974 9.5714,-10.84914 7.3774,-16.5666 -1.0708,-2.79047 -5.7888,-1.77749 -11.9802,2.57217 -11.4113,8.01689 -13.0534,10.37574 -9.7578,14.0173 2.2084,2.4403 9.748,2.4283 14.3606,-0.0229 z m -9.5054,-13.58821 c 4.6513,-1.94342 7.4814,-6.82249 7.4861,-12.90589 0.01,-8.62796 -5.3879,-14.03891 -13.9963,-14.03891 -8.6084,0 -14.0029,5.41095 -13.9963,14.03891 0.01,11.12399 9.8889,17.34221 20.5065,12.90589 z m -10.7351,-5.11898 c -5.3684,-2.91333 -6.2818,-8.49714 -2.1862,-13.36447 2.0594,-2.44745 3.3707,-3.07673 6.4111,-3.07673 3.0405,0 4.3517,0.62928 6.4111,3.07673 4.1634,4.94794 3.1667,10.53886 -2.3911,13.41292 -3.5761,1.84926 -4.7608,1.8423 -8.2449,-0.0485 z m 29.6281,-1.57904 c 6.1784,-2.81506 5.8487,-15.70728 -0.5765,-22.54664 -4.1597,-4.42777 -11.8267,-3.75869 -11.8267,1.03208 0,3.71007 5.8785,20.04711 7.7012,21.4024 2.0284,1.50829 1.6572,1.49944 4.702,0.11216 z m -46.0098,-2.11216 c 2.7442,-4.28938 7.0092,-19.8872 5.9156,-21.63477 -1.3862,-2.21532 -6.9331,-2.59155 -9.8669,-0.66924 -6.022,3.94573 -8.5464,16.60915 -4.3695,21.91915 2.5775,3.27677 6.3587,3.45166 8.3208,0.38486 z m 33.4329,-24.07909 c 1.2182,-6.35141 -4.0852,-10.66135 -13.126,-10.66717 -6.2539,-0.004 -11.0186,1.85391 -12.6707,4.94087 -1.1766,2.19856 -1.3655,6.38618 -0.3345,7.41714 0.3823,0.3823 6.3393,0.5698 13.2377,0.41667 11.2326,-0.24934 12.5793,-0.46946 12.8935,-2.10752 z"
         id="path3867"
         inkscape:connector-curvature="0" />
      <path
         style="fill:#5c606f"
         d="m 1130.725,-331.647 c -28.078,-7.39892 -48.9709,-29.64731 -53.105,-56.55027 -0.7263,-4.72691 -0.9748,-57.89007 -0.7849,-167.9168 l 0.2779,-161 2.7244,-8 c 7.1347,-20.95037 22.0666,-36.35948 42.7911,-44.15854 4.6835,-1.76251 12.3335,-3.70635 17,-4.31964 5.9391,-0.78054 42.3854,-1.01922 121.4845,-0.79558 l 113,0.31949 7.4726,2.29234 c 28.7819,8.82924 47.7351,29.8852 52.031,57.80355 0.7164,4.65616 0.9656,58.23421 0.7758,166.85838 l -0.2794,160 -2.3487,7 c -4.0547,12.08471 -9.044,20.40759 -17.1406,28.59305 -8.5354,8.62903 -17.8753,14.51549 -29.5107,18.59918 l -8,2.80777 -119.5,0.20696 c -115.5743,0.20016 -119.7427,0.143 -126.888,-1.73989 z m 248.388,-3.23584 c 19.1059,-5.52602 36.3308,-19.41322 44.3191,-35.73123 7.7312,-15.79304 7.1826,-1.93871 7.1661,-180.9601 -0.016,-177.75253 0.3918,-166.52384 -6.566,-180.627 -8.4102,-17.04684 -24.2541,-30.06185 -43.9192,-36.07747 -5.6772,-1.73668 -12.4027,-1.83543 -125,-1.83543 l -119,0 -8,2.72441 c -11.1912,3.81118 -19.7173,9.10559 -27.9422,17.35113 -7.787,7.80662 -12.461,14.96839 -16.435,25.18291 l -2.6228,6.74155 0,165.5 0,165.5 2.4158,7.37571 c 6.0291,18.40737 23.2348,35.80787 42.2549,42.73343 11.5255,4.19661 13.1926,4.24742 132.8293,4.04817 105.3633,-0.17547 114.9788,-0.32916 120.5,-1.92608 z m -197.5,-61.61902 c -18.7144,-6.05745 -32.2177,-20.20712 -36.4602,-38.20528 -4.4336,-18.80894 0.8536,-37.58022 14.3447,-50.92815 28.0037,-27.70657 76.5823,-16.497 88.9323,20.52122 9.815,29.41984 -7.0033,61.3228 -36.3583,68.96881 -8.0783,2.10412 -23.4107,1.92462 -30.4585,-0.3566 z m 27.4833,-8.30493 c 11.1955,-2.83872 23.1785,-12.60737 28.3331,-23.0974 8.6397,-17.58261 5.7566,-35.99654 -7.8556,-50.17219 -7.1388,-7.43431 -15.3748,-11.86849 -25.2108,-13.57316 -21.7227,-3.76475 -44.6147,11.05439 -50.198,32.49557 -4.0799,15.66775 0.133,31.16509 11.6003,42.67243 11.56,11.60042 27.1055,15.78887 43.331,11.67475 z m -25.8183,-7.19682 c -11.1208,-4.68139 -16.5439,-9.83192 -21.4771,-20.39778 -2.298,-4.92174 -2.6687,-7.02799 -2.6776,-15.21268 -0.01,-8.6091 0.2874,-10.12839 3.1641,-16.20071 3.8937,-8.21914 10.0277,-14.5246 17.8801,-18.38008 5.5229,-2.71172 6.7629,-2.91921 17.4455,-2.91921 10.98,0 11.7713,0.14309 17.5,3.16457 7.3357,3.86908 13.4447,10.0319 17.1841,17.33543 2.6058,5.08963 2.8159,6.35804 2.8159,17 0,11.17605 -0.096,11.67612 -3.3904,17.75209 -4.1336,7.6225 -10.3816,13.56077 -17.9344,17.04547 -4.59,2.11768 -7.4918,2.6806 -15.1752,2.94379 -8.283,0.28374 -10.2475,0.0107 -15.335,-2.13089 z m 8.0199,-7.65549 c 1.5483,-0.57476 3.3326,-1.72428 3.9652,-2.55447 0.9974,-1.30907 1.4891,-1.17035 3.7045,1.04503 8.5191,8.51909 29.0916,-7.25209 21.7066,-16.64059 l -2.0167,-2.56384 2.9347,-0.58694 c 8.5401,-1.70802 7.6377,-19.25866 -1.2695,-24.68965 -4.0815,-2.48862 -6.9268,-2.48708 -9.1821,0.005 -1.7154,1.89557 -1.6797,2.29906 0.9522,10.75 1.504,4.82929 3.3331,9.94112 4.0647,11.35964 1.2999,2.52052 1.1784,2.67886 -5.3463,6.9686 -3.672,2.41422 -8.3043,5.86026 -10.2941,7.65787 l -3.6177,3.26838 -1.8932,-2.09336 c -2.6378,-2.91668 -16.923,-12.88064 -18.4667,-12.88064 -2.3263,0 -4.9265,3.27477 -4.9265,6.20465 0,5.84301 4.9662,11.95173 11.6552,14.3367 4.7471,1.69259 4.6042,1.68523 8.0297,0.41362 z m 14.2533,-15.79457 c 4.6031,-3.36798 6.4464,-6.84513 6.4464,-12.1604 0,-11.30881 -11.3298,-18.12476 -21.2793,-12.80145 -11.416,6.10796 -10.3149,21.63306 1.8952,26.72332 3.2905,1.37174 9.882,0.47429 12.9377,-1.76147 z m -14.8656,-6.79526 c -2.742,-3.48586 -2.6218,-7.61514 0.3213,-11.03665 3.2171,-3.74012 9.8564,-3.97251 12.7129,-0.44498 2.5671,3.17026 2.5113,9.49837 -0.1068,12.11649 -3.1227,3.12268 -10.2469,2.77281 -12.9274,-0.63486 z m -14.3894,-0.68949 c 1.0056,-1.27839 3.1565,-6.48028 4.7798,-11.55974 3.3636,-10.52516 2.9774,-12.43052 -2.6176,-12.91455 -8.6476,-0.74812 -15.8494,13.08895 -11.3454,21.7986 2.6947,5.21101 6.3509,6.27632 9.1832,2.67569 z m 33.1168,-22.87565 c 2.1206,-2.12058 1.357,-6.27544 -1.6898,-9.19445 -5.8382,-5.5933 -16.4665,-5.40305 -22.2682,0.39862 -3.2364,3.23637 -3.5703,5.53362 -1.187,8.16709 1.4147,1.56327 3.2729,1.82874 12.8,1.82874 7.335,0 11.5552,-0.41023 12.345,-1.2 z m 87.2,68.92418 c -18.4542,-6.31469 -30.4432,-19.23272 -35.1598,-37.88427 -4.8184,-19.05421 1.5149,-40.18016 15.8206,-52.77253 5.5469,-4.88258 16.2834,-10.4569 23.3392,-12.11753 3.025,-0.71195 8.875,-1.29446 13,-1.29446 23.747,0 43.567,14.00268 51.1742,36.15417 3.2701,9.52217 3.2588,24.89049 -0.025,34.45667 -5.633,16.40853 -18.1391,28.46438 -35.0043,33.74418 -9.1374,2.86052 -24.332,2.72931 -33.1447,-0.28623 z m 31.6062,-8.77496 c 20.2564,-6.91268 33.1495,-28.25298 29.5946,-48.98413 -3.2558,-18.98607 -18.237,-33.80073 -37.4508,-37.03438 -23.6093,-3.97342 -46.8464,13.07089 -51.0174,37.42111 -1.3917,8.12428 -0.1235,16.93035 3.6138,25.09357 2.8192,6.15804 11.058,15.48757 17.0179,19.27091 10.99,6.97654 25.4968,8.58226 38.2419,4.23292 z m -26.3202,-5.34366 c -32.9631,-10.7423 -36.4426,-55.81263 -5.493,-71.15159 7.4357,-3.68521 21.2482,-4.62895 29.4457,-2.01189 11.0387,3.52406 20.2639,12.44264 24.3679,23.55792 2.5277,6.8459 2.2668,20.02328 -0.5401,27.28458 -3.1413,8.12634 -11.2092,16.60156 -19.2845,20.25808 -5.1264,2.32127 -7.9376,2.89895 -15.282,3.14036 -5.6978,0.18728 -10.5461,-0.20805 -13.214,-1.07746 z m 8.8984,-10.27242 c 3.7457,-3.38987 1.9928,-5.95691 -10.0444,-14.7089 -6.9364,-5.04333 -8.5511,-5.46718 -11.3113,-2.96925 -3.7761,3.4174 -1.5193,11.191 4.6052,15.86241 6.1165,4.66525 12.8011,5.38986 16.7505,1.81574 z m 17.1153,1.0527 c 7.8143,-3.94135 11.959,-10.93298 9.7057,-16.37279 -2.1307,-5.14405 -4.0519,-4.88853 -13.5054,1.79618 -7.6464,5.40691 -10.5,8.34779 -10.5,10.82116 0,4.85993 7.9634,6.95131 14.2997,3.75545 z m -8.9709,-13.74987 c 6.4547,-2.69693 10.8483,-10.80976 9.2668,-17.11106 -0.9441,-3.76154 -6.2575,-9.25823 -10.2108,-10.56292 -9.9845,-3.29521 -20.8773,6.26865 -18.9345,16.62457 1.1969,6.38043 7.9291,11.97392 14.8318,12.32325 0.9802,0.0496 3.2512,-0.52362 5.0467,-1.27384 z m -11.3544,-7.4556 c -3.0869,-2.49965 -3.1458,-9.45345 -0.1057,-12.4935 2.9741,-2.97406 9.3354,-2.92725 12.3535,0.0909 3.1601,3.16011 3.1038,9.73008 -0.1057,12.32898 -3.007,2.4349 -9.1798,2.47232 -12.1421,0.0736 z m -15.6756,-0.43037 c 1.7791,-1.32288 7.7012,-17.65431 7.7012,-21.23759 0,-3.03968 -1.9034,-4.51241 -5.8319,-4.51241 -7.1895,0 -13.7773,11.68548 -11.2824,20.01269 1.1072,3.69552 4.238,6.98731 6.6457,6.98731 0.5975,0 1.8428,-0.5625 2.7674,-1.25 z m 49.2467,-1.20455 c 1.9615,-1.96151 2.4545,-3.47444 2.4545,-7.53211 0,-6.41461 -1.8481,-10.86629 -5.9407,-14.31003 -5.2637,-4.42909 -11.0593,-3.25351 -11.0593,2.24328 0,3.47492 4.9015,18.14278 6.7847,20.30341 2.1214,2.43391 4.872,2.1842 7.7608,-0.70455 z m -15.0257,-23.56732 c 1.7214,-1.90216 1.7328,-2.22513 0.1927,-5.45481 -2.0883,-4.37927 -6.8031,-6.80903 -13.2125,-6.80903 -6.4094,0 -11.1242,2.42976 -13.2125,6.80903 -1.5401,3.22968 -1.5287,3.55265 0.1927,5.45481 1.6287,1.79969 3.0594,2.02187 13.0198,2.02187 9.9604,0 11.3911,-0.22218 13.0198,-2.02187 z m -85.5198,-32.42371 c -19.9068,-5.60373 -34.3998,-20.79709 -38.5597,-40.42335 -1.7909,-8.44912 -1.7739,-13.88423 0.071,-22.63107 8.7199,-41.34928 60.5228,-56.53903 90.6045,-26.56725 11.3841,11.34245 16.5813,25.06915 15.5489,41.06725 -1.5375,23.82739 -16.7476,42.41394 -39.7097,48.52466 -6.5985,1.75601 -21.7649,1.77216 -27.9547,0.0298 z m 32.2876,-11.29574 c 28.6994,-13.48287 35.5237,-49.04903 13.6923,-71.36012 -10.156,-10.37912 -24.3566,-15.27896 -38.111,-13.14998 -35.7496,5.53353 -51.1065,48.03021 -26.687,73.85021 10.1115,10.69139 19.5627,14.58754 34.3181,14.14714 8.807,-0.26286 10.8098,-0.67889 16.7876,-3.48725 z m -30.0016,-3.65312 c -27.2938,-8.89473 -35.8719,-43.86171 -15.707,-64.02661 18.0155,-18.01556 50.4624,-13.24202 61.7429,9.08355 9.9352,19.66299 2.3724,42.96279 -17.0485,52.52365 -5.7158,2.8139 -7.7532,3.27067 -15.6717,3.51354 -5.742,0.17611 -10.6572,-0.22776 -13.3157,-1.09413 z m 26.214,-9.4956 c 6.2437,-2.88167 10.5,-8.62766 10.5,-14.17506 0,-1.99499 -3.2773,-5.9349 -4.9368,-5.9349 -1.2696,0 -13.8955,8.60749 -17.3132,11.80299 -3.4484,3.22415 -3.4803,5.47739 -0.1151,8.12443 3.2354,2.54502 6.633,2.59729 11.8651,0.18254 z m -17.46,-0.94124 c 3.8297,-3.10111 2.0759,-6.0625 -7.695,-12.99378 -4.7876,-3.39622 -9.3758,-6.17494 -10.1961,-6.17494 -2.6311,0 -5.1489,3.18088 -5.1489,6.50495 0,4.07635 4.6365,10.57572 9.1203,12.78455 4.5525,2.24272 11.0707,2.18616 13.9197,-0.12078 z m 10.8982,-14.05736 c 11.6534,-8.29211 7.6282,-25.27876 -6.3638,-26.85587 -10.1176,-1.14039 -18.8114,9.43614 -15.6444,19.03228 2.9231,8.85713 14.6814,13.03704 22.0082,7.82359 z m -13.202,-5.36136 c -3.7991,-2.88487 -4.2111,-10.1053 -0.7551,-13.2329 0.974,-0.88143 3.323,-1.85446 5.22,-2.16231 5.1829,-0.84107 9.2535,2.96216 9.2535,8.64583 0,3.20944 -0.5569,4.66384 -2.3381,6.10614 -2.6806,2.17059 -8.9056,2.52244 -11.3803,0.64324 z m -15.9976,-1.69976 c 2.1187,-2.27414 7.2614,-17.41927 7.2614,-21.38454 0,-3.74013 -3.8039,-5.19229 -8.4815,-3.23786 -5.2083,2.17614 -8.9471,8.57354 -8.9471,15.3091 0,4.92562 0.3326,5.78807 3.2301,8.377 3.8194,3.41261 4.5395,3.5098 6.9371,0.9363 z m 48.8069,-0.50479 c 2.0211,-2.02113 2.4545,-3.4425 2.4545,-8.04966 0,-3.07731 -0.6588,-6.86916 -1.4641,-8.42633 -4.5572,-8.81274 -15.5359,-11.01955 -15.5359,-3.12287 0,3.47492 4.9015,18.14278 6.7847,20.30341 2.1214,2.43391 4.872,2.1842 7.7608,-0.70455 z m -15.5143,-23.3696 c 1.9195,-1.55438 2.1094,-2.25686 1.2837,-4.75 -1.1487,-3.46822 -6.1588,-7.11834 -11.0231,-8.03089 -9.6699,-1.81408 -20.6922,7.20461 -15.3429,12.55389 1.8049,1.80496 3.2981,2.05115 12.4403,2.05115 8.5654,0 10.7847,-0.32023 12.642,-1.82415 z m -82.759,-34.61271 c -23.8156,-5.7708 -40.2722,-27.18422 -40.2722,-52.40226 0,-14.13293 5.1121,-26.27635 15.4782,-36.76718 9.9894,-10.1096 20.177,-14.84208 34.3887,-15.97476 35.4554,-2.8258 63.9542,29.1133 56.7324,63.58106 -4.34,20.71343 -19.0052,36.22413 -39.2304,41.49212 -6.9011,1.79752 -19.8318,1.83141 -27.0967,0.071 z m 26.9149,-9.53921 c 16.1877,-4.99987 28.1048,-18.79577 30.9103,-35.78342 4.7691,-28.87817 -22.1586,-55.4097 -51.1853,-50.43218 -13.2031,2.26409 -23.7284,9.19833 -30.9713,20.40449 -15.5792,24.10406 -3.6224,56.24795 24.5461,65.98841 6.9286,2.39586 18.6207,2.31822 26.7002,-0.1773 z m -24.2577,-5.3913 c -10.6578,-2.87363 -21.1524,-12.26732 -24.9024,-22.28992 -8.9644,-23.95954 4.4937,-48.06614 29.24,-52.37552 16.9798,-2.9569 33.9487,5.55464 41.388,20.76005 2.3245,4.75108 2.8537,7.30167 3.1621,15.23943 0.4178,10.7542 -1.4124,17.41362 -6.848,24.91726 -8.6793,11.98141 -26.7165,17.8803 -42.0397,13.7487 z m 28.021,-10.98108 c 2.272,-1.50358 4.7056,-4.3752 6.035,-7.12132 1.9226,-3.97168 2.0614,-5.00303 1.0136,-7.53273 -2.0181,-4.8721 -4.3851,-4.74547 -12.2413,0.65491 -3.8786,2.66617 -8.3163,6.02239 -9.8614,7.45825 l -2.8095,2.61066 -2.2934,-2.45734 c -3.6667,-3.92878 -15.9969,-12.26398 -18.142,-12.26398 -1.8406,0 -1.8589,-0.11321 -0.2976,-1.83848 1.7761,-1.96251 7.6462,-18.33496 7.6462,-21.32605 0,-2.54885 -4.3727,-5.16203 -7.201,-4.30346 -3.4246,1.03955 -6.8335,4.471 -8.909,8.96799 -3.3404,7.23781 -1.9536,14.3815 3.3215,17.10936 2.3434,1.21182 2.6496,1.78164 1.8053,3.35926 -3.9836,7.44333 3.781,17.82509 14.0708,18.81382 4.2398,0.40739 5.379,0.12783 7.4652,-1.832 2.1909,-2.05825 2.5985,-2.14144 3.7045,-0.75593 3.5814,4.4867 10.3248,4.67133 16.6931,0.45704 z m -9.1324,-13.68196 c 4.2799,-2.60938 7.6199,-9.82193 6.7343,-14.54254 -1.2067,-6.43227 -8.2504,-12.42705 -14.6015,-12.42705 -9.2964,0 -16.8073,9.46711 -14.5731,18.36864 0.784,3.12383 5.3039,8.55534 8.0407,9.66251 3.8835,1.57103 10.9342,1.05125 14.3996,-1.06156 z m -13.5163,-5.47083 c -1.1788,-0.82569 -2.4462,-2.88041 -2.8165,-4.56605 -1.8381,-8.36893 7.1833,-14.12769 13.8799,-8.86013 3.5207,2.76933 3.764,9.79755 0.4463,12.88846 -2.6194,2.44035 -8.4073,2.71075 -11.5097,0.53772 z m 33.1094,-2.57549 c 6.2856,-7.47004 -0.2305,-23.92327 -9.4745,-23.92327 -2.6128,0 -5.9366,2.18602 -5.9366,3.90444 0,0.41888 1.351,4.96486 3.0021,10.10219 4.3513,13.53804 7.3472,15.93226 12.409,9.91664 z m -16.3454,-21.95845 c 2.3431,-1.25399 2.5631,-5.62214 0.436,-8.65897 -0.8241,-1.17653 -3.5052,-2.90559 -5.9581,-3.84234 -6.4235,-2.45317 -12.8894,-1.31775 -17.2333,3.02621 -3.8552,3.85521 -4.209,6.76738 -1.0878,8.95358 2.6174,1.83326 20.655,2.22779 23.8432,0.52152 z m 91.0432,69.5146 c -7.8867,-2.20994 -12.9245,-4.6748 -19.0826,-9.33661 -26.2059,-19.83843 -27.8602,-59.72904 -3.4038,-82.08072 9.1573,-8.36929 23.8305,-14.02736 36.3775,-14.02736 13.8061,0 28.174,5.99284 38.1155,15.89802 27.5732,27.47248 17.46,74.3156 -18.9691,87.86226 -8.5102,3.16462 -24.7924,3.99477 -33.0375,1.68441 z m 32.1787,-11.22585 c 28.6295,-13.42847 35.5617,-49.50096 13.7201,-71.39295 -10.4091,-10.43304 -25.1033,-15.44952 -38.5217,-13.15104 -19.5182,3.34332 -34.393,18.04795 -37.6867,37.25551 -2.297,13.39465 1.7542,26.11814 11.7555,36.92079 5.5251,5.96772 14.2113,11.35193 21.0629,13.05595 2.1353,0.53104 8.1573,0.85976 13.3823,0.73048 8.3104,-0.20562 10.35,-0.63373 16.2876,-3.41874 z m -30.4512,-4.10753 c -7.2756,-2.41014 -11.7637,-5.21635 -16.2047,-10.13197 -13.8027,-15.27795 -13.4254,-39.27303 0.842,-53.54039 14.6077,-14.60771 40.3787,-14.67389 54.9116,-0.141 18.6075,18.60746 13.3595,50.5736 -10.1444,61.79097 -8.5954,4.10223 -20.6278,4.9298 -29.4045,2.02239 z m 26.8751,-9.24841 c 7.7994,-3.77563 12.2167,-12.30588 8.9524,-17.28788 -1.5115,-2.30674 -1.4734,-2.44074 0.8591,-3.02617 4.8754,-1.22364 7.078,-10.81613 4.113,-17.91239 -3.8023,-9.10021 -15.636,-11.91907 -15.636,-3.7246 0,3.34796 4.8683,18.16027 6.5597,19.95827 1.1125,1.18275 0.738,1.6984 -2.3691,3.26151 -5.7834,2.90948 -16.6584,12.19375 -16.995,14.50903 -0.3811,2.62108 4.0831,6.3246 7.6235,6.3246 1.4022,0 4.5038,-0.94607 6.8924,-2.10237 z m -17.7115,-0.89763 c 3.7268,-3.72681 2.6296,-5.62594 -7.5,-12.98141 -8.3673,-6.07579 -10.8655,-6.90277 -13.5403,-4.48212 -4.3047,3.89568 -1.0803,12.47925 6.364,16.94133 5.2858,3.16831 11.7985,3.40004 14.6763,0.5222 z m 11.1021,-14.26993 c 12.7758,-8.5348 5.6281,-28.19963 -9.625,-26.48038 -5.4537,0.61471 -8.9158,3.17467 -11.583,8.56473 -2.367,4.7835 -2.1524,9.6162 0.6145,13.83909 4.1748,6.37151 14.1904,8.35413 20.5935,4.07656 z m -13.2771,-4.76819 c -0.9212,-0.53752 -2.1722,-2.48402 -2.78,-4.32555 -1.3321,-4.03635 -0.1883,-7.72214 3.1144,-10.03542 7.2686,-5.09115 16.5468,3.26518 12.441,11.20492 -0.8395,1.62349 -2.2549,3.23134 -3.1452,3.57299 -2.4116,0.92543 -7.7237,0.69545 -9.6302,-0.41694 z m -16.3668,-1.91573 c 2.2101,-2.44206 7.5418,-17.47879 7.5418,-21.26954 0,-3.84597 -3.6492,-5.57875 -7.9752,-3.78689 -9.4714,3.92317 -12.9486,18.53087 -5.8357,24.51592 3.5702,3.00411 4.0056,3.04165 6.2691,0.54051 z m 33.593,-24.0973 c 2.1085,-2.10853 1.959,-4.88125 -0.4236,-7.85733 -1.6973,-2.12008 -8.7311,-5.0476 -12.1276,-5.0476 -3.3965,0 -10.4303,2.92752 -12.1276,5.0476 -2.3826,2.97608 -2.5321,5.7488 -0.4235,7.85733 1.8077,1.80774 3.2972,2.05115 12.5511,2.05115 9.254,0 10.7434,-0.24341 12.5512,-2.05115 z"
         id="path3865"
         inkscape:connector-curvature="0" />
      <path
         style="fill:#881d22"
         d="m 1130.725,-331.647 c -28.078,-7.39892 -48.9709,-29.64731 -53.105,-56.55027 -0.7263,-4.72691 -0.9748,-57.89007 -0.7849,-167.9168 l 0.2779,-161 2.7244,-8 c 7.1347,-20.95037 22.0666,-36.35948 42.7911,-44.15854 4.6835,-1.76251 12.3335,-3.70635 17,-4.31964 5.9391,-0.78054 42.3854,-1.01922 121.4845,-0.79558 l 113,0.31949 7.4726,2.29234 c 28.7819,8.82924 47.7351,29.8852 52.031,57.80355 0.7164,4.65616 0.9656,58.23421 0.7758,166.85838 l -0.2794,160 -2.3487,7 c -4.0547,12.08471 -9.044,20.40759 -17.1406,28.59305 -8.5354,8.62903 -17.8753,14.51549 -29.5107,18.59918 l -8,2.80777 -119.5,0.20696 c -115.5743,0.20016 -119.7427,0.143 -126.888,-1.73989 z m 248.388,-3.23584 c 19.1059,-5.52602 36.3308,-19.41322 44.3191,-35.73123 7.7312,-15.79304 7.1826,-1.93871 7.1661,-180.9601 -0.016,-177.75253 0.3918,-166.52384 -6.566,-180.627 -8.4102,-17.04684 -24.2541,-30.06185 -43.9192,-36.07747 -5.6772,-1.73668 -12.4027,-1.83543 -125,-1.83543 l -119,0 -8,2.72441 c -11.1912,3.81118 -19.7173,9.10559 -27.9422,17.35113 -7.787,7.80662 -12.461,14.96839 -16.435,25.18291 l -2.6228,6.74155 0,165.5 0,165.5 2.4158,7.37571 c 6.0291,18.40737 23.2348,35.80787 42.2549,42.73343 11.5255,4.19661 13.1926,4.24742 132.8293,4.04817 105.3633,-0.17547 114.9788,-0.32916 120.5,-1.92608 z m -196.2493,-61.27637 c -6.799,-1.83082 -11.5481,-4.29446 -18.5625,-9.62952 -25.2654,-19.21653 -27.6875,-56.71489 -5.121,-79.28142 10.6889,-10.68886 23.4811,-15.89236 38.9328,-15.83668 15.3143,0.0552 28.2062,5.80755 38.8985,17.35648 27.1326,29.30642 13.6611,75.74866 -25.33,87.32384 -6.7166,1.99395 -21.5344,2.02855 -28.8178,0.0673 z m 28.2961,-9.00018 c 6.6858,-1.8446 16.217,-8.10946 20.7457,-13.63619 22.2249,-27.12254 6.7477,-67.58554 -27.9158,-72.98215 -27.0092,-4.20494 -51.3157,16.77007 -51.3648,44.32457 -0.03,17.03283 9.8893,32.69035 25.2648,39.87864 10.5196,4.91813 21.3487,5.70422 33.2701,2.41513 z m -25.0468,-5.79719 c -13.3114,-4.39725 -22.661,-14.31761 -26.0831,-27.67539 -4.4094,-17.21155 4.0715,-35.17813 20.3958,-43.20799 6.2397,-3.06926 7.3141,-3.27411 17.1717,-3.27411 9.6115,0 11.0304,0.25274 16.5028,2.93962 7.6383,3.75024 14.8952,11.0071 18.3246,18.32459 2.3827,5.08402 2.6882,6.92893 2.6882,16.23579 0,9.59649 -0.2533,11.01629 -2.9437,16.5 -3.6664,7.47317 -10.7583,14.49287 -18.2909,18.1046 -4.7224,2.2643 -7.3935,2.81954 -14.7654,3.06931 -5.5861,0.18926 -10.5173,-0.19629 -13,-1.01642 z m 8.5753,-10.22565 c 1.7067,-1.54457 2.0043,-1.51441 4.5108,0.45726 6.4425,5.06761 18.1749,0.42498 22.0938,-8.74269 1.6642,-3.89329 0.9509,-8.67519 -1.508,-10.11004 -1.3872,-0.80944 -1.216,-0.98073 1.0055,-1.00596 4.0331,-0.0458 6.8226,-4.2152 6.8226,-10.19739 0,-6.2931 -1.885,-10.71702 -6.0652,-14.2344 -2.7363,-2.30249 -4.0112,-2.71758 -7.0817,-2.30574 -3.6869,0.49451 -3.7493,0.44654 -4.0488,-3.11315 -0.7679,-9.12456 -18.0501,-12.03342 -25.0543,-4.21704 -1.5125,1.68787 -2.75,3.96176 -2.75,5.05309 0,1.67704 -0.6783,1.98422 -4.3813,1.98422 -3.6099,0 -4.9319,0.56304 -7.5076,3.19755 -6.803,6.95833 -6.8301,18.57017 -0.053,22.69162 1.8427,1.12061 2.667,2.16262 2.0249,2.55948 -0.5957,0.36816 -1.0831,2.56337 -1.0831,4.87823 0,6.89829 3.959,11.47197 13,15.01851 2.4255,0.95145 8.1005,-0.12638 10.0753,-1.91355 z m 1.286,-5.75073 c -1.2382,-2.21245 -17.2059,-13.68111 -19.0482,-13.68111 -1.131,0 -1.1227,-0.3778 0.049,-2.25 2.3871,-3.81285 6.8716,-18.7451 6.3885,-21.27225 -0.4019,-2.10229 -0.2229,-2.2655 1.483,-1.35251 1.1376,0.60881 6.8157,0.90105 13.7273,0.70652 8.9516,-0.25195 11.6747,-0.0393 11.3191,0.88403 -0.4915,1.27655 5.3644,19.99144 6.8455,21.87726 0.5463,0.69555 -0.03,1.49764 -1.5834,2.20562 -3.6341,1.65582 -17.2919,11.94951 -17.7741,13.3961 -0.2868,0.86052 -0.7283,0.69938 -1.4071,-0.51366 z m 8.2629,-7.74122 c 4.5301,-2.193 8.3971,-8.21325 8.3538,-13.00561 -0.044,-4.8557 -3.6194,-10.71067 -7.863,-12.87561 -13.1976,-6.7329 -26.4524,5.6246 -20.7281,19.32479 3.162,7.56791 12.1396,10.47644 20.2373,6.55643 z m -12.5988,-6.91445 c -4.4835,-4.48356 -3.2925,-11.18023 2.4123,-13.56387 3.8156,-1.59424 5.9461,-1.1683 9.3123,1.86176 3.1027,2.79284 3.0704,8.55732 -0.064,11.50236 -3.0105,2.82817 -8.9303,2.92959 -11.6601,0.19975 z m 107.6659,45.47378 c -14.2326,-3.91266 -27.8742,-15.34322 -34.1656,-28.62808 -11.6456,-24.59077 -3.3694,-52.88511 19.9022,-68.04025 15.9041,-10.35722 37.1436,-10.98197 54.8048,-1.61207 15.9321,8.45251 27.7377,28.36344 27.7377,46.78118 0,23.43328 -17.1109,45.42812 -40.1014,51.54724 -6.6063,1.75834 -21.7005,1.73261 -28.1777,-0.048 z m 26.792,-8.69771 c 18.4942,-4.66259 32.5167,-23.12026 32.5167,-42.80151 0,-26.99855 -24.5219,-48.13259 -51.2461,-44.16614 -36.5487,5.42462 -51.5154,49.49344 -25.6225,75.44453 11.5514,11.57737 27.5989,15.74671 44.3519,11.52312 z m -24.9833,-6.54669 c -13.5134,-4.84844 -22.9028,-15.93203 -25.4645,-30.05919 -2.9798,-16.43253 6.2047,-33.72942 21.7894,-41.03522 5.0157,-2.3513 6.8951,-2.66041 16.1751,-2.66041 9.28,0 11.1594,0.30911 16.1752,2.66041 11.6121,5.44359 20.7139,17.79243 22.2652,30.2085 1.9878,15.91017 -7.0596,31.8944 -22.2633,39.33285 -7.325,3.58381 -20.9591,4.32219 -28.6771,1.55306 z m 9.6844,-9.92168 c 3.7058,-3.35376 2.3574,-5.95676 -6.4143,-12.38203 -4.5264,-3.31562 -9.2328,-6.28013 -10.4588,-6.58782 -2.0289,-0.50922 -2.1033,-0.75253 -0.8293,-2.71136 1.7223,-2.6482 6.4877,-17.41058 6.5052,-20.15193 0.012,-1.9006 0.6837,-2 13.5128,-2 l 13.5,0 0,3.07485 c 0,3.04725 3.737,15.19674 5.941,19.31495 0.9541,1.78274 0.846,2.24821 -0.6479,2.78902 -0.9862,0.35703 -5.5056,3.30601 -10.0431,6.55329 -7.0514,5.04636 -8.25,6.32184 -8.25,8.77931 0,9.13275 16.7982,7.30826 22.5141,-2.44533 3.0061,-5.1295 3.164,-8.88798 0.4859,-11.56609 -2,-2 -2,-2 0.4274,-2 6.4872,0 8.9457,-12.27496 4.1108,-20.52499 -2.7359,-4.66855 -7.0418,-7.0231 -11.2942,-6.17598 -2.4809,0.49421 -2.7544,0.26302 -2.8522,-2.41085 -0.1505,-4.11255 -3.7455,-7.53364 -9.3223,-8.87151 -8.9464,-2.14621 -18.2094,2.21837 -18.4613,8.69868 -0.103,2.65076 -0.3125,2.76779 -4.3576,2.43401 -3.7274,-0.30758 -4.6666,0.0667 -7.6469,3.04692 -3.1485,3.14849 -5.5848,8.8436 -5.5981,13.08584 -0.011,3.35674 2.8898,8.7131 5.3166,9.81883 2.1383,0.97427 2.305,1.42646 1.4049,3.8112 -4.1549,11.00754 13.873,24.18969 22.4573,16.42099 z m 9.7797,-13.58314 c 13.1043,-6.71955 9.3409,-25.83415 -5.4139,-27.49723 -11.9015,-1.34148 -20.1164,10.83656 -14.6017,21.64622 1.5702,3.07791 3.3257,4.77654 6.3602,6.15421 5.4842,2.48984 8.3318,2.42661 13.6554,-0.3032 z m -12.6408,-7 c -3.0067,-3.34035 -3.4576,-5.4928 -1.9209,-9.17057 3.9427,-9.43635 19.0332,-4.00482 15.6708,5.64042 -1.4042,4.02813 -3.7878,5.70956 -8.1489,5.74835 -2.4692,0.022 -4.2024,-0.66446 -5.601,-2.2182 z m -67.211,-57.33055 c -26.43,-7.10792 -43.6301,-33.63467 -39.1255,-60.34097 2.4225,-14.36249 12.7209,-29.72061 24.5955,-36.67958 16.9023,-9.90541 35.062,-10.70052 52.2637,-2.28834 17.7272,8.66914 28.4363,24.61587 29.8101,44.38944 1.7477,25.15524 -15.3194,48.48885 -40.2084,54.97161 -7.2745,1.89475 -20.1876,1.87012 -27.3354,-0.0522 z m 30.8877,-10.25058 c 29.9814,-11.74522 37.4998,-51.17243 14.0274,-73.5613 -17.7915,-16.97027 -45.1728,-16.61132 -62.5962,0.82061 -7.2698,7.27332 -11.2034,14.88417 -12.7043,24.58055 -3.2901,21.25617 8.9591,41.68226 29.2462,48.76922 8.5804,2.99741 23.5474,2.71277 32.0269,-0.60908 z m -27.5,-4.57102 c -19.2178,-6.09375 -30.7857,-24.28191 -27.4107,-43.09785 4.6658,-26.01186 32.8452,-39.67206 56.2133,-27.24985 29.8651,15.87589 25.7491,59.85136 -6.5425,69.90165 -6.781,2.11047 -16.403,2.30328 -22.2601,0.44605 z m 24.1849,-8.66147 c 3.4486,-1.30298 8.0102,-5.51102 9.9044,-9.13672 1.8379,-3.51803 1.7876,-6.81654 -0.146,-9.57715 -1.452,-2.07297 -1.4232,-2.22251 0.4274,-2.22251 3.4708,0 6.1293,-4.63002 6.1293,-10.6747 0,-9.9183 -5.5546,-16.86394 -12.9244,-16.16111 -3.378,0.32214 -3.6681,0.15473 -3.2769,-1.89147 0.6785,-3.54947 -5.3432,-8.93191 -10.9301,-9.76971 -8.8783,-1.33139 -17.0289,3.08907 -17.2604,9.36112 -0.092,2.5069 -0.3712,2.79306 -1.9168,1.96808 -6.1076,-3.25984 -15.6555,6.7532 -15.6858,16.44991 -0.011,3.40092 2.9037,8.71945 5.4017,9.85758 2.006,0.91401 2.3182,1.50472 1.5519,2.93649 -2.624,4.90306 0.4541,12.264 6.9625,16.65001 6.9967,4.7151 17.7807,2.24063 16.9087,-3.87981 -0.3799,-2.6663 -15.9864,-14.84639 -19.0229,-14.84639 -1.6893,0 -1.7239,-0.19942 -0.3898,-2.25 1.7719,-2.72361 6.5517,-17.45684 6.5695,-20.25 0.012,-1.9006 0.6837,-2 13.5128,-2 l 13.5,0 0.013,2.5 c 0.013,2.55072 4.2702,16.79167 5.968,19.96415 0.7357,1.37461 0.4188,1.98839 -1.4712,2.84954 -1.3249,0.60366 -5.8065,3.61025 -9.9592,6.6813 -6.3852,4.72208 -7.5504,6.03185 -7.5504,8.48767 0,5.17868 6.6849,7.59851 13.6849,4.95372 z m -5.0414,-16.03611 c 10.5649,-6.4924 7.0629,-24.17632 -5.2449,-26.48528 -14.6661,-2.75137 -23.9849,13.01408 -14.2477,24.10413 5.003,5.69804 12.5875,6.62454 19.4926,2.38115 z m -14.4692,-6.21472 c -2.1382,-2.27605 -2.8322,-6.80742 -1.5531,-10.14075 0.9656,-2.51643 6.1356,-4.75713 9.3481,-4.05154 9.6616,2.12204 7.9455,16.50674 -1.9693,16.50674 -2.5238,0 -4.3228,-0.71474 -5.8257,-2.31445 z m -65.0505,-59.26318 c -23.1222,-6.21895 -40.1618,-28.04789 -40.109,-51.38247 0.033,-14.67759 5.3993,-27.44975 15.9852,-38.04673 16.7624,-16.78002 41.8301,-20.54828 62.9311,-9.46002 17.7277,9.31564 28.5344,27.35674 28.4327,47.46685 -0.057,11.19603 -2.7827,20.2725 -8.8213,29.36996 -12.2746,18.49249 -36.9802,27.81856 -58.4187,22.05241 z m 32.9417,-11.55335 c 18.2011,-8.64932 28.2657,-27.52817 25.0514,-46.99107 -1.6518,-10.00193 -5.3975,-17.3022 -12.5451,-24.44977 -22.1505,-22.15053 -58.9494,-15.89779 -72.3363,12.29113 -2.9168,6.142 -3.5728,8.79186 -3.9906,16.12062 -1.2101,21.2221 10.5778,38.70951 30.5171,45.27259 4.4001,1.44834 8.0696,1.82609 15.738,1.62017 9.1216,-0.24493 10.6645,-0.58431 17.5655,-3.86367 z m -31.1566,-3.70685 c -10.7084,-3.53827 -18.0557,-10.10044 -23.0087,-20.55019 -11.0836,-23.38406 4.3473,-50.49202 30.7833,-54.0782 15.2985,-2.07531 32.2602,7.58079 39.1561,22.29107 2.3533,5.01993 2.6597,6.88742 2.654,16.17515 -0.01,9.42145 -0.2889,11.07644 -2.7572,16.11179 -3.4619,7.06226 -11.9513,15.18083 -19.4838,18.63261 -7.6326,3.49771 -19.229,4.09898 -27.3437,1.41777 z m 26.6325,-9.04183 c 7.7662,-3.5277 11.9972,-11.32978 9.1927,-16.95154 -1.3682,-2.7426 -1.3157,-2.88826 1.4128,-3.91814 5.1349,-1.93822 6.4853,-11.24746 2.7507,-18.96221 -2.3862,-4.92925 -6.5016,-7.55804 -11.1104,-7.09706 -5.192,0.51931 -5.5889,2.60539 -2.3816,12.51808 1.5643,4.83479 3.4421,9.96531 4.1729,11.40115 1.2331,2.42278 1.1441,2.69476 -1.2376,3.77994 -3.9936,1.8196 -15.1966,10.06531 -16.8156,12.37673 -1.3031,1.86044 -1.5233,1.90158 -2.1022,0.3928 -0.9744,-2.53925 -16.8926,-13.65786 -19.5787,-13.6754 -1.3339,-0.009 -1.8702,-0.33198 -1.2441,-0.75 0.6052,-0.40408 1.6079,-1.69945 2.2284,-2.87861 1.496,-2.84307 6.1427,-17.45049 6.1572,-19.35608 0.01,-1.26469 1.8015,-1.44763 11.4219,-1.16618 13.4284,0.39285 15.5922,-0.3399 15.5922,-5.28011 0,-9.50731 -18.1739,-12.86424 -25.6971,-4.74655 -1.6615,1.79285 -2.3375,3.50393 -2.0792,5.26346 0.3597,2.45079 0.222,2.54643 -2.2969,1.59566 -6.209,-2.34366 -13.816,4.97512 -14.6637,14.1083 -0.5624,6.05787 0.8966,9.74378 4.7951,12.11459 1.8426,1.12061 2.667,2.16262 2.0249,2.55948 -0.5957,0.36816 -1.0831,2.65217 -1.0831,5.07557 0,7.65572 7.6982,14.47578 16.3396,14.47578 2.8016,0 5.2674,-0.6709 6.6852,-1.81898 2.1905,-1.77376 2.304,-1.76132 4.5653,0.5 2.841,2.84103 7.3288,2.99326 12.9513,0.43932 z m -5.1372,-16.17032 c 10.7805,-9.46546 4.3455,-25.96058 -10.1221,-25.94628 -10.6259,0.0105 -17.3871,11.65063 -12.6121,21.71319 2.3697,4.99374 6.6142,7.2748 13.5452,7.27933 4.9479,0.003 6.1816,-0.40575 9.189,-3.04624 z m -15.9039,-6.13204 c -3.2488,-3.86102 -2.8604,-8.12301 1.0544,-11.56798 2.9746,-2.61766 5.4343,-2.82416 9.3738,-0.78699 7.4789,3.86749 4.2536,15.53699 -4.2941,15.53699 -2.657,0 -4.076,-0.73612 -6.1341,-3.18202 z m 107.9997,46.31543 c -17.264,-4.96083 -30.8076,-17.86475 -36.6752,-34.94297 -3.3401,-9.7216 -3.1813,-23.91581 0.3794,-33.90646 4.989,-13.99837 14.8411,-24.66841 28.8103,-31.20203 28.1907,-13.18532 62.7977,1.8068 73.0664,31.65312 9.9034,28.7849 -7.7722,60.95874 -37.7841,68.77584 -7.4991,1.95328 -20.2901,1.77957 -27.7968,-0.3775 z m 28.7992,-9.1441 c 25.8279,-7.97743 38.1847,-38.51881 25.5805,-63.22522 -2.9401,-5.76308 -11.909,-14.91792 -17.7059,-18.07296 -13.211,-7.19035 -30.0015,-7.41112 -43.4097,-0.57078 -5.7631,2.9401 -14.9179,11.90898 -18.073,17.70582 -13.3465,24.52197 -1.7569,55.0194 24.282,63.89696 8.6263,2.941 20.3223,3.04716 29.3261,0.26618 z m -24.7992,-5.33314 c -14.9718,-4.96564 -24.7868,-15.95604 -27.5263,-30.82278 -4.573,-24.81627 18.9916,-48.39999 43.9652,-44.00097 22.135,3.89899 36.9538,25.42444 31.6786,46.01552 -3.2728,12.77504 -10.0074,21.09983 -21.3714,26.41767 -5.3866,2.5207 -8.189,3.17186 -14.7007,3.41581 -4.8256,0.18079 -9.6462,-0.22952 -12.0454,-1.02525 z m 24.2685,-9.2039 c 9.0189,-3.76834 13.6681,-12.52857 9.6748,-18.22976 -1.452,-2.07297 -1.4232,-2.22251 0.4274,-2.22251 3.4708,0 6.1293,-4.63002 6.1293,-10.6747 0,-9.9183 -5.5546,-16.86394 -12.9244,-16.16111 -3.378,0.32214 -3.6681,0.15473 -3.2769,-1.89147 0.3015,-1.57705 -0.5895,-3.26356 -2.9951,-5.66908 -6.0784,-6.07845 -17.9128,-5.82783 -23.2306,0.49197 -3.2379,3.84802 -3.263,6.40618 -0.083,8.48959 2.0325,1.33175 4.6034,1.56421 14,1.26592 l 11.5103,-0.36539 0.015,2.50714 c 0.016,2.73138 4.0476,16.38701 5.8093,19.67885 0.9282,1.73427 0.7287,2.21091 -1.3148,3.14197 -1.3248,0.60366 -5.8323,3.6293 -10.0164,6.72365 -6.9667,5.15206 -7.5817,5.89111 -7.3004,8.77157 0.5167,5.28966 6.4779,7.10903 13.5758,4.14336 z m -16.3431,-1.3698 c 3.1504,-3.48123 1.6234,-6.14633 -7.3448,-12.81855 -5.124,-3.81219 -9.4295,-6.27582 -11,-6.29433 -2.1553,-0.0254 -2.3055,-0.19093 -0.9116,-1.00435 2.0991,-1.22492 8.0808,-18.94069 7.651,-22.6595 -0.7391,-6.39501 -10.5371,-4.72705 -14.5709,2.48048 -4.4736,7.99332 -3.6939,16.75639 1.7875,20.08982 2.087,1.26922 2.5892,2.10239 1.9122,3.1726 -2.7805,4.39525 0.5431,12.34452 6.9729,16.67756 4.4517,2.99999 12.9347,3.19492 15.5037,0.35627 z m 10.5761,-13.7424 c 3.6117,-2.13348 6.9989,-8.1733 6.997,-12.47622 0,-8.00993 -6.7803,-14.86385 -14.696,-14.86385 -14.2718,0 -20.4811,16.48994 -9.7553,25.90726 3.034,2.66393 4.2934,3.09274 9.0833,3.09274 3.3859,0 6.66,-0.64924 8.371,-1.65993 z m -12.8421,-5.94098 c -3.4714,-2.43144 -4.4056,-5.87399 -2.7012,-9.95328 3.5513,-8.49941 15.9418,-5.9862 15.9418,3.23352 0,6.61492 -7.7644,10.55544 -13.2406,6.71976 z"
         id="path3863"
         inkscape:connector-curvature="0" />
      <path
         style="fill:#0f1938"
         d="m 1130.725,-331.647 c -28.078,-7.39892 -48.9709,-29.64731 -53.105,-56.55027 -0.7263,-4.72691 -0.9748,-57.89007 -0.7849,-167.9168 l 0.2779,-161 2.7244,-8 c 7.1347,-20.95037 22.0666,-36.35948 42.7911,-44.15854 4.6835,-1.76251 12.3335,-3.70635 17,-4.31964 5.9391,-0.78054 42.3854,-1.01922 121.4845,-0.79558 l 113,0.31949 7.4726,2.29234 c 28.7819,8.82924 47.7351,29.8852 52.031,57.80355 0.7164,4.65616 0.9656,58.23421 0.7758,166.85838 l -0.2794,160 -2.3487,7 c -4.0547,12.08471 -9.044,20.40759 -17.1406,28.59305 -8.5354,8.62903 -17.8753,14.51549 -29.5107,18.59918 l -8,2.80777 -119.5,0.20696 c -115.5743,0.20016 -119.7427,0.143 -126.888,-1.73989 z m 248.388,-3.23584 c 19.1059,-5.52602 36.3308,-19.41322 44.3191,-35.73123 7.7312,-15.79304 7.1826,-1.93871 7.1661,-180.9601 -0.016,-177.75253 0.3918,-166.52384 -6.566,-180.627 -8.4102,-17.04684 -24.2541,-30.06185 -43.9192,-36.07747 -5.6772,-1.73668 -12.4027,-1.83543 -125,-1.83543 l -119,0 -8,2.72441 c -11.1912,3.81118 -19.7173,9.10559 -27.9422,17.35113 -7.787,7.80662 -12.461,14.96839 -16.435,25.18291 l -2.6228,6.74155 0,165.5 0,165.5 2.4158,7.37571 c 6.0291,18.40737 23.2348,35.80787 42.2549,42.73343 11.5255,4.19661 13.1926,4.24742 132.8293,4.04817 105.3633,-0.17547 114.9788,-0.32916 120.5,-1.92608 z m -196.2493,-61.27637 c -6.799,-1.83082 -11.5481,-4.29446 -18.5625,-9.62952 -25.2654,-19.21653 -27.6875,-56.71489 -5.121,-79.28142 10.6889,-10.68886 23.4811,-15.89236 38.9328,-15.83668 15.3143,0.0552 28.2062,5.80755 38.8985,17.35648 27.1326,29.30642 13.6611,75.74866 -25.33,87.32384 -6.7166,1.99395 -21.5344,2.02855 -28.8178,0.0673 z m 28.2961,-9.00018 c 6.6858,-1.8446 16.217,-8.10946 20.7457,-13.63619 22.2249,-27.12254 6.7477,-67.58554 -27.9158,-72.98215 -27.0092,-4.20494 -51.3157,16.77007 -51.3648,44.32457 -0.03,17.03283 9.8893,32.69035 25.2648,39.87864 10.5196,4.91813 21.3487,5.70422 33.2701,2.41513 z m -25.0468,-5.79719 c -13.3114,-4.39725 -22.661,-14.31761 -26.0831,-27.67539 -4.4094,-17.21155 4.0715,-35.17813 20.3958,-43.20799 6.2397,-3.06926 7.3141,-3.27411 17.1717,-3.27411 9.6115,0 11.0304,0.25274 16.5028,2.93962 7.6383,3.75024 14.8952,11.0071 18.3246,18.32459 2.3827,5.08402 2.6882,6.92893 2.6882,16.23579 0,9.59649 -0.2533,11.01629 -2.9437,16.5 -3.6664,7.47317 -10.7583,14.49287 -18.2909,18.1046 -4.7224,2.2643 -7.3935,2.81954 -14.7654,3.06931 -5.5861,0.18926 -10.5173,-0.19629 -13,-1.01642 z m 8.5753,-10.22565 c 1.7067,-1.54457 2.0043,-1.51441 4.5108,0.45726 6.4425,5.06761 18.1749,0.42498 22.0938,-8.74269 1.6642,-3.89329 0.9509,-8.67519 -1.508,-10.11004 -1.3872,-0.80944 -1.216,-0.98073 1.0055,-1.00596 4.0331,-0.0458 6.8226,-4.2152 6.8226,-10.19739 0,-6.2931 -1.885,-10.71702 -6.0652,-14.2344 -2.7363,-2.30249 -4.0112,-2.71758 -7.0817,-2.30574 -3.6869,0.49451 -3.7493,0.44654 -4.0488,-3.11315 -0.7679,-9.12456 -18.0501,-12.03342 -25.0543,-4.21704 -1.5125,1.68787 -2.75,3.96176 -2.75,5.05309 0,1.67704 -0.6783,1.98422 -4.3813,1.98422 -3.6099,0 -4.9319,0.56304 -7.5076,3.19755 -6.803,6.95833 -6.8301,18.57017 -0.053,22.69162 1.8427,1.12061 2.667,2.16262 2.0249,2.55948 -0.5957,0.36816 -1.0831,2.56337 -1.0831,4.87823 0,6.89829 3.959,11.47197 13,15.01851 2.4255,0.95145 8.1005,-0.12638 10.0753,-1.91355 z m 1.286,-5.75073 c -1.2382,-2.21245 -17.2059,-13.68111 -19.0482,-13.68111 -1.131,0 -1.1227,-0.3778 0.049,-2.25 2.3871,-3.81285 6.8716,-18.7451 6.3885,-21.27225 -0.4019,-2.10229 -0.2229,-2.2655 1.483,-1.35251 1.1376,0.60881 6.8157,0.90105 13.7273,0.70652 8.9516,-0.25195 11.6747,-0.0393 11.3191,0.88403 -0.4915,1.27655 5.3644,19.99144 6.8455,21.87726 0.5463,0.69555 -0.03,1.49764 -1.5834,2.20562 -3.6341,1.65582 -17.2919,11.94951 -17.7741,13.3961 -0.2868,0.86052 -0.7283,0.69938 -1.4071,-0.51366 z m 8.2629,-7.74122 c 4.5301,-2.193 8.3971,-8.21325 8.3538,-13.00561 -0.044,-4.8557 -3.6194,-10.71067 -7.863,-12.87561 -13.1976,-6.7329 -26.4524,5.6246 -20.7281,19.32479 3.162,7.56791 12.1396,10.47644 20.2373,6.55643 z m -12.5988,-6.91445 c -4.4835,-4.48356 -3.2925,-11.18023 2.4123,-13.56387 3.8156,-1.59424 5.9461,-1.1683 9.3123,1.86176 3.1027,2.79284 3.0704,8.55732 -0.064,11.50236 -3.0105,2.82817 -8.9303,2.92959 -11.6601,0.19975 z m 107.6659,45.47378 c -14.2326,-3.91266 -27.8742,-15.34322 -34.1656,-28.62808 -11.6456,-24.59077 -3.3694,-52.88511 19.9022,-68.04025 15.9041,-10.35722 37.1436,-10.98197 54.8048,-1.61207 15.9321,8.45251 27.7377,28.36344 27.7377,46.78118 0,23.43328 -17.1109,45.42812 -40.1014,51.54724 -6.6063,1.75834 -21.7005,1.73261 -28.1777,-0.048 z m 26.792,-8.69771 c 18.4942,-4.66259 32.5167,-23.12026 32.5167,-42.80151 0,-26.99855 -24.5219,-48.13259 -51.2461,-44.16614 -36.5487,5.42462 -51.5154,49.49344 -25.6225,75.44453 11.5514,11.57737 27.5989,15.74671 44.3519,11.52312 z m -24.9833,-6.54669 c -13.5134,-4.84844 -22.9028,-15.93203 -25.4645,-30.05919 -2.9798,-16.43253 6.2047,-33.72942 21.7894,-41.03522 5.0157,-2.3513 6.8951,-2.66041 16.1751,-2.66041 9.28,0 11.1594,0.30911 16.1752,2.66041 11.6121,5.44359 20.7139,17.79243 22.2652,30.2085 1.9878,15.91017 -7.0596,31.8944 -22.2633,39.33285 -7.325,3.58381 -20.9591,4.32219 -28.6771,1.55306 z m 9.6844,-9.92168 c 3.7058,-3.35376 2.3574,-5.95676 -6.4143,-12.38203 -4.5264,-3.31562 -9.2328,-6.28013 -10.4588,-6.58782 -2.0289,-0.50922 -2.1033,-0.75253 -0.8293,-2.71136 1.7223,-2.6482 6.4877,-17.41058 6.5052,-20.15193 0.012,-1.9006 0.6837,-2 13.5128,-2 l 13.5,0 0,3.07485 c 0,3.04725 3.737,15.19674 5.941,19.31495 0.9541,1.78274 0.846,2.24821 -0.6479,2.78902 -0.9862,0.35703 -5.5056,3.30601 -10.0431,6.55329 -7.0514,5.04636 -8.25,6.32184 -8.25,8.77931 0,9.13275 16.7982,7.30826 22.5141,-2.44533 3.0061,-5.1295 3.164,-8.88798 0.4859,-11.56609 -2,-2 -2,-2 0.4274,-2 6.4872,0 8.9457,-12.27496 4.1108,-20.52499 -2.7359,-4.66855 -7.0418,-7.0231 -11.2942,-6.17598 -2.4809,0.49421 -2.7544,0.26302 -2.8522,-2.41085 -0.1505,-4.11255 -3.7455,-7.53364 -9.3223,-8.87151 -8.9464,-2.14621 -18.2094,2.21837 -18.4613,8.69868 -0.103,2.65076 -0.3125,2.76779 -4.3576,2.43401 -3.7274,-0.30758 -4.6666,0.0667 -7.6469,3.04692 -3.1485,3.14849 -5.5848,8.8436 -5.5981,13.08584 -0.011,3.35674 2.8898,8.7131 5.3166,9.81883 2.1383,0.97427 2.305,1.42646 1.4049,3.8112 -4.1549,11.00754 13.873,24.18969 22.4573,16.42099 z m 9.7797,-13.58314 c 13.1043,-6.71955 9.3409,-25.83415 -5.4139,-27.49723 -11.9015,-1.34148 -20.1164,10.83656 -14.6017,21.64622 1.5702,3.07791 3.3257,4.77654 6.3602,6.15421 5.4842,2.48984 8.3318,2.42661 13.6554,-0.3032 z m -12.6408,-7 c -3.0067,-3.34035 -3.4576,-5.4928 -1.9209,-9.17057 3.9427,-9.43635 19.0332,-4.00482 15.6708,5.64042 -1.4042,4.02813 -3.7878,5.70956 -8.1489,5.74835 -2.4692,0.022 -4.2024,-0.66446 -5.601,-2.2182 z m -67.211,-57.33055 c -26.43,-7.10792 -43.6301,-33.63467 -39.1255,-60.34097 2.4225,-14.36249 12.7209,-29.72061 24.5955,-36.67958 16.9023,-9.90541 35.062,-10.70052 52.2637,-2.28834 17.7272,8.66914 28.4363,24.61587 29.8101,44.38944 1.7477,25.15524 -15.3194,48.48885 -40.2084,54.97161 -7.2745,1.89475 -20.1876,1.87012 -27.3354,-0.0522 z m 30.8877,-10.25058 c 29.9814,-11.74522 37.4998,-51.17243 14.0274,-73.5613 -17.7915,-16.97027 -45.1728,-16.61132 -62.5962,0.82061 -7.2698,7.27332 -11.2034,14.88417 -12.7043,24.58055 -3.2901,21.25617 8.9591,41.68226 29.2462,48.76922 8.5804,2.99741 23.5474,2.71277 32.0269,-0.60908 z m -87.8762,-94.7465 c -23.1222,-6.21895 -40.1618,-28.04789 -40.109,-51.38247 0.033,-14.67759 5.3993,-27.44975 15.9852,-38.04673 16.7624,-16.78002 41.8301,-20.54828 62.9311,-9.46002 17.7277,9.31564 28.5344,27.35674 28.4327,47.46685 -0.057,11.19603 -2.7827,20.2725 -8.8213,29.36996 -12.2746,18.49249 -36.9802,27.81856 -58.4187,22.05241 z m 32.9417,-11.55335 c 18.2011,-8.64932 28.2657,-27.52817 25.0514,-46.99107 -1.6518,-10.00193 -5.3975,-17.3022 -12.5451,-24.44977 -22.1505,-22.15053 -58.9494,-15.89779 -72.3363,12.29113 -2.9168,6.142 -3.5728,8.79186 -3.9906,16.12062 -1.2101,21.2221 10.5778,38.70951 30.5171,45.27259 4.4001,1.44834 8.0696,1.82609 15.738,1.62017 9.1216,-0.24493 10.6645,-0.58431 17.5655,-3.86367 z m -31.1566,-3.70685 c -10.7084,-3.53827 -18.0557,-10.10044 -23.0087,-20.55019 -11.0836,-23.38406 4.3473,-50.49202 30.7833,-54.0782 15.2985,-2.07531 32.2602,7.58079 39.1561,22.29107 2.3533,5.01993 2.6597,6.88742 2.654,16.17515 -0.01,9.42145 -0.2889,11.07644 -2.7572,16.11179 -3.4619,7.06226 -11.9513,15.18083 -19.4838,18.63261 -7.6326,3.49771 -19.229,4.09898 -27.3437,1.41777 z m 26.6325,-9.04183 c 7.7662,-3.5277 11.9972,-11.32978 9.1927,-16.95154 -1.3682,-2.7426 -1.3157,-2.88826 1.4128,-3.91814 5.1349,-1.93822 6.4853,-11.24746 2.7507,-18.96221 -2.3862,-4.92925 -6.5016,-7.55804 -11.1104,-7.09706 -5.192,0.51931 -5.5889,2.60539 -2.3816,12.51808 1.5643,4.83479 3.4421,9.96531 4.1729,11.40115 1.2331,2.42278 1.1441,2.69476 -1.2376,3.77994 -3.9936,1.8196 -15.1966,10.06531 -16.8156,12.37673 -1.3031,1.86044 -1.5233,1.90158 -2.1022,0.3928 -0.9744,-2.53925 -16.8926,-13.65786 -19.5787,-13.6754 -1.3339,-0.009 -1.8702,-0.33198 -1.2441,-0.75 0.6052,-0.40408 1.6079,-1.69945 2.2284,-2.87861 1.496,-2.84307 6.1427,-17.45049 6.1572,-19.35608 0.01,-1.26469 1.8015,-1.44763 11.4219,-1.16618 13.4284,0.39285 15.5922,-0.3399 15.5922,-5.28011 0,-9.50731 -18.1739,-12.86424 -25.6971,-4.74655 -1.6615,1.79285 -2.3375,3.50393 -2.0792,5.26346 0.3597,2.45079 0.222,2.54643 -2.2969,1.59566 -6.209,-2.34366 -13.816,4.97512 -14.6637,14.1083 -0.5624,6.05787 0.8966,9.74378 4.7951,12.11459 1.8426,1.12061 2.667,2.16262 2.0249,2.55948 -0.5957,0.36816 -1.0831,2.65217 -1.0831,5.07557 0,7.65572 7.6982,14.47578 16.3396,14.47578 2.8016,0 5.2674,-0.6709 6.6852,-1.81898 2.1905,-1.77376 2.304,-1.76132 4.5653,0.5 2.841,2.84103 7.3288,2.99326 12.9513,0.43932 z m -5.1372,-16.17032 c 10.7805,-9.46546 4.3455,-25.96058 -10.1221,-25.94628 -10.6259,0.0105 -17.3871,11.65063 -12.6121,21.71319 2.3697,4.99374 6.6142,7.2748 13.5452,7.27933 4.9479,0.003 6.1816,-0.40575 9.189,-3.04624 z m -15.9039,-6.13204 c -3.2488,-3.86102 -2.8604,-8.12301 1.0544,-11.56798 2.9746,-2.61766 5.4343,-2.82416 9.3738,-0.78699 7.4789,3.86749 4.2536,15.53699 -4.2941,15.53699 -2.657,0 -4.076,-0.73612 -6.1341,-3.18202 z m 107.9997,46.31543 c -17.264,-4.96083 -30.8076,-17.86475 -36.6752,-34.94297 -3.3401,-9.7216 -3.1813,-23.91581 0.3794,-33.90646 4.989,-13.99837 14.8411,-24.66841 28.8103,-31.20203 28.1907,-13.18532 62.7977,1.8068 73.0664,31.65312 9.9034,28.7849 -7.7722,60.95874 -37.7841,68.77584 -7.4991,1.95328 -20.2901,1.77957 -27.7968,-0.3775 z m 28.7992,-9.1441 c 25.8279,-7.97743 38.1847,-38.51881 25.5805,-63.22522 -2.9401,-5.76308 -11.909,-14.91792 -17.7059,-18.07296 -13.211,-7.19035 -30.0015,-7.41112 -43.4097,-0.57078 -5.7631,2.9401 -14.9179,11.90898 -18.073,17.70582 -13.3465,24.52197 -1.7569,55.0194 24.282,63.89696 8.6263,2.941 20.3223,3.04716 29.3261,0.26618 z m -24.7992,-5.33314 c -14.9718,-4.96564 -24.7868,-15.95604 -27.5263,-30.82278 -4.573,-24.81627 18.9916,-48.39999 43.9652,-44.00097 22.135,3.89899 36.9538,25.42444 31.6786,46.01552 -3.2728,12.77504 -10.0074,21.09983 -21.3714,26.41767 -5.3866,2.5207 -8.189,3.17186 -14.7007,3.41581 -4.8256,0.18079 -9.6462,-0.22952 -12.0454,-1.02525 z m 24.2685,-9.2039 c 9.0189,-3.76834 13.6681,-12.52857 9.6748,-18.22976 -1.452,-2.07297 -1.4232,-2.22251 0.4274,-2.22251 3.4708,0 6.1293,-4.63002 6.1293,-10.6747 0,-9.9183 -5.5546,-16.86394 -12.9244,-16.16111 -3.378,0.32214 -3.6681,0.15473 -3.2769,-1.89147 0.3015,-1.57705 -0.5895,-3.26356 -2.9951,-5.66908 -6.0784,-6.07845 -17.9128,-5.82783 -23.2306,0.49197 -3.2379,3.84802 -3.263,6.40618 -0.083,8.48959 2.0325,1.33175 4.6034,1.56421 14,1.26592 l 11.5103,-0.36539 0.015,2.50714 c 0.016,2.73138 4.0476,16.38701 5.8093,19.67885 0.9282,1.73427 0.7287,2.21091 -1.3148,3.14197 -1.3248,0.60366 -5.8323,3.6293 -10.0164,6.72365 -6.9667,5.15206 -7.5817,5.89111 -7.3004,8.77157 0.5167,5.28966 6.4779,7.10903 13.5758,4.14336 z m -16.3431,-1.3698 c 3.1504,-3.48123 1.6234,-6.14633 -7.3448,-12.81855 -5.124,-3.81219 -9.4295,-6.27582 -11,-6.29433 -2.1553,-0.0254 -2.3055,-0.19093 -0.9116,-1.00435 2.0991,-1.22492 8.0808,-18.94069 7.651,-22.6595 -0.7391,-6.39501 -10.5371,-4.72705 -14.5709,2.48048 -4.4736,7.99332 -3.6939,16.75639 1.7875,20.08982 2.087,1.26922 2.5892,2.10239 1.9122,3.1726 -2.7805,4.39525 0.5431,12.34452 6.9729,16.67756 4.4517,2.99999 12.9347,3.19492 15.5037,0.35627 z m 10.5761,-13.7424 c 3.6117,-2.13348 6.9989,-8.1733 6.997,-12.47622 0,-8.00993 -6.7803,-14.86385 -14.696,-14.86385 -14.2718,0 -20.4811,16.48994 -9.7553,25.90726 3.034,2.66393 4.2934,3.09274 9.0833,3.09274 3.3859,0 6.66,-0.64924 8.371,-1.65993 z m -12.8421,-5.94098 c -3.4714,-2.43144 -4.4056,-5.87399 -2.7012,-9.95328 3.5513,-8.49941 15.9418,-5.9862 15.9418,3.23352 0,6.61492 -7.7644,10.55544 -13.2406,6.71976 z"
         id="path3861"
         inkscape:connector-curvature="0" />
      <path
         style="fill:#000000"
         d="m 1131.3929,-331.65698 c -24.2235,-5.95573 -43.5042,-23.70029 -51.5653,-47.45709 l -2.7146,-8 -0.2678,-160.99397 c -0.3026,-181.83554 -0.775,-169.94202 7.4079,-186.50347 3.8888,-7.87062 6.1629,-10.96249 13.2763,-18.05051 7.0889,-7.06366 10.2379,-9.36702 18.0836,-13.2272 17.8766,-8.79554 8.1626,-8.22485 140,-8.22485 129.6886,0 121.7881,-0.39441 137.3191,6.85519 18.382,8.58043 31.8724,23.70679 38.4597,43.12373 l 2.7212,8.02108 0,163.5 c 0,153.14711 -0.1117,163.90446 -1.7645,169.88747 -5.5865,20.22282 -19.1351,36.38091 -38.2355,45.59989 -16.3978,7.91456 -9.0463,7.52161 -139.1974,7.44024 -110.2144,-0.0689 -116.1751,-0.164 -123.5227,-1.97051 z m 248.0673,-3.17536 c 20.8365,-6.43728 37.3332,-20.10327 45.315,-37.53923 6.1169,-13.36221 5.8069,-3.81454 5.823,-179.33254 0.014,-156.58235 -0.034,-160.78246 -1.9572,-168.30048 -3.0496,-11.92373 -8.2462,-20.86985 -17.5709,-30.2484 -6.7319,-6.77086 -9.6776,-8.8998 -17.5246,-12.66564 -16.9094,-8.11497 -9.4014,-7.69763 -138.1299,-7.67808 -128.2763,0.0195 -121.6637,-0.33783 -137.3915,7.42416 -18.7715,9.26414 -32.7483,26.96511 -36.368,46.05848 -0.8287,4.37084 -1.0568,50.25894 -0.8403,169 l 0.2972,163 2.6228,6.74155 c 9.2856,23.86716 29.4163,40.48149 54.1148,44.66207 2.9121,0.49293 56.8459,0.8102 120.7624,0.71041 104.24,-0.16276 116.0213,-0.34139 120.8472,-1.8323 z"
         id="path3859"
         inkscape:connector-curvature="0" />
    </g>
  </g>
</svg>
