<?xml version="1.0" encoding="UTF-8" standalone="no"?>
<!-- Created with Inkscape (http://www.inkscape.org/) -->

<svg
   xmlns:dc="http://purl.org/dc/elements/1.1/"
   xmlns:cc="http://creativecommons.org/ns#"
   xmlns:rdf="http://www.w3.org/1999/02/22-rdf-syntax-ns#"
   xmlns:svg="http://www.w3.org/2000/svg"
   xmlns="http://www.w3.org/2000/svg"
   xmlns:sodipodi="http://sodipodi.sourceforge.net/DTD/sodipodi-0.dtd"
   xmlns:inkscape="http://www.inkscape.org/namespaces/inkscape"
   width="358.00586"
   height="445.45047"
   id="svg2"
   version="1.1"
   inkscape:version="0.48.5 r10040"
   sodipodi:docname="windnorth.svg">
  <defs
     id="defs4" />
  <sodipodi:namedview
     id="base"
     pagecolor="#ffffff"
     bordercolor="#666666"
     borderopacity="1.0"
     inkscape:pageopacity="0.0"
     inkscape:pageshadow="2"
     inkscape:zoom="0.3963665"
     inkscape:cx="234.54585"
     inkscape:cy="277.15483"
     inkscape:document-units="px"
     inkscape:current-layer="layer1"
     showgrid="false"
     fit-margin-top="0"
     fit-margin-left="0"
     fit-margin-right="0"
     fit-margin-bottom="0"
     inkscape:window-width="958"
     inkscape:window-height="1078"
     inkscape:window-x="1920"
     inkscape:window-y="0"
     inkscape:window-maximized="0" />
  <metadata
     id="metadata7">
    <rdf:RDF>
      <cc:Work
         rdf:about="">
        <dc:format>image/svg+xml</dc:format>
        <dc:type
           rdf:resource="http://purl.org/dc/dcmitype/StillImage" />
        <dc:title></dc:title>
      </cc:Work>
    </rdf:RDF>
  </metadata>
  <g
     inkscape:label="Layer 1"
     inkscape:groupmode="layer"
     id="layer1"
     transform="translate(-1059.9767,1182.8928)">
    <g
       id="g4728"
       transform="translate(613.68641,435.2892)">
      <path
         style="fill:#fefefe"
         d="m 505.37133,-1173.7616 c -14.97951,-2.9389 -28.14453,-9.9005 -38.57519,-20.3983 -8.91433,-8.9718 -13.34566,-15.7975 -17.32079,-26.6798 l -2.67921,-7.3346 -0.26454,-164.7815 c -0.29357,-182.8669 -0.69936,-171.0367 6.35711,-185.3327 6.94614,-14.0725 18.2817,-25.2474 32.90743,-32.4409 16.1753,-7.9556 6.60559,-7.4449 139.5,-7.4449 132.98174,0 122.84867,-0.5443 139.5,7.4932 18.67405,9.0138 32.46275,25.8113 37.56544,45.7626 1.87358,7.3257 1.93456,12.6603 1.93456,169.2442 0,157.5438 -0.0504,161.877 -1.96848,169.3768 -5.55973,21.7383 -21.45694,39.5648 -43.06683,48.2934 -13.42371,5.4221 -10.32923,5.3024 -134.46469,5.2029 -63.25,-0.051 -116.99117,-0.4829 -119.42481,-0.9604 z"
         id="path4742"
         inkscape:connector-curvature="0" />
      <path
         style="fill:#bfbfbf"
         d="m 505.37133,-1173.7616 c -14.97951,-2.9389 -28.14453,-9.9005 -38.57519,-20.3983 -8.91433,-8.9718 -13.34566,-15.7975 -17.32079,-26.6798 l -2.67921,-7.3346 -0.26454,-164.7815 c -0.29357,-182.8669 -0.69936,-171.0367 6.35711,-185.3327 6.94614,-14.0725 18.2817,-25.2474 32.90743,-32.4409 16.1753,-7.9556 6.60559,-7.4449 139.5,-7.4449 132.98174,0 122.84867,-0.5443 139.5,7.4932 18.67405,9.0138 32.46275,25.8113 37.56544,45.7626 1.87358,7.3257 1.93456,12.6603 1.93456,169.2442 0,157.5438 -0.0504,161.877 -1.96848,169.3768 -5.55973,21.7383 -21.45694,39.5648 -43.06683,48.2934 -13.42371,5.4221 -10.32923,5.3024 -134.46469,5.2029 -63.25,-0.051 -116.99117,-0.4829 -119.42481,-0.9604 z m 242.42481,-5.1984 c 3.3,-0.9493 10.14666,-3.7601 15.21481,-6.2462 15.95755,-7.8277 27.72734,-21.3359 33.96156,-38.9777 l 2.82363,-7.9904 0,-163 c 0,-155.231 -0.0874,-163.2831 -1.83325,-168.9403 -7.38389,-23.926 -25.67452,-41.5514 -49.4226,-47.6251 -7.26476,-1.858 -12.14164,-1.9346 -123.24415,-1.9346 -111.78932,0 -115.93894,0.066 -123.37676,1.9685 -22.48712,5.7512 -41.03913,22.7589 -48.34095,44.317 l -2.78229,8.2145 -0.27871,160 c -0.30365,174.312 -0.48438,168.0646 5.23602,180.9994 9.44256,21.3513 30.91442,37.3136 54.35157,40.4052 3.68012,0.4854 57.31612,0.8046 119.19112,0.7092 103.24716,-0.1592 112.99348,-0.3154 118.5,-1.8995 z"
         id="path4740"
         inkscape:connector-curvature="0" />
      <path
         style="fill:#bebebe"
         d="m 504.29614,-1174.2284 c -27.53493,-5.9098 -48.71131,-25.3863 -55.93174,-51.4421 -2.05192,-7.4046 -2.06826,-8.7479 -2.06826,-170.0038 0,-161.2559 0.0163,-162.5992 2.06826,-170.0038 5.50365,-19.8606 21.29443,-37.9904 40.47865,-46.4745 14.44853,-6.3899 6.07545,-6.0217 136.95309,-6.0217 l 119,0 9.049,3.1636 c 12.80286,4.476 20.7464,9.4492 29.951,18.7515 8.90357,8.9981 13.33764,15.8461 17.32079,26.7503 l 2.67921,7.3346 0.26462,163.7811 c 0.29578,183.0644 0.78791,169.8938 -6.93241,185.5302 -7.14139,14.4638 -22.24345,28.4326 -37.39594,34.5896 -14.07392,5.7187 -11.3172,5.6061 -135.14411,5.5196 -93.34441,-0.065 -114.96017,-0.3302 -120.29216,-1.4746 z m 243.5,-4.7316 c 3.3,-0.9493 10.14666,-3.7601 15.21481,-6.2462 15.95755,-7.8277 27.72734,-21.3359 33.96156,-38.9777 l 2.82363,-7.9904 0,-163 c 0,-155.231 -0.0874,-163.2831 -1.83325,-168.9403 -7.38389,-23.926 -25.67452,-41.5514 -49.4226,-47.6251 -7.26476,-1.858 -12.14164,-1.9346 -123.24415,-1.9346 -111.78932,0 -115.93894,0.066 -123.37676,1.9685 -22.48712,5.7512 -41.03913,22.7589 -48.34095,44.317 l -2.78229,8.2145 -0.27871,160 c -0.30365,174.312 -0.48438,168.0646 5.23602,180.9994 9.44256,21.3513 30.91442,37.3136 54.35157,40.4052 3.68012,0.4854 57.31612,0.8046 119.19112,0.7092 103.24716,-0.1592 112.99348,-0.3154 118.5,-1.8995 z"
         id="path4738"
         inkscape:connector-curvature="0" />
      <path
         style="fill:#7f7f7f"
         d="m 504.29614,-1174.2284 c -27.53493,-5.9098 -48.71131,-25.3863 -55.93174,-51.4421 -2.05192,-7.4046 -2.06826,-8.7479 -2.06826,-170.0038 0,-161.2559 0.0163,-162.5992 2.06826,-170.0038 5.50365,-19.8606 21.29443,-37.9904 40.47865,-46.4745 14.44853,-6.3899 6.07545,-6.0217 136.95309,-6.0217 l 119,0 9.049,3.1636 c 12.80286,4.476 20.7464,9.4492 29.951,18.7515 8.90357,8.9981 13.33764,15.8461 17.32079,26.7503 l 2.67921,7.3346 0.26462,163.7811 c 0.29578,183.0644 0.78791,169.8938 -6.93241,185.5302 -7.14139,14.4638 -22.24345,28.4326 -37.39594,34.5896 -14.07392,5.7187 -11.3172,5.6061 -135.14411,5.5196 -93.34441,-0.065 -114.96017,-0.3302 -120.29216,-1.4746 z m 244,-4.7765 c 19.31241,-5.1608 36.99885,-19.2517 44.7713,-35.6694 7.20276,-15.2144 6.7287,-2.427 6.7287,-181.5 l 0,-162 -2.34088,-7.5 c -3.30127,-10.577 -7.50287,-17.9939 -14.5579,-25.6983 -7.43154,-8.1155 -17.94462,-15.149 -28.33035,-18.9536 l -7.77087,-2.8468 -118.5,-0.2971 c -131.7232,-0.3303 -124.8786,-0.6431 -139.66311,6.3832 -13.83012,6.5726 -24.63967,17.2088 -31.41666,30.9126 -7.28847,14.7381 -6.8855,4.1745 -6.8855,180.5 0,174.8414 -0.32564,165.588 6.31576,179.4713 10.28647,21.503 29.51931,35.2464 53.84237,38.4745 3.46893,0.4604 56.93214,0.7523 118.80714,0.6488 103.29595,-0.1728 113.03179,-0.3303 119,-1.9252 z"
         id="path4736"
         inkscape:connector-curvature="0" />
      <path
         style="fill:#404040"
         d="m 509.489,-1173.7268 c -9.19109,-1.2224 -16.70433,-3.6157 -25.19286,-8.0253 -17.62631,-9.1563 -29.66697,-23.816 -35.66458,-43.4222 -1.74881,-5.7169 -1.83542,-13.7627 -1.83542,-170.5 l 0,-164.5 2.90221,-8.8549 c 6.95957,-21.2341 23.47821,-37.4709 46.59779,-45.8027 l 6.5,-2.3424 119.43789,-0.2737 c 116.68598,-0.2673 119.62363,-0.2274 127.5,1.732 13.46385,3.3494 23.72782,9.1561 33.69188,19.0608 7.31042,7.2668 9.32139,10.0232 13.15357,18.0296 2.48809,5.1982 5.12969,11.9263 5.87023,14.9513 1.10057,4.4957 1.34643,35.2636 1.34643,168.5 0,155.1317 -0.0886,163.3138 -1.83635,169.5 -5.36586,18.9931 -19.42265,35.9575 -36.76523,44.37 -17.72412,8.5975 -7.91657,8.0041 -135.89842,8.2226 -62.425,0.1065 -116.33821,-0.1838 -119.80714,-0.6451 z m 235.5993,-4.4756 c 4.56352,-0.9047 11.58325,-3.4075 17.20784,-6.1352 8.14452,-3.9497 10.78413,-5.9076 18.5,-13.7219 6.95398,-7.0427 9.85283,-10.8667 12.75142,-16.8211 7.16022,-14.7089 6.71741,-2.8173 6.7338,-180.8336 0.0165,-178.9504 0.56184,-165.1196 -7.13548,-180.9601 -3.35066,-6.8954 -5.75569,-10.1081 -12.74006,-17.0185 -9.25288,-9.1548 -17.01031,-13.9054 -29.60968,-18.1328 l -7,-2.3487 -115,-0.2821 c -129.83606,-0.3185 -123.73355,-0.6348 -140,7.2572 -18.63669,9.042 -31.99538,25.0355 -36.93076,44.2148 -1.43071,5.5598 -1.56618,22.8106 -1.33103,169.4999 l 0.26179,163.3102 2.22352,6.5 c 6.20624,18.1426 21.60147,34.3961 39.44889,41.6482 12.9431,5.2592 10.0457,5.1436 131.61975,5.2514 97.88202,0.087 114.34059,-0.1075 121,-1.4277 z"
         id="path4734"
         inkscape:connector-curvature="0" />
      <path
         style="fill:#3f3f3f"
         d="m 509.75162,-1173.757 c -8.53519,-0.9974 -21.2161,-5.3521 -29.10237,-9.994 -3.19877,-1.8828 -9.46622,-7.0331 -13.92768,-11.445 -6.70206,-6.6277 -8.91615,-9.6689 -12.7405,-17.5 -8.18269,-16.7557 -7.68493,-4.9039 -7.68493,-182.9783 0,-174.9747 -0.32036,-165.9992 6.44249,-180.5 9.17488,-19.6727 26.6187,-34.0169 48.02549,-39.4918 7.64234,-1.9546 10.96667,-2.0082 124.53202,-2.0082 112.58929,0 116.9486,0.069 124.33902,1.9588 25.59228,6.5454 45.63918,26.0722 52.40078,51.0412 1.64659,6.0804 1.7602,17.0534 1.7602,170 l 0,163.5 -2.72441,8 c -3.81361,11.1983 -9.11711,19.8003 -17.29637,28.0538 -11.92426,12.0325 -26.76127,19.1702 -44.45299,21.3853 -10.12183,1.2672 -218.70908,1.2475 -229.57075,-0.022 z m 235.33668,-4.4454 c 4.56352,-0.9047 11.58325,-3.4075 17.20784,-6.1352 8.14452,-3.9497 10.78413,-5.9076 18.5,-13.7219 6.95398,-7.0427 9.85283,-10.8667 12.75142,-16.8211 7.16022,-14.7089 6.71741,-2.8173 6.7338,-180.8336 0.0165,-178.9504 0.56184,-165.1196 -7.13548,-180.9601 -3.35066,-6.8954 -5.75569,-10.1081 -12.74006,-17.0185 -9.25288,-9.1548 -17.01031,-13.9054 -29.60968,-18.1328 l -7,-2.3487 -115,-0.2821 c -129.83606,-0.3185 -123.73355,-0.6348 -140,7.2572 -18.63669,9.042 -31.99538,25.0355 -36.93076,44.2148 -1.43071,5.5598 -1.56618,22.8106 -1.33103,169.4999 l 0.26179,163.3102 2.22352,6.5 c 6.20624,18.1426 21.60147,34.3961 39.44889,41.6482 12.9431,5.2592 10.0457,5.1436 131.61975,5.2514 97.88202,0.087 114.34059,-0.1075 121,-1.4277 z"
         id="path4732"
         inkscape:connector-curvature="0" />
      <path
         style="fill:#000000"
         d="m 509.75162,-1173.757 c -8.53519,-0.9974 -21.2161,-5.3521 -29.10237,-9.994 -3.19877,-1.8828 -9.46622,-7.0331 -13.92768,-11.445 -6.70206,-6.6277 -8.91615,-9.6689 -12.7405,-17.5 -8.18269,-16.7557 -7.68493,-4.9039 -7.68493,-182.9783 0,-174.9747 -0.32036,-165.9992 6.44249,-180.5 9.17488,-19.6727 26.6187,-34.0169 48.02549,-39.4918 7.64234,-1.9546 10.96667,-2.0082 124.53202,-2.0082 112.58929,0 116.9486,0.069 124.33902,1.9588 25.59228,6.5454 45.63918,26.0722 52.40078,51.0412 1.64659,6.0804 1.7602,17.0534 1.7602,170 l 0,163.5 -2.72441,8 c -3.81361,11.1983 -9.11711,19.8003 -17.29637,28.0538 -11.92426,12.0325 -26.76127,19.1702 -44.45299,21.3853 -10.12183,1.2672 -218.70908,1.2475 -229.57075,-0.022 z m 243.04452,-6.1417 c 21.25716,-7.2392 37.81587,-23.4277 44.77648,-43.7756 l 2.22352,-6.5 0.27943,-162.5 c 0.24693,-143.6072 0.0996,-163.3138 -1.26679,-169.5 -5.18631,-23.4795 -24.0199,-42.7664 -49.01264,-50.1923 -5.5784,-1.6574 -14.07775,-1.8029 -120.95846,-2.0698 -123.46717,-0.3082 -122.25248,-0.3508 -135.84521,4.7627 -14.50762,5.4576 -28.94703,18.5803 -35.76044,32.4994 -7.44631,15.212 -6.93589,1.8803 -6.93589,181.1609 0,111.9186 0.33165,162.8616 1.08422,166.5399 0.59632,2.9146 3.10499,9.5103 5.57482,14.6572 7.2534,15.1153 21.50956,27.9631 37.3889,33.6952 12.09893,4.3675 10.6031,4.3212 133.45206,4.1294 l 117,-0.1826 8,-2.7244 z"
         id="path4730"
         inkscape:connector-curvature="0" />
    </g>
  </g>
</svg>
