<?xml version="1.0" encoding="UTF-8" standalone="no"?>
<!-- Created with Inkscape (http://www.inkscape.org/) -->

<svg
   xmlns:dc="http://purl.org/dc/elements/1.1/"
   xmlns:cc="http://creativecommons.org/ns#"
   xmlns:rdf="http://www.w3.org/1999/02/22-rdf-syntax-ns#"
   xmlns:svg="http://www.w3.org/2000/svg"
   xmlns="http://www.w3.org/2000/svg"
   xmlns:sodipodi="http://sodipodi.sourceforge.net/DTD/sodipodi-0.dtd"
   xmlns:inkscape="http://www.inkscape.org/namespaces/inkscape"
   sodipodi:docname="draggreencolor.svg"
   inkscape:version="0.48.5 r10040"
   version="1.1"
   id="svg2"
   height="445.84744"
   width="359.17447">
  <defs
     id="defs4" />
  <sodipodi:namedview
     id="base"
     pagecolor="#ffffff"
     bordercolor="#666666"
     borderopacity="1.0"
     inkscape:pageopacity="0.0"
     inkscape:pageshadow="2"
     inkscape:zoom="0.56054688"
     inkscape:cx="11.504496"
     inkscape:cy="391.87718"
     inkscape:document-units="px"
     inkscape:current-layer="layer1"
     showgrid="false"
     fit-margin-top="0"
     fit-margin-left="0"
     fit-margin-right="0"
     fit-margin-bottom="0"
     inkscape:window-width="958"
     inkscape:window-height="1078"
     inkscape:window-x="1920"
     inkscape:window-y="0"
     inkscape:window-maximized="0" />
  <metadata
     id="metadata7">
    <rdf:RDF>
      <cc:Work
         rdf:about="">
        <dc:format>image/svg+xml</dc:format>
        <dc:type
           rdf:resource="http://purl.org/dc/dcmitype/StillImage" />
        <dc:title></dc:title>
      </cc:Work>
    </rdf:RDF>
  </metadata>
  <g
     inkscape:label="Layer 1"
     inkscape:groupmode="layer"
     id="layer1"
     transform="translate(-1028.3434,1267.7724)">
    <g
       id="g4863"
       transform="translate(568.95504,414.26561)">
      <path
         style="fill:#e0c5c6"
         d="m 517.39331,-1237.58 c -3.575,-0.774 -8.525,-2.1477 -11,-3.0528 -18.01367,-6.5874 -35.19366,-23.1749 -42.10343,-40.6515 -4.99956,-12.6451 -4.89657,-8.9064 -4.89657,-177.7537 0,-177.7757 -0.46356,-166.5731 7.56586,-182.8397 8.44818,-17.1149 23.00169,-29.5821 42.43414,-36.3511 l 9.5,-3.3092 120,0 120,0 9.5,3.3092 c 25.82462,8.9956 43.79279,28.9246 48.56451,53.8641 2.12767,11.1203 2.14573,319.4387 0.0194,330.5522 -4.98998,26.0803 -25.03164,47.4106 -52.08387,55.4328 -5.58414,1.656 -14.14387,1.7941 -123.5,1.9931 -97.84862,0.178 -118.5871,-0.022 -124,-1.1934 z m 244,-4.7964 c 25.11258,-6.74 44.9256,-26.2745 50.45908,-49.7498 1.31557,-5.5812 1.51136,-27.2041 1.51136,-166.9118 0,-178.1284 0.4371,-166.3617 -6.7237,-181 -5.41991,-11.0795 -18.67451,-24.1033 -30.24674,-29.7202 -16.0962,-7.8126 -8.08311,-7.409 -140.5,-7.0763 l -118,0.2965 -7.30955,2.7107 c -11.62857,4.3123 -18.0888,8.5149 -27.21626,17.705 -6.39473,6.4386 -9.44616,10.459 -12.20781,16.0843 -7.17521,14.6155 -6.73682,2.837 -6.73682,181 0,139.7077 0.19579,161.3306 1.51136,166.9118 4.38022,18.5827 18.21664,35.5479 35.95908,44.0903 8.82794,4.2504 13.73374,5.7433 22.88806,6.9651 3.36156,0.4487 56.51194,0.731 118.11194,0.6273 103.02002,-0.1733 112.52116,-0.3283 118.5,-1.9329 z m -125.99426,-66.9157 c -5.00416,-11.3128 -6.98245,-37.0811 -6.99585,-91.1251 l -0.01,-39.8791 -6.25,0.6593 c -12.44908,1.3133 -17.10696,2.6443 -19.94363,5.6986 -2.13502,2.2989 -3.55143,2.9004 -6.83,2.9004 -3.70705,0 -4.72888,-0.5968 -9.84496,-5.75 -7.95143,-8.0091 -22.84515,-26.032 -36.05359,-43.6284 -12.13674,-16.1689 -15.07771,-21.0939 -15.07771,-25.2499 0,-5.5515 2.2584,-15.5336 3.63382,-16.0614 3.15318,-1.21 8.52138,2.6765 20.86618,15.1067 l 13,13.09 27.76924,-9.3681 27.76924,-9.3681 -0.59868,-5.1354 c -2.23663,-19.1857 -3.5093,-22.6516 -11.47006,-31.2373 -12.69792,-13.6948 -15.83528,-20.0751 -13.81553,-28.0963 1.9196,-7.6234 16.17683,-18.3018 24.43556,-18.3018 4.73888,0 13.55661,6.1965 26.27693,18.4656 9.87156,9.5213 14.08902,14.8996 15.93572,20.3218 1.47381,4.3274 0.46891,6.7729 -5.95352,14.4885 -5.51464,6.625 -8.20074,11.8437 -9.29614,18.061 -0.59767,3.3924 -0.46608,3.7755 1.13562,3.3067 18.09851,-5.2982 39.16294,-9.8139 46.37138,-9.941 10.72617,-0.1891 15.33722,3.4388 37.87261,29.7974 14.36431,16.8013 14.37109,17.0462 0.56763,20.5077 -5.5,1.3792 -11.61394,3.5079 -13.58653,4.7305 -4.98958,3.0924 -11.90227,10.6787 -22.80117,25.023 -5.12389,6.7437 -10.94783,13.6062 -12.94208,15.25 -3.3681,2.7763 -4.20429,2.9888 -11.76056,2.9888 -7.53294,0 -8.41388,-0.2219 -11.90966,-3 -2.80033,-2.2254 -4.83682,-3.0035 -7.8875,-3.0137 -2.26188,-0.01 -5.19591,-0.3035 -6.52008,-0.6578 l -2.40758,-0.6442 0.66774,21.4079 c 1.58824,50.9199 1.87878,83.4896 0.79576,89.2067 -0.60418,3.1894 -2.82831,9.7144 -4.9425,14.5 -2.97288,6.7293 -4.34368,8.7742 -6.04899,9.0238 -1.769,0.2589 -2.58979,-0.5472 -4.15111,-4.0768 z m -15.75574,-141.8886 8.75,-1.2175 0,-21.3199 c 0,-16.7028 -0.27838,-21.3199 -1.28544,-21.3199 -4.80077,0 -45.9855,8.9376 -47.31608,10.2682 -0.29033,0.2903 3.43874,5.4249 8.28682,11.4102 4.84809,5.9853 10.8397,13.9148 13.3147,17.6211 3.90841,5.8529 4.82866,6.6755 7,6.2571 1.375,-0.265 6.4375,-1.0297 11.25,-1.6993 z m 59.92998,-15.6285 c 10.42456,-15.8617 15.01019,-24.318 16.74625,-30.8813 1.29569,-4.8986 0.16532,-8.8663 -2.79344,-9.8054 -1.79659,-0.5702 -12.6164,1.3975 -34.63279,6.2982 l -8,1.7808 -0.62746,10.4394 c -0.34511,5.7417 -0.68261,16.1573 -0.75,23.1457 l -0.12254,12.7062 7.25,0.3451 c 3.9875,0.1898 8.6,0.425 10.25,0.5226 2.81357,0.1665 3.60156,-0.7378 12.67998,-14.5513 z"
         id="path4877"
         inkscape:connector-curvature="0" />
      <path
         style="fill:#bebebe"
         d="m 517.39331,-1237.58 c -3.575,-0.774 -8.525,-2.1477 -11,-3.0528 -18.01367,-6.5874 -35.19366,-23.1749 -42.10343,-40.6515 -4.99956,-12.6451 -4.89657,-8.9064 -4.89657,-177.7537 0,-177.7757 -0.46356,-166.5731 7.56586,-182.8397 8.44818,-17.1149 23.00169,-29.5821 42.43414,-36.3511 l 9.5,-3.3092 120,0 120,0 9.5,3.3092 c 25.82462,8.9956 43.79279,28.9246 48.56451,53.8641 2.12767,11.1203 2.14573,319.4387 0.0194,330.5522 -4.98998,26.0803 -25.03164,47.4106 -52.08387,55.4328 -5.58414,1.656 -14.14387,1.7941 -123.5,1.9931 -97.84862,0.178 -118.5871,-0.022 -124,-1.1934 z m 244,-4.7964 c 25.11258,-6.74 44.9256,-26.2745 50.45908,-49.7498 1.31557,-5.5812 1.51136,-27.2041 1.51136,-166.9118 0,-178.1284 0.4371,-166.3617 -6.7237,-181 -5.41991,-11.0795 -18.67451,-24.1033 -30.24674,-29.7202 -16.0962,-7.8126 -8.08311,-7.409 -140.5,-7.0763 l -118,0.2965 -7.30955,2.7107 c -11.62857,4.3123 -18.0888,8.5149 -27.21626,17.705 -6.39473,6.4386 -9.44616,10.459 -12.20781,16.0843 -7.17521,14.6155 -6.73682,2.837 -6.73682,181 0,139.7077 0.19579,161.3306 1.51136,166.9118 4.38022,18.5827 18.21664,35.5479 35.95908,44.0903 8.82794,4.2504 13.73374,5.7433 22.88806,6.9651 3.36156,0.4487 56.51194,0.731 118.11194,0.6273 103.02002,-0.1733 112.52116,-0.3283 118.5,-1.9329 z m -125.2738,-65.8645 c -5.53488,-11.8013 -6.84419,-26.3292 -7.43947,-82.5471 l -0.52149,-49.25 -2.63262,0 c -1.44794,0 -6.8306,0.6848 -11.96146,1.517 -8.21092,1.3316 -9.62964,1.8704 -11.8389,4.496 -1.94384,2.3101 -3.33591,2.9831 -6.17115,2.9835 -3.29025,5e-4 -4.52214,-0.8874 -12.16111,-8.7656 -12.11441,-12.4938 -40.26527,-48.0693 -46.72916,-59.0536 -2.20827,-3.7526 -2.46019,-5.0634 -1.92189,-10 0.96185,-8.8209 2.46635,-13.1813 4.54801,-13.1813 3.62185,0 13.40747,8.4471 26.30064,22.7032 l 5.61015,6.2031 27.84612,-9.3098 27.84613,-9.3097 -0.29079,-5.8934 c -0.41793,-8.4702 -2.08864,-17.2773 -4.15318,-21.8934 -0.98393,-2.2 -4.90204,-7.3899 -8.7069,-11.5331 -11.30988,-12.3156 -14.16019,-18.2378 -12.23051,-25.4118 1.96892,-7.3198 16.70768,-18.5551 24.34107,-18.5551 7.36299,0 35.01406,24.3465 41.16908,36.249 2.79051,5.3963 2.10677,8.0473 -3.96085,15.3574 -6.33411,7.631 -9.08231,12.8495 -10.15847,19.2897 -0.71424,4.2742 -0.66911,4.3777 1.62797,3.7331 8.82952,-2.4775 26.96416,-6.86 35.50377,-8.5801 13.06535,-2.6316 17.4914,-1.8154 26.2961,4.8491 5.17473,3.9169 33.06271,36.8439 33.06271,39.0367 0,2.1095 -2.12665,2.9871 -13.46927,5.5582 -12.11466,2.7462 -16.3494,6.3705 -32.86435,28.1274 -4.22519,5.5663 -9.90934,12.2038 -12.63143,14.75 l -4.94927,4.6295 -8.00804,0 c -7.37,0 -8.26977,-0.2272 -11.29284,-2.8509 -2.68188,-2.3277 -4.55177,-2.9658 -10.18743,-3.4767 l -6.90264,-0.6257 0.65802,21.2267 c 1.58509,51.1323 1.88379,81.4248 0.86632,87.8554 -1.20916,7.6421 -8.81845,24.2054 -11.33279,24.6683 -1.00506,0.185 -2.19697,-0.9465 -3.16008,-3 z m -15.9762,-142.933 8.25,-1.2648 0,-21.2996 c 0,-20.7087 -0.0561,-21.2997 -2.02154,-21.2997 -3.23392,0 -35.99912,6.777 -42.18325,8.725 l -5.6349,1.775 8.96727,11 c 4.932,6.05 11.07484,14.0733 13.65075,17.8296 4.34442,6.3352 4.90205,6.7923 7.70258,6.3145 1.6605,-0.2833 6.73159,-1.0843 11.26909,-1.78 z m 60.08977,-16.1693 c 15.58899,-23.6629 19.7073,-34.1477 15.18793,-38.6671 -2.68273,-2.6827 -4.52971,-2.4967 -28.05491,2.8252 l -16.47279,3.7266 -0.62746,10.4602 c -0.34511,5.7532 -0.68261,16.1781 -0.75,23.1665 l -0.12254,12.7062 7.25,0.3451 c 3.9875,0.1898 8.65777,0.4345 10.37839,0.5438 2.98724,0.1897 3.58329,-0.4918 13.21138,-15.1065 z"
         id="path4875"
         inkscape:connector-curvature="0" />
      <path
         style="fill:#c38c8f"
         d="m 517.75863,-1237.5191 c -14.47659,-3.1769 -26.66393,-9.8764 -37.33969,-20.5262 -8.62706,-8.606 -13.90659,-17.0565 -17.80122,-28.4927 l -2.72441,-8 0,-164.5 0,-164.5 2.72441,-8 c 3.91598,-11.4989 9.19994,-19.9351 17.85097,-28.5 11.33167,-11.2189 22.56891,-17.2372 38.13246,-20.4225 6.75077,-1.3816 21.67117,-1.5775 120.16203,-1.5775 121.48984,0 120.28,-0.048 133.61925,5.3396 9.98146,4.0317 17.03596,8.7378 24.98525,16.6677 8.62706,8.606 13.90659,17.0565 17.80122,28.4927 l 2.72441,8 0.28013,161 c 0.31316,179.9879 0.69448,169.5683 -6.77033,185 -8.90359,18.406 -24.40283,31.5694 -45.5098,38.6513 l -7,2.3487 -117.5,0.1826 c -95.30081,0.1481 -118.65902,-0.072 -123.63468,-1.1637 z m 235.49718,-3.5609 c 28.62194,-3.5889 51.81728,-23.5362 58.62756,-50.4181 2.27472,-8.9789 2.28216,-326.0556 0.008,-335.0798 -5.87767,-23.3214 -25.16917,-42.3657 -49.1213,-48.4916 -7.43875,-1.9025 -11.59011,-1.9685 -123.87676,-1.9685 -112.28665,0 -116.43801,0.066 -123.87676,1.9685 -21.93025,5.6088 -39.02688,21.01 -47.50042,42.7899 l -2.62282,6.7416 -0.26466,163.9185 c -0.2953,182.8959 -0.82381,168.7401 6.88729,184.4709 9.1648,18.6964 30.00033,33.196 51.73104,36 9.89564,1.2769 219.8732,1.3395 230.00883,0.069 z m -117.1363,-67.1609 c -5.53488,-11.8013 -6.84419,-26.3292 -7.43947,-82.5471 l -0.52149,-49.25 -2.63262,0 c -1.44794,0 -6.8306,0.6848 -11.96146,1.517 -8.21092,1.3316 -9.62964,1.8704 -11.8389,4.496 -1.94384,2.3101 -3.33591,2.9831 -6.17115,2.9835 -3.29025,5e-4 -4.52214,-0.8874 -12.16111,-8.7656 -12.11441,-12.4938 -40.26527,-48.0693 -46.72916,-59.0536 -2.20827,-3.7526 -2.46019,-5.0634 -1.92189,-10 0.96185,-8.8209 2.46635,-13.1813 4.54801,-13.1813 3.62185,0 13.40747,8.4471 26.30064,22.7032 l 5.61015,6.2031 27.84612,-9.3098 27.84613,-9.3097 -0.29079,-5.8934 c -0.41793,-8.4702 -2.08864,-17.2773 -4.15318,-21.8934 -0.98393,-2.2 -4.90204,-7.3899 -8.7069,-11.5331 -11.30988,-12.3156 -14.16019,-18.2378 -12.23051,-25.4118 1.96892,-7.3198 16.70768,-18.5551 24.34107,-18.5551 7.36299,0 35.01406,24.3465 41.16908,36.249 2.79051,5.3963 2.10677,8.0473 -3.96085,15.3574 -6.33411,7.631 -9.08231,12.8495 -10.15847,19.2897 -0.71424,4.2742 -0.66911,4.3777 1.62797,3.7331 8.82952,-2.4775 26.96416,-6.86 35.50377,-8.5801 13.06535,-2.6316 17.4914,-1.8154 26.2961,4.8491 5.17473,3.9169 33.06271,36.8439 33.06271,39.0367 0,2.1095 -2.12665,2.9871 -13.46927,5.5582 -12.11466,2.7462 -16.3494,6.3705 -32.86435,28.1274 -4.22519,5.5663 -9.90934,12.2038 -12.63143,14.75 l -4.94927,4.6295 -8.00804,0 c -7.37,0 -8.26977,-0.2272 -11.29284,-2.8509 -2.68188,-2.3277 -4.55177,-2.9658 -10.18743,-3.4767 l -6.90264,-0.6257 0.65802,21.2267 c 1.58509,51.1323 1.88379,81.4248 0.86632,87.8554 -1.20916,7.6421 -8.81845,24.2054 -11.33279,24.6683 -1.00506,0.185 -2.19697,-0.9465 -3.16008,-3 z m -15.9762,-142.933 8.25,-1.2648 0,-21.2996 c 0,-20.7087 -0.0561,-21.2997 -2.02154,-21.2997 -3.23392,0 -35.99912,6.777 -42.18325,8.725 l -5.6349,1.775 8.96727,11 c 4.932,6.05 11.07484,14.0733 13.65075,17.8296 4.34442,6.3352 4.90205,6.7923 7.70258,6.3145 1.6605,-0.2833 6.73159,-1.0843 11.26909,-1.78 z m 60.08977,-16.1693 c 15.58899,-23.6629 19.7073,-34.1477 15.18793,-38.6671 -2.68273,-2.6827 -4.52971,-2.4967 -28.05491,2.8252 l -16.47279,3.7266 -0.62746,10.4602 c -0.34511,5.7532 -0.68261,16.1781 -0.75,23.1665 l -0.12254,12.7062 7.25,0.3451 c 3.9875,0.1898 8.65777,0.4345 10.37839,0.5438 2.98724,0.1897 3.58329,-0.4918 13.21138,-15.1065 z"
         id="path4873"
         inkscape:connector-curvature="0" />
      <path
         style="fill:#7b7b7b"
         d="m 517.75863,-1237.5191 c -14.47659,-3.1769 -26.66393,-9.8764 -37.33969,-20.5262 -8.62706,-8.606 -13.90659,-17.0565 -17.80122,-28.4927 l -2.72441,-8 0,-164.5 0,-164.5 2.72441,-8 c 3.91598,-11.4989 9.19994,-19.9351 17.85097,-28.5 11.33167,-11.2189 22.56891,-17.2372 38.13246,-20.4225 6.75077,-1.3816 21.67117,-1.5775 120.16203,-1.5775 121.48984,0 120.28,-0.048 133.61925,5.3396 9.98146,4.0317 17.03596,8.7378 24.98525,16.6677 8.62706,8.606 13.90659,17.0565 17.80122,28.4927 l 2.72441,8 0.28013,161 c 0.31316,179.9879 0.69448,169.5683 -6.77033,185 -8.90359,18.406 -24.40283,31.5694 -45.5098,38.6513 l -7,2.3487 -117.5,0.1826 c -95.30081,0.1481 -118.65902,-0.072 -123.63468,-1.1637 z m 235.49718,-3.5609 c 28.62194,-3.5889 51.81728,-23.5362 58.62756,-50.4181 2.27472,-8.9789 2.28216,-326.0556 0.008,-335.0798 -5.87767,-23.3214 -25.16917,-42.3657 -49.1213,-48.4916 -7.43875,-1.9025 -11.59011,-1.9685 -123.87676,-1.9685 -112.28665,0 -116.43801,0.066 -123.87676,1.9685 -21.93025,5.6088 -39.02688,21.01 -47.50042,42.7899 l -2.62282,6.7416 -0.26466,163.9185 c -0.2953,182.8959 -0.82381,168.7401 6.88729,184.4709 9.1648,18.6964 30.00033,33.196 51.73104,36 9.89564,1.2769 219.8732,1.3395 230.00883,0.069 z m -117.29189,-68.0731 c -5.2872,-13.2141 -6.98654,-34.6606 -6.95471,-87.7719 l 0.026,-43.3871 -8.57095,0.6278 c -11.22631,0.8223 -15.8636,2.2128 -19.16446,5.7464 -4.64645,4.974 -8.99359,3.5824 -18.03779,-5.7742 -9.97005,-10.3146 -33.60509,-40.0808 -43.68779,-55.021 -3.65147,-5.4107 -4.18091,-6.8924 -4.18091,-11.7008 0,-7.1581 1.83332,-15.6041 3.38708,-15.6041 3.82935,0 14.31099,8.8857 26.91879,22.8201 l 5.71842,6.3201 27.98246,-9.3201 27.98245,-9.3201 0.002,-3.5 c 0.002,-5.4711 -2.60115,-20.1419 -4.26038,-24.0061 -0.82513,-1.9217 -5.13304,-7.4964 -9.57313,-12.3884 -11.50876,-12.6801 -14.19806,-19.5223 -10.82559,-27.5431 2.9082,-6.9165 18.77835,-16.8904 24.92088,-15.6619 1.70248,0.3405 6.27962,3.0298 10.17142,5.9761 16.89434,12.7902 29.26137,26.8588 30.2789,34.445 0.46454,3.4634 -0.0137,4.4483 -5.45713,11.2373 -7.35131,9.1685 -9.19011,12.6755 -9.93246,18.9435 l -0.57973,4.8949 6.38321,-1.9506 c 11.04865,-3.3764 37.35457,-8.9467 42.25097,-8.9467 9.69203,0 14.82079,3.6872 30.53228,21.9502 15.88106,18.4602 18.07865,21.286 18.08985,23.2613 0.01,1.7438 -1.18768,2.1891 -12.99029,4.8296 -11.73917,2.6263 -17.03683,6.9767 -31.33157,25.7295 -14.37126,18.8531 -16.92636,21.1941 -23.92038,21.9159 -7.40372,0.7642 -12.49197,-0.3071 -15.16675,-3.1933 -1.80383,-1.9463 -3.61009,-2.503 -10.00059,-3.0821 l -7.79915,-0.7068 0.6027,12.3979 c 0.33148,6.8188 1.10673,28.1478 1.72276,47.3978 1.38083,43.1482 0.76414,51.5682 -4.66601,63.708 -5.61007,12.542 -7.11603,13.5607 -9.8704,6.6769 z m -17.01441,-141.5104 10.70018,-1.7434 -0.45375,-21.3078 c -0.24957,-11.7193 -0.6536,-21.5076 -0.89786,-21.7519 -1.08436,-1.0843 -45.00545,8.2004 -48.49495,10.2516 -0.73646,0.4329 2.49718,5.242 8.96926,13.3392 5.56651,6.9642 11.69592,15.1741 13.62092,18.2442 1.925,3.0701 4.03011,5.3862 4.67802,5.1468 0.64791,-0.2394 5.99309,-1.2198 11.87818,-2.1787 z m 60.56371,-15.2756 c 15.68593,-23.3544 20.60792,-35.4272 16.35792,-40.1234 -2.54689,-2.8143 -5.5886,-2.5693 -26.65068,2.1465 l -18.67285,4.1809 -0.54207,8.0986 c -0.29813,4.4542 -0.77686,14.8942 -1.06384,23.2 l -0.52177,15.1015 9.73669,0.9795 c 5.35518,0.5386 10.18669,0.9253 10.73669,0.8593 0.55,-0.066 5.32896,-6.5654 10.61991,-14.4429 z"
         id="path4871"
         inkscape:connector-curvature="0" />
      <path
         style="fill:#a55357"
         d="m 523.39331,-1237.0815 c -27.0628,-3.2503 -49.49702,-20.7189 -59.3114,-46.1834 l -3.1886,-8.2731 -0.26457,-164.9188 c -0.29436,-183.482 -0.79353,-169.5586 6.63533,-185.0812 8.9939,-18.7927 25.75578,-32.2144 46.91319,-37.5647 7.59239,-1.9199 11.14029,-1.9675 127.26309,-1.7052 l 119.45296,0.2699 8,2.8078 c 21.74949,7.6334 36.86806,22.3156 45.17923,43.875 l 2.82077,7.3172 0,167.5 0,167.5 -3.1886,8.2731 c -10.08675,26.1712 -32.16427,42.9756 -60.8114,46.287 -9.62359,1.1124 -220.16657,1.0173 -229.5,-0.1036 z m 242.5,-6.1809 c 21.51623,-7.3274 38.32263,-23.7039 45.21771,-44.0611 l 2.78229,-8.2145 0,-163.5 0,-163.5 -2.82363,-7.9904 c -8.59237,-24.315 -28.20492,-41.2631 -53.30809,-46.0662 -11.21616,-2.146 -226.5204,-2.146 -237.73656,0 -25.10317,4.8031 -44.71572,21.7512 -53.30809,46.0662 l -2.82363,7.9904 0,163 0,163 2.88623,8.8057 c 7.69088,23.4645 27.0663,40.6503 52.11377,46.2244 4.84264,1.0777 28.47217,1.3 122.5,1.1526 l 116.5,-0.1827 8,-2.7244 z m -129.92939,-65.8907 c -5.2872,-13.2141 -6.98654,-34.6606 -6.95471,-87.7719 l 0.026,-43.3871 -8.57095,0.6278 c -11.22631,0.8223 -15.8636,2.2128 -19.16446,5.7464 -4.64645,4.974 -8.99359,3.5824 -18.03779,-5.7742 -9.97005,-10.3146 -33.60509,-40.0808 -43.68779,-55.021 -3.65147,-5.4107 -4.18091,-6.8924 -4.18091,-11.7008 0,-7.1581 1.83332,-15.6041 3.38708,-15.6041 3.82935,0 14.31099,8.8857 26.91879,22.8201 l 5.71842,6.3201 27.98246,-9.3201 27.98245,-9.3201 0.002,-3.5 c 0.002,-5.4711 -2.60115,-20.1419 -4.26038,-24.0061 -0.82513,-1.9217 -5.13304,-7.4964 -9.57313,-12.3884 -11.50876,-12.6801 -14.19806,-19.5223 -10.82559,-27.5431 2.9082,-6.9165 18.77835,-16.8904 24.92088,-15.6619 1.70248,0.3405 6.27962,3.0298 10.17142,5.9761 16.89434,12.7902 29.26137,26.8588 30.2789,34.445 0.46454,3.4634 -0.0137,4.4483 -5.45713,11.2373 -7.35131,9.1685 -9.19011,12.6755 -9.93246,18.9435 l -0.57973,4.8949 6.38321,-1.9506 c 11.04865,-3.3764 37.35457,-8.9467 42.25097,-8.9467 9.69203,0 14.82079,3.6872 30.53228,21.9502 15.88106,18.4602 18.07865,21.286 18.08985,23.2613 0.01,1.7438 -1.18768,2.1891 -12.99029,4.8296 -11.73917,2.6263 -17.03683,6.9767 -31.33157,25.7295 -14.37126,18.8531 -16.92636,21.1941 -23.92038,21.9159 -7.40372,0.7642 -12.49197,-0.3071 -15.16675,-3.1933 -1.80383,-1.9463 -3.61009,-2.503 -10.00059,-3.0821 l -7.79915,-0.7068 0.6027,12.3979 c 0.33148,6.8188 1.10673,28.1478 1.72276,47.3978 1.38083,43.1482 0.76414,51.5682 -4.66601,63.708 -5.61007,12.542 -7.11603,13.5607 -9.8704,6.6769 z m -17.01441,-141.5104 10.70018,-1.7434 -0.45375,-21.3078 c -0.24957,-11.7193 -0.6536,-21.5076 -0.89786,-21.7519 -1.08436,-1.0843 -45.00545,8.2004 -48.49495,10.2516 -0.73646,0.4329 2.49718,5.242 8.96926,13.3392 5.56651,6.9642 11.69592,15.1741 13.62092,18.2442 1.925,3.0701 4.03011,5.3862 4.67802,5.1468 0.64791,-0.2394 5.99309,-1.2198 11.87818,-2.1787 z m 60.56371,-15.2756 c 15.68593,-23.3544 20.60792,-35.4272 16.35792,-40.1234 -2.54689,-2.8143 -5.5886,-2.5693 -26.65068,2.1465 l -18.67285,4.1809 -0.54207,8.0986 c -0.29813,4.4542 -0.77686,14.8942 -1.06384,23.2 l -0.52177,15.1015 9.73669,0.9795 c 5.35518,0.5386 10.18669,0.9253 10.73669,0.8593 0.55,-0.066 5.32896,-6.5654 10.61991,-14.4429 z"
         id="path4869"
         inkscape:connector-curvature="0" />
      <path
         style="fill:#871a1f"
         d="m 523.39331,-1237.0815 c -27.0628,-3.2503 -49.49702,-20.7189 -59.3114,-46.1834 l -3.1886,-8.2731 -0.26457,-164.9188 c -0.29436,-183.482 -0.79353,-169.5586 6.63533,-185.0812 8.9939,-18.7927 25.75578,-32.2144 46.91319,-37.5647 7.59239,-1.9199 11.14029,-1.9675 127.26309,-1.7052 l 119.45296,0.2699 8,2.8078 c 21.74949,7.6334 36.86806,22.3156 45.17923,43.875 l 2.82077,7.3172 0,167.5 0,167.5 -3.1886,8.2731 c -10.08675,26.1712 -32.16427,42.9756 -60.8114,46.287 -9.62359,1.1124 -220.16657,1.0173 -229.5,-0.1036 z m 242.5,-6.1809 c 21.51623,-7.3274 38.32263,-23.7039 45.21771,-44.0611 l 2.78229,-8.2145 0,-163.5 0,-163.5 -2.82363,-7.9904 c -8.59237,-24.315 -28.20492,-41.2631 -53.30809,-46.0662 -11.21616,-2.146 -226.5204,-2.146 -237.73656,0 -25.10317,4.8031 -44.71572,21.7512 -53.30809,46.0662 l -2.82363,7.9904 0,163 0,163 2.88623,8.8057 c 7.69088,23.4645 27.0663,40.6503 52.11377,46.2244 4.84264,1.0777 28.47217,1.3 122.5,1.1526 l 116.5,-0.1827 8,-2.7244 z m -128.90332,-64.0256 c -5.96663,-9.2622 -9.3287,-52.7808 -8.07326,-104.5 l 0.68574,-28.25 -5.85458,0.037 c -3.22002,0.02 -8.92489,0.6308 -12.6775,1.357 -5.44979,1.0545 -7.40066,1.9527 -9.69363,4.4632 -3.46002,3.7882 -6.29509,3.9748 -11.07223,0.7287 -6.72998,-4.5732 -34.68771,-38.5851 -50.06316,-60.9043 -4.28688,-6.2229 -4.84806,-7.6447 -4.84806,-12.2832 0,-6.7656 1.9968,-15.3982 3.56174,-15.3982 2.54302,0 13.30422,9.0241 22.62903,18.9762 l 9.69078,10.3426 28.05533,-9.4094 28.05534,-9.4094 0.004,-4.119 c 0.006,-6.1892 -2.81699,-21.1333 -4.66958,-24.7209 -0.89755,-1.738 -4.94956,-6.7601 -9.00449,-11.1601 -14.4848,-15.7175 -15.86464,-24.708 -5.20216,-33.8956 5.81106,-5.0073 11.58663,-8.3105 15.91105,-9.1001 3.04777,-0.5565 4.41614,-0.056 10,3.6595 8.40647,5.5931 29.15371,26.1349 31.86201,31.5464 1.15888,2.3155 2.10651,5.2405 2.10584,6.5 -7e-4,1.3076 -2.50117,5.3483 -5.82925,9.4201 -6.9333,8.4825 -9.34799,13.2297 -9.96182,19.5845 l -0.45541,4.7149 6.87385,-2.0048 c 12.14288,-3.5414 37.29557,-8.9252 41.65092,-8.9151 9.31799,0.022 16.56618,5.7815 35.85112,28.4902 11.89186,14.0031 13.47839,16.2934 12.18347,17.5883 -0.59103,0.5911 -5.41528,2.1498 -10.72055,3.464 -13.81865,3.4229 -19.39134,7.7467 -32.50774,25.2221 -16.32334,21.7482 -18.89385,23.7254 -29.93217,23.0225 -5.44114,-0.3465 -6.77031,-0.8153 -8.71257,-3.0734 -2.01244,-2.3396 -3.28977,-2.7477 -10.47479,-3.3469 l -8.18287,-0.6824 0.603,12.4029 c 0.33164,6.8216 1.11186,28.1529 1.73382,47.4029 1.43289,44.349 0.85552,51.1073 -5.54419,64.8958 -2.45169,5.2823 -4.92333,9.6042 -5.49255,9.6042 -0.56922,0 -1.68719,-1.0125 -2.48437,-2.25 z m -18.59668,-143.2171 c 5.225,-0.8387 9.89695,-1.5267 10.38212,-1.5289 0.90381,0 0.38147,-42.5737 -0.53362,-43.4888 -1.21709,-1.2171 -47.22528,8.5681 -49.19461,10.4629 -0.46536,0.4478 2.82907,5.2484 7.32096,10.668 4.4919,5.4196 10.69385,13.5702 13.78213,18.1122 3.89932,5.735 6.09293,8.1119 7.17903,7.7789 0.8602,-0.2637 5.83899,-1.1656 11.06399,-2.0043 z m 61.45411,-15.2829 c 15.19194,-23.1814 19.7701,-34.2255 16.62425,-40.1036 -1.67531,-3.1303 -6.37263,-2.8102 -27.19982,1.8536 -9.8245,2.2 -18.05289,4 -18.28532,4 -0.63101,0 -1.45688,12.4895 -2.02449,30.6158 l -0.50465,16.1159 9.21796,0.981 c 5.06988,0.5395 9.95769,1.0499 10.8618,1.1341 1.08823,0.1014 4.91106,-4.8322 11.31027,-14.5968 z"
         id="path4867"
         inkscape:connector-curvature="0" />
      <path
         style="fill:#000000"
         d="m 524.2035,-1237.0628 c -17.39633,-2.0759 -30.58589,-8.5914 -43.33204,-21.4054 -10.30967,-10.3645 -15.35791,-18.8698 -18.50615,-31.1793 -1.92303,-7.519 -1.97163,-11.7229 -1.95722,-169.3005 0.0165,-180.3992 -0.49821,-167.35 7.22173,-183.09 3.37458,-6.8804 5.8929,-10.2252 13.21623,-17.5538 7.66733,-7.6729 10.49624,-9.7586 18.54726,-13.674 16.86136,-8.2001 9.18063,-7.7722 139.5,-7.7722 130.20499,0 122.51103,-0.4255 139.46818,7.7128 8.12582,3.8998 10.75317,5.8373 18.53176,13.6656 10.34649,10.4127 15.36874,18.8783 18.52806,31.2311 1.92274,7.5178 1.972,11.749 1.972,169.3905 0,157.6415 -0.0493,161.8727 -1.972,169.3905 -3.1859,12.4568 -8.1538,20.8376 -18.47627,31.1695 -10.22948,10.2388 -19.776,15.8929 -33.26501,19.7018 l -7.78672,2.1987 -112.5,0.1565 c -61.875,0.086 -115.51042,-0.2027 -119.18981,-0.6418 z m 234.5165,-4.4107 c 27.67174,-5.2945 50.27706,-27.8834 54.60406,-54.5645 0.70647,-4.3562 1.05663,-58.17 1.0617,-163.162 0.008,-175.3577 0.39678,-165.5011 -7.12454,-180.838 -3.32404,-6.7781 -5.91051,-10.2456 -12.76818,-17.1172 -7.24942,-7.2641 -10.0914,-9.3351 -18.09973,-13.1898 -16.71615,-8.0458 -10.40957,-7.693 -137.5,-7.693 -127.09043,0 -120.78385,-0.3528 -137.5,7.693 -7.99927,3.8503 -10.86072,5.9339 -18.11366,13.1898 -6.99824,7.0011 -9.37701,10.2113 -12.68389,17.1172 -7.62631,15.9263 -7.20245,5.2822 -7.20245,180.8699 0,171.9737 -0.20764,165.6784 5.89468,178.7187 3.83075,8.1861 6.97755,12.7331 13.36352,19.3096 9.35462,9.6336 22.8339,17.0464 35.63541,19.5974 10.19974,2.0325 229.84128,2.0955 240.43308,0.069 z"
         id="path4865"
         inkscape:connector-curvature="0" />
    </g>
  </g>
</svg>
