<?xml version="1.0" encoding="UTF-8" standalone="no"?>
<!-- Created with Inkscape (http://www.inkscape.org/) -->

<svg
   xmlns:dc="http://purl.org/dc/elements/1.1/"
   xmlns:cc="http://creativecommons.org/ns#"
   xmlns:rdf="http://www.w3.org/1999/02/22-rdf-syntax-ns#"
   xmlns:svg="http://www.w3.org/2000/svg"
   xmlns="http://www.w3.org/2000/svg"
   xmlns:sodipodi="http://sodipodi.sourceforge.net/DTD/sodipodi-0.dtd"
   xmlns:inkscape="http://www.inkscape.org/namespaces/inkscape"
   sodipodi:docname="draggreen.svg"
   inkscape:version="0.48.5 r10040"
   version="1.1"
   id="svg2"
   height="445.70917"
   width="358.81662">
  <defs
     id="defs4" />
  <sodipodi:namedview
     id="base"
     pagecolor="#ffffff"
     bordercolor="#666666"
     borderopacity="1.0"
     inkscape:pageopacity="0.0"
     inkscape:pageshadow="2"
     inkscape:zoom="1.1210937"
     inkscape:cx="108.22315"
     inkscape:cy="177.35409"
     inkscape:document-units="px"
     inkscape:current-layer="layer1"
     showgrid="false"
     fit-margin-top="0"
     fit-margin-left="0"
     fit-margin-right="0"
     fit-margin-bottom="0"
     inkscape:window-width="958"
     inkscape:window-height="1078"
     inkscape:window-x="1920"
     inkscape:window-y="0"
     inkscape:window-maximized="0" />
  <metadata
     id="metadata7">
    <rdf:RDF>
      <cc:Work
         rdf:about="">
        <dc:format>image/svg+xml</dc:format>
        <dc:type
           rdf:resource="http://purl.org/dc/dcmitype/StillImage" />
        <dc:title></dc:title>
      </cc:Work>
    </rdf:RDF>
  </metadata>
  <g
     inkscape:label="Layer 1"
     inkscape:groupmode="layer"
     id="layer1"
     transform="translate(-1055.1747,1218.5135)">
    <g
       id="g4774"
       transform="translate(596.02521,546.58563)">
      <path
         style="fill:#c2c6c1"
         d="m 518.91287,-1320.2739 c -27.73747,-4.7406 -50.97314,-25.9296 -57.82883,-52.7351 -1.87358,-7.3256 -1.93456,-12.6602 -1.93456,-169.2441 0,-157.6415 0.0493,-161.8727 1.972,-169.3905 6.31819,-24.7039 25.72645,-43.8296 52.028,-51.2706 6.14438,-1.7383 12.98324,-1.8389 125,-1.8389 132.89441,0 123.3247,-0.5107 139.5,7.4449 19.07051,9.3797 32.69213,25.8219 38.16708,46.0703 1.62897,6.0245 1.77675,17.5223 2.08203,161.9848 0.19835,93.8602 -0.0493,159.3068 -0.62477,165.1036 -1.77913,17.9217 -7.71737,30.4206 -20.62434,43.4108 -8.65374,8.7095 -17.78834,14.2008 -31,18.6358 l -7,2.3498 -117.5,0.1443 c -64.625,0.079 -119.63148,-0.2199 -122.23661,-0.6651 z m 233.09911,-4.0212 c 23.46375,-2.9421 44.09693,-17.1894 54.08046,-37.3429 7.54787,-15.2366 7.12375,-3.8091 6.82475,-183.8861 l -0.26771,-161.229 -2.67941,-7.3349 c -3.91777,-10.725 -8.37899,-17.6654 -16.82059,-26.1682 -8.73631,-8.7997 -19.47385,-14.9211 -31.62324,-18.0284 -7.43782,-1.9023 -11.58744,-1.9685 -123.37676,-1.9685 -111.04663,0 -115.98262,0.077 -123.23356,1.9319 -23.65815,6.0507 -42.21797,23.9448 -49.41004,47.6376 -1.69545,5.5854 -1.81763,15.1509 -2.09933,164.3671 -0.3386,179.3574 -0.75887,168.6888 7.28378,184.8998 10.07472,20.307 30.59402,34.4481 53.95915,37.1867 9.98674,1.1705 217.98319,1.111 227.3625,-0.065 z m -38.21995,-99.9885 c -4.11807,-1.2308 -5.91441,-3.156 -13.07056,-14.0084 -3.51807,-5.3352 -9.13598,-12.6288 -12.48424,-16.2081 -3.34826,-3.5793 -6.08775,-7.0751 -6.08775,-7.7683 0,-0.98 3.17015,-1.1412 14.25,-0.7244 22.98547,0.8646 32.35347,5.1474 39.8515,18.2193 5.30257,9.2443 3.19622,14.4231 -7.46637,18.3574 -6.7879,2.5046 -11.50309,3.1753 -14.99258,2.1325 z m -105.99783,-4.9766 -3.67757,-3.2289 8.26642,-5.083 c 10.10586,-6.2139 24.53253,-20.2127 28.05586,-27.2237 2.61208,-5.1977 6.20212,-16.2991 5.49846,-17.0027 -0.21842,-0.2185 -4.63849,0.076 -9.82238,0.6551 -5.18388,0.5788 -11.55294,0.9034 -14.15346,0.7213 l -4.72822,-0.331 -2.14916,6 c -3.73355,10.4233 -15.51215,33.7963 -19.696,39.0839 -4.82382,6.0965 -8.51215,7.8365 -15.24107,7.1899 -6.34579,-0.6098 -12.31791,-4.5486 -25.24436,-16.6495 l -9.74675,-9.1243 -5.54309,0 c -3.4805,0 -6.92363,-0.7077 -9.25324,-1.9018 -8.48952,-4.3518 -18.21016,-14.2959 -18.21016,-18.6287 0,-2.3677 2.5064,-4.0772 3.53582,-2.4115 1.61456,2.6124 9.19586,5.2814 14.96418,5.2681 10.04168,-0.023 31.15804,-7.1877 58.08352,-19.7075 6.64594,-3.0902 12.83344,-5.6186 13.75,-5.6186 0.91657,0 1.66648,-0.6184 1.66648,-1.3743 0,-2.0362 -2.85349,-9.7531 -4.5818,-12.3909 l -1.50565,-2.2979 -6.70628,3.5608 c -3.68845,1.9584 -10.48232,6.9226 -15.09748,11.0315 -8.11764,7.2272 -8.55777,7.4707 -13.5,7.4671 -3.29308,0 -6.24119,-0.6942 -8.29497,-1.9465 -3.54269,-2.1602 -5.9523,-5.8249 -4.65646,-7.0819 0.46345,-0.4496 4.90243,-2.5972 9.86439,-4.7725 4.96196,-2.1753 16.26185,-7.5804 25.11086,-12.0114 l 16.08912,-8.0564 1.58348,-6.2861 c 0.87091,-3.4574 1.49602,-6.3735 1.38913,-6.4803 -0.10689,-0.1068 -5.03017,-0.518 -10.94064,-0.9139 l -10.74629,-0.7197 -7.88976,7.5378 c -21.25396,20.3059 -53.31183,41.992 -65.43848,44.267 -3.19842,0.6 -3.67917,0.4399 -3.67917,-1.2249 0,-2.4377 3.06158,-5.2577 21.5,-19.8037 8.83567,-6.9705 22.11913,-18.9588 32.32336,-29.1719 l 17.32335,-17.3385 -11.99041,-12.7467 c -19.60723,-20.844 -21.77068,-23.8739 -20.98918,-29.395 0.22291,-1.5748 1.10232,-2.4607 2.66205,-2.6816 3.62064,-0.5129 20.29537,11.0038 31.31459,21.6279 l 9.64375,9.2979 3.45642,-4.2979 c 12.51402,-15.5609 20.63195,-32.798 15.44639,-32.798 -0.72032,0 -6.68282,1.7645 -13.25,3.9212 -17.18684,5.644 -18.76899,5.841 -21.88488,2.7251 -1.40549,-1.4054 -2.55544,-3.1797 -2.55544,-3.9429 0,-0.7845 2.93337,-2.5391 6.75,-4.0376 10.46839,-4.1101 18.2149,-9.7834 31.50569,-23.0738 13.7514,-13.7509 20.16316,-18.5702 25.69323,-19.312 3.14852,-0.4223 4.0517,-0.1172 5.41494,1.8291 1.84046,2.6276 2.19942,12.7569 0.68364,19.2915 -0.88638,3.8211 -0.78003,4.0398 5.22768,10.75 3.37286,3.7672 6.45041,6.8494 6.839,6.8494 1.1655,0 8.57066,-12.3075 11.20106,-18.6163 3.34552,-8.024 4.72834,-15.0863 5.23839,-26.7536 0.33853,-7.744 0.88144,-10.598 2.52048,-13.25 1.14895,-1.8591 2.52389,-3.3801 3.05542,-3.3801 2.35467,0 14.02375,15.6831 15.82237,21.2651 1.16273,3.6085 1.0149,4.1285 -3.55367,12.5 -2.62177,4.8042 -6.6942,12.2731 -9.04985,16.5976 -4.9458,9.0796 -8.39104,13.8311 -13.3082,18.354 l -3.49708,3.2167 3.46508,3.7833 c 1.9058,2.0808 5.69406,6.134 8.41836,9.007 l 4.95328,5.2238 4.83458,-7.2238 c 2.93277,-4.382 5.67233,-10.0757 6.96423,-14.4737 1.1713,-3.9875 2.56249,-7.25 3.09153,-7.25 1.52772,0 9.82821,6.4391 14.55896,11.2941 3.42705,3.5171 4.26053,5.0433 4,7.3244 -0.29932,2.6206 -0.74858,2.9298 -4.96223,3.4145 -4.93158,0.5673 -9.1776,3.0813 -17.20338,10.1857 l -4.83648,4.2813 16.33648,17.2233 c 8.98507,9.4727 28.97843,29.369 44.42969,44.2138 26.4326,25.3952 32.15886,31.6504 34.42106,37.6004 0.97898,2.5749 -0.57193,3.4951 -2.56426,1.5214 -1.5409,-1.5265 -29.08306,-13.9766 -40.25852,-18.1984 -27.29239,-10.3103 -32.05387,-14.6693 -51.73388,-47.3605 -28.43603,-47.2361 -46.21334,-75.5126 -47.4576,-75.4859 -0.275,0.01 -1.77609,3.3333 -3.33575,7.394 -5.76848,15.019 -21.98352,39.4497 -37.61773,56.6776 l -7.45348,8.2132 3.90697,-0.7329 c 5.51164,-1.034 11.06285,-4.0593 17.89904,-9.7545 4.99875,-4.1644 6.44373,-4.8684 9.46784,-4.613 2.77188,0.2342 4.07837,1.0602 5.85094,3.6994 1.25519,1.8688 2.28217,4.4163 2.28217,5.6611 0,2.6736 -4.53935,6.7834 -9.45616,8.5613 -2.72353,0.9849 -3.90512,2.292 -5.56992,6.162 -1.16218,2.7015 -1.96925,5.0516 -1.79349,5.2224 0.17576,0.1707 4.36957,-1.4361 9.31957,-3.5708 4.95,-2.1347 10.18398,-4.301 11.63107,-4.8141 2.30333,-0.8166 2.77933,-1.7842 3.82134,-7.7679 3.08142,-17.6949 3.85307,-34.1455 1.98234,-42.2611 -1.27774,-5.5431 -0.23308,-6.8712 4.01922,-5.1099 3.47398,1.439 12.45172,11.3257 14.01275,15.4316 2.88521,7.5886 0.0316,18.3725 -10.88055,41.1182 l -6.82757,14.2316 6.1207,-1.4075 c 9.79363,-2.2521 12.10342,-3.2074 19.31001,-7.9856 6.04889,-4.0106 7.31507,-4.4706 11.32002,-4.1124 5.63075,0.5037 9.74017,2.4718 12.25275,5.8683 3.78289,5.1137 -1.51576,8.8527 -15.66235,11.052 l -7.22543,1.1233 0.34513,8.5998 c 0.18982,4.7299 0.57838,10.4803 0.86346,12.7787 l 0.51834,4.1789 3.69938,-0.5792 c 6.01595,-0.942 24.37415,-4.988 28.73971,-6.3341 5.44653,-1.6793 9.88352,-0.6783 17.55552,3.9606 4.94981,2.993 6.40416,4.4047 6.40416,6.2167 0,3.2471 -3.63487,3.7501 -27.61043,3.8206 -10.78573,0.032 -21.66515,0.3392 -24.17647,0.6834 l -4.56605,0.6259 -0.61231,7.6241 c -1.44718,18.0195 -4.9829,28.5057 -11.96609,35.4889 -6.74042,6.7404 -21.40641,12.8396 -34.15751,14.2051 -5.84705,0.6262 -6.2349,0.5238 -9.76642,-2.5769 z m -25.62636,-22.006 c 4.38797,-3.1245 11.31584,-12.7759 15.50034,-21.5939 1.91472,-4.0348 3.4813,-7.8075 3.4813,-8.3836 0,-1.2433 -2.18956,-0.7577 -14.48572,3.2123 -9.80641,3.1662 -14.69792,5.8079 -27.34418,14.7674 l -8.3299,5.9014 6.31921,3.19 c 13.04917,6.5872 18.75324,7.2541 24.85895,2.9064 z m 65.52049,-39.1924 c 0.91072,-0.9107 3.14543,-11.7825 4.01738,-19.5445 l 0.7021,-6.25 -9.56107,0 c -9.48348,0 -9.57842,0.024 -11.69871,3.002 -2.03689,2.8606 -5.7502,5.5797 -6.54052,4.7894 -0.20387,-0.2039 0.73461,-3.9529 2.08551,-8.3311 1.3509,-4.3782 2.45625,-8.046 2.45632,-8.1507 1.8e-4,-0.2507 -11.96891,3.884 -19.24986,6.6499 -5.67392,2.1553 -7.3842,4.4762 -4.19924,5.6984 3.90598,1.4988 10.10981,12.2674 11.92655,20.7021 l 0.61601,2.86 14.38189,-0.3719 c 7.91005,-0.2045 14.68868,-0.6787 15.06364,-1.0536 z"
         id="path4788"
         inkscape:connector-curvature="0" />
      <path
         style="fill:#bebebe"
         d="m 518.91287,-1320.2739 c -27.73747,-4.7406 -50.97314,-25.9296 -57.82883,-52.7351 -1.87358,-7.3256 -1.93456,-12.6602 -1.93456,-169.2441 0,-157.6415 0.0493,-161.8727 1.972,-169.3905 6.31819,-24.7039 25.72645,-43.8296 52.028,-51.2706 6.14438,-1.7383 12.98324,-1.8389 125,-1.8389 132.89441,0 123.3247,-0.5107 139.5,7.4449 19.07051,9.3797 32.69213,25.8219 38.16708,46.0703 1.62897,6.0245 1.77675,17.5223 2.08203,161.9848 0.19835,93.8602 -0.0493,159.3068 -0.62477,165.1036 -1.77913,17.9217 -7.71737,30.4206 -20.62434,43.4108 -8.65374,8.7095 -17.78834,14.2008 -31,18.6358 l -7,2.3498 -117.5,0.1443 c -64.625,0.079 -119.63148,-0.2199 -122.23661,-0.6651 z m 233.09911,-4.0212 c 23.46375,-2.9421 44.09693,-17.1894 54.08046,-37.3429 7.54787,-15.2366 7.12375,-3.8091 6.82475,-183.8861 l -0.26771,-161.229 -2.67941,-7.3349 c -3.91777,-10.725 -8.37899,-17.6654 -16.82059,-26.1682 -8.73631,-8.7997 -19.47385,-14.9211 -31.62324,-18.0284 -7.43782,-1.9023 -11.58744,-1.9685 -123.37676,-1.9685 -111.04663,0 -115.98262,0.077 -123.23356,1.9319 -23.65815,6.0507 -42.21797,23.9448 -49.41004,47.6376 -1.69545,5.5854 -1.81763,15.1509 -2.09933,164.3671 -0.3386,179.3574 -0.75887,168.6888 7.28378,184.8998 10.07472,20.307 30.59402,34.4481 53.95915,37.1867 9.98674,1.1705 217.98319,1.111 227.3625,-0.065 z m -37.60402,-99.7024 c -3.19108,-0.5587 -7.34988,-5.055 -13.73254,-14.8469 -3.05139,-4.6812 -8.46802,-11.6204 -12.03696,-15.4204 -3.56894,-3.8 -6.48898,-7.3769 -6.48898,-7.9487 0,-1.5713 20.3276,-1.2533 28.33479,0.4433 10.03163,2.1255 16.73456,5.5391 20.87202,10.6295 8.78947,10.8139 9.77728,15.2855 4.47767,20.2695 -4.64534,4.3687 -15.62159,7.89 -21.426,6.8737 z m -106.25848,-5.2142 c -3.30478,-2.9834 -3.39375,-3.2261 -1.59514,-4.3505 23.60328,-14.7563 33.81497,-25.8602 38.1361,-41.4682 0.95583,-3.4524 1.54287,-6.4722 1.30452,-6.7106 -0.23835,-0.2383 -4.68859,0.019 -9.88942,0.573 -5.20083,0.5534 -11.62683,0.8732 -14.27999,0.7106 l -4.82392,-0.2957 -1.79295,5 c -6.53748,18.231 -16.79359,37.1569 -23.47128,43.3122 -3.86345,3.5612 -5.18249,4.1863 -8.81558,4.178 -6.86716,-0.016 -13.34871,-3.8743 -25.77234,-15.3428 l -11.5,-10.6159 -5.43428,-0.016 c -6.7916,-0.02 -12.38143,-2.6237 -19.39822,-9.0367 -6.42888,-5.8756 -9.69275,-11.3538 -7.85779,-13.1888 0.99378,-0.9937 1.59327,-0.9933 2.96781,0 7.85977,5.693 17.6484,6.0861 32.39687,1.3009 11.42289,-3.7062 31.05023,-11.671 40.56563,-16.4616 3.71799,-1.8718 8.70724,-3.9864 11.08723,-4.699 4.22118,-1.264 4.3115,-1.3797 3.68436,-4.7226 -0.81067,-4.3209 -4.59988,-12.2099 -5.86478,-12.2099 -2.41682,0 -14.33226,7.7035 -19.93595,12.8889 -8.48913,7.8554 -10.55169,9.1111 -14.9655,9.1111 -4.22981,0 -9.62783,-1.939 -11.40036,-4.0951 -3.22602,-3.9241 -2.38024,-4.6332 15.15498,-12.7052 9.35,-4.3042 20.81198,-9.8224 25.47107,-12.2627 l 8.47107,-4.437 1.84448,-6.3511 c 1.01447,-3.4931 1.70249,-6.493 1.52893,-6.6665 -0.17355,-0.1734 -5.11429,-0.6367 -10.97941,-1.0296 l -10.66385,-0.7142 -9.33615,8.3957 c -31.24188,28.0946 -65.97991,49.5156 -67.60619,41.6888 -0.24157,-1.1626 4.80668,-5.7886 16.46081,-15.084 21.22357,-16.928 34.66893,-29.0702 45.74906,-41.3148 l 8.71482,-9.6308 -2.32732,-2.6261 c -1.28003,-1.4443 -6.98593,-7.5532 -12.67978,-13.5753 -12.79063,-13.5281 -18.14754,-20.5337 -18.14754,-23.733 0,-2.7207 1.66081,-4.8591 3.77387,-4.8591 3.00973,0 23.15366,14.9206 31.38138,23.2442 l 8.65525,8.7561 4.95976,-6.7502 c 11.24346,-15.3021 16.93035,-26.2608 15.5264,-29.9194 -0.77477,-2.019 -2.49018,-1.7047 -17.53871,3.2135 -7.78871,2.5455 -14.74016,4.2788 -15.80495,3.9409 -3.10238,-0.9847 -6.17493,-5.5128 -4.83568,-7.1265 0.62017,-0.7472 1.70173,-1.3586 2.40347,-1.3586 0.70175,0 5.37727,-2.0531 10.39005,-4.5626 8.12404,-4.0669 10.88,-6.2667 25.36931,-20.25 9.89911,-9.5533 17.88587,-16.4202 20.42558,-17.5613 8.57406,-3.8528 11.95105,0.1813 11.02378,13.1686 -0.30258,4.2379 -0.83468,8.4173 -1.18244,9.2875 -0.42953,1.0749 1.51125,3.8975 6.05194,8.8019 l 6.68425,7.2196 2.91212,-4.3019 c 4.01421,-5.9298 7.72896,-13.2688 9.87814,-19.5155 2.0517,-5.9634 4.34415,-23.5829 3.74078,-28.7513 -0.31768,-2.7211 0.24138,-4.1966 2.6996,-7.1246 l 3.10026,-3.6928 5.73249,6.8912 c 3.15287,3.7902 6.89853,9.266 8.3237,12.1686 l 2.5912,5.2775 -2.9176,5.7225 c -9.02645,17.7044 -17.29383,31.1521 -22.44175,36.5036 l -5.59781,5.8192 7.85359,8.6999 c 4.31947,4.7849 8.22843,8.8257 8.68657,8.9795 0.92846,0.3116 6.83426,-8.2392 9.89807,-14.331 1.09222,-2.1718 2.54183,-6.3111 3.22136,-9.1986 0.67953,-2.8875 1.57351,-5.25 1.98663,-5.25 1.35998,0 13.65957,9.748 16.38222,12.9837 4.48345,5.3283 3.07946,9.0163 -3.43242,9.0163 -2.73502,0 -4.98048,0.9777 -8.61242,3.75 -9.28733,7.0891 -12.28793,9.7524 -12.28796,10.9068 -3e-5,1.2983 44.94769,46.811 72.52676,73.4385 12.71833,12.2794 18.84708,18.9507 20.81241,22.6547 1.53209,2.8875 2.60034,5.25 2.37388,5.25 -0.22646,0 -6.89204,-3.0935 -14.81241,-6.8745 -7.92037,-3.7809 -20.92567,-9.4417 -28.90067,-12.5794 -28.40326,-11.175 -31.34423,-13.9246 -52.47981,-49.0663 -18.85254,-31.3457 -32.75632,-53.9063 -40.0063,-64.9153 -5.31407,-8.0693 -7.5019,-10.1965 -7.52307,-7.3145 -0.005,0.6875 -2.40929,6.2 -5.34275,12.25 -6.90419,14.2393 -18.95533,32.0588 -31.44731,46.5 -5.47129,6.325 -9.56364,11.647 -9.09411,11.8267 0.46953,0.1797 3.32028,-0.3903 6.335,-1.2667 3.73253,-1.0851 7.85425,-3.5024 12.91894,-7.5767 8.47148,-6.815 11.3778,-7.4476 15.21129,-3.3112 5.44596,5.8763 4.14415,9.9281 -4.60953,14.3469 -3.27929,1.6554 -5.96235,3.2116 -5.96235,3.4584 0,0.2467 -0.86512,2.6434 -1.92248,5.3259 l -1.92248,4.8774 11.17248,-4.832 c 6.14486,-2.6576 11.6761,-4.8357 12.29164,-4.8403 1.22529,-0.01 1.72506,-2.3219 3.89159,-18.0084 1.66695,-12.0693 1.9217,-27.0053 0.54262,-31.8139 -1.09435,-3.8158 -0.47061,-6.1861 1.62786,-6.1861 2.16372,0 13.22954,10.9123 15.42422,15.2102 3.95673,7.7486 2.15077,15.4318 -9.65555,41.0784 -5.26747,11.4423 -6.81149,15.6656 -5.60906,15.3419 0.91254,-0.2456 4.96814,-1.2228 9.01244,-2.1716 5.41771,-1.2709 9.30219,-3.0416 14.75719,-6.7269 6.90736,-4.6664 7.70638,-4.9604 11.91395,-4.3837 5.71311,0.7831 9.99311,2.9857 12.12561,6.2403 1.60117,2.4437 1.57113,2.6448 -0.74058,4.9563 -2.33553,2.3353 -15.37436,6.4551 -20.43007,6.4551 -2.14479,0 -2.1904,0.2477 -1.79586,9.75 0.6127,14.7564 0.97864,16.3563 3.61317,15.7966 1.21182,-0.2574 7.35247,-1.4158 13.64589,-2.5743 6.29342,-1.1585 12.98587,-2.7512 14.87212,-3.5393 1.88625,-0.7882 4.73583,-1.433 6.33239,-1.433 3.4299,0 15.54596,5.8854 18.22419,8.8524 4.60858,5.1056 -0.15438,6.1201 -28.87128,6.1499 -10.45,0.011 -20.65412,0.2932 -22.67581,0.6275 l -3.67582,0.6078 -0.63648,7.6312 c -1.42755,17.1159 -4.5469,26.7294 -11.00305,33.9101 -6.98651,7.7707 -21.32449,14.1963 -35.17136,15.7621 -5.56379,0.6291 -6.00158,0.512 -9.33748,-2.4996 z m -28.08038,-20.4998 c 5.03014,-2.6012 12.06815,-11.6188 17.14499,-21.9673 2.71772,-5.5398 4.49395,-10.2215 3.94717,-10.4037 -1.50402,-0.5014 -20.8365,5.7069 -26.13975,8.3942 -3.58105,1.8147 -21.87355,14.1109 -23.70054,15.9315 -0.61749,0.6154 8.64471,5.5879 13.99086,7.5113 6.44834,2.3198 10.98626,2.484 14.75727,0.534 z m 66.08038,-40.4281 c 2.27473,-0.6252 2.64907,-1.5399 4.15432,-10.1503 0.90987,-5.2048 1.69737,-10.8948 1.75,-12.6446 l 0.0957,-3.1814 -9.57599,-0.3186 -9.57599,-0.3186 -1.94425,3.1508 c -1.79031,2.9013 -3.76318,4.3492 -5.926,4.3492 -0.47226,0 0.24522,-3.2455 1.59438,-7.2122 1.34917,-3.9667 2.33486,-7.5481 2.19043,-7.9586 -0.14443,-0.4105 -4.5376,0.7613 -9.7626,2.604 -13.8049,4.8687 -15,5.3987 -15,6.6518 0,0.624 2.20986,3.5525 4.91079,6.5078 4.56527,4.9951 7.10274,9.9451 8.53891,16.6572 l 0.5884,2.75 12.73095,-0.1 c 7.00202,-0.055 13.85595,-0.4089 15.23095,-0.7868 z"
         id="path4786"
         inkscape:connector-curvature="0" />
      <path
         style="fill:#868f85"
         d="m 516.81621,-1320.8699 c -25.61644,-5.5408 -46.67888,-24.315 -54.84113,-48.8832 l -2.3256,-7 0,-165.5 0,-165.5 2.75576,-8.1305 c 7.28764,-21.5013 25.24224,-38.4625 49.24424,-46.5197 l 7,-2.3498 115,-0.2833 c 78.56689,-0.1935 117.21024,0.058 121.97655,0.7942 23.7155,3.6628 44.30075,18.5555 54.58356,39.4891 8.05357,16.3954 7.43989,1.3418 7.43989,182.5 0,181.1733 0.61432,166.1191 -7.44727,182.5 -8.95681,18.2 -25.76288,31.9858 -46.55273,38.1865 -5.59905,1.67 -13.81862,1.8024 -123,1.9821 -99.99066,0.1646 -117.99341,-0.022 -123.83327,-1.2854 z m 245.4768,-5.0848 c 20.46377,-5.7886 35.77229,-18.385 44.38561,-36.5222 6.7822,-14.2814 6.43613,-4.615 6.43613,-179.7762 0,-176.3575 0.40421,-165.7797 -6.89746,-180.5 -6.98426,-14.0804 -16.63687,-23.7166 -30.56781,-30.5159 -15.20086,-7.419 -7.64627,-7.0552 -140.24133,-6.7539 l -118.75867,0.2698 -8.41612,3.2408 c -21.15396,8.1457 -35.79238,23.4794 -42.25231,44.2592 l -2.33157,7.5 0,162.5 0,162.5 2.34088,7.5 c 3.66349,11.7376 7.87366,18.7141 16.65479,27.5981 11.59646,11.7324 24.46521,18.2248 40.22743,20.2952 3.7273,0.4896 57.4019,0.8175 119.2769,0.7287 112.04572,-0.1608 112.53087,-0.1702 120.14353,-2.3236 z m -47.88505,-98.0428 c -3.19108,-0.5587 -7.34988,-5.055 -13.73254,-14.8469 -3.05139,-4.6812 -8.46802,-11.6204 -12.03696,-15.4204 -3.56894,-3.8 -6.48898,-7.3769 -6.48898,-7.9487 0,-1.5713 20.3276,-1.2533 28.33479,0.4433 10.03163,2.1255 16.73456,5.5391 20.87202,10.6295 8.78947,10.8139 9.77728,15.2855 4.47767,20.2695 -4.64534,4.3687 -15.62159,7.89 -21.426,6.8737 z m -106.25848,-5.2142 c -3.30478,-2.9834 -3.39375,-3.2261 -1.59514,-4.3505 23.60328,-14.7563 33.81497,-25.8602 38.1361,-41.4682 0.95583,-3.4524 1.54287,-6.4722 1.30452,-6.7106 -0.23835,-0.2383 -4.68859,0.019 -9.88942,0.573 -5.20083,0.5534 -11.62683,0.8732 -14.27999,0.7106 l -4.82392,-0.2957 -1.79295,5 c -6.53748,18.231 -16.79359,37.1569 -23.47128,43.3122 -3.86345,3.5612 -5.18249,4.1863 -8.81558,4.178 -6.86716,-0.016 -13.34871,-3.8743 -25.77234,-15.3428 l -11.5,-10.6159 -5.43428,-0.016 c -6.7916,-0.02 -12.38143,-2.6237 -19.39822,-9.0367 -6.42888,-5.8756 -9.69275,-11.3538 -7.85779,-13.1888 0.99378,-0.9937 1.59327,-0.9933 2.96781,0 7.85977,5.693 17.6484,6.0861 32.39687,1.3009 11.42289,-3.7062 31.05023,-11.671 40.56563,-16.4616 3.71799,-1.8718 8.70724,-3.9864 11.08723,-4.699 4.22118,-1.264 4.3115,-1.3797 3.68436,-4.7226 -0.81067,-4.3209 -4.59988,-12.2099 -5.86478,-12.2099 -2.41682,0 -14.33226,7.7035 -19.93595,12.8889 -8.48913,7.8554 -10.55169,9.1111 -14.9655,9.1111 -4.22981,0 -9.62783,-1.939 -11.40036,-4.0951 -3.22602,-3.9241 -2.38024,-4.6332 15.15498,-12.7052 9.35,-4.3042 20.81198,-9.8224 25.47107,-12.2627 l 8.47107,-4.437 1.84448,-6.3511 c 1.01447,-3.4931 1.70249,-6.493 1.52893,-6.6665 -0.17355,-0.1734 -5.11429,-0.6367 -10.97941,-1.0296 l -10.66385,-0.7142 -9.33615,8.3957 c -31.24188,28.0946 -65.97991,49.5156 -67.60619,41.6888 -0.24157,-1.1626 4.80668,-5.7886 16.46081,-15.084 21.22357,-16.928 34.66893,-29.0702 45.74906,-41.3148 l 8.71482,-9.6308 -2.32732,-2.6261 c -1.28003,-1.4443 -6.98593,-7.5532 -12.67978,-13.5753 -12.79063,-13.5281 -18.14754,-20.5337 -18.14754,-23.733 0,-2.7207 1.66081,-4.8591 3.77387,-4.8591 3.00973,0 23.15366,14.9206 31.38138,23.2442 l 8.65525,8.7561 4.95976,-6.7502 c 11.24346,-15.3021 16.93035,-26.2608 15.5264,-29.9194 -0.77477,-2.019 -2.49018,-1.7047 -17.53871,3.2135 -7.78871,2.5455 -14.74016,4.2788 -15.80495,3.9409 -3.10238,-0.9847 -6.17493,-5.5128 -4.83568,-7.1265 0.62017,-0.7472 1.70173,-1.3586 2.40347,-1.3586 0.70175,0 5.37727,-2.0531 10.39005,-4.5626 8.12404,-4.0669 10.88,-6.2667 25.36931,-20.25 9.89911,-9.5533 17.88587,-16.4202 20.42558,-17.5613 8.57406,-3.8528 11.95105,0.1813 11.02378,13.1686 -0.30258,4.2379 -0.83468,8.4173 -1.18244,9.2875 -0.42953,1.0749 1.51125,3.8975 6.05194,8.8019 l 6.68425,7.2196 2.91212,-4.3019 c 4.01421,-5.9298 7.72896,-13.2688 9.87814,-19.5155 2.0517,-5.9634 4.34415,-23.5829 3.74078,-28.7513 -0.31768,-2.7211 0.24138,-4.1966 2.6996,-7.1246 l 3.10026,-3.6928 5.73249,6.8912 c 3.15287,3.7902 6.89853,9.266 8.3237,12.1686 l 2.5912,5.2775 -2.9176,5.7225 c -9.02645,17.7044 -17.29383,31.1521 -22.44175,36.5036 l -5.59781,5.8192 7.85359,8.6999 c 4.31947,4.7849 8.22843,8.8257 8.68657,8.9795 0.92846,0.3116 6.83426,-8.2392 9.89807,-14.331 1.09222,-2.1718 2.54183,-6.3111 3.22136,-9.1986 0.67953,-2.8875 1.57351,-5.25 1.98663,-5.25 1.35998,0 13.65957,9.748 16.38222,12.9837 4.48345,5.3283 3.07946,9.0163 -3.43242,9.0163 -2.73502,0 -4.98048,0.9777 -8.61242,3.75 -9.28733,7.0891 -12.28793,9.7524 -12.28796,10.9068 -3e-5,1.2983 44.94769,46.811 72.52676,73.4385 12.71833,12.2794 18.84708,18.9507 20.81241,22.6547 1.53209,2.8875 2.60034,5.25 2.37388,5.25 -0.22646,0 -6.89204,-3.0935 -14.81241,-6.8745 -7.92037,-3.7809 -20.92567,-9.4417 -28.90067,-12.5794 -28.40326,-11.175 -31.34423,-13.9246 -52.47981,-49.0663 -18.85254,-31.3457 -32.75632,-53.9063 -40.0063,-64.9153 -5.31407,-8.0693 -7.5019,-10.1965 -7.52307,-7.3145 -0.005,0.6875 -2.40929,6.2 -5.34275,12.25 -6.90419,14.2393 -18.95533,32.0588 -31.44731,46.5 -5.47129,6.325 -9.56364,11.647 -9.09411,11.8267 0.46953,0.1797 3.32028,-0.3903 6.335,-1.2667 3.73253,-1.0851 7.85425,-3.5024 12.91894,-7.5767 8.47148,-6.815 11.3778,-7.4476 15.21129,-3.3112 5.44596,5.8763 4.14415,9.9281 -4.60953,14.3469 -3.27929,1.6554 -5.96235,3.2116 -5.96235,3.4584 0,0.2467 -0.86512,2.6434 -1.92248,5.3259 l -1.92248,4.8774 11.17248,-4.832 c 6.14486,-2.6576 11.6761,-4.8357 12.29164,-4.8403 1.22529,-0.01 1.72506,-2.3219 3.89159,-18.0084 1.66695,-12.0693 1.9217,-27.0053 0.54262,-31.8139 -1.09435,-3.8158 -0.47061,-6.1861 1.62786,-6.1861 2.16372,0 13.22954,10.9123 15.42422,15.2102 3.95673,7.7486 2.15077,15.4318 -9.65555,41.0784 -5.26747,11.4423 -6.81149,15.6656 -5.60906,15.3419 0.91254,-0.2456 4.96814,-1.2228 9.01244,-2.1716 5.41771,-1.2709 9.30219,-3.0416 14.75719,-6.7269 6.90736,-4.6664 7.70638,-4.9604 11.91395,-4.3837 5.71311,0.7831 9.99311,2.9857 12.12561,6.2403 1.60117,2.4437 1.57113,2.6448 -0.74058,4.9563 -2.33553,2.3353 -15.37436,6.4551 -20.43007,6.4551 -2.14479,0 -2.1904,0.2477 -1.79586,9.75 0.6127,14.7564 0.97864,16.3563 3.61317,15.7966 1.21182,-0.2574 7.35247,-1.4158 13.64589,-2.5743 6.29342,-1.1585 12.98587,-2.7512 14.87212,-3.5393 1.88625,-0.7882 4.73583,-1.433 6.33239,-1.433 3.4299,0 15.54596,5.8854 18.22419,8.8524 4.60858,5.1056 -0.15438,6.1201 -28.87128,6.1499 -10.45,0.011 -20.65412,0.2932 -22.67581,0.6275 l -3.67582,0.6078 -0.63648,7.6312 c -1.42755,17.1159 -4.5469,26.7294 -11.00305,33.9101 -6.98651,7.7707 -21.32449,14.1963 -35.17136,15.7621 -5.56379,0.6291 -6.00158,0.512 -9.33748,-2.4996 z m -28.08038,-20.4998 c 5.03014,-2.6012 12.06815,-11.6188 17.14499,-21.9673 2.71772,-5.5398 4.49395,-10.2215 3.94717,-10.4037 -1.50402,-0.5014 -20.8365,5.7069 -26.13975,8.3942 -3.58105,1.8147 -21.87355,14.1109 -23.70054,15.9315 -0.61749,0.6154 8.64471,5.5879 13.99086,7.5113 6.44834,2.3198 10.98626,2.484 14.75727,0.534 z m 66.08038,-40.4281 c 2.27473,-0.6252 2.64907,-1.5399 4.15432,-10.1503 0.90987,-5.2048 1.69737,-10.8948 1.75,-12.6446 l 0.0957,-3.1814 -9.57599,-0.3186 -9.57599,-0.3186 -1.94425,3.1508 c -1.79031,2.9013 -3.76318,4.3492 -5.926,4.3492 -0.47226,0 0.24522,-3.2455 1.59438,-7.2122 1.34917,-3.9667 2.33486,-7.5481 2.19043,-7.9586 -0.14443,-0.4105 -4.5376,0.7613 -9.7626,2.604 -13.8049,4.8687 -15,5.3987 -15,6.6518 0,0.624 2.20986,3.5525 4.91079,6.5078 4.56527,4.9951 7.10274,9.9451 8.53891,16.6572 l 0.5884,2.75 12.73095,-0.1 c 7.00202,-0.055 13.85595,-0.4089 15.23095,-0.7868 z"
         id="path4784"
         inkscape:connector-curvature="0" />
      <path
         style="fill:#7f7f7f"
         d="m 516.81621,-1320.8699 c -25.61644,-5.5408 -46.67888,-24.315 -54.84113,-48.8832 l -2.3256,-7 0,-165.5 0,-165.5 2.75576,-8.1305 c 7.28764,-21.5013 25.24224,-38.4625 49.24424,-46.5197 l 7,-2.3498 115,-0.2833 c 78.56689,-0.1935 117.21024,0.058 121.97655,0.7942 23.7155,3.6628 44.30075,18.5555 54.58356,39.4891 8.05357,16.3954 7.43989,1.3418 7.43989,182.5 0,181.1733 0.61432,166.1191 -7.44727,182.5 -8.95681,18.2 -25.76288,31.9858 -46.55273,38.1865 -5.59905,1.67 -13.81862,1.8024 -123,1.9821 -99.99066,0.1646 -117.99341,-0.022 -123.83327,-1.2854 z m 245.4768,-5.0848 c 20.46377,-5.7886 35.77229,-18.385 44.38561,-36.5222 6.7822,-14.2814 6.43613,-4.615 6.43613,-179.7762 0,-176.3575 0.40421,-165.7797 -6.89746,-180.5 -6.98426,-14.0804 -16.63687,-23.7166 -30.56781,-30.5159 -15.20086,-7.419 -7.64627,-7.0552 -140.24133,-6.7539 l -118.75867,0.2698 -8.41612,3.2408 c -21.15396,8.1457 -35.79238,23.4794 -42.25231,44.2592 l -2.33157,7.5 0,162.5 0,162.5 2.34088,7.5 c 3.66349,11.7376 7.87366,18.7141 16.65479,27.5981 11.59646,11.7324 24.46521,18.2248 40.22743,20.2952 3.7273,0.4896 57.4019,0.8175 119.2769,0.7287 112.04572,-0.1608 112.53087,-0.1702 120.14353,-2.3236 z m -51.33395,-99.9537 c -1.47974,-0.9546 -5.49619,-6.0352 -8.92544,-11.2902 -3.42926,-5.255 -9.08107,-12.5155 -12.55958,-16.1346 -3.47851,-3.619 -6.32456,-7.3999 -6.32456,-8.4019 0,-1.6966 0.84288,-1.78 12.25,-1.2128 19.88399,0.9889 30.08016,4.5553 36.66408,12.8244 9.04962,11.3658 8.75964,17.2829 -1.08836,22.2084 -7.25531,3.6287 -16.12373,4.5178 -20.01614,2.0067 z m -103.2705,-3.8364 c -1.62851,-1.3309 -2.75351,-2.5729 -2.5,-2.7601 0.25351,-0.1872 4.27556,-2.7946 8.9379,-5.7943 16.44856,-10.5827 27.76241,-24.4079 31.37788,-38.343 l 1.52794,-5.8892 -6.6914,0.6321 c -3.68027,0.3476 -10.6289,0.6352 -15.4414,0.6391 -7.2359,0.01 -8.75,0.2755 -8.75,1.5581 0,2.181 -7.28223,19.1266 -13.15608,30.6139 -8.78881,17.1881 -15.05295,22.1839 -24.86439,19.8302 -6.02871,-1.4463 -10.56878,-4.65 -23.27074,-16.4213 -9.60889,-8.9048 -9.87367,-9.0675 -14.2191,-8.7364 -3.13919,0.2393 -5.96485,-0.3748 -9.70879,-2.11 -9.25132,-4.2877 -19.67228,-15.2409 -18.18579,-19.1147 0.83144,-2.1667 1.68043,-2.0441 5.96106,0.8609 7.40634,5.026 15.50449,4.6668 33.65155,-1.4926 6.76075,-2.2947 19.26728,-7.3184 27.79228,-11.1638 8.525,-3.8454 17.58549,-7.646 20.13441,-8.4457 l 4.63442,-1.4542 -0.93542,-4.1632 c -1.0584,-4.7106 -4.73028,-11.7541 -6.12757,-11.7541 -2.76727,0 -14.0362,7.3766 -20.91035,13.6878 -5.54299,5.089 -8.93854,7.436 -11.43611,7.9046 -6.39488,1.1996 -15.35938,-2.9696 -15.35938,-7.1434 0,-0.8536 1.68617,-2.2391 3.75,-3.0811 2.0625,-0.8416 13.50378,-6.2787 25.42506,-12.0824 l 21.67507,-10.5523 1.73434,-6.4072 c 1.03761,-3.8332 1.36901,-6.7628 0.82494,-7.2924 -0.50018,-0.4869 -5.4595,-1.002 -11.02073,-1.1447 l -10.11131,-0.2594 -10.38869,9.3254 c -19.41307,17.4261 -37.57432,30.5117 -52.3161,37.695 -9.08861,4.4286 -14.57258,5.5384 -14.57258,2.9491 0,-0.7706 7.3125,-7.2239 16.25,-14.3407 20.28885,-16.1558 35.93454,-30.3301 46.6267,-42.2417 8.15103,-9.0807 8.23809,-9.2335 6.44299,-11.3069 -1.00083,-1.156 -7.13708,-7.751 -13.6361,-14.6557 -12.67292,-13.464 -17.68359,-20.1299 -17.68359,-23.5254 0,-2.3685 1.73936,-4.5286 3.64654,-4.5286 3.05848,0 23.42869,15.0217 31.56803,23.2794 l 8.71457,8.8413 6.56103,-8.8104 c 6.62221,-8.8925 14.52278,-23.1604 14.49452,-26.1761 -0.0416,-4.4435 -1.23162,-4.4209 -15.66728,0.297 -15.32122,5.0073 -19.17001,5.4941 -21.66242,2.7401 -2.9176,-3.2239 -1.99228,-4.7803 4.18,-7.0309 9.54521,-3.4803 17.76812,-9.5689 33.13062,-24.5314 7.99391,-7.7858 16.1774,-14.9329 18.18552,-15.8825 4.5721,-2.162 9.19877,-2.2147 10.93343,-0.1246 1.50176,1.8095 1.83509,11.4554 0.63688,18.4299 -0.77604,4.5172 -0.75826,4.5549 5.5,11.6705 3.45321,3.9263 6.67786,7.0413 7.1659,6.9224 1.88181,-0.4586 10.63502,-16.4924 13.16629,-24.1175 2.06299,-6.2145 2.7773,-10.7121 3.19045,-20.0887 0.49578,-11.2518 0.71796,-12.3089 3.23528,-15.3932 l 2.70295,-3.3118 5.54331,6.8932 c 6.53684,8.1288 9.77921,13.901 9.76177,17.3785 -0.007,1.3831 -2.0192,6.1148 -4.4717,10.5148 -2.4525,4.4 -6.60932,12.0283 -9.23739,16.9517 -2.87176,5.38 -7.04574,11.2803 -10.46111,14.7877 l -5.68281,5.836 8.11756,8.9623 c 4.46466,4.9293 8.45187,8.9623 8.86047,8.9623 1.68919,0 10.8431,-15.3489 12.35151,-20.7105 0.89582,-3.1842 1.83106,-6.384 2.0783,-7.1105 0.33808,-0.9936 1.25627,-0.7644 3.70365,0.9244 7.15692,4.9385 13.5466,10.9814 14.7928,13.99 1.17547,2.8378 1.11677,3.3198 -0.55294,4.5407 -1.02739,0.7512 -3.39116,1.3659 -5.25282,1.3659 -3.29382,0 -7.18305,2.5298 -18.02091,11.7218 l -3.28799,2.7887 21.91378,22.4947 c 12.05258,12.3722 31.89503,31.9448 44.09433,43.4948 19.99231,18.9282 30.06788,30.2807 30.06788,33.8785 0,0.6328 -5.79606,-1.6366 -12.88014,-5.043 -7.08408,-3.4064 -19.34658,-8.7458 -27.25,-11.8653 -7.90342,-3.1195 -17.5185,-7.314 -21.36685,-9.321 -11.97335,-6.2446 -15.87274,-11.143 -37.93828,-47.6588 -20.93228,-34.6403 -35.99967,-58.711 -40.2745,-64.3399 l -2.54373,-3.3494 -3.7977,9.0702 c -7.24832,17.3114 -19.12467,35.3208 -36.26802,54.9969 -8.88735,10.2004 -8.97811,10.3567 -5.60718,9.6589 5.95443,-1.2326 13.23981,-5.0492 18.91425,-9.9087 3.01831,-2.5848 6.54048,-4.9639 7.82704,-5.2868 4.99928,-1.2547 9.71726,4.1433 9.01191,10.3109 -0.26916,2.3535 -1.35908,3.3866 -6.17936,5.8575 -5.71192,2.9279 -8.10636,5.8261 -10.06724,12.1852 -0.62097,2.0138 0.29038,1.7888 11.623,-2.8692 6.76324,-2.7799 12.45082,-5.1922 12.63906,-5.3607 0.18825,-0.1686 1.23197,-5.4025 2.31939,-11.6309 1.56118,-8.942 1.90199,-14.6378 1.62002,-27.0744 -0.34437,-15.1887 -0.28601,-15.75 1.6376,-15.75 3.27207,0 14.23602,12.0061 15.60431,17.0876 2.02133,7.5066 -2.12668,21.0831 -13.21938,43.2673 -2.71025,5.4202 -4.69624,10.0864 -4.41331,10.3693 0.28293,0.283 3.79823,-0.2781 7.81177,-1.2468 7.45021,-1.7981 12.68574,-4.1982 20.95892,-9.6078 4.52288,-2.9574 4.82605,-3.014 10.18924,-1.9006 9.52975,1.9784 13.85043,7.8874 8.38555,11.4681 -2.22364,1.457 -10.52191,3.7722 -18.05971,5.0387 l -3.82334,0.6423 0.70085,12.691 c 0.38547,6.98 0.8817,12.8916 1.10275,13.137 0.73198,0.8124 25.7445,-4.1469 31.25377,-6.1968 5.14091,-1.9129 5.66548,-1.9329 10.52094,-0.4024 6.00962,1.8944 14.36769,6.9666 15.2444,9.2512 0.33866,0.8826 -0.0122,2.0012 -0.78031,2.4875 -0.76765,0.4861 -9.49572,0.941 -19.39572,1.011 -9.9,0.07 -22.275,0.4144 -27.5,0.7653 l -9.5,0.6381 -0.68038,10.2546 c -1.08083,16.2901 -5.33275,27.9767 -12.45346,34.2288 -7.6084,6.6802 -24.70571,13.0529 -34.82626,12.9806 -3.81364,-0.027 -5.76032,-0.6247 -8.00082,-2.4557 z m -30.06545,-18.5083 c 2.52746,0 11.50988,-9.2018 15.92658,-16.3155 4.22332,-6.8023 9.09318,-17.5244 8.31349,-18.3041 -0.49076,-0.4908 -18.62138,5.2224 -24.30604,7.6592 -5.77709,2.4763 -26.45876,17.0687 -25.77026,18.1827 0.28127,0.4551 3.63257,2.3993 7.44733,4.3204 7.18054,3.616 13.43702,5.545 15.74706,4.8551 0.73248,-0.2188 1.92131,-0.3978 2.64184,-0.3978 z m 70.72595,-41.7996 c 1.00022,-1.0002 4.88801,-25.2497 4.22115,-26.3287 -0.29632,-0.4794 -4.76177,-0.8717 -9.92321,-0.8717 -9.24313,0 -9.40964,0.043 -11.05747,2.8322 -1.73853,2.9431 -5.25594,5.6853 -6.14813,4.7931 -0.28233,-0.2824 0.43649,-3.3259 1.59738,-6.7635 2.72982,-8.0835 2.71165,-9.1715 -0.1393,-8.3415 -6.00906,1.7494 -19.51524,6.8654 -21.61529,8.1876 l -2.3653,1.4893 4.51192,4.6514 c 5.17405,5.334 8.38198,11.1937 9.31195,17.0094 0.39225,2.453 1.28702,4.24 2.27649,4.5466 2.35469,0.7295 28.46823,-0.3426 29.32981,-1.2042 z"
         id="path4782"
         inkscape:connector-curvature="0" />
      <path
         style="fill:#485447"
         d="m 522.46757,-1320.3311 c -16.31989,-1.9425 -30.24244,-8.8114 -42.44786,-20.9423 -7.31113,-7.2665 -9.32102,-10.0213 -13.15357,-18.0284 -2.48809,-5.1982 -5.12969,-11.9263 -5.87023,-14.9513 -1.10057,-4.4957 -1.34643,-35.2636 -1.34643,-168.5 l 0,-163 2.34186,-7.5 c 3.90029,-12.491 8.77714,-20.6487 17.64338,-29.5129 9.07346,-9.0713 17.38259,-14.3013 29.01476,-18.2627 l 8,-2.7244 119,-0.2964 c 133.87534,-0.3335 125.26985,-0.7756 142,7.2959 18.04184,8.7044 30.73603,23.4176 36.66843,42.5005 l 2.33157,7.5 0,164.5 0,164.5 -2.33157,7.5 c -7.38215,23.7463 -25.7448,41.1635 -50.88171,48.2619 l -7.78672,2.1989 -113,0.158 c -62.15,0.087 -116.23186,-0.2267 -120.18191,-0.6968 z m 243.18191,-6.2374 c 23.6032,-8.3064 39.825,-25.3946 46.21626,-48.6846 1.67724,-6.1119 1.78374,-16.0825 1.78374,-167 0,-179.1271 0.5351,-165.2662 -6.96819,-180.5 -6.6823,-13.567 -17.14275,-23.6991 -32.03181,-31.0265 -16.03624,-7.892 -9.99423,-7.5787 -140,-7.2576 l -115,0.2841 -7,2.3487 c -12.60788,4.2302 -20.35623,8.9767 -29.60055,18.1328 -6.77641,6.7118 -9.46442,10.2605 -12.67359,16.7316 -7.79281,15.7139 -7.32153,3.2851 -7.00679,184.7869 l 0.28093,162 2.20484,5.7753 c 4.44603,11.6458 8.60558,18.1125 17.25607,26.8273 7.17058,7.224 10.0616,9.3439 18.03909,13.2279 16.30123,7.9364 9.00312,7.5533 140,7.3502 l 116.5,-0.1807 8,-2.8154 z m -54.69042,-99.3399 c -1.47974,-0.9546 -5.49619,-6.0352 -8.92544,-11.2902 -3.42926,-5.255 -9.08107,-12.5155 -12.55958,-16.1346 -3.47851,-3.619 -6.32456,-7.3999 -6.32456,-8.4019 0,-1.6966 0.84288,-1.78 12.25,-1.2128 19.88399,0.9889 30.08016,4.5553 36.66408,12.8244 9.04962,11.3658 8.75964,17.2829 -1.08836,22.2084 -7.25531,3.6287 -16.12373,4.5178 -20.01614,2.0067 z m -103.2705,-3.8364 c -1.62851,-1.3309 -2.75351,-2.5729 -2.5,-2.7601 0.25351,-0.1872 4.27556,-2.7946 8.9379,-5.7943 16.44856,-10.5827 27.76241,-24.4079 31.37788,-38.343 l 1.52794,-5.8892 -6.6914,0.6321 c -3.68027,0.3476 -10.6289,0.6352 -15.4414,0.6391 -7.2359,0.01 -8.75,0.2755 -8.75,1.5581 0,2.181 -7.28223,19.1266 -13.15608,30.6139 -8.78881,17.1881 -15.05295,22.1839 -24.86439,19.8302 -6.02871,-1.4463 -10.56878,-4.65 -23.27074,-16.4213 -9.60889,-8.9048 -9.87367,-9.0675 -14.2191,-8.7364 -3.13919,0.2393 -5.96485,-0.3748 -9.70879,-2.11 -9.25132,-4.2877 -19.67228,-15.2409 -18.18579,-19.1147 0.83144,-2.1667 1.68043,-2.0441 5.96106,0.8609 7.40634,5.026 15.50449,4.6669 33.65155,-1.4926 6.76075,-2.2947 19.26728,-7.3184 27.79228,-11.1638 8.525,-3.8454 17.58549,-7.646 20.13441,-8.4457 l 4.63442,-1.4542 -0.93542,-4.1632 c -1.0584,-4.7106 -4.73028,-11.7541 -6.12757,-11.7541 -2.76727,0 -14.0362,7.3766 -20.91035,13.6878 -5.54299,5.089 -8.93854,7.436 -11.43611,7.9046 -6.39488,1.1996 -15.35938,-2.9696 -15.35938,-7.1434 0,-0.8536 1.68617,-2.2391 3.75,-3.0811 2.0625,-0.8416 13.50378,-6.2787 25.42506,-12.0824 l 21.67507,-10.5523 1.73434,-6.4072 c 1.03761,-3.8332 1.36901,-6.7628 0.82494,-7.2924 -0.50018,-0.4869 -5.4595,-1.002 -11.02073,-1.1447 l -10.11131,-0.2594 -10.38869,9.3254 c -19.41307,17.4261 -37.57432,30.5117 -52.3161,37.695 -9.08861,4.4286 -14.57258,5.5384 -14.57258,2.9491 0,-0.7706 7.3125,-7.2239 16.25,-14.3407 20.28885,-16.1558 35.93454,-30.3301 46.6267,-42.2417 8.15103,-9.0807 8.23809,-9.2335 6.44299,-11.3069 -1.00083,-1.156 -7.13708,-7.751 -13.6361,-14.6557 -12.67292,-13.464 -17.68359,-20.1299 -17.68359,-23.5254 0,-2.3685 1.73936,-4.5286 3.64654,-4.5286 3.05848,0 23.42869,15.0217 31.56803,23.2794 l 8.71457,8.8413 6.56103,-8.8104 c 6.62221,-8.8925 14.52278,-23.1604 14.49452,-26.1761 -0.0416,-4.4435 -1.23162,-4.4209 -15.66728,0.297 -15.32122,5.0073 -19.17001,5.4941 -21.66242,2.7401 -2.9176,-3.2239 -1.99228,-4.7803 4.18,-7.0309 9.54521,-3.4803 17.76812,-9.5689 33.13062,-24.5314 7.99391,-7.7858 16.1774,-14.9329 18.18552,-15.8825 4.5721,-2.162 9.19877,-2.2147 10.93343,-0.1246 1.50176,1.8095 1.83509,11.4554 0.63688,18.4299 -0.77604,4.5172 -0.75826,4.5549 5.5,11.6705 3.45321,3.9263 6.67786,7.0413 7.1659,6.9224 1.88181,-0.4586 10.63502,-16.4924 13.16629,-24.1175 2.06299,-6.2145 2.7773,-10.7121 3.19045,-20.0887 0.49578,-11.2518 0.71796,-12.3089 3.23528,-15.3932 l 2.70295,-3.3118 5.54331,6.8932 c 6.53684,8.1288 9.77921,13.901 9.76177,17.3785 -0.007,1.3831 -2.0192,6.1148 -4.4717,10.5148 -2.4525,4.4 -6.60932,12.0283 -9.23739,16.9517 -2.87176,5.38 -7.04574,11.2803 -10.46111,14.7877 l -5.68281,5.836 8.11756,8.9623 c 4.46466,4.9293 8.45187,8.9623 8.86047,8.9623 1.68919,0 10.8431,-15.3489 12.35151,-20.7105 0.89582,-3.1842 1.83106,-6.384 2.0783,-7.1105 0.33808,-0.9936 1.25627,-0.7644 3.70365,0.9244 7.15692,4.9385 13.5466,10.9814 14.7928,13.99 1.17547,2.8378 1.11677,3.3198 -0.55294,4.5407 -1.02739,0.7512 -3.39116,1.3659 -5.25282,1.3659 -3.29382,0 -7.18305,2.5298 -18.02091,11.7218 l -3.28799,2.7887 21.91378,22.4947 c 12.05258,12.3722 31.89503,31.9448 44.09433,43.4948 19.99231,18.9282 30.06788,30.2807 30.06788,33.8785 0,0.6328 -5.79606,-1.6366 -12.88014,-5.043 -7.08408,-3.4064 -19.34658,-8.7458 -27.25,-11.8653 -7.90342,-3.1195 -17.5185,-7.314 -21.36685,-9.321 -11.97335,-6.2446 -15.87274,-11.143 -37.93828,-47.6588 -20.93228,-34.6403 -35.99967,-58.711 -40.2745,-64.3399 l -2.54373,-3.3494 -3.7977,9.0702 c -7.24832,17.3114 -19.12467,35.3208 -36.26802,54.9969 -8.88735,10.2004 -8.97811,10.3567 -5.60718,9.6589 5.95443,-1.2326 13.23981,-5.0492 18.91425,-9.9087 3.01831,-2.5848 6.54048,-4.9639 7.82704,-5.2868 4.99928,-1.2547 9.71726,4.1433 9.01191,10.3109 -0.26916,2.3535 -1.35908,3.3866 -6.17936,5.8575 -5.71192,2.9279 -8.10636,5.8261 -10.06724,12.1852 -0.62097,2.0138 0.29038,1.7888 11.623,-2.8692 6.76324,-2.7799 12.45082,-5.1922 12.63906,-5.3607 0.18825,-0.1686 1.23197,-5.4025 2.31939,-11.6309 1.56118,-8.942 1.90199,-14.6378 1.62002,-27.0744 -0.34437,-15.1887 -0.28601,-15.75 1.6376,-15.75 3.27207,0 14.23602,12.0061 15.60431,17.0876 2.02133,7.5066 -2.12668,21.0831 -13.21938,43.2673 -2.71025,5.4202 -4.69624,10.0864 -4.41331,10.3693 0.28293,0.283 3.79823,-0.2781 7.81177,-1.2468 7.45021,-1.7981 12.68574,-4.1982 20.95892,-9.6078 4.52288,-2.9574 4.82605,-3.014 10.18924,-1.9006 9.52975,1.9784 13.85043,7.8874 8.38555,11.4681 -2.22364,1.457 -10.52191,3.7722 -18.05971,5.0387 l -3.82334,0.6423 0.70085,12.691 c 0.38547,6.98 0.8817,12.8916 1.10275,13.137 0.73198,0.8124 25.7445,-4.1469 31.25377,-6.1968 5.14091,-1.9129 5.66548,-1.9329 10.52094,-0.4024 6.00962,1.8944 14.36769,6.9666 15.2444,9.2512 0.33866,0.8826 -0.0122,2.0012 -0.78031,2.4875 -0.76765,0.4861 -9.49572,0.941 -19.39572,1.011 -9.9,0.07 -22.275,0.4144 -27.5,0.7653 l -9.5,0.6381 -0.68038,10.2546 c -1.08083,16.2901 -5.33275,27.9767 -12.45346,34.2288 -7.6084,6.6802 -24.70571,13.0529 -34.82626,12.9806 -3.81364,-0.027 -5.76032,-0.6247 -8.00082,-2.4557 z m -30.06545,-18.5083 c 2.52746,0 11.50988,-9.2018 15.92658,-16.3155 4.22332,-6.8023 9.09318,-17.5244 8.31349,-18.3041 -0.49076,-0.4908 -18.62138,5.2224 -24.30604,7.6592 -5.77709,2.4763 -26.45876,17.0687 -25.77026,18.1827 0.28127,0.4551 3.63257,2.3993 7.44733,4.3204 7.18054,3.616 13.43702,5.545 15.74706,4.8551 0.73248,-0.2188 1.92131,-0.3978 2.64184,-0.3978 z m 70.72595,-41.7996 c 1.00022,-1.0002 4.88801,-25.2497 4.22115,-26.3287 -0.29632,-0.4794 -4.76177,-0.8717 -9.92321,-0.8717 -9.24313,0 -9.40964,0.043 -11.05747,2.8322 -1.73853,2.9431 -5.25594,5.6853 -6.14813,4.7931 -0.28233,-0.2824 0.43649,-3.3259 1.59738,-6.7635 2.72982,-8.0835 2.71165,-9.1715 -0.1393,-8.3415 -6.00906,1.7494 -19.51524,6.8654 -21.61529,8.1876 l -2.3653,1.4893 4.51192,4.6514 c 5.17405,5.334 8.38198,11.1937 9.31195,17.0094 0.39225,2.453 1.28702,4.24 2.27649,4.5466 2.35469,0.7295 28.46823,-0.3426 29.32981,-1.2042 z"
         id="path4780"
         inkscape:connector-curvature="0" />
      <path
         style="fill:#003800"
         d="m 522.81,-1320.3849 c -26.39586,-3.3916 -49.37177,-20.9866 -58.58991,-44.8682 -1.59222,-4.125 -3.40673,-11.1 -4.03224,-15.5 -0.82275,-5.7875 -1.0467,-51.8362 -0.80974,-166.5 0.36557,-176.8994 -0.25102,-162.0018 7.34742,-177.5233 6.91035,-14.1159 18.1926,-24.9945 33.77776,-32.5693 15.07135,-7.3251 8.33084,-7.0045 140.64619,-6.6895 l 118.5,0.2821 8,2.8078 c 18.8515,6.6163 33.87197,19.4845 41.96027,35.9479 8.03398,16.3529 7.54186,4.3769 7.52237,183.0597 -0.0195,178.6198 0.49745,166.224 -7.61746,182.6629 -3.83753,7.7739 -6.13746,10.9207 -12.79061,17.5 -4.46146,4.4119 -10.72891,9.5622 -13.92768,11.445 -8.37036,4.9268 -20.44775,8.9177 -30.45887,10.0648 -10.81042,1.2387 -219.80357,1.1295 -229.5275,-0.1199 z m 241.83948,-5.7169 c 24.12527,-8.0946 40.56086,-24.8808 47.16227,-48.1684 1.74929,-6.1709 1.83773,-14.2547 1.83773,-167.9829 0,-153.6762 -0.089,-161.8149 -1.83635,-168 -6.30439,-22.3151 -23.4226,-40.0311 -46.16365,-47.7756 l -8,-2.7244 -118.5,0 c -111.46075,0 -118.88612,0.1079 -125,1.8166 -20.12594,5.6248 -37.00462,19.6207 -45.16786,37.4534 -6.19198,13.5265 -5.88686,3.6073 -5.59685,181.9492 l 0.26471,162.7808 2.67921,7.3346 c 8.49639,23.2597 26.85922,39.2519 51.32079,44.6955 4.8432,1.0777 28.55756,1.3 123,1.1525 l 117,-0.1826 7,-2.3487 z m -53.21391,-100.1184 c -1.87339,-1.1422 -5.99158,-6.1856 -9.87342,-12.0916 -3.66273,-5.5726 -9.30397,-12.9589 -12.53609,-16.4141 -3.23212,-3.4551 -5.87658,-6.7872 -5.87658,-7.4046 0,-1.4165 11.8275,-1.4637 21.5,-0.086 9.47613,1.3499 16.44845,3.4538 20.50299,6.1867 4.72129,3.1824 11.69368,12.0184 12.88329,16.3268 1.79191,6.4898 -1.17092,9.9351 -11.64184,13.5376 -7.04997,2.4255 -10.91335,2.4113 -14.95835,-0.055 z m -103.28239,-3.529 c -1.2897,-1.3728 -2.1506,-2.6903 -1.91311,-2.9278 0.2375,-0.2375 4.02034,-2.7745 8.4063,-5.6376 9.4156,-6.1466 20.26442,-16.3331 24.61396,-23.1112 2.77219,-4.3201 8.4643,-19.5855 7.6184,-20.4314 -0.18301,-0.183 -7.12106,-0.054 -15.41789,0.2865 l -15.08516,0.6193 -1.16535,3.8895 c -2.26099,7.5466 -13.21631,30.3947 -17.85946,37.2474 -6.05934,8.9427 -8.98858,11.0812 -15.05759,10.993 -6.80308,-0.099 -12.8631,-3.819 -25.95936,-15.936 l -11.28731,-10.4432 -4.28086,0.5867 c -3.42204,0.4691 -5.4052,0.036 -9.8851,-2.1574 -9.27435,-4.5411 -20.23864,-16.5742 -17.55103,-19.2618 0.77019,-0.7702 2.21532,-0.3248 5.06532,1.5612 10.29161,6.8107 28.78688,2.5662 68.75454,-15.7784 6.875,-3.1556 13.6904,-6.0188 15.14532,-6.3628 2.5328,-0.5989 2.60603,-0.8004 1.72137,-4.7377 -0.91257,-4.0616 -3.17869,-9.2266 -5.11031,-11.6476 -1.49489,-1.8737 -11.27456,3.7146 -20.38798,11.6499 -11.04297,9.6155 -12.57547,10.4415 -17.89293,9.6441 -4.51974,-0.6778 -10.47547,-4.6418 -10.47547,-6.9724 0,-0.6853 5.7375,-3.8628 12.75,-7.0613 7.0125,-3.1984 18.45122,-8.6577 25.41938,-12.1318 l 12.66937,-6.3166 1.50721,-5.2833 c 2.86771,-10.0522 3.66698,-9.2119 -9.34596,-9.8251 l -11.5,-0.5419 -8.06553,7.6373 c -16.70985,15.8227 -38.49157,31.7239 -54.37676,39.6963 -7.86516,3.9473 -14.05771,5.4352 -14.05771,3.3776 0,-1.2845 6.91783,-7.3019 21.98949,-19.1274 13.47285,-10.571 37.45152,-32.9716 45.19601,-42.2216 2.93001,-3.4995 3.8968,-5.3728 3.24417,-6.2858 -0.51132,-0.7153 -6.70059,-7.4688 -13.75395,-15.0078 -18.84997,-20.1477 -21.66785,-24.8131 -16.61914,-27.5151 1.76501,-0.9446 3.50172,-0.1404 12.25,5.6724 5.60638,3.7252 14.58864,11.0301 19.96057,16.2331 9.26045,8.9694 9.84249,9.3607 11.21959,7.5425 15.84398,-20.919 22.58731,-34.3998 18.47782,-36.9396 -0.56949,-0.352 -7.28861,1.4215 -14.93138,3.941 -15.56214,5.1302 -18.16457,5.4495 -21.03318,2.5809 -2.25535,-2.2553 -2.65156,-5 -0.72179,-5 1.97314,0 15.27244,-6.5948 20.36453,-10.0982 2.50615,-1.7243 10.02427,-8.6545 16.70694,-15.4005 6.68268,-6.7459 14.37592,-13.6684 17.0961,-15.3833 5.43074,-3.4237 10.5396,-4.0455 12.62217,-1.5361 1.48042,1.7838 1.7978,10.1861 0.69572,18.4181 l -0.73633,5.5 6.50033,7 6.50033,7 2.4861,-3 c 1.36736,-1.65 4.53466,-7.05 7.03844,-12 5.1322,-10.1464 7.35586,-20.0298 7.41257,-32.9462 0.0302,-6.879 0.38116,-8.446 2.61298,-11.6665 l 2.5781,-3.7202 3.22141,3.6665 c 8.30197,9.4488 12.6224,16.3927 12.6224,20.2869 0,1.8983 -3.28618,8.1546 -17.53629,33.3862 -1.24459,2.2037 -4.61285,6.3567 -7.48502,9.2289 l -5.22213,5.2221 6.02748,6.7712 c 3.31512,3.7241 7.31088,7.9883 8.87946,9.4761 l 2.85198,2.705 5.14099,-7.705 c 3.18835,-4.7785 5.95755,-10.4667 7.29087,-14.976 l 2.14988,-7.2711 5.74288,4.4191 c 6.03466,4.6435 13.1599,11.9824 13.1599,13.5545 0,2.1147 -3.36739,4.0685 -7.0121,4.0685 -3.22993,0 -5.0909,0.9828 -11.26284,5.9478 -4.06647,3.2713 -7.90491,6.564 -8.52985,7.317 -1.54552,1.8622 23.10168,27.8331 60.84349,64.111 20.53777,19.7412 29.31632,28.8605 31.31241,32.528 1.52554,2.8029 2.58843,5.0962 2.36197,5.0962 -0.22646,0 -6.89204,-3.0857 -14.81241,-6.8571 -7.92037,-3.7714 -20.99646,-9.4145 -29.05798,-12.5403 -25.42842,-9.8596 -30.3332,-14.2924 -47.77121,-43.1741 -22.33583,-36.9938 -38.45138,-63.0495 -44.36906,-71.7363 l -6.00011,-8.8077 -2.6986,6.936 c -7.25569,18.6487 -24.64678,44.7027 -41.32146,61.9048 -2.78578,2.8739 -4.80867,5.4816 -4.4953,5.795 0.71883,0.7188 9.46542,-1.388 12.89836,-3.1069 1.42191,-0.7119 5.02191,-3.2741 8,-5.6938 9.40543,-7.6417 11.88601,-8.1141 15.8886,-3.0256 4.25055,5.4037 2.15462,9.6896 -6.68859,13.6773 -3.28903,1.4832 -4.38435,2.7556 -6.25286,7.2637 -1.24593,3.006 -2.03153,5.6993 -1.7458,5.985 0.28574,0.2857 2.25064,-0.3388 4.36643,-1.3879 2.1158,-1.0491 7.52542,-3.3674 12.02137,-5.1517 4.49595,-1.7844 8.41704,-3.8765 8.71353,-4.6491 2.03435,-5.3014 3.80521,-25.2976 3.42561,-38.6813 -0.39543,-13.9421 -0.31487,-14.75 1.47065,-14.75 2.21548,0 11.94376,9.646 14.41108,14.2892 3.98259,7.4947 1.46045,17.518 -11.10029,44.1142 -3.09193,6.5468 -5.39217,12.1328 -5.11166,12.4133 0.28051,0.2805 4.40453,-0.4514 9.16448,-1.6265 6.59759,-1.6287 10.51288,-3.3566 16.47392,-7.2701 l 7.81946,-5.1337 5.08787,1.2206 c 5.73114,1.3749 10.97089,5.2238 10.97089,8.0588 0,3.2748 -6.73513,6.0568 -20.32334,8.3946 l -3.82334,0.6577 0.70085,12.691 c 0.38547,6.98 0.87436,12.8843 1.08643,13.1207 0.72882,0.8123 24.87119,-3.8188 31.5732,-6.0565 l 6.70706,-2.2395 8.52697,4.2253 c 9.2993,4.608 11.89962,7.3494 8.63062,9.0989 -1.08905,0.5829 -8.25511,1.0438 -16.26271,1.0461 -7.87366,0 -19.98919,0.2934 -26.9234,0.6471 l -12.60766,0.643 -0.618,10.1029 c -0.97947,16.0123 -4.68263,26.6188 -11.76719,33.7034 -6.90897,6.909 -24.82321,13.8995 -35.61952,13.8995 -3.96505,0 -5.39083,-0.4891 -7.27627,-2.4961 z m -25.53662,-21.2874 c 2.18189,-1.5209 6.25006,-6.1293 9.04037,-10.2409 4.94708,-7.2896 11.292,-20.5095 10.31331,-21.4882 -0.65818,-0.6582 -17.99601,4.6268 -24.64609,7.5127 -2.92894,1.2711 -10.2623,5.8098 -16.29635,10.0861 l -10.97102,7.7752 4.79635,2.8193 c 6.89439,4.0525 17.22855,7.4429 20.79635,6.8226 1.65,-0.2868 4.78519,-1.7659 6.96708,-3.2868 z m 60.03292,-38.075 6,-0.6415 1.61178,-8.0659 c 0.88647,-4.4363 1.93135,-10.6238 2.32195,-13.75 l 0.71018,-5.6841 -10.50457,0 c -9.32561,0 -10.57017,0.2067 -11.08914,1.8418 -0.66013,2.0799 -5.29686,6.7449 -6.00258,6.0391 -0.25315,-0.2531 0.62644,-3.9824 1.95465,-8.2873 l 2.41492,-7.827 -2.81854,0.5637 c -5.66483,1.1329 -23.04024,8.0751 -23.55255,9.4102 -0.30119,0.7849 1.57496,3.4758 4.37704,6.2779 4.73029,4.7303 9.07686,13.3238 9.07686,17.9458 0,1.039 0.7875,2.095 1.75,2.3465 2.57175,0.672 16.83132,0.5704 23.75,-0.1692 z"
         id="path4778"
         inkscape:connector-curvature="0" />
      <path
         style="fill:#000000"
         d="m 522.81,-1320.3849 c -26.39586,-3.3916 -49.37177,-20.9866 -58.58991,-44.8682 -1.59222,-4.125 -3.40673,-11.1 -4.03224,-15.5 -0.82275,-5.7875 -1.0467,-51.8362 -0.80974,-166.5 0.36557,-176.8994 -0.25102,-162.0018 7.34742,-177.5233 6.91035,-14.1159 18.1926,-24.9945 33.77776,-32.5693 15.07135,-7.3251 8.33084,-7.0045 140.64619,-6.6895 l 118.5,0.2821 8,2.8078 c 18.8515,6.6163 33.87197,19.4845 41.96027,35.9479 8.03398,16.3529 7.54186,4.3769 7.52237,183.0597 -0.0195,178.6198 0.49745,166.224 -7.61746,182.6629 -3.83753,7.7739 -6.13746,10.9207 -12.79061,17.5 -4.46146,4.4119 -10.72891,9.5622 -13.92768,11.445 -8.37036,4.9268 -20.44775,8.9177 -30.45887,10.0648 -10.81042,1.2387 -219.80357,1.1295 -229.5275,-0.1199 z m 241.83948,-5.7169 c 24.12527,-8.0946 40.56086,-24.8808 47.16227,-48.1684 1.74929,-6.1709 1.83773,-14.2547 1.83773,-167.9829 0,-153.6762 -0.089,-161.8149 -1.83635,-168 -6.30439,-22.3151 -23.4226,-40.0311 -46.16365,-47.7756 l -8,-2.7244 -118.5,0 c -111.46075,0 -118.88612,0.1079 -125,1.8166 -20.12594,5.6248 -37.00462,19.6207 -45.16786,37.4534 -6.19198,13.5265 -5.88686,3.6073 -5.59685,181.9492 l 0.26471,162.7808 2.67921,7.3346 c 8.49639,23.2597 26.85922,39.2519 51.32079,44.6955 4.8432,1.0777 28.55756,1.3 123,1.1525 l 117,-0.1826 7,-2.3487 z"
         id="path4776"
         inkscape:connector-curvature="0" />
    </g>
  </g>
</svg>
