<?xml version="1.0" encoding="UTF-8" standalone="no"?>
<!-- Created with Inkscape (http://www.inkscape.org/) -->

<svg
   xmlns:dc="http://purl.org/dc/elements/1.1/"
   xmlns:cc="http://creativecommons.org/ns#"
   xmlns:rdf="http://www.w3.org/1999/02/22-rdf-syntax-ns#"
   xmlns:svg="http://www.w3.org/2000/svg"
   xmlns="http://www.w3.org/2000/svg"
   xmlns:sodipodi="http://sodipodi.sourceforge.net/DTD/sodipodi-0.dtd"
   xmlns:inkscape="http://www.inkscape.org/namespaces/inkscape"
   width="358.40811"
   height="446.54807"
   id="svg2"
   version="1.1"
   inkscape:version="0.48.5 r10040"
   sodipodi:docname="bamb2.svg">
  <defs
     id="defs4" />
  <sodipodi:namedview
     id="base"
     pagecolor="#ffffff"
     bordercolor="#666666"
     borderopacity="1.0"
     inkscape:pageopacity="0.0"
     inkscape:pageshadow="2"
     inkscape:zoom="0.56054688"
     inkscape:cx="-228.87278"
     inkscape:cy="142.44349"
     inkscape:document-units="px"
     inkscape:current-layer="layer1"
     showgrid="false"
     fit-margin-top="0"
     fit-margin-left="0"
     fit-margin-right="0"
     fit-margin-bottom="0"
     inkscape:window-width="958"
     inkscape:window-height="1078"
     inkscape:window-x="1920"
     inkscape:window-y="0"
     inkscape:window-maximized="0" />
  <metadata
     id="metadata7">
    <rdf:RDF>
      <cc:Work
         rdf:about="">
        <dc:format>image/svg+xml</dc:format>
        <dc:type
           rdf:resource="http://purl.org/dc/dcmitype/StillImage" />
        <dc:title></dc:title>
      </cc:Work>
    </rdf:RDF>
  </metadata>
  <g
     inkscape:label="Layer 1"
     inkscape:groupmode="layer"
     id="layer1"
     transform="translate(-1460.5421,608.02776)">
    <g
       id="g4179"
       transform="translate(877.71429,422.80139)">
      <path
         style="fill:#c2c6c1"
         d="m 646.45588,-584.94561 c -27.75582,-3.30468 -51.05163,-21.99938 -60.40831,-48.47719 l -2.82363,-7.9904 -0.2675,-163.23004 c -0.29834,-182.04774 -0.70198,-170.86728 6.70665,-185.76996 7.73184,-15.5528 17.56729,-25.2175 33.56085,-32.9783 16.50202,-8.0074 9.08578,-7.6259 142,-7.3058 l 118,0.2841 8.76121,3.1347 c 12.44062,4.4512 19.0124,8.6467 28.83914,18.411 6.89383,6.8501 9.42271,10.22329 12.74489,17.00004 8.30708,16.94521 7.65476,1.22649 7.65476,184.45426 0,155.21272 -0.0879,163.31054 -1.83878,169.5 -7.11242,25.14216 -26.30177,43.87926 -52.54344,51.30514 -7.58155,2.14543 -8.15514,2.15642 -120.61778,2.31197 -62.15,0.086 -116.04563,-0.20632 -119.76806,-0.64952 z m 242.76806,-7.27536 c 21.49815,-7.54522 36.61072,-22.18046 44.29325,-42.89424 l 2.70675,-7.29799 0.28093,-162 c 0.31474,-181.50179 0.78602,-169.07295 -7.00679,-184.78688 -3.20917,-6.47115 -5.89718,-10.01985 -12.67359,-16.73162 -9.51744,-9.4266 -17.62102,-14.3076 -30.11688,-18.1404 l -7.48367,-2.2954 -112.8686,-0.3056 c -123.23192,-0.3337 -123.35294,-0.3289 -136.88057,5.3648 -19.44392,8.1838 -34.29686,24.69724 -40.38073,44.8951 -1.70369,5.65607 -1.82584,14.99951 -2.13092,163 -0.22627,109.76431 0.006,159.51756 0.7715,165.36774 2.95746,22.59731 16.79114,41.68097 37.44509,51.65577 15.99377,7.72417 8.88824,7.35973 139.54423,7.15714 l 116.5,-0.18065 8,-2.80777 z m -239.13496,-50.61131 c -2.01859,-1.23087 -3.75598,-3.53772 -4.87889,-6.478 -2.3107,-6.05049 -1.20537,-8.63502 7.10628,-16.61628 l 6.40757,-6.15287 -0.0539,-13.16688 -0.0539,-13.16689 -5.9618,-4.25168 c -7.20281,-5.13671 -9.92159,-9.25547 -9.92663,-15.03816 -0.005,-5.61836 2.63098,-10.58442 9.43959,-17.78442 l 5.55667,-5.87609 0,-11.25684 0,-11.25683 -5.56702,-5.26799 c -10.07245,-9.5314 -11.54271,-13.99479 -6.24125,-18.94709 14.84856,-13.87064 47.78056,-14.32027 63.10908,-0.86165 6.2679,5.50329 4.99018,10.14804 -5.55081,20.17813 l -4.75,4.51979 0,11.831 0,11.831 5.37489,5.63501 c 13.02961,13.66019 12.79138,22.69577 -0.85727,32.51559 l -5.51762,3.96976 0,13.17679 0,13.17678 7.12514,7.12515 7.12515,7.12514 -0.49641,5.16628 c -0.41721,4.34195 -1.07308,5.69475 -4.11046,8.4783 -2.98502,2.73557 -4.40677,3.31203 -8.16857,3.31203 -4.35079,0 -11.60975,-2.79123 -12.96602,-4.98571 -0.34477,-0.55786 -3.94875,-1.01429 -8.00883,-1.01429 -4.06008,0 -7.66406,0.45643 -8.00883,1.01429 -1.31747,2.13171 -8.59323,4.98555 -12.70133,4.98197 -2.45778,-0.002 -5.62869,-0.82013 -7.4248,-1.91534 z m 36.63496,-34.53392 0,-23.45299 -3.75,-1.04143 c -2.0625,-0.57278 -4.425,-1.04143 -5.25,-1.04143 -0.825,0 -3.1875,0.46865 -5.25,1.04143 l -3.75,1.04143 0,23.45299 0,23.453 9,0 9,0 0,-23.453 z m 3.5,-35.05115 c 0,-7.21148 -24.27406,-7.08473 -25.30356,0.13213 -0.29692,2.0814 -0.0234,2.12508 12.5,1.99584 12.08388,-0.1247 12.80356,-0.24431 12.80356,-2.12797 z m 0.30048,-10.69835 c 0.457,-2.37302 -4.37182,-5.61067 -9.51936,-6.38259 -5.22217,-0.78312 -15.03215,1.7727 -15.94612,4.15448 -1.35807,3.53906 0.14887,3.99794 12.79911,3.89752 10.39321,-0.0825 12.412,-0.34858 12.66637,-1.66941 z m -3.80048,-29.52333 c 0,-15.45498 0.20522,-17.56242 1.99626,-20.5 2.17227,-3.56284 2.60244,-8.78697 0.9741,-11.82956 -3.93883,-7.35976 -21.04089,-6.14971 -24.0253,1.69989 -1.00875,2.65321 0.2037,8.67465 2.17574,10.8055 0.48356,0.5225 0.8792,9.0725 0.8792,19 l 0,18.05 9,0 9,0 0,-17.22583 z m 129.58141,108.24058 c -3.60891,-3.60892 -5.29114,-8.70321 -4.1065,-12.43569 0.36568,-1.15216 3.78009,-5.12878 7.58757,-8.83694 l 6.9227,-6.74212 0.006,-13 0.006,-13 -4.42024,-2.7925 c -6.23523,-3.93912 -11.17316,-9.74571 -11.98985,-14.09904 -0.9647,-5.14229 2.58744,-12.52192 9.75261,-20.26115 l 5.6603,-6.11462 0,-10.79064 0,-10.79063 -6.9382,-7.1554 c -10.45992,-10.78736 -10.46566,-15.00852 -0.0289,-21.28263 8.58322,-5.15987 14.93149,-6.71125 27.46714,-6.71239 13.05066,-10e-4 21.06427,2.28879 29,8.28706 4.23403,3.20031 5.04793,4.35499 5.31285,7.53737 0.28839,3.46416 -0.23953,4.32776 -6.75,11.04204 l -7.06289,7.28395 0,11.83388 0,11.83387 5.5295,5.79711 c 8.53666,8.9498 11.23452,16.57181 8.04728,22.73525 -1.55129,2.99985 -9.00482,10.23681 -12.43249,12.07125 -2.02932,1.08606 -2.14429,1.86918 -2.14429,14.60597 l 0,13.45839 7,6.87615 c 6.15283,6.04397 7,7.32151 7,10.55609 0,12.00051 -11.01903,17.14699 -22.65399,10.58062 -4.38483,-2.47464 -6.4463,-3 -11.77184,-3 -3.55088,0 -6.73823,0.45643 -7.083,1.01429 -1.43025,2.31419 -8.62009,4.98571 -13.418,4.98571 -4.38435,0 -5.43961,-0.43311 -8.49176,-3.48525 z m 38.18689,-33.21269 0.26831,-23.19794 -3.76831,-1.04649 c -4.69248,-1.30313 -5.84216,-1.30368 -10.5183,-0.005 l -3.75,1.04143 0,23.49193 0,23.49193 8.75,-0.28894 8.75,-0.28893 0.2683,-23.19794 z m 3.6317,-34.05594 c -0.055,-0.68536 -0.1675,-1.64485 -0.25,-2.13218 -0.0825,-0.48733 -1.68051,-1.61233 -3.55113,-2.5 -7.21412,-3.42332 -21.59887,-0.86834 -21.59887,3.83634 0,2.19906 0.19447,2.23166 12.75,2.13754 9.51905,-0.0713 12.72466,-0.41135 12.65,-1.3417 z m 0.1,-11.6942 c 0,-1.00984 -1.2705,-2.78464 -2.82333,-3.944 -5.68929,-4.24767 -22.67667,-1.81223 -22.67667,3.25109 0,0.99421 0.18746,1.99516 0.41657,2.22432 0.22911,0.22917 5.96661,0.39147 12.75,0.36067 11.27939,-0.0512 12.33343,-0.21292 12.33343,-1.89208 z m -3.5,-29.09048 c 0,-15.06426 0.23174,-17.49311 2,-20.96144 4.82915,-9.4721 0.23488,-16.5 -10.78638,-16.5 -5.79948,0 -11.16891,3.08808 -12.63932,7.26915 -0.73491,2.08972 -0.45278,3.91197 1.2368,7.98839 1.95859,4.72545 2.1889,7.06777 2.1889,22.26179 l 0,16.98067 9,0 9,0 0,-17.03856 z m -118.98007,-65.21299 c -4.36319,-2.19215 -8.01993,-7.55366 -8.01993,-11.75883 0,-3.56895 2.97613,-7.81238 9.75,-13.90179 l 4.25,-3.82055 0,-13.84846 c 0,-13.13561 -0.11038,-13.90752 -2.14429,-14.99604 -3.51357,-1.8804 -10.89762,-9.10314 -12.52628,-12.25262 -2.37062,-4.58428 -0.97752,-10.56978 4.04941,-17.39838 2.34651,-3.18751 5.69621,-6.99859 7.44377,-8.46906 l 3.17739,-2.6736 0,-11.12788 0,-11.12788 -7.5,-7.87336 c -6.38765,-6.70563 -7.5,-8.38939 -7.5,-11.35265 0,-5.68397 8.22479,-11.25212 21.71824,-14.70317 9.61819,-2.45991 16.94533,-2.45991 26.56352,0 8.58802,2.19645 12.55818,4.02526 17.96824,8.27686 3.05012,2.397 3.75,3.59638 3.75,6.42631 0,2.96326 -1.11235,4.64702 -7.5,11.35265 l -7.5,7.87336 0,11.12788 0,11.12788 3.17739,2.6736 c 1.74756,1.47047 5.09726,5.28155 7.44377,8.46906 5.02693,6.8286 6.42003,12.8141 4.04941,17.39838 -1.62866,3.14948 -9.01271,10.37222 -12.52628,12.25262 -2.03391,1.08852 -2.14429,1.86043 -2.14429,14.99604 l 0,13.84846 4.25,3.82055 c 10.04487,9.02989 11.84821,13.97558 7.48007,20.51429 -4.93244,7.3834 -12.04748,8.34436 -21.04652,2.84255 -6.42448,-3.92779 -15.14934,-4.18202 -20.00027,-0.58277 -3.28923,2.44051 -8.78192,4.63926 -11.5825,4.63655 -0.88043,-8.6e-4 -3.16681,-0.78836 -5.08085,-1.75 z m 33.98007,-35.64146 c 0,-26.46816 0.65406,-24.60699 -8.64753,-24.60699 -9.39238,0 -8.89273,-1.45234 -8.56661,24.9003 l 0.28586,23.0997 8.46414,0 8.46414,0 0,-23.39301 z m -11,-33.11323 c 1.925,-0.31606 5.75,-0.13636 8.5,0.39932 3.92431,0.76442 5.30422,0.67635 6.4141,-0.40937 1.21879,-1.19228 1.21879,-1.61882 0,-3.08843 -3.60569,-4.34767 -13.64587,-5.68677 -20.89386,-2.7867 -3.00693,1.20313 -4.02024,2.16933 -4.02024,3.83333 0,2.9944 0.92095,3.72324 3.9518,3.12742 1.40151,-0.27551 4.1232,-0.75952 6.0482,-1.07557 z m 15.5,-12.97572 c 0,-1.122 -1.43881,-2.74625 -3.49808,-3.94892 -6.86227,-4.00779 -22.00192,-1.47095 -22.00192,3.6867 l 0,2.35788 12.75,-0.0949 c 11.84042,-0.0881 12.75,-0.23082 12.75,-2.0008 z m -3.5,-29.05307 c 0,-15.06779 0.2317,-17.49654 2,-20.96497 2.75194,-5.39776 2.53611,-8.86843 -0.78244,-12.58254 -6.61266,-7.40085 -23.21756,-3.28335 -23.21756,5.75724 0,1.32274 0.9,4.16912 2,6.3253 1.77163,3.47269 2.00007,5.89455 2.00065,21.21016 l 6.4e-4,17.28984 8.99936,0.004 8.99935,0.004 0,-17.04208 z"
         id="path4193"
         inkscape:connector-curvature="0" />
      <path
         style="fill:#bebebe"
         d="m 646.45588,-584.94561 c -27.75582,-3.30468 -51.05163,-21.99938 -60.40831,-48.47719 l -2.82363,-7.9904 -0.2675,-163.23004 c -0.29834,-182.04774 -0.70198,-170.86728 6.70665,-185.76996 7.73184,-15.5528 17.56729,-25.2175 33.56085,-32.9783 16.50202,-8.0074 9.08578,-7.6259 142,-7.3058 l 118,0.2841 8.76121,3.1347 c 12.44062,4.4512 19.0124,8.6467 28.83914,18.411 6.89383,6.8501 9.42271,10.22329 12.74489,17.00004 8.30708,16.94521 7.65476,1.22649 7.65476,184.45426 0,155.21272 -0.0879,163.31054 -1.83878,169.5 -7.11242,25.14216 -26.30177,43.87926 -52.54344,51.30514 -7.58155,2.14543 -8.15514,2.15642 -120.61778,2.31197 -62.15,0.086 -116.04563,-0.20632 -119.76806,-0.64952 z m 242.76806,-7.27536 c 21.49815,-7.54522 36.61072,-22.18046 44.29325,-42.89424 l 2.70675,-7.29799 0.28093,-162 c 0.31474,-181.50179 0.78602,-169.07295 -7.00679,-184.78688 -3.20917,-6.47115 -5.89718,-10.01985 -12.67359,-16.73162 -9.51744,-9.4266 -17.62102,-14.3076 -30.11688,-18.1404 l -7.48367,-2.2954 -112.8686,-0.3056 c -123.23192,-0.3337 -123.35294,-0.3289 -136.88057,5.3648 -19.44392,8.1838 -34.29686,24.69724 -40.38073,44.8951 -1.70369,5.65607 -1.82584,14.99951 -2.13092,163 -0.22627,109.76431 0.006,159.51756 0.7715,165.36774 2.95746,22.59731 16.79114,41.68097 37.44509,51.65577 15.99377,7.72417 8.88824,7.35973 139.54423,7.15714 l 116.5,-0.18065 8,-2.80777 z m -239.95126,-51.78358 c -2.14662,-1.88476 -3.94229,-4.65648 -4.60062,-7.10133 -0.97054,-3.60431 -0.82551,-4.39421 1.43366,-7.80804 1.38239,-2.08893 4.78679,-5.75583 7.56534,-8.14867 l 5.0519,-4.35061 4.9e-4,-13.66844 4.9e-4,-13.66844 -3.35648,-2.07442 c -1.84606,-1.14093 -5.44606,-4.30835 -8,-7.03872 -3.97818,-4.253 -4.64352,-5.55774 -4.64352,-9.10601 0,-5.68499 2.37442,-10.20206 9.19601,-17.49435 l 5.80399,-6.20448 0,-11.67475 0,-11.67474 -6.95625,-7.34943 c -3.82594,-4.04218 -7.27189,-8.60702 -7.65767,-10.14408 -0.61138,-2.43596 -0.13567,-3.30127 3.70625,-6.74154 15.63124,-13.99707 46.208,-14.05899 62.76511,-0.1271 2.39143,2.01225 3.14256,3.45888 3.14256,6.05238 0,2.85105 -1.14413,4.61256 -7,10.77727 l -7,7.36918 0,11.72655 0,11.72655 5.48557,6.06175 c 8.78477,9.70749 11.24313,16.5524 8.09975,22.55248 -1.57267,3.0019 -6.38342,7.71693 -11.33532,11.10976 l -3.25,2.22677 0,13.88213 0,13.88214 4.52555,3.78289 c 5.87643,4.91208 9.47539,10.18297 9.47071,13.8704 -0.005,3.61526 -3.02592,8.76435 -6.46478,11.01758 -3.63596,2.38238 -11.33785,1.48435 -16.48546,-1.92218 -3.297,-2.18185 -5.14737,-2.64915 -10.48985,-2.64915 -5.48957,0 -7.21389,0.46116 -11.21722,3 -6.66782,4.2286 -12.90654,4.19657 -17.79021,-0.0913 z m 37.21936,-33.64955 -0.2681,-23.74089 -4.59593,-0.83914 c -2.92092,-0.53331 -6.1099,-0.43146 -8.75,0.27944 l -4.15407,1.11858 0,23.46145 0,23.46146 9.0181,0 9.0181,0 -0.2681,-23.7409 z m 4.2319,-34.42897 c 0,-3.20398 -5.74393,-5.8222 -12.78212,-5.82639 -8.12537,-0.005 -13.21788,2.03329 -13.21788,5.29006 l 0,2.39586 13,0 c 12.00598,0 13,-0.14219 13,-1.85953 z m -6e-5,-11.63636 c 9e-5,-3.5055 -7.66391,-6.61147 -14.55809,-5.89992 -6.91689,0.71388 -11.44185,3.09274 -11.44185,6.01521 0,2.22952 0.1622,2.25728 12.99994,2.22432 12.899,-0.0331 12.99994,-0.0513 13,-2.33961 z m -3.99994,-28.44739 c 0,-14.84311 0.22807,-17.17916 2,-20.4852 3.01909,-5.63297 2.65198,-10.76305 -1.034,-14.44903 -2.90941,-2.9094 -3.32489,-3.01756 -10.11715,-2.63377 -6.48628,0.36651 -7.32608,0.67212 -9.966,3.6267 -3.38285,3.78607 -3.55008,6.12768 -0.86089,12.05412 1.72424,3.79989 1.97804,6.55851 1.97804,21.5 l 0,17.1408 9,0 9,0 0,-16.75362 z m 130.59585,108.20364 c -4.47607,-3.93005 -6.24623,-8.96566 -4.57228,-13.00692 0.66962,-1.61661 4.08825,-5.62475 7.59696,-8.90697 l 6.37947,-5.96768 -10e-6,-13.28423 -2e-5,-13.28422 -6.40691,-4.74201 c -13.34045,-9.87379 -13.24776,-18.95276 0.32894,-32.2204 l 5.078,-4.96241 0,-11.98663 0,-11.98663 -5.21021,-4.8916 c -6.62854,-6.2232 -9.78979,-10.51415 -9.78979,-13.28824 0,-2.73472 6.76611,-8.98873 12.44019,-11.49865 18.18357,-8.04346 39.52995,-5.94346 53.80981,5.29367 6.08724,4.79018 4.92076,9.45202 -4.66331,18.63689 l -5.58669,5.35398 0,11.98569 0,11.98569 5.51373,6.16032 c 12.63172,14.11306 12.52145,21.1991 -0.48708,31.30114 l -6.02665,4.68012 0,13.51382 0,13.51383 7,7.21913 c 7.63086,7.86974 8.30455,9.88089 5.37671,16.05085 -3.74765,7.89759 -12.31424,9.70946 -20.71566,4.38144 -4.14939,-2.63147 -5.63253,-3 -12.07333,-3 -5.61289,0 -7.66617,0.38989 -8.71528,1.6549 -2.00814,2.42143 -7.23469,4.3451 -11.80553,4.3451 -3.03006,0 -4.83788,-0.73802 -7.47106,-3.04998 z m 36.90415,-33.91839 0,-23.46838 -4.25,-0.84047 c -2.3375,-0.46226 -6.1625,-0.4625 -8.5,-5.2e-4 l -4.25,0.83995 -0.26819,23.7581 -0.26819,23.75809 8.76819,-0.2892 8.76819,-0.2892 0,-23.46837 z m 4.5,-34.2015 c 0,-3.20398 -5.74393,-5.8222 -12.78212,-5.82639 -8.12537,-0.005 -13.21788,2.03329 -13.21788,5.29006 l 0,2.39586 13,0 c 12.00598,0 13,-0.14219 13,-1.85953 z m -6e-5,-11.63636 c 9e-5,-3.52345 -7.66292,-6.61157 -14.62358,-5.89317 -7.17169,0.74019 -10.80535,2.60723 -11.1719,5.74034 l -0.29553,2.52616 13.04547,-0.0335 c 12.94651,-0.0333 13.04548,-0.051 13.04554,-2.33978 z m -3.99994,-28.48361 c 0,-14.81639 0.23508,-17.25062 2,-20.71016 2.946,-5.77464 2.6349,-10.51895 -0.92308,-14.07692 -2.54409,-2.5441 -3.65896,-2.92308 -8.59887,-2.92308 -7.12363,0 -11.9005,2.19147 -13.57177,6.22627 -1.10047,2.65677 -1.01567,3.72484 0.60976,7.67984 1.55392,3.78099 1.94797,7.77902 2.22688,22.59389 l 0.33888,18 8.9591,0 8.9591,0 0,-16.78984 z m -118.78182,-65.37324 c -6.41786,-3.16324 -9.63749,-10.69161 -6.86518,-16.05266 0.85119,-1.646 4.04497,-5.27518 7.0973,-8.06485 l 5.5497,-5.07211 0,-13.97984 0,-13.97985 -4.88461,-3.50924 c -13.80454,-9.91758 -14.11424,-18.5629 -1.14866,-32.06521 l 6.03327,-6.28302 0,-11.55421 0,-11.5542 -6.08669,-5.86086 c -9.77143,-9.40889 -10.91016,-13.04736 -5.66331,-18.09537 6.59141,-6.34163 20.42154,-11.23594 31.75,-11.23594 11.32846,0 25.15859,4.89431 31.75,11.23594 5.233,5.03469 4.13056,8.57144 -5.67414,18.2032 l -6.07586,5.96869 0,11.44638 0,11.44637 6.03327,6.28302 c 12.96558,13.50231 12.65588,22.14763 -1.14866,32.06521 l -4.88461,3.50924 0,13.97985 0,13.97984 5.5497,5.07211 c 6.6829,6.1078 8.86886,9.9378 8.0393,14.08558 -0.93306,4.6653 -5.15733,9.4854 -9.43648,10.76746 -3.28171,0.98322 -4.49101,0.83753 -8.94223,-1.07733 -2.83103,-1.21788 -5.66659,-2.84 -6.30125,-3.60472 -0.78931,-0.95107 -3.42368,-1.3904 -8.33721,-1.3904 -6.09997,0 -7.69646,0.37862 -10.58621,2.51061 -3.05968,2.25736 -8.85006,4.50636 -11.48562,4.46104 -0.55,-0.009 -2.47682,-0.74508 -4.28182,-1.63473 z m 33.54992,-36.08692 -0.2681,-23.75 -8.16875,0 c -4.49281,0 -8.31781,0.225 -8.5,0.5 -0.18219,0.275 -0.20261,10.9625 -0.0454,23.75 l 0.28586,23.25 8.48224,0 8.48224,0 -0.2681,-23.75 z m -7.7681,-32.71505 c 1.925,-0.008 5.075,0.31128 7,0.70895 4.30461,0.88926 6.44346,-0.27133 5.57025,-3.02256 -1.4623,-4.6073 -13.47384,-6.72711 -21.57025,-3.80674 -3.49425,1.26038 -4.69106,3.34215 -3.58237,6.23134 0.47095,1.22727 1.42527,1.36863 4.83457,0.7161 2.33629,-0.44715 5.8228,-0.81934 7.7478,-0.82709 z m 13,-12.56962 c 0,-2.42429 -2.90793,-4.62159 -7.86262,-5.94117 -7.75845,-2.06631 -18.13738,0.97335 -18.13738,5.31186 0,2.2624 0.12674,2.28467 13,2.28467 11.43114,0 13,-0.19977 13,-1.65536 z m -4,-29.25517 c 0,-14.81639 0.23508,-17.25062 2,-20.71016 4.88755,-9.58038 0.29038,-17 -10.53313,-17 -11.35885,0 -16.27357,7.07193 -11.46687,16.5 1.76826,3.46833 2,5.89718 2,20.96144 l 0,17.03856 9,0 9,0 0,-16.78984 z"
         id="path4191"
         inkscape:connector-curvature="0" />
      <path
         style="fill:#868f85"
         d="m 646.38446,-585.02497 c -19.09772,-2.50981 -38.07667,-13.35529 -49.15078,-28.08712 -5.66269,-7.53305 -8.60354,-13.16329 -11.69365,-22.38745 l -2.31609,-6.91366 0,-165 0,-165 2.90221,-8.85486 c 3.65375,-11.14785 10.18785,-21.20874 19.25318,-29.64514 8.59747,-8.001 15.69838,-12.2917 27.08339,-16.3653 l 8.76122,-3.1347 117.5,-0.2842 c 131.32284,-0.3176 124.805,-0.63 140.5,6.7355 20.18262,9.4716 34.30139,26.00258 40.18337,47.0487 1.72139,6.15921 1.81663,15.01974 1.81663,169 0,182.64501 0.64042,167.23811 -7.63926,183.78166 -9.01282,18.00845 -26.35101,31.70265 -47.86074,37.80179 -6.1239,1.73645 -13.03838,1.85352 -119.5,2.02336 -62.32169,0.0994 -116.06738,-0.22285 -119.83948,-0.71858 z m 236.13164,-5.44846 c 4.4089,-0.89246 11.74493,-3.50798 17.14035,-6.11108 17.74188,-8.55983 31.34863,-25.62164 35.52198,-44.54181 1.44654,-6.55801 1.57921,-23.54105 1.32641,-169.78688 l -0.2809,-162.5 -2.67921,-7.3346 c -6.93506,-18.98539 -20.46889,-33.1186 -38.90451,-40.6275 -13.86114,-5.6457 -13.47165,-5.6306 -137.04691,-5.2978 l -113.36937,0.3053 -7.48367,2.2956 c -12.61932,3.8708 -20.60609,8.6914 -30.03909,18.1306 -6.36919,6.37341 -9.46362,10.42354 -12.24621,16.0284 -7.80687,15.72511 -7.23103,1.23158 -7.23103,182 0,175.52896 -0.31037,165.64194 5.61436,178.84633 8.9461,19.93805 26.30538,33.81302 48.38564,38.67382 4.76444,1.04885 29.43285,1.33722 119.79216,1.40035 99.35554,0.0694 114.77004,-0.11844 121.5,-1.48073 z m -233.24342,-53.53112 c -2.14662,-1.88476 -3.94229,-4.65648 -4.60062,-7.10133 -0.97054,-3.60431 -0.82551,-4.39421 1.43366,-7.80804 1.38239,-2.08893 4.78679,-5.75583 7.56534,-8.14867 l 5.0519,-4.35061 4.9e-4,-13.66844 4.9e-4,-13.66844 -3.35648,-2.07442 c -1.84606,-1.14093 -5.44606,-4.30835 -8,-7.03872 -3.97818,-4.253 -4.64352,-5.55774 -4.64352,-9.10601 0,-5.68499 2.37442,-10.20206 9.19601,-17.49435 l 5.80399,-6.20448 0,-11.67475 0,-11.67474 -6.95625,-7.34943 c -3.82594,-4.04218 -7.27189,-8.60702 -7.65767,-10.14408 -0.61138,-2.43596 -0.13567,-3.30127 3.70625,-6.74154 15.63124,-13.99707 46.208,-14.05899 62.76511,-0.1271 2.39143,2.01225 3.14256,3.45888 3.14256,6.05238 0,2.85105 -1.14413,4.61256 -7,10.77727 l -7,7.36918 0,11.72655 0,11.72655 5.48557,6.06175 c 8.78477,9.70749 11.24313,16.5524 8.09975,22.55248 -1.57267,3.0019 -6.38342,7.71693 -11.33532,11.10976 l -3.25,2.22677 0,13.88213 0,13.88214 4.52555,3.78289 c 5.87643,4.91208 9.47539,10.18297 9.47071,13.8704 -0.005,3.61526 -3.02592,8.76435 -6.46478,11.01758 -3.63596,2.38238 -11.33785,1.48435 -16.48546,-1.92218 -3.297,-2.18185 -5.14737,-2.64915 -10.48985,-2.64915 -5.48957,0 -7.21389,0.46116 -11.21722,3 -6.66782,4.2286 -12.90654,4.19657 -17.79021,-0.0913 z m 37.21936,-33.64955 -0.2681,-23.74089 -4.59593,-0.83914 c -2.92092,-0.53331 -6.1099,-0.43146 -8.75,0.27944 l -4.15407,1.11858 0,23.46145 0,23.46146 9.0181,0 9.0181,0 -0.2681,-23.7409 z m 4.2319,-34.42897 c 0,-3.20398 -5.74393,-5.8222 -12.78212,-5.82639 -8.12537,-0.005 -13.21788,2.03329 -13.21788,5.29006 l 0,2.39586 13,0 c 12.00598,0 13,-0.14219 13,-1.85953 z m -6e-5,-11.63636 c 9e-5,-3.5055 -7.66391,-6.61147 -14.55809,-5.89992 -6.91689,0.71388 -11.44185,3.09274 -11.44185,6.01521 0,2.22952 0.1622,2.25728 12.99994,2.22432 12.899,-0.0331 12.99994,-0.0513 13,-2.33961 z m -3.99994,-28.44739 c 0,-14.84311 0.22807,-17.17916 2,-20.4852 3.01909,-5.63297 2.65198,-10.76305 -1.034,-14.44903 -2.90941,-2.9094 -3.32489,-3.01756 -10.11715,-2.63377 -6.48628,0.36651 -7.32608,0.67212 -9.966,3.6267 -3.38285,3.78607 -3.55008,6.12768 -0.86089,12.05412 1.72424,3.79989 1.97804,6.55851 1.97804,21.5 l 0,17.1408 9,0 9,0 0,-16.75362 z m 130.59585,108.20364 c -4.47607,-3.93005 -6.24623,-8.96566 -4.57228,-13.00692 0.66962,-1.61661 4.08825,-5.62475 7.59696,-8.90697 l 6.37947,-5.96768 -10e-6,-13.28423 -2e-5,-13.28422 -6.40691,-4.74201 c -13.34045,-9.87379 -13.24776,-18.95276 0.32894,-32.2204 l 5.078,-4.96241 0,-11.98663 0,-11.98663 -5.21021,-4.8916 c -6.62854,-6.2232 -9.78979,-10.51415 -9.78979,-13.28824 0,-2.73472 6.76611,-8.98873 12.44019,-11.49865 18.18357,-8.04346 39.52995,-5.94346 53.80981,5.29367 6.08724,4.79018 4.92076,9.45202 -4.66331,18.63689 l -5.58669,5.35398 0,11.98569 0,11.98569 5.51373,6.16032 c 12.63172,14.11306 12.52145,21.1991 -0.48708,31.30114 l -6.02665,4.68012 0,13.51382 0,13.51383 7,7.21913 c 7.63086,7.86974 8.30455,9.88089 5.37671,16.05085 -3.74765,7.89759 -12.31424,9.70946 -20.71566,4.38144 -4.14939,-2.63147 -5.63253,-3 -12.07333,-3 -5.61289,0 -7.66617,0.38989 -8.71528,1.6549 -2.00814,2.42143 -7.23469,4.3451 -11.80553,4.3451 -3.03006,0 -4.83788,-0.73802 -7.47106,-3.04998 z m 36.90415,-33.91839 0,-23.46838 -4.25,-0.84047 c -2.3375,-0.46226 -6.1625,-0.4625 -8.5,-5.2e-4 l -4.25,0.83995 -0.26819,23.7581 -0.26819,23.75809 8.76819,-0.2892 8.76819,-0.2892 0,-23.46837 z m 4.5,-34.2015 c 0,-3.20398 -5.74393,-5.8222 -12.78212,-5.82639 -8.12537,-0.005 -13.21788,2.03329 -13.21788,5.29006 l 0,2.39586 13,0 c 12.00598,0 13,-0.14219 13,-1.85953 z m -6e-5,-11.63636 c 9e-5,-3.52345 -7.66292,-6.61157 -14.62358,-5.89317 -7.17169,0.74019 -10.80535,2.60723 -11.1719,5.74034 l -0.29553,2.52616 13.04547,-0.0335 c 12.94651,-0.0333 13.04548,-0.051 13.04554,-2.33978 z m -3.99994,-28.48361 c 0,-14.81639 0.23508,-17.25062 2,-20.71016 2.946,-5.77464 2.6349,-10.51895 -0.92308,-14.07692 -2.54409,-2.5441 -3.65896,-2.92308 -8.59887,-2.92308 -7.12363,0 -11.9005,2.19147 -13.57177,6.22627 -1.10047,2.65677 -1.01567,3.72484 0.60976,7.67984 1.55392,3.78099 1.94797,7.77902 2.22688,22.59389 l 0.33888,18 8.9591,0 8.9591,0 0,-16.78984 z m -118.78182,-65.37324 c -6.41786,-3.16324 -9.63749,-10.69161 -6.86518,-16.05266 0.85119,-1.646 4.04497,-5.27518 7.0973,-8.06485 l 5.5497,-5.07211 0,-13.97984 0,-13.97985 -4.88461,-3.50924 c -13.80454,-9.91758 -14.11424,-18.5629 -1.14866,-32.06521 l 6.03327,-6.28302 0,-11.55421 0,-11.5542 -6.08669,-5.86086 c -9.77143,-9.40889 -10.91016,-13.04736 -5.66331,-18.09537 6.59141,-6.34163 20.42154,-11.23594 31.75,-11.23594 11.32846,0 25.15859,4.89431 31.75,11.23594 5.233,5.03469 4.13056,8.57144 -5.67414,18.2032 l -6.07586,5.96869 0,11.44638 0,11.44637 6.03327,6.28302 c 12.96558,13.50231 12.65588,22.14763 -1.14866,32.06521 l -4.88461,3.50924 0,13.97985 0,13.97984 5.5497,5.07211 c 6.6829,6.1078 8.86886,9.9378 8.0393,14.08558 -0.93306,4.6653 -5.15733,9.4854 -9.43648,10.76746 -3.28171,0.98322 -4.49101,0.83753 -8.94223,-1.07733 -2.83103,-1.21788 -5.66659,-2.84 -6.30125,-3.60472 -0.78931,-0.95107 -3.42368,-1.3904 -8.33721,-1.3904 -6.09997,0 -7.69646,0.37862 -10.58621,2.51061 -3.05968,2.25736 -8.85006,4.50636 -11.48562,4.46104 -0.55,-0.009 -2.47682,-0.74508 -4.28182,-1.63473 z m 33.54992,-36.08692 -0.2681,-23.75 -8.16875,0 c -4.49281,0 -8.31781,0.225 -8.5,0.5 -0.18219,0.275 -0.20261,10.9625 -0.0454,23.75 l 0.28586,23.25 8.48224,0 8.48224,0 -0.2681,-23.75 z m -7.7681,-32.71505 c 1.925,-0.008 5.075,0.31128 7,0.70895 4.30461,0.88926 6.44346,-0.27133 5.57025,-3.02256 -1.4623,-4.6073 -13.47384,-6.72711 -21.57025,-3.80674 -3.49425,1.26038 -4.69106,3.34215 -3.58237,6.23134 0.47095,1.22727 1.42527,1.36863 4.83457,0.7161 2.33629,-0.44715 5.8228,-0.81934 7.7478,-0.82709 z m 13,-12.56962 c 0,-2.42429 -2.90793,-4.62159 -7.86262,-5.94117 -7.75845,-2.06631 -18.13738,0.97335 -18.13738,5.31186 0,2.2624 0.12674,2.28467 13,2.28467 11.43114,0 13,-0.19977 13,-1.65536 z m -4,-29.25517 c 0,-14.81639 0.23508,-17.25062 2,-20.71016 4.88755,-9.58038 0.29038,-17 -10.53313,-17 -11.35885,0 -16.27357,7.07193 -11.46687,16.5 1.76826,3.46833 2,5.89718 2,20.96144 l 0,17.03856 9,0 9,0 0,-16.78984 z"
         id="path4189"
         inkscape:connector-curvature="0" />
      <path
         style="fill:#7f7f7f"
         d="m 646.38446,-585.02497 c -19.09772,-2.50981 -38.07667,-13.35529 -49.15078,-28.08712 -5.66269,-7.53305 -8.60354,-13.16329 -11.69365,-22.38745 l -2.31609,-6.91366 0,-165 0,-165 2.90221,-8.85486 c 3.65375,-11.14785 10.18785,-21.20874 19.25318,-29.64514 8.59747,-8.001 15.69838,-12.2917 27.08339,-16.3653 l 8.76122,-3.1347 117.5,-0.2842 c 131.32284,-0.3176 124.805,-0.63 140.5,6.7355 20.18262,9.4716 34.30139,26.00258 40.18337,47.0487 1.72139,6.15921 1.81663,15.01974 1.81663,169 0,182.64501 0.64042,167.23811 -7.63926,183.78166 -9.01282,18.00845 -26.35101,31.70265 -47.86074,37.80179 -6.1239,1.73645 -13.03838,1.85352 -119.5,2.02336 -62.32169,0.0994 -116.06738,-0.22285 -119.83948,-0.71858 z m 236.13164,-5.44846 c 4.4089,-0.89246 11.74493,-3.50798 17.14035,-6.11108 17.74188,-8.55983 31.34863,-25.62164 35.52198,-44.54181 1.44654,-6.55801 1.57921,-23.54105 1.32641,-169.78688 l -0.2809,-162.5 -2.67921,-7.3346 c -6.93506,-18.98539 -20.46889,-33.1186 -38.90451,-40.6275 -13.86114,-5.6457 -13.47165,-5.6306 -137.04691,-5.2978 l -113.36937,0.3053 -7.48367,2.2956 c -12.61932,3.8708 -20.60609,8.6914 -30.03909,18.1306 -6.36919,6.37341 -9.46362,10.42354 -12.24621,16.0284 -7.80687,15.72511 -7.23103,1.23158 -7.23103,182 0,175.52896 -0.31037,165.64194 5.61436,178.84633 8.9461,19.93805 26.30538,33.81302 48.38564,38.67382 4.76444,1.04885 29.43285,1.33722 119.79216,1.40035 99.35554,0.0694 114.77004,-0.11844 121.5,-1.48073 z m -230.76214,-51.66293 c -3.83571,-2.02808 -7.03002,-7.51157 -7.03002,-12.06801 0,-3.63418 0.63286,-4.60849 7,-10.77672 l 7,-6.78132 -0.0197,-13.32539 -0.0197,-13.3254 -5.69208,-4.5 c -6.86093,-5.42407 -10.27603,-10.22281 -10.24647,-14.39788 0.0346,-4.88117 3.44386,-11.19057 9.44854,-17.48584 l 5.5295,-5.79711 0,-11.83387 0,-11.83388 -7,-7.21913 c -5.97188,-6.15882 -7,-7.73579 -7,-10.73682 0,-2.73816 0.7202,-4.1268 3.25,-6.26641 4.69109,-3.96756 12.53892,-7.3096 21.4652,-9.14108 12.79737,-2.62575 28.2571,0.46878 38.89017,7.78452 7.75625,5.33644 7.03968,9.87263 -3.15581,19.97749 l -6.44956,6.39223 0,10.89524 0,10.89523 5.5086,5.94994 c 12.05623,13.02217 13.12141,21.5676 3.72088,29.85094 -2.60122,2.29207 -5.96698,4.80874 -7.47948,5.5926 l -2.75,1.42519 0,13.34696 0,13.34696 4.75,4.34754 c 10.29898,9.42636 11.79524,12.84858 8.58004,19.62411 -3.73568,7.87236 -12.11706,9.20095 -21.44883,3.40001 -3.9883,-2.47927 -6.11212,-3.11694 -10.38121,-3.11694 -4.26909,0 -6.39291,0.63767 -10.38121,3.11694 -5.68438,3.5336 -12.35161,4.63587 -16.08878,2.6599 z m 34.96998,-35.16021 0,-24.38337 -2.25,-0.60297 c -3.56568,-0.95557 -10.16968,-0.72855 -13.60078,0.46754 l -3.14922,1.09782 0,23.34181 0,23.34181 3.75,0.39226 c 2.0625,0.21575 6.3375,0.46791 9.5,0.56037 l 5.75,0.1681 0,-24.38337 z m 3.5,-34.56471 c 0,-1.39388 -1.12875,-3.17881 -2.79861,-4.42554 -5.30759,-3.96269 -20.21062,-2.28043 -22.809,2.57469 -1.944,3.63239 0.15219,4.30249 13.27249,4.24293 12.244,-0.0556 12.33512,-0.0733 12.33512,-2.39208 z m -9.02162,-9.36243 c 9.463,0.19973 11.20752,-0.53936 9.37135,-3.97027 -2.438,-4.55545 -15.20122,-6.28897 -21.84973,-2.96767 -5.8637,2.92925 -5.0352,9.15894 0.99169,7.45684 1.37957,-0.38961 6.54858,-0.62312 11.48669,-0.5189 z m 6.77821,-32.12131 c 0.28335,-15.08581 0.66111,-18.85457 2.28861,-22.83238 1.78023,-4.35109 1.81719,-4.99946 0.42631,-7.47749 -4.6892,-8.3544 -15.83148,-9.55761 -23.22151,-2.5076 -3.34095,3.18723 -3.583,7.22472 -0.75,12.51047 1.77941,3.32 2,5.64209 2,21.05338 l 0,17.3218 9.45861,0 9.45861,0 0.33937,-18.06818 z m 132.24341,111.47779 c -4.05035,-1.67533 -6.76954,-5.79568 -7.27135,-11.01818 l -0.48404,-5.03748 7.1277,-7.00159 7.12769,-7.00158 0,-13.2738 0,-13.27381 -5.51762,-3.96976 c -13.64865,-9.81982 -13.88688,-18.8554 -0.85727,-32.51559 l 5.37489,-5.63501 0,-11.831 0,-11.831 -4.75,-4.51979 c -10.28324,-9.78484 -11.8087,-14.79554 -6,-19.70832 4.69001,-3.96664 12.53749,-7.30909 21.4652,-9.14259 6.39744,-1.31386 9.14099,-1.40308 15.39471,-0.50065 9.61604,1.38764 17.45364,4.12979 23.29949,8.15185 8.01479,5.51431 7.19107,10.30684 -3.52516,20.50987 l -5.88424,5.60245 3e-5,11.725 3e-5,11.72501 3.3838,2.69994 c 1.86109,1.48496 5.23607,5.47374 7.49997,8.86395 4.56991,6.84349 5.40702,12.53921 2.63169,17.90611 -1.49379,2.88866 -8.08552,8.76426 -12.26552,10.93299 -2.16308,1.12228 -2.25,1.68431 -2.25,14.54908 l 0,13.3817 6.40757,6.15287 c 8.31165,7.98126 9.41698,10.56579 7.10628,16.61628 -1.96455,5.14408 -6.23303,8.39318 -11.01385,8.38357 -3.21237,-0.006 -12.80779,-4.05746 -13.93648,-5.88371 -0.38013,-0.61507 -3.47047,-1.10278 -6.98768,-1.10278 -4.81952,0 -6.91348,0.47775 -8.88253,2.02661 -5.52287,4.34428 -12.47727,5.97005 -17.19331,4.01936 z m 34.26904,-35.04546 c 0.24281,-21.20749 0.10225,-23.62146 -1.44113,-24.75 -2.11145,-1.54394 -9.94574,-1.6283 -14.17869,-0.15268 l -3.14922,1.09782 0,23.34181 0,23.34181 3.75,0.41344 c 2.0625,0.22739 6.225,0.36705 9.25,0.31036 l 5.5,-0.10307 0.26904,-23.49949 z m 3.73096,-34.94859 c 0,-1.39875 -1.13283,-3.18186 -2.82333,-4.444 -5.43464,-4.05754 -21.42568,-2.03153 -23.33999,2.9571 -1.24438,3.24279 1.22751,3.93619 13.8282,3.87898 12.244,-0.0556 12.33512,-0.0733 12.33512,-2.39208 z m -8.83975,-9.34686 c 10.36156,0.23196 12.17895,-0.95677 7.9414,-5.19432 -5.54579,-5.54579 -23.26586,-4.01811 -25.33324,2.18403 -0.71389,2.14166 2.7314,4.34765 5.55392,3.55613 1.47272,-0.413 6.79978,-0.65862 11.83792,-0.54584 z m 6.33975,-31.58627 c 0,-15.67445 0.21589,-17.93331 2.0825,-21.78921 2.58913,-5.34843 1.90956,-9.31703 -2.18545,-12.76276 -8.24258,-6.93567 -22.90324,-2.24212 -22.89331,7.3292 0.002,1.98219 0.94506,5.14808 2.09557,7.0353 1.94912,3.19722 2.06826,4.60258 1.74626,20.59863 l -0.34557,17.16731 9.75,-0.0456 9.75,-0.0456 0,-17.48734 z m -121.23743,-65.62674 c -3.58831,-2.02229 -5.76257,-6.38875 -5.76257,-11.57267 0,-3.85363 0.54647,-4.71674 7,-11.05609 l 7,-6.87615 -0.0539,-13.24357 -0.0539,-13.24357 -5.9618,-4.25168 c -7.00677,-4.9969 -9.92147,-9.28299 -9.92663,-14.59719 -0.005,-5.38952 2.46245,-10.00732 9.19227,-17.20151 l 5.80396,-6.20448 0,-11.46234 0,-11.46233 -6.83821,-6.94754 c -7.79518,-7.91982 -9.25517,-11.41345 -6.39367,-15.29955 4.90657,-6.66346 20.23351,-12.3675 33.23188,-12.3675 12.99837,0 28.32531,5.70404 33.23188,12.3675 2.85282,3.87431 1.41765,7.32632 -6.38974,15.36927 l -6.84214,7.04857 0,11.37696 0,11.37696 5.80399,6.20448 c 6.72982,7.19419 9.19751,11.81199 9.19227,17.20151 -0.005,5.3142 -2.91986,9.60029 -9.92663,14.59719 l -5.9618,4.25168 -0.0539,13.24357 -0.0539,13.24357 7,6.87615 c 6.45353,6.33935 7,7.20246 7,11.05609 0,13.00077 -13.03255,17.27958 -24.69331,8.10723 -4.23588,-3.33195 -12.29969,-2.81552 -18.07431,1.15752 -5.5158,3.79497 -13.06226,4.79192 -17.46981,2.30792 z m 36.00631,-34.42317 c 0.14788,-12.88712 -0.11158,-23.81158 -0.57658,-24.27658 -1.54292,-1.54292 -10.80292,-2.07591 -14.55463,-0.83773 l -3.63767,1.20053 0,23.25579 c 0,12.79068 0.31619,23.57197 0.70264,23.95842 0.38646,0.38645 4.54896,0.57395 9.25,0.41667 l 8.54736,-0.28598 0.26888,-23.43112 z m 3.73112,-35.05084 c 0,-3.75985 -5.60278,-6.53355 -13,-6.43573 -8.62351,0.11403 -14.75677,3.70022 -13.21219,7.72532 0.37994,0.99012 3.62323,1.28442 13.35699,1.212 l 12.8552,-0.0956 0,-2.40595 z m -17.54922,-9.1009 c 3.59178,-0.7703 6.4824,-0.77551 10.0144,-0.018 5.88604,1.26233 8.25416,0.60485 7.83769,-2.17606 -0.59968,-4.0043 -5.29678,-6.22305 -13.17421,-6.22305 -9.71729,0 -15.97181,3.97175 -12.61809,8.01273 1.47442,1.77657 1.52904,1.77936 7.94021,0.40441 z m 9.63637,-13.90391 c 3.57184,0.54207 4.71161,0.37178 5.14951,-0.76935 0.3093,-0.80603 0.30278,-8.78719 -0.0145,-17.73592 -0.43626,-12.30454 -0.26707,-16.72591 0.69409,-18.13918 6.43467,-9.46137 1.55465,-18.80263 -9.81777,-18.79306 -6.07128,0.005 -10.91544,2.52974 -12.962,6.75542 -1.44029,2.97386 -1.06112,6.13839 1.25373,10.46373 0.69447,1.29764 1.10978,8.77195 1.10978,19.97272 0,9.84449 0.22818,18.12725 0.50706,18.40614 0.27888,0.27888 2.52888,0.20022 5,-0.1748 2.47112,-0.37502 6.55716,-0.36859 9.08009,0.0143 z"
         id="path4187"
         inkscape:connector-curvature="0" />
      <path
         style="fill:#485246"
         d="m 640.72394,-586.42927 c -27.29937,-5.57804 -48.12388,-24.8397 -55.66122,-51.48393 -1.75093,-6.18946 -1.83878,-14.28728 -1.83878,-169.5 0,-183.26485 -0.65592,-167.49954 7.67612,-184.5 3.34053,-6.81593 5.86562,-10.1913 12.74489,-17.0367 9.72636,-9.6784 19.30686,-15.304 32.63558,-19.1633 l 7.94341,-2.3 117.5,0 c 132.10299,0 122.92421,-0.5004 139.58263,7.6098 14.93464,7.271 26.29646,18.8595 33.42406,34.0908 6.33296,13.53323 6.05485,4.64699 5.76081,184.06936 l -0.2675,163.23004 -2.82363,7.9904 c -8.65703,24.49791 -28.49322,41.67285 -54.28236,46.99974 -6.28609,1.29843 -23.31449,1.4967 -121.60185,1.41589 -90.79542,-0.0746 -115.62846,-0.36701 -120.79216,-1.4221 z m 235.02623,-2.54163 c 16.05381,-2.00383 28.27126,-7.71365 40.05378,-18.71909 11.97599,-11.18615 18.82066,-24.39653 20.90931,-40.35547 0.76565,-5.85018 0.99777,-55.60343 0.7715,-165.36774 -0.30442,-147.6784 -0.43032,-157.35211 -2.12053,-162.93046 -7.52263,-24.82754 -27.60852,-43.52364 -52.64029,-48.99784 -6.75605,-1.4775 -19.05598,-1.612 -124,-1.356 l -116.5,0.2843 -8,2.8159 c -17.31638,6.0953 -32.64059,19.2213 -40.29554,34.51544 -7.76584,15.51567 -7.30007,3.20238 -6.98539,184.66866 l 0.28093,162 2.72281,7.34521 c 9.44936,25.49115 31.61211,43.05255 58.27719,46.1779 10.09934,1.18372 217.98697,1.10989 227.52623,-0.0808 z m -223.99621,-53.16546 c -3.83571,-2.02808 -7.03002,-7.51157 -7.03002,-12.06801 0,-3.63418 0.63286,-4.60849 7,-10.77672 l 7,-6.78132 -0.0197,-13.32539 -0.0197,-13.3254 -5.69208,-4.5 c -6.86093,-5.42407 -10.27603,-10.22281 -10.24647,-14.39788 0.0346,-4.88117 3.44386,-11.19057 9.44854,-17.48584 l 5.5295,-5.79711 0,-11.83387 0,-11.83388 -7,-7.21913 c -5.97188,-6.15882 -7,-7.73579 -7,-10.73682 0,-2.73816 0.7202,-4.1268 3.25,-6.26641 4.69109,-3.96756 12.53892,-7.3096 21.4652,-9.14108 12.79737,-2.62575 28.2571,0.46878 38.89017,7.78452 7.75625,5.33644 7.03968,9.87263 -3.15581,19.97749 l -6.44956,6.39223 0,10.89524 0,10.89523 5.5086,5.94994 c 12.05623,13.02217 13.12141,21.5676 3.72088,29.85094 -2.60122,2.29207 -5.96698,4.80874 -7.47948,5.5926 l -2.75,1.42519 0,13.34696 0,13.34696 4.75,4.34754 c 10.29898,9.42636 11.79524,12.84858 8.58004,19.62411 -3.73568,7.87236 -12.11706,9.20095 -21.44883,3.40001 -3.9883,-2.47927 -6.11212,-3.11694 -10.38121,-3.11694 -4.26909,0 -6.39291,0.63767 -10.38121,3.11694 -5.68438,3.5336 -12.35161,4.63587 -16.08878,2.6599 z m 34.96998,-35.16021 0,-24.38337 -2.25,-0.60297 c -3.56568,-0.95557 -10.16968,-0.72855 -13.60078,0.46754 l -3.14922,1.09782 0,23.34181 0,23.34181 3.75,0.39226 c 2.0625,0.21575 6.3375,0.46791 9.5,0.56037 l 5.75,0.1681 0,-24.38337 z m 3.5,-34.56471 c 0,-1.39388 -1.12875,-3.17881 -2.79861,-4.42554 -5.30759,-3.96269 -20.21062,-2.28043 -22.809,2.57469 -1.944,3.63239 0.15219,4.30249 13.27249,4.24293 12.244,-0.0556 12.33512,-0.0733 12.33512,-2.39208 z m -9.02162,-9.36243 c 9.463,0.19973 11.20752,-0.53936 9.37135,-3.97027 -2.438,-4.55545 -15.20122,-6.28897 -21.84973,-2.96767 -5.8637,2.92925 -5.0352,9.15894 0.99169,7.45684 1.37957,-0.38961 6.54858,-0.62312 11.48669,-0.5189 z m 6.77821,-32.12131 c 0.28335,-15.08581 0.66111,-18.85457 2.28861,-22.83238 1.78023,-4.35109 1.81719,-4.99946 0.42631,-7.47749 -4.6892,-8.3544 -15.83148,-9.55761 -23.22151,-2.5076 -3.34095,3.18723 -3.583,7.22472 -0.75,12.51047 1.77941,3.32 2,5.64209 2,21.05338 l 0,17.3218 9.45861,0 9.45861,0 0.33937,-18.06818 z m 132.24341,111.47779 c -4.05035,-1.67533 -6.76954,-5.79568 -7.27135,-11.01818 l -0.48404,-5.03748 7.1277,-7.00159 7.12769,-7.00158 0,-13.2738 0,-13.27381 -5.51762,-3.96976 c -13.64865,-9.81982 -13.88688,-18.8554 -0.85727,-32.51559 l 5.37489,-5.63501 0,-11.831 0,-11.831 -4.75,-4.51979 c -10.28324,-9.78484 -11.8087,-14.79554 -6,-19.70832 4.69001,-3.96664 12.53749,-7.30909 21.4652,-9.14259 6.39744,-1.31386 9.14099,-1.40308 15.39471,-0.50065 9.61604,1.38764 17.45364,4.12979 23.29949,8.15185 8.01479,5.51431 7.19107,10.30684 -3.52516,20.50987 l -5.88424,5.60245 3e-5,11.725 3e-5,11.72501 3.3838,2.69994 c 1.86109,1.48496 5.23607,5.47374 7.49997,8.86395 4.56991,6.84349 5.40702,12.53921 2.63169,17.90611 -1.49379,2.88866 -8.08552,8.76426 -12.26552,10.93299 -2.16308,1.12228 -2.25,1.68431 -2.25,14.54908 l 0,13.3817 6.40757,6.15287 c 8.31165,7.98126 9.41698,10.56579 7.10628,16.61628 -1.96455,5.14408 -6.23303,8.39318 -11.01385,8.38357 -3.21237,-0.006 -12.80779,-4.05746 -13.93648,-5.88371 -0.38013,-0.61507 -3.47047,-1.10278 -6.98768,-1.10278 -4.81952,0 -6.91348,0.47775 -8.88253,2.02661 -5.52287,4.34428 -12.47727,5.97005 -17.19331,4.01936 z m 34.26904,-35.04546 c 0.24281,-21.20749 0.10225,-23.62146 -1.44113,-24.75 -2.11145,-1.54394 -9.94574,-1.6283 -14.17869,-0.15268 l -3.14922,1.09782 0,23.34181 0,23.34181 3.75,0.41344 c 2.0625,0.22739 6.225,0.36705 9.25,0.31036 l 5.5,-0.10307 0.26904,-23.49949 z m 3.73096,-34.94859 c 0,-1.39875 -1.13283,-3.18186 -2.82333,-4.444 -5.43464,-4.05754 -21.42568,-2.03153 -23.33999,2.9571 -1.24438,3.24279 1.22751,3.93619 13.8282,3.87898 12.244,-0.0556 12.33512,-0.0733 12.33512,-2.39208 z m -8.83975,-9.34686 c 10.36156,0.23196 12.17895,-0.95677 7.9414,-5.19432 -5.54579,-5.54579 -23.26586,-4.01811 -25.33324,2.18403 -0.71389,2.14166 2.7314,4.34765 5.55392,3.55613 1.47272,-0.413 6.79978,-0.65862 11.83792,-0.54584 z m 6.33975,-31.58627 c 0,-15.67445 0.21589,-17.93331 2.0825,-21.78921 2.58913,-5.34843 1.90956,-9.31703 -2.18545,-12.76276 -8.24258,-6.93567 -22.90324,-2.24212 -22.89331,7.3292 0.002,1.98219 0.94506,5.14808 2.09557,7.0353 1.94912,3.19722 2.06826,4.60258 1.74626,20.59863 l -0.34557,17.16731 9.75,-0.0456 9.75,-0.0456 0,-17.48734 z m -121.23743,-65.62674 c -3.58831,-2.02229 -5.76257,-6.38875 -5.76257,-11.57267 0,-3.85363 0.54647,-4.71674 7,-11.05609 l 7,-6.87615 -0.0539,-13.24357 -0.0539,-13.24357 -5.9618,-4.25168 c -7.00677,-4.9969 -9.92147,-9.28299 -9.92663,-14.59719 -0.005,-5.38952 2.46245,-10.00732 9.19227,-17.20151 l 5.80396,-6.20448 0,-11.46234 0,-11.46233 -6.83821,-6.94754 c -7.79518,-7.91982 -9.25517,-11.41345 -6.39367,-15.29955 4.90657,-6.66346 20.23351,-12.3675 33.23188,-12.3675 12.99837,0 28.32531,5.70404 33.23188,12.3675 2.85282,3.87431 1.41765,7.32632 -6.38974,15.36927 l -6.84214,7.04857 0,11.37696 0,11.37696 5.80399,6.20448 c 6.72982,7.19419 9.19751,11.81199 9.19227,17.20151 -0.005,5.3142 -2.91986,9.60029 -9.92663,14.59719 l -5.9618,4.25168 -0.0539,13.24357 -0.0539,13.24357 7,6.87615 c 6.45353,6.33935 7,7.20246 7,11.05609 0,13.00077 -13.03255,17.27958 -24.69331,8.10723 -4.23588,-3.33195 -12.29969,-2.81552 -18.07431,1.15752 -5.5158,3.79497 -13.06226,4.79192 -17.46981,2.30792 z m 36.00631,-34.42317 c 0.14788,-12.88712 -0.11158,-23.81158 -0.57658,-24.27658 -1.54292,-1.54292 -10.80292,-2.07591 -14.55463,-0.83773 l -3.63767,1.20053 0,23.25579 c 0,12.79068 0.31619,23.57197 0.70264,23.95842 0.38646,0.38645 4.54896,0.57395 9.25,0.41667 l 8.54736,-0.28598 0.26888,-23.43112 z m 3.73112,-35.05084 c 0,-3.75985 -5.60278,-6.53355 -13,-6.43573 -8.62351,0.11403 -14.75677,3.70022 -13.21219,7.72532 0.37994,0.99012 3.62323,1.28442 13.35699,1.212 l 12.8552,-0.0956 0,-2.40595 z m -17.54922,-9.1009 c 3.59178,-0.7703 6.4824,-0.77551 10.0144,-0.018 5.88604,1.26233 8.25416,0.60485 7.83769,-2.17606 -0.59968,-4.0043 -5.29678,-6.22305 -13.17421,-6.22305 -9.71729,0 -15.97181,3.97175 -12.61809,8.01273 1.47442,1.77657 1.52904,1.77936 7.94021,0.40441 z m 9.63637,-13.90391 c 3.57184,0.54207 4.71161,0.37178 5.14951,-0.76935 0.3093,-0.80603 0.30278,-8.78719 -0.0145,-17.73592 -0.43626,-12.30454 -0.26707,-16.72591 0.69409,-18.13918 6.43467,-9.46137 1.55465,-18.80263 -9.81777,-18.79306 -6.07128,0.005 -10.91544,2.52974 -12.962,6.75542 -1.44029,2.97386 -1.06112,6.13839 1.25373,10.46373 0.69447,1.29764 1.10978,8.77195 1.10978,19.97272 0,9.84449 0.22818,18.12725 0.50706,18.40614 0.27888,0.27888 2.52888,0.20022 5,-0.1748 2.47112,-0.37502 6.55716,-0.36859 9.08009,0.0143 z"
         id="path4185"
         inkscape:connector-curvature="0" />
      <path
         style="fill:#0e1f0b"
         d="m 640.75221,-586.46299 c -21.73953,-4.75338 -40.50803,-18.92448 -49.88901,-37.66855 -8.27968,-16.54355 -7.63926,-1.13665 -7.63926,-183.78166 0,-153.98026 0.0952,-162.84079 1.81663,-169 7.115,-25.4579 26.93283,-44.7037 53.18337,-51.6482 6.62264,-1.752 13.30724,-1.8518 124,-1.8518 l 117,0 7.94341,2.3 c 24.07555,6.971 42.82534,24.4837 50.15438,46.84514 l 2.90221,8.85486 0,165 0,165 -2.31609,6.91366 c -6.56075,19.58425 -18.79536,33.79899 -36.68391,42.6211 -16.19956,7.98914 -5.95118,7.41794 -137,7.6359 -97.69782,0.16249 -118.06768,-0.0389 -123.47173,-1.22045 z m 245.80036,-4.25662 c 23.8715,-7.30998 40.21718,-22.88425 47.95682,-45.69359 l 2.71455,-8 0,-162.5 c 0,-151.75832 -0.11593,-162.92967 -1.75379,-169 -5.88334,-21.8051 -23.01363,-39.8584 -45.24621,-47.6841 l -8,-2.8159 -117,-0.2842 c -130.94994,-0.3181 -124.59412,-0.6276 -140,6.8157 -14.71659,7.1102 -25.16616,17.4194 -32.08493,31.65393 -6.71817,13.82185 -6.37854,4.21844 -6.39771,180.90461 -0.0169,156.08921 0.0319,160.28273 1.95464,167.80048 3.04545,11.9076 8.26084,20.87412 17.51324,30.10948 12.01773,11.9956 24.4897,18.32945 40.1385,20.3842 3.81242,0.50058 57.22541,0.82506 119.87626,0.72823 l 113,-0.17465 7.32863,-2.24419 z m -234.9872,-51.66118 c -3.56272,-2.01077 -6.84143,-7.52543 -6.84143,-11.50702 0,-2.65543 1.26039,-4.5384 7,-10.45768 l 7,-7.21913 0,-14.17429 c 0,-7.8506 -0.40608,-14.17429 -0.9102,-14.17429 -1.74308,0 -11.21431,-8.15634 -13.1416,-11.31715 -3.8866,-6.37414 -1.60592,-13.3879 7.55374,-23.23004 l 5.49806,-5.9077 0,-12.16169 0,-12.16169 -5.93085,-5.73681 c -9.74434,-9.42554 -10.40127,-13.83063 -2.86798,-19.23152 5.71701,-4.09874 13.44014,-6.91328 23.08436,-8.41263 5.99922,-0.93268 8.60795,-0.8465 15.22699,0.50305 9.26126,1.88826 18.7838,6.26849 22.84653,10.50906 4.17406,4.35677 3.06431,7.63621 -5.44721,16.09724 l -6.91184,6.87083 0,11.87712 0,11.87711 5.078,4.96241 c 5.42041,5.29702 9.27126,11.18041 10.34671,15.80785 1.11048,4.77815 -2.67257,10.97608 -10.01777,16.41255 l -6.40691,4.74201 -2e-5,13.38252 -10e-6,13.38252 6.36361,5.83109 c 7.60572,6.96926 9.31162,10.32788 7.71024,15.18012 -3.12231,9.46067 -12.77386,12.13966 -21.52151,5.97375 -4.04774,-2.85311 -5.39745,-3.25 -11.05234,-3.25 -5.59522,0 -7.02114,0.40855 -10.85312,3.10958 -5.23143,3.68745 -11.78485,4.69203 -15.80545,2.42283 z m 35.15857,-34.91578 0,-24.38337 -2.25,-0.60297 c -3.47213,-0.9305 -11.33301,-0.73933 -14.1849,0.34496 l -2.5651,0.97525 0,23.46139 0,23.46139 3.25,0.40332 c 1.7875,0.22183 6.0625,0.47534 9.5,0.56336 l 6.25,0.16004 0,-24.38337 z m 4.11897,-33.3356 c 2.93534,-2.93534 -5.3102,-8.28103 -12.77319,-8.28103 -8.15826,0 -15.15104,3.88748 -13.92746,7.74266 0.5478,1.72595 1.66072,1.87404 13.11647,1.74533 7.33783,-0.0825 12.95913,-0.58191 13.58418,-1.20696 z m -9.61897,-10.73266 c 9.24915,-0.0447 10,-0.19555 10,-2.00854 0,-1.11303 -1.46847,-2.94977 -3.39788,-4.25 -4.15688,-2.80132 -12.99474,-3.11684 -19.08188,-0.68125 -3.35732,1.34333 -4.02024,2.07162 -4.02024,4.41667 0,3.09473 1.44779,4.11918 4.5,3.18417 1.1,-0.33698 6.5,-0.63445 12,-0.66105 z m 6.5,-30.58821 c 0,-16.06639 0.21879,-18.46869 2,-21.96016 2.50626,-4.91268 2.51655,-7.64058 0.0441,-11.69553 -2.455,-4.02632 -7.94126,-5.8469 -14.60714,-4.84729 -9.40366,1.41017 -12.92834,8.73898 -8.43696,17.54282 1.76993,3.46935 2,5.89377 2,21.07539 l 0,17.15506 5.25,-0.59874 c 2.8875,-0.32931 6.825,-0.20222 8.75,0.28241 1.925,0.48464 3.8375,0.92722 4.25,0.98352 0.4125,0.0563 0.75,-8.01557 0.75,-17.93748 z m 131.29855,109.13887 c -3.68299,-2.313 -6.29855,-6.77527 -6.29855,-10.74562 0,-3.50253 3.70362,-8.84625 9.47445,-13.67006 l 4.52555,-3.78289 0,-13.78977 0,-13.78976 -6.02665,-4.68012 c -13.0016,-10.09665 -13.10859,-17.41529 -0.45892,-31.39363 l 5.48557,-6.06175 0,-11.72655 0,-11.72655 -7,-7.36918 c -5.91969,-6.23189 -7,-7.90737 -7,-10.85645 0,-3.00822 0.65251,-3.96233 4.75,-6.9455 6.17426,-4.49515 13.22289,-7.1476 22.95189,-8.63694 6.66655,-1.02054 9.06127,-0.95656 15.82661,0.42281 9.26666,1.88937 18.77184,6.26943 22.85576,10.53213 3.96218,4.13562 3.08205,6.67597 -5.42801,15.66702 l -6.95625,7.34943 0,11.67474 0,11.67475 5.80399,6.20448 c 6.8152,7.28547 9.19601,11.80938 9.19601,17.47385 0,3.41912 -0.68239,4.86152 -4.00553,8.46671 -2.20305,2.39002 -5.80305,5.59116 -8,7.11365 l -3.99447,2.76817 0,13.70746 0,13.70747 5.05702,4.26414 c 2.78137,2.34528 6.18599,5.97012 7.56583,8.05521 2.23317,3.37454 2.39346,4.21943 1.45893,7.69002 -2.80899,10.43177 -13.2652,13.04614 -23.11473,5.77939 -2.73101,-2.01487 -4.52389,-2.47569 -9.63209,-2.47569 -5.41055,0 -6.88513,0.42901 -10.68808,3.10958 -5.73314,4.04109 -11.88874,4.79017 -16.34833,1.98945 z m 35.70145,-34.4824 0,-24.38337 -2.25,-0.60297 c -3.47213,-0.9305 -11.33301,-0.73933 -14.1849,0.34496 l -2.5651,0.97525 0,23.46139 0,23.46139 3.25,0.40332 c 1.7875,0.22183 6.0625,0.47534 9.5,0.56336 l 6.25,0.16004 0,-24.38337 z m 3.81891,-34.95891 c 0.9244,-7.8531 -24.47629,-8.85532 -26.43703,-1.04312 -0.31359,1.24945 -0.33952,2.64493 -0.0576,3.10106 0.2819,0.45613 6.28677,0.78927 13.34414,0.7403 l 12.83159,-0.089 0.31891,-2.70921 z m -9.36465,-8.92919 c 9.41052,0.24017 11.25965,-0.52606 9.44632,-3.9143 -3.57575,-6.68134 -24.35536,-6.25816 -26.51299,0.53995 -0.86755,2.73339 2.12375,4.83131 5.5241,3.87429 1.42357,-0.40066 6.61772,-0.62563 11.54257,-0.49994 z m 6.80087,-31.47853 c 0.28315,-15.6718 0.65409,-19.51864 2.25947,-23.43197 1.83786,-4.48002 1.84618,-4.83825 0.19287,-8.30528 -2.82384,-5.92165 -11.57583,-8.2659 -19.1089,-5.11838 -6.67121,2.78741 -8.37989,9.19363 -4.48727,16.8238 1.95613,3.83433 2.08278,5.38247 1.7232,21.06408 l -0.3881,16.92558 5.5268,-0.5777 c 3.03974,-0.31773 7.1018,-0.18556 9.0268,0.29372 1.925,0.47929 3.81868,0.91749 4.20818,0.97379 0.3895,0.0563 0.86063,-8.33514 1.04695,-18.64764 z m -123.24639,-68.00596 c -6.85183,-6.85184 -5.41552,-12.85243 5.34321,-22.32264 l 4.64805,-4.09137 0,-13.83346 0,-13.83345 -3.35648,-2.07442 c -1.84606,-1.14093 -5.44606,-4.30835 -8,-7.03872 -3.95582,-4.22909 -4.64352,-5.56894 -4.64352,-9.04698 0,-5.32943 2.54282,-10.10311 9.40719,-17.66028 l 5.59281,-6.15729 0,-11.64489 0,-11.64489 -6.8737,-7.26221 c -3.78054,-3.99422 -7.18046,-8.22874 -7.5554,-9.41005 -2.42048,-7.62626 16.92924,-17.41221 34.4291,-17.41221 13.46042,0 30.49371,6.63726 34.0404,13.26432 1.6533,3.0892 0.27623,5.69432 -7.1667,13.55794 l -6.8737,7.26221 0,11.64489 0,11.64489 5.59281,6.15729 c 6.86437,7.55717 9.40719,12.33085 9.40719,17.66028 0,3.47804 -0.6877,4.81789 -4.64352,9.04698 -2.55394,2.73037 -6.15394,5.89779 -8,7.03872 l -3.35648,2.07442 0,13.83345 0,13.83346 4.64805,4.09137 c 10.68766,9.40766 12.18437,15.48147 5.4696,22.19625 -5.18277,5.18276 -9.42235,5.27514 -17.54763,0.38235 -4.88019,-2.9387 -6.75045,-3.5 -11.66194,-3.5 -4.94488,0 -6.53851,0.48558 -10.30376,3.13958 -3.09717,2.18309 -5.99765,3.28789 -9.5205,3.62639 -4.84384,0.46543 -5.24238,0.31076 -9.07508,-3.52193 z m 37.99126,-32.26879 0,-24.02475 -2.75,-1.06996 c -2.74544,-1.06819 -13.16032,-0.67203 -15.18209,0.57749 -0.7091,0.43824 -1.06791,8.70411 -1.06791,24.60099 l 0,23.94098 9.5,0 9.5,0 0,-24.02475 z m 3.83127,-34.33761 c 0.95384,-4.9529 -8.72271,-8.70254 -17.63441,-6.83329 -3.01996,0.63344 -6.32469,1.90635 -7.34385,2.82867 -1.73414,1.56938 -2.45179,4.43486 -1.3793,5.50736 0.26055,0.26054 6.22017,0.43096 13.24362,0.37871 11.42251,-0.085 12.8062,-0.2835 13.11394,-1.88145 z m -10.83127,-9.80012 c 11.10194,0.80809 10.5,0.94209 10.5,-2.33752 0,-2.42887 -0.66632,-3.33286 -3.5,-4.74845 -7.29837,-3.64594 -21.35154,-1.18339 -22.64446,3.96801 -0.85197,3.39451 1.1239,4.4453 6.64446,3.53359 2.475,-0.40874 6.525,-0.59578 9,-0.41563 z m -3.37889,-13.97763 c 2.72586,-0.0614 6.46798,0.2204 8.31582,0.62626 l 3.35971,0.73791 -0.53296,-17.75038 c -0.49647,-16.53487 -0.39504,-17.98415 1.48123,-21.16419 6.28335,-10.6495 -1.88291,-20.27529 -14.7568,-17.39424 -9.18191,2.05482 -12.35786,8.63459 -8.12177,16.82628 1.33518,2.58196 1.63366,6.46923 1.63366,21.2762 0,17.10998 0.10186,18.08472 1.8325,17.53543 1.00788,-0.31989 4.06275,-0.63186 6.78861,-0.69327 z"
         id="path4183"
         inkscape:connector-curvature="0" />
      <path
         style="fill:#000000"
         d="m 640.75221,-586.46299 c -21.73953,-4.75338 -40.50803,-18.92448 -49.88901,-37.66855 -8.27968,-16.54355 -7.63926,-1.13665 -7.63926,-183.78166 0,-153.98026 0.0952,-162.84079 1.81663,-169 7.115,-25.4579 26.93283,-44.7037 53.18337,-51.6482 6.62264,-1.752 13.30724,-1.8518 124,-1.8518 l 117,0 7.94341,2.3 c 24.07555,6.971 42.82534,24.4837 50.15438,46.84514 l 2.90221,8.85486 0,165 0,165 -2.31609,6.91366 c -6.56075,19.58425 -18.79536,33.79899 -36.68391,42.6211 -16.19956,7.98914 -5.95118,7.41794 -137,7.6359 -97.69782,0.16249 -118.06768,-0.0389 -123.47173,-1.22045 z m 245.80036,-4.25662 c 23.8715,-7.30998 40.21718,-22.88425 47.95682,-45.69359 l 2.71455,-8 0,-162.5 c 0,-151.75832 -0.11593,-162.92967 -1.75379,-169 -5.88334,-21.8051 -23.01363,-39.8584 -45.24621,-47.6841 l -8,-2.8159 -117,-0.2842 c -130.94994,-0.3181 -124.59412,-0.6276 -140,6.8157 -14.71659,7.1102 -25.16616,17.4194 -32.08493,31.65393 -6.71817,13.82185 -6.37854,4.21844 -6.39771,180.90461 -0.0169,156.08921 0.0319,160.28273 1.95464,167.80048 3.04545,11.9076 8.26084,20.87412 17.51324,30.10948 12.01773,11.9956 24.4897,18.32945 40.1385,20.3842 3.81242,0.50058 57.22541,0.82506 119.87626,0.72823 l 113,-0.17465 7.32863,-2.24419 z"
         id="path4181"
         inkscape:connector-curvature="0" />
    </g>
  </g>
</svg>
