<?xml version="1.0" encoding="UTF-8" standalone="no"?>
<!-- Created with Inkscape (http://www.inkscape.org/) -->

<svg
   xmlns:dc="http://purl.org/dc/elements/1.1/"
   xmlns:cc="http://creativecommons.org/ns#"
   xmlns:rdf="http://www.w3.org/1999/02/22-rdf-syntax-ns#"
   xmlns:svg="http://www.w3.org/2000/svg"
   xmlns="http://www.w3.org/2000/svg"
   xmlns:sodipodi="http://sodipodi.sourceforge.net/DTD/sodipodi-0.dtd"
   xmlns:inkscape="http://www.inkscape.org/namespaces/inkscape"
   width="358.77673"
   height="446.75555"
   id="svg2"
   version="1.1"
   inkscape:version="0.48.5 r10040"
   sodipodi:docname="bamb5.svg">
  <defs
     id="defs4" />
  <sodipodi:namedview
     id="base"
     pagecolor="#ffffff"
     bordercolor="#666666"
     borderopacity="1.0"
     inkscape:pageopacity="0.0"
     inkscape:pageshadow="2"
     inkscape:zoom="0.56054688"
     inkscape:cx="-81.724798"
     inkscape:cy="38.043283"
     inkscape:document-units="px"
     inkscape:current-layer="layer1"
     showgrid="false"
     fit-margin-top="0"
     fit-margin-left="0"
     fit-margin-right="0"
     fit-margin-bottom="0"
     inkscape:window-width="958"
     inkscape:window-height="1078"
     inkscape:window-x="1920"
     inkscape:window-y="0"
     inkscape:window-maximized="0" />
  <metadata
     id="metadata7">
    <rdf:RDF>
      <cc:Work
         rdf:about="">
        <dc:format>image/svg+xml</dc:format>
        <dc:type
           rdf:resource="http://purl.org/dc/dcmitype/StillImage" />
        <dc:title></dc:title>
      </cc:Work>
    </rdf:RDF>
  </metadata>
  <g
     inkscape:label="Layer 1"
     inkscape:groupmode="layer"
     id="layer1"
     transform="translate(-1313.3941,712.63544)">
    <g
       id="g4317"
       transform="translate(690.39721,297.92334)">
      <path
         style="fill:#c2c6c1"
         d="m 686.11345,-564.72078 c -27.50398,-3.64964 -51.29957,-22.83119 -59.9371,-48.3151 l -2.75576,-8.13052 -0.27938,-163.5 c -0.31469,-184.16092 -0.86009,-170.52651 7.4885,-187.20363 8.99538,-17.96913 27.05558,-31.92797 47.63155,-36.81477 8.36972,-1.9878 10.95353,-2.0236 126.85154,-1.7554 l 118.30779,0.2738 8.76121,3.1347 c 12.16585,4.3529 18.84927,8.57037 28.31132,17.8653 9.44853,9.28165 15.11173,18.6955 18.62427,30.95885 l 2.3032,8.04115 0,162.5 c 0,182.32107 0.61716,167.13899 -7.45938,183.5 -9.09858,18.4314 -25.65479,31.80348 -46.7539,37.76209 l -7.78672,2.19905 -113.5,0.16071 c -62.425,0.0884 -116.33821,-0.21592 -119.80714,-0.67623 z m 243.30714,-7.26098 c 24.06937,-8.47051 41.08082,-27.04472 45.98856,-50.21333 2.20852,-10.42604 2.21984,-320.41963 0.0121,-330.97131 -3.85179,-18.40915 -18.32882,-36.85612 -35.50065,-45.23577 -17.08682,-8.33813 -6.88588,-7.76423 -138,-7.76423 -109.52804,0 -116.88899,0.1087 -123,1.8166 -24.58896,6.87217 -43.19266,25.1755 -49.78224,48.97849 -1.59108,5.7473 -1.71776,18.15238 -1.71776,168.20491 l 0,162 2.33157,7.5 c 3.55715,11.44237 8.53597,19.54195 17.5805,28.60011 6.64799,6.658 9.77927,8.92401 17.58793,12.72783 16.29799,7.93922 8.99821,7.55584 140,7.35271 l 116.5,-0.18065 8,-2.81536 z m -248.6272,-50.30957 c -3.77144,-2.42503 -5.8728,-6.53674 -5.8728,-11.49128 0,-4.01429 0.47667,-4.77402 7,-11.15668 l 7,-6.84905 -0.0468,-13.18903 -0.0468,-13.18903 -5.0527,-3.5 c -13.97971,-9.68375 -14.39929,-20.04431 -1.34466,-33.20346 l 5.49104,-5.53501 0,-11.66003 0,-11.66002 -6.28909,-6.22074 c -10.55817,-10.44342 -10.92218,-14.34545 -1.9101,-20.47561 8.62606,-5.86758 15.21132,-7.61487 28.69919,-7.61487 13.35601,0 19.52827,1.6126 28.70066,7.4985 9.11372,5.84826 8.85677,9.79383 -1.30058,19.97136 l -6.90008,6.91378 0,11.53641 0,11.53641 5.49269,5.62582 c 13.04903,13.36529 12.63498,23.60262 -1.34631,33.28746 l -5.0527,3.5 -0.0468,13.18903 -0.0468,13.18903 7,6.84905 c 6.60237,6.46 6.99963,7.10251 6.99341,11.31097 -0.0172,11.66236 -11.54356,16.80397 -22.33236,9.96192 -4.01201,-2.54434 -5.72262,-3 -11.2625,-3 -5.55174,0 -7.0619,0.40418 -10.06304,2.69326 -4.50262,3.43431 -13.40393,4.29158 -17.46271,1.68181 z m 35.8953,-35.11597 -0.2681,-23.74089 -4.59593,-0.83914 c -2.92092,-0.53331 -6.1099,-0.43146 -8.75,0.27944 l -4.15407,1.11858 0,23.46145 0,23.46146 9.0181,0 9.0181,0 -0.2681,-23.7409 z m 4.2319,-34.46426 c 0,-7.4357 -24.73848,-7.6265 -25.79935,-0.19898 -0.29103,2.0376 0.0635,2.09486 12.75,2.05955 11.95032,-0.0333 13.04935,-0.18997 13.04935,-1.86057 z m -0.18802,-11.54852 c 0.9157,-6.25419 -19.04976,-8.061 -24.35059,-2.20366 -3.44059,3.80181 -1.52437,4.52873 11.67377,4.42846 11.81909,-0.0898 12.37861,-0.18799 12.67682,-2.2248 z m -2.81198,-29.3692 c 0,-15.53487 0.24048,-18.16652 2.02963,-22.2112 1.84086,-4.16157 1.89719,-4.9053 0.60563,-7.99643 -2.05282,-4.91309 -5.11255,-6.67014 -11.60777,-6.66575 -10.24174,0.007 -15.37664,5.71147 -12.20862,13.56298 1.19679,2.9661 1.66994,8.48238 1.92419,22.43328 l 0.33714,18.5 9.4599,0 9.4599,0 0,-17.62288 z m 57.36504,110.2038 c -2.01859,-1.23087 -3.75598,-3.53772 -4.87889,-6.478 -2.3107,-6.05049 -1.20537,-8.63502 7.10628,-16.61628 l 6.40757,-6.15287 -0.0539,-13.16688 -0.0539,-13.16689 -5.9618,-4.25168 c -11.28123,-8.04524 -12.93965,-15.51399 -5.8142,-26.18443 2.2639,-3.39021 5.63888,-7.37899 7.49997,-8.86395 l 3.3838,-2.69994 3e-5,-11.72501 3e-5,-11.725 -5.9546,-5.66944 c -5.82776,-5.54864 -9.04543,-10.48626 -9.04543,-13.88047 0,-2.30703 5.35377,-7.13892 11.18279,-10.09271 15.77013,-7.99133 40.61032,-6.60497 53.04087,2.96027 8.42004,6.47917 8.09635,10.20124 -1.74282,20.04041 l -6.48084,6.48084 0,11.67812 0,11.67813 5.80399,6.20448 c 12.72362,13.60159 12.3793,22.67078 -1.21621,32.03436 l -5.58778,3.84846 0,13.23033 0,13.23033 7.12514,7.12515 7.12515,7.12514 -0.49641,5.16628 c -0.41721,4.34195 -1.07308,5.69475 -4.11046,8.4783 -2.98502,2.73557 -4.40677,3.31203 -8.16857,3.31203 -4.35079,0 -11.60975,-2.79123 -12.96602,-4.98571 -0.34477,-0.55786 -3.94875,-1.01429 -8.00883,-1.01429 -4.06008,0 -7.66406,0.45643 -8.00883,1.01429 -1.31747,2.13171 -8.59323,4.98555 -12.70133,4.98197 -2.45778,-0.002 -5.62869,-0.82013 -7.4248,-1.91534 z m 36.63496,-34.53392 0,-23.45299 -3.75,-1.04143 c -2.0625,-0.57278 -4.425,-1.04143 -5.25,-1.04143 -0.825,0 -3.1875,0.46865 -5.25,1.04143 l -3.75,1.04143 0,23.45299 0,23.453 9,0 9,0 0,-23.453 z m 3.5,-35.05115 c 0,-7.21148 -24.27406,-7.08473 -25.30356,0.13213 -0.29692,2.0814 -0.0234,2.12508 12.5,1.99584 12.08388,-0.1247 12.80356,-0.24431 12.80356,-2.12797 z m 0.30048,-10.69835 c 0.457,-2.37302 -4.37182,-5.61067 -9.51936,-6.38259 -5.22217,-0.78312 -15.03215,1.7727 -15.94612,4.15448 -1.35806,3.53906 0.14887,3.99794 12.79911,3.89752 10.39321,-0.0825 12.412,-0.34858 12.66637,-1.66941 z m -3.80048,-29.52333 c 0,-15.45498 0.20522,-17.56242 1.99626,-20.5 5.34687,-8.76966 0.33813,-16.77417 -10.49626,-16.77417 -9.15684,0 -14.70341,5.71368 -12.43654,12.81123 0.64798,2.02882 1.57378,4.11627 2.05734,4.63877 0.48356,0.5225 0.8792,9.0725 0.8792,19 l 0,18.05 9,0 9,0 0,-17.22583 z m 56.61488,109.63753 c -1.46016,-1.14856 -3.32085,-3.37621 -4.13486,-4.95034 -3.24693,-6.27886 -1.13797,-11.70018 7.41776,-19.06825 l 5.10124,-4.39311 4.9e-4,-13.71482 c 4.6e-4,-12.99923 -0.11139,-13.77469 -2.1438,-14.8624 -3.42767,-1.83444 -10.8812,-9.0714 -12.43249,-12.07125 -3.18724,-6.16344 -0.48938,-13.78545 8.04728,-22.73525 l 5.5295,-5.79711 0,-11.83387 0,-11.83388 -7.06285,-7.28395 c -6.51047,-6.71428 -7.03839,-7.57788 -6.75,-11.04204 0.264,-3.17126 1.07693,-4.33429 5.20602,-7.44807 16.2026,-12.21849 45.92705,-11.41757 61.46427,1.65614 5.46578,4.59915 4.03209,9.29463 -5.78158,18.9352 l -6.07586,5.96869 0,11.08514 0,11.08514 3.58007,3.44616 c 9.32702,8.97818 13.57036,17.9303 11.48875,24.23764 -1.22114,3.7001 -7.28696,9.95217 -12.83583,13.22997 l -3.23299,1.90978 0,12.95493 0,12.95494 6.96332,6.75921 c 3.82982,3.71757 7.26384,7.95659 7.63114,9.42005 0.99937,3.98179 -1.22389,9.99005 -4.81471,13.01152 -2.80352,2.35901 -3.84725,2.6296 -8.73193,2.26379 -3.77808,-0.28294 -6.89722,-1.27361 -9.77795,-3.10557 -6.19775,-3.94137 -14.41929,-3.81964 -20.93092,0.30991 -5.97512,3.78931 -13.56919,4.17994 -17.72407,0.9117 z m 36.15322,-34.61746 -0.2681,-23.70576 -4,-0.83227 c -2.49385,-0.51889 -5.78856,-0.40385 -8.75,0.3055 l -4.75,1.13777 0,23.40026 0,23.40026 9.0181,0 9.0181,0 -0.2681,-23.70576 z m 4.64093,-33.91776 c 0.49275,-1.28409 -1.6054,-3.44596 -5.09329,-5.24798 -2.79372,-1.44338 -12.07569,-1.45675 -16.18763,-0.0233 -3.13813,1.09396 -5.68344,4.18727 -4.7235,5.74048 0.83208,1.34632 25.47838,0.90165 26.00442,-0.46918 z m 0.091,-11.94851 c 0,-3.25768 -7.93445,-6.67178 -14.13748,-6.08319 -6.79366,0.64464 -11.36255,3.03826 -11.36255,5.95279 0,2.21575 0.17294,2.24494 12.75,2.15229 11.89207,-0.0876 12.75,-0.22365 12.75,-2.02189 z M 905.921,-732.3072 c -3.3e-4,-14.942 0.25336,-17.69998 1.97766,-21.5 2.8211,-6.21716 2.54576,-8.5354 -1.49355,-12.57471 -3.43446,-3.43446 -3.66805,-3.50579 -10.13188,-3.09421 -5.93354,0.37782 -6.91236,0.75258 -9.48449,3.63129 -3.40318,3.80882 -3.64405,7.26033 -0.86812,12.43961 1.77837,3.31806 2.00014,5.64353 2.00124,20.9852 l 10e-4,17.25362 8.99915,0 8.99914,0 -3.8e-4,-17.1408 z m -224.62211,-64.79612 c -3.7155,-1.61708 -6.06131,-4.7071 -7.43723,-9.79672 -1.33549,-4.94005 0.20126,-7.83106 8.00133,-15.05255 l 6.0576,-5.60827 0,-13.55277 c 0,-7.47713 -0.40804,-13.55277 -0.9102,-13.55277 -0.50061,0 -3.22561,-1.83022 -6.05554,-4.06715 -12.21243,-9.65338 -12.22984,-18.65391 -0.0606,-31.32694 l 6.02631,-6.27577 0,-11.29891 0,-11.2989 -6.89751,-7.26128 c -8.78136,-9.24449 -9.6602,-12.26868 -4.97122,-17.10649 9.53226,-9.83479 32.04834,-14.01109 48.36873,-8.97146 6.34004,1.95776 15.26945,7.33613 17.73188,10.68028 2.8615,3.8861 1.40151,7.37973 -6.39367,15.29955 l -6.83821,6.94754 0,11.49935 0,11.49935 5.37489,5.63501 c 9.34811,9.80052 11.84211,17.89741 7.63709,24.79414 -1.08929,1.78657 -4.66335,5.16157 -7.94235,7.5 l -5.9618,4.25168 -0.0539,13.24357 -0.0539,13.24357 7,6.87615 c 6.55765,6.44163 6.99976,7.15295 6.99626,11.25643 -0.005,5.63412 -2.71457,10.04419 -7.59449,12.35987 -3.28968,1.56106 -4.45397,1.6538 -8.19624,0.65289 -2.39903,-0.64164 -6.00616,-2.28394 -8.01584,-3.64955 -5.24543,-3.56436 -15.10282,-3.57526 -19.32639,-0.0214 -2.78843,2.34631 -8.64749,4.56567 -11.8633,4.49371 -0.825,-0.0185 -2.90476,-0.64495 -4.6217,-1.3922 z m 34.6217,-35.95609 c 0,-20.40888 -0.20178,-23.47044 -1.58179,-24 -2.02688,-0.77779 -11.23548,-0.76265 -14.16821,0.0233 l -2.25,0.60297 0,23.38337 0,23.38337 9,0 9,0 0,-23.39301 z m -11.5,-33.13385 c 2.2,-0.34238 5.96791,-0.17428 8.37313,0.37355 2.40522,0.54782 5.01651,0.74915 5.80287,0.4474 2.4457,-0.93851 0.98829,-4.4791 -2.676,-6.50101 -4.30321,-2.37445 -15.45713,-2.03403 -19.46829,0.59418 -4.27947,2.80402 -2.90587,7.06269 1.96829,6.1024 1.1,-0.21671 3.8,-0.67415 6,-1.01652 z m 15.5,-12.53244 c 0,-3.95327 -8.80404,-7.47539 -15.86392,-6.34647 -6.5319,1.04449 -11.95216,5.25636 -9.6837,7.52482 0.24881,0.24881 6.09881,0.45238 13,0.45238 10.93383,0 12.54762,-0.20973 12.54762,-1.63073 z m -4.00065,-29.23054 c 5.7e-4,-14.81561 0.23582,-17.25081 2.00065,-20.71016 2.18991,-4.29258 2.57362,-9.05966 0.97036,-12.05539 -3.78987,-7.08142 -19.69945,-6.23675 -23.57176,1.25147 -1.2412,2.40022 -1.30146,3.58962 -0.33514,6.61515 0.64798,2.02882 1.57378,4.11627 2.05734,4.63877 0.48356,0.5225 0.8792,9.07409 0.8792,19.00352 l 0,18.05353 8.99935,-0.004 8.99936,-0.004 6.4e-4,-16.78984 z m 60.41584,110.91482 c -6.51123,-2.93291 -9.91817,-10.81786 -7.06129,-16.34246 0.842,-1.62825 4.25683,-5.48417 7.58851,-8.56871 l 6.05759,-5.60827 0,-13.32536 0,-13.32537 -3.52106,-1.89622 c -1.93659,-1.04292 -5.53659,-4.05097 -8,-6.68456 -4.14982,-4.43649 -4.47894,-5.18126 -4.47894,-10.13541 0,-6.25858 3.1849,-12.07727 10.50426,-19.19087 l 4.49574,-4.36936 0,-11.26348 0,-11.26349 -6.9382,-7.1554 c -7.53803,-7.77399 -9.20067,-11.42167 -6.96556,-15.28178 3.57707,-6.17773 21.65863,-13.23463 33.81372,-13.19688 11.66853,0.0362 24.52046,4.26671 31.94748,10.51614 5.67295,4.77347 3.95699,10.53502 -5.81268,19.51675 l -5.04476,4.63789 0,11.77227 0,11.77228 5.64409,6.09629 c 12.7563,13.77832 12.32929,23.09306 -1.49771,32.67102 l -5.0527,3.5 -0.0468,13.34186 -0.0468,13.34187 6.43235,6.2145 c 3.53779,3.41798 6.73732,7.4296 7.11006,8.91471 1.07102,4.26729 -0.36633,9.35714 -3.53812,12.52892 -5.08557,5.08558 -11.91471,4.91315 -19.98642,-0.50463 -2.72321,-1.82778 -4.84207,-2.33723 -9.72085,-2.33723 -5.29526,0 -6.88571,0.45 -10.51786,2.97589 -5.12329,3.56285 -11.06215,4.58684 -15.36405,2.64909 z m 34.58481,-36.01799 c 0,-20.40888 -0.20178,-23.47044 -1.58179,-24 -2.02688,-0.77779 -11.23548,-0.76265 -14.16821,0.0233 l -2.25,0.60297 0,23.38337 0,23.38337 9,0 9,0 0,-23.39301 z m -8.5,-33.09015 c 2.2,-0.009 5.37119,0.29115 7.0471,0.66758 6.492,1.45819 7.1863,-3.51053 0.90884,-6.50404 -6.47082,-3.08572 -19.48564,-1.37251 -21.07699,2.77447 -1.31631,3.43024 0.35988,4.77151 4.87325,3.89951 2.33629,-0.45138 6.0478,-0.82826 8.2478,-0.83752 z m 12.29713,-12.70196 c 0.38811,-2.01528 -3.08041,-4.53557 -8.11498,-5.89648 -7.36139,-1.9899 -18.97975,2.25773 -17.40441,6.36299 0.40197,1.04753 3.32737,1.33338 12.86343,1.25692 10.54713,-0.0846 12.38864,-0.33534 12.65596,-1.72343 z m -3.79778,-29.54071 c 5.8e-4,-15.4543 0.20595,-17.56255 1.99691,-20.5 2.22666,-3.65206 2.58142,-9.46038 0.72194,-11.82006 -5.76992,-7.32203 -19.61098,-6.44085 -23.39259,1.48926 -1.62937,3.41682 -1.61047,3.75729 0.48982,8.82461 1.95346,4.71308 2.18457,7.06747 2.18457,22.25487 l 0,16.9842 8.99935,-0.004 8.99936,-0.004 6.4e-4,-17.22583 z m 60.39814,112.06896 c -3.69567,-0.77969 -8.50182,-6.70207 -9.1083,-11.2237 -0.67451,-5.02888 2.18849,-9.91868 9.14501,-15.61903 l 4.5658,-3.74132 -0.048,-13.62954 -0.048,-13.62954 -5.5445,-3.97553 c -6.71895,-4.81762 -9.39727,-8.387 -10.07288,-13.42407 -0.71317,-5.3171 2.20129,-11.35319 9.0574,-18.7586 l 5.65598,-6.10911 0,-11.77228 0,-11.77227 -5.04476,-4.63789 c -9.76391,-8.97643 -11.48496,-14.74385 -5.82171,-19.50915 10.92711,-9.19456 28.96995,-12.67692 44.87731,-8.66156 9.22032,2.32741 18.63484,7.43492 20.89292,11.3347 2.21445,3.82443 0.62552,7.33092 -6.94751,15.33198 l -6.95625,7.34943 0,11.14137 0,11.14137 4.49574,4.36936 c 7.31936,7.1136 10.50426,12.93229 10.50426,19.19087 0,4.95415 -0.32912,5.69892 -4.47894,10.13541 -2.46341,2.63359 -6.06341,5.64164 -8,6.68456 l -3.52106,1.89622 0,13.32537 0,13.32536 6.05759,5.60827 c 3.33168,3.08454 6.74651,6.94046 7.58851,8.56871 3.02007,5.84017 -1.13953,14.4051 -8.11374,16.7068 -4.18462,1.38105 -9.43215,0.14567 -14.72931,-3.46759 -5.49522,-3.74836 -13.9493,-3.57383 -20.4866,0.42294 -4.84068,2.95948 -10.01336,4.22245 -13.91896,3.39846 z m 32.60251,-36.73614 c 0,-26.46816 0.65406,-24.60699 -8.64753,-24.60699 -9.82974,0 -9.35247,-1.27757 -9.35247,25.03518 l 0,22.96482 9,0 9,0 0,-23.39301 z m -8.5,-33.05917 c 2.2,0.0233 5.8,0.24708 8,0.49728 3.72131,0.42321 4,0.28072 4,-2.0451 0,-5.22555 -11.93155,-7.81174 -20.40259,-4.4223 -4.32829,1.73184 -5.76077,3.91807 -3.97617,6.06838 0.8385,1.01033 2.14707,1.18216 4.76725,0.62598 1.98633,-0.42164 5.41151,-0.74754 7.61151,-0.72424 z m 12.9,-12.33583 c -0.2308,-2.79725 -0.52654,-3.22469 -3.15,-4.55266 -8.74354,-4.42593 -24.7241,-0.96235 -22.59597,4.89738 0.57617,1.58644 25.87736,1.24768 25.74597,-0.34472 z m -3.4,-29.83135 c 0,-15.24039 0.23194,-17.65074 2.10617,-21.88774 1.62312,-3.66933 1.90241,-5.47179 1.21776,-7.85901 -1.23347,-4.30088 -6.48213,-7.63389 -12.02147,-7.63389 -10.8607,0 -16.45876,8.31093 -11.29872,16.77417 1.79096,2.93745 1.99633,5.0457 1.99691,20.5 l 6.4e-4,17.22583 8.99936,0.004 8.99935,0.004 0,-17.12641 z"
         id="path4331"
         inkscape:connector-curvature="0" />
      <path
         style="fill:#bebebe"
         d="m 686.11345,-564.72078 c -27.50398,-3.64964 -51.29957,-22.83119 -59.9371,-48.3151 l -2.75576,-8.13052 -0.27938,-163.5 c -0.31469,-184.16092 -0.86009,-170.52651 7.4885,-187.20363 8.99538,-17.96913 27.05558,-31.92797 47.63155,-36.81477 8.36972,-1.9878 10.95353,-2.0236 126.85154,-1.7554 l 118.30779,0.2738 8.76121,3.1347 c 12.16585,4.3529 18.84927,8.57037 28.31132,17.8653 9.44853,9.28165 15.11173,18.6955 18.62427,30.95885 l 2.3032,8.04115 0,162.5 c 0,182.32107 0.61716,167.13899 -7.45938,183.5 -9.09858,18.4314 -25.65479,31.80348 -46.7539,37.76209 l -7.78672,2.19905 -113.5,0.16071 c -62.425,0.0884 -116.33821,-0.21592 -119.80714,-0.67623 z m 243.30714,-7.26098 c 24.06937,-8.47051 41.08082,-27.04472 45.98856,-50.21333 2.20852,-10.42604 2.21984,-320.41963 0.0121,-330.97131 -3.85179,-18.40915 -18.32882,-36.85612 -35.50065,-45.23577 -17.08682,-8.33813 -6.88588,-7.76423 -138,-7.76423 -109.52804,0 -116.88899,0.1087 -123,1.8166 -24.58896,6.87217 -43.19266,25.1755 -49.78224,48.97849 -1.59108,5.7473 -1.71776,18.15238 -1.71776,168.20491 l 0,162 2.33157,7.5 c 3.55715,11.44237 8.53597,19.54195 17.5805,28.60011 6.64799,6.658 9.77927,8.92401 17.58793,12.72783 16.29799,7.93922 8.99821,7.55584 140,7.35271 l 116.5,-0.18065 8,-2.81536 z M 680.53547,-622.7547 c -3.53222,-2.77844 -5.61488,-7.01073 -5.61488,-11.41031 0,-3.13045 0.90953,-4.49492 7,-10.50139 l 7,-6.90345 -0.0197,-13.29828 -0.0197,-13.29827 -5.69208,-4.5 c -13.39518,-10.58987 -13.57851,-17.99024 -0.78793,-31.80559 l 5.5195,-5.96172 0,-11.89765 0,-11.89765 -6.10996,-5.96869 c -3.36048,-3.28279 -6.77088,-7.50147 -7.57867,-9.37485 -1.34688,-3.12363 -1.31026,-3.62131 0.44146,-6 2.54801,-3.45998 11.45153,-8.76525 18.24717,-10.87279 7.43171,-2.3048 23.56829,-2.3048 31,0 6.79564,2.10754 15.69916,7.41281 18.24717,10.87279 1.75172,2.37869 1.78834,2.87637 0.44146,6 -0.80779,1.87338 -4.21819,6.09206 -7.57867,9.37485 l -6.10996,5.96869 0,11.89765 0,11.89765 5.5195,5.96172 c 6.73045,7.26969 9.4805,12.42955 9.4805,17.7881 0,3.35023 -0.70202,4.82378 -4.00553,8.40767 -2.20305,2.39002 -5.80305,5.59116 -8,7.11365 l -3.99447,2.76817 0,13.41227 0,13.41228 7,6.90345 c 6.23002,6.1441 6.99959,7.32125 6.99626,10.70173 -0.004,4.3788 -2.7632,9.44423 -6.46478,11.8696 -3.63585,2.3823 -11.05795,1.50206 -16.0738,-1.9063 -3.28839,-2.23451 -5.00964,-2.66503 -10.65509,-2.66503 -5.76337,0 -7.41446,0.43209 -11.46364,3 -5.90525,3.74499 -12.65439,4.11292 -16.72407,0.9117 z m 36.15322,-34.6526 -0.2681,-23.74089 -4.59593,-0.83914 c -2.92092,-0.53331 -6.1099,-0.43146 -8.75,0.27944 l -4.15407,1.11858 0,23.46145 0,23.46146 9.0181,0 9.0181,0 -0.2681,-23.7409 z m 4.2319,-34.29457 c 0,-3.39956 -3.82282,-5.38914 -11.15036,-5.80318 -8.53737,-0.48241 -14.84964,1.78592 -14.84964,5.33625 0,2.14782 0.27277,2.19309 13,2.15767 11.41402,-0.0318 13,-0.23804 13,-1.69074 z m -0.2077,-11.95714 c -0.41988,-3.58056 -4.95114,-5.51622 -12.7923,-5.46461 -7.29364,0.048 -13,2.38157 -13,5.31623 0,0.99421 0.1875,1.99516 0.41667,2.22432 0.22916,0.22917 6.0982,0.41667 13.04229,0.41667 l 12.62564,0 -0.2923,-2.49261 z m -2.79224,-28.80705 c -5e-5,-14.05076 0.30674,-17.89295 1.6336,-20.45881 0.89851,-1.73753 1.67951,-4.9079 1.73556,-7.04527 0.0843,-3.21641 -0.47873,-4.40491 -3.26729,-6.89649 -3.17914,-2.84057 -3.75706,-2.98845 -10.24611,-2.62178 -5.78821,0.32706 -7.28995,0.8016 -9.48575,2.9974 -3.0587,3.05869 -3.5037,9.44553 -0.93162,13.37101 1.26746,1.9344 1.56168,5.73274 1.56222,20.16842 l 6.8e-4,17.78518 9.49938,0 9.49938,0 -5e-5,-17.29966 z m 56.54868,108.70831 c -2.14662,-1.88476 -3.94229,-4.65648 -4.60062,-7.10133 -0.97054,-3.60431 -0.82551,-4.39421 1.43366,-7.80804 1.38239,-2.08893 4.78679,-5.75583 7.56534,-8.14867 l 5.0519,-4.35061 4.9e-4,-13.66844 4.9e-4,-13.66844 -3.35648,-2.07442 c -1.84606,-1.14093 -5.44606,-4.30835 -8,-7.03872 -3.97818,-4.253 -4.64352,-5.55774 -4.64352,-9.10601 0,-5.68499 2.37443,-10.20206 9.19601,-17.49435 l 5.80399,-6.20448 0,-11.67475 0,-11.67474 -6.95625,-7.34943 c -8.16781,-8.62946 -9.32359,-11.55499 -5.97373,-15.12075 6.61106,-7.03716 20.93226,-12.43784 32.90988,-12.41069 11.76852,0.0267 24.33732,4.17404 31.87754,10.51872 2.39143,2.01225 3.14256,3.45888 3.14256,6.05238 0,2.85105 -1.14413,4.61256 -7,10.77727 l -7,7.36918 0,11.75018 0,11.75018 5.64409,6.09629 c 13.16383,14.21851 12.29322,22.83215 -3.39409,33.58044 l -3.25,2.22677 0,13.88213 0,13.88214 4.52555,3.78289 c 5.87643,4.91208 9.47539,10.18297 9.47071,13.8704 -0.005,3.61526 -3.02592,8.76435 -6.46478,11.01758 -3.63596,2.38238 -11.33785,1.48435 -16.48546,-1.92218 -3.297,-2.18185 -5.14737,-2.64915 -10.48985,-2.64915 -5.48957,0 -7.21389,0.46116 -11.21722,3 -6.66782,4.2286 -12.90654,4.19657 -17.79021,-0.0913 z m 37.21936,-33.64955 -0.2681,-23.74089 -4.59593,-0.83914 c -2.92092,-0.53331 -6.1099,-0.43146 -8.75,0.27944 l -4.15407,1.11858 0,23.46145 0,23.46146 9.0181,0 9.0181,0 -0.2681,-23.7409 z m 4.2319,-34.42897 c 0,-3.20398 -5.74393,-5.8222 -12.78212,-5.82639 -8.12537,-0.005 -13.21788,2.03329 -13.21788,5.29006 l 0,2.39586 13,0 c 12.00598,0 13,-0.14219 13,-1.85953 z m -6e-5,-11.63636 c 9e-5,-3.5055 -7.66391,-6.61147 -14.55809,-5.89992 -6.91689,0.71388 -11.44185,3.09274 -11.44185,6.01521 0,2.22952 0.1622,2.25728 12.99994,2.22432 12.899,-0.0331 12.99994,-0.0513 13,-2.33961 z m -3.99994,-28.44739 c 0,-14.84311 0.22807,-17.17916 2,-20.4852 1.1,-2.05236 2,-5.61072 2,-7.90748 0,-3.46961 -0.54083,-4.63099 -3.19757,-6.86649 -2.93118,-2.46642 -3.77404,-2.658 -10.11715,-2.29958 -6.3058,0.3563 -7.1753,0.67718 -9.80243,3.61745 -3.38285,3.78607 -3.55008,6.12768 -0.86089,12.05412 1.72424,3.79989 1.97804,6.55851 1.97804,21.5 l 0,17.1408 9,0 9,0 0,-16.75362 z m 57.41996,109.42735 c -1.69401,-1.06569 -3.83151,-3.52124 -4.75,-5.4568 -2.97817,-6.27604 -2.32525,-8.25428 5.33004,-16.14922 l 7,-7.21913 0,-13.58912 0,-13.58912 -5.03197,-3.69381 c -13.75651,-10.0982 -14.13697,-18.40874 -1.46609,-32.02372 l 5.49806,-5.9077 0,-12.30084 0,-12.30083 -5.59728,-5.2095 c -9.18562,-8.54924 -10.47824,-12.99269 -5.21099,-17.91304 15.0693,-14.07684 47.27003,-14.2398 62.68067,-0.31721 2.44443,2.20839 4.1276,4.62182 4.1276,5.91839 0,2.73198 -3.27214,7.22059 -9.88751,13.56334 l -5.11249,4.90181 0,11.84398 0,11.84397 5.078,4.96241 c 5.42041,5.29702 9.27126,11.18041 10.34671,15.80785 1.12371,4.83509 -2.77894,11.23476 -10.08028,16.52992 l -6.34443,4.60117 0,13.29596 0,13.29596 6.37947,5.96768 c 3.50871,3.28222 6.92734,7.29036 7.59696,8.90697 2.74179,6.61927 -4.34136,16.0569 -12.05106,16.0569 -3.87638,0 -11.13703,-2.91543 -12.41654,-4.98571 -0.34477,-0.55786 -4.00533,-1.01429 -8.13457,-1.01429 -6.59758,0 -7.93265,0.32412 -11.01312,2.67371 -4.6922,3.57892 -12.53297,4.27316 -16.94118,1.50002 z m 35.34814,-34.92373 -0.2681,-23.75 -4.5,-0.86351 c -2.93753,-0.56369 -5.97566,-0.4635 -8.75,0.28854 l -4.25,1.15206 0,23.46145 0,23.46146 9.0181,0 9.0181,0 -0.2681,-23.75 z m 4.6319,-34 c -0.055,-0.6875 -0.1675,-1.72296 -0.25,-2.30103 -0.26646,-1.86707 -6.93553,-3.94897 -12.65,-3.94897 -8.26647,0 -14.47092,3.02745 -13.16719,6.42491 0.71485,1.86286 26.21652,1.69174 26.06719,-0.17491 z m 0.1,-11.68009 c 0,-5.15235 -11.53429,-8.04784 -20.36923,-5.11335 -4.50311,1.4957 -5.13077,2.03771 -5.13077,4.43066 l 0,2.72648 12.75,-0.0949 c 11.71472,-0.0872 12.75,-0.2454 12.75,-1.94893 z m -3.5,-29.10847 c 0,-15.06426 0.23174,-17.49311 2,-20.96144 2.36575,-4.64028 2.51573,-7.60202 0.575,-11.35497 -1.84057,-3.55926 -5.43795,-5.14503 -11.67171,-5.14503 -11.23503,0 -16.33829,7.85382 -10.89955,16.77417 1.79104,2.93758 1.99626,5.04502 1.99626,20.5 l 0,17.22583 9,0 9,0 0,-17.03856 z m -223.5,-64.8611 c -6.35439,-2.84961 -10.37451,-10.17002 -8.41515,-15.3235 0.54118,-1.42344 3.89349,-5.37152 7.44956,-8.77353 l 6.46559,-6.18546 0,-13.43312 0,-13.43312 -6.01297,-4.37876 c -13.23204,-9.63581 -13.36478,-17.99 -0.50653,-31.87844 l 5.5195,-5.96172 0,-11.70894 0,-11.70893 -6.35837,-6.35837 c -7.75761,-7.75761 -9.56164,-11.4034 -7.32887,-14.81103 2.29112,-3.49669 9.98101,-8.23995 17.53442,-10.81553 13.87634,-4.7316 33.37897,-2.33549 44.78226,5.50197 9.12713,6.27306 8.92496,9.70311 -1.16114,19.69956 l -6.4683,6.4108 0,11.87161 0,11.8716 5.48557,6.06175 c 6.45784,7.13614 9.51443,12.95458 9.51443,18.11139 0,3.055 -0.83737,4.62233 -4.64352,8.69141 -2.55394,2.73037 -6.15394,5.89779 -8,7.03872 l -3.35648,2.07442 0,13.59273 0,13.59273 7,7.21913 c 7.81472,8.05935 8.71319,11.11031 5.044,17.12796 -4.52663,7.42388 -11.7458,8.65355 -20.14621,3.43158 -4.36248,-2.71187 -5.94379,-3.12725 -11.90522,-3.12725 -3.78099,0 -7.15663,0.45643 -7.5014,1.01429 -0.89586,1.44954 -7.45897,4.6361 -10.99117,5.33651 -1.68052,0.33324 -4.31948,0.003 -6,-0.75046 z m 33.5,-35.99335 c 0,-26.54773 0.70982,-24.60699 -9,-24.60699 -9.70982,0 -9,-1.94074 -9,24.60699 l 0,23.39301 9,0 9,0 0,-23.39301 z m -7.5,-32.81414 c 2.75,0.16107 6.35,0.38607 8,0.5 2.58857,0.17874 3,-0.13571 3,-2.29285 0,-1.85744 -0.89959,-2.94939 -3.5,-4.24845 -7.19463,-3.59412 -22,-1.11061 -22,3.69036 0,3.24682 0.96826,3.75314 5.46777,2.8592 2.21773,-0.44061 6.28223,-0.66933 9.03223,-0.50826 z m 11.5,-13.49547 c 0,-4.95935 -11.87636,-7.60141 -20.5,-4.5605 -4.05735,1.43072 -5.05629,2.24666 -5.29855,4.3279 l -0.29855,2.56478 13.04855,-0.0431 c 12.84552,-0.0424 13.04855,-0.078 13.04855,-2.28908 z m -4,-28.52321 c 0,-14.95529 0.21132,-17.07242 1.99626,-20 2.80681,-4.60359 2.64854,-10.91302 -0.36153,-14.41243 -2.02569,-2.355 -3.28194,-2.8063 -8.75,-3.14337 -5.4476,-0.33581 -6.89372,-0.0478 -9.8525,1.96214 -4.88766,3.32028 -5.81618,7.25882 -3.1384,13.31239 1.87418,4.23688 2.10617,6.64741 2.10617,21.88422 l 0,17.12288 9,0 9,0 0,-16.72583 z m 62.24715,111.38605 c -3.59616,-1.05389 -8.10694,-5.96019 -9.37696,-10.19916 -1.07087,-3.57423 -0.94931,-4.24311 1.42242,-7.82703 1.42634,-2.15535 4.869,-5.83768 7.65037,-8.18296 l 5.05702,-4.26414 -0.0468,-13.59347 -0.0468,-13.59346 -5.0527,-3.5 c -6.98997,-4.84195 -10.85362,-10.27023 -10.85362,-15.24891 0,-5.49209 2.43574,-10.07472 9.19601,-17.30147 l 5.80399,-6.20448 0,-11.53251 0,-11.53251 -6.8844,-6.92549 c -8.44516,-8.49556 -9.66321,-12.02984 -5.60558,-16.26509 6.25493,-6.52874 21.18342,-11.93159 33.08002,-11.97218 6.59278,-0.0225 19.61486,3.32572 24.82379,6.38263 12.03205,7.06112 12.46421,10.56416 2.58617,20.96316 l -7,7.36918 0,12.06568 0,12.06568 5.51723,5.78802 c 8.7196,9.14757 11.23137,16.06618 8.05955,22.19982 -1.55129,2.99985 -9.00482,10.23681 -12.43249,12.07125 -2.03327,1.08817 -2.14429,1.86169 -2.14429,14.93999 l 0,13.7924 7,7 c 6.01856,6.01856 7,7.49416 7,10.52453 0,4.59069 -3.55453,9.84355 -8.20455,12.12464 -4.37154,2.14448 -9.22891,1.24796 -15.20268,-2.80594 -5.52227,-3.74752 -14.70072,-3.56524 -21.27632,0.42253 -5.26511,3.19302 -9.57886,4.26221 -13.0693,3.23929 z m 32.75285,-36.55323 c 0,-26.54773 0.70982,-24.60699 -9,-24.60699 -9.70982,0 -9,-1.94074 -9,24.60699 l 0,23.39301 9,0 9,0 0,-23.39301 z m -7.5,-32.81414 c 2.75,0.16107 6.35,0.38607 8,0.5 2.58857,0.17874 3,-0.13571 3,-2.29285 0,-1.85744 -0.89959,-2.94939 -3.5,-4.24845 -7.19463,-3.59412 -22,-1.11061 -22,3.69036 0,3.24682 0.96826,3.75314 5.46777,2.8592 2.21773,-0.44061 6.28223,-0.66933 9.03223,-0.50826 z m 11.5,-13.49547 c 0,-3.28332 -5.18462,-5.63059 -12.5,-5.6592 -7.77029,-0.0304 -13.5,2.35716 -13.5,5.62541 l 0,2.36565 13,-0.0429 c 12.79525,-0.0422 13,-0.0783 13,-2.28894 z m -4,-28.551 c 0,-14.84311 0.22807,-17.17916 2,-20.48519 2.1799,-4.06722 2.59121,-9.28798 0.97036,-12.31658 -2.76657,-5.16937 -14.10656,-6.67521 -20.05928,-2.66367 -4.99725,3.36765 -5.75974,6.55945 -3.09998,12.9766 1.95859,4.72545 2.1889,7.06777 2.1889,22.26179 l 0,16.98067 9,0 9,0 0,-16.75362 z m 59.01993,110.50207 c -4.49213,-2.25693 -8.01993,-7.56571 -8.01993,-12.06875 0,-3.03037 0.98144,-4.50597 7,-10.52453 l 7,-7 -0.0197,-13.57758 -0.0198,-13.57759 -5.69208,-4.5 c -13.26053,-10.48342 -13.40746,-18.10699 -0.60779,-31.53489 l 5.33936,-5.60142 0,-12.06568 0,-12.06568 -7,-7.36918 c -9.87804,-10.399 -9.44588,-13.90204 2.58617,-20.96316 5.20893,-3.05691 18.23101,-6.40512 24.82379,-6.38263 11.59402,0.0395 24.59388,4.53507 32.05312,11.08437 5.65354,4.96387 4.48031,8.65546 -5.8936,18.54435 l -5.56948,5.30909 0,11.64498 0,11.64499 5.80399,6.20448 c 6.72982,7.19419 9.19751,11.81199 9.19227,17.20151 -0.005,5.28759 -2.69788,9.24374 -9.8263,14.43666 l -6.05673,4.41221 -0.0566,13.59346 -0.0566,13.59347 5.05702,4.26414 c 2.78137,2.34528 6.22403,6.02761 7.65037,8.18296 2.37423,3.5877 2.49409,4.25011 1.41857,7.83988 -1.44981,4.83903 -6.00997,9.55289 -10.01661,10.35422 -3.53174,0.70635 -8.22471,-0.72429 -13.09148,-3.9909 -2.80873,-1.88522 -4.81149,-2.33723 -10.35568,-2.33723 -5.84417,0 -7.3116,0.36863 -9.79892,2.46157 -2.57406,2.16593 -8.47666,4.51969 -11.3633,4.5313 -0.55,0.002 -2.56603,-0.78278 -4.48007,-1.74442 z m 33.74817,-35.99845 -0.2681,-23.75 -5.5,-0.31263 c -3.025,-0.17195 -6.9625,-0.0391 -8.75,0.29531 l -3.25,0.60795 0,23.45468 0,23.45469 9.0181,0 9.0181,0 -0.2681,-23.75 z m -6.2681,-32.47344 c 2.75,0.14361 6.125,0.36513 7.5,0.49227 2.00836,0.18571 2.55829,-0.26886 2.79641,-2.31148 0.39891,-3.42181 -4.86276,-5.95735 -12.36246,-5.95735 -8.99118,0 -14.67594,3.32105 -13.02942,7.61182 0.51592,1.34444 1.40453,1.47014 5.35699,0.75773 2.60617,-0.46975 6.98848,-0.73659 9.73848,-0.59299 z m 11.3052,-13.00358 c 0.39891,-2.07138 -4.52464,-5.31016 -9.48789,-6.24127 -5.37442,-1.00825 -14.08126,1.1784 -15.93059,4.00083 -0.85751,1.30873 -1.31271,2.77819 -1.01156,3.26547 0.30116,0.48728 6.29661,0.84287 13.32323,0.7902 11.24032,-0.0843 12.81547,-0.30241 13.10681,-1.81523 z m -3.8052,-29.31154 c 0,-15.06426 0.23174,-17.49311 2,-20.96144 4.66814,-9.15628 0.0232,-16.5 -10.43641,-16.5 -11.92103,0 -16.67262,6.98547 -11.56359,17 1.76492,3.45954 2,5.89377 2,20.71016 l 0,16.78984 9,0 9,0 0,-17.03856 z"
         id="path4329"
         inkscape:connector-curvature="0" />
      <path
         style="fill:#868f85"
         d="m 686.58111,-564.7982 c -25.04735,-3.21834 -46.27552,-18.51736 -57.25941,-41.26651 -6.85118,-14.18974 -6.49305,-3.49549 -6.18196,-184.60169 l 0.28085,-163.5 2.33208,-6.5 c 4.07386,-11.35473 9.00661,-19.01974 18.07739,-28.09053 9.47737,-9.47736 17.62277,-14.59267 29.92388,-18.79217 l 7.66665,-2.6173 120,0 120,0 7.46476,2.344 c 25.54132,8.02026 43.19457,25.99393 50.73509,51.656 1.64453,5.59669 1.78428,16.45246 2.07905,161.5 0.21239,104.51131 -0.0306,158.73862 -0.74097,165.3768 -1.19067,11.12597 -4.31394,21.1016 -9.21714,29.43922 -4.30788,7.32529 -17.76391,20.74571 -25.1739,25.10727 -8.37036,4.92683 -20.44775,8.91767 -30.45887,10.06479 -10.81042,1.2387 -219.80357,1.12955 -229.5275,-0.11988 z m 241.83948,-6.71687 c 12.0826,-4.054 20.4077,-9.04428 28.59509,-17.14066 8.3078,-8.21545 13.38697,-16.39678 17.07931,-27.51067 l 2.3256,-7 0,-164.5 0,-164.5 -2.82292,-8 c -6.43885,-18.24732 -17.79165,-30.93624 -34.896,-39.00294 -15.77606,-7.44026 -6.43955,-6.92946 -132.67283,-7.25876 -122.75114,-0.3202 -122.66731,-0.3233 -135.93549,5.0359 -9.41166,3.80157 -16.62025,8.54657 -23.47923,15.45506 -7.64033,7.69548 -12.91286,16.25761 -16.47234,26.74966 l -2.72119,8.02108 0,163 c 0,155.13168 0.0886,163.31377 1.83635,169.5 6.98293,24.71691 26.42165,42.80159 52.16365,48.53005 4.8432,1.07778 28.55756,1.3 123,1.15258 l 117,-0.18263 7,-2.34867 z M 680.53547,-622.7547 c -3.53222,-2.77844 -5.61488,-7.01073 -5.61488,-11.41031 0,-3.13045 0.90953,-4.49492 7,-10.50139 l 7,-6.90345 -0.0197,-13.29828 -0.0197,-13.29827 -5.69208,-4.5 c -13.39518,-10.58987 -13.57851,-17.99024 -0.78793,-31.80559 l 5.5195,-5.96172 0,-11.89765 0,-11.89765 -6.10996,-5.96869 c -3.36048,-3.28279 -6.77088,-7.50147 -7.57867,-9.37485 -1.34688,-3.12363 -1.31026,-3.62131 0.44146,-6 2.54801,-3.45998 11.45153,-8.76525 18.24717,-10.87279 7.43171,-2.3048 23.56829,-2.3048 31,0 6.79564,2.10754 15.69916,7.41281 18.24717,10.87279 1.75172,2.37869 1.78834,2.87637 0.44146,6 -0.80779,1.87338 -4.21819,6.09206 -7.57867,9.37485 l -6.10996,5.96869 0,11.89765 0,11.89765 5.5195,5.96172 c 6.73045,7.26969 9.4805,12.42955 9.4805,17.7881 0,3.35023 -0.70202,4.82378 -4.00553,8.40767 -2.20305,2.39002 -5.80305,5.59116 -8,7.11365 l -3.99447,2.76817 0,13.41227 0,13.41228 7,6.90345 c 6.23002,6.1441 6.99959,7.32125 6.99626,10.70173 -0.004,4.3788 -2.7632,9.44423 -6.46478,11.8696 -3.63585,2.3823 -11.05795,1.50206 -16.0738,-1.9063 -3.28839,-2.23451 -5.00964,-2.66503 -10.65509,-2.66503 -5.76337,0 -7.41446,0.43209 -11.46364,3 -5.90525,3.74499 -12.65439,4.11292 -16.72407,0.9117 z m 36.15322,-34.6526 -0.2681,-23.74089 -4.59593,-0.83914 c -2.92092,-0.53331 -6.1099,-0.43146 -8.75,0.27944 l -4.15407,1.11858 0,23.46145 0,23.46146 9.0181,0 9.0181,0 -0.2681,-23.7409 z m 4.2319,-34.29457 c 0,-3.39956 -3.82282,-5.38914 -11.15036,-5.80318 -8.53737,-0.48241 -14.84964,1.78592 -14.84964,5.33625 0,2.14782 0.27277,2.19309 13,2.15767 11.41402,-0.0318 13,-0.23804 13,-1.69074 z m -0.2077,-11.95714 c -0.41988,-3.58056 -4.95114,-5.51622 -12.7923,-5.46461 -7.29364,0.048 -13,2.38157 -13,5.31623 0,0.99421 0.1875,1.99516 0.41667,2.22432 0.22916,0.22917 6.0982,0.41667 13.04229,0.41667 l 12.62564,0 -0.2923,-2.49261 z m -2.79224,-28.80705 c -5e-5,-14.05076 0.30674,-17.89295 1.6336,-20.45881 0.89851,-1.73753 1.67951,-4.9079 1.73556,-7.04527 0.0843,-3.21641 -0.47873,-4.40491 -3.26729,-6.89649 -3.17914,-2.84057 -3.75706,-2.98845 -10.24611,-2.62178 -5.78821,0.32706 -7.28995,0.8016 -9.48575,2.9974 -3.0587,3.05869 -3.5037,9.44553 -0.93162,13.37101 1.26746,1.9344 1.56168,5.73274 1.56222,20.16842 l 6.8e-4,17.78518 9.49938,0 9.49938,0 -5e-5,-17.29966 z m 56.54868,108.70831 c -2.14662,-1.88476 -3.94229,-4.65648 -4.60062,-7.10133 -0.97054,-3.60431 -0.82551,-4.39421 1.43366,-7.80804 1.38239,-2.08893 4.78679,-5.75583 7.56534,-8.14867 l 5.0519,-4.35061 4.9e-4,-13.66844 4.9e-4,-13.66844 -3.35648,-2.07442 c -1.84606,-1.14093 -5.44606,-4.30835 -8,-7.03872 -3.97818,-4.253 -4.64352,-5.55774 -4.64352,-9.10601 0,-5.68499 2.37443,-10.20206 9.19601,-17.49435 l 5.80399,-6.20448 0,-11.67475 0,-11.67474 -6.95625,-7.34943 c -8.16781,-8.62946 -9.32359,-11.55499 -5.97373,-15.12075 6.61106,-7.03716 20.93226,-12.43784 32.90988,-12.41069 11.76852,0.0267 24.33732,4.17404 31.87754,10.51872 2.39143,2.01225 3.14256,3.45888 3.14256,6.05238 0,2.85105 -1.14413,4.61256 -7,10.77727 l -7,7.36918 0,11.75018 0,11.75018 5.64409,6.09629 c 13.16383,14.21851 12.29322,22.83215 -3.39409,33.58044 l -3.25,2.22677 0,13.88213 0,13.88214 4.52555,3.78289 c 5.87643,4.91208 9.47539,10.18297 9.47071,13.8704 -0.005,3.61526 -3.02592,8.76435 -6.46478,11.01758 -3.63596,2.38238 -11.33785,1.48435 -16.48546,-1.92218 -3.297,-2.18185 -5.14737,-2.64915 -10.48985,-2.64915 -5.48957,0 -7.21389,0.46116 -11.21722,3 -6.66782,4.2286 -12.90654,4.19657 -17.79021,-0.0913 z m 37.21936,-33.64955 -0.2681,-23.74089 -4.59593,-0.83914 c -2.92092,-0.53331 -6.1099,-0.43146 -8.75,0.27944 l -4.15407,1.11858 0,23.46145 0,23.46146 9.0181,0 9.0181,0 -0.2681,-23.7409 z m 4.2319,-34.42897 c 0,-3.20398 -5.74393,-5.8222 -12.78212,-5.82639 -8.12537,-0.005 -13.21788,2.03329 -13.21788,5.29006 l 0,2.39586 13,0 c 12.00598,0 13,-0.14219 13,-1.85953 z m -6e-5,-11.63636 c 9e-5,-3.5055 -7.66391,-6.61147 -14.55809,-5.89992 -6.91689,0.71388 -11.44185,3.09274 -11.44185,6.01521 0,2.22952 0.1622,2.25728 12.99994,2.22432 12.899,-0.0331 12.99994,-0.0513 13,-2.33961 z m -3.99994,-28.44739 c 0,-14.84311 0.22807,-17.17916 2,-20.4852 1.1,-2.05236 2,-5.61072 2,-7.90748 0,-3.46961 -0.54083,-4.63099 -3.19757,-6.86649 -2.93118,-2.46642 -3.77404,-2.658 -10.11715,-2.29958 -6.3058,0.3563 -7.1753,0.67718 -9.80243,3.61745 -3.38285,3.78607 -3.55008,6.12768 -0.86089,12.05412 1.72424,3.79989 1.97804,6.55851 1.97804,21.5 l 0,17.1408 9,0 9,0 0,-16.75362 z m 57.41996,109.42735 c -1.69401,-1.06569 -3.83151,-3.52124 -4.75,-5.4568 -2.97817,-6.27604 -2.32525,-8.25428 5.33004,-16.14922 l 7,-7.21913 0,-13.58912 0,-13.58912 -5.03197,-3.69381 c -13.75651,-10.0982 -14.13697,-18.40874 -1.46609,-32.02372 l 5.49806,-5.9077 0,-12.30084 0,-12.30083 -5.59728,-5.2095 c -9.18562,-8.54924 -10.47824,-12.99269 -5.21099,-17.91304 15.0693,-14.07684 47.27003,-14.2398 62.68067,-0.31721 2.44443,2.20839 4.1276,4.62182 4.1276,5.91839 0,2.73198 -3.27214,7.22059 -9.88751,13.56334 l -5.11249,4.90181 0,11.84398 0,11.84397 5.078,4.96241 c 5.42041,5.29702 9.27126,11.18041 10.34671,15.80785 1.12371,4.83509 -2.77894,11.23476 -10.08028,16.52992 l -6.34443,4.60117 0,13.29596 0,13.29596 6.37947,5.96768 c 3.50871,3.28222 6.92734,7.29036 7.59696,8.90697 2.74179,6.61927 -4.34136,16.0569 -12.05106,16.0569 -3.87638,0 -11.13703,-2.91543 -12.41654,-4.98571 -0.34477,-0.55786 -4.00533,-1.01429 -8.13457,-1.01429 -6.59758,0 -7.93265,0.32412 -11.01312,2.67371 -4.6922,3.57892 -12.53297,4.27316 -16.94118,1.50002 z m 35.34814,-34.92373 -0.2681,-23.75 -4.5,-0.86351 c -2.93753,-0.56369 -5.97566,-0.4635 -8.75,0.28854 l -4.25,1.15206 0,23.46145 0,23.46146 9.0181,0 9.0181,0 -0.2681,-23.75 z m 4.6319,-34 c -0.055,-0.6875 -0.1675,-1.72296 -0.25,-2.30103 -0.26646,-1.86707 -6.93553,-3.94897 -12.65,-3.94897 -8.26647,0 -14.47092,3.02745 -13.16719,6.42491 0.71485,1.86286 26.21652,1.69174 26.06719,-0.17491 z m 0.1,-11.68009 c 0,-5.15235 -11.53429,-8.04784 -20.36923,-5.11335 -4.50311,1.4957 -5.13077,2.03771 -5.13077,4.43066 l 0,2.72648 12.75,-0.0949 c 11.71472,-0.0872 12.75,-0.2454 12.75,-1.94893 z m -3.5,-29.10847 c 0,-15.06426 0.23174,-17.49311 2,-20.96144 2.36575,-4.64028 2.51573,-7.60202 0.575,-11.35497 -1.84057,-3.55926 -5.43795,-5.14503 -11.67171,-5.14503 -11.23503,0 -16.33829,7.85382 -10.89955,16.77417 1.79104,2.93758 1.99626,5.04502 1.99626,20.5 l 0,17.22583 9,0 9,0 0,-17.03856 z m -223.5,-64.8611 c -6.35439,-2.84961 -10.37451,-10.17002 -8.41515,-15.3235 0.54118,-1.42344 3.89349,-5.37152 7.44956,-8.77353 l 6.46559,-6.18546 0,-13.43312 0,-13.43312 -6.01297,-4.37876 c -13.23204,-9.63581 -13.36478,-17.99 -0.50653,-31.87844 l 5.5195,-5.96172 0,-11.70894 0,-11.70893 -6.35837,-6.35837 c -7.75761,-7.75761 -9.56164,-11.4034 -7.32887,-14.81103 2.29112,-3.49669 9.98101,-8.23995 17.53442,-10.81553 13.87634,-4.7316 33.37897,-2.33549 44.78226,5.50197 9.12713,6.27306 8.92496,9.70311 -1.16114,19.69956 l -6.4683,6.4108 0,11.87161 0,11.8716 5.48557,6.06175 c 6.45784,7.13614 9.51443,12.95458 9.51443,18.11139 0,3.055 -0.83737,4.62233 -4.64352,8.69141 -2.55394,2.73037 -6.15394,5.89779 -8,7.03872 l -3.35648,2.07442 0,13.59273 0,13.59273 7,7.21913 c 7.81472,8.05935 8.71319,11.11031 5.044,17.12796 -4.52663,7.42388 -11.7458,8.65355 -20.14621,3.43158 -4.36248,-2.71187 -5.94379,-3.12725 -11.90522,-3.12725 -3.78099,0 -7.15663,0.45643 -7.5014,1.01429 -0.89586,1.44954 -7.45897,4.6361 -10.99117,5.33651 -1.68052,0.33324 -4.31948,0.003 -6,-0.75046 z m 33.5,-35.99335 c 0,-26.54773 0.70982,-24.60699 -9,-24.60699 -9.70982,0 -9,-1.94074 -9,24.60699 l 0,23.39301 9,0 9,0 0,-23.39301 z m -7.5,-32.81414 c 2.75,0.16107 6.35,0.38607 8,0.5 2.58857,0.17874 3,-0.13571 3,-2.29285 0,-1.85744 -0.89959,-2.94939 -3.5,-4.24845 -7.19463,-3.59412 -22,-1.11061 -22,3.69036 0,3.24682 0.96826,3.75314 5.46777,2.8592 2.21773,-0.44061 6.28223,-0.66933 9.03223,-0.50826 z m 11.5,-13.49547 c 0,-4.95935 -11.87636,-7.60141 -20.5,-4.5605 -4.05735,1.43072 -5.05629,2.24666 -5.29855,4.3279 l -0.29855,2.56478 13.04855,-0.0431 c 12.84552,-0.0424 13.04855,-0.078 13.04855,-2.28908 z m -4,-28.52321 c 0,-14.95529 0.21132,-17.07242 1.99626,-20 2.80681,-4.60359 2.64854,-10.91302 -0.36153,-14.41243 -2.02569,-2.355 -3.28194,-2.8063 -8.75,-3.14337 -5.4476,-0.33581 -6.89372,-0.0478 -9.8525,1.96214 -4.88766,3.32028 -5.81618,7.25882 -3.1384,13.31239 1.87418,4.23688 2.10617,6.64741 2.10617,21.88422 l 0,17.12288 9,0 9,0 0,-16.72583 z m 62.24715,111.38605 c -3.59616,-1.05389 -8.10694,-5.96019 -9.37696,-10.19916 -1.07087,-3.57423 -0.94931,-4.24311 1.42242,-7.82703 1.42634,-2.15535 4.869,-5.83768 7.65037,-8.18296 l 5.05702,-4.26414 -0.0468,-13.59347 -0.0468,-13.59346 -5.0527,-3.5 c -6.98997,-4.84195 -10.85362,-10.27023 -10.85362,-15.24891 0,-5.49209 2.43574,-10.07472 9.19601,-17.30147 l 5.80399,-6.20448 0,-11.53251 0,-11.53251 -6.8844,-6.92549 c -8.44516,-8.49556 -9.66321,-12.02984 -5.60558,-16.26509 6.25493,-6.52874 21.18342,-11.93159 33.08002,-11.97218 6.59278,-0.0225 19.61486,3.32572 24.82379,6.38263 12.03205,7.06112 12.46421,10.56416 2.58617,20.96316 l -7,7.36918 0,12.06568 0,12.06568 5.51723,5.78802 c 8.7196,9.14757 11.23137,16.06618 8.05955,22.19982 -1.55129,2.99985 -9.00482,10.23681 -12.43249,12.07125 -2.03327,1.08817 -2.14429,1.86169 -2.14429,14.93999 l 0,13.7924 7,7 c 6.01856,6.01856 7,7.49416 7,10.52453 0,4.59069 -3.55453,9.84355 -8.20455,12.12464 -4.37154,2.14448 -9.22891,1.24796 -15.20268,-2.80594 -5.52227,-3.74752 -14.70072,-3.56524 -21.27632,0.42253 -5.26511,3.19302 -9.57886,4.26221 -13.0693,3.23929 z m 32.75285,-36.55323 c 0,-26.54773 0.70982,-24.60699 -9,-24.60699 -9.70982,0 -9,-1.94074 -9,24.60699 l 0,23.39301 9,0 9,0 0,-23.39301 z m -7.5,-32.81414 c 2.75,0.16107 6.35,0.38607 8,0.5 2.58857,0.17874 3,-0.13571 3,-2.29285 0,-1.85744 -0.89959,-2.94939 -3.5,-4.24845 -7.19463,-3.59412 -22,-1.11061 -22,3.69036 0,3.24682 0.96826,3.75314 5.46777,2.8592 2.21773,-0.44061 6.28223,-0.66933 9.03223,-0.50826 z m 11.5,-13.49547 c 0,-3.28332 -5.18462,-5.63059 -12.5,-5.6592 -7.77029,-0.0304 -13.5,2.35716 -13.5,5.62541 l 0,2.36565 13,-0.0429 c 12.79525,-0.0422 13,-0.0783 13,-2.28894 z m -4,-28.551 c 0,-14.84311 0.22807,-17.17916 2,-20.48519 2.1799,-4.06722 2.59121,-9.28798 0.97036,-12.31658 -2.76657,-5.16937 -14.10656,-6.67521 -20.05928,-2.66367 -4.99725,3.36765 -5.75974,6.55945 -3.09998,12.9766 1.95859,4.72545 2.1889,7.06777 2.1889,22.26179 l 0,16.98067 9,0 9,0 0,-16.75362 z m 59.01993,110.50207 c -4.49213,-2.25693 -8.01993,-7.56571 -8.01993,-12.06875 0,-3.03037 0.98144,-4.50597 7,-10.52453 l 7,-7 -0.0197,-13.57758 -0.0198,-13.57759 -5.69208,-4.5 c -13.26053,-10.48342 -13.40746,-18.10699 -0.60779,-31.53489 l 5.33936,-5.60142 0,-12.06568 0,-12.06568 -7,-7.36918 c -9.87804,-10.399 -9.44588,-13.90204 2.58617,-20.96316 5.20893,-3.05691 18.23101,-6.40512 24.82379,-6.38263 11.59402,0.0395 24.59388,4.53507 32.05312,11.08437 5.65354,4.96387 4.48031,8.65546 -5.8936,18.54435 l -5.56948,5.30909 0,11.64498 0,11.64499 5.80399,6.20448 c 6.72982,7.19419 9.19751,11.81199 9.19227,17.20151 -0.005,5.28759 -2.69788,9.24374 -9.8263,14.43666 l -6.05673,4.41221 -0.0566,13.59346 -0.0566,13.59347 5.05702,4.26414 c 2.78137,2.34528 6.22403,6.02761 7.65037,8.18296 2.37423,3.5877 2.49409,4.25011 1.41857,7.83988 -1.44981,4.83903 -6.00997,9.55289 -10.01661,10.35422 -3.53174,0.70635 -8.22471,-0.72429 -13.09148,-3.9909 -2.80873,-1.88522 -4.81149,-2.33723 -10.35568,-2.33723 -5.84417,0 -7.3116,0.36863 -9.79892,2.46157 -2.57406,2.16593 -8.47666,4.51969 -11.3633,4.5313 -0.55,0.002 -2.56603,-0.78278 -4.48007,-1.74442 z m 33.74817,-35.99845 -0.2681,-23.75 -5.5,-0.31263 c -3.025,-0.17195 -6.9625,-0.0391 -8.75,0.29531 l -3.25,0.60795 0,23.45468 0,23.45469 9.0181,0 9.0181,0 -0.2681,-23.75 z m -6.2681,-32.47344 c 2.75,0.14361 6.125,0.36513 7.5,0.49227 2.00836,0.18571 2.55829,-0.26886 2.79641,-2.31148 0.39891,-3.42181 -4.86276,-5.95735 -12.36246,-5.95735 -8.99118,0 -14.67594,3.32105 -13.02942,7.61182 0.51592,1.34444 1.40453,1.47014 5.35699,0.75773 2.60617,-0.46975 6.98848,-0.73659 9.73848,-0.59299 z m 11.3052,-13.00358 c 0.39891,-2.07138 -4.52464,-5.31016 -9.48789,-6.24127 -5.37442,-1.00825 -14.08126,1.1784 -15.93059,4.00083 -0.85751,1.30873 -1.31271,2.77819 -1.01156,3.26547 0.30116,0.48728 6.29661,0.84287 13.32323,0.7902 11.24032,-0.0843 12.81547,-0.30241 13.10681,-1.81523 z m -3.8052,-29.31154 c 0,-15.06426 0.23174,-17.49311 2,-20.96144 4.66814,-9.15628 0.0232,-16.5 -10.43641,-16.5 -11.92103,0 -16.67262,6.98547 -11.56359,17 1.76492,3.45954 2,5.89377 2,20.71016 l 0,16.78984 9,0 9,0 0,-17.03856 z"
         id="path4327"
         inkscape:connector-curvature="0" />
      <path
         style="fill:#7f7f7f"
         d="m 686.58111,-564.7982 c -25.04735,-3.21834 -46.27552,-18.51736 -57.25941,-41.26651 -6.85118,-14.18974 -6.49305,-3.49549 -6.18196,-184.60169 l 0.28085,-163.5 2.33208,-6.5 c 4.07386,-11.35473 9.00661,-19.01974 18.07739,-28.09053 9.47737,-9.47736 17.62277,-14.59267 29.92388,-18.79217 l 7.66665,-2.6173 120,0 120,0 7.46476,2.344 c 25.54132,8.02026 43.19457,25.99393 50.73509,51.656 1.64453,5.59669 1.78428,16.45246 2.07905,161.5 0.21239,104.51131 -0.0306,158.73862 -0.74097,165.3768 -1.19067,11.12597 -4.31394,21.1016 -9.21714,29.43922 -4.30788,7.32529 -17.76391,20.74571 -25.1739,25.10727 -8.37036,4.92683 -20.44775,8.91767 -30.45887,10.06479 -10.81042,1.2387 -219.80357,1.12955 -229.5275,-0.11988 z m 241.83948,-6.71687 c 12.0826,-4.054 20.4077,-9.04428 28.59509,-17.14066 8.3078,-8.21545 13.38697,-16.39678 17.07931,-27.51067 l 2.3256,-7 0,-164.5 0,-164.5 -2.82292,-8 c -6.43885,-18.24732 -17.79165,-30.93624 -34.896,-39.00294 -15.77606,-7.44026 -6.43955,-6.92946 -132.67283,-7.25876 -122.75114,-0.3202 -122.66731,-0.3233 -135.93549,5.0359 -9.41166,3.80157 -16.62025,8.54657 -23.47923,15.45506 -7.64033,7.69548 -12.91286,16.25761 -16.47234,26.74966 l -2.72119,8.02108 0,163 c 0,155.13168 0.0886,163.31377 1.83635,169.5 6.98293,24.71691 26.42165,42.80159 52.16365,48.53005 4.8432,1.07778 28.55756,1.3 123,1.15258 l 117,-0.18263 7,-2.34867 z m -247.5,-51.34481 c -4.11298,-2.7871 -6.68991,-8.92156 -5.58949,-13.30598 0.40714,-1.62217 3.52007,-5.54954 7.15509,-9.02706 l 6.4344,-6.15563 0,-13.61088 0,-13.61089 -4.25,-2.94819 c -7.79411,-5.4067 -11.75,-10.9272 -11.75,-16.39727 0,-3.77651 4.16128,-10.84986 10.14817,-17.24987 l 5.85183,-6.25561 0,-10.7198 0,-10.7198 -6.36767,-6.65277 c -10.51146,-10.9821 -11.16058,-14.1307 -4.03487,-19.57158 15.87059,-12.11809 43.93449,-12.11809 59.80508,0 7.12571,5.44088 6.47659,8.58948 -4.03487,19.57158 l -6.36767,6.65277 0,10.7198 0,10.7198 5.85183,6.25561 c 5.98689,6.40001 10.14817,13.47336 10.14817,17.24987 0,5.47007 -3.95589,10.99057 -11.75,16.39727 l -4.25,2.94819 0,13.61089 0,13.61088 6.4344,6.15563 c 7.29514,6.97907 8.53043,10.02018 6.47069,15.92991 -3.10501,8.90874 -12.15831,10.84632 -22.02388,4.71355 -7.08194,-4.40238 -14.01004,-4.39464 -20.27689,0.0226 -6.13016,4.32097 -12.76117,4.94886 -17.60432,1.66698 z m 36,-34.18989 0,-24.38337 -2.25,-0.60297 c -3.444,-0.92296 -10.32343,-0.74297 -13.1849,0.34496 l -2.5651,0.97525 0,23.46139 0,23.46139 3.25,0.40332 c 1.7875,0.22183 5.8375,0.47534 9,0.56336 l 5.75,0.16004 0,-24.38337 z m 4.08196,-33.29859 c 1.70839,-1.70839 -0.10712,-4.15181 -4.75764,-6.40308 -3.54889,-1.71799 -5.61458,-2.0616 -9.79812,-1.62982 -7.05005,0.72763 -11.5262,3.08639 -11.5262,6.07387 0,1.26921 0.18747,2.49516 0.4166,2.72432 0.87901,0.87915 24.73218,0.16789 25.66536,-0.76529 z m -9.58196,-10.80595 c 9.26148,-0.0112 10,-0.15685 10,-1.97226 0,-1.11303 -1.46847,-2.94977 -3.39788,-4.25 -6.76375,-4.55808 -22.12716,-2.149 -22.93961,3.59708 -0.40096,2.83573 1.55478,4.34728 4.33749,3.35235 1.1,-0.39329 6.5,-0.72052 12,-0.72717 z m 8.75,-53.21243 c 2.19977,-4.02286 2.21114,-6.71042 0.0439,-10.37921 -4.45696,-7.54503 -17.33294,-7.77151 -23.12604,-0.40677 -2.69522,3.42642 -2.73936,6.44584 -0.1679,11.48632 1.77623,3.4817 2,5.89377 2,21.55835 l 0,17.63802 5.75,-0.59618 c 3.1625,-0.3279 7.325,-0.24034 9.25,0.19457 l 3.5,0.79075 0.5,-18.54275 c 0.40742,-15.10935 0.82403,-19.13534 2.25,-21.7431 z m 56.04855,131.79937 c -1.7608,-1.10582 -3.8983,-3.35814 -4.75,-5.00515 -3.32719,-6.43407 -1.23931,-11.86273 7.34698,-19.1028 l 5.10447,-4.30415 0,-13.77537 0,-13.77537 -3.25,-2.22677 c -15.6749,-10.73978 -16.56086,-19.86902 -3.2795,-33.79314 l 5.5295,-5.79711 0,-11.83387 0,-11.83388 -7.06285,-7.28395 c -6.50562,-6.70928 -7.03818,-7.57976 -6.75,-11.03323 0.25534,-3.06005 1.08819,-4.3391 4.53054,-6.95782 9.09717,-6.92054 24.58043,-10.40488 37.22247,-8.37652 9.30042,1.49221 15.33324,3.71608 21.39546,7.887 8.04951,5.53821 7.41793,9.95069 -2.88606,20.16309 l -6.44956,6.39223 0,10.89524 0,10.89523 5.66106,6.11462 c 7.01806,7.58034 10.80867,15.33527 9.88987,20.23292 -0.79372,4.23086 -4.88338,9.03985 -11.51132,13.53604 l -4.98804,3.38373 -0.0258,12.96111 -0.0258,12.96112 6.97236,6.75466 c 7.80241,7.55879 8.98721,10.33188 6.93273,16.2265 -3.10501,8.90874 -12.15831,10.84632 -22.02388,4.71355 -3.98827,-2.47927 -6.11209,-3.11694 -10.38118,-3.11694 -4.26909,0 -6.39291,0.63767 -10.38121,3.11694 -6.45614,4.01336 -12.45943,4.72078 -16.82024,1.98209 z m 35.70145,-34.4824 0,-24.38337 -2.25,-0.60297 c -3.56568,-0.95557 -10.16968,-0.72855 -13.60078,0.46754 l -3.14922,1.09782 0,23.34181 0,23.34181 3.75,0.39226 c 2.0625,0.21575 6.3375,0.46791 9.5,0.56037 l 5.75,0.1681 0,-24.38337 z m 3.5,-34.56471 c 0,-1.39388 -1.12875,-3.17881 -2.79861,-4.42554 -5.30759,-3.96269 -20.21062,-2.28043 -22.809,2.57469 -1.94399,3.63239 0.15219,4.30249 13.27249,4.24293 12.244,-0.0556 12.33512,-0.0733 12.33512,-2.39208 z m -9,-9.53983 c 9.13895,-0.0111 10,-0.17501 10,-1.90417 0,-5.50216 -14.99798,-8.7757 -22.5,-4.91097 -5.51604,2.84163 -5.07234,9.53465 0.5,7.54231 1.1,-0.39329 6.5,-0.72052 12,-0.72717 z m 6.5,-31.0847 c 0,-15.00942 0.25282,-17.76615 1.97804,-21.56819 2.71501,-5.98335 2.52329,-8.21862 -1.05443,-12.29342 -5.15609,-5.87246 -14.02292,-6.05152 -20.44499,-0.41286 -4.12259,3.61968 -4.54711,7.38313 -1.47862,13.10826 1.77941,3.32 2,5.64209 2,21.05338 l 0,17.3218 9.5,0 9.5,0 0,-17.20897 z m 56.36504,109.65353 c -2.01859,-1.23087 -3.75598,-3.53772 -4.87889,-6.478 -2.32266,-6.08181 -1.14112,-8.82547 7.13438,-16.56679 l 6.37947,-5.96768 0,-13.34875 0,-13.34875 -5.71509,-3.93547 c -11.57807,-7.97279 -13.36207,-15.59948 -6.16874,-26.37159 2.2639,-3.39021 5.63888,-7.37899 7.49997,-8.86395 l 3.3838,-2.69994 3e-5,-11.7057 3e-5,-11.70571 -6.45475,-6.36017 c -10.12851,-9.98012 -10.78851,-14.40091 -2.95465,-19.79075 8.51946,-5.86155 23.49901,-9.62266 33.74688,-8.47328 12.19575,1.36785 25.44443,7.22074 29.15136,12.87824 1.46299,2.2328 1.47194,2.81547 0.0939,6.11354 -0.83776,2.00504 -4.2366,6.2516 -7.55298,9.43681 l -6.02976,5.79128 0,11.78044 0,11.78044 5.80399,6.20448 c 6.68747,7.14892 9.19601,11.80905 9.19601,17.08348 0,5.1455 -2.91558,9.39019 -9.98703,14.53975 l -6.01297,4.37876 0,13.26776 0,13.26777 7,6.87615 c 6.6751,6.557 7,7.09174 7,11.52111 0,3.89455 -0.55303,5.24843 -3.42316,8.38029 -3.15739,3.44531 -3.8498,3.73531 -8.91843,3.73531 -4.58731,0 -6.25708,-0.53698 -10.10607,-3.25 -4.0308,-2.84117 -5.4094,-3.25 -10.95913,-3.25 -4.69421,0 -6.70592,0.43213 -7.72077,1.65848 -2.04157,2.46707 -8.88971,5.29508 -12.87244,5.31582 -1.925,0.01 -4.91073,-0.842 -6.63496,-1.89338 z m 36.4031,-34.34877 0.26814,-23.76786 -2.58324,-0.98214 c -3.31173,-1.25912 -10.58485,-1.26273 -13.88794,-0.007 l -2.5651,0.97535 0,23.46139 0,23.46139 3.25,0.42393 c 1.7875,0.23317 5.95,0.37418 9.25,0.31336 l 6,-0.11057 0.26814,-23.76785 z m 3.55141,-32.66226 c 0.45075,-0.0384 0.67575,-1.08239 0.5,-2.31989 -0.50206,-3.53507 -8.08411,-6.97542 -14.31955,-6.49749 -7.91903,0.60698 -13.65281,4.30094 -12.26987,7.90482 0.44112,1.14954 2.96703,1.38548 12.90915,1.20582 6.7984,-0.12285 12.72952,-0.25482 13.18027,-0.29326 z m -9.31955,-11.54904 c 8.76189,-0.0192 9.5,-0.17315 9.5,-1.98102 0,-3.30058 -6.00696,-6.53983 -12.12765,-6.53983 -6.54936,0 -13.06596,2.45929 -13.95719,5.26729 -0.84888,2.67459 2.1289,5.04637 5.03238,4.00825 1.12885,-0.40362 6.32746,-0.74323 11.55246,-0.75469 z m 8.01887,-51.78386 c 5.82694,-9.55676 -1.61761,-19.07396 -13.52347,-17.28857 -5.13295,0.76973 -8.75297,3.34497 -10.44532,7.43068 -1.04448,2.52159 -0.91969,3.62723 0.86464,7.66101 1.86147,4.20817 2.08528,6.64292 2.08528,22.6852 l 0,17.97106 5.75,-0.59618 c 3.1625,-0.3279 7.325,-0.24077 9.25,0.19363 l 3.5,0.78981 0.27261,-17.80482 c 0.23993,-15.67082 0.50916,-18.1928 2.24626,-21.04182 z M 679.65061,-798.6564 c -8.56627,-6.76212 -7.2813,-15.11028 3.74443,-24.32665 l 4.52555,-3.78289 0,-13.72443 0,-13.72442 -5.82481,-4.24174 c -6.24292,-4.5462 -10.17519,-10.25816 -10.17519,-14.7803 0,-4.25787 3.43952,-10.46939 9.51443,-17.18239 l 5.48557,-6.06175 0,-11.76413 0,-11.76413 -4.75,-4.51978 c -6.89972,-6.56531 -9.25,-10.07726 -9.25,-13.82195 0,-2.77361 0.75285,-3.85139 4.75,-6.80011 2.6125,-1.92726 8.35,-4.6772 12.75,-6.11098 14.79884,-4.82235 30.81767,-3.14814 44.29144,4.62914 9.60858,5.54622 9.44127,9.65544 -0.83519,20.51273 l -6.95625,7.34943 0,10.96345 0,10.96345 5.64272,5.77963 c 6.93748,7.1058 10.84216,14.99966 9.90102,20.01634 -0.74017,3.94547 -5.53975,9.72071 -11.52634,13.86942 l -4.0174,2.78406 0,13.53829 0,13.53829 7,7.21913 c 7.52255,7.75804 8.19284,9.64167 5.62118,15.79651 -1.96835,4.71092 -6.10114,7.63578 -10.78928,7.63578 -3.75667,0 -13.01304,-3.86603 -14.32015,-5.98098 -0.34638,-0.56046 -3.29007,-1.01902 -6.54153,-1.01902 -5.0244,0 -6.58561,0.47498 -10.40115,3.16442 -6.0391,4.25675 -13.7712,5.05669 -17.83905,1.84558 z m 36.26998,-34.03475 0,-24.02475 -2.75,-1.06881 c -3.26218,-1.26787 -12.78512,-0.51239 -14.81907,1.17563 -1.5922,1.32141 -1.97318,20.09792 -0.77493,38.19268 l 0.64565,9.75 8.84917,0 8.84918,0 0,-24.02475 z m 4.20051,-33.77576 c 1.98087,-1.98087 -2.75015,-5.95527 -8.66455,-7.27885 -9.05444,-2.0263 -21.25236,3.10137 -17.66377,7.42536 1.36671,1.64678 24.66468,1.51713 26.32832,-0.14651 z m -18.13255,-10.21238 c 3.61253,-0.6851 7.12245,-0.68355 10.84599,0.005 4.55755,0.84251 5.76729,0.75544 7.02861,-0.50588 1.96896,-1.96896 0.65816,-4.15828 -3.97851,-6.64495 -7.1499,-3.83476 -21.96405,-0.83782 -21.96405,4.44316 0,4.03858 0.37007,4.16255 8.06796,2.70267 z m 10.0493,-13.96567 c 2.10538,0.385 4.06529,0.46267 4.35535,0.17261 0.29007,-0.29006 0.52739,-8.34531 0.52739,-17.90055 0,-15.39973 0.22718,-17.81849 2,-21.2935 2.65714,-5.20842 2.52152,-8.22676 -0.53273,-11.85652 -5.26763,-6.26023 -15.25945,-6.5513 -21.19337,-0.61738 -3.86501,3.86501 -4.19653,7.24133 -1.2739,12.9739 1.77577,3.48306 2,5.89718 2,21.53216 l 0,17.60928 5.14464,-0.66 c 2.82955,-0.36299 6.86723,-0.34499 8.97262,0.04 z m 62.6384,92.28305 c -3.17239,-2.0355 -5.75566,-6.89966 -5.75566,-10.83759 0,-3.81042 3.23632,-8.64128 9.04975,-13.50856 l 4.95025,-4.14458 0,-13.74066 0,-13.74066 -5.58778,-3.84846 c -13.45799,-9.26887 -13.75908,-18.43449 -1.05631,-32.155 l 5.64409,-6.09629 0,-11.80594 0,-11.80593 -5.14131,-4.75141 c -10.10997,-9.34327 -11.48783,-14.64057 -5.10869,-19.64069 6.47846,-5.07796 13.31261,-7.67752 24.26913,-9.23143 12.40198,-1.75892 30.64611,3.16321 38.23087,10.31441 4.81605,4.54075 3.37619,8.77512 -6.17414,18.157 l -6.07586,5.96869 0,11.3705 0,11.3705 4.49574,4.36936 c 7.29821,7.09305 10.50426,12.93642 10.50426,19.14515 0,4.67609 -0.42199,5.76843 -3.57797,9.26172 -1.96788,2.17821 -5.56708,5.21701 -7.99821,6.75288 l -4.42024,2.7925 -0.002,13.28422 -0.002,13.28423 6.37947,5.96768 c 7.73724,7.23781 9.36255,10.54386 7.78012,15.82554 -1.85554,6.19326 -5.29702,8.63833 -12.15858,8.63833 -4.97383,0 -6.52028,-0.48102 -10.44867,-3.25 -3.83521,-2.7036 -5.52524,-3.25 -10.05192,-3.25 -4.4965,0 -6.2212,0.54956 -9.93093,3.16442 -5.60633,3.95171 -13.51006,4.90125 -17.81341,2.14007 z m 36.24434,-34.32924 0,-24.02475 -2.75,-1.063 c -3.43859,-1.32917 -12.60678,-0.66622 -14.68938,1.06219 -1.33033,1.10407 -1.56062,4.64651 -1.56062,24.00609 0,12.49099 0.3,23.01089 0.66667,23.37755 0.36666,0.36667 4.64166,0.66667 9.5,0.66667 l 8.83333,0 0,-24.02475 z m 3.8162,-34.73393 c 0.38329,-2.65489 -4.24079,-5.79936 -9.94555,-6.76317 -4.88197,-0.82481 -14.45481,1.87632 -15.8431,4.47038 -2.2144,4.13764 -0.72932,4.67017 12.75523,4.57383 12.28995,-0.0878 12.72784,-0.16444 13.03342,-2.28104 z m -17.94601,-9.3069 c 3.53082,-0.75723 6.65587,-0.75321 10.79922,0.0139 5.02569,0.93043 5.99367,0.85705 7.01191,-0.53162 1.70815,-2.32957 0.5986,-4.23323 -3.76482,-6.45928 -8.92441,-4.55289 -25.15047,-1.3e-4 -21.8668,6.13546 1.19091,2.22524 1.30923,2.23798 7.82049,0.84156 z m 9.89403,-13.88337 c 2.34531,0.32295 4.48281,0.36858 4.75,0.1014 0.26718,-0.26718 0.48578,-8.22858 0.48578,-17.692 0,-15.26917 0.23485,-17.73713 2.0861,-21.9222 1.3686,-3.09394 1.85902,-5.63127 1.42587,-7.37712 -2.23672,-9.01534 -15.30145,-11.79691 -23.12891,-4.92431 -4.04442,3.55105 -4.53463,8.36217 -1.37932,13.53735 1.79758,2.94831 1.99626,5.04538 1.99626,21.07072 l 0,17.79655 4.75,-0.58878 c 2.6125,-0.32384 6.6689,-0.32456 9.01422,-0.002 z m 61.13366,91.66902 c -4.42568,-2.96956 -6.6989,-9.37201 -4.88362,-13.7545 0.67474,-1.62897 4.09756,-5.64722 7.60627,-8.92944 l 6.37947,-5.96768 -0.002,-13.28423 -0.002,-13.28422 -4.42024,-2.7925 c -2.43113,-1.53587 -6.03033,-4.57467 -7.99821,-6.75288 -3.15556,-3.49329 -3.57755,-4.58563 -3.57755,-9.26172 0,-6.23572 3.19795,-12.04172 10.47106,-19.01058 l 4.52894,-4.33949 0,-11.45272 0,-11.45272 -6.07586,-5.96869 c -9.55033,-9.38188 -10.99019,-13.61625 -6.17414,-18.157 7.58476,-7.1512 25.82889,-12.07333 38.23087,-10.31441 10.95652,1.55391 17.79067,4.15347 24.26913,9.23143 6.37089,4.99365 4.92198,10.51109 -5.20524,19.82153 l -5.04476,4.63789 0,11.77227 0,11.77228 5.5195,5.96172 c 12.92804,13.96382 12.66955,22.92202 -0.93172,32.28957 l -5.58778,3.84846 0,13.45019 0,13.4502 7,6.83532 c 6.13768,5.9933 7,7.28462 7,10.48246 0,12.29785 -10.67008,17.03083 -22.42998,9.94939 -4.85165,-2.92151 -6.76376,-3.5 -11.56873,-3.5 -4.01572,0 -6.15119,0.47569 -7.06195,1.57309 -2.22612,2.68231 -8.6751,5.42691 -12.75162,5.42691 -2.39101,0 -5.20236,-0.87926 -7.28984,-2.27993 z m 36.871,-33.65119 c 0.14788,-12.88712 -0.11158,-23.81158 -0.57658,-24.27658 -1.54292,-1.54292 -10.80292,-2.07591 -14.55463,-0.83773 l -3.63767,1.20053 0,23.95998 0,23.95997 9.25,-0.28752 9.25,-0.28753 0.26888,-23.43112 z m 4.03054,-34.26589 c 0.439,-2.2795 -3.51198,-5.6485 -8.06066,-6.87333 -7.26967,-1.95752 -18.73876,1.64684 -18.73876,5.88897 0,1.01642 0.21317,2.06121 0.47371,2.32175 0.26055,0.26054 6.22017,0.43096 13.24362,0.37871 10.93211,-0.0813 12.81483,-0.32831 13.08209,-1.7161 z m -17.84864,-9.88585 c 3.65574,-0.78402 6.48021,-0.77598 10.23436,0.0291 4.37117,0.93745 5.42813,0.86903 6.73305,-0.43589 2.02439,-2.0244 0.61794,-4.40501 -3.99308,-6.75884 -8.96364,-4.57574 -25.78135,0.89704 -20.88528,6.79644 1.44259,1.73822 1.51206,1.74146 7.91095,0.36915 z m 14.04922,-30.45698 c 0,-15.56639 0.22502,-17.98092 2,-21.46016 2.93577,-5.75459 2.62595,-10.2202 -0.9577,-13.80385 -1.62673,-1.62673 -4.54506,-3.25549 -6.48518,-3.61946 -4.60067,-0.86309 -11.18071,0.95599 -14.1314,3.90669 -3.50585,3.50584 -3.90072,6.65439 -1.51182,12.05487 1.85339,4.18991 2.0861,6.6511 2.0861,22.06306 l 0,17.34708 8.03682,-0.10404 c 4.42026,-0.0572 8.32026,0.17939 8.66667,0.52581 1.90553,1.90553 2.29651,-0.97339 2.29651,-16.91 z"
         id="path4325"
         inkscape:connector-curvature="0" />
      <path
         style="fill:#485447"
         d="m 680.28591,-566.14754 c -30.01455,-6.58644 -52.15455,-29.80189 -56.33216,-59.06849 -0.82,-5.74457 -1.04278,-52.203 -0.80298,-167.45037 0.37312,-179.3278 -0.35406,-163.11469 8.05081,-179.5 3.07419,-5.99314 6.25037,-10.14676 12.66131,-16.5577 9.68871,-9.68871 19.15644,-15.2456 32.61429,-19.1423 l 7.94341,-2.3 117.5,0 c 109.13891,0 117.95392,0.1254 123.879,1.7624 26.16325,7.2282 43.71065,23.20031 51.89659,47.2376 l 2.72441,8 0.26755,162.7298 c 0.30094,183.03446 0.81313,170.11112 -7.40142,186.74847 -8.41935,17.05215 -23.18828,29.23057 -43.86613,36.17191 l -7,2.34982 -118,0.18253 c -95.71751,0.14807 -119.15844,-0.0717 -124.13468,-1.16367 z m 235.49718,-2.56085 c 23.06363,-2.89194 43.67167,-16.93022 53.96508,-36.76125 8.23908,-15.87323 7.54849,-0.66016 7.93028,-174.69676 0.22457,-102.36829 -0.0117,-158.28295 -0.69576,-164.66826 -1.82143,-17.00172 -7.76953,-29.51885 -19.62904,-41.3072 -8.27503,-8.22537 -16.81255,-13.51302 -27.93306,-17.30014 l -8,-2.7244 -116.95138,-0.2703 c -113.64092,-0.2626 -117.1725,-0.2143 -124.76309,1.7052 -10.29312,2.6029 -19.34701,7.01758 -27.02916,13.17937 -10.77697,8.64412 -17.23576,17.61512 -22.50326,31.25611 l -2.75311,7.12962 0,165.5 0,165.5 2.67921,7.3346 c 3.94168,10.79073 8.40641,17.72021 16.87096,26.18459 10.95044,10.95022 25.30022,17.95902 40.94983,20.00095 9.04512,1.18019 218.41008,1.1231 227.8625,-0.0621 z m -234.8625,-54.15149 c -4.11298,-2.7871 -6.68991,-8.92156 -5.58949,-13.30598 0.40714,-1.62217 3.52007,-5.54954 7.15509,-9.02706 l 6.4344,-6.15563 0,-13.61088 0,-13.61089 -4.25,-2.94819 c -7.79411,-5.4067 -11.75,-10.9272 -11.75,-16.39727 0,-3.77651 4.16128,-10.84986 10.14817,-17.24987 l 5.85183,-6.25561 0,-10.7198 0,-10.7198 -6.36767,-6.65277 c -10.51146,-10.9821 -11.16058,-14.1307 -4.03487,-19.57158 15.87059,-12.11809 43.93449,-12.11809 59.80508,0 7.12571,5.44088 6.47659,8.58948 -4.03487,19.57158 l -6.36767,6.65277 0,10.7198 0,10.7198 5.85183,6.25561 c 5.98689,6.40001 10.14817,13.47336 10.14817,17.24987 0,5.47007 -3.95589,10.99057 -11.75,16.39727 l -4.25,2.94819 0,13.61089 0,13.61088 6.4344,6.15563 c 7.29514,6.97907 8.53043,10.02018 6.47069,15.92991 -3.10501,8.90874 -12.15831,10.84632 -22.02388,4.71355 -7.08194,-4.40238 -14.01004,-4.39464 -20.27689,0.0226 -6.13016,4.32097 -12.76117,4.94886 -17.60432,1.66698 z m 36,-34.18989 0,-24.38337 -2.25,-0.60297 c -3.444,-0.92296 -10.32343,-0.74297 -13.1849,0.34496 l -2.5651,0.97525 0,23.46139 0,23.46139 3.25,0.40332 c 1.7875,0.22183 5.8375,0.47534 9,0.56336 l 5.75,0.16004 0,-24.38337 z m 4.08196,-33.29859 c 1.70839,-1.70839 -0.10712,-4.15181 -4.75764,-6.40308 -3.54889,-1.71799 -5.61458,-2.0616 -9.79812,-1.62982 -7.05005,0.72763 -11.5262,3.08639 -11.5262,6.07387 0,1.26921 0.18747,2.49516 0.4166,2.72432 0.87901,0.87915 24.73218,0.16789 25.66536,-0.76529 z m -9.58196,-10.80595 c 9.26148,-0.0112 10,-0.15685 10,-1.97226 0,-1.11303 -1.46847,-2.94977 -3.39788,-4.25 -6.76375,-4.55808 -22.12716,-2.149 -22.93961,3.59708 -0.40096,2.83573 1.55478,4.34728 4.33749,3.35235 1.1,-0.39329 6.5,-0.72052 12,-0.72717 z m 8.75,-53.21243 c 2.19977,-4.02286 2.21114,-6.71042 0.0439,-10.37921 -4.45696,-7.54503 -17.33294,-7.77151 -23.12604,-0.40677 -2.69522,3.42642 -2.73936,6.44584 -0.1679,11.48632 1.77623,3.4817 2,5.89377 2,21.55835 l 0,17.63802 5.75,-0.59618 c 3.1625,-0.3279 7.325,-0.24034 9.25,0.19457 l 3.5,0.79075 0.5,-18.54275 c 0.40742,-15.10935 0.82403,-19.13534 2.25,-21.7431 z m 56.04855,131.79937 c -1.7608,-1.10582 -3.8983,-3.35814 -4.75,-5.00515 -3.32719,-6.43407 -1.23931,-11.86273 7.34698,-19.1028 l 5.10447,-4.30415 0,-13.77537 0,-13.77537 -3.25,-2.22677 c -15.6749,-10.73978 -16.56086,-19.86902 -3.2795,-33.79314 l 5.5295,-5.79711 0,-11.83387 0,-11.83388 -7.06285,-7.28395 c -6.50562,-6.70928 -7.03818,-7.57976 -6.75,-11.03323 0.25534,-3.06005 1.08819,-4.3391 4.53054,-6.95782 9.09717,-6.92054 24.58043,-10.40488 37.22247,-8.37652 9.30042,1.49221 15.33324,3.71608 21.39546,7.887 8.04951,5.53821 7.41793,9.95069 -2.88606,20.16309 l -6.44956,6.39223 0,10.89524 0,10.89523 5.66106,6.11462 c 7.01806,7.58034 10.80867,15.33527 9.88987,20.23292 -0.79372,4.23086 -4.88338,9.03985 -11.51132,13.53604 l -4.98804,3.38373 -0.0258,12.96111 -0.0258,12.96112 6.97236,6.75466 c 7.80241,7.55879 8.98721,10.33188 6.93273,16.2265 -3.10501,8.90874 -12.15831,10.84632 -22.02388,4.71355 -3.98827,-2.47927 -6.11209,-3.11694 -10.38118,-3.11694 -4.26909,0 -6.39291,0.63767 -10.38121,3.11694 -6.45614,4.01336 -12.45943,4.72078 -16.82024,1.98209 z m 35.70145,-34.4824 0,-24.38337 -2.25,-0.60297 c -3.56568,-0.95557 -10.16968,-0.72855 -13.60078,0.46754 l -3.14922,1.09782 0,23.34181 0,23.34181 3.75,0.39226 c 2.0625,0.21575 6.3375,0.46791 9.5,0.56037 l 5.75,0.1681 0,-24.38337 z m 3.5,-34.56471 c 0,-1.39388 -1.12875,-3.17881 -2.79861,-4.42554 -5.30759,-3.96269 -20.21062,-2.28043 -22.809,2.57469 -1.94399,3.63239 0.15219,4.30249 13.27249,4.24293 12.244,-0.0556 12.33512,-0.0733 12.33512,-2.39208 z m -9,-9.53983 c 9.13895,-0.0111 10,-0.17501 10,-1.90417 0,-5.50216 -14.99798,-8.7757 -22.5,-4.91097 -5.51604,2.84163 -5.07234,9.53465 0.5,7.54231 1.1,-0.39329 6.5,-0.72052 12,-0.72717 z m 6.5,-31.0847 c 0,-15.00942 0.25282,-17.76615 1.97804,-21.56819 2.71501,-5.98335 2.52329,-8.21862 -1.05443,-12.29342 -5.15609,-5.87246 -14.02292,-6.05152 -20.44499,-0.41286 -4.12259,3.61968 -4.54711,7.38313 -1.47862,13.10826 1.77941,3.32 2,5.64209 2,21.05338 l 0,17.3218 9.5,0 9.5,0 0,-17.20897 z m 56.36504,109.65353 c -2.01859,-1.23087 -3.75598,-3.53772 -4.87889,-6.478 -2.32266,-6.08181 -1.14112,-8.82547 7.13438,-16.56679 l 6.37947,-5.96768 0,-13.34875 0,-13.34875 -5.71509,-3.93547 c -11.57807,-7.97279 -13.36207,-15.59948 -6.16874,-26.37159 2.2639,-3.39021 5.63888,-7.37899 7.49997,-8.86395 l 3.3838,-2.69994 3e-5,-11.7057 3e-5,-11.70571 -6.45475,-6.36017 c -10.12851,-9.98012 -10.78851,-14.40091 -2.95465,-19.79075 8.51946,-5.86155 23.49901,-9.62266 33.74688,-8.47328 12.19575,1.36785 25.44443,7.22074 29.15136,12.87824 1.46299,2.2328 1.47194,2.81547 0.0939,6.11354 -0.83776,2.00504 -4.2366,6.2516 -7.55298,9.43681 l -6.02976,5.79128 0,11.78044 0,11.78044 5.80399,6.20448 c 6.68747,7.14892 9.19601,11.80905 9.19601,17.08348 0,5.1455 -2.91558,9.39019 -9.98703,14.53975 l -6.01297,4.37876 0,13.26776 0,13.26777 7,6.87615 c 6.6751,6.557 7,7.09174 7,11.52111 0,3.89455 -0.55303,5.24843 -3.42316,8.38029 -3.15739,3.44531 -3.8498,3.73531 -8.91843,3.73531 -4.58731,0 -6.25708,-0.53698 -10.10607,-3.25 -4.0308,-2.84117 -5.4094,-3.25 -10.95913,-3.25 -4.69421,0 -6.70592,0.43213 -7.72077,1.65848 -2.04157,2.46707 -8.88971,5.29508 -12.87244,5.31582 -1.925,0.01 -4.91073,-0.842 -6.63496,-1.89338 z m 36.4031,-34.34877 0.26814,-23.76786 -2.58324,-0.98214 c -3.31173,-1.25912 -10.58485,-1.26273 -13.88794,-0.007 l -2.5651,0.97535 0,23.46139 0,23.46139 3.25,0.42393 c 1.7875,0.23317 5.95,0.37418 9.25,0.31336 l 6,-0.11057 0.26814,-23.76785 z m 3.55141,-32.66226 c 0.45075,-0.0384 0.67575,-1.08239 0.5,-2.31989 -0.50206,-3.53507 -8.08411,-6.97542 -14.31955,-6.49749 -7.91903,0.60698 -13.65281,4.30094 -12.26987,7.90482 0.44112,1.14954 2.96703,1.38548 12.90915,1.20582 6.7984,-0.12285 12.72952,-0.25482 13.18027,-0.29326 z m -9.31955,-11.54904 c 8.76189,-0.0192 9.5,-0.17315 9.5,-1.98102 0,-3.30058 -6.00696,-6.53983 -12.12765,-6.53983 -6.54936,0 -13.06596,2.45929 -13.95719,5.26729 -0.84888,2.67459 2.1289,5.04637 5.03238,4.00825 1.12885,-0.40362 6.32746,-0.74323 11.55246,-0.75469 z m 8.01887,-51.78386 c 5.82694,-9.55676 -1.61761,-19.07396 -13.52347,-17.28857 -5.13295,0.76973 -8.75297,3.34497 -10.44532,7.43068 -1.04448,2.52159 -0.91969,3.62723 0.86464,7.66101 1.86147,4.20817 2.08528,6.64292 2.08528,22.6852 l 0,17.97106 5.75,-0.59618 c 3.1625,-0.3279 7.325,-0.24077 9.25,0.19363 l 3.5,0.78981 0.27261,-17.80482 c 0.23993,-15.67082 0.50916,-18.1928 2.24626,-21.04182 z M 679.65061,-798.6564 c -8.56627,-6.76212 -7.2813,-15.11028 3.74443,-24.32665 l 4.52555,-3.78289 0,-13.72443 0,-13.72442 -5.82481,-4.24174 c -6.24292,-4.5462 -10.17519,-10.25816 -10.17519,-14.7803 0,-4.25787 3.43952,-10.46939 9.51443,-17.18239 l 5.48557,-6.06175 0,-11.76413 0,-11.76413 -4.75,-4.51978 c -6.89972,-6.56531 -9.25,-10.07726 -9.25,-13.82195 0,-2.77361 0.75285,-3.85139 4.75,-6.80011 2.6125,-1.92726 8.35,-4.6772 12.75,-6.11098 14.79884,-4.82235 30.81767,-3.14814 44.29144,4.62914 9.60858,5.54622 9.44127,9.65544 -0.83519,20.51273 l -6.95625,7.34943 0,10.96345 0,10.96345 5.64272,5.77963 c 6.93748,7.1058 10.84216,14.99966 9.90102,20.01634 -0.74017,3.94547 -5.53975,9.72071 -11.52634,13.86942 l -4.0174,2.78406 0,13.53829 0,13.53829 7,7.21913 c 7.52255,7.75804 8.19284,9.64167 5.62118,15.79651 -1.96835,4.71092 -6.10114,7.63578 -10.78928,7.63578 -3.75667,0 -13.01304,-3.86603 -14.32015,-5.98098 -0.34638,-0.56046 -3.29007,-1.01902 -6.54153,-1.01902 -5.0244,0 -6.58561,0.47498 -10.40115,3.16442 -6.0391,4.25675 -13.7712,5.05669 -17.83905,1.84558 z m 36.26998,-34.03475 0,-24.02475 -2.75,-1.06881 c -3.26218,-1.26787 -12.78512,-0.51239 -14.81907,1.17563 -1.5922,1.32141 -1.97318,20.09792 -0.77493,38.19268 l 0.64565,9.75 8.84917,0 8.84918,0 0,-24.02475 z m 4.20051,-33.77576 c 1.98087,-1.98087 -2.75015,-5.95527 -8.66455,-7.27885 -9.05444,-2.0263 -21.25236,3.10137 -17.66377,7.42536 1.36671,1.64678 24.66468,1.51713 26.32832,-0.14651 z m -18.13255,-10.21238 c 3.61253,-0.6851 7.12245,-0.68355 10.84599,0.005 4.55755,0.84251 5.76729,0.75544 7.02861,-0.50588 1.96896,-1.96896 0.65816,-4.15828 -3.97851,-6.64495 -7.1499,-3.83476 -21.96405,-0.83782 -21.96405,4.44316 0,4.03858 0.37007,4.16255 8.06796,2.70267 z m 10.0493,-13.96567 c 2.10538,0.385 4.06529,0.46267 4.35535,0.17261 0.29007,-0.29006 0.52739,-8.34531 0.52739,-17.90055 0,-15.39973 0.22718,-17.81849 2,-21.2935 2.65714,-5.20842 2.52152,-8.22676 -0.53273,-11.85652 -5.26763,-6.26023 -15.25945,-6.5513 -21.19337,-0.61738 -3.86501,3.86501 -4.19653,7.24133 -1.2739,12.9739 1.77577,3.48306 2,5.89718 2,21.53216 l 0,17.60928 5.14464,-0.66 c 2.82955,-0.36299 6.86723,-0.34499 8.97262,0.04 z m 62.6384,92.28305 c -3.17239,-2.0355 -5.75566,-6.89966 -5.75566,-10.83759 0,-3.81042 3.23632,-8.64128 9.04975,-13.50856 l 4.95025,-4.14458 0,-13.74066 0,-13.74066 -5.58778,-3.84846 c -13.45799,-9.26887 -13.75908,-18.43449 -1.05631,-32.155 l 5.64409,-6.09629 0,-11.80594 0,-11.80593 -5.14131,-4.75141 c -10.10997,-9.34327 -11.48783,-14.64057 -5.10869,-19.64069 6.47846,-5.07796 13.31261,-7.67752 24.26913,-9.23143 12.40198,-1.75892 30.64611,3.16321 38.23087,10.31441 4.81605,4.54075 3.37619,8.77512 -6.17414,18.157 l -6.07586,5.96869 0,11.3705 0,11.3705 4.49574,4.36936 c 7.29821,7.09305 10.50426,12.93642 10.50426,19.14515 0,4.67609 -0.42199,5.76843 -3.57797,9.26172 -1.96788,2.17821 -5.56708,5.21701 -7.99821,6.75288 l -4.42024,2.7925 -0.002,13.28422 -0.002,13.28423 6.37947,5.96768 c 7.73724,7.23781 9.36255,10.54386 7.78012,15.82554 -1.85554,6.19326 -5.29702,8.63833 -12.15858,8.63833 -4.97383,0 -6.52028,-0.48102 -10.44867,-3.25 -3.83521,-2.7036 -5.52524,-3.25 -10.05192,-3.25 -4.4965,0 -6.2212,0.54956 -9.93093,3.16442 -5.60633,3.95171 -13.51006,4.90125 -17.81341,2.14007 z m 36.24434,-34.32924 0,-24.02475 -2.75,-1.063 c -3.43859,-1.32917 -12.60678,-0.66622 -14.68938,1.06219 -1.33033,1.10407 -1.56062,4.64651 -1.56062,24.00609 0,12.49099 0.3,23.01089 0.66667,23.37755 0.36666,0.36667 4.64166,0.66667 9.5,0.66667 l 8.83333,0 0,-24.02475 z m 3.8162,-34.73393 c 0.38329,-2.65489 -4.24079,-5.79936 -9.94555,-6.76317 -4.88197,-0.82481 -14.45481,1.87632 -15.8431,4.47038 -2.2144,4.13764 -0.72932,4.67017 12.75523,4.57383 12.28995,-0.0878 12.72784,-0.16444 13.03342,-2.28104 z m -17.94601,-9.3069 c 3.53082,-0.75723 6.65587,-0.75321 10.79922,0.0139 5.02569,0.93043 5.99367,0.85705 7.01191,-0.53162 1.70815,-2.32957 0.5986,-4.23323 -3.76482,-6.45928 -8.92441,-4.55289 -25.15047,-1.3e-4 -21.8668,6.13546 1.19091,2.22524 1.30923,2.23798 7.82049,0.84156 z m 9.89403,-13.88337 c 2.34531,0.32295 4.48281,0.36858 4.75,0.1014 0.26718,-0.26718 0.48578,-8.22858 0.48578,-17.692 0,-15.26917 0.23485,-17.73713 2.0861,-21.9222 1.3686,-3.09394 1.85902,-5.63127 1.42587,-7.37712 -2.23672,-9.01534 -15.30145,-11.79691 -23.12891,-4.92431 -4.04442,3.55105 -4.53463,8.36217 -1.37932,13.53735 1.79758,2.94831 1.99626,5.04538 1.99626,21.07072 l 0,17.79655 4.75,-0.58878 c 2.6125,-0.32384 6.6689,-0.32456 9.01422,-0.002 z m 61.13366,91.66902 c -4.42568,-2.96956 -6.6989,-9.37201 -4.88362,-13.7545 0.67474,-1.62897 4.09756,-5.64722 7.60627,-8.92944 l 6.37947,-5.96768 -0.002,-13.28423 -0.002,-13.28422 -4.42024,-2.7925 c -2.43113,-1.53587 -6.03033,-4.57467 -7.99821,-6.75288 -3.15556,-3.49329 -3.57755,-4.58563 -3.57755,-9.26172 0,-6.23572 3.19795,-12.04172 10.47106,-19.01058 l 4.52894,-4.33949 0,-11.45272 0,-11.45272 -6.07586,-5.96869 c -9.55033,-9.38188 -10.99019,-13.61625 -6.17414,-18.157 7.58476,-7.1512 25.82889,-12.07333 38.23087,-10.31441 10.95652,1.55391 17.79067,4.15347 24.26913,9.23143 6.37089,4.99365 4.92198,10.51109 -5.20524,19.82153 l -5.04476,4.63789 0,11.77227 0,11.77228 5.5195,5.96172 c 12.92804,13.96382 12.66955,22.92202 -0.93172,32.28957 l -5.58778,3.84846 0,13.45019 0,13.4502 7,6.83532 c 6.13768,5.9933 7,7.28462 7,10.48246 0,12.29785 -10.67008,17.03083 -22.42998,9.94939 -4.85165,-2.92151 -6.76376,-3.5 -11.56873,-3.5 -4.01572,0 -6.15119,0.47569 -7.06195,1.57309 -2.22612,2.68231 -8.6751,5.42691 -12.75162,5.42691 -2.39101,0 -5.20236,-0.87926 -7.28984,-2.27993 z m 36.871,-33.65119 c 0.14788,-12.88712 -0.11158,-23.81158 -0.57658,-24.27658 -1.54292,-1.54292 -10.80292,-2.07591 -14.55463,-0.83773 l -3.63767,1.20053 0,23.95998 0,23.95997 9.25,-0.28752 9.25,-0.28753 0.26888,-23.43112 z m 4.03054,-34.26589 c 0.439,-2.2795 -3.51198,-5.6485 -8.06066,-6.87333 -7.26967,-1.95752 -18.73876,1.64684 -18.73876,5.88897 0,1.01642 0.21317,2.06121 0.47371,2.32175 0.26055,0.26054 6.22017,0.43096 13.24362,0.37871 10.93211,-0.0813 12.81483,-0.32831 13.08209,-1.7161 z m -17.84864,-9.88585 c 3.65574,-0.78402 6.48021,-0.77598 10.23436,0.0291 4.37117,0.93745 5.42813,0.86903 6.73305,-0.43589 2.02439,-2.0244 0.61794,-4.40501 -3.99308,-6.75884 -8.96364,-4.57574 -25.78135,0.89704 -20.88528,6.79644 1.44259,1.73822 1.51206,1.74146 7.91095,0.36915 z m 14.04922,-30.45698 c 0,-15.56639 0.22502,-17.98092 2,-21.46016 2.93577,-5.75459 2.62595,-10.2202 -0.9577,-13.80385 -1.62673,-1.62673 -4.54506,-3.25549 -6.48518,-3.61946 -4.60067,-0.86309 -11.18071,0.95599 -14.1314,3.90669 -3.50585,3.50584 -3.90072,6.65439 -1.51182,12.05487 1.85339,4.18991 2.0861,6.6511 2.0861,22.06306 l 0,17.34708 8.03682,-0.10404 c 4.42026,-0.0572 8.32026,0.17939 8.66667,0.52581 1.90553,1.90553 2.29651,-0.97339 2.29651,-16.91 z"
         id="path4323"
         inkscape:connector-curvature="0" />
      <path
         style="fill:#0e1f0b"
         d="m 680.58732,-566.28322 c -26.35492,-5.70047 -46.71516,-24.41122 -54.82487,-50.38318 l -2.34186,-7.5 0,-163 c 0,-152.46933 0.11372,-163.41993 1.7602,-169.5 5.44637,-20.11217 19.34461,-36.84183 38.2398,-46.0302 16.31591,-7.9341 7.67665,-7.4698 139,-7.4698 l 117,0 7.94341,2.3 c 13.3281,3.8591 22.90887,9.48481 32.64023,19.16587 7.12541,7.08856 9.3803,10.15273 13.27298,18.03669 8.22477,16.65788 7.71202,3.77049 7.41098,186.26789 l -0.2676,162.22955 -2.33483,7 c -7.8125,23.42246 -26.16817,40.88013 -50.66517,48.18652 -5.59905,1.66995 -13.81862,1.80241 -123,1.98211 -99.99066,0.16457 -117.99341,-0.0223 -123.83327,-1.28545 z m 245.63375,-4.12493 c 24.59879,-6.94478 42.17578,-24.29606 49.39251,-48.75825 1.6544,-5.60782 1.78961,-16.19519 2.06862,-161.97647 0.18206,-95.12858 -0.0759,-159.33 -0.66125,-164.57286 -2.6431,-23.67373 -16.09505,-42.93639 -37.29255,-53.40142 -16.21463,-8.00505 -9.02331,-7.63185 -141.10843,-7.32315 l -117.19938,0.2739 -7.18998,2.6304 c -18.09982,6.62158 -32.28636,18.52736 -39.97009,33.54411 -7.91759,15.47378 -7.436,2.90613 -7.1208,185.82549 l 0.28087,163 2.20484,5.7753 c 4.36686,11.43842 8.63009,18.13209 16.75864,26.31263 11.67816,11.75285 24.54185,18.2408 40.25962,20.30537 3.7273,0.48959 57.4019,0.81749 119.2769,0.72868 l 112.5,-0.16148 7.80048,-2.20225 z m -243.89392,-51.8301 c -3.5456,-1.74941 -7.40656,-7.94056 -7.40656,-11.87662 0,-1.96531 1.85935,-4.57649 7,-9.83043 l 7,-7.15428 -0.0258,-14.03341 -0.0258,-14.03341 -5.06668,-3.43794 c -5.98965,-4.06423 -9.62458,-8.52622 -10.49623,-12.88447 -0.89727,-4.48634 3.26568,-12.46839 10.09086,-19.34821 l 5.52362,-5.56785 0,-11.69573 0,-11.69573 -5.64367,-5.37963 c -12.80693,-12.20776 -12.36952,-16.74754 2.28086,-23.67246 9.5151,-4.49758 20.25651,-6.34855 28.97534,-4.99306 8.75627,1.3613 16.60586,4.22211 22.74827,8.29067 8.02896,5.31817 7.54395,9.05889 -2.48231,19.14498 l -6.87849,6.91955 0,11.51864 0,11.51863 5.46012,5.46012 c 6.75657,6.75657 11.05294,15.00717 10.15436,19.50008 -0.87165,4.35825 -4.50658,8.82024 -10.49623,12.88447 l -5.06668,3.43794 -0.0258,14.03341 -0.0258,14.03341 7,7.15428 c 7.61619,7.78404 8.28851,9.7613 5.39354,15.86201 -1.85998,3.91967 -6.94996,7.41689 -10.79479,7.41689 -2.77896,0 -11.99307,-4.21102 -13.08697,-5.98098 -0.34638,-0.56046 -3.92313,-1.01902 -7.94832,-1.01902 -5.59783,0 -7.64123,0.38994 -8.69099,1.65848 -1.82787,2.20883 -8.75162,5.2978 -11.87244,5.29679 -1.375,-4.5e-4 -3.89205,-0.68765 -5.59344,-1.52712 z m 34.59344,-34.81152 0,-24.38337 -2.25,-0.60297 c -1.2375,-0.33164 -4.275,-0.60298 -6.75,-0.60298 -2.475,0 -5.5125,0.27134 -6.75,0.60298 l -2.25,0.60297 0,23.82001 0,23.82001 3.25,0.40332 c 1.7875,0.22183 5.8375,0.47534 9,0.56336 l 5.75,0.16004 0,-24.38337 z m 4.61658,-33.98416 c 1.54015,-4.85204 -8.96583,-8.81109 -18.22685,-6.86857 -6.73735,1.41317 -8.38973,2.62284 -8.38973,6.14192 l 0,2.66093 13.01189,-0.0334 c 11.80953,-0.0303 13.06667,-0.20595 13.60469,-1.90091 z m -8.94747,-9.84708 c 8.48347,0.29638 9.93419,-0.30919 8.85868,-3.69784 -1.48918,-4.69198 -14.46378,-6.69745 -22.50755,-3.47897 -3.35732,1.34333 -4.02024,2.07162 -4.02024,4.41667 0,3.34885 1.31634,4.03851 6,3.14354 1.925,-0.36783 7.1761,-0.54036 11.66911,-0.3834 z m 5.33089,-30.57395 c 0,-15.81426 0.22197,-18.22394 2,-21.71144 3.71421,-7.2852 1.98065,-13.35666 -4.59857,-16.10563 -4.53419,-1.89451 -9.09008,-1.71883 -14.07075,0.54258 -6.65709,3.02256 -8.09313,8.18322 -4.33068,15.56305 1.7729,3.47743 2,5.89718 2,21.30963 l 0,17.38674 5.75,-0.62419 c 3.1625,-0.34331 7.1,-0.20117 8.75,0.31586 1.65,0.51703 3.3375,0.97873 3.75,1.02601 0.4125,0.0473 0.75,-7.9189 0.75,-17.70261 z m 58.41996,108.90288 c -1.69401,-1.03301 -3.83151,-3.46183 -4.75,-5.39739 -2.97817,-6.27604 -2.32525,-8.25428 5.33004,-16.14922 l 7,-7.21913 -0.0545,-13.92429 -0.0545,-13.92429 -4.69551,-3.081 c -6.15318,-4.03748 -11.19549,-10.64961 -11.19549,-14.68101 0,-4.60449 3.31821,-10.6407 9.50194,-17.28518 l 5.49806,-5.9077 0,-12.30084 0,-12.30083 -5.59728,-5.2095 c -9.81396,-9.13405 -10.86737,-13.91307 -4.15272,-18.83965 5.89772,-4.32719 11.42625,-6.56519 21.02032,-8.50919 9.4149,-1.90771 18.11598,-1.08324 28.13704,2.66612 5.70377,2.13406 13.06218,7.09589 14.89527,10.044 1.80333,2.90027 -0.23595,6.7425 -7.31197,13.77654 l -6.99066,6.94919 0,11.87712 0,11.87711 5.078,4.96241 c 5.42041,5.29702 9.27126,11.18041 10.34671,15.80785 1.11048,4.77815 -2.67257,10.97608 -10.01777,16.41255 l -6.40691,4.74201 -2e-5,13.38252 -1e-5,13.38252 6.36361,5.83109 c 7.60572,6.96926 9.31162,10.32788 7.71024,15.18012 -3.12231,9.46067 -12.77386,12.13966 -21.52151,5.97375 -4.1163,-2.90144 -5.3453,-3.25 -11.45913,-3.25 -5.15989,0 -7.18669,0.40889 -8.22077,1.65848 -1.9354,2.33877 -8.81411,5.2942 -12.37244,5.31582 -1.65,0.01 -4.38602,-0.82697 -6.08004,-1.85998 z m 35.58004,-34.49769 0,-24.38337 -2.25,-0.60297 c -3.47213,-0.9305 -11.33301,-0.73933 -14.1849,0.34496 l -2.5651,0.97525 0,23.46139 0,23.46139 3.25,0.40332 c 1.7875,0.22183 6.0625,0.47534 9.5,0.56336 l 6.25,0.16004 0,-24.38337 z m 4.11897,-33.3356 c 2.93534,-2.93534 -5.3102,-8.28103 -12.77319,-8.28103 -8.15826,0 -15.15104,3.88748 -13.92746,7.74266 0.5478,1.72595 1.66072,1.87404 13.11647,1.74533 7.33783,-0.0825 12.95913,-0.58191 13.58418,-1.20696 z m -8.61897,-10.76395 c 8.26656,-0.0157 9,-0.17682 9,-1.97725 0,-1.11303 -1.46847,-2.94977 -3.39788,-4.25 -4.15688,-2.80132 -12.99474,-3.11684 -19.08188,-0.68125 -3.35732,1.34333 -4.02024,2.07162 -4.02024,4.41667 0,3.29324 1.37602,4.08721 5.5,3.17355 1.65,-0.36555 7.05,-0.67233 12,-0.68172 z m 5.5,-30.30564 c 0,-15.81426 0.22197,-18.22394 2,-21.71144 2.51156,-4.92627 2.52314,-8.12977 0.0441,-12.19553 -2.455,-4.02632 -7.94126,-5.8469 -14.60714,-4.84729 -9.40366,1.41017 -12.92834,8.73898 -8.43696,17.54282 1.76993,3.46935 2,5.89377 2,21.07539 l 0,17.15506 5.25,-0.59874 c 2.8875,-0.32931 6.825,-0.20222 8.75,0.28241 1.925,0.48464 3.8375,0.92722 4.25,0.98352 0.4125,0.0563 0.75,-7.90249 0.75,-17.6862 z m 58.5,109.67656 c -4.07596,-2.36637 -6.55077,-5.36283 -7.57707,-9.1742 -0.94016,-3.4915 -0.78237,-4.32781 1.45422,-7.70752 1.37984,-2.08509 4.78446,-5.70993 7.56583,-8.05521 l 5.05702,-4.26414 0,-13.79543 0,-13.79542 -4.3072,-2.96343 c -2.36895,-1.62988 -5.96895,-4.8028 -8,-7.05092 -6.45854,-7.14884 -4.87129,-14.54174 5.50321,-25.63211 l 5.80399,-6.20448 0,-11.67475 0,-11.67474 -6.95625,-7.34943 c -8.41228,-8.88775 -9.37347,-11.54885 -5.59572,-15.49198 9.68814,-10.11224 31.64196,-14.33009 48.18141,-9.25679 7.79718,2.3917 16.22172,7.59791 18.00486,11.12667 1.76011,3.48315 0.58255,5.84157 -6.79415,13.60731 l -6.84015,7.2009 0,11.75018 0,11.75018 5.5195,5.96172 c 13.37773,14.44955 12.56132,22.8684 -3.2695,33.71501 l -3.25,2.22677 0,13.88213 0,13.88214 4.52555,3.78289 c 9.15045,7.64882 11.38998,13.66266 7.47756,20.07956 -4.26209,6.9904 -11.58509,7.79059 -20.36128,2.2249 -6.73868,-4.27355 -14.49433,-4.24016 -21.46396,0.0924 -5.49029,3.41295 -11.61683,4.58492 -14.67787,2.80779 z m 34.5,-35.27137 0,-24.38337 -2.25,-0.60297 c -3.47213,-0.9305 -11.33301,-0.73933 -14.1849,0.34496 l -2.5651,0.97525 0,23.46139 0,23.46139 3.25,0.40332 c 1.7875,0.22183 6.0625,0.47534 9.5,0.56336 l 6.25,0.16004 0,-24.38337 z m 3.5,-34.53976 c 0,-4.22718 -4.60727,-6.58069 -12.82333,-6.55048 -8.55634,0.0315 -13.67667,2.2151 -13.67667,5.83262 0,1.26921 0.19412,2.50177 0.43137,2.73903 0.23725,0.23725 6.19975,0.41077 13.25,0.38561 12.79241,-0.0457 12.81863,-0.0506 12.81863,-2.40678 z m -8.18041,-9.29408 8.81958,0.2828 -0.31958,-2.7828 c -0.93851,-8.17205 -25.506,-8.5369 -26.65708,-0.39588 -0.44226,3.1279 1.5181,4.25175 5.83749,3.34656 1.925,-0.40341 7.46881,-0.60621 12.31959,-0.45068 z m 6.92425,-52.28279 c 0.95911,-1.65 1.74661,-4.82831 1.75,-7.06291 0.005,-3.23282 -0.62018,-4.66298 -3.0595,-7 -2.73504,-2.62033 -3.75168,-2.93709 -9.42667,-2.93709 -6.97561,0 -10.69576,1.88225 -13.50489,6.83296 -1.35765,2.39267 -1.31551,3.08278 0.45202,7.40284 1.63244,3.98988 2.00476,7.75055 2.29082,23.13843 l 0.34158,18.37424 5.7064,-0.59802 c 3.13852,-0.32891 7.2814,-0.25304 9.2064,0.16859 l 3.5,0.76661 0.5,-18.04282 c 0.40761,-14.70899 0.82222,-18.59715 2.24384,-21.04283 z m -228.05402,-45.52563 c -1.82059,-1.10999 -3.95809,-3.56886 -4.75,-5.46415 -2.64887,-6.33964 -2.00924,-8.1477 5.56018,-15.71712 l 7,-7 0,-13.81138 0,-13.81138 -4.95494,-3.63726 c -13.78179,-10.11677 -14.16082,-18.22142 -1.47421,-31.52201 l 5.6581,-5.93192 -0.16001,-12.28958 -0.16001,-12.28957 -5.84149,-6 c -9.30951,-9.56212 -10.08257,-12.52351 -4.53964,-17.39027 15.59442,-13.69208 46.34998,-13.69208 61.9444,0 1.94029,1.7036 3.5278,4.01022 3.5278,5.12583 0,3.03615 -3.21522,7.64866 -9.43298,13.53243 l -5.56702,5.26799 0,11.7696 0,11.7696 5.078,4.96241 c 10.66109,10.41841 13.07386,18.99888 7.33606,26.08905 -1.69727,2.09731 -5.16025,5.17681 -7.69551,6.84333 l -4.60957,3.03003 -0.0419,14.5 -0.0419,14.5 5.49964,4.82336 c 9.26989,8.13 10.6077,14.11169 4.59554,20.54773 -4.9677,5.31794 -11.52776,5.35998 -19.25523,0.1234 -3.73828,-2.53326 -5.31701,-2.96071 -10.99275,-2.97629 -4.82491,-0.0132 -6.98265,0.40967 -7.9331,1.55489 -2.10076,2.53126 -8.58856,5.42722 -12.1495,5.42317 -1.80941,-0.002 -4.77942,-0.91191 -6.60002,-2.02189 z m 35.81018,-34.34937 0,-24.375 -3.125,-0.625 c -4.6457,-0.92914 -9.18826,-0.76036 -12.72578,0.47283 l -3.14922,1.09782 0.005,14.15218 c 0.003,7.78369 0.29571,18.53967 0.65082,23.90217 l 0.64565,9.75 8.84918,0 8.84915,0 0,-24.375 z m 4.47701,-33.42568 c 1.5522,-4.04497 -4.90756,-7.7166 -13.49131,-7.66827 -8.72886,0.0491 -15.00526,3.64845 -13.44631,7.71101 0.76134,1.98402 26.17535,1.94369 26.93762,-0.0427 z m -17.57466,-10.26304 c 3.08927,-0.71213 6.03281,-0.67634 9.86874,0.12 4.70309,0.97636 5.6918,0.9094 7.0807,-0.4795 2.08345,-2.08344 0.7571,-4.4106 -3.92668,-6.8896 -2.63701,-1.3957 -4.97096,-1.71456 -10.1434,-1.38579 -7.6922,0.48894 -11.78171,2.59067 -11.78171,6.055 0,3.96691 1.27833,4.33737 8.90235,2.57989 z m 4.59765,-14.07914 c 3.01099,0 6.38027,0.28747 7.48727,0.63882 1.96568,0.62388 2.01273,0.22139 2.01273,-17.21713 0,-15.88165 0.22114,-18.28969 2,-21.77883 2.27992,-4.47193 2.49937,-7.3099 0.84587,-10.93892 -4.72818,-10.37724 -25.84587,-7.00703 -25.84587,4.12478 0,1.8666 0.9,5.15796 2,7.31414 1.77584,3.48093 2,5.89377 2,21.52755 0,17.18928 0.0478,17.59206 2.01273,16.96841 1.107,-0.35135 4.47627,-0.63882 7.48727,-0.63882 z m 67.79855,92.18334 c -3.81475,-2.32598 -6.29855,-6.72815 -6.29855,-11.16323 0,-2.6559 1.23002,-4.4521 7,-10.22208 l 7,-7 0,-13.75949 0,-13.75949 -3.25,-2.22677 c -15.70646,-10.7614 -16.54778,-19.32534 -3.26723,-33.25771 l 5.51723,-5.78802 0,-12.06568 0,-12.06568 -7,-7.36918 c -5.52043,-5.81158 -7,-8.01273 -7,-10.41391 0,-8.87465 23.59857,-18.22032 40.17172,-15.90908 6.4525,0.89984 14.20047,3.09997 18.32828,5.20453 4.74037,2.41687 10.5,7.97243 10.5,10.12798 0,2.77912 -3.23843,7.23768 -9.88751,13.61275 l -5.11249,4.90181 0,11.67895 0,11.67896 5.80399,6.20448 c 12.72362,13.60159 12.3793,22.67078 -1.21621,32.03436 l -5.58778,3.84846 0,13.47657 0,13.47658 6.9277,6.64506 c 8.14983,7.81733 9.09903,10.31696 6.19539,16.31507 -4.08569,8.43992 -11.16775,9.90583 -20.55307,4.25428 -4.99479,-3.0077 -6.69233,-3.5 -12.06873,-3.5 -4.47049,0 -6.62907,0.44904 -7.56195,1.57309 -2.10076,2.53126 -8.58856,5.42722 -12.1495,5.42317 -1.80941,-0.002 -4.73049,-0.88215 -6.49129,-1.95578 z m 35.70145,-34.41548 0,-24.375 -3.125,-0.625 c -4.6457,-0.92914 -9.18826,-0.76036 -12.72578,0.47283 l -3.14922,1.09782 0,23.90218 0,23.90217 9.5,0 9.5,0 0,-24.375 z m 4,-34.63353 c 0,-1.8199 -0.93981,-3.12685 -3.25,-4.51963 -6.21152,-3.74483 -21.56463,-1.72443 -23.40844,3.08045 -1.36599,3.55972 0.12277,3.99943 13.54105,3.99943 l 13.11739,0 0,-2.56025 z m -17.09765,-9.05519 c 3.08927,-0.71213 6.03281,-0.67634 9.86874,0.12 4.70309,0.97636 5.6918,0.9094 7.0807,-0.4795 2.09196,-2.09196 0.73912,-4.44344 -3.92668,-6.82523 -9.179,-4.68568 -26.85812,0.80454 -21.88528,6.79644 1.41072,1.69982 2.89161,1.7647 8.86252,0.38829 z m 2.29184,-14.0655 c 2.95715,-0.0682 6.82321,0.19377 8.59123,0.58209 l 3.21458,0.70604 0,-17.86801 c 0,-15.89372 0.22099,-18.30147 2,-21.7909 2.44564,-4.79699 2.52407,-7.80423 0.30165,-11.56649 -1.64468,-2.78422 -7.53762,-5.93933 -11.07189,-5.92793 -3.69205,0.0119 -9.59324,2.26699 -11.85749,4.53124 -2.98244,2.98244 -3.12315,8.07101 -0.37227,13.46318 1.77573,3.48072 2,5.89377 2,21.51918 0,10.30013 0.37689,17.36592 0.90877,17.0372 0.49983,-0.30891 3.32826,-0.61743 6.28542,-0.6856 z m 68.52437,92.41186 c -3.7177,-2.3827 -7.1322,-9.49843 -6.24812,-13.02091 0.37079,-1.47731 3.79162,-5.67629 7.60186,-9.33108 l 6.9277,-6.64506 0,-13.47658 0,-13.47657 -5.58778,-3.84846 c -13.59551,-9.36358 -13.93983,-18.43277 -1.21621,-32.03436 l 5.80399,-6.20448 0,-11.55951 0,-11.55951 -6.9155,-7.0401 c -7.62962,-7.76708 -9.44704,-11.92295 -6.59313,-15.07649 5.20738,-5.75408 15.65286,-10.33929 27.23397,-11.95477 16.79422,-2.34268 40.27466,6.98782 40.27466,16.00407 0,2.55116 -1.33854,4.53478 -7,10.37346 l -7,7.21913 0,12.55928 c 0,12.10506 0.0856,12.61537 2.36711,14.11027 3.70521,2.42774 11.49291,13.41595 12.20734,17.22417 0.35511,1.89294 0.36464,4.56142 0.0212,5.92995 -0.82197,3.27498 -5.84007,8.909 -11.25073,12.63163 l -4.34492,2.98936 0,13.77955 0,13.77954 7,7 c 6.01856,6.01856 7,7.49416 7,10.52453 0,4.07039 -3.39873,9.67714 -7.03002,11.59714 -3.85356,2.03752 -10.56943,0.89049 -15.61686,-2.66726 -3.73905,-2.63553 -5.31737,-3.10958 -10.35312,-3.10958 -5.04792,0 -6.61143,0.47219 -10.39568,3.13958 -5.57406,3.92896 -12.69009,4.8321 -16.88576,2.14306 z m 36.28144,-34.30739 0,-24.02475 -2.5651,-0.97525 c -1.4108,-0.53639 -4.53151,-0.97525 -6.9349,-0.97525 -2.40339,0 -5.5241,0.43886 -6.9349,0.97525 l -2.5651,0.97525 0,24.02475 0,24.02475 9.5,0 9.5,0 0,-24.02475 z m 3.8162,-34.70848 c 0.23018,-1.61288 -0.57711,-2.75891 -2.96742,-4.21254 -5.11032,-3.10777 -10.95878,-3.57913 -17.60794,-1.41915 -5.19892,1.68888 -5.76923,2.15573 -6.04157,4.94557 l -0.30073,3.08066 13.30073,-0.0894 c 12.93893,-0.087 13.30933,-0.14971 13.61693,-2.30509 z m -10.8162,-9.41776 c 10.95716,0.76957 10.47579,0.86073 10.81144,-2.04734 0.26449,-2.29164 -0.32597,-3.02351 -3.9176,-4.85583 -7.10574,-3.62508 -21.78853,-1.44673 -22.71618,3.37019 -0.78436,4.0728 0.49413,4.92355 6.07673,4.04368 2.88509,-0.45471 7.27061,-0.68453 9.74561,-0.5107 z m 7,-30.60263 c 0,-15.34311 0.22146,-17.66683 2,-20.98519 2.94045,-5.48626 2.64236,-10.77268 -0.80167,-14.21671 -5.40831,-5.4083 -16.64985,-4.86189 -21.62533,1.05113 -3.07329,3.6524 -3.18167,5.96619 -0.55104,11.76359 1.73123,3.81528 1.97804,6.56036 1.97804,22 l 0,17.6408 9.5,0 9.5,0 0,-17.25362 z"
         id="path4321"
         inkscape:connector-curvature="0" />
      <path
         style="fill:#000000"
         d="m 680.58732,-566.28322 c -26.35492,-5.70047 -46.71516,-24.41122 -54.82487,-50.38318 l -2.34186,-7.5 0,-163 c 0,-152.46933 0.11372,-163.41993 1.7602,-169.5 5.44637,-20.11217 19.34461,-36.84183 38.2398,-46.0302 16.31591,-7.9341 7.67665,-7.4698 139,-7.4698 l 117,0 7.94341,2.3 c 13.3281,3.8591 22.90887,9.48481 32.64023,19.16587 7.12541,7.08856 9.3803,10.15273 13.27298,18.03669 8.22477,16.65788 7.71202,3.77049 7.41098,186.26789 l -0.2676,162.22955 -2.33483,7 c -7.8125,23.42246 -26.16817,40.88013 -50.66517,48.18652 -5.59905,1.66995 -13.81862,1.80241 -123,1.98211 -99.99066,0.16457 -117.99341,-0.0223 -123.83327,-1.28545 z m 245.63375,-4.12493 c 24.59879,-6.94478 42.17578,-24.29606 49.39251,-48.75825 1.6544,-5.60782 1.78961,-16.19519 2.06862,-161.97647 0.18206,-95.12858 -0.0759,-159.33 -0.66125,-164.57286 -2.6431,-23.67373 -16.09505,-42.93639 -37.29255,-53.40142 -16.21463,-8.00505 -9.02331,-7.63185 -141.10843,-7.32315 l -117.19938,0.2739 -7.18998,2.6304 c -18.09982,6.62158 -32.28636,18.52736 -39.97009,33.54411 -7.91759,15.47378 -7.436,2.90613 -7.1208,185.82549 l 0.28087,163 2.20484,5.7753 c 4.36686,11.43842 8.63009,18.13209 16.75864,26.31263 11.67816,11.75285 24.54185,18.2408 40.25962,20.30537 3.7273,0.48959 57.4019,0.81749 119.2769,0.72868 l 112.5,-0.16148 7.80048,-2.20225 z"
         id="path4319"
         inkscape:connector-curvature="0" />
    </g>
  </g>
</svg>
