<?xml version="1.0" encoding="UTF-8" standalone="no"?>
<!-- Created with Inkscape (http://www.inkscape.org/) -->

<svg
   xmlns:dc="http://purl.org/dc/elements/1.1/"
   xmlns:cc="http://creativecommons.org/ns#"
   xmlns:rdf="http://www.w3.org/1999/02/22-rdf-syntax-ns#"
   xmlns:svg="http://www.w3.org/2000/svg"
   xmlns="http://www.w3.org/2000/svg"
   xmlns:sodipodi="http://sodipodi.sourceforge.net/DTD/sodipodi-0.dtd"
   xmlns:inkscape="http://www.inkscape.org/namespaces/inkscape"
   sodipodi:docname="circ5dora.svg"
   inkscape:version="0.48.5 r10040"
   version="1.1"
   id="svg2"
   height="446.77985"
   width="358.73318">
  <defs
     id="defs4" />
  <sodipodi:namedview
     id="base"
     pagecolor="#ffffff"
     bordercolor="#666666"
     borderopacity="1.0"
     inkscape:pageopacity="0.0"
     inkscape:pageshadow="2"
     inkscape:zoom="0.56054688"
     inkscape:cx="21.905902"
     inkscape:cy="396.04591"
     inkscape:document-units="px"
     inkscape:current-layer="layer1"
     showgrid="false"
     fit-margin-top="0"
     fit-margin-left="0"
     fit-margin-right="0"
     fit-margin-bottom="0"
     inkscape:window-width="958"
     inkscape:window-height="1078"
     inkscape:window-x="1920"
     inkscape:window-y="0"
     inkscape:window-maximized="0" />
  <metadata
     id="metadata7">
    <rdf:RDF>
      <cc:Work
         rdf:about="">
        <dc:format>image/svg+xml</dc:format>
        <dc:type
           rdf:resource="http://purl.org/dc/dcmitype/StillImage" />
        <dc:title></dc:title>
      </cc:Work>
    </rdf:RDF>
  </metadata>
  <g
     inkscape:label="Layer 1"
     inkscape:groupmode="layer"
     id="layer1"
     transform="translate(-989.50392,1375.4682)">
    <g
       id="g5046"
       transform="translate(519.13589,583.35888)">
      <path
         style="fill:#edc5c7"
         d="m 528.1864,-1513.5296 c -14.64115,-3.1971 -26.55728,-9.7658 -37,-20.3961 -12.16711,-12.3856 -18.19761,-24.956 -20.0853,-41.8672 -0.59741,-5.3519 -0.857,-68.9054 -0.67676,-165.6824 0.27313,-146.6414 0.40897,-157.3959 2.05883,-163 8.7426,-29.6962 31.68756,-49.5326 61.88407,-53.5002 5.72556,-0.7523 43.54832,-0.9934 121.31916,-0.7736 l 113,0.3195 7.47263,2.2924 c 23.88487,7.327 42.01491,24.3614 50.19529,47.1619 l 2.33208,6.5 0.28082,164 c 0.3094,180.6921 0.62324,170.7947 -5.84962,184.4816 -8.91021,18.8406 -24.24378,32.0608 -45.4312,39.1697 l -7,2.3487 -118,0.1825 c -98.69118,0.1527 -119.06362,-0.05 -124.5,-1.2368 z m 244.5,-4.7272 c 3.3,-0.9517 10.20139,-3.7915 15.33642,-6.3108 16.71769,-8.2019 29.59261,-23.8791 34.82723,-42.4077 1.7476,-6.1859 1.83635,-14.3535 1.83635,-169 l 0,-162.5 -2.71455,-8 c -7.03911,-20.7448 -23.03498,-36.7041 -44.28545,-44.1841 l -8,-2.8159 -119.5,0 -119.5,0 -8,2.7244 c -10.86426,3.6999 -19.56227,9.0143 -27.45625,16.7756 -7.89699,7.7643 -12.89775,15.6929 -16.72012,26.5096 l -2.82363,7.9904 -0.26483,161.2429 c -0.29569,180.0305 -0.72766,168.3955 6.83201,184.0138 3.29542,6.8083 5.76868,10.1587 12.27969,16.6344 12.18776,12.1216 24.60123,18.4371 40.27687,20.4913 3.7977,0.4976 57.24337,0.8261 119.37626,0.7337 103.37023,-0.1538 112.98692,-0.3078 118.5,-1.8976 z m -236.88512,-62.8068 c -3.31135,-2.6047 -5.61488,-6.9532 -5.61488,-10.5995 0,-2.1434 1.61695,-4.3413 7,-9.5151 l 7,-6.7279 0,-12.522 0,-12.5221 -3.94362,-2.4895 c -6.18001,-3.9013 -10.89347,-9.1503 -11.60038,-12.9185 -0.95143,-5.0715 2.46397,-11.7684 9.52602,-18.6787 l 6.01798,-5.8885 0,-10.0933 0,-10.0932 -7.56602,-7.396 c -6.73073,-6.5796 -7.53113,-7.7542 -7.25,-10.6396 0.59868,-6.1445 12.36735,-12.654 26.9751,-14.9204 18.39012,-2.8534 42.84092,5.9993 42.84092,15.511 0,2.4494 -1.29971,4.2877 -6.65163,9.4078 -7.40502,7.0844 -8.22654,9.2133 -8.30482,21.521 l -0.0435,6.8473 5.06721,4.5558 c 5.90018,5.3048 10.90999,13.4535 10.92341,17.7676 0.0132,4.2499 -3.87533,9.4704 -10.40284,13.9661 l -5.58783,3.8484 0,12.3684 0,12.3684 7.14485,6.8671 c 7.11191,6.8355 7.14216,6.8872 6.56171,11.2148 -0.44516,3.3189 -1.45149,5.1435 -4.2528,7.7107 -3.45009,3.1617 -4.01677,3.3379 -9.47127,2.9433 -4.12672,-0.2985 -6.97633,-1.197 -9.87062,-3.1124 -3.36386,-2.2261 -5.18888,-2.6927 -10.53141,-2.6927 -3.55434,0 -6.74452,0.4564 -7.08929,1.0143 -0.34478,0.5578 -2.37841,1.9078 -4.51918,3 -5.2937,2.7006 -12.85366,2.6532 -16.35711,-0.1026 z m 36.58001,-31.6617 c 0.16781,-11.9625 -0.0944,-22.0399 -0.58279,-22.3942 -1.90538,-1.3826 -8.9292,-1.8475 -12.67437,-0.839 l -3.93773,1.0603 0,21.9614 0,21.9615 8.44489,0 8.44489,0 0.30511,-21.75 z m 4.20511,-32.072 c -0.055,-0.6479 -0.1675,-1.5767 -0.25,-2.0641 -0.31619,-1.8677 -7.15055,-4.1111 -12.30113,-4.0378 -7.56662,0.1076 -12.27533,1.9806 -12.64331,5.029 l -0.29445,2.4393 12.79445,-0.094 c 9.15983,-0.067 12.76603,-0.4288 12.69444,-1.2722 z m 0,-10.9319 c -0.055,-0.6853 -0.1675,-1.6589 -0.25,-2.1634 -0.0825,-0.5045 -2.16688,-1.6875 -4.63195,-2.629 -7.64043,-2.9179 -19.65499,-0.4651 -20.3169,4.1477 -0.29008,2.0216 0.077,2.0799 12.5,1.9868 9.55786,-0.072 12.77353,-0.4115 12.69885,-1.3421 z m -3.4,-27.5359 c 0,-13.8164 0.24996,-16.2798 2,-19.7102 2.61553,-5.1269 2.52573,-8.2773 -0.33056,-11.5979 -1.88528,-2.1918 -3.40496,-2.7986 -7.95382,-3.1758 -7.14591,-0.5926 -9.75348,0.084 -13.059,3.3898 -3.1778,3.1778 -3.32674,5.6466 -0.65662,10.8839 1.75381,3.44 2,5.8972 2,19.9614 l 0,16.0386 9,0 9,0 0,-15.7898 z m 134.00237,99.5275 c -3.40377,-3.4038 -4.00237,-4.6328 -4.00237,-8.2174 0,-3.8627 0.51701,-4.7086 6.18394,-10.1177 3.40117,-3.2464 6.55117,-5.9026 7,-5.9026 0.44883,0 0.81606,-5.7614 0.81606,-12.8031 l 0,-12.8032 -6.06242,-4.2753 c -13.2798,-9.3652 -13.15852,-17.9684 0.43809,-31.0766 l 4.62433,-4.4582 0,-10.7856 0,-10.7856 -7,-6.8083 c -6.14446,-5.9763 -7,-7.2545 -7,-10.4582 0,-3.1863 0.557,-4.033 4.38617,-6.6676 10.03137,-6.9018 25.38628,-10.2496 38.0092,-8.2871 12.1326,1.8862 25.48715,8.1331 27.25928,12.7512 1.20192,3.1322 -1.04953,7.0373 -7.7133,13.3788 l -6.94135,6.6057 0,10.6856 0,10.6857 3.56601,2.7199 c 1.9613,1.496 5.3363,5.1922 7.5,8.2137 3.27854,4.5785 3.93399,6.2992 3.93399,10.3281 0,4.1621 -0.50979,5.3986 -3.66636,8.8926 -2.01649,2.232 -5.61649,5.201 -8,6.5979 l -4.33364,2.5396 0,12.2012 0,12.2011 6.91844,6.1943 c 7.77132,6.9578 9.05559,9.9464 6.69844,15.5879 -3.29805,7.8934 -14.01409,9.9372 -22.53525,4.2982 -5.7567,-3.8096 -14.41953,-3.801 -20.1935,0.02 -2.91785,1.931 -5.74018,2.8136 -9.97619,3.12 -5.78166,0.4182 -5.99225,0.3423 -9.90957,-3.575 z m 37.76676,-30.4787 -0.26913,-22.2409 -4.59593,-0.8391 c -2.9208,-0.5332 -6.11,-0.4314 -8.75,0.2795 l -4.15407,1.1186 0,21.9614 0,21.9615 9.01913,0 9.01913,0 -0.26913,-22.241 z m 4.04904,-32.082 c 0.19046,-0.9718 -1.01375,-2.4355 -3,-3.6465 -7.22834,-4.407 -24.60024,-1.1172 -22.53414,4.2674 0.32779,0.8542 4.04304,1.1732 12.83862,1.1024 10.57297,-0.085 12.42373,-0.3364 12.69552,-1.7233 z m 0.68183,-10.5692 c 0,-0.7656 -1.2705,-2.3405 -2.82333,-3.4999 -5.08962,-3.7999 -21.41634,-2.3347 -23.10806,2.0739 -0.3163,0.8243 -0.3769,1.8194 -0.13467,2.2113 0.24224,0.392 6.2062,0.6888 13.25325,0.6596 10.25501,-0.042 12.81281,-0.3309 12.81281,-1.4449 z m -3.5,-27.8235 c 0,-14.5492 0.21725,-16.6395 2.10599,-20.2631 2.3512,-4.5109 2.01906,-7.8962 -1.07868,-10.9939 -2.64634,-2.6463 -8.77094,-4.1221 -13.05084,-3.1447 -9.60358,2.1931 -12.27892,7.3511 -7.97647,15.3786 1.75735,3.2788 2.00008,5.6428 2.00065,19.4852 l 6.4e-4,15.7536 8.99936,0 8.99935,0 0,-16.2227 z m -120.6659,26.652 c -4.50456,-2.2297 -7.3341,-6.7001 -7.3341,-11.587 0,-2.2281 1.52455,-4.2936 7,-9.4836 l 7,-6.6352 0,-12.4468 0,-12.4469 -4.93678,-3.1989 c -13.93492,-9.0295 -14.22266,-17.9339 -0.99704,-30.8542 l 5.92039,-5.7837 0.007,-10.1295 0.007,-10.1296 -7.57072,-7.5218 c -6.76967,-6.7259 -7.53678,-7.8716 -7.25,-10.8283 0.61402,-6.3303 12.57633,-12.6366 28.07072,-14.7983 17.29454,-2.4128 40.70837,5.9138 41.56959,14.7832 0.28465,2.9316 -0.50805,4.1245 -7.25,10.9102 l -7.56959,7.6188 0,9.9503 0,9.9502 6.09113,5.9417 c 8.92832,8.7094 11.59636,15.5892 8.42439,21.7231 -1.49379,2.8887 -8.08552,8.7643 -12.26552,10.933 -2.15223,1.1166 -2.25,1.714 -2.25,13.7474 l 0,12.5801 7,6.6352 c 7.66444,7.2649 8.39744,9.3871 5.41385,15.6746 -3.8234,8.0572 -13.46539,9.307 -22.82108,2.9581 -5.22067,-3.5429 -13.79617,-3.5372 -18.60715,0.012 -3.25461,2.4012 -8.79331,4.4728 -11.98562,4.483 -0.825,0 -3.37466,-0.9231 -5.6659,-2.0573 z m 34.6659,-32.8293 c 0,-24.5796 0.49577,-23.1177 -7.83179,-23.0934 -9.89147,0.029 -9.16821,-1.7936 -9.16821,23.103 l 0,21.8834 8.5,0 8.5,0 0,-21.893 z m 4.5,-31.9992 c 0,-0.7656 -1.2705,-2.3405 -2.82333,-3.4999 -5.67646,-4.2381 -22.67667,-2.127 -22.67667,2.816 0,2.1305 0.29731,2.1801 12.75,2.1286 10.20147,-0.042 12.75,-0.331 12.75,-1.4447 z m -12.5,-9.5142 c 3.025,0 6.62874,0.2977 8.00831,0.6616 3.5051,0.9245 5.8295,-0.6482 4.39945,-2.9767 -2.8799,-4.6893 -15.56193,-6.3617 -22.15776,-2.922 -5.31308,2.7707 -3.98182,7.2107 1.75,5.8365 1.375,-0.3297 4.975,-0.5994 8,-0.5994 z m 11.24553,-49.0936 c 0.95818,-1.65 1.73061,-4.125 1.71651,-5.5 -0.0809,-7.8844 -13.13765,-12.0518 -21.05096,-6.7191 -4.96078,3.3431 -5.80944,6.6903 -3.10674,12.2533 1.98263,4.0808 2.19566,6.0803 2.19566,20.6078 l 0,16.0884 5.25,-0.5987 c 2.8875,-0.3293 6.825,-0.2493 8.75,0.1778 l 3.5,0.7764 0.50169,-17.0429 c 0.40446,-13.7401 0.83931,-17.6244 2.24384,-20.043 z m -128.63065,36.4117 c -3.30355,-2.5986 -5.61488,-6.9513 -5.61488,-10.574 0,-2.1001 1.6766,-4.402 7,-9.6106 l 7,-6.849 0,-12.4265 0,-12.4265 -3.94362,-2.4895 c -6.40513,-4.0434 -10.8899,-9.1313 -11.65804,-13.2258 -0.95173,-5.0731 3.14173,-12.7748 10.236,-19.2586 l 5.36566,-4.9039 0,-10.1419 0,-10.142 -7.5,-7.3315 c -8.59562,-8.4026 -9.55658,-11.544 -4.86272,-15.8964 5.93359,-5.5019 21.76141,-10.6619 32.57056,-10.6181 10.52294,0.043 26.44554,5.3727 32.04216,10.7262 4.72082,4.5158 3.86229,7.3694 -4.75,15.7883 l -7.5,7.3315 0,9.9883 0,9.9883 6.03738,6.0374 c 13.13937,13.1393 12.8012,21.2702 -1.28738,30.9538 l -4.75,3.2649 0,12.4866 0,12.4865 7,6.7279 c 5.60856,5.3906 6.99926,7.3218 6.99626,9.7154 -0.005,3.6503 -3.01146,8.7961 -6.46047,11.056 -3.76076,2.4641 -12.26099,1.5409 -17.45416,-1.8958 -3.33137,-2.2046 -5.17062,-2.6727 -10.50117,-2.6727 -3.55434,0 -6.74452,0.4564 -7.08929,1.0143 -0.34478,0.5578 -2.37841,1.9078 -4.51918,3 -5.2937,2.7006 -12.85366,2.6532 -16.35711,-0.1026 z m 36.15425,-32.0904 -0.26913,-22.1786 -3,-0.8423 c -3.11038,-0.8732 -11.20048,-0.2216 -13.29126,1.0706 -0.90099,0.5568 -1.03478,6.0851 -0.54293,22.434 l 0.65269,21.695 8.35988,0 8.35988,0 -0.26913,-22.1787 z m 4.09507,-31.2374 c 0.7844,-0.4848 0.83431,-1.2787 0.15961,-2.5394 -2.79145,-5.2159 -20.81823,-5.5094 -24.70513,-0.4023 -2.53255,3.3276 -0.64787,3.9456 11.56981,3.794 6.50898,-0.081 12.34804,-0.4644 12.97571,-0.8523 z m 0.5358,-11.3719 c -0.055,-0.6666 -0.1675,-1.6248 -0.25,-2.1293 -0.0825,-0.5045 -2.17875,-1.6921 -4.65834,-2.639 -7.79086,-2.9754 -20.49166,-0.4815 -20.49166,4.0237 0,2.0878 0.34744,2.1437 12.75,2.0514 9.32763,-0.069 12.72316,-0.4201 12.65,-1.3068 z m -3.4,-27.9378 c 0,-14.4556 0.21779,-16.5831 1.99626,-19.5 1.09795,-1.8008 1.99795,-4.4866 2,-5.9684 0.008,-5.8322 -7.94277,-10.5199 -15.43499,-9.1002 -9.67522,1.8333 -13.02778,7.7367 -8.55753,15.0686 1.77847,2.9169 1.99626,5.0444 1.99626,19.5 l 0,16.2258 9,0 9,0 0,-16.2258 z m 135.8728,102.1009 c -3.65931,-2.353 -5.8728,-6.5017 -5.8728,-11.0074 0,-3.3932 0.69359,-4.4735 6.16065,-9.5957 3.38836,-3.1746 6.53836,-5.772 7,-5.772 0.46164,0 0.83935,-5.7614 0.83935,-12.8031 l 0,-12.8032 -6.06242,-4.2753 c -13.10684,-9.2432 -13.2506,-17.6097 -0.51694,-30.0842 l 5.57936,-5.4659 0,-10.882 0,-10.882 -6.14168,-5.6522 c -6.98039,-6.424 -9.51789,-11.0512 -7.81018,-14.2421 2.94732,-5.5071 17.9775,-11.604 30.95186,-12.5555 12.52961,-0.9189 27.85965,3.4012 35.75,10.0746 5.0654,4.2841 4.43556,6.5823 -4.25,15.5075 l -7.5,7.707 0,10.6483 0,10.6482 3.09626,2.28 c 1.70294,1.2539 5.07794,4.912 7.5,8.129 3.80033,5.0476 4.40374,6.5158 4.40374,10.7152 0,5.7497 -2.97821,9.7881 -11.02763,14.9534 l -4.97237,3.1908 0,12.2458 0,12.2458 6.01787,5.2341 c 9.27062,8.0634 10.59699,12.4038 5.86225,19.1837 -3.95844,5.6683 -13.54028,6.3581 -20.87698,1.5029 -5.72026,-3.7855 -14.87956,-3.7483 -20.51828,0.083 -5.03934,3.4243 -13.61922,4.2383 -17.61206,1.671 z m 35.89633,-32.6251 -0.26913,-22.25 -4.5,-0.8635 c -2.93753,-0.5637 -5.97566,-0.4635 -8.75,0.2885 l -4.25,1.1521 0,21.9614 0,21.9615 9.01913,0 9.01913,0 -0.26913,-22.25 z m 4.01789,-31.9112 c 0.57321,-2.9193 -3.61876,-5.2333 -10.24471,-5.6552 -9.14755,-0.5825 -16.68254,2.4024 -15.28154,6.0537 0.75693,1.9726 25.1354,1.592 25.52625,-0.3985 z m -2.6e-4,-11.3388 c -0.65105,-4.5407 -11.45347,-6.8786 -19.97973,-4.324 -3.72362,1.1156 -6.45918,3.9598 -5.42226,5.6375 0.26249,0.4248 6.14985,0.753 13.08301,0.7294 12.0227,-0.041 12.59248,-0.1354 12.31898,-2.0429 z m -2.78676,-27.1229 c 0,-14.2375 0.24714,-16.6816 2.1134,-20.9006 1.96787,-4.4486 2.00698,-5.0008 0.56801,-8.0184 -2.27333,-4.7672 -8.90555,-7.1405 -15.40436,-5.5123 -6.39372,1.6018 -9.27705,4.4107 -9.27705,9.0374 0,1.999 0.66069,4.508 1.4682,5.5757 1.15399,1.5257 1.475,5.5792 1.5,18.9411 l 0.0318,17 9.5,0 9.5,0 0,-16.1229 z"
         id="path5060"
         inkscape:connector-curvature="0" />
      <path
         style="fill:#bebebe"
         d="m 528.1864,-1513.5296 c -14.64115,-3.1971 -26.55728,-9.7658 -37,-20.3961 -12.16711,-12.3856 -18.19761,-24.956 -20.0853,-41.8672 -0.59741,-5.3519 -0.857,-68.9054 -0.67676,-165.6824 0.27313,-146.6414 0.40897,-157.3959 2.05883,-163 8.7426,-29.6962 31.68756,-49.5326 61.88407,-53.5002 5.72556,-0.7523 43.54832,-0.9934 121.31916,-0.7736 l 113,0.3195 7.47263,2.2924 c 23.88487,7.327 42.01491,24.3614 50.19529,47.1619 l 2.33208,6.5 0.28082,164 c 0.3094,180.6921 0.62324,170.7947 -5.84962,184.4816 -8.91021,18.8406 -24.24378,32.0608 -45.4312,39.1697 l -7,2.3487 -118,0.1825 c -98.69118,0.1527 -119.06362,-0.05 -124.5,-1.2368 z m 244.5,-4.7272 c 3.3,-0.9517 10.20139,-3.7915 15.33642,-6.3108 16.71769,-8.2019 29.59261,-23.8791 34.82723,-42.4077 1.7476,-6.1859 1.83635,-14.3535 1.83635,-169 l 0,-162.5 -2.71455,-8 c -7.03911,-20.7448 -23.03498,-36.7041 -44.28545,-44.1841 l -8,-2.8159 -119.5,0 -119.5,0 -8,2.7244 c -10.86426,3.6999 -19.56227,9.0143 -27.45625,16.7756 -7.89699,7.7643 -12.89775,15.6929 -16.72012,26.5096 l -2.82363,7.9904 -0.26483,161.2429 c -0.29569,180.0305 -0.72766,168.3955 6.83201,184.0138 3.29542,6.8083 5.76868,10.1587 12.27969,16.6344 12.18776,12.1216 24.60123,18.4371 40.27687,20.4913 3.7977,0.4976 57.24337,0.8261 119.37626,0.7337 103.37023,-0.1538 112.98692,-0.3078 118.5,-1.8976 z m -236.08004,-62.5448 c -3.28989,-2.0696 -6.41996,-7.5388 -6.41996,-11.2176 0,-1.4693 2.41197,-4.5553 7,-8.9561 l 7,-6.7144 0,-12.9823 c 0,-12.488 -0.0857,-13.0219 -2.25,-14.0233 -3.86738,-1.7894 -11.4205,-9.0703 -12.75724,-12.2975 -2.09633,-5.061 0.0575,-9.9766 8.06456,-18.406 l 6.94268,-7.3088 0,-10.3121 0,-10.312 -7.5,-7.707 c -9.11917,-9.3708 -9.53634,-11.43 -3.25,-16.0423 5.97796,-4.3861 11.62273,-6.6452 21.40888,-8.568 9.12361,-1.7926 16.84022,-1.2009 27.99207,2.1463 5.40905,1.6235 14.01654,6.9089 15.67101,9.6226 1.78861,2.9338 -0.36144,7.0736 -6.91314,13.3109 l -6.49784,6.1859 -0.60484,10.6806 -0.60483,10.6806 7.09203,7.4661 c 8.12782,8.5565 10.31968,13.4794 8.23852,18.5038 -1.39865,3.3766 -8.68962,10.5082 -12.53367,12.2597 -2.47751,1.1288 -2.49819,1.2457 -2.49819,14.1205 l 0,12.9823 7,6.7144 c 7.54859,7.2406 8.36563,9.4585 5.51509,14.9708 -3.88308,7.5091 -12.19866,9.0918 -21.16908,4.0292 -7.2834,-4.1105 -15.5207,-4.2363 -21.42764,-0.3273 -5.38409,3.563 -13.16028,4.2301 -17.49841,1.501 z m 35.76446,-31.9237 c 0.17969,-11.9625 0.0121,-22.1521 -0.3725,-22.6436 -0.85993,-1.0991 -13.86332,-1.3107 -15.57398,-0.2535 -0.92306,0.5705 -1.23794,6.346 -1.23794,22.7061 l 0,21.941 8.42886,0 8.42886,0 0.3267,-21.75 z m 4.31558,-32.788 c 0,-4.6773 -14.23633,-7.2703 -22.03212,-4.013 -2.56698,1.0725 -3.46788,2.0615 -3.46788,3.8068 l 0,2.3579 12.75,-0.095 c 11.96877,-0.089 12.75,-0.2151 12.75,-2.0569 z m 0.5,-10.6286 c 0,-3.2813 -4.79238,-5.3334 -12.45559,-5.3334 -8.54593,0 -13.54441,1.82 -13.54441,4.9317 0,2.1397 0.29248,2.189 13,2.189 11.81762,0 13,-0.1626 13,-1.7873 z m -4,-27.0592 c 0,-13.9559 0.22468,-16.0944 1.99626,-19 2.93253,-4.8098 2.60974,-9.3221 -0.91934,-12.8511 -2.59461,-2.5946 -3.6115,-2.9231 -9.04966,-2.9231 -12.25557,0 -16.79283,5.6587 -12.02726,15 1.75004,3.4304 2,5.8938 2,19.7102 l 0,15.7898 9,0 9,0 0,-15.7258 z m 136.29855,101.2663 c -3.68387,-2.2462 -6.29855,-6.6998 -6.29855,-10.7283 0,-2.1434 1.61695,-4.3413 7,-9.5151 l 7,-6.7279 0,-12.8072 0,-12.8072 -3.52106,-1.8962 c -5.73859,-3.0905 -12.47894,-10.9525 -12.47894,-14.5556 0,-4.5314 3.50518,-10.6386 9.60941,-16.7429 l 5.39059,-5.3905 0,-11.1312 0,-11.1311 -7.06813,-6.7396 c -6.29869,-6.0059 -7.03351,-7.0958 -6.75,-10.0115 0.61366,-6.3112 12.79681,-12.908 27.90588,-15.1102 12.96363,-1.8895 30.97451,2.839 38.85549,10.201 4.61931,4.3151 4.01759,6.3077 -4.44324,14.7138 l -7.5,7.4515 0,10.7356 0,10.7357 4.62433,4.4582 c 13.83799,13.3409 13.82823,21.8931 -0.0359,31.4417 l -5.58843,3.8489 0,12.6283 0,12.6283 5.11506,3.9008 c 2.81329,2.1455 6.23147,5.5878 7.59597,7.6497 2.21939,3.3537 2.35894,4.1185 1.32388,7.2547 -0.63636,1.9282 -2.7202,4.8783 -4.63076,6.5558 -4.68732,4.1155 -9.82772,4.1306 -17.05814,0.05 -4.4942,-2.5364 -6.39074,-3 -12.27184,-3 -3.82588,0 -7.23823,0.4564 -7.583,1.0143 -1.25165,2.0252 -8.50198,4.9856 -12.20133,4.982 -2.08441,0 -5.23049,-0.8822 -6.99129,-1.9558 z m 35.47058,-32.2905 -0.26913,-22.25 -4.5,-0.8635 c -2.93753,-0.5637 -5.97566,-0.4635 -8.75,0.2885 l -4.25,1.1521 0,21.9614 0,21.9615 9.01913,0 9.01913,0 -0.26913,-22.25 z m 4.23087,-32.551 c 0,-1.6805 -0.93525,-2.6918 -3.46788,-3.75 -4.08613,-1.7073 -13.93012,-1.9034 -18.34204,-0.3654 -2.91301,1.0155 -4.90762,3.9464 -3.85012,5.6574 0.25798,0.4175 6.13703,0.759 13.06455,0.759 12.47808,0 12.59549,-0.021 12.59549,-2.301 z m 0.4,-9.9529 c -0.055,-0.6853 -0.1675,-1.6472 -0.25,-2.1375 -0.26241,-1.5595 -8.03091,-4.1086 -12.52101,-4.1086 -7.58543,0 -14.51457,3.2498 -13.3576,6.2648 0.7446,1.9404 26.28436,1.9221 26.12861,-0.019 z m -3.4,-27.3834 c 0,-13.4505 0.27738,-16.2556 1.97804,-20.0035 2.57212,-5.6685 2.52193,-8.1681 -0.22804,-11.3558 -4.29616,-4.9799 -16.21875,-5.23 -21.31007,-0.447 -3.05733,2.8722 -3.23743,8.1233 -0.43619,12.7178 1.7715,2.9055 1.99633,5.0447 1.99691,19 l 6.4e-4,15.7258 8.99936,0 8.99935,0 0,-15.6443 z m -119.98007,26.4208 c -3.86801,-1.9823 -8.01993,-7.4801 -8.01993,-10.6195 0,-2.8325 3.43774,-7.4377 9.08023,-12.164 l 4.77541,-4 0.0722,-13.1819 0.0722,-13.1819 -3.25,-2.2235 c -6.3238,-4.3263 -11.72326,-10.2532 -12.3411,-13.5466 -0.82675,-4.407 3.33605,-11.889 10.25592,-18.4335 l 5.33514,-5.0458 0,-10.8747 0,-10.8748 -6.09427,-5.3006 c -9.31457,-8.1016 -10.82512,-12.1478 -6.15573,-16.4889 12.53178,-11.6507 39.48745,-13.8488 57.5549,-4.6933 12.14122,6.1524 12.54013,9.7647 2.1951,19.8774 l -7.5,7.3315 0,10.3562 0,10.3561 6.28199,6.4622 c 7.43061,7.6436 10.16499,12.766 9.29377,17.4099 -0.65889,3.5122 -5.74942,9.2408 -11.82576,13.3079 l -3.75,2.5101 0.0473,13.1171 0.0473,13.1171 5.27962,4.221 c 9.14088,7.3082 10.55975,12.6387 5.09332,19.1352 -5.0465,5.9974 -11.92162,6.1765 -20.69613,0.5393 -2.95037,-1.8956 -5.07725,-2.3955 -10.19095,-2.3955 -3.55434,0 -6.74452,0.4564 -7.08929,1.0143 -0.97546,1.5783 -7.7124,4.7523 -11.53768,5.4357 -2.3596,0.4216 -4.5558,0.052 -6.93356,-1.1665 z m 33.7492,-33.5335 -0.26913,-22.25 -5.95833,-0.3061 c -3.27708,-0.1684 -6.98958,-0.047 -8.25,0.269 l -2.29167,0.5752 0,21.9809 0,21.981 8.51913,0 8.51913,0 -0.26913,-22.25 z m 4.73087,-32.2404 c 0,-4.3211 -13.21745,-6.9869 -21,-4.2354 -3.04368,1.0761 -4.07201,2.0114 -4.30118,3.9121 l -0.30119,2.4979 12.80119,-0.096 c 12.0649,-0.09 12.80118,-0.21 12.80118,-2.0786 z m -17.64404,-8.5721 c 3.31195,-0.7103 6.70502,-0.7444 10.23513,-0.1028 6.12224,1.1128 7.90891,0.6799 7.90891,-1.916 0,-4.5843 -13.51129,-7.0427 -22.25,-4.0485 -2.84533,0.9749 -3.75,1.8291 -3.75,3.5407 0,3.903 0.57523,4.088 7.85596,2.5266 z m 16.16455,-48.2032 c 4.44489,-7.2901 1.05749,-14.5203 -7.24103,-15.4557 -6.45633,-0.7277 -11.57432,0.4253 -14.39121,3.2422 -2.93465,2.9347 -3.05807,6.7425 -0.38827,11.9792 1.75207,3.4366 2,5.8972 2,19.8491 l 0,15.9263 5.25,-0.5902 c 2.8875,-0.3246 6.825,-0.2551 8.75,0.1543 l 3.5,0.7444 0.27425,-16.3077 c 0.23828,-14.1688 0.53289,-16.7318 2.24626,-19.5419 z m -127.72196,35.3656 c -3.66598,-2.3033 -6.29855,-6.7728 -6.29855,-10.6935 0,-2.0216 1.74504,-4.3835 7,-9.4743 l 7,-6.7813 0,-12.9149 c 0,-12.4181 -0.0866,-12.9549 -2.25,-13.9559 -3.86738,-1.7894 -11.4205,-9.0703 -12.75724,-12.2975 -2.09633,-5.061 0.0575,-9.9766 8.06456,-18.406 l 6.94268,-7.3088 0,-10.3121 0,-10.312 -7.57051,-7.7794 c -6.24469,-6.417 -7.51438,-8.261 -7.25,-10.5293 0.6647,-5.7028 13.16071,-12.3261 27.44546,-14.5469 12.57855,-1.9555 28.60064,1.6986 37.65736,8.5885 6.6876,5.0875 6.34294,7.1831 -2.7118,16.4877 l -7.57051,7.7794 0,10.312 0,10.3121 6.88268,7.2456 c 7.09323,7.4674 9.77748,12.7203 8.69795,17.0215 -0.84395,3.3625 -5.82877,8.8066 -11.13051,12.1561 l -4.44654,2.8091 -0.002,12.8928 -0.002,12.8928 7,6.7144 c 7.56986,7.261 8.13181,8.8126 5.33004,14.7169 -3.61897,7.6264 -12.02119,9.3414 -20.98403,4.2831 -7.33661,-4.1405 -16.01957,-4.2654 -21.83459,-0.314 -5.30841,3.6072 -12.74921,4.2184 -17.21287,1.4139 z m 35.70145,-32.5061 0,-22.4061 -4.86408,-0.669 c -2.80112,-0.3853 -6.68159,-0.1796 -9.14944,0.4849 l -4.28536,1.154 0.64944,12.0782 c 0.35719,6.643 0.64944,16.5075 0.64944,21.9212 l 0,9.843 8.5,0 8.5,0 0,-22.4062 z m 4.81817,-31.889 c 0.19301,-1.0017 -0.98713,-2.4471 -3,-3.6743 -5.69135,-3.4699 -19.37818,-2.4895 -22.49949,1.6117 -2.53372,3.3292 -0.65386,3.904 12.45072,3.8075 10.99287,-0.081 12.77403,-0.3191 13.04877,-1.7449 z m -0.0235,-11.1445 c -0.43654,-3.052 -6.31385,-5.5705 -12.7947,-5.4827 -7.74748,0.105 -12.42392,1.956 -12.79812,5.0657 l -0.29812,2.4774 13.09282,0 c 12.64933,0 13.08283,-0.07 12.79812,-2.0604 z m -3.79467,-26.8139 c 0,-13.8431 0.24255,-16.2062 2,-19.4852 2.55155,-4.7606 2.53514,-8.3112 -0.0536,-11.6022 -2.84433,-3.616 -8.42076,-4.9651 -14.836,-3.5893 -8.55344,1.8344 -11.21808,7.5275 -7.1104,15.1915 1.75745,3.279 2,5.6421 2,19.4852 l 0,15.7536 9,0 9,0 0,-15.7536 z m 136.29855,101.2941 c -3.72798,-2.2731 -6.29855,-6.7093 -6.29855,-10.8697 0,-2.3303 1.43009,-4.2776 7,-9.532 l 7,-6.6034 0,-12.7903 0,-12.7903 -3.52106,-1.8962 c -1.93659,-1.0429 -5.53659,-4.051 -8,-6.6846 -7.02406,-7.5093 -5.93941,-13.3608 4.45853,-24.0531 l 6.06253,-6.2342 0,-10.9897 0,-10.9897 -6.83658,-6.5537 c -3.76012,-3.6045 -7.0995,-7.591 -7.42085,-8.8589 -1.37586,-5.4287 9.36737,-12.5669 23.65842,-15.7196 13.36483,-2.9484 28.81092,-0.3978 39.62853,6.5438 9.11164,5.847 8.82697,9.1306 -1.6278,18.776 l -6.40172,5.9061 0,10.9413 0,10.9413 4.62433,4.4582 c 13.56449,13.0772 13.67148,21.5507 0.38977,30.8673 l -6.0141,4.2186 0,12.7307 0,12.7306 5.11506,3.9008 c 2.81329,2.1455 6.23147,5.5878 7.59597,7.6497 2.21939,3.3537 2.35894,4.1185 1.32388,7.2547 -0.63636,1.9282 -2.7202,4.8783 -4.63076,6.5558 -4.68732,4.1155 -9.82772,4.1306 -17.05814,0.05 -4.4942,-2.5364 -6.39074,-3 -12.27184,-3 -3.99608,0 -7.24651,0.4699 -7.63852,1.1041 -1.16043,1.8777 -8.75276,4.851 -12.43565,4.8702 -1.925,0.01 -4.94065,-0.8602 -6.70145,-1.9338 z m 35.70145,-32.4685 0,-22.4281 -5.27444,-0.659 c -2.90094,-0.3624 -6.83844,-0.254 -8.75,0.241 l -3.47556,0.9 -0.26913,22.1871 -0.26913,22.187 9.01913,0 9.01913,0 0,-22.428 z m 3.81199,-32.3602 c 0.46912,-3.1522 -4.38936,-5.2118 -12.29445,-5.2118 -7.75368,0 -13.51754,2.0392 -13.51754,4.7823 0,1.0364 0.18747,2.0719 0.4166,2.301 0.22913,0.2292 5.96663,0.3735 12.75,0.3207 11.72043,-0.091 12.34891,-0.2001 12.64539,-2.1922 z m 0.18801,-10.8121 c 0,-5.9157 -20.38464,-7.4609 -25.00364,-1.8953 -2.79282,3.3651 -0.65454,4.067 12.39003,4.067 12.27949,0 12.61361,-0.057 12.61361,-2.1717 z m -3,-26.834 c 0,-14.1008 0.23961,-16.4292 2.0825,-20.2361 3.6179,-7.4736 0.42197,-13.3928 -7.99931,-14.8155 -4.70721,-0.7953 -11.50324,0.9059 -14.13594,3.5386 -2.32715,2.3272 -2.54961,8.2696 -0.44725,11.9473 1.07554,1.8815 1.4379,6.5824 1.46456,19 l 0.0354,16.5 9.5,0 9.5,0 0,-15.9343 z"
         id="path5058"
         inkscape:connector-curvature="0" />
      <path
         style="fill:#dc8c8f"
         d="m 528.6864,-1513.4956 c -27.82894,-6.1199 -48.70561,-25.9779 -56.22323,-53.4797 -1.6683,-6.1032 -1.77677,-16.3899 -1.77677,-168.5 l 0,-162 2.3032,-8.0412 c 3.55447,-12.4097 9.14808,-21.6403 19.11346,-31.5411 6.94557,-6.9006 10.43325,-9.4809 17.79851,-13.1679 17.43616,-8.7286 9.26534,-8.2498 140.78483,-8.2498 109.55287,0 116.38905,0.1025 123,1.8449 21.70609,5.7207 39.64649,20.2779 48.97181,39.7366 6.99534,14.5968 6.61762,3.5532 6.30759,184.4185 l -0.2794,163 -2.75576,8.1305 c -6.48453,19.1318 -23.34371,36.7322 -42.35636,44.2187 -13.26517,5.2233 -11.53873,5.1585 -134.59572,5.0504 -90.64751,-0.08 -115.53343,-0.3734 -120.29216,-1.4199 z m 244.5,-4.8059 c 23.26553,-6.2328 41.55827,-23.4138 49.16156,-46.1738 l 2.33844,-7 0.27376,-159.4207 c 0.30932,-180.1351 0.70954,-169.7831 -7.17473,-185.5793 -7.22395,-14.4732 -17.89522,-24.703 -32.7527,-31.3977 -14.01092,-6.3132 -9.36864,-6.104 -135.04374,-6.0849 -128.59107,0.02 -121.60709,-0.3666 -137.78086,7.6174 -18.04357,8.9071 -31.6509,26.1795 -35.55835,45.1359 -1.30213,6.3171 -1.46359,28.4819 -1.23104,169 l 0.26766,161.7293 2.69929,7.62 c 4.83793,13.6573 11.98987,23.7847 22.29406,31.5691 10.46547,7.9063 21.91616,12.6673 34.50665,14.3473 3.025,0.4036 56.35,0.6539 118.5,0.5563 103.90699,-0.1633 113.52305,-0.3177 119.5,-1.9189 z m -236.58004,-62.5001 c -3.28989,-2.0696 -6.41996,-7.5388 -6.41996,-11.2176 0,-1.4693 2.41197,-4.5553 7,-8.9561 l 7,-6.7144 0,-12.9823 c 0,-12.488 -0.0857,-13.0219 -2.25,-14.0233 -3.86738,-1.7894 -11.4205,-9.0703 -12.75724,-12.2975 -2.09633,-5.061 0.0575,-9.9766 8.06456,-18.406 l 6.94268,-7.3088 0,-10.3121 0,-10.312 -7.5,-7.707 c -9.11917,-9.3708 -9.53634,-11.43 -3.25,-16.0423 5.97796,-4.3861 11.62273,-6.6452 21.40888,-8.568 9.12361,-1.7926 16.84022,-1.2009 27.99207,2.1463 5.40905,1.6235 14.01654,6.9089 15.67101,9.6226 1.78861,2.9338 -0.36144,7.0736 -6.91314,13.3109 l -6.49784,6.1859 -0.60484,10.6806 -0.60483,10.6806 7.09203,7.4661 c 8.12782,8.5565 10.31968,13.4794 8.23852,18.5038 -1.39865,3.3766 -8.68962,10.5082 -12.53367,12.2597 -2.47751,1.1288 -2.49819,1.2457 -2.49819,14.1205 l 0,12.9823 7,6.7144 c 7.54859,7.2406 8.36563,9.4585 5.51509,14.9708 -3.88308,7.5091 -12.19866,9.0918 -21.16908,4.0292 -7.2834,-4.1105 -15.5207,-4.2363 -21.42764,-0.3273 -5.38409,3.563 -13.16028,4.2301 -17.49841,1.501 z m 35.76446,-31.9237 c 0.17969,-11.9625 0.0121,-22.1521 -0.3725,-22.6436 -0.85993,-1.0991 -13.86332,-1.3107 -15.57398,-0.2535 -0.92306,0.5705 -1.23794,6.346 -1.23794,22.7061 l 0,21.941 8.42886,0 8.42886,0 0.3267,-21.75 z m 4.31558,-32.788 c 0,-4.6773 -14.23633,-7.2703 -22.03212,-4.013 -2.56698,1.0725 -3.46788,2.0615 -3.46788,3.8068 l 0,2.3579 12.75,-0.095 c 11.96877,-0.089 12.75,-0.2151 12.75,-2.0569 z m 0.5,-10.6286 c 0,-3.2813 -4.79238,-5.3334 -12.45559,-5.3334 -8.54593,0 -13.54441,1.82 -13.54441,4.9317 0,2.1397 0.29248,2.189 13,2.189 11.81762,0 13,-0.1626 13,-1.7873 z m -4,-27.0592 c 0,-13.9559 0.22468,-16.0944 1.99626,-19 2.93253,-4.8098 2.60974,-9.3221 -0.91934,-12.8511 -2.59461,-2.5946 -3.6115,-2.9231 -9.04966,-2.9231 -12.25557,0 -16.79283,5.6587 -12.02726,15 1.75004,3.4304 2,5.8938 2,19.7102 l 0,15.7898 9,0 9,0 0,-15.7258 z m 136.29855,101.2663 c -3.68387,-2.2462 -6.29855,-6.6998 -6.29855,-10.7283 0,-2.1434 1.61695,-4.3413 7,-9.5151 l 7,-6.7279 0,-12.8072 0,-12.8072 -3.52106,-1.8962 c -5.73859,-3.0905 -12.47894,-10.9525 -12.47894,-14.5556 0,-4.5314 3.50518,-10.6386 9.60941,-16.7429 l 5.39059,-5.3905 0,-11.1312 0,-11.1311 -7.06813,-6.7396 c -6.29869,-6.0059 -7.03351,-7.0958 -6.75,-10.0115 0.61366,-6.3112 12.79681,-12.908 27.90588,-15.1102 12.96363,-1.8895 30.97451,2.839 38.85549,10.201 4.61931,4.3151 4.01759,6.3077 -4.44324,14.7138 l -7.5,7.4515 0,10.7356 0,10.7357 4.62433,4.4582 c 13.83799,13.3409 13.82823,21.8931 -0.0359,31.4417 l -5.58843,3.8489 0,12.6283 0,12.6283 5.11506,3.9008 c 2.81329,2.1455 6.23147,5.5878 7.59597,7.6497 2.21939,3.3537 2.35894,4.1185 1.32388,7.2547 -0.63636,1.9282 -2.7202,4.8783 -4.63076,6.5558 -4.68732,4.1155 -9.82772,4.1306 -17.05814,0.05 -4.4942,-2.5364 -6.39074,-3 -12.27184,-3 -3.82588,0 -7.23823,0.4564 -7.583,1.0143 -1.25165,2.0252 -8.50198,4.9856 -12.20133,4.982 -2.08441,0 -5.23049,-0.8822 -6.99129,-1.9558 z m 35.47058,-32.2905 -0.26913,-22.25 -4.5,-0.8635 c -2.93753,-0.5637 -5.97566,-0.4635 -8.75,0.2885 l -4.25,1.1521 0,21.9614 0,21.9615 9.01913,0 9.01913,0 -0.26913,-22.25 z m 4.23087,-32.551 c 0,-1.6805 -0.93525,-2.6918 -3.46788,-3.75 -4.08613,-1.7073 -13.93012,-1.9034 -18.34204,-0.3654 -2.91301,1.0155 -4.90762,3.9464 -3.85012,5.6574 0.25798,0.4175 6.13703,0.759 13.06455,0.759 12.47808,0 12.59549,-0.021 12.59549,-2.301 z m 0.4,-9.9529 c -0.055,-0.6853 -0.1675,-1.6472 -0.25,-2.1375 -0.26241,-1.5595 -8.03091,-4.1086 -12.52101,-4.1086 -7.58543,0 -14.51457,3.2498 -13.3576,6.2648 0.7446,1.9404 26.28436,1.9221 26.12861,-0.019 z m -3.4,-27.3834 c 0,-13.4505 0.27738,-16.2556 1.97804,-20.0035 2.57212,-5.6685 2.52193,-8.1681 -0.22804,-11.3558 -4.29616,-4.9799 -16.21875,-5.23 -21.31007,-0.447 -3.05733,2.8722 -3.23743,8.1233 -0.43619,12.7178 1.7715,2.9055 1.99633,5.0447 1.99691,19 l 6.4e-4,15.7258 8.99936,0 8.99935,0 0,-15.6443 z m -119.98007,26.4208 c -3.86801,-1.9823 -8.01993,-7.4801 -8.01993,-10.6195 0,-2.8325 3.43774,-7.4377 9.08023,-12.164 l 4.77541,-4 0.0722,-13.1819 0.0722,-13.1819 -3.25,-2.2235 c -6.3238,-4.3263 -11.72326,-10.2532 -12.3411,-13.5466 -0.82675,-4.407 3.33605,-11.889 10.25592,-18.4335 l 5.33514,-5.0458 0,-10.8747 0,-10.8748 -6.09427,-5.3006 c -9.31457,-8.1016 -10.82512,-12.1478 -6.15573,-16.4889 12.53178,-11.6507 39.48745,-13.8488 57.5549,-4.6933 12.14122,6.1524 12.54013,9.7647 2.1951,19.8774 l -7.5,7.3315 0,10.3562 0,10.3561 6.28199,6.4622 c 7.43061,7.6436 10.16499,12.766 9.29377,17.4099 -0.65889,3.5122 -5.74942,9.2408 -11.82576,13.3079 l -3.75,2.5101 0.0473,13.1171 0.0473,13.1171 5.27962,4.221 c 9.14088,7.3082 10.55975,12.6387 5.09332,19.1352 -5.0465,5.9974 -11.92162,6.1765 -20.69613,0.5393 -2.95037,-1.8956 -5.07725,-2.3955 -10.19095,-2.3955 -3.55434,0 -6.74452,0.4564 -7.08929,1.0143 -0.97546,1.5783 -7.7124,4.7523 -11.53768,5.4357 -2.3596,0.4216 -4.5558,0.052 -6.93356,-1.1665 z m 33.7492,-33.5335 -0.26913,-22.25 -5.95833,-0.3061 c -3.27708,-0.1684 -6.98958,-0.047 -8.25,0.269 l -2.29167,0.5752 0,21.9809 0,21.981 8.51913,0 8.51913,0 -0.26913,-22.25 z m 4.73087,-32.2404 c 0,-4.3211 -13.21745,-6.9869 -21,-4.2354 -3.04368,1.0761 -4.07201,2.0114 -4.30118,3.9121 l -0.30119,2.4979 12.80119,-0.096 c 12.0649,-0.09 12.80118,-0.21 12.80118,-2.0786 z m -17.64404,-8.5721 c 3.31195,-0.7103 6.70502,-0.7444 10.23513,-0.1028 6.12224,1.1128 7.90891,0.6799 7.90891,-1.916 0,-4.5843 -13.51129,-7.0427 -22.25,-4.0485 -2.84533,0.9749 -3.75,1.8291 -3.75,3.5407 0,3.903 0.57523,4.088 7.85596,2.5266 z m 16.16455,-48.2032 c 4.44489,-7.2901 1.05749,-14.5203 -7.24103,-15.4557 -6.45633,-0.7277 -11.57432,0.4253 -14.39121,3.2422 -2.93465,2.9347 -3.05807,6.7425 -0.38827,11.9792 1.75207,3.4366 2,5.8972 2,19.8491 l 0,15.9263 5.25,-0.5902 c 2.8875,-0.3246 6.825,-0.2551 8.75,0.1543 l 3.5,0.7444 0.27425,-16.3077 c 0.23828,-14.1688 0.53289,-16.7318 2.24626,-19.5419 z m -127.72196,35.3656 c -3.66598,-2.3033 -6.29855,-6.7728 -6.29855,-10.6935 0,-2.0216 1.74504,-4.3835 7,-9.4743 l 7,-6.7813 0,-12.9149 c 0,-12.4181 -0.0866,-12.9549 -2.25,-13.9559 -3.86738,-1.7894 -11.4205,-9.0703 -12.75724,-12.2975 -2.09633,-5.061 0.0575,-9.9766 8.06456,-18.406 l 6.94268,-7.3088 0,-10.3121 0,-10.312 -7.57051,-7.7794 c -6.24469,-6.417 -7.51438,-8.261 -7.25,-10.5293 0.6647,-5.7028 13.16071,-12.3261 27.44546,-14.5469 12.57855,-1.9555 28.60064,1.6986 37.65736,8.5885 6.6876,5.0875 6.34294,7.1831 -2.7118,16.4877 l -7.57051,7.7794 0,10.312 0,10.3121 6.88268,7.2456 c 7.09323,7.4674 9.77748,12.7203 8.69795,17.0215 -0.84395,3.3625 -5.82877,8.8066 -11.13051,12.1561 l -4.44654,2.8091 -0.002,12.8928 -0.002,12.8928 7,6.7144 c 7.56986,7.261 8.13181,8.8126 5.33004,14.7169 -3.61897,7.6264 -12.02119,9.3414 -20.98403,4.2831 -7.33661,-4.1405 -16.01957,-4.2654 -21.83459,-0.314 -5.30841,3.6072 -12.74921,4.2184 -17.21287,1.4139 z m 35.70145,-32.5061 0,-22.4061 -4.86408,-0.669 c -2.80112,-0.3853 -6.68159,-0.1796 -9.14944,0.4849 l -4.28536,1.154 0.64944,12.0782 c 0.35719,6.643 0.64944,16.5075 0.64944,21.9212 l 0,9.843 8.5,0 8.5,0 0,-22.4062 z m 4.81817,-31.889 c 0.19301,-1.0017 -0.98713,-2.4471 -3,-3.6743 -5.69135,-3.4699 -19.37818,-2.4895 -22.49949,1.6117 -2.53372,3.3292 -0.65386,3.904 12.45072,3.8075 10.99287,-0.081 12.77403,-0.3191 13.04877,-1.7449 z m -0.0235,-11.1445 c -0.43654,-3.052 -6.31385,-5.5705 -12.7947,-5.4827 -7.74748,0.105 -12.42392,1.956 -12.79812,5.0657 l -0.29812,2.4774 13.09282,0 c 12.64933,0 13.08283,-0.07 12.79812,-2.0604 z m -3.79467,-26.8139 c 0,-13.8431 0.24255,-16.2062 2,-19.4852 2.55155,-4.7606 2.53514,-8.3112 -0.0536,-11.6022 -2.84433,-3.616 -8.42076,-4.9651 -14.836,-3.5893 -8.55344,1.8344 -11.21808,7.5275 -7.1104,15.1915 1.75745,3.279 2,5.6421 2,19.4852 l 0,15.7536 9,0 9,0 0,-15.7536 z m 136.29855,101.2941 c -3.72798,-2.2731 -6.29855,-6.7093 -6.29855,-10.8697 0,-2.3303 1.43009,-4.2776 7,-9.532 l 7,-6.6034 0,-12.7903 0,-12.7903 -3.52106,-1.8962 c -1.93659,-1.0429 -5.53659,-4.051 -8,-6.6846 -7.02406,-7.5093 -5.93941,-13.3608 4.45853,-24.0531 l 6.06253,-6.2342 0,-10.9897 0,-10.9897 -6.83658,-6.5537 c -3.76012,-3.6045 -7.0995,-7.591 -7.42085,-8.8589 -1.37586,-5.4287 9.36737,-12.5669 23.65842,-15.7196 13.36483,-2.9484 28.81092,-0.3978 39.62853,6.5438 9.11164,5.847 8.82697,9.1306 -1.6278,18.776 l -6.40172,5.9061 0,10.9413 0,10.9413 4.62433,4.4582 c 13.56449,13.0772 13.67148,21.5507 0.38977,30.8673 l -6.0141,4.2186 0,12.7307 0,12.7306 5.11506,3.9008 c 2.81329,2.1455 6.23147,5.5878 7.59597,7.6497 2.21939,3.3537 2.35894,4.1185 1.32388,7.2547 -0.63636,1.9282 -2.7202,4.8783 -4.63076,6.5558 -4.68732,4.1155 -9.82772,4.1306 -17.05814,0.05 -4.4942,-2.5364 -6.39074,-3 -12.27184,-3 -3.99608,0 -7.24651,0.4699 -7.63852,1.1041 -1.16043,1.8777 -8.75276,4.851 -12.43565,4.8702 -1.925,0.01 -4.94065,-0.8602 -6.70145,-1.9338 z m 35.70145,-32.4685 0,-22.4281 -5.27444,-0.659 c -2.90094,-0.3624 -6.83844,-0.254 -8.75,0.241 l -3.47556,0.9 -0.26913,22.1871 -0.26913,22.187 9.01913,0 9.01913,0 0,-22.428 z m 3.81199,-32.3602 c 0.46912,-3.1522 -4.38936,-5.2118 -12.29445,-5.2118 -7.75368,0 -13.51754,2.0392 -13.51754,4.7823 0,1.0364 0.18747,2.0719 0.4166,2.301 0.22913,0.2292 5.96663,0.3735 12.75,0.3207 11.72043,-0.091 12.34891,-0.2001 12.64539,-2.1922 z m 0.18801,-10.8121 c 0,-5.9157 -20.38464,-7.4609 -25.00364,-1.8953 -2.79282,3.3651 -0.65454,4.067 12.39003,4.067 12.27949,0 12.61361,-0.057 12.61361,-2.1717 z m -3,-26.834 c 0,-14.1008 0.23961,-16.4292 2.0825,-20.2361 3.6179,-7.4736 0.42197,-13.3928 -7.99931,-14.8155 -4.70721,-0.7953 -11.50324,0.9059 -14.13594,3.5386 -2.32715,2.3272 -2.54961,8.2696 -0.44725,11.9473 1.07554,1.8815 1.4379,6.5824 1.46456,19 l 0.0354,16.5 9.5,0 9.5,0 0,-15.9343 z"
         id="path5056"
         inkscape:connector-curvature="0" />
      <path
         style="fill:#cb5258"
         d="m 528.6864,-1513.4956 c -27.82894,-6.1199 -48.70561,-25.9779 -56.22323,-53.4797 -1.6683,-6.1032 -1.77677,-16.3899 -1.77677,-168.5 l 0,-162 2.3032,-8.0412 c 3.55447,-12.4097 9.14808,-21.6403 19.11346,-31.5411 6.94557,-6.9006 10.43325,-9.4809 17.79851,-13.1679 17.43616,-8.7286 9.26534,-8.2498 140.78483,-8.2498 109.55287,0 116.38905,0.1025 123,1.8449 21.70609,5.7207 39.64649,20.2779 48.97181,39.7366 6.99534,14.5968 6.61762,3.5532 6.30759,184.4185 l -0.2794,163 -2.75576,8.1305 c -6.48453,19.1318 -23.34371,36.7322 -42.35636,44.2187 -13.26517,5.2233 -11.53873,5.1585 -134.59572,5.0504 -90.64751,-0.08 -115.53343,-0.3734 -120.29216,-1.4199 z m 244.5,-4.8059 c 23.26553,-6.2328 41.55827,-23.4138 49.16156,-46.1738 l 2.33844,-7 0.27376,-159.4207 c 0.30932,-180.1351 0.70954,-169.7831 -7.17473,-185.5793 -7.22395,-14.4732 -17.89522,-24.703 -32.7527,-31.3977 -14.01092,-6.3132 -9.36864,-6.104 -135.04374,-6.0849 -128.59107,0.02 -121.60709,-0.3666 -137.78086,7.6174 -18.04357,8.9071 -31.6509,26.1795 -35.55835,45.1359 -1.30213,6.3171 -1.46359,28.4819 -1.23104,169 l 0.26766,161.7293 2.69929,7.62 c 4.83793,13.6573 11.98987,23.7847 22.29406,31.5691 10.46547,7.9063 21.91616,12.6673 34.50665,14.3473 3.025,0.4036 56.35,0.6539 118.5,0.5563 103.90699,-0.1633 113.52305,-0.3177 119.5,-1.9189 z m -235.68528,-62.1375 c -5.92228,-2.5757 -8.16662,-11.1268 -4.33331,-16.5102 1.08977,-1.5304 4.23977,-4.5049 7,-6.6098 l 5.01859,-3.8273 0,-12.6902 0,-12.6903 -4.97237,-3.1908 c -2.7348,-1.7549 -6.3348,-4.7425 -8,-6.639 -5.81715,-6.6254 -3.39397,-14.9808 7.34804,-25.3369 l 4.62433,-4.4582 0,-10.5686 0,-10.5686 -6.93023,-6.8772 c -10.37195,-10.2924 -10.26032,-13.524 0.66844,-19.349 15.49749,-8.2601 37.02609,-8.2601 52.52358,0 11.08779,5.9097 11.21881,9.6498 0.68684,19.6063 l -6.94863,6.5689 0,10.5865 0,10.5864 5.57936,5.4659 c 6.6622,6.5266 9.42064,11.4725 9.42064,16.8912 0,4.8073 -3.47152,9.2436 -11.02763,14.0923 l -4.97237,3.1908 0.0558,12.6457 0.0558,12.6458 5.52984,4.3667 c 6.97803,5.5102 9.59816,9.5953 8.74426,13.6333 -2.12613,10.0541 -12.81028,13.3295 -22.61429,6.9328 -5.62914,-3.6729 -14.64754,-3.4432 -22.27141,0.5672 -6.21239,3.2679 -10.26201,3.6776 -15.18528,1.5363 z m 35.68528,-32.5611 0,-22.0247 -2.5651,-0.9753 c -1.4108,-0.5363 -4.53151,-0.9752 -6.9349,-0.9752 -2.40339,0 -5.5241,0.4389 -6.9349,0.9752 l -2.5651,0.9753 0,22.0247 0,22.0248 9.5,0 9.5,0 0,-22.0248 z m -3.76754,-30.3741 c 5.74044,0.5575 6.8266,0.4086 7.37129,-1.0109 1.78409,-4.6492 -8.49285,-8.6556 -17.40689,-6.7859 -11.52379,2.4172 -12.82062,10.1894 -1.33815,8.02 2.55271,-0.4824 7.6709,-0.5827 11.37375,-0.2232 z m 7.58374,-12.409 c 0.50663,-3.4304 -5.01815,-6.1838 -12.41698,-6.1884 -7.2546,0 -12.05068,1.4765 -13.48972,4.1654 -1.9662,3.6739 0.10145,4.3364 13.25521,4.2475 11.81039,-0.08 12.34875,-0.1745 12.65149,-2.2245 z m -2.80061,-28.359 c 0.40209,-13.5176 0.89593,-18.1481 2.24343,-21.0353 5.08927,-10.9045 -12.04204,-18.7414 -22.22958,-10.1691 -2.37676,1.9999 -3.02181,3.3379 -2.994,6.2102 0.0195,2.0136 0.67854,4.7861 1.46456,6.1611 1.07636,1.8829 1.43788,6.5935 1.46457,19.0833 0.0195,9.1209 0.22265,16.7709 0.45147,17 0.22881,0.2292 4.61631,0.3416 9.75,0.2498 l 9.33396,-0.1668 0.51559,-17.3332 z m 136.30989,102.7078 c -3.84256,-1.6715 -6.21145,-5.0633 -7.0212,-10.0533 -0.58516,-3.6059 -0.3619,-3.9526 7.0457,-10.9401 l 7.65002,-7.2162 0,-12.14 0,-12.1399 -2.75,-1.4252 c -5.35794,-2.7768 -12.16276,-9.6507 -13.17197,-13.3058 -1.71512,-6.2116 3.19915,-15.4808 11.60795,-21.8945 l 3.31402,-2.5277 0,-10.7514 0,-10.7514 -6.94863,-6.5689 c -6.62968,-6.2675 -8.90544,-10.1584 -7.7312,-13.2185 0.97271,-2.5348 7.60111,-6.827 14.4434,-9.3527 16.02836,-5.9167 37.38169,-3.6211 50.48643,5.4274 3.14682,2.1728 3.75,3.1622 3.75,6.1511 0,3.0949 -0.91783,4.4546 -7,10.3703 l -7,6.8083 0,10.9372 0,10.9372 5.46498,5.1685 c 12.67953,11.9918 12.54093,21.6341 -0.42736,29.7314 l -5.9472,3.7133 -0.0452,13.135 c -0.0437,12.688 0.0343,13.1871 2.29267,14.6668 1.28584,0.8425 4.43584,3.6298 7,6.194 3.97008,3.97 4.66212,5.2463 4.66212,8.5978 0,3.0879 -0.73787,4.7405 -3.42501,7.6711 -3.16151,3.4479 -3.84007,3.7315 -8.81998,3.6858 -3.99494,-0.037 -6.5908,-0.7503 -10.00306,-2.75 -3.77358,-2.2114 -5.82928,-2.7005 -11.35129,-2.7005 -4.76927,0 -7.25914,0.4669 -8.50573,1.5951 -2.20573,1.9961 -8.58944,4.3156 -11.89494,4.3219 -1.375,0 -3.92854,-0.6167 -5.67452,-1.3761 z m 35.67452,-32.5657 0,-22.0247 -2.5651,-0.9753 c -1.4108,-0.5363 -4.53151,-0.9752 -6.9349,-0.9752 -2.40339,0 -5.5241,0.4389 -6.9349,0.9752 l -2.5651,0.9753 0,22.0247 0,22.0248 9.5,0 9.5,0 0,-22.0248 z m 3.5,-32.4752 c 0,-3.4204 -7.83685,-6.7415 -14.58785,-6.1821 -6.62643,0.5491 -11.91215,3.0078 -11.91215,5.5411 0,0.9942 0.22834,2.036 0.50743,2.3151 0.27909,0.2791 6.24159,0.4666 13.25,0.4167 12.04565,-0.086 12.74257,-0.2002 12.74257,-2.0908 z m -17.63649,-8.4741 c 3.35124,-0.6356 6.94447,-0.6313 10.33837,0.012 4.16874,0.7906 5.48687,0.7015 6.63675,-0.4484 5.67864,-5.6786 -11.95206,-10.6244 -21.41216,-6.0066 -4.07576,1.9896 -5.61084,5.0512 -3.27486,6.5315 1.69624,1.075 1.56663,1.0765 7.7119,-0.089 z m 16.38202,-49.5259 c 7.45898,-12.8444 -13.64575,-21.977 -23.07763,-9.9863 -2.68098,3.4083 -2.70852,5.0072 -0.1679,9.7475 1.76794,3.2986 2,5.6421 2,20.1976 l 0,16.4661 9.25,0.2876 9.25,0.2875 0.50169,-17 c 0.40427,-13.6989 0.83998,-17.5825 2.24384,-20 z m -123.93171,45.6092 c -4.02499,-2.5293 -5.31382,-4.9425 -5.31382,-9.9498 0,-3.634 0.59593,-4.5239 7,-10.4531 l 7,-6.4809 0,-12.5177 0,-12.5177 -4.33364,-2.5396 c -2.38351,-1.3969 -5.98351,-4.3659 -8,-6.5979 -3.02458,-3.3479 -3.66636,-4.8112 -3.66636,-8.3596 0,-5.2255 3.57975,-11.2725 10.33805,-17.4635 l 4.66195,-4.2706 0,-10.9107 0,-10.9108 -5.92716,-5.1552 c -6.29048,-5.4713 -9.58039,-10.8076 -8.58895,-13.9313 0.82416,-2.5967 8.67063,-7.4255 16.51611,-10.1642 5.32264,-1.8581 8.58301,-2.2651 18,-2.247 13.08481,0.025 20.50459,1.9089 29.00662,7.3646 8.31382,5.335 7.64677,9.6485 -2.91235,18.8325 l -6.09427,5.3006 0,10.9108 0,10.9107 4.66195,4.2706 c 6.7583,6.191 10.33805,12.238 10.33805,17.4635 0,3.5484 -0.64178,5.0117 -3.66636,8.3596 -2.01649,2.232 -5.61649,5.201 -8,6.5979 l -4.33364,2.5396 0,12.7975 0,12.7974 4.91715,3.7498 c 6.75232,5.1494 9.42416,9.0064 9.2602,13.3677 -0.38151,10.1482 -11.13228,14.1358 -21.83134,8.0976 -7.2834,-4.1105 -15.5207,-4.2363 -21.42764,-0.3273 -5.44364,3.6024 -13.15621,4.2318 -17.60455,1.4365 z m 36.45618,-31.5392 c 0.14851,-12.0615 -0.0947,-22.2947 -0.5404,-22.7404 -1.51481,-1.5148 -9.73405,-2.0401 -13.98995,-0.8941 l -4.23965,1.1416 0,21.7948 c 0,11.9871 0.31619,22.111 0.70264,22.4974 0.38646,0.3865 4.54896,0.574 9.25,0.4167 l 8.54736,-0.286 0.27,-21.93 z m -13.78318,-30.5226 c 2.52059,-0.4862 6.81014,-0.4873 9.7885,0 6.34536,1.0327 8.43491,0.4155 8.02755,-2.3714 -0.48257,-3.3016 -6.00396,-5.8734 -12.60926,-5.8734 -9.51927,0 -16.29439,3.9638 -13.18304,7.7127 1.40563,1.6937 1.8228,1.7217 7.97625,0.5347 z m 17.51318,-12.9667 c 0,-5.2798 -12.75457,-7.9633 -21.40259,-4.503 -4.01902,1.6081 -5.4302,3.3915 -4.53325,5.7289 0.37906,0.9878 3.60425,1.2835 13.21862,1.212 12.64466,-0.094 12.71722,-0.108 12.71722,-2.4379 z m -2.5,-27.3523 c 0,-13.7071 0.29415,-17.2477 1.59825,-19.238 0.87904,-1.3416 1.64482,-4.0821 1.70174,-6.09 0.27233,-9.6074 -16.1489,-13.6424 -23.91494,-5.8764 -2.74331,2.7433 -3.11583,7.5737 -0.88505,11.476 1.07636,1.8829 1.43788,6.5935 1.46456,19.0833 0.0195,9.1209 0.22524,16.7709 0.45721,17 0.23198,0.2292 4.73198,0.4228 10,0.4303 l 9.57823,0.014 0,-16.7988 z m -125.80191,16.5988 c -5.74683,-2.8322 -8.17246,-10.665 -4.86561,-15.7119 0.89856,-1.3714 4.09123,-4.4333 7.09482,-6.8044 l 5.46107,-4.3109 0.0558,-12.6458 0.0558,-12.6457 -4.97237,-3.1908 c -14.28691,-9.1679 -14.75057,-18.1074 -1.60699,-30.9835 l 5.57936,-5.4659 0,-10.5106 0,-10.5107 -6.93857,-7.0235 c -8.5534,-8.6581 -9.47754,-11.3982 -5.19376,-15.3999 9.27869,-8.6676 30.71707,-12.6056 46.48799,-8.5394 7.52267,1.9396 17.34848,7.0346 19.29482,10.0051 2.26306,3.4539 0.78172,6.5355 -6.72025,13.9799 l -6.93023,6.8772 0,10.5609 0,10.561 5.57936,5.4659 c 6.64793,6.5126 9.42064,11.4718 9.42064,16.8492 0,4.8139 -2.63016,8.2409 -10.46771,13.6388 l -5.53229,3.8102 0,12.8338 c 0,7.0586 0.37771,12.8338 0.83935,12.8338 0.46164,0 3.61164,2.5974 7,5.772 5.4417,5.0984 6.16065,6.2129 6.16065,9.5497 0,2.0777 -0.65518,5.0446 -1.45595,6.5931 -1.50458,2.9096 -6.87768,6.0852 -10.29596,6.0852 -2.80598,0 -8.32082,-2.0086 -11.40246,-4.153 -4.42851,-3.0815 -14.31031,-2.5478 -21.34563,1.153 -6.39964,3.3664 -10.4511,3.7178 -15.30191,1.3272 z m 35.80191,-32.292 c 0,-20.6925 -0.11204,-22.0248 -1.93426,-23 -2.44405,-1.308 -11.12358,-1.3439 -14.50064,-0.06 l -2.5651,0.9752 0,22.0247 0,22.0248 9.5,0 9.5,0 0,-21.9648 z m 3.5,-32.4312 c 0,-2.8474 -4.41616,-5.5699 -10.13341,-6.247 -8.76452,-1.038 -18.43411,3.4887 -15.96978,7.476 0.28925,0.4681 6.2808,0.8078 13.31455,0.7551 11.83573,-0.089 12.78864,-0.2366 12.78864,-1.9841 z m -17.63649,-8.5781 c 3.27213,-0.6206 6.94783,-0.6306 10.1269,-0.028 2.74472,0.5205 5.69351,0.6766 6.55287,0.3468 2.53583,-0.9731 1.23376,-4.5824 -2.42104,-6.711 -8.34672,-4.8614 -26.92573,0.078 -22.11167,5.8787 1.46206,1.7617 1.31885,1.7523 7.85294,0.5132 z m 16.45577,-48.8602 c 2.8326,-5.1915 2.48871,-8.8192 -1.18416,-12.4921 -2.90438,-2.9044 -3.7171,-3.1736 -9.58102,-3.1736 -7.09543,0 -10.97819,1.9862 -13.35462,6.8315 -1.12629,2.2964 -1.02581,3.2727 0.75,7.2872 1.79447,4.0567 2.05052,6.6752 2.05052,20.9693 l 0,16.3338 8.55655,-0.071 c 4.7061,-0.039 8.8686,0.2423 9.25,0.6254 0.3814,0.383 0.91845,-6.88 1.19345,-16.1399 0.40783,-13.7327 0.83537,-17.4509 2.31928,-20.1706 z m 135.0062,121.3752 c -3.83761,-1.6693 -6.21131,-5.0625 -7.01771,-10.0318 -0.57694,-3.5553 -0.31676,-3.9754 6.5457,-10.5711 l 7.14653,-6.8688 -0.002,-12.7846 -0.002,-12.7846 -4.44654,-2.8091 c -5.35584,-3.3836 -10.28866,-8.8019 -11.15472,-12.2526 -1.10593,-4.4064 2.39596,-11.2665 9.25009,-18.1206 l 6.35517,-6.3547 0,-10.2838 0,-10.2838 -6.94863,-6.5689 c -6.99491,-6.6127 -9.20452,-10.7277 -7.37333,-13.7313 1.6919,-2.7751 10.3619,-8.0471 16.19802,-9.8495 4.0109,-1.2387 9.06574,-1.7381 17.62394,-1.7413 13.60536,0 19.64999,1.4186 28.5,6.7121 4.96394,2.9692 5.53072,3.6628 5.81515,7.117 0.29523,3.5852 -0.13147,4.2555 -6.75,10.604 l -7.06515,6.7769 0,10.9362 0,10.9361 6.06253,6.2342 c 12.20877,12.5544 11.80976,20.8747 -1.39931,29.1791 l -5.56712,3.5 -0.048,13.0197 -0.048,13.0197 4.95702,3.9266 c 7.41333,5.8721 9.38274,8.9642 8.74377,13.7281 -0.62534,4.6623 -2.91758,7.5391 -7.57772,9.5104 -4.44251,1.8791 -9.71835,0.938 -15.57985,-2.7792 -6.11589,-3.8786 -14.07153,-4.1163 -18.85994,-0.5634 -6.0785,4.5101 -11.86241,5.5693 -17.3578,3.179 z m 35.14641,-32.2283 c 0.85297,-25.1292 1.14614,-24.3126 -8.72876,-24.3126 -10.24281,0 -9.74313,-1.2326 -9.74313,24.0352 l 0,21.9648 8.86788,0 8.86787,0 0.73614,-21.6874 z m 4.2974,-32.1205 c 1.27172,-3.8152 -8.49078,-7.9133 -16.30082,-6.8428 -5.85096,0.8019 -10.46847,3.2322 -10.46847,5.5097 0,0.9942 0.21123,2.0189 0.46941,2.2771 0.25817,0.2581 6.18317,0.4456 13.16667,0.4166 9.5314,-0.04 12.80595,-0.3788 13.13321,-1.3606 z m -15.76929,-9.7202 c 1.925,-0.3281 5.68797,-0.1053 8.36215,0.4951 3.60829,0.8102 5.22005,0.7947 6.25,-0.06 5.34539,-4.4362 -6.81674,-10.1011 -16.99853,-7.9175 -2.76757,0.5936 -5.83782,1.8085 -6.82278,2.6999 -2.07027,1.8736 -2.3604,4.9094 -0.54084,5.6591 1.2082,0.4978 2.22011,0.4069 9.75,-0.8765 z m 7.29516,-12.6091 4.70484,0.879 0,-16.4107 c 0,-14.4373 0.24051,-16.8822 2,-20.3311 2.405,-4.7142 2.5306,-7.7974 0.4393,-10.7832 -4.73742,-6.7636 -16.96129,-7.0727 -22.97761,-0.581 -2.98465,3.2205 -3.09037,5.7082 -0.46169,10.8642 1.76288,3.4578 2,5.8972 2,20.5749 l 0,16.6521 4.79516,-0.8716 c 2.73846,-0.4977 6.81314,-0.4945 9.5,0.01 z"
         id="path5054"
         inkscape:connector-curvature="0" />
      <path
         style="fill:#7b7b7b"
         d="m 528.6864,-1513.4956 c -27.82894,-6.1199 -48.70561,-25.9779 -56.22323,-53.4797 -1.6683,-6.1032 -1.77677,-16.3899 -1.77677,-168.5 l 0,-162 2.3032,-8.0412 c 3.55447,-12.4097 9.14808,-21.6403 19.11346,-31.5411 6.94557,-6.9006 10.43325,-9.4809 17.79851,-13.1679 17.43616,-8.7286 9.26534,-8.2498 140.78483,-8.2498 109.55287,0 116.38905,0.1025 123,1.8449 21.70609,5.7207 39.64649,20.2779 48.97181,39.7366 6.99534,14.5968 6.61762,3.5532 6.30759,184.4185 l -0.2794,163 -2.75576,8.1305 c -6.48453,19.1318 -23.34371,36.7322 -42.35636,44.2187 -13.26517,5.2233 -11.53873,5.1585 -134.59572,5.0504 -90.64751,-0.08 -115.53343,-0.3734 -120.29216,-1.4199 z m 244.5,-4.8059 c 23.26553,-6.2328 41.55827,-23.4138 49.16156,-46.1738 l 2.33844,-7 0.27376,-159.4207 c 0.30932,-180.1351 0.70954,-169.7831 -7.17473,-185.5793 -7.22395,-14.4732 -17.89522,-24.703 -32.7527,-31.3977 -14.01092,-6.3132 -9.36864,-6.104 -135.04374,-6.0849 -128.59107,0.02 -121.60709,-0.3666 -137.78086,7.6174 -18.04357,8.9071 -31.6509,26.1795 -35.55835,45.1359 -1.30213,6.3171 -1.46359,28.4819 -1.23104,169 l 0.26766,161.7293 2.69929,7.62 c 4.83793,13.6573 11.98987,23.7847 22.29406,31.5691 10.46547,7.9063 21.91616,12.6673 34.50665,14.3473 3.025,0.4036 56.35,0.6539 118.5,0.5563 103.90699,-0.1633 113.52305,-0.3177 119.5,-1.9189 z m -235.63329,-62.5919 c -4.30658,-2.626 -6.36671,-5.8793 -6.36671,-10.054 0,-3.0683 0.91055,-4.3902 7,-10.1622 l 7,-6.6352 -0.0481,-12.8652 -0.0481,-12.8653 -5.57952,-3.5 c -7.41033,-4.6485 -10.76843,-9.6527 -10.05363,-14.9818 0.61099,-4.5553 6.16858,-12.726 11.3379,-16.6689 l 3.39136,-2.5867 0,-11.5308 0,-11.5308 -6.43097,-5.9331 c -7.78876,-7.1858 -9.31129,-10.5546 -6.42727,-14.221 7.08337,-9.005 30.58162,-14.0779 46.39814,-10.0165 7.95343,2.0423 15.3836,5.7365 18.88175,9.3878 2.63221,2.7474 2.7617,3.2249 1.62124,5.9783 -0.6817,1.6457 -4.12023,5.65 -7.64117,8.8984 l -6.40172,5.9061 0,11.2734 0,11.2735 4.409,3.8809 c 2.42495,2.1345 5.79995,5.9809 7.5,8.5475 5.67586,8.569 3.61702,15.2561 -6.75238,21.9318 l -6.04538,3.8919 -0.0556,12.8627 -0.0556,12.8627 6.87842,6.3684 c 3.78313,3.5026 7.0804,7.1643 7.32728,8.1373 1.3822,5.4471 -4.27859,12.9196 -10.55943,13.9389 -2.87648,0.4668 -5.03616,-0.08 -10.02882,-2.5376 -5.3105,-2.6143 -7.53201,-3.1324 -13.43119,-3.1324 -4.07788,0 -7.35697,0.4671 -7.75065,1.1041 -1.08905,1.7621 -8.65738,4.8503 -11.93565,4.8702 -1.65,0.01 -4.40998,-0.8415 -6.13329,-1.8924 z m 35.63329,-32.4653 c 0,-22.367 -0.002,-22.3838 -2.25,-22.9863 -3.47213,-0.9305 -11.33301,-0.7393 -14.1849,0.3449 l -2.5651,0.9753 0,22.0247 0,22.0248 9.5,0 9.5,0 0,-22.3834 z m -5.25,-29.8746 c 9.23178,0.2416 9.25,0.2372 9.25,-2.2243 0,-3.8016 -4.9685,-5.9854 -13.5,-5.9335 -8.49532,0.052 -13.5,2.227 -13.5,5.8682 0,2.6817 2.09231,3.608 6,2.6564 1.375,-0.3348 6.6625,-0.4999 11.75,-0.3668 z m 9.053,-12.9194 c 0.24444,-2.0526 -0.36461,-2.8612 -3.15113,-4.1835 -6.71915,-3.1885 -21.66268,-1.3805 -23.27292,2.8157 -1.40743,3.6678 0.002,4.0934 13.25247,4.0014 l 12.86858,-0.089 0.303,-2.5443 z m -2.80253,-26.8612 c -4.1e-4,-14.5648 0.23821,-17.0067 1.99953,-20.4614 2.40977,-4.7266 2.45452,-5.7204 0.43358,-9.6284 -1.7805,-3.4432 -6.69451,-5.8716 -11.88123,-5.8716 -4.53703,0 -11.33886,2.7326 -12.58152,5.0545 -1.39562,2.6077 -1.1331,8.0376 0.52917,10.9455 1.08021,1.8896 1.43806,6.6505 1.46572,19.5 l 0.0366,17 9.99931,0 9.99931,0 -4.6e-4,-16.5386 z m 137.41797,102.0697 c -2.72683,-1.1031 -7.25571,-6.5346 -8.03387,-9.635 -0.83633,-3.3322 3.00198,-8.9505 9.50037,-13.9063 l 5.11506,-3.9008 0,-12.741 0,-12.7411 -5.54714,-3.682 c -13.87583,-9.2102 -14.0218,-17.7035 -0.53086,-30.8873 l 5.078,-4.9624 0,-10.7473 0,-10.7473 -7.03453,-6.7538 c -7.65035,-7.345 -8.99959,-10.0996 -6.68056,-13.6389 2.14185,-3.2689 12.23298,-8.3693 20.31812,-10.2695 19.1067,-4.4905 46.21958,3.2119 47.21323,13.4127 0.28105,2.8852 -0.4705,3.9954 -6.75,9.9712 l -7.06626,6.7246 0,11.3448 0,11.3449 5.48081,5.3939 c 12.83985,12.6363 12.21813,21.0601 -2.22902,30.2015 l -4.24821,2.688 -0.002,12.8653 -0.002,12.8652 7,6.6352 c 5.64143,5.3473 6.99927,7.2173 6.99626,9.6347 -0.008,6.1549 -6.5166,12.4996 -12.82322,12.4996 -1.04016,0 -4.54211,-1.3443 -7.78212,-2.9873 -8.27999,-4.1989 -16.50185,-4.1989 -24.78184,0 -5.96057,3.0226 -9.40536,3.5497 -13.19064,2.0184 z m 34.58156,-33.4145 c 0,-25.5337 0.78304,-23.5893 -9.5,-23.5893 -10.28304,0 -9.5,-1.9444 -9.5,23.5893 l 0,22.3834 9.5,0 9.5,0 0,-22.3834 z m 3.5,-32.0087 c 0,-1.0406 -1.2705,-2.8406 -2.82333,-4 -2.26548,-1.6914 -4.24135,-2.1042 -10,-2.0893 -8.66123,0.022 -13.04256,1.8436 -13.47999,5.603 l -0.30333,2.6069 13.30333,-0.1142 c 12.34346,-0.1061 13.30332,-0.2508 13.30332,-2.0064 z m -10.5,-8.6812 c 9.51899,0.7539 10.43515,0.6479 10.81264,-1.2511 0.95989,-4.8288 -8.61394,-8.4201 -17.80162,-6.6777 -6.77524,1.2849 -9.01102,2.6174 -9.01102,5.3706 0,3.4022 0.9432,3.8359 6.47901,2.979 2.76154,-0.4274 7.04599,-0.6168 9.52099,-0.4208 z m 7,-28.6525 c 0,-14.4556 0.21779,-16.5831 1.99626,-19.5 2.86163,-4.6935 2.62082,-9.8844 -0.60834,-13.1136 -6.33582,-6.3358 -21.07002,-4.0603 -23.82682,3.6798 -0.71702,2.0131 -0.42163,3.884 1.25,7.9171 1.94024,4.6812 2.1889,7.0966 2.1889,21.2618 l 0,15.9807 9.5,0 9.5,0 0,-16.2258 z m -121.1272,25.0421 c -3.5147,-2.1813 -5.8728,-6.385 -5.8728,-10.4692 0,-2.8482 1.03838,-4.3188 7,-9.914 l 7,-6.5696 0,-12.4849 0,-12.4849 -6.06242,-4.2753 c -12.96291,-9.1417 -13.10282,-16.8851 -0.52725,-29.1814 l 5.56051,-5.437 0.0146,-11.3479 0.0146,-11.3478 -6.09211,-5.6299 c -3.35065,-3.0965 -6.76843,-6.9378 -7.59506,-8.5364 -1.37522,-2.6593 -1.34339,-3.1201 0.3744,-5.4209 4.43457,-5.9397 21.55142,-12.2171 33.31273,-12.2171 11.48591,0 28.60006,6.1335 33.1092,11.866 2.72933,3.4697 1.75678,5.5922 -6.19842,13.5273 l -6.91078,6.8933 0,10.9367 0,10.9367 5.85541,5.8554 c 12.57921,12.5792 12.1881,20.6236 -1.44273,29.6739 l -5.41268,3.5939 0,12.7369 0,12.7369 5.62847,4.8086 c 9.17116,7.8352 10.31267,11.0703 6.45167,18.2847 -3.05735,5.7127 -12.81912,6.5735 -20.077,1.7705 -3.25869,-2.1565 -5.11823,-2.6208 -10.49685,-2.6208 -5.41494,0 -7.44874,0.5148 -11.8523,3 -6.03663,3.4069 -11.65727,3.8757 -15.78119,1.3163 z m 36.1272,-31.7573 c 0,-13.5168 -0.3882,-22.6809 -0.97618,-23.0443 -2.18861,-1.3526 -10.9511,-1.6938 -14.38615,-0.5601 l -3.63767,1.2005 0,22.4224 0,22.4225 9.5,0 9.5,0 0,-22.441 z m -7.5,-30.6304 c 10.37546,0.6849 10.93983,0.6224 11.31264,-1.253 0.96862,-4.8727 -8.61229,-8.4204 -17.95518,-6.6486 -5.59573,1.0612 -8.85746,3.2565 -8.85746,5.9613 0,2.736 1.18504,3.1761 6.47901,2.4063 2.76154,-0.4016 6.82099,-0.6113 9.02099,-0.466 z m 11.29479,-12.9027 c -0.41157,-3.5265 -5.79549,-6.0378 -12.79479,-5.9679 -9.09117,0.091 -15.24534,3.2543 -13.77654,7.0819 0.42854,1.1168 3.29223,1.4118 13.70394,1.4118 l 13.16219,0 -0.2948,-2.5258 z m -2.79479,-26.5066 c 0,-13.9569 0.26582,-16.622 2.09906,-21.045 1.94179,-4.6849 1.98688,-5.3328 0.60183,-8.6477 -2.9673,-7.1018 -15.88323,-8.9098 -22.69614,-3.1772 -2.46556,2.0747 -3.00475,3.2856 -3.00475,6.7484 0,2.3209 0.66069,5.0934 1.4682,6.1611 1.15399,1.5257 1.475,5.5792 1.5,18.9411 l 0.0318,17 10,0 10,0 0,-15.9807 z m -125.63329,15.5626 c -4.34962,-2.6522 -6.36671,-5.8872 -6.36671,-10.2108 0,-3.277 0.77297,-4.3995 7,-10.1648 l 7,-6.4809 -0.0481,-12.8627 -0.0481,-12.8627 -5.56711,-3.5 c -13.61189,-8.5577 -13.55277,-18.2503 0.18858,-30.9166 l 4.47464,-4.1246 0,-11.141 0,-11.141 -6.10254,-5.5884 c -6.70844,-6.1433 -9.31584,-10.1948 -8.40591,-13.0618 0.79345,-2.4999 8.77226,-7.5205 16.08917,-10.124 8.32605,-2.9625 22.90145,-3.6578 31.41997,-1.4987 8.41352,2.1325 15.82935,5.7655 19.42096,9.5143 2.65879,2.7752 2.77058,3.2035 1.58391,6.0684 -0.70223,1.6953 -4.14075,5.5968 -7.64117,8.67 l -6.36439,5.5876 0,11.5018 0,11.5019 4.409,3.8809 c 9.59201,8.4432 12.80734,16.9898 8.72255,23.185 -1.88051,2.8521 -11.5809,10.6862 -13.23196,10.6862 -0.49477,0 -0.89959,5.9007 -0.89959,13.1127 l 0,13.1127 7,6.4809 c 6.28372,5.8178 7,6.8669 7,10.2525 0,4.2946 -2.67129,8.3027 -7.03864,10.5612 -4.20633,2.1752 -7.08225,1.8363 -13.60981,-1.6038 -7.30813,-3.8514 -17.44288,-4.3828 -22.07326,-1.1574 -3.25611,2.2681 -8.69778,4.2428 -11.67751,4.2375 -1.15543,0 -3.51076,-0.8635 -5.23407,-1.9144 z m 35.63329,-32.4653 c 0,-22.367 -0.002,-22.3838 -2.25,-22.9863 -3.47213,-0.9305 -11.33301,-0.7393 -14.1849,0.3449 l -2.5651,0.9753 0,22.0247 0,22.0248 9.5,0 9.5,0 0,-22.3834 z m 4,-32.3381 c 0,-1.8853 -0.9883,-2.8281 -4.67278,-4.458 -8.27634,-3.661 -22.32722,-0.7847 -22.32722,4.5705 0,2.3389 0.005,2.3397 13.5,2.3091 l 13.5,-0.031 0,-2.391 z m -11,-8.3883 c 10.75671,0.7533 10.47734,0.8051 10.803,-2.0011 0.42536,-3.6653 -5.16687,-6.2579 -13.35663,-6.1921 -8.93588,0.072 -14.71059,3.5661 -13.04897,7.8962 0.50917,1.3269 1.48841,1.4586 5.85699,0.7876 2.88509,-0.4432 7.27061,-0.6639 9.74561,-0.4906 z m -2.70652,-13.0289 c 3.01822,-0.036 6.43692,0.2357 7.5971,0.604 2.08716,0.6624 2.10942,0.497 2.10942,-15.6754 0,-12.0379 0.35405,-16.8647 1.34361,-18.3174 6.51712,-9.5676 1.74814,-18.4725 -9.89282,-18.4725 -9.73287,0 -15.66574,5.6776 -13.38733,12.8112 0.64798,2.0289 1.57378,4.1163 2.05734,4.6388 0.48356,0.5225 0.8792,8.7653 0.8792,18.3174 0,16.6169 0.0822,17.3413 1.9029,16.7634 1.04659,-0.3322 4.37235,-0.6334 7.39058,-0.6695 z m 149.10401,86.4818 c -3.39968,-0.7172 -8.40614,-6.6216 -9.06683,-10.6929 -0.5724,-3.5273 -0.301,-3.9642 6.53607,-10.5224 l 7.13327,-6.8422 0,-13.1076 c 0,-12.5805 -0.0905,-13.1546 -2.25,-14.275 -4.80551,-2.4933 -11.05801,-8.3959 -12.46792,-11.7703 -2.29123,-5.4837 -0.43559,-9.9123 7.77524,-18.5562 l 6.94268,-7.3088 0,-10.5134 0,-10.5134 -7.5,-7.4515 c -9.29358,-9.2335 -9.64223,-11.2154 -2.84133,-16.1508 8.27816,-6.0074 16.09235,-8.1386 29.84133,-8.1386 13.57556,0 21.97781,2.1659 29.47746,7.5986 7.1596,5.1864 6.75727,7.9623 -2.45791,16.9583 l -6.51955,6.3645 0,11.3976 0,11.3976 5.48081,5.3939 c 5.6894,5.5992 9.51919,11.7947 9.51919,15.3993 0,4.6397 -5.39428,11.1565 -12.90956,15.5958 l -3.09044,1.8256 0,12.8997 0,12.8996 7,6.6352 c 5.736,5.437 7,7.1952 7,9.7368 0,4.367 -3.82566,9.5577 -8.29911,11.2603 -4.46255,1.6985 -9.20107,0.6442 -15.10135,-3.3598 -5.47925,-3.7183 -13.77424,-3.5377 -20.28309,0.4417 -4.84068,2.9594 -10.01336,4.2224 -13.91896,3.3984 z m 33.08204,-33.4029 c 0.40378,-12.1329 0.46054,-22.3335 0.12615,-22.6679 -0.99053,-0.9905 -11.22572,-1.5662 -15.05933,-0.847 l -3.54635,0.6653 0,22.4547 0,22.4547 8.87269,0 8.8727,0 0.73414,-22.0598 z m 4.02047,-32.3323 c 0,-1.0406 -1.27211,-2.8406 -2.82691,-4 -2.30349,-1.7176 -4.25592,-2.1079 -10.54481,-2.1079 -8.83975,0 -13.12828,1.923 -13.12828,5.8869 l 0,2.3409 13.25,-0.1139 c 12.29129,-0.1057 13.25,-0.2508 13.25,-2.006 z m -17.63855,-8.6624 c 2.91015,-0.671 6.15603,-0.6739 9.75451,-0.01 6.12126,1.1316 8.38404,0.6218 8.38404,-1.8888 0,-4.1173 -9.03774,-7.7102 -16.36262,-6.505 -7.12461,1.1722 -10.63738,3.0675 -10.63738,5.7393 0,4.0427 1.24961,4.4182 8.86145,2.6632 z m 6.44185,-13.4802 c 0.65818,0.1989 2.6592,0.6143 4.4467,0.9232 l 3.25,0.5615 0,-16.4508 c 0,-14.6805 0.21483,-16.8032 1.99626,-19.725 5.15159,-8.4494 0.0642,-16.7742 -10.25088,-16.7742 -8.48211,0 -14.74538,4.1467 -14.74538,9.7623 0,1.2746 0.9,4.0815 2,6.2377 1.7592,3.4483 2,5.8938 2,20.3108 l 0,16.3905 5.0533,-0.7988 c 2.77931,-0.4394 5.59181,-0.6361 6.25,-0.4372 z"
         id="path5052"
         inkscape:connector-curvature="0" />
      <path
         style="fill:#ba1920"
         d="m 534.31413,-1513.0368 c -24.11425,-3.1941 -45.19457,-18.1129 -55.72686,-39.4385 -7.84422,-15.8828 -7.36407,-4.0286 -7.38351,-182.2922 -0.0192,-176.3082 -0.34146,-167.1879 6.4203,-181.7078 8.64619,-18.5665 24.61855,-32.1185 45.56234,-38.6581 l 7.5,-2.3419 120,0 120,0 8,2.8163 c 12.6702,4.4603 20.15188,9.1571 29.61718,18.5932 7.305,7.2824 9.30797,10.0371 13.15357,18.0905 2.49501,5.225 5.14228,11.975 5.88282,15 1.10049,4.4954 1.34643,35.1827 1.34643,168 0,154.4682 -0.0905,162.8213 -1.83103,169 -7.11741,25.2661 -25.12679,43.1006 -51.66897,51.1671 l -7.5,2.2794 -113.5,0.168 c -62.425,0.092 -116.36752,-0.2118 -119.87227,-0.676 z m 243.37227,-6.1629 c 11.25283,-3.8322 19.84056,-9.1439 27.98467,-17.3092 7.97404,-7.9948 12.47094,-15.0505 16.33612,-25.6318 l 2.67921,-7.3346 0,-165.5 c 0,-159.1393 -0.072,-165.7114 -1.87313,-171 -3.92868,-11.5356 -8.73773,-19.2097 -17.57743,-28.0494 -9.64179,-9.6418 -17.67534,-14.407 -30.59451,-18.1474 l -7.95493,-2.3032 -116.5,0 c -130.6198,0 -121.15405,-0.5113 -137.5,7.4275 -18.41273,8.9426 -30.66879,23.8573 -36.21626,44.0725 -1.67746,6.1127 -1.78374,16.1229 -1.78374,168 0,153.7282 0.0884,161.812 1.83773,167.9829 5.51472,19.4541 18.37105,34.9373 36.16227,43.5511 15.93081,7.713 8.80189,7.3491 140,7.1466 l 117,-0.1806 8,-2.7244 z m -240.13329,-61.6937 c -4.30658,-2.626 -6.36671,-5.8793 -6.36671,-10.054 0,-3.0683 0.91055,-4.3902 7,-10.1622 l 7,-6.6352 -0.0481,-12.8652 -0.0481,-12.8653 -5.57952,-3.5 c -7.41033,-4.6485 -10.76843,-9.6527 -10.05363,-14.9818 0.61099,-4.5553 6.16858,-12.726 11.3379,-16.6689 l 3.39136,-2.5867 0,-11.5308 0,-11.5308 -6.43097,-5.9331 c -7.78876,-7.1858 -9.31129,-10.5546 -6.42727,-14.221 7.08337,-9.005 30.58162,-14.0779 46.39814,-10.0165 7.95343,2.0423 15.3836,5.7365 18.88175,9.3878 2.63221,2.7474 2.7617,3.2249 1.62124,5.9783 -0.6817,1.6457 -4.12023,5.65 -7.64117,8.8984 l -6.40172,5.9061 0,11.2734 0,11.2735 4.409,3.8809 c 2.42495,2.1345 5.79995,5.9809 7.5,8.5475 5.67586,8.569 3.61702,15.2561 -6.75238,21.9318 l -6.04538,3.8919 -0.0556,12.8627 -0.0556,12.8627 6.87842,6.3684 c 3.78313,3.5026 7.0804,7.1643 7.32728,8.1373 1.3822,5.4471 -4.27859,12.9196 -10.55943,13.9389 -2.87648,0.4668 -5.03616,-0.08 -10.02882,-2.5376 -5.3105,-2.6143 -7.53201,-3.1324 -13.43119,-3.1324 -4.07788,0 -7.35697,0.4671 -7.75065,1.1041 -1.08905,1.7621 -8.65738,4.8503 -11.93565,4.8702 -1.65,0.01 -4.40998,-0.8415 -6.13329,-1.8924 z m 35.63329,-32.4653 c 0,-22.367 -0.002,-22.3838 -2.25,-22.9863 -3.47213,-0.9305 -11.33301,-0.7393 -14.1849,0.3449 l -2.5651,0.9753 0,22.0247 0,22.0248 9.5,0 9.5,0 0,-22.3834 z m -5.25,-29.8746 c 9.23178,0.2416 9.25,0.2372 9.25,-2.2243 0,-3.8016 -4.9685,-5.9854 -13.5,-5.9335 -8.49532,0.052 -13.5,2.227 -13.5,5.8682 0,2.6817 2.09231,3.608 6,2.6564 1.375,-0.3348 6.6625,-0.4999 11.75,-0.3668 z m 9.053,-12.9194 c 0.24444,-2.0526 -0.36461,-2.8612 -3.15113,-4.1835 -6.71915,-3.1885 -21.66268,-1.3805 -23.27292,2.8157 -1.40743,3.6678 0.002,4.0934 13.25247,4.0014 l 12.86858,-0.089 0.303,-2.5443 z m -2.80253,-26.8612 c -4.1e-4,-14.5648 0.23821,-17.0067 1.99953,-20.4614 2.40977,-4.7266 2.45452,-5.7204 0.43358,-9.6284 -1.7805,-3.4432 -6.69451,-5.8716 -11.88123,-5.8716 -4.53703,0 -11.33886,2.7326 -12.58152,5.0545 -1.39562,2.6077 -1.1331,8.0376 0.52917,10.9455 1.08021,1.8896 1.43806,6.6505 1.46572,19.5 l 0.0366,17 9.99931,0 9.99931,0 -4.6e-4,-16.5386 z m 137.41797,102.0697 c -2.72683,-1.1031 -7.25571,-6.5346 -8.03387,-9.635 -0.83633,-3.3322 3.00198,-8.9505 9.50037,-13.9063 l 5.11506,-3.9008 0,-12.741 0,-12.7411 -5.54714,-3.682 c -13.87583,-9.2102 -14.0218,-17.7035 -0.53086,-30.8873 l 5.078,-4.9624 0,-10.7473 0,-10.7473 -7.03453,-6.7538 c -7.65035,-7.345 -8.99959,-10.0996 -6.68056,-13.6389 2.14185,-3.2689 12.23298,-8.3693 20.31812,-10.2695 19.1067,-4.4905 46.21958,3.2119 47.21323,13.4127 0.28105,2.8852 -0.4705,3.9954 -6.75,9.9712 l -7.06626,6.7246 0,11.3448 0,11.3449 5.48081,5.3939 c 12.83985,12.6363 12.21813,21.0601 -2.22902,30.2015 l -4.24821,2.688 -0.002,12.8653 -0.002,12.8652 7,6.6352 c 5.64143,5.3473 6.99927,7.2173 6.99626,9.6347 -0.008,6.1549 -6.5166,12.4996 -12.82322,12.4996 -1.04016,0 -4.54211,-1.3443 -7.78212,-2.9873 -8.27999,-4.1989 -16.50185,-4.1989 -24.78184,0 -5.96057,3.0226 -9.40536,3.5497 -13.19064,2.0184 z m 34.58156,-33.4145 c 0,-25.5337 0.78304,-23.5893 -9.5,-23.5893 -10.28304,0 -9.5,-1.9444 -9.5,23.5893 l 0,22.3834 9.5,0 9.5,0 0,-22.3834 z m 3.5,-32.0087 c 0,-1.0406 -1.2705,-2.8406 -2.82333,-4 -2.26548,-1.6914 -4.24135,-2.1042 -10,-2.0893 -8.66123,0.022 -13.04256,1.8436 -13.47999,5.603 l -0.30333,2.6069 13.30333,-0.1142 c 12.34346,-0.1061 13.30332,-0.2508 13.30332,-2.0064 z m -10.5,-8.6812 c 9.51899,0.7539 10.43515,0.6479 10.81264,-1.2511 0.95989,-4.8288 -8.61394,-8.4201 -17.80162,-6.6777 -6.77524,1.2849 -9.01102,2.6174 -9.01102,5.3706 0,3.4022 0.9432,3.8359 6.47901,2.979 2.76154,-0.4274 7.04599,-0.6168 9.52099,-0.4208 z m 7,-28.6525 c 0,-14.4556 0.21779,-16.5831 1.99626,-19.5 2.86163,-4.6935 2.62082,-9.8844 -0.60834,-13.1136 -6.33582,-6.3358 -21.07002,-4.0603 -23.82682,3.6798 -0.71702,2.0131 -0.42163,3.884 1.25,7.9171 1.94024,4.6812 2.1889,7.0966 2.1889,21.2618 l 0,15.9807 9.5,0 9.5,0 0,-16.2258 z m -121.1272,25.0421 c -3.5147,-2.1813 -5.8728,-6.385 -5.8728,-10.4692 0,-2.8482 1.03838,-4.3188 7,-9.914 l 7,-6.5696 0,-12.4849 0,-12.4849 -6.06242,-4.2753 c -12.96291,-9.1417 -13.10282,-16.8851 -0.52725,-29.1814 l 5.56051,-5.437 0.0146,-11.3479 0.0146,-11.3478 -6.09211,-5.6299 c -3.35065,-3.0965 -6.76843,-6.9378 -7.59506,-8.5364 -1.37522,-2.6593 -1.34339,-3.1201 0.3744,-5.4209 4.43457,-5.9397 21.55142,-12.2171 33.31273,-12.2171 11.48591,0 28.60006,6.1335 33.1092,11.866 2.72933,3.4697 1.75678,5.5922 -6.19842,13.5273 l -6.91078,6.8933 0,10.9367 0,10.9367 5.85541,5.8554 c 12.57921,12.5792 12.1881,20.6236 -1.44273,29.6739 l -5.41268,3.5939 0,12.7369 0,12.7369 5.62847,4.8086 c 9.17116,7.8352 10.31267,11.0703 6.45167,18.2847 -3.05735,5.7127 -12.81912,6.5735 -20.077,1.7705 -3.25869,-2.1565 -5.11823,-2.6208 -10.49685,-2.6208 -5.41494,0 -7.44874,0.5148 -11.8523,3 -6.03663,3.4069 -11.65727,3.8757 -15.78119,1.3163 z m 36.1272,-31.7573 c 0,-13.5168 -0.3882,-22.6809 -0.97618,-23.0443 -2.18861,-1.3526 -10.9511,-1.6938 -14.38615,-0.5601 l -3.63767,1.2005 0,22.4224 0,22.4225 9.5,0 9.5,0 0,-22.441 z m -7.5,-30.6304 c 10.37546,0.6849 10.93983,0.6224 11.31264,-1.253 0.96862,-4.8727 -8.61229,-8.4204 -17.95518,-6.6486 -5.59573,1.0612 -8.85746,3.2565 -8.85746,5.9613 0,2.736 1.18504,3.1761 6.47901,2.4063 2.76154,-0.4016 6.82099,-0.6113 9.02099,-0.466 z m 11.29479,-12.9027 c -0.41157,-3.5265 -5.79549,-6.0378 -12.79479,-5.9679 -9.09117,0.091 -15.24534,3.2543 -13.77654,7.0819 0.42854,1.1168 3.29223,1.4118 13.70394,1.4118 l 13.16219,0 -0.2948,-2.5258 z m -2.79479,-26.5066 c 0,-13.9569 0.26582,-16.622 2.09906,-21.045 1.94179,-4.6849 1.98688,-5.3328 0.60183,-8.6477 -2.9673,-7.1018 -15.88323,-8.9098 -22.69614,-3.1772 -2.46556,2.0747 -3.00475,3.2856 -3.00475,6.7484 0,2.3209 0.66069,5.0934 1.4682,6.1611 1.15399,1.5257 1.475,5.5792 1.5,18.9411 l 0.0318,17 10,0 10,0 0,-15.9807 z m -125.63329,15.5626 c -4.34962,-2.6522 -6.36671,-5.8872 -6.36671,-10.2108 0,-3.277 0.77297,-4.3995 7,-10.1648 l 7,-6.4809 -0.0481,-12.8627 -0.0481,-12.8627 -5.56711,-3.5 c -13.61189,-8.5577 -13.55277,-18.2503 0.18858,-30.9166 l 4.47464,-4.1246 0,-11.141 0,-11.141 -6.10254,-5.5884 c -6.70844,-6.1433 -9.31584,-10.1948 -8.40591,-13.0618 0.79345,-2.4999 8.77226,-7.5205 16.08917,-10.124 8.32605,-2.9625 22.90145,-3.6578 31.41997,-1.4987 8.41352,2.1325 15.82935,5.7655 19.42096,9.5143 2.65879,2.7752 2.77058,3.2035 1.58391,6.0684 -0.70223,1.6953 -4.14075,5.5968 -7.64117,8.67 l -6.36439,5.5876 0,11.5018 0,11.5019 4.409,3.8809 c 9.59201,8.4432 12.80734,16.9898 8.72255,23.185 -1.88051,2.8521 -11.5809,10.6862 -13.23196,10.6862 -0.49477,0 -0.89959,5.9007 -0.89959,13.1127 l 0,13.1127 7,6.4809 c 6.28372,5.8178 7,6.8669 7,10.2525 0,4.2946 -2.67129,8.3027 -7.03864,10.5612 -4.20633,2.1752 -7.08225,1.8363 -13.60981,-1.6038 -7.30813,-3.8514 -17.44288,-4.3828 -22.07326,-1.1574 -3.25611,2.2681 -8.69778,4.2428 -11.67751,4.2375 -1.15543,0 -3.51076,-0.8635 -5.23407,-1.9144 z m 35.63329,-32.4653 c 0,-22.367 -0.002,-22.3838 -2.25,-22.9863 -3.47213,-0.9305 -11.33301,-0.7393 -14.1849,0.3449 l -2.5651,0.9753 0,22.0247 0,22.0248 9.5,0 9.5,0 0,-22.3834 z m 4,-32.3381 c 0,-1.8853 -0.9883,-2.8281 -4.67278,-4.458 -8.27634,-3.661 -22.32722,-0.7847 -22.32722,4.5705 0,2.3389 0.005,2.3397 13.5,2.3091 l 13.5,-0.031 0,-2.391 z m -11,-8.3883 c 10.75671,0.7533 10.47734,0.8051 10.803,-2.0011 0.42536,-3.6653 -5.16687,-6.2579 -13.35663,-6.1921 -8.93588,0.072 -14.71059,3.5661 -13.04897,7.8962 0.50917,1.3269 1.48841,1.4586 5.85699,0.7876 2.88509,-0.4432 7.27061,-0.6639 9.74561,-0.4906 z m -2.70652,-13.0289 c 3.01822,-0.036 6.43692,0.2357 7.5971,0.604 2.08716,0.6624 2.10942,0.497 2.10942,-15.6754 0,-12.0379 0.35405,-16.8647 1.34361,-18.3174 6.51712,-9.5676 1.74814,-18.4725 -9.89282,-18.4725 -9.73287,0 -15.66574,5.6776 -13.38733,12.8112 0.64798,2.0289 1.57378,4.1163 2.05734,4.6388 0.48356,0.5225 0.8792,8.7653 0.8792,18.3174 0,16.6169 0.0822,17.3413 1.9029,16.7634 1.04659,-0.3322 4.37235,-0.6334 7.39058,-0.6695 z m 149.10401,86.4818 c -3.39968,-0.7172 -8.40614,-6.6216 -9.06683,-10.6929 -0.5724,-3.5273 -0.301,-3.9642 6.53607,-10.5224 l 7.13327,-6.8422 0,-13.1076 c 0,-12.5805 -0.0905,-13.1546 -2.25,-14.275 -4.80551,-2.4933 -11.05801,-8.3959 -12.46792,-11.7703 -2.29123,-5.4837 -0.43559,-9.9123 7.77524,-18.5562 l 6.94268,-7.3088 0,-10.5134 0,-10.5134 -7.5,-7.4515 c -9.29358,-9.2335 -9.64223,-11.2154 -2.84133,-16.1508 8.27816,-6.0074 16.09235,-8.1386 29.84133,-8.1386 13.57556,0 21.97781,2.1659 29.47746,7.5986 7.1596,5.1864 6.75727,7.9623 -2.45791,16.9583 l -6.51955,6.3645 0,11.3976 0,11.3976 5.48081,5.3939 c 5.6894,5.5992 9.51919,11.7947 9.51919,15.3993 0,4.6397 -5.39428,11.1565 -12.90956,15.5958 l -3.09044,1.8256 0,12.8997 0,12.8996 7,6.6352 c 5.736,5.437 7,7.1952 7,9.7368 0,4.367 -3.82566,9.5577 -8.29911,11.2603 -4.46255,1.6985 -9.20107,0.6442 -15.10135,-3.3598 -5.47925,-3.7183 -13.77424,-3.5377 -20.28309,0.4417 -4.84068,2.9594 -10.01336,4.2224 -13.91896,3.3984 z m 33.08204,-33.4029 c 0.40378,-12.1329 0.46054,-22.3335 0.12615,-22.6679 -0.99053,-0.9905 -11.22572,-1.5662 -15.05933,-0.847 l -3.54635,0.6653 0,22.4547 0,22.4547 8.87269,0 8.8727,0 0.73414,-22.0598 z m 4.02047,-32.3323 c 0,-1.0406 -1.27211,-2.8406 -2.82691,-4 -2.30349,-1.7176 -4.25592,-2.1079 -10.54481,-2.1079 -8.83975,0 -13.12828,1.923 -13.12828,5.8869 l 0,2.3409 13.25,-0.1139 c 12.29129,-0.1057 13.25,-0.2508 13.25,-2.006 z m -17.63855,-8.6624 c 2.91015,-0.671 6.15603,-0.6739 9.75451,-0.01 6.12126,1.1316 8.38404,0.6218 8.38404,-1.8888 0,-4.1173 -9.03774,-7.7102 -16.36262,-6.505 -7.12461,1.1722 -10.63738,3.0675 -10.63738,5.7393 0,4.0427 1.24961,4.4182 8.86145,2.6632 z m 6.44185,-13.4802 c 0.65818,0.1989 2.6592,0.6143 4.4467,0.9232 l 3.25,0.5615 0,-16.4508 c 0,-14.6805 0.21483,-16.8032 1.99626,-19.725 5.15159,-8.4494 0.0642,-16.7742 -10.25088,-16.7742 -8.48211,0 -14.74538,4.1467 -14.74538,9.7623 0,1.2746 0.9,4.0815 2,6.2377 1.7592,3.4483 2,5.8938 2,20.3108 l 0,16.3905 5.0533,-0.7988 c 2.77931,-0.4394 5.59181,-0.6361 6.25,-0.4372 z"
         id="path5050"
         inkscape:connector-curvature="0" />
      <path
         style="fill:#000000"
         d="m 534.31413,-1513.0368 c -24.11425,-3.1941 -45.19457,-18.1129 -55.72686,-39.4385 -7.84422,-15.8828 -7.36407,-4.0286 -7.38351,-182.2922 -0.0192,-176.3082 -0.34146,-167.1879 6.4203,-181.7078 8.64619,-18.5665 24.61855,-32.1185 45.56234,-38.6581 l 7.5,-2.3419 120,0 120,0 8,2.8163 c 12.6702,4.4603 20.15188,9.1571 29.61718,18.5932 7.305,7.2824 9.30797,10.0371 13.15357,18.0905 2.49501,5.225 5.14228,11.975 5.88282,15 1.10049,4.4954 1.34643,35.1827 1.34643,168 0,154.4682 -0.0905,162.8213 -1.83103,169 -7.11741,25.2661 -25.12679,43.1006 -51.66897,51.1671 l -7.5,2.2794 -113.5,0.168 c -62.425,0.092 -116.36752,-0.2118 -119.87227,-0.676 z m 243.37227,-6.1629 c 11.25283,-3.8322 19.84056,-9.1439 27.98467,-17.3092 7.97404,-7.9948 12.47094,-15.0505 16.33612,-25.6318 l 2.67921,-7.3346 0,-165.5 c 0,-159.1393 -0.072,-165.7114 -1.87313,-171 -3.92868,-11.5356 -8.73773,-19.2097 -17.57743,-28.0494 -9.64179,-9.6418 -17.67534,-14.407 -30.59451,-18.1474 l -7.95493,-2.3032 -116.5,0 c -130.6198,0 -121.15405,-0.5113 -137.5,7.4275 -18.41273,8.9426 -30.66879,23.8573 -36.21626,44.0725 -1.67746,6.1127 -1.78374,16.1229 -1.78374,168 0,153.7282 0.0884,161.812 1.83773,167.9829 5.51472,19.4541 18.37105,34.9373 36.16227,43.5511 15.93081,7.713 8.80189,7.3491 140,7.1466 l 117,-0.1806 8,-2.7244 z"
         id="path5048"
         inkscape:connector-curvature="0" />
    </g>
  </g>
</svg>
