<?xml version="1.0" encoding="UTF-8" standalone="no"?>
<!-- Created with Inkscape (http://www.inkscape.org/) -->

<svg
   xmlns:dc="http://purl.org/dc/elements/1.1/"
   xmlns:cc="http://creativecommons.org/ns#"
   xmlns:rdf="http://www.w3.org/1999/02/22-rdf-syntax-ns#"
   xmlns:svg="http://www.w3.org/2000/svg"
   xmlns="http://www.w3.org/2000/svg"
   xmlns:sodipodi="http://sodipodi.sourceforge.net/DTD/sodipodi-0.dtd"
   xmlns:inkscape="http://www.inkscape.org/namespaces/inkscape"
   width="358.88211"
   height="446.67926"
   id="svg2"
   version="1.1"
   inkscape:version="0.48.5 r10040"
   sodipodi:docname="bamb6.svg">
  <defs
     id="defs4" />
  <sodipodi:namedview
     id="base"
     pagecolor="#ffffff"
     bordercolor="#666666"
     borderopacity="1.0"
     inkscape:pageopacity="0.0"
     inkscape:pageshadow="2"
     inkscape:zoom="0.56054688"
     inkscape:cx="-25.441973"
     inkscape:cy="-15.333275"
     inkscape:document-units="px"
     inkscape:current-layer="layer1"
     showgrid="false"
     fit-margin-top="0"
     fit-margin-left="0"
     fit-margin-right="0"
     fit-margin-bottom="0"
     inkscape:window-width="958"
     inkscape:window-height="1078"
     inkscape:window-x="1920"
     inkscape:window-y="0"
     inkscape:window-maximized="0" />
  <metadata
     id="metadata7">
    <rdf:RDF>
      <cc:Work
         rdf:about="">
        <dc:format>image/svg+xml</dc:format>
        <dc:type
           rdf:resource="http://purl.org/dc/dcmitype/StillImage" />
        <dc:title></dc:title>
      </cc:Work>
    </rdf:RDF>
  </metadata>
  <g
     inkscape:label="Layer 1"
     inkscape:groupmode="layer"
     id="layer1"
     transform="translate(-1257.1113,765.9357)">
    <g
       id="g4363"
       transform="translate(626.17422,164.12544)">
      <path
         style="fill:#dc8c8f"
         d="m 694.81396,-484.04458 c -16.29487,-2.007 -32.03925,-9.75934 -43.5,-21.41889 -8.19444,-8.33658 -13.48672,-16.93185 -17.27559,-28.05753 l -2.72441,-8 0,-164.5 c 0,-154.10263 0.11153,-164.90373 1.76453,-170.88747 6.68594,-24.20266 24.76129,-42.47252 49.73547,-50.27067 l 7.5,-2.34186 120,0 120,0 7.5,2.34186 c 24.73288,7.7228 42.16968,25.15735 49.66457,49.65814 1.74891,5.71718 1.83543,13.77762 1.83543,171 l 0,165 -2.72441,8 c -3.88686,11.41342 -9.16554,19.87439 -17.77621,28.49271 -8.89801,8.90592 -18.7206,14.73489 -31.49938,18.69253 l -9,2.78733 -113.5,0.15222 c -62.425,0.0837 -116.425,-0.20805 -120,-0.64837 z m 242.5,-7.20083 c 17.92254,-6.10355 32.92605,-18.67988 40.33452,-33.80944 7.71402,-15.75357 7.16718,-1.87923 7.1507,-181.42625 -0.0163,-178.10198 0.38466,-166.91625 -6.48972,-181.02473 -6.66171,-13.67201 -17.5412,-24.25803 -31.9955,-31.13245 -15.38417,-7.31666 -6.80965,-6.88272 -136,-6.88272 -108.03649,0 -116.44623,0.12198 -122.5,1.77677 -20.28252,5.54422 -37.17274,18.9908 -45.51896,36.2384 -6.84871,14.15295 -6.44992,2.98865 -6.46626,181.02473 -0.0164,179.06475 -0.5258,165.74685 6.92111,180.9601 8.77415,17.92469 26.48192,31.33843 47.56411,36.0301 4.84263,1.07769 28.47217,1.30002 122.5,1.15258 l 116.5,-0.18268 8,-2.72441 z M 706.5891,-531.5317 c -3.32094,-1.86083 -4.77514,-4.39788 -4.77514,-8.33089 0,-2.30163 1.12921,-3.98833 5,-7.4685 l 5,-4.49543 -0.022,-9.34724 -0.022,-9.34724 -4.44717,-2.98513 c -2.44594,-1.64182 -5.19657,-4.37668 -6.11251,-6.07747 -2.34115,-4.34725 -0.55718,-9.18134 5.69595,-15.43446 l 4.9077,-4.9077 0,-7.33178 0,-7.33178 -5.5,-5.43168 c -7.17463,-7.08551 -7.37894,-9.81456 -1.01399,-13.54467 6.49213,-3.80464 13.83554,-5.54994 23.51399,-5.58854 13.91377,-0.0555 28,5.66628 28,11.3735 0,1.17722 -2.36073,4.38584 -5.5,7.47538 l -5.5,5.41288 0,7.73278 0,7.73277 4.08242,3.95295 c 8.28921,8.02632 9.21963,14.14046 3.00605,19.75405 -2.15134,1.94361 -4.85134,4.03681 -6,4.65155 -1.8753,1.00363 -2.08847,2.01679 -2.08847,9.926 l 0,8.80828 4.99478,4.21166 c 5.61753,4.73677 6.82139,7.71679 4.94623,12.24383 -2.46828,5.95896 -9.64581,7.04068 -18.15117,2.73554 -4.79221,-2.42566 -10.86825,-2.38877 -15.73791,0.0956 -5.46552,2.7883 -10.96396,3.37208 -14.27679,1.51579 z m 28.22486,-24.38231 c 0,-17.50305 0.15049,-17.10699 -6.5,-17.10699 -6.65049,0 -6.5,-0.39606 -6.5,17.10699 l 0,15.89301 6.5,0 6.5,0 0,-15.89301 z m 2.77953,-24.01331 c -0.40134,-2.08399 -4.55091,-4.06092 -8.56165,-4.07894 -4.25816,-0.0191 -10.21788,2.48746 -10.21788,4.29752 0,1.12335 1.96225,1.40511 9.53838,1.36959 8.04453,-0.0377 9.49183,-0.28644 9.24115,-1.58817 z m 0.72047,-7.59368 c 0,-0.55 -1.575,-1.81192 -3.5,-2.80428 -5.2935,-2.72884 -16,-0.87519 -16,2.77012 0,1.1109 1.98827,1.35864 9.75,1.21482 5.71289,-0.10586 9.75,-0.59472 9.75,-1.18066 z m -2.49925,-20.13569 c -5.5e-4,-8.8213 0.40723,-12.91797 1.49309,-15 2.03929,-3.91017 1.90144,-5.05994 -0.94839,-7.90976 -1.9632,-1.96321 -3.47362,-2.45455 -7.54545,-2.45455 -4.07183,0 -5.58225,0.49134 -7.54546,2.45455 -2.79977,2.79977 -3.10453,5.30383 -0.98634,8.10432 1.10417,1.45985 1.47669,5.04034 1.50246,14.44113 l 0.0343,12.5 6.99828,0 6.99828,0 -7.4e-4,-12.13569 z m 51.77439,76.12499 c -3.31048,-1.85497 -4.77514,-4.39673 -4.77514,-8.28672 0,-2.22442 1.20263,-4.05381 5,-7.60581 l 5,-4.67692 -0.0269,-9.20992 -0.0269,-9.20993 -4.11476,-2.5 c -4.43854,-2.69672 -7.82171,-7.2583 -7.82771,-10.55422 -0.005,-2.86765 5.2302,-10.81953 8.91905,-13.54682 2.96783,-2.1942 3.07722,-2.54584 3.07722,-9.89196 l 0,-7.61687 -5.5,-5.21305 c -7.26898,-6.88975 -7.49325,-9.92465 -1.01399,-13.72175 13.48511,-7.9028 37.01436,-7.41295 48.04462,1.00023 4.87541,3.71866 4.49468,6.00073 -2.03063,12.17133 l -5.5,5.20102 0,7.8831 0,7.88309 4.08242,3.95295 c 9.53731,9.23483 9.35947,15.61275 -0.62692,22.48357 l -4.4555,3.06546 0,8.68387 0,8.68387 5.5,5.07799 c 6.33858,5.85223 6.94183,8.59122 2.93972,13.34746 -3.72888,4.43152 -7.99618,4.91822 -15.00171,1.71098 -6.7875,-3.10742 -12.14498,-3.30055 -17.38608,-0.62674 -5.46552,2.7883 -10.96396,3.37208 -14.27679,1.51579 z m 28.22486,-24.38231 c 0,-17.50305 0.15049,-17.10699 -6.5,-17.10699 -6.65049,0 -6.5,-0.39606 -6.5,17.10699 l 0,15.89301 6.5,0 6.5,0 0,-15.89301 z m 3,-23.83927 c 0,-0.75338 -1.67435,-2.06936 -3.72077,-2.92441 -5.88921,-2.46067 -15.27923,-0.52946 -15.27923,3.14242 0,0.90383 2.58014,1.22874 9.5,1.1963 7.35469,-0.0345 9.5,-0.35386 9.5,-1.41431 z m 0,-7.94843 c 0,-2.26653 -6.81616,-4.6043 -11.32324,-3.88359 -4.90794,0.78481 -7.67676,2.22825 -7.67676,4.00205 0,1.06281 2.11601,1.36019 9.5,1.33513 7.529,-0.0256 9.5,-0.32713 9.5,-1.45359 z m -1.99925,-20.11895 c -5.5e-4,-8.96602 0.40489,-13.08407 1.49587,-15.1938 2.95436,-5.71311 -0.81967,-10.00654 -8.79602,-10.00654 -7.92285,0 -11.63914,4.9849 -8.2006,11 1.01352,1.77297 1.44015,5.98976 1.46703,14.5 l 0.0379,12 6.99827,0 6.99828,0 -7.4e-4,-12.29966 z m 53.3363,76.24311 c -3.62713,-1.84506 -5.84705,-6.27532 -4.94511,-9.86891 0.34017,-1.35536 2.86614,-4.35953 5.61328,-6.67595 l 4.99478,-4.21166 0,-8.76191 0,-8.7619 -3.45778,-2.13702 c -10.71166,-6.62017 -11.23435,-14.17411 -1.62464,-23.47905 l 4.08242,-3.95295 0,-7.73277 0,-7.73278 -5.5,-5.41288 c -3.20309,-3.15235 -5.5,-6.2901 -5.5,-7.51339 0,-1.22188 1.4512,-3.20738 3.46937,-4.74672 11.03026,-8.41318 34.55951,-8.90303 48.04462,-1.00023 6.36495,3.73011 6.16064,6.45916 -1.01399,13.54467 l -5.5,5.43168 0,7.33178 0,7.33178 4.9077,4.9077 c 6.25312,6.25312 8.0371,11.08721 5.69595,15.43446 -0.91594,1.70079 -3.66657,4.43565 -6.11251,6.07747 l -4.44717,2.98513 -0.022,9.34724 -0.022,9.34724 5,4.49543 c 4.16661,3.74614 5,5.07093 5,7.94821 0,3.92611 -3.27476,7.89077 -7.36579,8.91755 -2.61712,0.65686 -12.15501,-1.9713 -13.18146,-3.63213 -1.06273,-1.71952 -10.24484,-0.99981 -14.31582,1.12211 -5.48278,2.85778 -10.02525,3.31789 -13.79988,1.3978 z m 28.03795,-11.56845 c 0.34375,-1.71875 0.625,-8.87061 0.625,-15.89301 0,-14.00128 0.003,-13.99564 -6.33179,-13.96834 -7.96865,0.0344 -7.66821,-0.63575 -7.66821,17.10298 l 0,15.88337 6.375,0 c 6.34,0 6.37843,-0.0172 7,-3.125 z m 2.62831,-36.125 c -0.002,-0.4125 -0.003,-1.15598 -0.003,-1.65217 0,-1.2096 -5.59635,-3.09783 -9.18134,-3.09783 -3.95989,0 -9.81866,2.58727 -9.81866,4.33598 0,1.15945 1.84107,1.4115 9.50331,1.30103 5.22682,-0.0754 9.50182,-0.47451 9.5,-0.88701 z m 0.99669,-7.70371 c 0,-1.67657 -3.81128,-3.99148 -7.52612,-4.57124 -4.79865,-0.74891 -11.81645,1.34926 -12.26261,3.66625 -0.2761,1.43385 0.95453,1.64131 9.73634,1.64131 5.52881,0 10.05239,-0.33134 10.05239,-0.73632 z M 898.8494,-607.521 c 0.0251,-8.51411 0.45058,-12.72623 1.46456,-14.5 0.78602,-1.375 1.44508,-3.47984 1.46456,-4.67742 0.0512,-3.14896 -4.49259,-6.32258 -9.05237,-6.32258 -8.01791,0 -11.78533,4.01814 -9.30292,9.92204 0.92953,2.21071 1.39073,7.33189 1.39073,15.44277 l 0,12.13519 7,0 7,0 0.0354,-12 z m -194.11236,-48.42308 c -4.61977,-4.61977 -4.06528,-8.40265 2.07692,-14.16925 l 5,-4.69424 0,-9.05868 0,-9.05867 -4.4987,-3.09519 c -9.25056,-6.36455 -9.40901,-12.72713 -0.53464,-21.46806 l 5.03334,-4.95765 0,-7.56664 0,-7.56665 -5.5,-5.17717 c -6.92829,-6.52162 -7.19707,-9.02282 -1.41936,-13.20818 5.68572,-4.11871 16.80383,-6.47692 27.3118,-5.79297 12.48765,0.81279 24.60756,6.1731 24.60756,10.88325 0,1.10091 -2.475,4.59643 -5.5,7.76783 l -5.5,5.76618 0,7.45664 c 0,7.41231 0.0243,7.48013 4.08242,11.40958 8.19175,7.93195 9.15589,13.9074 3.16758,19.63177 -2.0625,1.97159 -4.7625,4.10375 -6,4.73813 -2.09001,1.0714 -2.24832,1.80864 -2.22636,10.36823 l 0.0236,9.21482 3.99742,2.95767 c 5.5372,4.09694 7.27451,7.02726 6.52739,11.00973 -1.35678,7.23226 -8.78339,9.38353 -17.74998,5.14166 -6.88955,-3.25928 -10.97499,-3.28413 -17.24159,-0.10487 -6.82072,3.46038 -11.90864,3.32154 -15.65744,-0.42727 z m 30.07692,-22.49746 0,-16.42055 -3.07817,-0.67608 c -1.693,-0.37184 -4.618,-0.38721 -6.50001,-0.0341 l -3.42182,0.6419 0,16.45468 0,16.45469 6.5,0 6.5,0 0,-16.42054 z m 2.81114,-24.32946 c -0.96036,-5.0093 -18.81114,-4.73867 -18.81114,0.28518 0,1.18442 1.83257,1.46482 9.57332,1.46482 8.5786,0 9.53847,-0.18184 9.23782,-1.75 z m 0.38657,-7.04771 c 0.68812,-0.68812 0.17398,-1.56787 -1.59287,-2.72556 -1.99377,-1.30636 -4.14054,-1.61194 -9.10412,-1.29588 -6.62574,0.4219 -9.16276,1.6509 -8.26113,4.00193 0.61476,1.60299 17.35742,1.62021 18.95812,0.0195 z m -2.19771,-20.33017 c 0,-8.22123 0.45238,-12.71056 1.54409,-15.3234 1.90516,-4.55969 1.17926,-7.1233 -2.5653,-9.05969 -3.68901,-1.90766 -8.29017,-1.89649 -12.01396,0.0292 -3.67385,1.89982 -4.61097,5.33164 -2.54621,9.32445 1.17972,2.28127 1.58138,6.05507 1.58138,14.85766 l 0,11.79966 7,0 7,0 0,-11.62788 z m 49.92308,74.2048 c -2.124,-2.12399 -2.92308,-3.88573 -2.92308,-6.44452 0,-2.98489 0.76175,-4.17744 4.99951,-7.82692 l 4.99951,-4.30548 4.9e-4,-9.10948 4.9e-4,-9.10948 -5.18058,-3.89052 c -8.7893,-6.6006 -8.85201,-11.35964 -0.26828,-20.35879 l 5.44886,-5.71256 0,-7.39149 0,-7.3915 -5.5,-5.07799 c -6.56163,-6.05817 -7.10501,-8.92987 -2.4335,-12.86069 5.0166,-4.22119 12.94885,-6.10517 25.4335,-6.04068 11.6747,0.0603 19.16357,2.0309 24.91701,6.55656 3.83537,3.0169 3.21248,5.51361 -2.91701,11.69219 l -5.5,5.54403 0,7.93128 c 0,7.35627 0.18905,8.07999 2.60764,9.98245 4.714,3.70804 8.39236,9.74355 8.39236,13.77035 0,3.07283 -0.69226,4.35901 -3.91153,7.26742 -2.15134,1.94361 -4.85134,4.03681 -6,4.65155 -1.89213,1.01264 -2.08847,2.00752 -2.08847,10.58253 0,5.20565 0.35204,9.46482 0.78231,9.46482 1.59779,0 10.21769,9.36773 10.21769,11.10415 0,3.19402 -2.3167,7.00826 -5.14503,8.47085 -3.99719,2.06702 -7.85687,1.75941 -13.43549,-1.07081 -6.23157,-3.16149 -10.94423,-3.16263 -17.23255,-0.004 -6.83527,3.43317 -11.53796,3.30282 -15.26385,-0.42308 z m 30.07692,-22.49746 0,-16.42055 -3.07817,-0.67608 c -1.693,-0.37184 -4.618,-0.38721 -6.5,-0.0341 l -3.42183,0.6419 0,16.45468 0,16.45469 6.5,0 6.5,0 0,-16.42054 z m 2.81114,-24.32946 c -0.96036,-5.0093 -18.81114,-4.73867 -18.81114,0.28518 0,1.18442 1.83257,1.46482 9.57332,1.46482 8.5786,0 9.53847,-0.18184 9.23782,-1.75 z m 0.0116,-7.61889 c 0.4744,-2.38884 -4.35982,-3.87275 -11.08765,-3.40346 -5.96754,0.41626 -8.36706,1.68239 -7.49561,3.95513 0.37044,0.96609 2.87163,1.28475 9.38279,1.19542 7.33415,-0.10063 8.93383,-0.4044 9.20047,-1.74709 z m -1.82274,-20.22747 c 0,-8.83311 0.41107,-12.92037 1.52376,-15.15081 3.69979,-7.41641 -5.93271,-13.19543 -14.55893,-8.73464 -3.67385,1.89982 -4.61097,5.33164 -2.54621,9.32445 1.17972,2.28131 1.58138,6.05511 1.58138,14.8577 l 0,11.79966 7,0 7,0 0,-12.09636 z m 53.11007,76.20085 c -2.82169,-1.56394 -5.02504,-5.19867 -5.07463,-8.37131 -0.0335,-2.14022 8.1774,-11.23318 10.14346,-11.23318 0.45161,0 0.8211,-4.25917 0.8211,-9.46482 0,-8.80694 -0.15639,-9.54498 -2.25,-10.61823 -1.2375,-0.63438 -3.9375,-2.76654 -6,-4.73813 -5.98831,-5.72437 -5.02417,-11.69982 3.16758,-19.63177 4.05815,-3.92945 4.08242,-3.99727 4.08242,-11.40958 l 0,-7.45664 -5.5,-5.76618 c -3.025,-3.1714 -5.5,-6.66692 -5.5,-7.76783 0,-4.71015 12.11991,-10.07046 24.60756,-10.88325 10.50797,-0.68395 21.62608,1.67426 27.3118,5.79297 5.86367,4.24763 5.57844,6.94078 -1.41936,13.40165 l -5.5,5.07799 0,7.5195 0,7.5195 5.03333,4.95765 c 8.87438,8.74093 8.71593,15.10351 -0.53463,21.46806 l -4.4987,3.09519 4.9e-4,9.20196 4.9e-4,9.20196 4.99951,4.30548 c 4.23776,3.64948 4.99951,4.84203 4.99951,7.82692 0,2.55879 -0.79908,4.32053 -2.92308,6.44452 -3.68441,3.68441 -7.66287,3.79458 -14.92622,0.41331 -6.75721,-3.14565 -11.34949,-3.14201 -17.57018,0.014 -5.43324,2.75646 -9.83385,3.11592 -13.47045,1.1003 z m 28.24808,-11.35449 c 0.34091,-2.0625 0.62479,-9.43742 0.63084,-16.38871 l 0.011,-12.63871 -3.5,-0.6566 c -1.925,-0.36113 -5.075,-0.36113 -7,0 l -3.5,0.6566 0,16.38871 0,16.38871 6.36916,0 6.36916,0 0.61983,-3.75 z m 3.64185,-36.22695 c 0,-1.37595 -3.94667,-3.71329 -7.5,-4.44174 -4.05273,-0.83083 -11.89831,1.53286 -12.31779,3.71106 -0.29252,1.51892 0.78432,1.70763 9.74447,1.70763 5.89041,0 10.07332,-0.40567 10.07332,-0.97695 z m -0.23189,-7.82737 c 1.30503,-3.9151 -13.47732,-5.87123 -17.81644,-2.35763 -1.24844,1.01092 -2.0165,2.24842 -1.70679,2.75 0.76934,1.24598 19.09991,0.87758 19.52323,-0.39237 z m -2.76811,-20.41175 c 0,-8.8869 0.40389,-12.56305 1.67258,-15.22352 1.35104,-2.83315 1.44953,-3.997 0.51229,-6.054 -2.4122,-5.2942 -12.71613,-5.91525 -16.92666,-1.02021 -2.1225,2.46756 -2.16348,2.80475 -0.75156,6.18396 1.04591,2.50321 1.49335,7.20786 1.49335,15.70196 l 0,12.12788 7,0 7,0 0,-11.71607 z M 787.0908,-775.99372 c -6.10945,-3.72508 -5.62986,-9.85823 1.20908,-15.46223 l 4.51408,-3.69895 -0.0611,-9.68305 -0.0611,-9.68305 -4.09965,-3 c -9.5567,-6.99331 -9.79752,-11.12471 -1.19039,-20.42144 l 5.41224,-5.84587 0,-7.40051 0,-7.4005 -5.5,-5.43168 c -7.65547,-7.56037 -7.30772,-10.10053 2.0246,-14.78882 13.35692,-6.71014 37.79625,-4.74838 45.87333,3.68229 2.6641,2.78071 2.70909,2.9989 1.21443,5.88924 -0.85368,1.65085 -3.3657,4.4379 -5.58226,6.19345 l -4.0301,3.1919 0,8.56935 0,8.56934 4.95361,5.23772 c 8.14161,8.60855 7.96848,13.35155 -0.72402,19.83562 l -5.22959,3.90095 0,8.83891 0,8.8389 5.5,5.32717 c 6.51445,6.30974 6.86728,8.5467 2.1,13.31398 -4.14125,4.14125 -7.07718,4.32213 -14.4493,0.89023 -6.84228,-3.18525 -12.27229,-3.18117 -18.57018,0.014 -5.92531,3.0061 -9.03105,3.12822 -13.30368,0.52309 z m 28.72316,-23.42029 c 0,-18.05626 0.16586,-17.60699 -6.5,-17.60699 -6.64517,0 -6.5,-0.37835 -6.5,16.94032 0,8.64949 0.3,16.02635 0.66667,16.39301 0.36666,0.36667 3.29166,0.66667 6.5,0.66667 l 5.83333,0 0,-16.39301 z m 3,-24.23589 c 0,-2.42828 -6.72905,-4.63882 -11.80419,-3.87775 -6.1432,0.92122 -7.19581,1.44129 -7.19581,3.55525 0,1.65211 0.94505,1.83268 9.5,1.81513 7.692,-0.0158 9.5,-0.29985 9.5,-1.49263 z m -0.5,-8.07442 c 0,-1.18742 -1.28547,-2.2091 -3.82719,-3.04179 -6.32456,-2.07201 -15.76969,0.4443 -14.46172,3.85281 0.41199,1.07363 2.59022,1.34831 9.41248,1.18692 7.78056,-0.18406 8.87643,-0.43072 8.87643,-1.99794 z m -1.5,-19.42456 c 0,-8.07366 0.45849,-12.7252 1.5,-15.21788 1.98673,-4.75492 1.9204,-5.32475 -0.95455,-8.19969 -1.93959,-1.9396 -3.48475,-2.45455 -7.36514,-2.45455 -8.40916,0 -12.92406,5.99018 -8.71211,11.55887 1.09674,1.45002 1.47624,4.97717 1.5,13.94113 l 0.0318,12 7,0 7,0 0,-11.62788 z"
         id="path4377"
         inkscape:connector-curvature="0" />
      <path
         style="fill:#8c948b"
         d="m 695.00682,-484.0753 c -15.85318,-2.10383 -29.46023,-8.59043 -41.21302,-19.64661 -12.3478,-11.61592 -19.58513,-24.90558 -21.94622,-40.29909 -0.84191,-5.48897 -1.0609,-50.40204 -0.81672,-167.5 0.37327,-178.99704 -0.32453,-162.82116 7.72602,-179.10065 6.76174,-13.67332 20.8674,-26.89866 35.55708,-33.33801 2.75,-1.20549 8.6,-3.05929 13,-4.11956 7.65965,-1.84575 12.87905,-1.92807 122.68462,-1.93477 124.18148,-0.008 121.17336,-0.12839 134.81248,5.41368 15.76867,6.40739 30.22298,19.90423 37.52047,35.03508 7.9506,16.48501 7.48243,5.07145 7.48243,182.4141 0,168.98749 0.10321,165.23816 -4.89657,177.88387 -7.93143,20.06058 -27.59322,37.2325 -49.81671,43.50819 l -7.78672,2.19889 -113,0.16094 c -62.15,0.0885 -115.83821,-0.21571 -119.30714,-0.67606 z m 235.80566,-5.44539 c 25.51694,-5.36765 46.7928,-25.4491 52.44451,-49.50031 1.33642,-5.68722 1.52926,-26.69942 1.54219,-168.0399 0.0165,-180.05001 0.55983,-166.17926 -7.12453,-181.87343 -3.17433,-6.4831 -5.86778,-10.15389 -11.74006,-16 -11.57367,-11.5221 -23.95292,-17.77051 -39.72268,-20.04998 -9.31766,-1.34683 -222.47825,-1.34683 -231.7959,0 -15.76976,2.27947 -28.14901,8.52788 -39.72268,20.04998 -5.87228,5.84611 -8.56573,9.5169 -11.74006,16 -7.68436,15.69417 -7.141,1.82342 -7.12453,181.87343 0.0129,141.34048 0.20577,162.35268 1.54219,168.0399 5.5634,23.67542 26.79345,43.97281 51.70306,49.4317 9.74921,2.13652 231.60865,2.19949 241.73849,0.0686 z m -222.6104,-41.44253 c -3.05794,-1.29035 -6.38812,-5.92073 -6.38812,-8.88223 0,-1.7829 1.51059,-3.95076 5,-7.17555 l 5,-4.62082 0,-9.44145 0,-9.44145 -4.74235,-3.5103 c -5.46497,-4.04518 -7.60622,-7.749 -6.65981,-11.51979 0.3632,-1.44709 3.07726,-5.24162 6.03126,-8.43229 l 5.3709,-5.80121 0,-7.95981 0,-7.95981 -4.99478,-4.21166 c -8.08452,-6.81697 -7.6766,-10.66162 1.60809,-15.15626 10.96281,-5.30701 28.06703,-5.45154 39.35957,-0.3326 10.82579,4.90737 11.38934,7.26568 3.52712,14.76007 l -5.5,5.24268 0,8.29843 c 0,7.75194 0.17173,8.43351 2.60764,10.3496 4.57737,3.60056 8.39236,9.7557 8.39236,13.54032 0,2.82543 -0.80177,4.24376 -4.14233,7.32775 -2.27828,2.10329 -4.97828,4.08949 -6,4.41377 -1.63622,0.51932 -1.85767,1.70731 -1.85767,9.9656 l 0,9.376 5.5,5.20167 c 6.38437,6.03807 6.84723,8.37219 2.60234,13.12306 -3.57231,3.9981 -8.3629,4.3165 -15.16806,1.00814 -5.6734,-2.75814 -12.00993,-2.84552 -17.39255,-0.23984 -5.14579,2.49103 -9.43626,3.2246 -12.15361,2.07798 z m 26.38665,-25.30778 -0.27477,-16.25 -3.90468,-0.31959 c -2.14757,-0.17577 -4.96007,-0.0547 -6.25,0.26906 -2.33803,0.58681 -2.34532,0.63828 -2.34532,16.56958 l 0,15.98095 6.52477,0 6.52477,0 -0.27477,-16.25 z m 3.22523,-23.83343 c 0,-1.88503 -4.63078,-3.92015 -8.89922,-3.91099 -4.99589,0.0107 -10.10078,1.98413 -10.10078,3.90471 0,1.63071 0.97063,1.81173 9.5,1.77174 8.30255,-0.0389 9.5,-0.26145 9.5,-1.76546 z m 1,-6.92021 c 0,-1.83722 -3.15191,-3.84623 -7.07388,-4.50884 -5.45889,-0.92228 -12.92612,1.12487 -12.92612,3.5437 0,1.57541 1.10595,1.77392 10,1.79497 5.5,0.013 10,-0.36041 10,-0.82983 z M 735.8494,-607.521 c 0.0251,-8.51411 0.45058,-12.72623 1.46456,-14.5 2.06548,-3.61318 1.82501,-5.76589 -0.95455,-8.54545 -1.93959,-1.9396 -3.48475,-2.45455 -7.36514,-2.45455 -8.41857,0 -12.2169,4.81338 -8.68031,11 1.01398,1.77377 1.43942,5.98589 1.46456,14.5 l 0.0354,12 7,0 7,0 0.0354,-12 z m 53.96456,76.8334 c -0.825,-0.3206 -2.7375,-1.73597 -4.25,-3.14525 -4.36387,-4.06607 -3.75847,-7.63943 2.25,-13.28048 l 5,-4.69424 0,-9.58104 c 0,-9.52334 -0.0172,-9.58991 -2.85156,-11.05563 -3.52544,-1.82307 -9.14844,-8.09882 -9.14844,-10.21043 0,-2.96514 3.06885,-8.01749 7.52834,-12.39414 l 4.47166,-4.38861 0,-7.72751 0,-7.72752 -5.57918,-5.4908 c -6.65855,-6.55309 -6.81586,-8.7434 -0.92082,-12.82117 8.04468,-5.56474 24.73488,-7.60702 36.26399,-4.43741 6.30474,1.73331 13.75442,5.92343 14.64154,8.23523 0.81313,2.11899 -1.65671,5.96191 -6.56422,10.21352 l -3.84131,3.32793 0,8.88689 c 0,7.81522 0.23732,9.0139 1.96797,9.94012 1.08238,0.57927 3.55738,3.13481 5.5,5.67898 4.93566,6.46405 4.80622,10.10382 -0.54397,15.296 -2.2418,2.1756 -4.9418,4.23042 -6,4.56628 -1.72035,0.54602 -1.924,1.61368 -1.924,10.08667 l 0,9.47601 5.69051,5.29671 c 5.50752,5.12638 5.65924,5.4058 4.71777,8.68849 -0.60148,2.09725 -2.29628,4.28508 -4.44051,5.73231 -3.90211,2.63369 -6.72124,2.46163 -13.5095,-0.82451 -5.26181,-2.5472 -12.30645,-2.54806 -17.19099,-0.002 -4.27879,2.23023 -9.03259,3.22413 -11.26728,2.3557 z m 25.77477,-25.5834 -0.27477,-16.25 -3.90468,-0.31959 c -2.14757,-0.17577 -4.96007,-0.0547 -6.25,0.26906 -2.33803,0.58681 -2.34532,0.63828 -2.34532,16.56958 l 0,15.98095 6.52477,0 6.52477,0 -0.27477,-16.25 z m 3.22523,-23.78854 c 0,-2.03163 -4.62793,-3.96146 -9.5,-3.96146 -4.87207,0 -9.5,1.92983 -9.5,3.96146 0,1.56383 1.08664,1.76581 9.5,1.76581 8.41336,0 9.5,-0.20198 9.5,-1.76581 z m 0,-8.00537 c 0,-1.87145 -4.99327,-3.94494 -9.5,-3.94494 -4.50673,0 -9.5,2.07349 -9.5,3.94494 0,1.68545 0.9012,1.86209 9.5,1.86209 8.5988,0 9.5,-0.17664 9.5,-1.86209 z m -2,-19.08397 c 0,-8.07366 0.45849,-12.7252 1.5,-15.21788 1.98673,-4.75492 1.9204,-5.32475 -0.95455,-8.19969 -1.89632,-1.89633 -3.50323,-2.45455 -7.06574,-2.45455 -9.24254,0 -12.64992,4.31518 -8.97355,11.36431 1.07542,2.06202 1.49384,6.12343 1.49384,14.5 l 0,11.63569 7,0 7,0 0,-11.62788 z m 54.38812,76.18035 c -2.91594,-1.2231 -6.38812,-5.86614 -6.38812,-8.54227 0,-1.39384 2.04693,-4.15598 5.5,-7.42176 l 5.5,-5.20167 0,-9.376 c 0,-8.25829 -0.22145,-9.44628 -1.85767,-9.9656 -1.02172,-0.32428 -3.72172,-2.31048 -6,-4.41377 -3.34056,-3.08399 -4.14233,-4.50232 -4.14233,-7.32775 0,-3.78462 3.81499,-9.93976 8.39236,-13.54032 2.44646,-1.92439 2.60764,-2.57897 2.60764,-10.5903 l 0,-8.53913 -4.39188,-3.59881 c -5.29505,-4.3389 -7.49853,-8.75728 -5.54263,-11.114 1.93658,-2.33344 9.69075,-5.97198 15.7898,-7.40917 11.50615,-2.71131 26.88058,-0.58146 34.64471,4.79941 5.8943,4.08499 5.73715,6.2739 -0.92082,12.82642 l -5.57918,5.4908 0,7.55207 0,7.55207 5.3709,5.80121 c 2.95399,3.19067 5.66806,6.9852 6.03126,8.43229 0.94641,3.77079 -1.19484,7.47461 -6.65981,11.51979 l -4.74235,3.5103 0,9.44145 0,9.44145 5,4.62082 c 6.00731,5.55174 6.60938,9.095 2.25,13.24159 -4.25084,4.04334 -7.29606,4.34175 -13.82132,1.35439 -6.93417,-3.17457 -13.89194,-3.42465 -18.62152,-0.66931 -4.05719,2.36363 -9.59296,3.3112 -12.41904,2.1258 z m 26.98688,-12.17747 c 0.34375,-1.71875 0.625,-8.87061 0.625,-15.89301 0,-14.17979 0.099,-13.98199 -7,-13.98199 -7.22289,0 -7,-0.54472 -7,17.10699 l 0,15.89301 6.375,0 c 6.34,0 6.37843,-0.0172 7,-3.125 z m 3.625,-36.5782 c 0,-2.37966 -6.90683,-4.58642 -12.3406,-3.94287 -5.04607,0.59764 -7.6594,2.0021 -7.6594,4.11634 0,0.88548 2.77382,1.22538 10,1.22538 7.90086,0 10,-0.29364 10,-1.39885 z m 0,-7.94656 c 0,-0.79876 -1.67435,-2.15188 -3.72077,-3.00693 -5.7296,-2.39398 -16.27923,-0.37416 -16.27923,3.1168 0,1.09525 2.11903,1.38473 10,1.36608 8.06535,-0.0191 10,-0.30463 10,-1.47595 z m -2.9682,-19.85024 c 0.0238,-8.96396 0.40326,-12.49111 1.5,-13.94113 2.07094,-2.73802 1.82244,-7.20463 -0.5318,-9.55887 -3.09764,-3.09764 -12.26121,-2.8297 -15.54545,0.45455 -2.84983,2.84982 -2.98768,3.99959 -0.94839,7.90976 1.08571,2.08175 1.49384,6.1799 1.49384,15 l 0,12.13569 7,0 7,0 0.0318,-12 z m -191.5318,-46.66068 c -3.10289,-1.70639 -5.45331,-5.08624 -5.47776,-7.87691 -0.0152,-1.73896 1.55136,-4.08753 4.97776,-7.46241 l 5,-4.92482 0,-9.78759 c 0,-5.38317 -0.38665,-9.78759 -0.85921,-9.78759 -1.84306,0 -9.95276,-8.1147 -10.57085,-10.57736 -0.81345,-3.24105 2.81751,-9.79962 7.89184,-14.25494 3.48706,-3.06168 3.53822,-3.22019 3.53822,-10.96235 l 0,-7.85575 -5.57657,-5.62122 c -6.81508,-6.86964 -6.88346,-8.95413 -0.42343,-12.90667 12.51547,-7.65752 34.99689,-7.51711 46.48832,0.29035 6.11667,4.15577 5.51207,7.57889 -2.4718,13.9949 l -4.01652,3.22777 0,8.77593 c 0,7.93735 0.21255,8.92481 2.22434,10.33392 1.22338,0.85689 3.69838,3.42074 5.5,5.69743 5.50362,6.95492 4.17376,12.1916 -4.64872,18.30559 l -4.07562,2.8244 0,8.84343 0,8.84342 5.5,5.32717 c 6.51445,6.30974 6.86728,8.5467 2.1,13.31398 -4.14125,4.14125 -7.07718,4.32213 -14.4493,0.89023 -2.94211,-1.36963 -7.05993,-2.49023 -9.1507,-2.49023 -2.09077,0 -6.20859,1.1206 -9.1507,2.49023 -5.79202,2.69633 -9.21875,3.07068 -12.3493,1.34909 z m 27.5,-24.23233 c 0,-14.02579 -0.22842,-16.48066 -1.58179,-17 -2.0032,-0.7687 -6.25318,-0.7579 -9.16821,0.0233 -2.21724,0.59419 -2.25,0.84151 -2.25,16.98634 l 0,16.38337 6.5,0 6.5,0 0,-16.39301 z m 3,-24.22899 c 0,-0.81403 -1.65435,-2.17129 -3.67634,-3.01613 -6.01437,-2.51296 -16.51251,0.0869 -15.116,3.74352 0.79674,2.08616 18.79234,1.38961 18.79234,-0.72739 z m 0.74849,-7.12347 c 0.74412,-2.23236 -4.14189,-4.25453 -10.27987,-4.25453 -6.39515,0 -10.18823,1.68189 -9.25866,4.10539 0.66409,1.73137 18.96456,1.87106 19.53853,0.14914 z m -2.74849,-20.49806 c 0,-8.85377 0.40042,-12.63012 1.58138,-14.91383 3.35941,-6.4964 -1.10726,-11.43092 -9.60778,-10.61413 -8.12434,0.78065 -10.79272,4.75986 -7.46744,11.1358 1.07536,2.0619 1.49393,6.12392 1.49414,14.5 l 3.1e-4,11.63569 6.99969,0.0561 6.9997,0.0561 0,-11.85578 z m 51.77514,75.68473 c -6.5028,-3.52894 -6.42342,-8.91401 0.22486,-15.25512 l 5,-4.76899 -0.0611,-9.45855 -0.0611,-9.45854 -4.09965,-3 c -9.59804,-7.02356 -9.84817,-11.37285 -1.16935,-20.33324 l 5.3912,-5.56611 0,-7.58449 0,-7.58448 -5.5,-5.43168 c -6.18469,-6.10787 -6.84465,-8.79714 -2.91701,-11.88662 7.81882,-6.15029 24.81237,-8.70231 37.40245,-5.61695 7.52141,1.84322 15.21961,6.61422 15.8359,9.8144 0.20128,1.04516 -1.84941,3.81057 -5.24543,7.0736 l -5.57591,5.35756 0,8.28238 0,8.28238 4.95361,5.23772 c 8.14161,8.60855 7.96848,13.35155 -0.72402,19.83562 l -5.22959,3.90095 0,8.94552 0,8.94553 5.5,5.20102 c 6.53149,6.17644 6.89032,8.43657 2.1,13.22689 -4.14125,4.14125 -7.07718,4.32213 -14.4493,0.89023 -6.84228,-3.18525 -12.27229,-3.18117 -18.57018,0.014 -5.57893,2.83037 -8.87239,3.07136 -12.80538,0.93701 z m 28.22486,-23.83421 c 0,-14.02579 -0.22842,-16.48066 -1.58179,-17 -2.0032,-0.7687 -6.25318,-0.7579 -9.16821,0.0233 -2.21724,0.59419 -2.25,0.84151 -2.25,16.98634 l 0,16.38337 6.5,0 6.5,0 0,-16.39301 z m 2.7957,-24.42949 c -0.17887,-0.92893 -2.10188,-2.27111 -4.30936,-3.00776 -5.25316,-1.75301 -14.48634,-0.01 -14.48634,2.73531 0,0.96889 0.18548,1.94912 0.41219,2.17828 0.2267,0.22917 4.52841,0.27155 9.55936,0.0942 7.92355,-0.27935 9.10396,-0.5469 8.82415,-2 z m 0.20363,-7.39232 c 9.9e-4,-2.52824 -3.15345,-3.78518 -9.49933,-3.78518 -6.34564,0 -9.49997,1.25681 -9.50006,3.78518 -4e-5,1.49942 1.19319,1.71482 9.49933,1.71482 8.30585,0 9.49947,-0.21545 9.50006,-1.71482 z m -1.99933,-19.85693 c 0,-8.27183 0.45093,-12.76324 1.54409,-15.37953 1.82339,-4.36398 1.2093,-7.00898 -2.1362,-9.20103 -3.14169,-2.05852 -11.61414,-1.376 -14.41802,1.16148 -2.34586,2.12297 -2.58769,6.31818 -0.52167,9.0497 1.09669,1.44996 1.47632,4.97754 1.5003,13.94113 l 0.0321,12 6.9997,0.0561 6.99969,0.0561 0,-11.684 z m 51.52792,73.79967 c -4.90502,-4.90502 -4.58422,-7.09162 1.97208,-13.4419 l 5.5,-5.32717 0,-8.93138 0,-8.93139 -4.4555,-3.06546 c -5.57401,-3.83502 -7.5445,-6.60679 -7.5445,-10.6124 0,-3.2802 4.55913,-10.02027 8.77566,-12.97364 2.01332,-1.41018 2.22434,-2.395 2.22434,-10.38082 l 0,-8.82284 -4.50115,-3.68835 c -7.67206,-6.28668 -8.11427,-9.27766 -1.98717,-13.44051 11.49012,-7.80657 33.96721,-7.94788 46.48832,-0.29228 6.57157,4.01797 6.4879,6.42212 -0.45411,13.04759 l -5.54589,5.293 0,7.95037 c 0,7.85048 0.0444,7.98939 3.53822,11.05696 5.07433,4.45532 8.70529,11.01389 7.89184,14.25494 -0.61809,2.46266 -8.72779,10.57736 -10.57085,10.57736 -0.47257,0 -0.85921,4.40442 -0.85921,9.78759 l 0,9.78759 5,4.92482 c 5.43914,5.35736 6.24933,8.40278 3.22776,12.13296 -4.02655,4.97087 -8.62557,5.51525 -15.80828,1.87123 -6.07415,-3.08162 -11.98191,-3.22139 -17.37368,-0.41105 -2.20868,1.15123 -5.80997,2.3338 -8.00287,2.62793 -3.56524,0.4782 -4.36034,0.16152 -7.51501,-2.99315 z m 29.84708,-8.85292 c 0.34375,-1.71875 0.625,-9.12336 0.625,-16.45469 l 0,-13.32968 -3.5,-0.65661 c -1.925,-0.36113 -5.075,-0.36113 -7,0 l -3.5,0.65661 0,16.45468 0,16.45469 6.375,0 c 6.34,0 6.37843,-0.0172 7,-3.125 z m 3.42218,-37.6975 c -0.95374,-4.97573 -19.79718,-4.7146 -19.79718,0.27435 0,1.95429 0.85091,2.08733 11.03654,1.72565 7.86204,-0.27917 9.03899,-0.54786 8.76064,-2 z m 0.0256,-7.51298 c 0.47918,-2.46249 -4.33075,-3.8983 -11.56998,-3.45373 -6.39379,0.39264 -8.90799,1.6389 -8.01312,3.97199 0.37173,0.9692 2.98288,1.29387 9.88278,1.22883 7.89399,-0.0744 9.42862,-0.35081 9.70032,-1.74709 z m -2.78765,-19.66452 c 0.0251,-8.07978 0.46078,-12.24353 1.46487,-14 2.2592,-3.95206 1.84398,-7.58426 -1.13486,-9.92742 -4.72084,-3.71341 -15.32572,-1.92285 -16.83836,2.84305 -0.33823,1.06566 0.0799,3.60055 0.92913,5.63309 1.09316,2.61629 1.54409,7.1077 1.54409,15.37953 l 0,11.684 6.99969,-0.0561 6.9997,-0.0561 0.0357,-11.5 z M 785.8394,-776.99556 c -4.75183,-4.75183 -3.5291,-9.91262 3.62436,-15.29738 l 4.28836,-3.22806 0.0309,-9.22695 c 0.0302,-9.00056 -0.0365,-9.26873 -2.71908,-10.93009 -1.5125,-0.93673 -4.2125,-3.06038 -6,-4.71922 -5.48792,-5.09291 -4.17446,-11.8455 3.68526,-18.94629 l 4.06476,-3.67224 0,-7.93833 0,-7.93833 -5.5,-5.41288 c -3.31928,-3.26671 -5.5,-6.27463 -5.5,-7.5863 0,-3.41427 7.57172,-7.57467 17.62523,-9.68446 7.43821,-1.56095 9.74019,-1.65312 16.53884,-0.66221 8.04187,1.17212 15.83077,3.99767 19.04939,6.91048 3.25318,2.94409 2.21635,6.20515 -3.72153,11.70504 l -5.50807,5.10178 0.008,7.53759 0.008,7.53759 5.03333,4.95765 c 8.86939,8.73603 8.72206,15.2959 -0.47443,21.12423 l -4.48588,2.84294 -0.036,9.5 -0.036,9.5 4.99951,4.30548 c 4.22188,3.6358 4.99951,4.84832 4.99951,7.79546 0,7.65732 -8.75366,10.8582 -17.5,6.39906 -2.31885,-1.18222 -5.89718,-2 -8.75128,-2 -2.85495,0 -6.43069,0.81743 -8.74872,2 -5.19347,2.64951 -12.33836,2.66164 -14.97456,0.0254 z m 30.97456,-22.41845 c 0,-18.3398 0.31215,-17.60699 -7.5,-17.60699 -7.7901,0 -7.5,-0.65526 -7.5,16.94032 0,8.64949 0.3,16.02635 0.66667,16.39301 0.36666,0.36667 3.74166,0.66667 7.5,0.66667 l 6.83333,0 0,-16.39301 z m 2.73594,-23.31482 c 0.71798,-2.15393 -4.85792,-5.29217 -9.40292,-5.29217 -7.12683,0 -13.43815,3.56154 -10.86721,6.13247 0.99165,0.99166 19.92106,0.20693 20.27013,-0.8403 z m -0.0368,-7.88955 c 0.64527,-1.93582 -3.57827,-4.63467 -8.03997,-5.13757 -7.04972,-0.79461 -14.15443,2.50653 -12.20012,5.66868 0.72701,1.17633 19.8381,0.67485 20.24009,-0.53111 z m -0.66799,-37.17806 c 1.7606,-4.04246 0.77228,-6.00668 -4.2914,-8.5289 -3.01792,-1.50322 -4.29081,-1.62436 -7.62747,-0.72589 -2.20277,0.59314 -4.91655,2.23724 -6.03062,3.65355 -1.8787,2.38839 -1.91884,2.83057 -0.55361,6.09802 1.02596,2.45551 1.47195,7.25999 1.47195,15.85697 l 0,12.33407 7.25,0.29381 7.25,0.29381 0.5523,-13 c 0.33479,-7.88044 1.11408,-14.28991 1.97884,-16.27544 z"
         id="path4375"
         inkscape:connector-curvature="0" />
      <path
         style="fill:#7f7f7f"
         d="m 695.00682,-484.0753 c -15.85318,-2.10383 -29.46023,-8.59043 -41.21302,-19.64661 -12.3478,-11.61592 -19.58513,-24.90558 -21.94622,-40.29909 -0.84191,-5.48897 -1.0609,-50.40204 -0.81672,-167.5 0.37327,-178.99704 -0.32453,-162.82116 7.72602,-179.10065 6.76174,-13.67332 20.8674,-26.89866 35.55708,-33.33801 2.75,-1.20549 8.6,-3.05929 13,-4.11956 7.65965,-1.84575 12.87905,-1.92807 122.68462,-1.93477 124.18148,-0.008 121.17336,-0.12839 134.81248,5.41368 15.76867,6.40739 30.22298,19.90423 37.52047,35.03508 7.9506,16.48501 7.48243,5.07145 7.48243,182.4141 0,168.98749 0.10321,165.23816 -4.89657,177.88387 -7.93143,20.06058 -27.59322,37.2325 -49.81671,43.50819 l -7.78672,2.19889 -113,0.16094 c -62.15,0.0885 -115.83821,-0.21571 -119.30714,-0.67606 z m 235.80566,-5.44539 c 25.51694,-5.36765 46.7928,-25.4491 52.44451,-49.50031 1.33642,-5.68722 1.52926,-26.69942 1.54219,-168.0399 0.0165,-180.05001 0.55983,-166.17926 -7.12453,-181.87343 -3.17433,-6.4831 -5.86778,-10.15389 -11.74006,-16 -11.57367,-11.5221 -23.95292,-17.77051 -39.72268,-20.04998 -9.31766,-1.34683 -222.47825,-1.34683 -231.7959,0 -15.76976,2.27947 -28.14901,8.52788 -39.72268,20.04998 -5.87228,5.84611 -8.56573,9.5169 -11.74006,16 -7.68436,15.69417 -7.141,1.82342 -7.12453,181.87343 0.0129,141.34048 0.20577,162.35268 1.54219,168.0399 5.5634,23.67542 26.79345,43.97281 51.70306,49.4317 9.74921,2.13652 231.60865,2.19949 241.73849,0.0686 z m -226.07544,-44.42339 c -4.45047,-4.45046 -3.91121,-7.26495 2.57692,-13.44954 l 5.5,-5.24268 0,-8.64431 0,-8.64431 -4.4555,-3.06546 c -9.98639,-6.87082 -10.16423,-13.24874 -0.62692,-22.48357 l 4.08242,-3.95295 3.6e-4,-8.04705 3.7e-4,-8.04705 -5.05109,-4.5 c -6.49364,-5.78517 -7.05116,-9.25514 -2.03803,-12.68462 11.26443,-7.70599 34.30362,-8.06761 46.81608,-0.73481 6.24742,3.66123 5.96598,6.77814 -1.22769,13.59651 l -5.5,5.21305 0,7.61687 c 0,7.34612 0.10939,7.69776 3.07721,9.89196 3.57081,2.64002 8.92279,10.64537 8.92279,13.34648 0,3.45686 -2.91853,7.51938 -7.46581,10.39223 l -4.53061,2.86233 -0.002,9.34724 -0.002,9.34724 5,4.49543 c 4.16661,3.74614 5,5.07093 5,7.94821 0,7.60204 -7.69805,10.4969 -16.8592,6.33992 -5.66048,-2.5687 -13.07988,-2.55972 -18.14038,0.022 -5.89228,3.00602 -11.49059,2.66326 -15.07692,-0.92308 z m 30.57692,-22.03592 0,-16.45901 -3.5,-0.73869 c -1.925,-0.40627 -5.1875,-0.29488 -7.25,0.24755 l -3.75,0.98624 0,15.79479 c 0,8.68713 0.31843,16.11322 0.70762,16.50241 0.3892,0.38919 3.6517,0.57669 7.25,0.41667 l 6.54238,-0.29096 0,-16.459 z m 2.75,-21.98752 c 1.97974,-0.14116 0.39769,-3.18431 -2.41034,-4.63639 -6.34073,-3.27893 -20.37106,-0.1733 -17.08926,3.78272 0.9034,1.089 10.38043,1.50389 19.4996,0.85367 z m 0.55804,-9.29522 c 0.98341,-5.10646 -16.91958,-6.43189 -19.98049,-1.47924 -1.4831,2.39971 1.22151,3.23087 10.33788,3.17697 7.82715,-0.0463 9.37712,-0.31918 9.64261,-1.69773 z m -2.77624,-20.15532 c 0.0238,-9.05452 0.40161,-12.59186 1.5,-14.04407 2.24615,-2.96968 1.79164,-6.90639 -1.11236,-9.63456 -5.61343,-5.27353 -17.41944,-1.84489 -17.41944,5.05887 0,1.44901 0.66069,3.50807 1.4682,4.57569 1.09839,1.45221 1.4762,4.98955 1.5,14.04407 l 0.0318,12.10294 7,0 7,0 0.0318,-12.10294 z m 49.89128,73.47398 c -4.52697,-4.52696 -3.9612,-7.49865 2.57692,-13.53511 l 5.5,-5.07799 0,-8.68387 0,-8.68387 -4.4555,-3.06546 c -9.98639,-6.87082 -10.16423,-13.24874 -0.62692,-22.48357 l 4.08242,-3.95295 0,-7.96675 0,-7.96676 -5.58671,-5.19932 c -6.53291,-6.0799 -6.84287,-8.5953 -1.50167,-12.18616 11.40842,-7.66985 34.33328,-8.00995 46.81607,-0.69454 6.19976,3.6333 5.92867,6.61617 -1.22769,13.50866 l -5.5,5.29721 0,7.73868 c 0,7.52273 0.087,7.80067 3.1189,9.95955 3.57186,2.54339 8.8811,10.41107 8.8811,13.16077 0,3.3517 -2.78402,7.20616 -7.40673,10.25456 l -4.5493,3 -0.022,9.34724 -0.022,9.34724 5,4.49543 c 4.16661,3.74614 5,5.07093 5,7.94821 0,7.60204 -7.69805,10.4969 -16.8592,6.33992 -2.39754,-1.08792 -6.51089,-1.97804 -9.14077,-1.97804 -2.62988,0 -6.74323,0.89012 -9.1408,1.97804 -6.50245,2.95056 -11.37863,2.65638 -14.93612,-0.90112 z m 30.57692,-22.03592 0,-16.45901 -3.5,-0.73869 c -1.925,-0.40627 -5.1875,-0.29488 -7.25,0.24755 l -3.75,0.98624 0,15.79479 c 0,8.68713 0.31843,16.11322 0.70762,16.50241 0.3892,0.38919 3.6517,0.57669 7.25,0.41667 l 6.54238,-0.29096 0,-16.459 z m 2.37117,-22.46138 c 1.5621,-0.96543 0.33929,-3.1627 -2.47323,-4.44417 -3.06594,-1.39693 -10.37138,-1.47625 -13.85847,-0.15046 -2.85031,1.08369 -4.42967,3.84645 -2.78166,4.86593 1.33025,0.82292 17.71929,0.59029 19.11336,-0.2713 z m 0.94041,-8.83977 c 0.71828,-3.72972 -9.759,-6.04855 -16.58218,-3.66997 -2.93213,1.02214 -4.73246,3.30714 -3.79754,4.81987 0.24109,0.3901 4.85478,0.65639 10.25264,0.59177 8.20276,-0.0982 9.86566,-0.38419 10.12708,-1.74167 z m -2.77614,-20.15273 c 0.0252,-8.5897 0.44895,-12.8105 1.46456,-14.58712 2.07874,-3.63638 1.81611,-6.3544 -0.8566,-8.86529 -3.2522,-3.05528 -8.54036,-3.75197 -12.87305,-1.69597 -4.66165,2.21209 -5.96727,5.18765 -4.16108,9.4833 0.93238,2.21749 1.39073,7.35167 1.39073,15.57823 l 0,12.27064 7.5,-0.0483 7.5,-0.0483 0.0354,-12.08713 z m 51.41911,73.95833 c -1.65821,-1.6582 -2.45455,-3.57474 -2.45455,-5.90733 0,-2.87728 0.83339,-4.20207 5,-7.94821 l 5,-4.49543 -0.002,-9.34724 -0.002,-9.34724 -4.53061,-2.86233 c -4.54686,-2.87285 -7.46539,-6.93537 -7.46539,-10.39223 0,-2.7497 5.30924,-10.61738 8.8811,-13.16077 3.03175,-2.1588 3.1189,-2.43704 3.1189,-9.9577 l 0,-7.73684 -5.5,-5.21305 c -7.19367,-6.81837 -7.47511,-9.93528 -1.22769,-13.59651 12.48279,-7.31541 35.40765,-6.97531 46.81607,0.69454 5.3412,3.59086 5.03124,6.10626 -1.50167,12.18616 l -5.58671,5.19932 0,7.96676 0,7.96675 4.08242,3.95295 c 9.53731,9.23483 9.35947,15.61275 -0.62692,22.48357 l -4.4555,3.06546 0,8.64431 0,8.64431 5.5,5.24268 c 6.48813,6.18459 7.02739,8.99908 2.57692,13.44954 -3.55749,3.5575 -8.43367,3.85168 -14.93612,0.90112 -5.59469,-2.53865 -12.62264,-2.53003 -17.90466,0.022 -5.84311,2.82308 -11.68357,2.64348 -14.78159,-0.45455 z m 30.04545,-22.48188 0,-16.43643 -3.25,-0.84216 c -1.7875,-0.46319 -4.7125,-0.46362 -6.5,-9.6e-4 l -3.25,0.84119 -0.27439,16.73364 -0.27439,16.73364 6.77439,-0.29624 6.77439,-0.29625 0,-16.43643 z m 3.30499,-23.30674 c 0.7805,-4.0086 -10.9761,-6.45851 -17.25794,-3.59631 -2.2204,1.01168 -3.37445,3.6779 -2.13081,4.92281 0.22894,0.22917 4.61644,0.37689 9.75,0.32828 7.62953,-0.0722 9.38945,-0.3744 9.63875,-1.65478 z m -0.30499,-8.2769 c 0,-2.95942 -4.23329,-4.61095 -10.78029,-4.20571 -5.9608,0.36895 -9.44807,2.38531 -8.48154,4.90407 0.37825,0.9857 2.95619,1.31891 9.88675,1.27794 8.56043,-0.0506 9.37508,-0.22235 9.37508,-1.9763 z m -1.991,-19.34395 c -0.58737,-10.46866 -0.45143,-12.0208 1.35507,-15.47188 2.50106,-4.77799 1.69431,-7.48105 -3.00351,-10.06341 -4.09623,-2.25167 -9.22931,-1.67167 -13.25911,1.49817 -2.89399,2.27642 -3.2489,5.14456 -1.10145,8.90114 1.01561,1.77662 1.43938,5.99742 1.46456,14.58712 l 0.0354,12.08713 7.58093,0.0489 7.58092,0.0489 -0.65285,-11.63597 z m -193.28004,-47.80527 c -1.64072,-0.66014 -4.22896,-5.66696 -4.22896,-8.18071 0,-1.08684 2.43346,-4.17336 5.5,-6.97601 l 5.5,-5.02669 0,-9.0611 0,-9.06111 -3.87543,-2.44645 c -8.61475,-5.43826 -10.26207,-11.32783 -5.14442,-18.39254 1.63909,-2.26269 4.11409,-4.85697 5.5,-5.76505 2.35895,-1.54565 2.51985,-2.18236 2.51985,-9.97178 l 0,-8.32072 -5.5,-5.41288 c -3.025,-2.97709 -5.5,-6.1775 -5.5,-7.11203 0,-2.8419 4.96451,-6.51232 11.56651,-8.55147 13.60633,-4.20257 25.61052,-3.53984 37.18349,2.05283 5.69054,2.74996 6.25,3.30027 6.25,6.14776 0,2.50865 -1.08821,4.13215 -5.5,8.20543 l -5.5,5.07799 0,7.65911 c 0,7.48065 0.0789,7.72487 3.38428,10.48191 4.64859,3.87735 8.61572,10.0408 8.61572,13.38562 0,3.39217 -3.60321,7.87002 -8.42025,10.46417 l -3.57975,1.92782 4.9e-4,9.52259 4.9e-4,9.5226 4.99951,4.30548 c 4.35399,3.74957 4.99951,4.79228 4.99951,8.07569 0,7.6238 -8.62972,10.64116 -17.5,6.11883 -2.23079,-1.13732 -5.89718,-2 -8.5,-2 -2.60282,0 -6.26921,0.86268 -8.5,2 -3.67894,1.87563 -11.17861,2.57494 -14.27104,1.33071 z m 29.77104,-23.72372 c 0,-14.02579 -0.22842,-16.48066 -1.58179,-17 -2.7505,-1.05547 -10.9686,-0.6566 -12.21821,0.59301 -0.83207,0.83207 -1.2,6.04444 -1.2,17 l 0,15.8 7.5,0 7.5,0 0,-16.39301 z m 2.69729,-23.19885 c 0.64691,-1.94075 -3.57109,-4.63959 -8.03813,-5.14309 -6.98854,-0.78771 -14.15591,2.50414 -12.23159,5.61775 0.71195,1.15196 19.87711,0.70316 20.26972,-0.47466 z m 0.002,-8.00552 c 0.19224,-0.57673 -0.60866,-1.91576 -1.77979,-2.97561 -4.31062,-3.90106 -19.9995,-1.40544 -18.34066,2.91744 0.63971,1.66705 19.56591,1.72177 20.12045,0.0582 z m -1.09598,-34.9197 c 3.68738,-5.62765 -0.88542,-11.77 -8.68232,-11.66239 -7.81902,0.10791 -12.16717,6.10217 -8.49349,11.70892 1.20915,1.84564 1.5725,5.17029 1.5725,14.38968 l 0,11.98949 6.75,0.29569 6.75,0.29569 0.28049,-12.33171 c 0.20583,-9.04939 0.69096,-12.95819 1.82266,-14.68537 z m 48.42229,88.54252 c -2.68665,-2.68665 -3.54425,-6.68751 -2.03714,-9.50358 0.68409,-1.27823 3.21657,-3.80219 5.62775,-5.60881 l 4.38379,-3.28476 0,-9.27896 c 0,-8.38653 -0.20086,-9.38646 -2.08847,-10.39668 -1.14866,-0.61474 -3.84866,-2.70794 -6,-4.65155 -3.21927,-2.90841 -3.91153,-4.19459 -3.91153,-7.26742 0,-4.0268 3.67836,-10.06231 8.39236,-13.77035 2.41024,-1.89589 2.60764,-2.63905 2.60764,-9.81684 l 0,-7.76566 -5.5,-5.76618 c -3.025,-3.1714 -5.5,-6.6932 -5.5,-7.82622 0,-2.69888 5.7808,-6.43554 13.5,-8.72628 16.06705,-4.76803 40.34147,0.51866 41.32412,8.99993 0.26689,2.30353 -0.66153,3.71039 -5.25807,7.9677 l -5.58219,5.17022 0.008,7.53759 0.008,7.53759 5.03333,4.95765 c 8.86939,8.73603 8.72206,15.2959 -0.47443,21.12423 l -4.48588,2.84294 -0.036,9.5 -0.036,9.5 4.99951,4.30548 c 4.12504,3.5524 4.99951,4.88438 4.99951,7.61514 0,1.8341 -0.92403,4.48437 -2.07258,5.94452 -1.7176,2.18358 -2.8737,2.6311 -6.75,2.6129 -2.57258,-0.0121 -6.63906,-0.91208 -9.03662,-2 -5.56625,-2.52575 -11.65939,-2.51771 -16.6408,0.022 -5.24424,2.67367 -12.81389,2.68611 -15.47456,0.0254 z m 30.9744,-22.41845 c 0,-18.3398 0.31215,-17.60699 -7.5,-17.60699 -7.81215,0 -7.5,-0.73281 -7.5,17.60699 l 0,16.39301 7.5,0 7.5,0 0,-16.39301 z m 2.69729,-23.19885 c 0.6772,-2.0316 -3.70477,-4.70244 -8.4657,-5.15991 -7.13087,-0.68519 -14.60415,3.04588 -11.77254,5.87748 0.97795,0.97795 19.89666,0.30716 20.23824,-0.71757 z m 0.002,-8.00552 c 0.19224,-0.57673 -0.60988,-1.91576 -1.78249,-2.97561 -3.17856,-2.87292 -14.06943,-2.71867 -17.02929,0.2412 -1.17153,1.17153 -1.86742,2.55501 -1.54642,3.07441 0.80753,1.3066 19.9157,0.98748 20.3582,-0.34 z m -1.0444,-35.0019 c 1.0335,-1.95581 1.39346,-4.07259 0.97563,-5.73735 -1.61987,-6.45408 -12.35469,-8.09289 -17.73942,-2.70816 -2.90865,2.90866 -2.93107,3.01298 -1.42307,6.62212 1.09516,2.62111 1.53213,7.18462 1.53213,16.00098 l 0,12.33407 7.25,0.29381 7.25,0.29381 0.2585,-12 c 0.18929,-8.78771 0.6969,-12.82965 1.89623,-15.09928 z m 49.51958,88.28483 c -1.40821,-1.4988 -2.17447,-3.59375 -2.17447,-5.94452 0,-3.11525 0.70904,-4.24068 4.99951,-7.93555 l 4.99951,-4.30548 4.9e-4,-9.5226 4.9e-4,-9.52259 -3.57975,-1.92782 c -10.76396,-5.79678 -10.94864,-13.17204 -0.57597,-23.00115 l 4.15572,-3.93795 0,-7.52585 0,-7.52586 -5.57783,-5.14985 c -4.62572,-4.2708 -5.52187,-5.63394 -5.25,-7.98579 1.02824,-8.89493 25.53428,-13.89204 42.40682,-8.64732 7.33314,2.27946 12.42101,5.90475 12.42101,8.85042 0,0.93453 -2.475,4.13494 -5.5,7.11203 l -5.5,5.41288 0,8.04181 c 0,7.47537 0.18367,8.18627 2.60764,10.09297 4.43192,3.48615 8.39236,9.76726 8.39236,13.30998 0,3.77437 -3.31958,8.22501 -8.54222,11.45279 l -3.45778,2.13702 0,8.99209 0,8.99209 5.5,5.02669 c 3.06654,2.80265 5.5,5.88917 5.5,6.97601 0,2.7462 -2.62016,7.49027 -4.5448,8.22882 -3.21843,1.23502 -9.61688,0.57934 -13.4552,-1.37882 -2.23101,-1.13817 -5.89377,-2 -8.5,-2 -2.60623,0 -6.26899,0.86183 -8.5,2 -5.5937,2.85369 -12.98738,2.70678 -15.82569,-0.31445 z m 30.59971,-22.43555 -0.27418,-16.75 -4.41979,-0.31579 c -2.43088,-0.17369 -5.46838,-0.0526 -6.75,0.26905 -2.32236,0.58287 -2.33021,0.64033 -2.33021,17.06579 l 0,16.48095 7.02418,0 7.02418,0 -0.27418,-16.75 z m 3.0358,-23.50181 c 0.19434,-1.00913 -0.91738,-2.26949 -2.91136,-3.30062 -6.14417,-3.17727 -18.25321,-0.41997 -16.63823,3.78862 0.40827,1.06392 2.73406,1.36225 9.88454,1.2679 7.79171,-0.10282 9.40307,-0.39556 9.66505,-1.7559 z m 0.006,-8.03194 c 0.40115,-2.08221 -5.0812,-4.71625 -9.81598,-4.71625 -6.03114,0 -11.85858,3.80808 -9.475,6.19167 0.28875,0.28875 4.67138,0.46955 9.73917,0.40178 7.93029,-0.10604 9.26124,-0.3676 9.55196,-1.8772 z m -2.33695,-19.20944 c -0.57942,-9.27334 -0.43708,-11.92908 0.73699,-13.75 2.81613,-4.3677 2.80178,-6.70517 -0.0608,-9.90899 -2.28418,-2.55645 -3.41964,-3.01449 -7.47273,-3.01449 -8.41183,0 -12.46578,4.81771 -9.26398,11.00931 1.18516,2.29183 1.58138,6.07717 1.58138,15.1077 l 1.1e-4,12.04966 7.59865,0 7.59865,0 -0.71812,-11.49319 z M 785.8394,-776.99556 c -4.75183,-4.75183 -3.5291,-9.91262 3.62436,-15.29738 l 4.28836,-3.22806 0.0309,-9.22695 c 0.0302,-9.00056 -0.0365,-9.26873 -2.71908,-10.93009 -1.5125,-0.93673 -4.2125,-3.06038 -6,-4.71922 -5.48792,-5.09291 -4.17446,-11.8455 3.68526,-18.94629 l 4.06476,-3.67224 0,-7.93833 0,-7.93833 -5.5,-5.41288 c -3.31928,-3.26671 -5.5,-6.27463 -5.5,-7.5863 0,-3.41427 7.57172,-7.57467 17.62523,-9.68446 7.43821,-1.56095 9.74019,-1.65312 16.53884,-0.66221 8.04187,1.17212 15.83077,3.99767 19.04939,6.91048 3.25318,2.94409 2.21635,6.20515 -3.72153,11.70504 l -5.50807,5.10178 0.008,7.53759 0.008,7.53759 5.03333,4.95765 c 8.86939,8.73603 8.72206,15.2959 -0.47443,21.12423 l -4.48588,2.84294 -0.036,9.5 -0.036,9.5 4.99951,4.30548 c 4.22188,3.6358 4.99951,4.84832 4.99951,7.79546 0,7.65732 -8.75366,10.8582 -17.5,6.39906 -2.31885,-1.18222 -5.89718,-2 -8.75128,-2 -2.85495,0 -6.43069,0.81743 -8.74872,2 -5.19347,2.64951 -12.33836,2.66164 -14.97456,0.0254 z m 30.97456,-22.41845 c 0,-18.3398 0.31215,-17.60699 -7.5,-17.60699 -7.7901,0 -7.5,-0.65526 -7.5,16.94032 0,8.64949 0.3,16.02635 0.66667,16.39301 0.36666,0.36667 3.74166,0.66667 7.5,0.66667 l 6.83333,0 0,-16.39301 z m 2.73594,-23.31482 c 0.71798,-2.15393 -4.85792,-5.29217 -9.40292,-5.29217 -7.12683,0 -13.43815,3.56154 -10.86721,6.13247 0.99165,0.99166 19.92106,0.20693 20.27013,-0.8403 z m -0.0368,-7.88955 c 0.64527,-1.93582 -3.57827,-4.63467 -8.03997,-5.13757 -7.04972,-0.79461 -14.15443,2.50653 -12.20012,5.66868 0.72701,1.17633 19.8381,0.67485 20.24009,-0.53111 z m -0.66799,-37.17806 c 1.7606,-4.04246 0.77228,-6.00668 -4.2914,-8.5289 -3.01792,-1.50322 -4.29081,-1.62436 -7.62747,-0.72589 -2.20277,0.59314 -4.91655,2.23724 -6.03062,3.65355 -1.8787,2.38839 -1.91884,2.83057 -0.55361,6.09802 1.02596,2.45551 1.47195,7.25999 1.47195,15.85697 l 0,12.33407 7.25,0.29381 7.25,0.29381 0.5523,-13 c 0.33479,-7.88044 1.11408,-14.28991 1.97884,-16.27544 z"
         id="path4373"
         inkscape:connector-curvature="0" />
      <path
         style="fill:#ba1a21"
         d="m 688.81396,-485.58075 c -15.68916,-3.38103 -28.31405,-10.55823 -39.11148,-22.23474 -7.82438,-8.46139 -13.19992,-18.19319 -15.91652,-28.81499 -1.92295,-7.51866 -1.972,-11.75299 -1.972,-170.23659 0,-180.33676 -0.44241,-168.17383 6.64787,-182.76817 6.80381,-14.00468 18.28261,-25.33107 32.85213,-32.41593 16.31591,-7.9341 7.67665,-7.46983 139,-7.46983 131.32335,0 122.68409,-0.46427 139,7.46983 14.54353,7.07222 26.31178,18.67086 33.02123,32.54534 6.84887,14.16274 6.44765,2.83033 6.46399,182.57487 0.0144,158.57287 -0.0339,162.78054 -1.95722,170.30048 -5.19665,20.31869 -21.63851,38.90262 -41.59173,47.01034 -14.07812,5.72045 -11.26929,5.60615 -135.64411,5.51964 -94.00748,-0.0654 -115.44579,-0.32811 -120.79216,-1.48025 z m 244,-3.77867 c 20.25719,-5.43683 37.10353,-19.02151 46.08401,-37.16158 7.33456,-14.8154 6.98349,-5.15054 6.68395,-184.00659 l -0.26796,-159.99341 -2.75576,-8.13052 c -7.58983,-22.39281 -28.52423,-41.13341 -51.24424,-45.87414 -10.44687,-2.17983 -231.55313,-2.17983 -242,0 -22.72001,4.74073 -43.65441,23.48133 -51.24424,45.87414 l -2.75576,8.13052 -0.27871,160 c -0.31244,179.35838 -0.72515,168.43834 6.97296,184.5 3.35826,7.0068 5.67533,10.1014 13.18984,17.61591 7.52995,7.52995 10.59472,9.82244 17.61591,13.17692 9.33741,4.4611 14.17295,5.94442 23.38806,7.17438 3.36156,0.44868 56.51194,0.73098 118.11194,0.62734 103.02002,-0.17333 112.52116,-0.32831 118.5,-1.93297 z m -228.07692,-44.58466 c -4.45047,-4.45046 -3.91121,-7.26495 2.57692,-13.44954 l 5.5,-5.24268 0,-8.64431 0,-8.64431 -4.4555,-3.06546 c -9.98639,-6.87082 -10.16423,-13.24874 -0.62692,-22.48357 l 4.08242,-3.95295 3.6e-4,-8.04705 3.7e-4,-8.04705 -5.05109,-4.5 c -6.49364,-5.78517 -7.05116,-9.25514 -2.03803,-12.68462 11.26443,-7.70599 34.30362,-8.06761 46.81608,-0.73481 6.24742,3.66123 5.96598,6.77814 -1.22769,13.59651 l -5.5,5.21305 0,7.61687 c 0,7.34612 0.10939,7.69776 3.07721,9.89196 3.57081,2.64002 8.92279,10.64537 8.92279,13.34648 0,3.45686 -2.91853,7.51938 -7.46581,10.39223 l -4.53061,2.86233 -0.002,9.34724 -0.002,9.34724 5,4.49543 c 4.16661,3.74614 5,5.07093 5,7.94821 0,7.60204 -7.69805,10.4969 -16.8592,6.33992 -5.66048,-2.5687 -13.07988,-2.55972 -18.14038,0.022 -5.89228,3.00602 -11.49059,2.66326 -15.07692,-0.92308 z m 30.57692,-22.03592 0,-16.45901 -3.5,-0.73869 c -1.925,-0.40627 -5.1875,-0.29488 -7.25,0.24755 l -3.75,0.98624 0,15.79479 c 0,8.68713 0.31843,16.11322 0.70762,16.50241 0.3892,0.38919 3.6517,0.57669 7.25,0.41667 l 6.54238,-0.29096 0,-16.459 z m 2.75,-21.98752 c 1.97974,-0.14116 0.39769,-3.18431 -2.41034,-4.63639 -6.34073,-3.27893 -20.37106,-0.1733 -17.08926,3.78272 0.9034,1.089 10.38043,1.50389 19.4996,0.85367 z m 0.55804,-9.29522 c 0.98341,-5.10646 -16.91958,-6.43189 -19.98049,-1.47924 -1.4831,2.39971 1.22151,3.23087 10.33788,3.17697 7.82715,-0.0463 9.37712,-0.31918 9.64261,-1.69773 z m -2.77624,-20.15532 c 0.0238,-9.05452 0.40161,-12.59186 1.5,-14.04407 2.24615,-2.96968 1.79164,-6.90639 -1.11236,-9.63456 -5.61343,-5.27353 -17.41944,-1.84489 -17.41944,5.05887 0,1.44901 0.66069,3.50807 1.4682,4.57569 1.09839,1.45221 1.4762,4.98955 1.5,14.04407 l 0.0318,12.10294 7,0 7,0 0.0318,-12.10294 z m 49.89128,73.47398 c -4.52697,-4.52696 -3.9612,-7.49865 2.57692,-13.53511 l 5.5,-5.07799 0,-8.68387 0,-8.68387 -4.4555,-3.06546 c -9.98639,-6.87082 -10.16423,-13.24874 -0.62692,-22.48357 l 4.08242,-3.95295 0,-7.96675 0,-7.96676 -5.58671,-5.19932 c -6.53291,-6.0799 -6.84287,-8.5953 -1.50167,-12.18616 11.40842,-7.66985 34.33328,-8.00995 46.81607,-0.69454 6.19976,3.6333 5.92867,6.61617 -1.22769,13.50866 l -5.5,5.29721 0,7.73868 c 0,7.52273 0.087,7.80067 3.1189,9.95955 3.57186,2.54339 8.8811,10.41107 8.8811,13.16077 0,3.3517 -2.78402,7.20616 -7.40673,10.25456 l -4.5493,3 -0.022,9.34724 -0.022,9.34724 5,4.49543 c 4.16661,3.74614 5,5.07093 5,7.94821 0,7.60204 -7.69805,10.4969 -16.8592,6.33992 -2.39754,-1.08792 -6.51089,-1.97804 -9.14077,-1.97804 -2.62988,0 -6.74323,0.89012 -9.1408,1.97804 -6.50245,2.95056 -11.37863,2.65638 -14.93612,-0.90112 z m 30.57692,-22.03592 0,-16.45901 -3.5,-0.73869 c -1.925,-0.40627 -5.1875,-0.29488 -7.25,0.24755 l -3.75,0.98624 0,15.79479 c 0,8.68713 0.31843,16.11322 0.70762,16.50241 0.3892,0.38919 3.6517,0.57669 7.25,0.41667 l 6.54238,-0.29096 0,-16.459 z m 2.37117,-22.46138 c 1.5621,-0.96543 0.33929,-3.1627 -2.47323,-4.44417 -3.06594,-1.39693 -10.37138,-1.47625 -13.85847,-0.15046 -2.85031,1.08369 -4.42967,3.84645 -2.78166,4.86593 1.33025,0.82292 17.71929,0.59029 19.11336,-0.2713 z m 0.94041,-8.83977 c 0.71828,-3.72972 -9.759,-6.04855 -16.58218,-3.66997 -2.93213,1.02214 -4.73246,3.30714 -3.79754,4.81987 0.24109,0.3901 4.85478,0.65639 10.25264,0.59177 8.20276,-0.0982 9.86566,-0.38419 10.12708,-1.74167 z m -2.77614,-20.15273 c 0.0252,-8.5897 0.44895,-12.8105 1.46456,-14.58712 2.07874,-3.63638 1.81611,-6.3544 -0.8566,-8.86529 -3.2522,-3.05528 -8.54036,-3.75197 -12.87305,-1.69597 -4.66165,2.21209 -5.96727,5.18765 -4.16108,9.4833 0.93238,2.21749 1.39073,7.35167 1.39073,15.57823 l 0,12.27064 7.5,-0.0483 7.5,-0.0483 0.0354,-12.08713 z m 51.41911,73.95833 c -1.65821,-1.6582 -2.45455,-3.57474 -2.45455,-5.90733 0,-2.87728 0.83339,-4.20207 5,-7.94821 l 5,-4.49543 -0.002,-9.34724 -0.002,-9.34724 -4.53061,-2.86233 c -4.54686,-2.87285 -7.46539,-6.93537 -7.46539,-10.39223 0,-2.7497 5.30924,-10.61738 8.8811,-13.16077 3.03175,-2.1588 3.1189,-2.43704 3.1189,-9.9577 l 0,-7.73684 -5.5,-5.21305 c -7.19367,-6.81837 -7.47511,-9.93528 -1.22769,-13.59651 12.48279,-7.31541 35.40765,-6.97531 46.81607,0.69454 5.3412,3.59086 5.03124,6.10626 -1.50167,12.18616 l -5.58671,5.19932 0,7.96676 0,7.96675 4.08242,3.95295 c 9.53731,9.23483 9.35947,15.61275 -0.62692,22.48357 l -4.4555,3.06546 0,8.64431 0,8.64431 5.5,5.24268 c 6.48813,6.18459 7.02739,8.99908 2.57692,13.44954 -3.55749,3.5575 -8.43367,3.85168 -14.93612,0.90112 -5.59469,-2.53865 -12.62264,-2.53003 -17.90466,0.022 -5.84311,2.82308 -11.68357,2.64348 -14.78159,-0.45455 z m 30.04545,-22.48188 0,-16.43643 -3.25,-0.84216 c -1.7875,-0.46319 -4.7125,-0.46362 -6.5,-9.6e-4 l -3.25,0.84119 -0.27439,16.73364 -0.27439,16.73364 6.77439,-0.29624 6.77439,-0.29625 0,-16.43643 z m 3.30499,-23.30674 c 0.7805,-4.0086 -10.9761,-6.45851 -17.25794,-3.59631 -2.2204,1.01168 -3.37445,3.6779 -2.13081,4.92281 0.22894,0.22917 4.61644,0.37689 9.75,0.32828 7.62953,-0.0722 9.38945,-0.3744 9.63875,-1.65478 z m -0.30499,-8.2769 c 0,-2.95942 -4.23329,-4.61095 -10.78029,-4.20571 -5.9608,0.36895 -9.44807,2.38531 -8.48154,4.90407 0.37825,0.9857 2.95619,1.31891 9.88675,1.27794 8.56043,-0.0506 9.37508,-0.22235 9.37508,-1.9763 z m -1.991,-19.34395 c -0.58737,-10.46866 -0.45143,-12.0208 1.35507,-15.47188 2.50106,-4.77799 1.69431,-7.48105 -3.00351,-10.06341 -4.09623,-2.25167 -9.22931,-1.67167 -13.25911,1.49817 -2.89399,2.27642 -3.2489,5.14456 -1.10145,8.90114 1.01561,1.77662 1.43938,5.99742 1.46456,14.58712 l 0.0354,12.08713 7.58093,0.0489 7.58092,0.0489 -0.65285,-11.63597 z m -193.28004,-47.80527 c -1.64072,-0.66014 -4.22896,-5.66696 -4.22896,-8.18071 0,-1.08684 2.43346,-4.17336 5.5,-6.97601 l 5.5,-5.02669 0,-9.0611 0,-9.06111 -3.87543,-2.44645 c -8.61475,-5.43826 -10.26207,-11.32783 -5.14442,-18.39254 1.63909,-2.26269 4.11409,-4.85697 5.5,-5.76505 2.35895,-1.54565 2.51985,-2.18236 2.51985,-9.97178 l 0,-8.32072 -5.5,-5.41288 c -3.025,-2.97709 -5.5,-6.1775 -5.5,-7.11203 0,-2.8419 4.96451,-6.51232 11.56651,-8.55147 13.60633,-4.20257 25.61052,-3.53984 37.18349,2.05283 5.69054,2.74996 6.25,3.30027 6.25,6.14776 0,2.50865 -1.08821,4.13215 -5.5,8.20543 l -5.5,5.07799 0,7.65911 c 0,7.48065 0.0789,7.72487 3.38428,10.48191 4.64859,3.87735 8.61572,10.0408 8.61572,13.38562 0,3.39217 -3.60321,7.87002 -8.42025,10.46417 l -3.57975,1.92782 4.9e-4,9.52259 4.9e-4,9.5226 4.99951,4.30548 c 4.35399,3.74957 4.99951,4.79228 4.99951,8.07569 0,7.6238 -8.62972,10.64116 -17.5,6.11883 -2.23079,-1.13732 -5.89718,-2 -8.5,-2 -2.60282,0 -6.26921,0.86268 -8.5,2 -3.67894,1.87563 -11.17861,2.57494 -14.27104,1.33071 z m 29.77104,-23.72372 c 0,-14.02579 -0.22842,-16.48066 -1.58179,-17 -2.7505,-1.05547 -10.9686,-0.6566 -12.21821,0.59301 -0.83207,0.83207 -1.2,6.04444 -1.2,17 l 0,15.8 7.5,0 7.5,0 0,-16.39301 z m 2.69729,-23.19885 c 0.64691,-1.94075 -3.57109,-4.63959 -8.03813,-5.14309 -6.98854,-0.78771 -14.15591,2.50414 -12.23159,5.61775 0.71195,1.15196 19.87711,0.70316 20.26972,-0.47466 z m 0.002,-8.00552 c 0.19224,-0.57673 -0.60866,-1.91576 -1.77979,-2.97561 -4.31062,-3.90106 -19.9995,-1.40544 -18.34066,2.91744 0.63971,1.66705 19.56591,1.72177 20.12045,0.0582 z m -1.09598,-34.9197 c 3.68738,-5.62765 -0.88542,-11.77 -8.68232,-11.66239 -7.81902,0.10791 -12.16717,6.10217 -8.49349,11.70892 1.20915,1.84564 1.5725,5.17029 1.5725,14.38968 l 0,11.98949 6.75,0.29569 6.75,0.29569 0.28049,-12.33171 c 0.20583,-9.04939 0.69096,-12.95819 1.82266,-14.68537 z m 48.42229,88.54252 c -2.68665,-2.68665 -3.54425,-6.68751 -2.03714,-9.50358 0.68409,-1.27823 3.21657,-3.80219 5.62775,-5.60881 l 4.38379,-3.28476 0,-9.27896 c 0,-8.38653 -0.20086,-9.38646 -2.08847,-10.39668 -1.14866,-0.61474 -3.84866,-2.70794 -6,-4.65155 -3.21927,-2.90841 -3.91153,-4.19459 -3.91153,-7.26742 0,-4.0268 3.67836,-10.06231 8.39236,-13.77035 2.41024,-1.89589 2.60764,-2.63905 2.60764,-9.81684 l 0,-7.76566 -5.5,-5.76618 c -3.025,-3.1714 -5.5,-6.6932 -5.5,-7.82622 0,-2.69888 5.7808,-6.43554 13.5,-8.72628 16.06705,-4.76803 40.34147,0.51866 41.32412,8.99993 0.26689,2.30353 -0.66153,3.71039 -5.25807,7.9677 l -5.58219,5.17022 0.008,7.53759 0.008,7.53759 5.03333,4.95765 c 8.86939,8.73603 8.72206,15.2959 -0.47443,21.12423 l -4.48588,2.84294 -0.036,9.5 -0.036,9.5 4.99951,4.30548 c 4.12504,3.5524 4.99951,4.88438 4.99951,7.61514 0,1.8341 -0.92403,4.48437 -2.07258,5.94452 -1.7176,2.18358 -2.8737,2.6311 -6.75,2.6129 -2.57258,-0.0121 -6.63906,-0.91208 -9.03662,-2 -5.56625,-2.52575 -11.65939,-2.51771 -16.6408,0.022 -5.24424,2.67367 -12.81389,2.68611 -15.47456,0.0254 z m 30.9744,-22.41845 c 0,-18.3398 0.31215,-17.60699 -7.5,-17.60699 -7.81215,0 -7.5,-0.73281 -7.5,17.60699 l 0,16.39301 7.5,0 7.5,0 0,-16.39301 z m 2.69729,-23.19885 c 0.6772,-2.0316 -3.70477,-4.70244 -8.4657,-5.15991 -7.13087,-0.68519 -14.60415,3.04588 -11.77254,5.87748 0.97795,0.97795 19.89666,0.30716 20.23824,-0.71757 z m 0.002,-8.00552 c 0.19224,-0.57673 -0.60988,-1.91576 -1.78249,-2.97561 -3.17856,-2.87292 -14.06943,-2.71867 -17.02929,0.2412 -1.17153,1.17153 -1.86742,2.55501 -1.54642,3.07441 0.80753,1.3066 19.9157,0.98748 20.3582,-0.34 z m -1.0444,-35.0019 c 1.0335,-1.95581 1.39346,-4.07259 0.97563,-5.73735 -1.61987,-6.45408 -12.35469,-8.09289 -17.73942,-2.70816 -2.90865,2.90866 -2.93107,3.01298 -1.42307,6.62212 1.09516,2.62111 1.53213,7.18462 1.53213,16.00098 l 0,12.33407 7.25,0.29381 7.25,0.29381 0.2585,-12 c 0.18929,-8.78771 0.6969,-12.82965 1.89623,-15.09928 z m 49.51958,88.28483 c -1.40821,-1.4988 -2.17447,-3.59375 -2.17447,-5.94452 0,-3.11525 0.70904,-4.24068 4.99951,-7.93555 l 4.99951,-4.30548 4.9e-4,-9.5226 4.9e-4,-9.52259 -3.57975,-1.92782 c -10.76396,-5.79678 -10.94864,-13.17204 -0.57597,-23.00115 l 4.15572,-3.93795 0,-7.52585 0,-7.52586 -5.57783,-5.14985 c -4.62572,-4.2708 -5.52187,-5.63394 -5.25,-7.98579 1.02824,-8.89493 25.53428,-13.89204 42.40682,-8.64732 7.33314,2.27946 12.42101,5.90475 12.42101,8.85042 0,0.93453 -2.475,4.13494 -5.5,7.11203 l -5.5,5.41288 0,8.04181 c 0,7.47537 0.18367,8.18627 2.60764,10.09297 4.43192,3.48615 8.39236,9.76726 8.39236,13.30998 0,3.77437 -3.31958,8.22501 -8.54222,11.45279 l -3.45778,2.13702 0,8.99209 0,8.99209 5.5,5.02669 c 3.06654,2.80265 5.5,5.88917 5.5,6.97601 0,2.7462 -2.62016,7.49027 -4.5448,8.22882 -3.21843,1.23502 -9.61688,0.57934 -13.4552,-1.37882 -2.23101,-1.13817 -5.89377,-2 -8.5,-2 -2.60623,0 -6.26899,0.86183 -8.5,2 -5.5937,2.85369 -12.98738,2.70678 -15.82569,-0.31445 z m 30.59971,-22.43555 -0.27418,-16.75 -4.41979,-0.31579 c -2.43088,-0.17369 -5.46838,-0.0526 -6.75,0.26905 -2.32236,0.58287 -2.33021,0.64033 -2.33021,17.06579 l 0,16.48095 7.02418,0 7.02418,0 -0.27418,-16.75 z m 3.0358,-23.50181 c 0.19434,-1.00913 -0.91738,-2.26949 -2.91136,-3.30062 -6.14417,-3.17727 -18.25321,-0.41997 -16.63823,3.78862 0.40827,1.06392 2.73406,1.36225 9.88454,1.2679 7.79171,-0.10282 9.40307,-0.39556 9.66505,-1.7559 z m 0.006,-8.03194 c 0.40115,-2.08221 -5.0812,-4.71625 -9.81598,-4.71625 -6.03114,0 -11.85858,3.80808 -9.475,6.19167 0.28875,0.28875 4.67138,0.46955 9.73917,0.40178 7.93029,-0.10604 9.26124,-0.3676 9.55196,-1.8772 z m -2.33695,-19.20944 c -0.57942,-9.27334 -0.43708,-11.92908 0.73699,-13.75 2.81613,-4.3677 2.80178,-6.70517 -0.0608,-9.90899 -2.28418,-2.55645 -3.41964,-3.01449 -7.47273,-3.01449 -8.41183,0 -12.46578,4.81771 -9.26398,11.00931 1.18516,2.29183 1.58138,6.07717 1.58138,15.1077 l 1.1e-4,12.04966 7.59865,0 7.59865,0 -0.71812,-11.49319 z M 785.8394,-776.99556 c -4.75183,-4.75183 -3.5291,-9.91262 3.62436,-15.29738 l 4.28836,-3.22806 0.0309,-9.22695 c 0.0302,-9.00056 -0.0365,-9.26873 -2.71908,-10.93009 -1.5125,-0.93673 -4.2125,-3.06038 -6,-4.71922 -5.48792,-5.09291 -4.17446,-11.8455 3.68526,-18.94629 l 4.06476,-3.67224 0,-7.93833 0,-7.93833 -5.5,-5.41288 c -3.31928,-3.26671 -5.5,-6.27463 -5.5,-7.5863 0,-3.41427 7.57172,-7.57467 17.62523,-9.68446 7.43821,-1.56095 9.74019,-1.65312 16.53884,-0.66221 8.04187,1.17212 15.83077,3.99767 19.04939,6.91048 3.25318,2.94409 2.21635,6.20515 -3.72153,11.70504 l -5.50807,5.10178 0.008,7.53759 0.008,7.53759 5.03333,4.95765 c 8.86939,8.73603 8.72206,15.2959 -0.47443,21.12423 l -4.48588,2.84294 -0.036,9.5 -0.036,9.5 4.99951,4.30548 c 4.22188,3.6358 4.99951,4.84832 4.99951,7.79546 0,7.65732 -8.75366,10.8582 -17.5,6.39906 -2.31885,-1.18222 -5.89718,-2 -8.75128,-2 -2.85495,0 -6.43069,0.81743 -8.74872,2 -5.19347,2.64951 -12.33836,2.66164 -14.97456,0.0254 z m 30.97456,-22.41845 c 0,-18.3398 0.31215,-17.60699 -7.5,-17.60699 -7.7901,0 -7.5,-0.65526 -7.5,16.94032 0,8.64949 0.3,16.02635 0.66667,16.39301 0.36666,0.36667 3.74166,0.66667 7.5,0.66667 l 6.83333,0 0,-16.39301 z m 2.73594,-23.31482 c 0.71798,-2.15393 -4.85792,-5.29217 -9.40292,-5.29217 -7.12683,0 -13.43815,3.56154 -10.86721,6.13247 0.99165,0.99166 19.92106,0.20693 20.27013,-0.8403 z m -0.0368,-7.88955 c 0.64527,-1.93582 -3.57827,-4.63467 -8.03997,-5.13757 -7.04972,-0.79461 -14.15443,2.50653 -12.20012,5.66868 0.72701,1.17633 19.8381,0.67485 20.24009,-0.53111 z m -0.66799,-37.17806 c 1.7606,-4.04246 0.77228,-6.00668 -4.2914,-8.5289 -3.01792,-1.50322 -4.29081,-1.62436 -7.62747,-0.72589 -2.20277,0.59314 -4.91655,2.23724 -6.03062,3.65355 -1.8787,2.38839 -1.91884,2.83057 -0.55361,6.09802 1.02596,2.45551 1.47195,7.25999 1.47195,15.85697 l 0,12.33407 7.25,0.29381 7.25,0.29381 0.5523,-13 c 0.33479,-7.88044 1.11408,-14.28991 1.97884,-16.27544 z"
         id="path4371"
         inkscape:connector-curvature="0" />
      <path
         style="fill:#485346"
         d="m 688.81396,-485.58075 c -15.68916,-3.38103 -28.31405,-10.55823 -39.11148,-22.23474 -7.82438,-8.46139 -13.19992,-18.19319 -15.91652,-28.81499 -1.92295,-7.51866 -1.972,-11.75299 -1.972,-170.23659 0,-180.33676 -0.44241,-168.17383 6.64787,-182.76817 6.80381,-14.00468 18.28261,-25.33107 32.85213,-32.41593 16.31591,-7.9341 7.67665,-7.46983 139,-7.46983 131.32335,0 122.68409,-0.46427 139,7.46983 14.54353,7.07222 26.31178,18.67086 33.02123,32.54534 6.84887,14.16274 6.44765,2.83033 6.46399,182.57487 0.0144,158.57287 -0.0339,162.78054 -1.95722,170.30048 -5.19665,20.31869 -21.63851,38.90262 -41.59173,47.01034 -14.07812,5.72045 -11.26929,5.60615 -135.64411,5.51964 -94.00748,-0.0654 -115.44579,-0.32811 -120.79216,-1.48025 z m 244,-3.77867 c 20.25719,-5.43683 37.10353,-19.02151 46.08401,-37.16158 7.33456,-14.8154 6.98349,-5.15054 6.68395,-184.00659 l -0.26796,-159.99341 -2.75576,-8.13052 c -7.58983,-22.39281 -28.52423,-41.13341 -51.24424,-45.87414 -10.44687,-2.17983 -231.55313,-2.17983 -242,0 -22.72001,4.74073 -43.65441,23.48133 -51.24424,45.87414 l -2.75576,8.13052 -0.27871,160 c -0.31244,179.35838 -0.72515,168.43834 6.97296,184.5 3.35826,7.0068 5.67533,10.1014 13.18984,17.61591 7.52995,7.52995 10.59472,9.82244 17.61591,13.17692 9.33741,4.4611 14.17295,5.94442 23.38806,7.17438 3.36156,0.44868 56.51194,0.73098 118.11194,0.62734 103.02002,-0.17333 112.52116,-0.32831 118.5,-1.93297 z m -228.07692,-44.58466 c -4.45047,-4.45046 -3.91121,-7.26495 2.57692,-13.44954 l 5.5,-5.24268 0,-8.64431 0,-8.64431 -4.4555,-3.06546 c -9.98639,-6.87082 -10.16423,-13.24874 -0.62692,-22.48357 l 4.08242,-3.95295 3.6e-4,-8.04705 3.7e-4,-8.04705 -5.05109,-4.5 c -6.49364,-5.78517 -7.05116,-9.25514 -2.03803,-12.68462 11.26443,-7.70599 34.30362,-8.06761 46.81608,-0.73481 6.24742,3.66123 5.96598,6.77814 -1.22769,13.59651 l -5.5,5.21305 0,7.61687 c 0,7.34612 0.10939,7.69776 3.07721,9.89196 3.57081,2.64002 8.92279,10.64537 8.92279,13.34648 0,3.45686 -2.91853,7.51938 -7.46581,10.39223 l -4.53061,2.86233 -0.002,9.34724 -0.002,9.34724 5,4.49543 c 4.16661,3.74614 5,5.07093 5,7.94821 0,7.60204 -7.69805,10.4969 -16.8592,6.33992 -5.66048,-2.5687 -13.07988,-2.55972 -18.14038,0.022 -5.89228,3.00602 -11.49059,2.66326 -15.07692,-0.92308 z m 30.57692,-22.03592 0,-16.45901 -3.5,-0.73869 c -1.925,-0.40627 -5.1875,-0.29488 -7.25,0.24755 l -3.75,0.98624 0,15.79479 c 0,8.68713 0.31843,16.11322 0.70762,16.50241 0.3892,0.38919 3.6517,0.57669 7.25,0.41667 l 6.54238,-0.29096 0,-16.459 z m 2.75,-21.98752 c 1.97974,-0.14116 0.39769,-3.18431 -2.41034,-4.63639 -6.34073,-3.27893 -20.37106,-0.1733 -17.08926,3.78272 0.9034,1.089 10.38043,1.50389 19.4996,0.85367 z m 0.55804,-9.29522 c 0.98341,-5.10646 -16.91958,-6.43189 -19.98049,-1.47924 -1.4831,2.39971 1.22151,3.23087 10.33788,3.17697 7.82715,-0.0463 9.37712,-0.31918 9.64261,-1.69773 z m -2.77624,-20.15532 c 0.0238,-9.05452 0.40161,-12.59186 1.5,-14.04407 2.24615,-2.96968 1.79164,-6.90639 -1.11236,-9.63456 -5.61343,-5.27353 -17.41944,-1.84489 -17.41944,5.05887 0,1.44901 0.66069,3.50807 1.4682,4.57569 1.09839,1.45221 1.4762,4.98955 1.5,14.04407 l 0.0318,12.10294 7,0 7,0 0.0318,-12.10294 z m 49.89128,73.47398 c -4.52697,-4.52696 -3.9612,-7.49865 2.57692,-13.53511 l 5.5,-5.07799 0,-8.68387 0,-8.68387 -4.4555,-3.06546 c -9.98639,-6.87082 -10.16423,-13.24874 -0.62692,-22.48357 l 4.08242,-3.95295 0,-7.96675 0,-7.96676 -5.58671,-5.19932 c -6.53291,-6.0799 -6.84287,-8.5953 -1.50167,-12.18616 11.40842,-7.66985 34.33328,-8.00995 46.81607,-0.69454 6.19976,3.6333 5.92867,6.61617 -1.22769,13.50866 l -5.5,5.29721 0,7.73868 c 0,7.52273 0.087,7.80067 3.1189,9.95955 3.57186,2.54339 8.8811,10.41107 8.8811,13.16077 0,3.3517 -2.78402,7.20616 -7.40673,10.25456 l -4.5493,3 -0.022,9.34724 -0.022,9.34724 5,4.49543 c 4.16661,3.74614 5,5.07093 5,7.94821 0,7.60204 -7.69805,10.4969 -16.8592,6.33992 -2.39754,-1.08792 -6.51089,-1.97804 -9.14077,-1.97804 -2.62988,0 -6.74323,0.89012 -9.1408,1.97804 -6.50245,2.95056 -11.37863,2.65638 -14.93612,-0.90112 z m 30.57692,-22.03592 0,-16.45901 -3.5,-0.73869 c -1.925,-0.40627 -5.1875,-0.29488 -7.25,0.24755 l -3.75,0.98624 0,15.79479 c 0,8.68713 0.31843,16.11322 0.70762,16.50241 0.3892,0.38919 3.6517,0.57669 7.25,0.41667 l 6.54238,-0.29096 0,-16.459 z m 2.37117,-22.46138 c 1.5621,-0.96543 0.33929,-3.1627 -2.47323,-4.44417 -3.06594,-1.39693 -10.37138,-1.47625 -13.85847,-0.15046 -2.85031,1.08369 -4.42967,3.84645 -2.78166,4.86593 1.33025,0.82292 17.71929,0.59029 19.11336,-0.2713 z m 0.94041,-8.83977 c 0.71828,-3.72972 -9.759,-6.04855 -16.58218,-3.66997 -2.93213,1.02214 -4.73246,3.30714 -3.79754,4.81987 0.24109,0.3901 4.85478,0.65639 10.25264,0.59177 8.20276,-0.0982 9.86566,-0.38419 10.12708,-1.74167 z m -2.77614,-20.15273 c 0.0252,-8.5897 0.44895,-12.8105 1.46456,-14.58712 2.07874,-3.63638 1.81611,-6.3544 -0.8566,-8.86529 -3.2522,-3.05528 -8.54036,-3.75197 -12.87305,-1.69597 -4.66165,2.21209 -5.96727,5.18765 -4.16108,9.4833 0.93238,2.21749 1.39073,7.35167 1.39073,15.57823 l 0,12.27064 7.5,-0.0483 7.5,-0.0483 0.0354,-12.08713 z m 51.41911,73.95833 c -1.65821,-1.6582 -2.45455,-3.57474 -2.45455,-5.90733 0,-2.87728 0.83339,-4.20207 5,-7.94821 l 5,-4.49543 -0.002,-9.34724 -0.002,-9.34724 -4.53061,-2.86233 c -4.54686,-2.87285 -7.46539,-6.93537 -7.46539,-10.39223 0,-2.7497 5.30924,-10.61738 8.8811,-13.16077 3.03175,-2.1588 3.1189,-2.43704 3.1189,-9.9577 l 0,-7.73684 -5.5,-5.21305 c -7.19367,-6.81837 -7.47511,-9.93528 -1.22769,-13.59651 12.48279,-7.31541 35.40765,-6.97531 46.81607,0.69454 5.3412,3.59086 5.03124,6.10626 -1.50167,12.18616 l -5.58671,5.19932 0,7.96676 0,7.96675 4.08242,3.95295 c 9.53731,9.23483 9.35947,15.61275 -0.62692,22.48357 l -4.4555,3.06546 0,8.64431 0,8.64431 5.5,5.24268 c 6.48813,6.18459 7.02739,8.99908 2.57692,13.44954 -3.55749,3.5575 -8.43367,3.85168 -14.93612,0.90112 -5.59469,-2.53865 -12.62264,-2.53003 -17.90466,0.022 -5.84311,2.82308 -11.68357,2.64348 -14.78159,-0.45455 z m 30.04545,-22.48188 0,-16.43643 -3.25,-0.84216 c -1.7875,-0.46319 -4.7125,-0.46362 -6.5,-9.6e-4 l -3.25,0.84119 -0.27439,16.73364 -0.27439,16.73364 6.77439,-0.29624 6.77439,-0.29625 0,-16.43643 z m 3.30499,-23.30674 c 0.7805,-4.0086 -10.9761,-6.45851 -17.25794,-3.59631 -2.2204,1.01168 -3.37445,3.6779 -2.13081,4.92281 0.22894,0.22917 4.61644,0.37689 9.75,0.32828 7.62953,-0.0722 9.38945,-0.3744 9.63875,-1.65478 z m -0.30499,-8.2769 c 0,-2.95942 -4.23329,-4.61095 -10.78029,-4.20571 -5.9608,0.36895 -9.44807,2.38531 -8.48154,4.90407 0.37825,0.9857 2.95619,1.31891 9.88675,1.27794 8.56043,-0.0506 9.37508,-0.22235 9.37508,-1.9763 z m -1.991,-19.34395 c -0.58737,-10.46866 -0.45143,-12.0208 1.35507,-15.47188 2.50106,-4.77799 1.69431,-7.48105 -3.00351,-10.06341 -4.09623,-2.25167 -9.22931,-1.67167 -13.25911,1.49817 -2.89399,2.27642 -3.2489,5.14456 -1.10145,8.90114 1.01561,1.77662 1.43938,5.99742 1.46456,14.58712 l 0.0354,12.08713 7.58093,0.0489 7.58092,0.0489 -0.65285,-11.63597 z m -193.28004,-47.80527 c -1.64072,-0.66014 -4.22896,-5.66696 -4.22896,-8.18071 0,-1.08684 2.43346,-4.17336 5.5,-6.97601 l 5.5,-5.02669 0,-9.0611 0,-9.06111 -3.87543,-2.44645 c -8.61475,-5.43826 -10.26207,-11.32783 -5.14442,-18.39254 1.63909,-2.26269 4.11409,-4.85697 5.5,-5.76505 2.35895,-1.54565 2.51985,-2.18236 2.51985,-9.97178 l 0,-8.32072 -5.5,-5.41288 c -3.025,-2.97709 -5.5,-6.1775 -5.5,-7.11203 0,-2.8419 4.96451,-6.51232 11.56651,-8.55147 13.60633,-4.20257 25.61052,-3.53984 37.18349,2.05283 5.69054,2.74996 6.25,3.30027 6.25,6.14776 0,2.50865 -1.08821,4.13215 -5.5,8.20543 l -5.5,5.07799 0,7.65911 c 0,7.48065 0.0789,7.72487 3.38428,10.48191 4.64859,3.87735 8.61572,10.0408 8.61572,13.38562 0,3.39217 -3.60321,7.87002 -8.42025,10.46417 l -3.57975,1.92782 4.9e-4,9.52259 4.9e-4,9.5226 4.99951,4.30548 c 4.35399,3.74957 4.99951,4.79228 4.99951,8.07569 0,7.6238 -8.62972,10.64116 -17.5,6.11883 -2.23079,-1.13732 -5.89718,-2 -8.5,-2 -2.60282,0 -6.26921,0.86268 -8.5,2 -3.67894,1.87563 -11.17861,2.57494 -14.27104,1.33071 z m 29.77104,-23.72372 c 0,-14.02579 -0.22842,-16.48066 -1.58179,-17 -2.7505,-1.05547 -10.9686,-0.6566 -12.21821,0.59301 -0.83207,0.83207 -1.2,6.04444 -1.2,17 l 0,15.8 7.5,0 7.5,0 0,-16.39301 z m 2.69729,-23.19885 c 0.64691,-1.94075 -3.57109,-4.63959 -8.03813,-5.14309 -6.98854,-0.78771 -14.15591,2.50414 -12.23159,5.61775 0.71195,1.15196 19.87711,0.70316 20.26972,-0.47466 z m 0.002,-8.00552 c 0.19224,-0.57673 -0.60866,-1.91576 -1.77979,-2.97561 -4.31062,-3.90106 -19.9995,-1.40544 -18.34066,2.91744 0.63971,1.66705 19.56591,1.72177 20.12045,0.0582 z m -1.09598,-34.9197 c 3.68738,-5.62765 -0.88542,-11.77 -8.68232,-11.66239 -7.81902,0.10791 -12.16717,6.10217 -8.49349,11.70892 1.20915,1.84564 1.5725,5.17029 1.5725,14.38968 l 0,11.98949 6.75,0.29569 6.75,0.29569 0.28049,-12.33171 c 0.20583,-9.04939 0.69096,-12.95819 1.82266,-14.68537 z m 48.42229,88.54252 c -2.68665,-2.68665 -3.54425,-6.68751 -2.03714,-9.50358 0.68409,-1.27823 3.21657,-3.80219 5.62775,-5.60881 l 4.38379,-3.28476 0,-9.27896 c 0,-8.38653 -0.20086,-9.38646 -2.08847,-10.39668 -1.14866,-0.61474 -3.84866,-2.70794 -6,-4.65155 -3.21927,-2.90841 -3.91153,-4.19459 -3.91153,-7.26742 0,-4.0268 3.67836,-10.06231 8.39236,-13.77035 2.41024,-1.89589 2.60764,-2.63905 2.60764,-9.81684 l 0,-7.76566 -5.5,-5.76618 c -3.025,-3.1714 -5.5,-6.6932 -5.5,-7.82622 0,-2.69888 5.7808,-6.43554 13.5,-8.72628 16.06705,-4.76803 40.34147,0.51866 41.32412,8.99993 0.26689,2.30353 -0.66153,3.71039 -5.25807,7.9677 l -5.58219,5.17022 0.008,7.53759 0.008,7.53759 5.03333,4.95765 c 8.86939,8.73603 8.72206,15.2959 -0.47443,21.12423 l -4.48588,2.84294 -0.036,9.5 -0.036,9.5 4.99951,4.30548 c 4.12504,3.5524 4.99951,4.88438 4.99951,7.61514 0,1.8341 -0.92403,4.48437 -2.07258,5.94452 -1.7176,2.18358 -2.8737,2.6311 -6.75,2.6129 -2.57258,-0.0121 -6.63906,-0.91208 -9.03662,-2 -5.56625,-2.52575 -11.65939,-2.51771 -16.6408,0.022 -5.24424,2.67367 -12.81389,2.68611 -15.47456,0.0254 z m 30.9744,-22.41845 c 0,-18.3398 0.31215,-17.60699 -7.5,-17.60699 -7.81215,0 -7.5,-0.73281 -7.5,17.60699 l 0,16.39301 7.5,0 7.5,0 0,-16.39301 z m 2.69729,-23.19885 c 0.6772,-2.0316 -3.70477,-4.70244 -8.4657,-5.15991 -7.13087,-0.68519 -14.60415,3.04588 -11.77254,5.87748 0.97795,0.97795 19.89666,0.30716 20.23824,-0.71757 z m 0.002,-8.00552 c 0.19224,-0.57673 -0.60988,-1.91576 -1.78249,-2.97561 -3.17856,-2.87292 -14.06943,-2.71867 -17.02929,0.2412 -1.17153,1.17153 -1.86742,2.55501 -1.54642,3.07441 0.80753,1.3066 19.9157,0.98748 20.3582,-0.34 z m -1.0444,-35.0019 c 1.0335,-1.95581 1.39346,-4.07259 0.97563,-5.73735 -1.61987,-6.45408 -12.35469,-8.09289 -17.73942,-2.70816 -2.90865,2.90866 -2.93107,3.01298 -1.42307,6.62212 1.09516,2.62111 1.53213,7.18462 1.53213,16.00098 l 0,12.33407 7.25,0.29381 7.25,0.29381 0.2585,-12 c 0.18929,-8.78771 0.6969,-12.82965 1.89623,-15.09928 z m 49.51958,88.28483 c -1.40821,-1.4988 -2.17447,-3.59375 -2.17447,-5.94452 0,-3.11525 0.70904,-4.24068 4.99951,-7.93555 l 4.99951,-4.30548 4.9e-4,-9.5226 4.9e-4,-9.52259 -3.57975,-1.92782 c -10.76396,-5.79678 -10.94864,-13.17204 -0.57597,-23.00115 l 4.15572,-3.93795 0,-7.52585 0,-7.52586 -5.57783,-5.14985 c -4.62572,-4.2708 -5.52187,-5.63394 -5.25,-7.98579 1.02824,-8.89493 25.53428,-13.89204 42.40682,-8.64732 7.33314,2.27946 12.42101,5.90475 12.42101,8.85042 0,0.93453 -2.475,4.13494 -5.5,7.11203 l -5.5,5.41288 0,8.04181 c 0,7.47537 0.18367,8.18627 2.60764,10.09297 4.43192,3.48615 8.39236,9.76726 8.39236,13.30998 0,3.77437 -3.31958,8.22501 -8.54222,11.45279 l -3.45778,2.13702 0,8.99209 0,8.99209 5.5,5.02669 c 3.06654,2.80265 5.5,5.88917 5.5,6.97601 0,2.7462 -2.62016,7.49027 -4.5448,8.22882 -3.21843,1.23502 -9.61688,0.57934 -13.4552,-1.37882 -2.23101,-1.13817 -5.89377,-2 -8.5,-2 -2.60623,0 -6.26899,0.86183 -8.5,2 -5.5937,2.85369 -12.98738,2.70678 -15.82569,-0.31445 z m 30.59971,-22.43555 -0.27418,-16.75 -4.41979,-0.31579 c -2.43088,-0.17369 -5.46838,-0.0526 -6.75,0.26905 -2.32236,0.58287 -2.33021,0.64033 -2.33021,17.06579 l 0,16.48095 7.02418,0 7.02418,0 -0.27418,-16.75 z m 3.0358,-23.50181 c 0.19434,-1.00913 -0.91738,-2.26949 -2.91136,-3.30062 -6.14417,-3.17727 -18.25321,-0.41997 -16.63823,3.78862 0.40827,1.06392 2.73406,1.36225 9.88454,1.2679 7.79171,-0.10282 9.40307,-0.39556 9.66505,-1.7559 z m 0.006,-8.03194 c 0.40115,-2.08221 -5.0812,-4.71625 -9.81598,-4.71625 -6.03114,0 -11.85858,3.80808 -9.475,6.19167 0.28875,0.28875 4.67138,0.46955 9.73917,0.40178 7.93029,-0.10604 9.26124,-0.3676 9.55196,-1.8772 z m -2.33695,-19.20944 c -0.57942,-9.27334 -0.43708,-11.92908 0.73699,-13.75 2.81613,-4.3677 2.80178,-6.70517 -0.0608,-9.90899 -2.28418,-2.55645 -3.41964,-3.01449 -7.47273,-3.01449 -8.41183,0 -12.46578,4.81771 -9.26398,11.00931 1.18516,2.29183 1.58138,6.07717 1.58138,15.1077 l 1.1e-4,12.04966 7.59865,0 7.59865,0 -0.71812,-11.49319 z"
         id="path4369"
         inkscape:connector-curvature="0" />
      <path
         style="fill:#0e1f0b"
         d="m 689.17928,-485.51417 c -14.15612,-3.07868 -26.56941,-9.81534 -36.8975,-20.0242 -7.83795,-7.74746 -12.8721,-15.5761 -17.14705,-26.66546 l -2.82077,-7.31717 -0.27936,-164 c -0.24733,-145.19585 -0.10145,-164.80758 1.27222,-171.04327 6.17522,-28.03198 31.02451,-50.22325 60.8904,-54.37721 10.73344,-1.49288 221.50004,-1.49288 232.23348,0 29.90977,4.16007 54.70611,26.30404 60.8904,54.37721 1.37367,6.23569 1.51955,25.84742 1.27222,171.04327 l -0.27936,164 -3.1886,8.27315 c -9.15284,23.74803 -28.86883,40.42228 -54.1255,45.77513 -9.58045,2.03046 -232.46936,1.99225 -241.82058,-0.0414 z m 235.49718,-2.54882 c 27.07109,-3.39443 48.8946,-20.82632 57.72122,-46.10578 l 2.91628,-8.35223 0.27797,-160 c 0.19068,-109.75032 -0.0573,-162.18154 -0.78951,-166.94624 -3.71925,-24.20147 -21.84156,-44.91956 -46.71041,-53.40106 l -7.77805,-2.6527 -120,0 -120,0 -7.77805,2.6527 c -24.80975,8.46135 -42.99547,29.25129 -46.71187,53.40106 -0.73422,4.77106 -0.98145,57.04948 -0.78952,166.94624 l 0.27944,160 3.08529,8.61775 c 8.85489,24.7333 30.74335,42.45514 56.57595,45.80633 9.65406,1.25239 219.73635,1.28342 229.70126,0.0339 z m -218.11252,-44.03812 c -2.47807,-1.44334 -4.96484,-6.66756 -4.24837,-8.92498 0.33257,-1.04782 2.83076,-3.90657 5.55153,-6.35278 l 4.94686,-4.44765 0,-9.59724 c 0,-5.27848 -0.40133,-9.59724 -0.89185,-9.59724 -0.49051,0 -3.19051,-2.0667 -6,-4.59267 -3.62726,-3.26122 -5.10815,-5.33758 -5.10815,-7.16214 0,-3.47025 4.32436,-10.62791 8.00386,-13.24794 2.93015,-2.08645 2.99614,-2.32266 2.99614,-10.72493 l 0,-8.59149 -5.5,-5.76618 c -3.025,-3.1714 -5.5,-6.23137 -5.5,-6.79994 0,-2.19662 5.7578,-6.20698 11.98686,-8.34896 12.83926,-4.41503 31.89535,-2.36585 40.43015,4.34763 3.99708,3.1441 3.30581,5.91939 -2.91701,11.7111 l -5.5,5.11896 0,7.68787 0,7.68786 5.44886,5.71256 c 8.62622,9.0437 8.47605,13.13602 -0.73267,19.96641 l -4.71619,3.49814 4.9e-4,9.50186 4.9e-4,9.50186 4.99951,4.30548 c 6.02885,5.19193 6.72653,9.19477 2.36315,13.55816 -3.24484,3.24484 -7.76325,3.45626 -13.59978,0.63636 -2.62694,-1.2692 -6.18603,-2 -9.74025,-2 -3.62643,0 -6.98357,0.70501 -9.52361,2 -4.22217,2.15258 -9.92696,2.56417 -12.75002,0.91989 z m 29.0242,-23.60728 -0.27418,-16.6874 -3.39275,-0.87818 c -1.90081,-0.49202 -4.979,-0.50347 -7,-0.026 l -3.60725,0.8521 -0.27418,16.71343 -0.27418,16.71344 7.54836,0 7.54836,0 -0.27418,-16.68739 z m 3.0343,-23.55663 c 0.17262,-0.89635 -0.8396,-2.38549 -2.24938,-3.30921 -3.3287,-2.18105 -14.76782,-1.66662 -17.20832,0.77388 -3.31174,3.31174 -1.18019,4.28268 9.26917,4.2222 8.30295,-0.0481 9.92463,-0.31655 10.18853,-1.68687 z m -0.30848,-8.29444 c 0,-3.00058 -4.24294,-4.58448 -11.26247,-4.20432 -6.49059,0.35151 -10.00696,2.29528 -8.9824,4.96526 0.40399,1.05277 2.85298,1.34974 10.38675,1.25955 8.98164,-0.10753 9.85812,-0.28717 9.85812,-2.02049 z m -2.26039,-19.8586 c 0.20998,-7.26897 0.89204,-13.33057 1.70768,-15.17658 1.88226,-4.26007 0.70387,-8.03827 -3.12452,-10.01801 -3.66311,-1.89427 -9.60103,-1.43888 -13.36087,1.02466 -2.8554,1.87092 -3.27815,6.51513 -0.9619,10.56699 1.00624,1.76024 1.43961,5.93336 1.46456,14.10294 l 0.0354,11.60294 6.94499,0 6.94499,0 0.34963,-12.10294 z m 50.31508,74.14706 c -1.40625,-1.2375 -2.82127,-3.63086 -3.14448,-5.31858 -0.52733,-2.75367 -0.0141,-3.59275 5.00107,-8.17634 l 5.58872,-5.10778 0,-9.35804 c 0,-9.30224 -0.0176,-9.36844 -2.95019,-11.10076 -5.52499,-3.2637 -9.04981,-7.59547 -9.04981,-11.12162 0,-3.51634 5.40244,-11.64153 9.03203,-13.58402 1.73065,-0.92622 1.96797,-2.1249 1.96797,-9.94012 l 0,-8.88689 -3.84131,-3.32793 c -4.90751,-4.25161 -7.37735,-8.09453 -6.56422,-10.21352 1.01115,-2.635 8.32409,-6.39028 15.92784,-8.17914 11.42716,-2.68836 26.50948,-0.57657 34.56607,4.83985 5.28501,3.55309 4.98597,5.98565 -1.50914,12.27653 l -5.57924,5.4038 0,7.63862 0,7.63863 5.41225,5.84587 c 8.56724,9.25364 8.35607,13.60163 -0.98018,20.18243 l -4.43207,3.12401 0,9.49709 0,9.49709 5,4.62082 c 6.19189,5.72233 6.71617,9.37815 1.92327,13.41111 -3.72499,3.13437 -7.75867,3.3003 -13.78247,0.56693 -5.71505,-2.59327 -13.52924,-2.58406 -18.6408,0.022 -5.29027,2.69713 -10.70662,2.60003 -13.94531,-0.25 z m 30.21949,-22.43739 -0.27418,-16.6874 -3.39275,-0.87818 c -1.90081,-0.49202 -4.979,-0.50347 -7,-0.026 l -3.60725,0.8521 -0.27418,16.71343 -0.27418,16.71344 7.54836,0 7.54836,0 -0.27418,-16.68739 z m 3.02812,-23.52455 c 0.87562,-4.54675 -14.00925,-6.87032 -18.85827,-2.94382 -4.31449,3.49366 -2.11205,4.66105 8.67592,4.59861 8.22126,-0.0476 9.92619,-0.32466 10.18235,-1.65479 z m -0.3023,-8.27788 c 0,-3.04699 -4.20566,-4.63514 -11.26247,-4.25296 -6.48446,0.35118 -10.00708,2.29498 -8.98516,4.95806 0.39847,1.03839 2.91462,1.3553 10.38674,1.30819 9.09062,-0.0573 9.86089,-0.21459 9.86089,-2.01329 z m -2.4682,-19.92306 c 0.0238,-9.04061 0.40186,-12.57637 1.5,-14.02825 3.31218,-4.37909 0.69875,-10.70995 -5.01294,-12.14349 -3.47253,-0.87155 -8.92125,0.28012 -11.60434,2.45275 -2.39195,1.93689 -2.96439,7.482 -0.97751,9.46888 0.63892,0.63892 1.06299,6.12369 1.06299,13.74845 l 0,12.68545 7.5,-0.0483 7.5,-0.0483 0.0318,-12.08713 z m 51.60456,73.77652 c -4.37113,-4.37114 -3.66814,-8.37458 2.36364,-13.46065 l 5,-4.21606 0,-9.59532 0,-9.59533 -4.71619,-3.49814 c -9.20872,-6.83039 -9.35889,-10.92271 -0.73267,-19.96641 l 5.44886,-5.71256 0,-7.59531 0,-7.59531 -5.57918,-5.4908 c -6.49105,-6.38825 -6.78722,-8.81426 -1.5092,-12.36264 7.44797,-5.00725 21.81016,-7.3738 32.2884,-5.32038 7.64907,1.49899 16.43732,5.49912 17.84009,8.12022 1.32103,2.46836 0.35497,4.21603 -5.46318,9.88326 l -4.57693,4.45821 0,8.76873 c 0,8.24635 0.14871,8.86619 2.49627,10.40436 4.08265,2.67506 8.50373,9.44964 8.50373,13.03057 0,3.46919 -3.56355,7.8276 -9.04981,11.06842 -2.93344,1.73282 -2.95019,1.79599 -2.95019,11.12435 l 0,9.38163 4.94686,4.44765 c 5.87509,5.28221 6.677,7.25077 4.59431,11.27825 -2.83152,5.47555 -8.60298,6.61922 -15.54117,3.07962 -5.15295,-2.62884 -13.37497,-2.63827 -19.1408,-0.022 -6.2434,2.83301 -10.98003,2.6284 -14.22284,-0.6144 z m 30.36364,-22.2328 0,-16.86916 -3.5,-0.56797 c -1.925,-0.31238 -5.075,-0.31238 -7,0 l -3.5,0.56797 0,16.86916 0,16.86916 7,0 7,0 0,-16.86916 z m 2.79578,-23.81527 c 0.39336,-2.59703 -3.50031,-4.31557 -9.77773,-4.31557 -6.77104,0 -10.01805,1.38904 -10.01805,4.28562 0,2.29921 0.14995,2.33241 9.75,2.15895 8.8323,-0.15959 9.77784,-0.35998 10.04578,-2.129 z m 0.20422,-7.90067 c 0,-2.74745 -3.77687,-4.4149 -10,-4.4149 -6.28007,0 -10,1.6634 -10,4.47159 0,2.06116 0.41573,2.1482 10,2.09387 9.46473,-0.0536 10,-0.16876 10,-2.15056 z m -2.44197,-18.77601 c -0.60302,-10.05717 -0.46832,-11.52359 1.38704,-15.10033 2.55063,-4.91705 2.55158,-5.63746 0.0116,-8.86652 -2.52376,-3.20843 -7.81408,-4.33094 -13.03681,-2.76617 -5.67445,1.7001 -7.79036,7.23885 -4.45166,11.653 1.09896,1.45297 1.47619,4.99387 1.5,14.08002 l 0.0318,12.13889 7.61296,0 7.61295,0 -0.66788,-11.13889 z M 705.40737,-656.271 c -1.38496,-1.2375 -2.81898,-3.52791 -3.18671,-5.08981 -0.59325,-2.51978 -0.034,-3.43037 4.96235,-8.08029 l 5.63095,-5.24049 0,-9.60232 c 0,-8.47883 -0.21735,-9.6713 -1.85767,-10.19192 -1.02172,-0.32428 -3.72172,-2.31048 -6,-4.41377 -6.20513,-5.72855 -5.47886,-10.59202 2.77525,-18.58435 l 4.08242,-3.95295 0,-8.74992 0,-8.74993 -4.10334,-3.29713 c -2.25684,-1.81341 -4.76715,-4.58054 -5.57845,-6.14916 -1.36706,-2.64314 -1.31566,-3.02177 0.70173,-5.16919 5.36756,-5.7135 21.49595,-9.46495 32.47347,-7.5533 12.27394,2.13741 20.50659,6.32339 20.50659,10.42678 0,1.36109 -2.12195,4.31166 -5.5,7.64775 l -5.5,5.43168 0,7.58448 0,7.58449 5.39121,5.56611 c 8.67882,8.96039 8.42869,13.30968 -1.16935,20.33324 l -4.09965,3 -0.0611,9.49733 -0.0611,9.49733 5,4.59674 c 4.00154,3.67881 5,5.23603 5,7.79812 0,7.32099 -8.58122,10.40542 -17,6.11048 -2.39729,-1.22301 -5.89377,-2 -9,-2 -3.10624,0 -6.60271,0.77699 -9,2 -5.33135,2.71985 -11.19676,2.61807 -14.40659,-0.25 z m 30.18077,-22.5 -0.27418,-16.75 -4.93373,-0.31229 c -10.03617,-0.63527 -9.56627,-1.4866 -9.56627,17.33134 l 0,16.48095 7.52418,0 7.52418,0 -0.27418,-16.75 z m 3.02916,-23.46736 c 0.78467,-4.07447 -11.82397,-6.37469 -17.853,-3.25696 -2.69576,1.39403 -3.72886,3.36247 -2.44076,4.65056 0.28026,0.28027 4.88878,0.45643 10.24115,0.39147 8.23014,-0.0999 9.78111,-0.37529 10.05261,-1.78507 z m 0.19666,-7.90913 c 0,-3.97262 -9.86656,-6.21039 -16.7706,-3.80363 -2.96919,1.03506 -4.73032,3.3106 -3.76768,4.86819 0.25752,0.41667 4.98398,0.75758 10.50325,0.75758 9.04187,0 10.03503,-0.18033 10.03503,-1.82214 z m -1.25,-34.55777 c 2.91343,-5.09095 0.8174,-9.94732 -4.84445,-11.22427 -7.87251,-1.77554 -13.93149,1.36776 -13.87375,7.19749 0.0175,1.76607 0.69249,4.08455 1.5,5.15217 1.09771,1.4513 1.4682,4.90948 1.4682,13.70431 l 0,11.76318 6.75,0.29569 6.75,0.29569 0.5,-12.5 c 0.28972,-7.24305 1.02569,-13.4186 1.75,-14.68426 z m 47.83889,87.60753 c -3.81386,-4.53251 -3.32113,-6.6567 2.91111,-12.55016 l 5.5,-5.20102 0,-9.35864 0,-9.35864 -3.57975,-1.92782 c -5.16743,-2.78285 -8.42025,-7.05029 -8.42025,-11.04672 0,-2.69358 1.09907,-4.5534 5.5,-9.30693 l 5.5,-5.94065 0,-8.49588 0,-8.49589 -4.26285,-3.49308 c -2.34457,-1.9212 -4.89648,-4.67703 -5.67092,-6.12408 -1.28567,-2.40231 -1.21081,-2.84096 0.86124,-5.04656 5.4578,-5.80956 21.49983,-9.57881 32.56594,-7.65173 12.27394,2.13741 20.50659,6.32339 20.50659,10.42678 0,1.36109 -2.12195,4.31166 -5.5,7.64775 l -5.5,5.43168 0,7.78676 0,7.78677 4.07242,3.67918 c 4.05972,3.66771 7.92758,9.88403 7.92758,12.74098 0,1.97513 -5.45201,8.13785 -9.11209,10.29991 -2.88609,1.70486 -2.88791,1.7124 -2.88791,11.99033 0,5.65641 0.35935,10.28439 0.79855,10.28439 0.43921,0 2.68921,1.81671 5,4.03713 5.02597,4.8294 5.56515,8.69008 1.7469,12.50832 -3.09788,3.09789 -9.0024,3.28241 -14.54545,0.45455 -2.39729,-1.22301 -5.89377,-2 -9,-2 -3.10623,0 -6.60271,0.77699 -9,2 -2.18215,1.11325 -5.89377,2 -8.37127,2 -3.74253,0 -4.86299,-0.48969 -7.03984,-3.07673 z m 31.18529,-21.67327 -0.27418,-16.75 -4.93373,-0.31229 c -10.03617,-0.63527 -9.56627,-1.4866 -9.56627,17.33134 l 0,16.48095 7.52418,0 7.52418,0 -0.27418,-16.75 z m 3.02916,-23.46736 c 0.54849,-2.84806 -5.2568,-5.06256 -11.99396,-4.57523 -6.11387,0.44223 -9.53178,2.46767 -8.53732,5.05918 0.4249,1.10728 2.71994,1.39529 10.3779,1.30235 8.32361,-0.10102 9.88161,-0.37512 10.15338,-1.7863 z m 0.0102,-8.05151 c 0.42078,-2.18665 -5.12598,-4.73113 -10.31354,-4.73113 -6.51368,0 -12.45294,3.71373 -9.94697,6.21969 0.30416,0.30417 4.9106,0.49167 10.23653,0.41667 8.40316,-0.11833 9.72851,-0.37024 10.02393,-1.90523 z m -1.06354,-34.41539 c 3.46736,-6.05889 -0.59014,-11.54651 -8.53742,-11.54651 -8.8611,0 -12.53611,4.12736 -9.70601,10.90073 1.03909,2.48689 1.49343,7.17453 1.49343,15.40835 l 0,11.83407 7.25,0.29381 7.25,0.29381 0.5,-12.5 c 0.28972,-7.24305 1.02569,-13.4186 1.75,-14.68426 z m 49.70455,88.22971 c -4.10298,-4.10297 -3.36117,-8.02381 2.54545,-13.45405 l 5,-4.59674 -0.0611,-9.49733 -0.0611,-9.49733 -4.09965,-3 c -9.59804,-7.02356 -9.84817,-11.37285 -1.16935,-20.33324 l 5.3912,-5.56611 0,-7.58449 0,-7.58448 -5.5,-5.43168 c -3.37805,-3.33609 -5.5,-6.28666 -5.5,-7.64775 0,-4.10339 8.23265,-8.28937 20.50659,-10.42678 10.97752,-1.91165 27.10591,1.8398 32.47347,7.5533 2.01739,2.14742 2.06879,2.52605 0.70173,5.16919 -0.81131,1.56862 -3.32161,4.33575 -5.57845,6.14916 l -4.10334,3.29713 0,8.74993 0,8.74992 4.08242,3.95295 c 8.25411,7.99233 8.98038,12.8558 2.77525,18.58435 -2.27828,2.10329 -4.97828,4.08949 -6,4.41377 -1.64032,0.52062 -1.85767,1.71309 -1.85767,10.19192 l 0,9.60232 5.63095,5.24049 c 4.99638,4.64992 5.5556,5.56051 4.96235,8.08029 -1.62994,6.92302 -8.97964,9.16251 -17.4525,5.31785 -5.61288,-2.54691 -12.61922,-2.53819 -17.6408,0.022 -5.5854,2.8476 -11.93515,2.65576 -15.04545,-0.45455 z m 30.31963,-22.29545 -0.27418,-16.75 -6.5,0 -6.5,0 -0.27418,16.75 -0.27418,16.75 7.04836,0 7.04836,0 -0.27418,-16.75 z m 3.01973,-23.67062 c -0.58805,-4.06019 -9.5859,-5.94226 -16.64469,-3.48155 -2.24911,0.78404 -3.14922,1.72848 -3.14922,3.30434 0,2.12891 0.35331,2.20653 10.04391,2.20653 9.52217,0 10.02865,-0.10542 9.75,-2.02932 z m -1.9e-4,-8.00149 c -0.46171,-3.18765 -4.53168,-4.73718 -11.08108,-4.21882 -6.17865,0.48902 -8.71264,1.83058 -8.71264,4.61268 0,1.52428 1.17827,1.72142 10.04372,1.68042 9.50689,-0.044 10.02802,-0.15483 9.75,-2.07428 z m -2.23194,-18.10898 c -0.65148,-10.57932 -0.53297,-11.89698 1.43586,-15.96404 1.89576,-3.91611 1.99028,-4.75778 0.8107,-7.21891 -3.57206,-7.45295 -19.88094,-5.29275 -19.7729,2.61903 0.0195,1.42725 0.67854,3.72001 1.46456,5.09501 1.00827,1.76378 1.43956,5.94677 1.46456,14.20431 l 0.0354,11.70431 6.75,0.34983 c 3.7125,0.19241 7.14867,0.43797 7.63594,0.54569 0.50655,0.11199 0.58185,-4.74208 0.17584,-11.33523 z"
         id="path4367"
         inkscape:connector-curvature="0" />
      <path
         style="fill:#000000"
         d="m 689.17928,-485.51417 c -14.15612,-3.07868 -26.56941,-9.81534 -36.8975,-20.0242 -7.83795,-7.74746 -12.8721,-15.5761 -17.14705,-26.66546 l -2.82077,-7.31717 -0.27936,-164 c -0.24733,-145.19585 -0.10145,-164.80758 1.27222,-171.04327 6.17522,-28.03198 31.02451,-50.22325 60.8904,-54.37721 10.73344,-1.49288 221.50004,-1.49288 232.23348,0 29.90977,4.16007 54.70611,26.30404 60.8904,54.37721 1.37367,6.23569 1.51955,25.84742 1.27222,171.04327 l -0.27936,164 -3.1886,8.27315 c -9.15284,23.74803 -28.86883,40.42228 -54.1255,45.77513 -9.58045,2.03046 -232.46936,1.99225 -241.82058,-0.0414 z m 235.49718,-2.54882 c 27.07109,-3.39443 48.8946,-20.82632 57.72122,-46.10578 l 2.91628,-8.35223 0.27797,-160 c 0.19068,-109.75032 -0.0573,-162.18154 -0.78951,-166.94624 -3.71925,-24.20147 -21.84156,-44.91956 -46.71041,-53.40106 l -7.77805,-2.6527 -120,0 -120,0 -7.77805,2.6527 c -24.80975,8.46135 -42.99547,29.25129 -46.71187,53.40106 -0.73422,4.77106 -0.98145,57.04948 -0.78952,166.94624 l 0.27944,160 3.08529,8.61775 c 8.85489,24.7333 30.74335,42.45514 56.57595,45.80633 9.65406,1.25239 219.73635,1.28342 229.70126,0.0339 z"
         id="path4365"
         inkscape:connector-curvature="0" />
    </g>
  </g>
</svg>
