<?xml version="1.0" encoding="UTF-8" standalone="no"?>
<!-- Created with Inkscape (http://www.inkscape.org/) -->

<svg
   xmlns:dc="http://purl.org/dc/elements/1.1/"
   xmlns:cc="http://creativecommons.org/ns#"
   xmlns:rdf="http://www.w3.org/1999/02/22-rdf-syntax-ns#"
   xmlns:svg="http://www.w3.org/2000/svg"
   xmlns="http://www.w3.org/2000/svg"
   xmlns:sodipodi="http://sodipodi.sourceforge.net/DTD/sodipodi-0.dtd"
   xmlns:inkscape="http://www.inkscape.org/namespaces/inkscape"
   sodipodi:docname="dragred.svg"
   inkscape:version="0.48.5 r10040"
   version="1.1"
   id="svg2"
   height="445.80823"
   width="357.92575">
  <defs
     id="defs4" />
  <sodipodi:namedview
     id="base"
     pagecolor="#ffffff"
     bordercolor="#666666"
     borderopacity="1.0"
     inkscape:pageopacity="0.0"
     inkscape:pageshadow="2"
     inkscape:zoom="0.56054688"
     inkscape:cx="21.746506"
     inkscape:cy="409.96279"
     inkscape:document-units="px"
     inkscape:current-layer="layer1"
     showgrid="false"
     fit-margin-top="0"
     fit-margin-left="0"
     fit-margin-right="0"
     fit-margin-bottom="0"
     inkscape:window-width="958"
     inkscape:window-height="1078"
     inkscape:window-x="1920"
     inkscape:window-y="0"
     inkscape:window-maximized="0" />
  <metadata
     id="metadata7">
    <rdf:RDF>
      <cc:Work
         rdf:about="">
        <dc:format>image/svg+xml</dc:format>
        <dc:type
           rdf:resource="http://purl.org/dc/dcmitype/StillImage" />
        <dc:title></dc:title>
      </cc:Work>
    </rdf:RDF>
  </metadata>
  <g
     inkscape:label="Layer 1"
     inkscape:groupmode="layer"
     id="layer1"
     transform="translate(-989.66329,1360.5796)">
    <g
       id="g4954"
       transform="translate(512,613.68641)">
      <path
         style="fill:#edc5c7"
         d="m 531.78085,-1530.4472 c -25.72794,-6.7797 -45.95197,-26.3817 -52.12634,-50.5233 -1.94088,-7.5887 -1.98563,-11.4293 -1.98563,-170.3937 0,-179.5673 -0.43574,-167.1825 6.38754,-181.5501 10.57686,-22.2714 31.47395,-37.1734 56.7933,-40.5002 5.72556,-0.7523 43.54832,-0.9934 121.31916,-0.7736 l 113,0.3195 7.47263,2.2924 c 20.80791,6.3831 37.11617,19.631 46.00895,37.375 7.55387,15.0725 7.11309,2.996 6.79924,186.2869 l -0.28082,164 -2.87507,7.8532 c -7.50938,20.5118 -24.34392,36.6945 -46.12493,44.339 l -8,2.8078 -119.5,0.207 c -115.57428,0.2001 -119.74271,0.143 -126.88803,-1.7399 z m 248.38803,-4.2359 c 22.64913,-6.5508 40.98933,-23.696 48.24424,-45.1007 l 2.75576,-8.1305 0.28022,-159.5 c 0.31343,-178.3968 0.68406,-168.331 -6.75671,-183.5 -8.69397,-17.7238 -23.52446,-30.0468 -43.52351,-36.1646 -5.67717,-1.7366 -12.40274,-1.8354 -125,-1.8354 l -119,0 -8,2.7244 c -21.45635,7.307 -36.77093,22.404 -44.30864,43.6792 l -2.69136,7.5964 -0.26776,160.7288 c -0.29931,179.6691 -0.72918,168.2023 6.88912,183.7712 7.03483,14.3765 22.32737,27.8845 38.04937,33.6091 11.52544,4.1966 13.19259,4.2475 132.82927,4.0482 105.36325,-0.1755 114.97878,-0.3291 120.5,-1.9261 z m -91.5,-42.3963 c -15.13842,-2.7224 -32.95825,-7.9964 -44.18922,-13.0783 l -7.68921,-3.4793 -3.1696,2.2569 c -1.93507,1.3779 -4.84406,2.3267 -7.46873,2.4361 -5.59155,0.2329 -9.14966,2.6555 -11.1153,7.5681 -1.46794,3.6688 -1.87381,3.9616 -5.4912,3.9616 -3.02123,0 -4.71807,-0.7441 -7.49035,-3.2847 -2.9749,-2.7263 -3.98565,-4.7879 -5.94537,-12.1267 -1.29862,-4.8631 -2.51253,-8.9934 -2.69758,-9.1785 -0.18504,-0.185 -2.79052,0.3167 -5.78994,1.1149 -2.99943,0.7982 -8.33896,1.4566 -11.86564,1.4631 -11.01058,0.02 -18.08786,-6.0454 -18.08786,-15.5027 0,-3.6574 0.0482,-3.7026 3.25,-3.051 1.7875,0.3638 9.25981,0.9184 16.60512,1.2324 12.70978,0.5434 13.32899,0.4807 12.81406,-1.2979 -3.3976,-11.7356 -6.28219,-36.0637 -4.49069,-37.8737 1.29603,-1.3094 6.89801,0.6919 8.41426,3.006 0.83874,1.2801 2.86136,8.7785 4.49473,16.6631 4.10291,19.8057 2.95317,17.8854 9.69693,16.1961 12.63427,-3.1651 23.45169,-6.8121 23.93414,-8.0693 0.28066,-0.7314 0.20208,-4.2079 -0.17463,-7.7256 l -0.68493,-6.3958 -5.17583,1.7593 c -5.13748,1.7463 -5.18341,1.7993 -6.19914,7.1553 -3.55507,18.7458 -15.48402,-11.3283 -15.48402,-39.0368 0,-10.6164 0.11995,-11.2584 2.55921,-13.6976 2.25532,-2.2553 3.08973,-2.4797 7.02692,-1.8893 6.68368,1.0023 13.4995,-0.7963 40.29465,-10.6335 13.40942,-4.9229 27.17952,-9.6848 30.60021,-10.582 5.84375,-1.5327 6.50099,-1.5237 10.88063,0.1489 8.56528,3.2711 8.60483,7.917 0.12902,15.1581 -4.43568,3.7896 -5.79973,5.7061 -6.99453,9.8278 -1.59913,5.5164 -3.45427,24.7669 -3.48083,36.1201 l -0.0164,7 13.40329,-0.3458 c 15.06663,-0.3886 23.17175,1.1127 36.93281,6.8415 29.58811,12.3175 25.06367,29.3344 -12.83501,48.2737 -13.69292,6.8428 -27.16898,10.3838 -34.5,9.0655 z m -56,-33.1303 c 0,-4.0344 -0.15814,-4.2917 -2.25,-3.6611 -14.26724,4.3007 -23.75,7.7619 -23.75,8.6687 0,0.6117 1.13847,3.0547 2.52993,5.4291 l 2.52992,4.317 10.47008,-5.2071 10.47007,-5.2072 0,-4.3394 z m 54.87612,9.9487 c 18.27511,-6.1919 29.92774,-14.4308 31.67752,-22.3975 1.28274,-5.8403 -4.31928,-6.9868 -22.65128,-4.6358 l -8.73309,1.1199 0.53626,5.1959 c 0.81839,7.9295 -4.2586,16.2715 -11.32151,18.6025 -3.95697,1.3059 -6.29471,0.3002 -9.38257,-4.0363 -1.3567,-1.9053 -3.01255,-3.002 -4.53252,-3.002 -3.74763,0 -12.39492,3.7753 -17.89515,7.8129 l -5.01094,3.6783 2.96858,0.6856 c 1.63272,0.377 10.16858,0.5658 18.96858,0.4194 14.9731,-0.2491 16.60177,-0.4701 25.37612,-3.443 z m -35.68572,-12.7761 c 10.16151,-3.646 14.8096,-6.1497 14.8096,-7.977 0,-1.7266 0.0301,-1.7301 -15.25,1.765 l -8.75,2.0014 0,3.4167 c 0,1.8792 0.42318,3.4167 0.9404,3.4167 0.51722,0 4.22972,-1.1802 8.25,-2.6228 z m 4.0596,-21.0176 10.75,-2.85 -0.0137,-3.5048 c -0.008,-1.9276 -0.29384,-4.5511 -0.63627,-5.8299 -0.68173,-2.5458 -1.6724,-2.5459 -17.10008,-7e-4 l -6.25,1.0311 0,7.4807 c 0,5.5731 0.31875,7.3586 1.25,7.0021 0.6875,-0.2632 6.0875,-1.761 12,-3.3285 z m -29,-14.4122 3.75,-1.0414 0,-7.4353 0,-7.4354 -4.75,1.76 -4.75,1.7599 -0.29569,6.7224 c -0.32566,7.4037 -0.29641,7.4311 6.04569,5.6698 z m 23.41131,-7.4474 c 3.16739,-0.825 8.10095,-1.5 10.96346,-1.5 l 5.20458,0 0.33532,-6.6205 0.33533,-6.6206 -9.34329,0.6878 c -5.13881,0.3782 -9.93579,0.915 -10.65996,1.1929 -1.45297,0.5576 -4.38026,14.3604 -3.04554,14.3604 0.24817,0 3.04271,-0.675 6.2101,-1.5 z m -23.41131,-14.0609 c 2.6064,-0.6217 2.75,-0.9572 2.75,-6.4247 l 0,-5.7687 -4.75,0.5102 c -2.6125,0.2806 -4.90989,0.6477 -5.10531,0.8158 -0.19542,0.1681 -0.0369,3.0489 0.35224,6.4019 0.58184,5.0131 1.00032,6.0097 2.35531,5.6088 0.90627,-0.2681 2.88526,-0.7826 4.39776,-1.1433 z m 33.75,-8.3173 7.5,-0.6218 0.50778,-5.0381 0.50778,-5.038 -12.50778,2.3777 c -6.87928,1.3077 -12.5973,2.4644 -12.70672,2.5703 -0.10941,0.106 0.27064,2.0426 0.84456,4.3036 l 1.04348,4.1111 3.65545,-1.0216 c 2.0105,-0.5618 7.03045,-1.3013 11.15545,-1.6433 z m -76.5,-14.2223 c -12.66844,-1.8085 -18.48732,-6.0599 -18.49626,-13.5136 -0.004,-2.9473 0.24469,-3.1481 4.63583,-3.75 2.55177,-0.3497 15.03927,-0.6885 27.75,-0.7528 12.71074,-0.064 26.03543,-0.4018 29.61043,-0.75 l 6.5,-0.6331 -0.29394,-3 c -0.19715,-2.0122 -1.60104,-4.1653 -4.26351,-6.5389 l -3.96958,-3.5389 8.80106,-9.1863 c 4.84059,-5.0525 10.35917,-11.8926 12.26352,-15.2003 1.90435,-3.3077 3.78098,-6.0188 4.1703,-6.0248 0.38931,-0.01 1.85181,1.9412 3.25,4.3271 4.40771,7.5212 3.034,16.1704 -3.87172,24.3774 -2.04277,2.4277 -2.39853,3.6659 -1.91296,6.6581 0.6479,3.9926 0.0759,3.9112 8.32683,1.184 6.82378,-2.2554 12.68558,-18.759 10.60399,-29.8548 -0.34729,-1.8512 -2.16043,-5.905 -4.02919,-9.0084 l -3.39774,-5.6425 3.51746,-3.0884 c 1.9346,-1.6985 6.6253,-5.1549 10.42378,-7.6807 7.79931,-5.1862 8.55385,-5.1434 15.40757,0.8743 10.72786,9.4192 8.23038,21.1651 -8.99216,42.291 -2.89768,3.5545 -3.47044,4.7258 -2.03371,4.159 7.95536,-3.1384 20.13496,-7.5682 32.5,-11.8203 17.83253,-6.1322 25.6895,-7.0835 32.25509,-3.9052 5.35016,2.59 7.51157,6.0364 6.17291,9.8429 -2.06419,5.8695 -12.35065,8.9135 -34.928,10.336 -8.8,0.5545 -18.925,1.7265 -22.5,2.6045 -7.83563,1.9244 -23.56232,7.9697 -42.5,16.3367 -7.7,3.402 -17.89138,7.4934 -22.6475,9.092 -8.002,2.6895 -9.68155,2.8974 -22.5,2.7846 -7.61888,-0.067 -16.5525,-0.5074 -19.8525,-0.9786 z m 150.52424,-102.362 c -10.63128,-5.2043 -21.77862,-10.0105 -24.77186,-10.6803 -4.45745,-0.9976 -8.83865,-0.9148 -24.21141,0.4576 -27.61081,2.4649 -49.68447,7.2252 -54.60542,11.776 -1.13545,1.0501 -2.99285,1.9092 -4.12756,1.9092 -1.1347,0 -2.6233,0.675 -3.30799,1.5 -4.01476,4.8375 -18.0767,-2.898 -22.19589,-12.21 -2.269,-5.1294 -1.76324,-7.7665 2.98271,-15.5522 2.99359,-4.9109 6.80631,-15.478 5.90856,-16.3758 -0.15593,-0.1559 -3.63868,2.4711 -7.73945,5.8377 -16.12482,13.2383 -33.23612,22.6444 -48.52403,26.6738 -8.15623,2.1497 -16.4319,2.8097 -16.4319,1.3104 0,-0.4488 3.89019,-2.7886 8.64487,-5.1994 22.51145,-11.4144 48.29926,-33.0471 54.88345,-46.0404 4.76702,-9.4073 5.80441,-15.9191 5.11598,-32.1139 l -0.6236,-14.6698 3.23965,-2.7347 c 3.96813,-3.3496 14.45287,-8.4238 17.40809,-8.4249 2.38848,-9e-4 5.46375,4.2372 7.72198,10.6417 1.34628,3.8182 1.40976,3.8551 6.23485,3.6205 13.5735,-0.6599 33.98248,-7.0672 55.59375,-17.4533 13.93159,-6.6954 17.76619,-8.119 23,-8.5387 13.4469,-1.0783 29.60556,3.6572 34.21809,10.0279 3.84306,5.308 1.77557,15.5419 -3.58872,17.7639 -2.44082,1.011 -5.1673,0.9107 -15.06785,-0.5543 -14.43584,-2.1361 -30.75713,-1.6173 -43.68192,1.3885 -8.22091,1.9118 -8.56007,2.1111 -15.78978,9.2784 -7.08129,7.0201 -11.3089,13.7032 -12.75623,20.1653 l -0.63623,2.8407 6.17566,-3.3407 c 3.39661,-1.8374 9.66573,-6.6032 13.93138,-10.5907 6.9271,-6.4754 8.17908,-7.25 11.71827,-7.25 2.47032,0 5.24212,0.8609 7.36043,2.2861 3.36053,2.261 3.40144,2.3792 3.72159,10.75 0.29452,7.7004 -1.21868,29.6887 -2.47562,35.9734 -0.50998,2.5499 -0.45602,2.5722 9.17659,3.7888 12.7218,1.6068 33.16447,9.7533 43.24034,17.2314 7.53917,5.5954 11.93549,16.5174 9.34662,23.2203 -0.93293,2.4155 -1.59104,2.75 -5.40997,2.75 -3.46227,0 -8.28485,-1.9273 -23.67743,-9.4625 z m -96.04809,-36.8416 3.94595,-9.1959 -9.21105,-0.5802 c -5.06608,-0.319 -10.21801,-0.9101 -11.44875,-1.3134 -2.02422,-0.6634 -2.18911,-0.465 -1.72848,2.0801 0.85827,4.7422 4.4613,30.7262 4.46382,32.1918 0.005,2.6303 10.05353,-14.0353 13.97851,-23.1824 z m 20.02385,12.4006 c 6.875,-2.7628 15.72419,-5.788 19.66486,-6.7227 l 7.16487,-1.6994 0.69507,-10.1975 c 0.70646,-10.3647 -0.10551,-14.4769 -2.85852,-14.4769 -0.69485,0 -5.29152,1.786 -10.21482,3.969 -4.9233,2.1829 -11.01225,4.4984 -13.53099,5.1454 l -4.57953,1.1763 -5.42047,13.4927 c -2.98126,7.421 -5.59437,13.9523 -5.80692,14.514 -0.21255,0.5617 0.23745,0.7516 1,0.4219 0.76255,-0.3297 7.01145,-2.8599 13.88645,-5.6228 z m -15.08575,-34.4953 c 4.33701,-1.0819 4.45573,-1.2237 6.7855,-8.1012 1.3042,-3.85 3.07089,-9.7563 3.92598,-13.1252 1.41892,-5.5902 1.41358,-6.3981 -0.0612,-9.25 -1.42101,-2.7479 -2.12538,-3.1261 -5.84022,-3.1358 -2.32338,-0.01 -5.91182,-0.2899 -7.97432,-0.6308 l -3.75,-0.6199 -0.0119,6.3809 c -0.0153,8.2352 -1.93914,15.3063 -6.34522,23.3222 -3.04746,5.5442 -3.3015,6.4837 -1.83935,6.8024 2.30927,0.5035 9.75012,-0.3054 15.11069,-1.6426 z"
         id="path4968"
         inkscape:connector-curvature="0" />
      <path
         style="fill:#bebebe"
         d="m 531.78085,-1530.4472 c -25.72794,-6.7797 -45.95197,-26.3817 -52.12634,-50.5233 -1.94088,-7.5887 -1.98563,-11.4293 -1.98563,-170.3937 0,-179.5673 -0.43574,-167.1825 6.38754,-181.5501 10.57686,-22.2714 31.47395,-37.1734 56.7933,-40.5002 5.72556,-0.7523 43.54832,-0.9934 121.31916,-0.7736 l 113,0.3195 7.47263,2.2924 c 20.80791,6.3831 37.11617,19.631 46.00895,37.375 7.55387,15.0725 7.11309,2.996 6.79924,186.2869 l -0.28082,164 -2.87507,7.8532 c -7.50938,20.5118 -24.34392,36.6945 -46.12493,44.339 l -8,2.8078 -119.5,0.207 c -115.57428,0.2001 -119.74271,0.143 -126.88803,-1.7399 z m 248.38803,-4.2359 c 22.64913,-6.5508 40.98933,-23.696 48.24424,-45.1007 l 2.75576,-8.1305 0.28022,-159.5 c 0.31343,-178.3968 0.68406,-168.331 -6.75671,-183.5 -8.69397,-17.7238 -23.52446,-30.0468 -43.52351,-36.1646 -5.67717,-1.7366 -12.40274,-1.8354 -125,-1.8354 l -119,0 -8,2.7244 c -21.45635,7.307 -36.77093,22.404 -44.30864,43.6792 l -2.69136,7.5964 -0.26776,160.7288 c -0.29931,179.6691 -0.72918,168.2023 6.88912,183.7712 7.03483,14.3765 22.32737,27.8845 38.04937,33.6091 11.52544,4.1966 13.19259,4.2475 132.82927,4.0482 105.36325,-0.1755 114.97878,-0.3291 120.5,-1.9261 z m -98.47297,-43.8497 c -11.99957,-2.532 -32.07884,-9.041 -39.61194,-12.8407 l -5.78871,-2.9199 -3.31834,2.9135 c -2.59112,2.275 -3.9493,2.7874 -6.19743,2.3377 -4.51789,-0.9036 -9.34948,1.9552 -11.64078,6.8875 -1.60453,3.454 -2.52618,4.2908 -4.96983,4.5124 -3.77862,0.3427 -8.93474,-2.7782 -10.91424,-6.6062 -0.83124,-1.6074 -2.41718,-6.1914 -3.52431,-10.1866 -1.10713,-3.9952 -2.13902,-7.3901 -2.29307,-7.5442 -0.15406,-0.154 -3.20247,0.4003 -6.77424,1.2319 -9.5533,2.2242 -17.83466,1.4549 -22.4802,-2.0885 -4.13,-3.1501 -6.78942,-8.3808 -6.32042,-12.4315 0.25071,-2.1652 0.7614,-2.5971 2.80648,-2.3732 5.8665,0.6422 30,1.4402 30,0.992 0,-0.2699 -1.14977,-6.0651 -2.55505,-12.8782 -2.57013,-12.4606 -3.60473,-25.0585 -2.17544,-26.4894 1.39361,-1.3953 6.12896,1.0694 8.33013,4.3358 1.34501,1.9958 2.96091,7.4681 4.27775,14.4868 1.16394,6.2036 2.57516,12.9173 3.13605,14.9193 l 1.01981,3.6399 4.23337,-0.9219 c 2.32836,-0.507 9.12906,-2.3471 15.11266,-4.089 l 10.87929,-3.1671 -0.5595,-7.3978 c -0.30772,-4.0688 -0.75665,-7.595 -0.99763,-7.836 -0.24097,-0.241 -2.63487,0.4241 -5.31978,1.478 -4.65902,1.8288 -4.93453,2.1531 -6.04099,7.111 -1.33856,5.998 -1.68452,6.5087 -3.84723,5.6788 -2.26696,-0.87 -6.04102,-9.6483 -8.65801,-20.1383 -1.76621,-7.0797 -2.25435,-11.9467 -2.29005,-22.833 -0.0441,-13.4589 0.0206,-13.8889 2.37758,-15.8003 1.97965,-1.6055 3.35186,-1.8544 7.5,-1.3604 6.83537,0.814 14.81495,-1.3659 43.07704,-11.7676 27.40712,-10.0871 32.22648,-11.3759 36.70373,-9.8151 4.00015,1.3944 7.79627,4.8746 7.79627,7.1474 0,1.8916 -3.6888,6.0939 -8.79559,10.0199 -2.45551,1.8878 -3.66063,3.9315 -4.72759,8.0173 -1.65371,6.3328 -3.45567,24.98 -3.46861,35.8942 l -0.009,7.5 15.75034,0 c 14.64626,0 16.34618,0.1993 24.25034,2.8425 12.10254,4.0473 18.78205,7.4154 23.70501,11.9532 10.78528,9.9416 7.07131,19.081 -13.18434,32.4444 -12.45783,8.2189 -30.00923,15.4198 -40.52067,16.6245 -2.6595,0.3048 -8.37444,-0.3018 -13.97297,-1.4831 z m -58.88782,-22.1032 9.86079,-5.2218 0,-4.3456 c 0,-3.6654 -0.27396,-4.2662 -1.75,-3.8382 -0.9625,0.279 -7.02703,2.1478 -13.47674,4.1528 l -11.72673,3.6454 2.09775,4.1645 c 2.2359,4.4389 3.77795,6.6646 4.61738,6.6646 0.28422,0 4.95412,-2.3498 10.37755,-5.2217 z m 58.13757,2.2788 c 17.64695,-4.5133 31.26961,-11.6955 35.83374,-18.8924 6.78641,-10.7011 2.54211,-12.978 -19.08429,-10.2382 -4.66057,0.5904 -8.81446,1.0735 -9.23087,1.0735 -0.4164,0 -0.48725,1.9688 -0.15743,4.375 0.32981,2.4063 0.0903,5.9184 -0.53221,7.8047 -1.38117,4.185 -8.61521,11.4452 -12.3054,12.35 -2.74417,0.6728 -4.28137,-0.4089 -9.05569,-6.3725 -1.3556,-1.6933 -2.38043,-2.043 -4.5,-1.5355 -4.89801,1.1727 -14.65945,5.9791 -18.15708,8.9403 l -3.41244,2.8892 2.41244,0.6747 c 1.32685,0.3711 8.75297,0.7196 16.50249,0.7744 10.93024,0.077 15.79365,-0.336 21.68674,-1.8432 z m -16.52678,-19.6435 c 2.37403,-1.5402 3.0708,-4.4136 1.07026,-4.4136 -0.64886,0 -6.04886,1.1643 -12,2.5872 l -10.82026,2.5873 0,3.8227 0,3.8228 9.75,-3.4733 c 5.3625,-1.9103 10.7625,-4.1302 12,-4.9331 z m -8.5,-15.9846 10.75,-2.8701 -0.0153,-4.5294 c -0.0269,-7.9488 0.2335,-7.8773 -17.73469,-4.8702 l -6.25,1.046 0,7.5043 c 0,5.5808 0.32041,7.3871 1.25,7.0469 0.6875,-0.2516 6.0875,-1.749 12,-3.3275 z m -26.25,-14.9678 c 1.20238,-0.3464 1.43433,-1.9343 1.16903,-8.003 -0.23127,-5.2901 -0.68316,-7.4229 -1.5,-7.0795 -0.64297,0.2702 -2.85653,1.0418 -4.91903,1.7146 l -3.75,1.2233 0,6.953 0,6.953 3.75,-0.6646 c 2.0625,-0.3656 4.425,-0.8591 5.25,-1.0968 z m 21,-6.9612 c 3.025,-0.8119 7.8241,-1.4816 10.66467,-1.4881 l 5.16468,-0.012 0.33532,-6.5021 c 0.38659,-7.4962 1.39756,-7.0271 -12.59701,-5.8442 -6.61603,0.5593 -7.84607,0.9568 -8.50874,2.75 -1.21956,3.3002 -2.21204,12.5975 -1.34336,12.5844 0.43144,-0.01 3.25944,-0.6762 6.28444,-1.4881 z m -24.86602,-13.6583 3.86602,-1.1583 0,-5.8226 0,-5.8225 -4.75,0.6217 c -2.6125,0.342 -4.90989,0.7558 -5.10531,0.9195 -0.54832,0.4595 0.98042,12.4205 1.58748,12.4205 0.29468,0 2.2755,-0.5212 4.40181,-1.1583 z m 28.36565,-7.8652 c 2.74979,-0.6033 7.02479,-0.9708 9.5,-0.8168 l 4.50037,0.2801 0.59,-5.4699 c 0.3245,-3.0084 0.5495,-5.5311 0.5,-5.6059 -0.0495,-0.075 -5.97648,0.994 -13.17107,2.3751 l -13.08107,2.5112 1.57014,4.3664 c 1.0924,3.0378 2.02985,4.2279 3.08107,3.9115 0.83101,-0.2502 3.76076,-0.9484 6.51056,-1.5517 z m -68.3807,-14.9644 c -9.85239,-1.5116 -14.02178,-3.1374 -17.13287,-6.6808 -3.13741,-3.5733 -4.00603,-8.5746 -1.73606,-9.9959 0.6875,-0.4305 15.78487,-1.0644 33.5497,-1.4088 17.76484,-0.3443 32.71839,-1.0447 33.23011,-1.5564 1.79217,-1.7922 -0.8441,-7.7567 -4.53403,-10.2583 l -3.52256,-2.3881 8.80428,-9.1119 c 4.84236,-5.0115 10.28141,-11.6994 12.08678,-14.8619 1.80538,-3.1625 3.66883,-5.75 4.14102,-5.75 2.20087,0 5.41257,6.6289 5.79881,11.9687 0.38388,5.307 0.16281,5.9532 -4.23368,12.3749 -4.03889,5.8994 -4.55451,7.2243 -3.9876,10.2462 0.7056,3.7612 0.27145,3.7134 8.41717,0.9275 11.21706,-3.8363 14.75697,-28.2193 5.90222,-40.6546 l -2.13988,-3.0052 2.86883,-3.0372 c 1.57786,-1.6704 6.13308,-5.2533 10.12272,-7.9618 6.3761,-4.3288 7.5257,-4.7845 9.5,-3.7661 7.99035,4.1215 12.74611,10.7499 12.74611,17.765 0,5.1884 -5.35956,15.4866 -13.04275,25.0613 -3.27422,4.0803 -5.80596,7.5659 -5.62609,7.7458 0.17986,0.1798 8.28867,-2.6009 18.01958,-6.1794 21.8376,-8.0307 33.61611,-11.4918 39.01113,-11.4631 8.11918,0.043 16.68316,6.11 15.20387,10.7709 -2.06468,6.5052 -12.30135,9.7914 -34.99187,11.2332 -23.30487,1.4807 -28.57205,2.9617 -62.07387,17.4536 -29.91278,12.9393 -29.69505,12.8778 -46.5,13.1356 -7.975,0.1224 -16.92148,-0.1491 -19.88107,-0.6032 z m 165.88107,-94.4486 c -1.925,-0.7126 -10.25,-4.6875 -18.5,-8.833 -22.12414,-11.1171 -23.24838,-11.3808 -42.29578,-9.9211 -29.0768,2.2282 -52.11812,6.7897 -59.25797,11.7311 -1.95456,1.3527 -4.0556,2.4595 -4.66896,2.4595 -0.61337,0 -2.41447,0.7457 -4.00245,1.6571 -1.75387,1.0065 -3.8545,1.4142 -5.35131,1.0385 -4.19435,-1.0527 -11.52532,-6.5135 -14.49285,-10.7956 -3.84625,-5.5502 -3.67077,-9.3472 0.76513,-16.5563 3.28955,-5.346 6.80419,-14.6922 6.80419,-18.0939 0,-0.7681 -2.56601,0.8283 -5.75,3.5774 -14.7678,12.7504 -30.67769,22.344 -45.02863,27.152 -9.49675,3.1817 -22.22137,5.0996 -22.22137,3.3493 0,-0.5284 2.79106,-2.281 6.20235,-3.8946 16.56576,-7.836 33.10452,-19.8558 46.88456,-34.074 13.68572,-14.1208 16.6516,-22.8453 15.60882,-45.9151 l -0.60369,-13.3558 4.55688,-4.0112 c 5.24215,-4.6143 15.02896,-8.7466 17.35108,-7.3262 1.91031,1.1686 6.94582,10.1895 6.97664,12.4984 0.0156,1.1719 0.81271,1.75 2.41289,1.75 6.63573,0 33.20378,-6.4923 43.1892,-10.5539 2.1567,-0.8773 10.27713,-4.7419 18.04541,-8.5882 12.63799,-6.2573 14.90022,-7.0487 21.5,-7.5215 12.98361,-0.9301 28.56736,3.691 33.15118,9.8305 2.42538,3.2486 2.53496,10.9475 0.2064,14.5013 -2.72537,4.1595 -5.83653,4.6777 -17.48172,2.9122 -14.95591,-2.2674 -28.24901,-2.0279 -41.64789,0.7506 -10.04807,2.0837 -11.63737,2.7216 -16.10943,6.4658 -6.99607,5.8575 -13.00008,14.0233 -14.82224,20.1592 -0.85608,2.8827 -1.32122,5.4766 -1.03364,5.7641 1.33441,1.3344 18.04207,-10.3125 24.55937,-17.1203 2.61573,-2.7323 4.25427,-3.5998 6.79966,-3.5998 4.04018,0 8.81372,2.3085 10.22453,4.9446 1.83667,3.4319 1.13959,23.3074 -1.49756,42.6993 l -0.56354,4.144 7.29537,0.7246 c 10.01865,0.995 18.20536,3.6437 32.29537,10.4487 13.43766,6.4899 20.46695,12.6553 22.41095,19.6567 3.13304,11.2838 -1.40473,15.8347 -11.91095,11.9456 z m -113.30094,-43.8169 c 2.36552,-5.3644 4.30094,-9.9769 4.30094,-10.25 0,-0.2731 -3.0375,-0.5076 -6.75,-0.521 -3.7125,-0.013 -8.72189,-0.4791 -11.13198,-1.0347 -2.41008,-0.5557 -4.49916,-0.8822 -4.6424,-0.7256 -0.14323,0.1566 0.80952,7.7097 2.11724,16.7847 1.30771,9.075 2.38429,17.1702 2.3924,17.9893 0.0273,2.7578 9.37501,-12.4034 13.7138,-22.2427 z m 38.94207,5.0528 8.14113,-2.0675 0.69866,-9.3189 c 0.85382,-11.3882 0.15443,-15.413 -2.6783,-15.413 -1.12115,0 -6.04636,1.8047 -10.94491,4.0104 -4.89854,2.2056 -10.87957,4.538 -13.29118,5.183 l -4.38473,1.1728 -5.936,14.6722 -5.93599,14.6721 13.09509,-5.4218 c 7.20231,-2.982 16.75861,-6.3522 21.23623,-7.4893 z m -33.14113,-28.2202 c 3.9645,-1.1069 4.02811,-1.2019 7.16747,-10.7062 6.43344,-19.4771 5.62526,-22.2462 -6.77804,-23.224 l -7.61058,-0.5999 -0.52968,8.2254 c -0.56896,8.8355 -2.99787,16.4807 -7.3025,22.9855 -2.1088,3.1866 -2.37209,4.1699 -1.29644,4.842 1.53912,0.9616 10.41105,0.1353 16.34977,-1.5228 z"
         id="path4966"
         inkscape:connector-curvature="0" />
      <path
         style="fill:#dc8c8f"
         d="m 532.45574,-1530.4556 c -23.75976,-5.8419 -42.35905,-22.5114 -51.45787,-46.1187 l -2.82899,-7.34 0,-167 0,-167 2.67921,-7.3346 c 4.03965,-11.0589 8.44709,-17.7875 17.82079,-27.206 7.05136,-7.0851 10.11906,-9.339 18,-13.2247 17.86026,-8.806 8.14711,-8.2347 140,-8.2347 107.20568,0 117.03691,0.1381 123.22998,1.731 24.45668,6.2903 43.14016,22.8309 52.14185,46.1614 l 3.12817,8.1076 0.28085,163.5 c 0.31106,181.0925 0.66878,170.4024 -6.17719,184.6017 -7.30802,15.1577 -18.58767,26.3608 -34.10366,33.8725 -16.37749,7.9287 -9.02092,7.5348 -139.19741,7.4534 -110.17919,-0.069 -116.17714,-0.1645 -123.51573,-1.9689 z m 249.71314,-4.8235 c 21.02642,-7.1033 34.48171,-18.5408 43.16213,-36.6895 6.67619,-13.9583 6.40843,-5.9383 6.10871,-182.9676 l -0.27084,-159.9781 -2.95718,-8.476 c -5.99802,-17.1917 -18.06029,-30.8432 -34.04282,-38.5279 -16.3991,-7.885 -9.27784,-7.4982 -137.69741,-7.4787 -128.59107,0.019 -121.60709,-0.3666 -137.78086,7.6174 -13.05084,6.4425 -23.95819,17.1971 -29.83917,29.4214 -7.68518,15.9745 -7.27363,5.0405 -6.96125,184.9438 l 0.27869,160.5 2.82292,8 c 8.81831,24.9906 29.69916,42.0141 56.17708,45.7995 1.65,0.2359 54.975,0.3775 118.5,0.3147 l 115.5,-0.1142 7,-2.3648 z m -100.47297,-43.2537 c -11.99957,-2.532 -32.07884,-9.041 -39.61194,-12.8407 l -5.78871,-2.9199 -3.31834,2.9135 c -2.59112,2.275 -3.9493,2.7874 -6.19743,2.3377 -4.51789,-0.9036 -9.34948,1.9552 -11.64078,6.8875 -1.60453,3.454 -2.52618,4.2908 -4.96983,4.5124 -3.77862,0.3427 -8.93474,-2.7782 -10.91424,-6.6062 -0.83124,-1.6074 -2.41718,-6.1914 -3.52431,-10.1866 -1.10713,-3.9952 -2.13902,-7.3901 -2.29307,-7.5442 -0.15406,-0.154 -3.20247,0.4003 -6.77424,1.2319 -9.5533,2.2242 -17.83466,1.4549 -22.4802,-2.0885 -4.13,-3.1501 -6.78942,-8.3808 -6.32042,-12.4315 0.25071,-2.1652 0.7614,-2.5971 2.80648,-2.3732 5.8665,0.6422 30,1.4402 30,0.992 0,-0.2699 -1.14977,-6.0651 -2.55505,-12.8782 -2.57013,-12.4606 -3.60473,-25.0585 -2.17544,-26.4894 1.39361,-1.3953 6.12896,1.0694 8.33013,4.3358 1.34501,1.9958 2.96091,7.4681 4.27775,14.4868 1.16394,6.2036 2.57516,12.9173 3.13605,14.9193 l 1.01981,3.6399 4.23337,-0.9219 c 2.32836,-0.507 9.12906,-2.3471 15.11266,-4.089 l 10.87929,-3.1671 -0.5595,-7.3978 c -0.30772,-4.0688 -0.75665,-7.595 -0.99763,-7.836 -0.24097,-0.241 -2.63487,0.4241 -5.31978,1.478 -4.65902,1.8288 -4.93453,2.1531 -6.04099,7.111 -1.33856,5.998 -1.68452,6.5087 -3.84723,5.6788 -2.26696,-0.87 -6.04102,-9.6483 -8.65801,-20.1383 -1.76621,-7.0797 -2.25435,-11.9467 -2.29005,-22.833 -0.0441,-13.4589 0.0206,-13.8889 2.37758,-15.8003 1.97965,-1.6055 3.35186,-1.8544 7.5,-1.3604 6.83537,0.814 14.81495,-1.3659 43.07704,-11.7676 27.40712,-10.0871 32.22648,-11.3759 36.70373,-9.8151 4.00015,1.3944 7.79627,4.8746 7.79627,7.1474 0,1.8916 -3.6888,6.0939 -8.79559,10.0199 -2.45551,1.8878 -3.66063,3.9315 -4.72759,8.0173 -1.65371,6.3328 -3.45567,24.98 -3.46861,35.8942 l -0.009,7.5 15.75034,0 c 14.64626,0 16.34618,0.1993 24.25034,2.8425 12.10254,4.0473 18.78205,7.4154 23.70501,11.9532 10.78528,9.9416 7.07131,19.081 -13.18434,32.4444 -12.45783,8.2189 -30.00923,15.4198 -40.52067,16.6245 -2.6595,0.3048 -8.37444,-0.3018 -13.97297,-1.4831 z m -58.88782,-22.1032 9.86079,-5.2218 0,-4.3456 c 0,-3.6654 -0.27396,-4.2662 -1.75,-3.8382 -0.9625,0.279 -7.02703,2.1478 -13.47674,4.1528 l -11.72673,3.6454 2.09775,4.1645 c 2.2359,4.4389 3.77795,6.6646 4.61738,6.6646 0.28422,0 4.95412,-2.3498 10.37755,-5.2217 z m 58.13757,2.2788 c 17.64695,-4.5133 31.26961,-11.6955 35.83374,-18.8924 6.78641,-10.7011 2.54211,-12.978 -19.08429,-10.2382 -4.66057,0.5904 -8.81446,1.0735 -9.23087,1.0735 -0.4164,0 -0.48725,1.9688 -0.15743,4.375 0.32981,2.4063 0.0903,5.9184 -0.53221,7.8047 -1.38117,4.185 -8.61521,11.4452 -12.3054,12.35 -2.74417,0.6728 -4.28137,-0.4089 -9.05569,-6.3725 -1.3556,-1.6933 -2.38043,-2.043 -4.5,-1.5355 -4.89801,1.1727 -14.65945,5.9791 -18.15708,8.9403 l -3.41244,2.8892 2.41244,0.6747 c 1.32685,0.3711 8.75297,0.7196 16.50249,0.7744 10.93024,0.077 15.79365,-0.336 21.68674,-1.8432 z m -16.52678,-19.6435 c 2.37403,-1.5402 3.0708,-4.4136 1.07026,-4.4136 -0.64886,0 -6.04886,1.1643 -12,2.5872 l -10.82026,2.5873 0,3.8227 0,3.8228 9.75,-3.4733 c 5.3625,-1.9103 10.7625,-4.1302 12,-4.9331 z m -8.5,-15.9846 10.75,-2.8701 -0.0153,-4.5294 c -0.0269,-7.9488 0.2335,-7.8773 -17.73469,-4.8702 l -6.25,1.046 0,7.5043 c 0,5.5808 0.32041,7.3871 1.25,7.0469 0.6875,-0.2516 6.0875,-1.749 12,-3.3275 z m -26.25,-14.9678 c 1.20238,-0.3464 1.43433,-1.9343 1.16903,-8.003 -0.23127,-5.2901 -0.68316,-7.4229 -1.5,-7.0795 -0.64297,0.2702 -2.85653,1.0418 -4.91903,1.7146 l -3.75,1.2233 0,6.953 0,6.953 3.75,-0.6646 c 2.0625,-0.3656 4.425,-0.8591 5.25,-1.0968 z m 21,-6.9612 c 3.025,-0.8119 7.8241,-1.4816 10.66467,-1.4881 l 5.16468,-0.012 0.33532,-6.5021 c 0.38659,-7.4962 1.39756,-7.0271 -12.59701,-5.8442 -6.61603,0.5593 -7.84607,0.9568 -8.50874,2.75 -1.21956,3.3002 -2.21204,12.5975 -1.34336,12.5844 0.43144,-0.01 3.25944,-0.6762 6.28444,-1.4881 z m -24.86602,-13.6583 3.86602,-1.1583 0,-5.8226 0,-5.8225 -4.75,0.6217 c -2.6125,0.342 -4.90989,0.7558 -5.10531,0.9195 -0.54832,0.4595 0.98042,12.4205 1.58748,12.4205 0.29468,0 2.2755,-0.5212 4.40181,-1.1583 z m 28.36565,-7.8652 c 2.74979,-0.6033 7.02479,-0.9708 9.5,-0.8168 l 4.50037,0.2801 0.59,-5.4699 c 0.3245,-3.0084 0.5495,-5.5311 0.5,-5.6059 -0.0495,-0.075 -5.97648,0.994 -13.17107,2.3751 l -13.08107,2.5112 1.57014,4.3664 c 1.0924,3.0378 2.02985,4.2279 3.08107,3.9115 0.83101,-0.2502 3.76076,-0.9484 6.51056,-1.5517 z m -68.3807,-14.9644 c -9.85239,-1.5116 -14.02178,-3.1374 -17.13287,-6.6808 -3.13741,-3.5733 -4.00603,-8.5746 -1.73606,-9.9959 0.6875,-0.4305 15.78487,-1.0644 33.5497,-1.4088 17.76484,-0.3443 32.71839,-1.0447 33.23011,-1.5564 1.79217,-1.7922 -0.8441,-7.7567 -4.53403,-10.2583 l -3.52256,-2.3881 8.80428,-9.1119 c 4.84236,-5.0115 10.28141,-11.6994 12.08678,-14.8619 1.80538,-3.1625 3.66883,-5.75 4.14102,-5.75 2.20087,0 5.41257,6.6289 5.79881,11.9687 0.38388,5.307 0.16281,5.9532 -4.23368,12.3749 -4.03889,5.8994 -4.55451,7.2243 -3.9876,10.2462 0.7056,3.7612 0.27145,3.7134 8.41717,0.9275 11.21706,-3.8363 14.75697,-28.2193 5.90222,-40.6546 l -2.13988,-3.0052 2.86883,-3.0372 c 1.57786,-1.6704 6.13308,-5.2533 10.12272,-7.9618 6.3761,-4.3288 7.5257,-4.7845 9.5,-3.7661 7.99035,4.1215 12.74611,10.7499 12.74611,17.765 0,5.1884 -5.35956,15.4866 -13.04275,25.0613 -3.27422,4.0803 -5.80596,7.5659 -5.62609,7.7458 0.17986,0.1798 8.28867,-2.6009 18.01958,-6.1794 21.8376,-8.0307 33.61611,-11.4918 39.01113,-11.4631 8.11918,0.043 16.68316,6.11 15.20387,10.7709 -2.06468,6.5052 -12.30135,9.7914 -34.99187,11.2332 -23.30487,1.4807 -28.57205,2.9617 -62.07387,17.4536 -29.91278,12.9393 -29.69505,12.8778 -46.5,13.1356 -7.975,0.1224 -16.92148,-0.1491 -19.88107,-0.6032 z m 165.88107,-94.4486 c -1.925,-0.7126 -10.25,-4.6875 -18.5,-8.833 -22.12414,-11.1171 -23.24838,-11.3808 -42.29578,-9.9211 -29.0768,2.2282 -52.11812,6.7897 -59.25797,11.7311 -1.95456,1.3527 -4.0556,2.4595 -4.66896,2.4595 -0.61337,0 -2.41447,0.7457 -4.00245,1.6571 -1.75387,1.0065 -3.8545,1.4142 -5.35131,1.0385 -4.19435,-1.0527 -11.52532,-6.5135 -14.49285,-10.7956 -3.84625,-5.5502 -3.67077,-9.3472 0.76513,-16.5563 3.28955,-5.346 6.80419,-14.6922 6.80419,-18.0939 0,-0.7681 -2.56601,0.8283 -5.75,3.5774 -14.7678,12.7504 -30.67769,22.344 -45.02863,27.152 -9.49675,3.1817 -22.22137,5.0996 -22.22137,3.3493 0,-0.5284 2.79106,-2.281 6.20235,-3.8946 16.56576,-7.836 33.10452,-19.8558 46.88456,-34.074 13.68572,-14.1208 16.6516,-22.8453 15.60882,-45.9151 l -0.60369,-13.3558 4.55688,-4.0112 c 5.24215,-4.6143 15.02896,-8.7466 17.35108,-7.3262 1.91031,1.1686 6.94582,10.1895 6.97664,12.4984 0.0156,1.1719 0.81271,1.75 2.41289,1.75 6.63573,0 33.20378,-6.4923 43.1892,-10.5539 2.1567,-0.8773 10.27713,-4.7419 18.04541,-8.5882 12.63799,-6.2573 14.90022,-7.0487 21.5,-7.5215 12.98361,-0.9301 28.56736,3.691 33.15118,9.8305 2.42538,3.2486 2.53496,10.9475 0.2064,14.5013 -2.72537,4.1595 -5.83653,4.6777 -17.48172,2.9122 -14.95591,-2.2674 -28.24901,-2.0279 -41.64789,0.7506 -10.04807,2.0837 -11.63737,2.7216 -16.10943,6.4658 -6.99607,5.8575 -13.00008,14.0233 -14.82224,20.1592 -0.85608,2.8827 -1.32122,5.4766 -1.03364,5.7641 1.33441,1.3344 18.04207,-10.3125 24.55937,-17.1203 2.61573,-2.7323 4.25427,-3.5998 6.79966,-3.5998 4.04018,0 8.81372,2.3085 10.22453,4.9446 1.83667,3.4319 1.13959,23.3074 -1.49756,42.6993 l -0.56354,4.144 7.29537,0.7246 c 10.01865,0.995 18.20536,3.6437 32.29537,10.4487 13.43766,6.4899 20.46695,12.6553 22.41095,19.6567 3.13304,11.2838 -1.40473,15.8347 -11.91095,11.9456 z m -113.30094,-43.8169 c 2.36552,-5.3644 4.30094,-9.9769 4.30094,-10.25 0,-0.2731 -3.0375,-0.5076 -6.75,-0.521 -3.7125,-0.013 -8.72189,-0.4791 -11.13198,-1.0347 -2.41008,-0.5557 -4.49916,-0.8822 -4.6424,-0.7256 -0.14323,0.1566 0.80952,7.7097 2.11724,16.7847 1.30771,9.075 2.38429,17.1702 2.3924,17.9893 0.0273,2.7578 9.37501,-12.4034 13.7138,-22.2427 z m 38.94207,5.0528 8.14113,-2.0675 0.69866,-9.3189 c 0.85382,-11.3882 0.15443,-15.413 -2.6783,-15.413 -1.12115,0 -6.04636,1.8047 -10.94491,4.0104 -4.89854,2.2056 -10.87957,4.538 -13.29118,5.183 l -4.38473,1.1728 -5.936,14.6722 -5.93599,14.6721 13.09509,-5.4218 c 7.20231,-2.982 16.75861,-6.3522 21.23623,-7.4893 z m -33.14113,-28.2202 c 3.9645,-1.1069 4.02811,-1.2019 7.16747,-10.7062 6.43344,-19.4771 5.62526,-22.2462 -6.77804,-23.224 l -7.61058,-0.5999 -0.52968,8.2254 c -0.56896,8.8355 -2.99787,16.4807 -7.3025,22.9855 -2.1088,3.1866 -2.37209,4.1699 -1.29644,4.842 1.53912,0.9616 10.41105,0.1353 16.34977,-1.5228 z"
         id="path4964"
         inkscape:connector-curvature="0" />
      <path
         style="fill:#cb5258"
         d="m 532.45574,-1530.4556 c -23.75976,-5.8419 -42.35905,-22.5114 -51.45787,-46.1187 l -2.82899,-7.34 0,-167 0,-167 2.67921,-7.3346 c 4.03965,-11.0589 8.44709,-17.7875 17.82079,-27.206 7.05136,-7.0851 10.11906,-9.339 18,-13.2247 17.86026,-8.806 8.14711,-8.2347 140,-8.2347 107.20568,0 117.03691,0.1381 123.22998,1.731 24.45668,6.2903 43.14016,22.8309 52.14185,46.1614 l 3.12817,8.1076 0.28085,163.5 c 0.31106,181.0925 0.66878,170.4024 -6.17719,184.6017 -7.30802,15.1577 -18.58767,26.3608 -34.10366,33.8725 -16.37749,7.9287 -9.02092,7.5348 -139.19741,7.4534 -110.17919,-0.069 -116.17714,-0.1645 -123.51573,-1.9689 z m 249.71314,-4.8235 c 21.02642,-7.1033 34.48171,-18.5408 43.16213,-36.6895 6.67619,-13.9583 6.40843,-5.9383 6.10871,-182.9676 l -0.27084,-159.9781 -2.95718,-8.476 c -5.99802,-17.1917 -18.06029,-30.8432 -34.04282,-38.5279 -16.3991,-7.885 -9.27784,-7.4982 -137.69741,-7.4787 -128.59107,0.019 -121.60709,-0.3666 -137.78086,7.6174 -13.05084,6.4425 -23.95819,17.1971 -29.83917,29.4214 -7.68518,15.9745 -7.27363,5.0405 -6.96125,184.9438 l 0.27869,160.5 2.82292,8 c 8.81831,24.9906 29.69916,42.0141 56.17708,45.7995 1.65,0.2359 54.975,0.3775 118.5,0.3147 l 115.5,-0.1142 7,-2.3648 z m -177.23031,-43.6178 c -4.30447,-1.8713 -6.56716,-5.8739 -8.76808,-15.5103 -2.04887,-8.9708 -1.66147,-8.7424 -11.00161,-6.4871 -10.32008,2.4919 -17.26632,1.4476 -22.7071,-3.4137 -2.62891,-2.349 -3.174,-3.6567 -3.58376,-8.5979 -0.44573,-5.3748 -0.33822,-5.7719 1.38388,-5.1111 7.12158,2.7328 30.41189,2.942 30.40315,0.2731 -0.002,-0.6437 -1.11659,-6.7954 -2.47662,-13.6704 -2.53427,-12.8108 -3.23153,-23.4419 -1.60347,-24.4481 1.51526,-0.9365 5.87972,1.2035 7.45104,3.6535 0.80944,1.262 2.90152,9.2696 4.64907,17.7946 1.74754,8.525 3.35825,15.687 3.57936,15.9154 0.50581,0.5228 23.51267,-5.5168 27.75488,-7.286 l 3.14957,-1.3134 -0.329,-7.658 c -0.21471,-4.9975 -0.73583,-7.6577 -1.5,-7.6572 -0.64405,5e-4 -3.421,0.8534 -6.171,1.8953 -4.77754,1.8102 -5.0234,2.0883 -5.52594,6.2492 -0.70204,5.8127 -1.59199,7.1296 -3.96137,5.8615 -5.99937,-3.2108 -13.30498,-42.0042 -10.11216,-53.6965 1.33411,-4.8856 3.02288,-5.7117 11.09947,-5.4298 7.10944,0.2482 12.66913,-1.2789 36.08622,-9.9123 35.19557,-12.9758 39.28368,-13.8692 45.66378,-9.9792 2.52695,1.5407 3.25,2.6624 3.25,5.0418 0,3.0959 -0.98248,4.3573 -8.22709,10.5623 -5.48275,4.6961 -7.68662,15.7193 -7.74203,38.7238 l -0.0309,12.8169 10.25,-0.6847 c 11.9148,-0.7959 20.9385,0.3608 32.33873,4.1452 10.32836,3.4286 18.34293,7.7082 22.53482,12.0332 3.03214,3.1283 3.37645,4.0643 3.37645,9.178 0,4.3222 -0.54811,6.4629 -2.27439,8.8831 -3.73728,5.2396 -14.92751,13.0105 -28.42577,19.74 -15.08979,7.5229 -24.32692,10.0915 -33.28272,9.2552 -11.87256,-1.1087 -37.61287,-8.6699 -48.82056,-14.3411 l -4.80344,-2.4306 -3.02329,2.544 c -2.12853,1.791 -4.19908,2.5439 -6.99622,2.5439 -5.85512,0 -9.47284,2.3056 -11.77144,7.5019 -2.20651,4.9882 -4.01726,5.5436 -9.83248,3.0155 z m 18.23031,-21.8056 10,-5.2118 0.3075,-4.25 c 0.25699,-3.552 0.0106,-4.2465 -1.5,-4.2284 -2.95916,0.035 -25.65434,7.5189 -26.00652,8.5754 -0.39302,1.1791 5.33631,10.4188 6.427,10.3648 0.42461,-0.021 5.27202,-2.3835 10.77202,-5.25 z m 61.69945,1.6654 c 16.4815,-5.2065 27.1613,-11.1316 31.92994,-17.7145 3.6578,-5.0495 3.75554,-9.0368 0.27737,-11.3157 -2.36865,-1.5521 -3.64607,-1.5861 -14.75,-0.3938 -6.68622,0.7179 -12.71926,1.5203 -13.40676,1.783 -0.80618,0.3082 -1.25,2.5878 -1.25,6.4204 0,3.2685 -0.65201,7.2036 -1.44892,8.7446 -2.27655,4.4024 -8.21984,9.0988 -11.51445,9.0988 -2.91633,0 -3.62561,-0.4925 -7.85858,-5.4573 -2.56506,-3.0086 -3.29185,-2.9805 -12.46878,0.4805 -2.8651,1.0806 -7.44115,3.8799 -10.169,6.2207 l -4.95974,4.2561 8.95974,0.6275 c 15.30704,1.072 27.44127,0.1616 36.65918,-2.7503 z m -34.56851,-12.8953 c 11.30438,-4.1441 16.17834,-6.6446 16.67833,-8.5565 0.26026,-0.9953 0.27578,-2.007 0.0345,-2.2483 -0.41483,-0.4149 -13.44509,2.2433 -21.59374,4.4051 -3.53483,0.9378 -3.75,1.2222 -3.75,4.9563 0,2.1788 0.39642,3.9615 0.88094,3.9615 0.48452,0 3.97202,-1.1332 7.75,-2.5181 z m 7.05528,-22.0138 10.18621,-2.7496 -0.52068,-5.1093 c -0.28638,-2.81 -0.66894,-5.6076 -0.85013,-6.2166 -0.23756,-0.7986 -3.06035,-0.7295 -10.12039,0.2476 -14.35062,1.9861 -13.38123,1.2585 -13.38123,10.0438 0,8.7197 -1.84111,8.2453 14.68622,3.7841 z m -26.5014,-22.4934 c -0.17336,-4.0911 -0.48352,-7.6067 -0.68925,-7.8125 -0.20573,-0.2057 -2.4264,0.4098 -4.93481,1.3678 l -4.56076,1.7417 0,7.2566 0,7.2566 5.25,-1.1859 5.25,-1.186 -0.31518,-7.4383 z m 31.56518,-0.6585 c 3.80339,0.3921 4.25091,0.2146 4.25869,-1.689 0.005,-1.17 0.28668,-4.4408 0.62643,-7.2686 l 0.61774,-5.1414 -4.37643,0.3706 c -20.38019,1.726 -18.43455,0.6429 -19.47974,10.8445 l -0.65644,6.4072 7.37988,-1.9807 c 4.27756,-1.1481 9.16646,-1.7965 11.62987,-1.5426 z m -35.43612,-12.3864 3.81388,-1.0591 -0.68908,-5.6853 c -0.37899,-3.127 -0.82893,-5.8441 -0.99986,-6.038 -0.17092,-0.194 -2.5638,-0.043 -5.3175,0.3359 l -5.00673,0.6886 0.52717,5.1641 c 0.87344,8.5558 0.80821,8.4998 7.67212,6.5938 z m 24.68612,-7.0232 c 2.475,-0.5744 7.25645,-1.0637 10.62544,-1.0871 l 6.12543,-0.043 0.64991,-5.5297 c 0.35745,-3.0414 0.45241,-5.7273 0.21102,-5.9687 -0.35573,-0.3557 -13.61085,1.9682 -24.30786,4.2618 -1.99002,0.4266 -2.09903,0.7752 -1.16193,3.7153 0.56878,1.7845 1.20538,3.807 1.41468,4.4945 0.45383,1.4907 0.67255,1.496 6.44331,0.1566 z m -57.5,-15.4762 c -16.18155,-2.1495 -19.66867,-2.8548 -22.4354,-4.5373 -3.45405,-2.1005 -6.492,-7.9711 -5.59213,-10.8064 0.51392,-1.6192 3.16403,-1.8234 31.79409,-2.4505 17.17839,-0.3763 32.51979,-0.9601 34.092,-1.2975 2.62656,-0.5636 2.81289,-0.8947 2.29594,-4.0803 -0.38188,-2.3533 -1.78199,-4.5215 -4.35856,-6.7497 l -3.79594,-3.2827 8.5377,-8.863 c 4.69573,-4.8746 10.09573,-11.4377 12,-14.5846 1.90426,-3.1469 3.80641,-5.7344 4.227,-5.75 1.25749,-0.047 4.68308,6.226 5.36178,9.8181 0.8415,4.4536 -0.89083,9.8596 -5.13803,16.034 -3.30205,4.8003 -4.17404,8.1693 -2.94407,11.3746 0.45476,1.185 1.54927,1.075 6.64832,-0.6682 6.03816,-2.0644 6.14033,-2.1631 9.4815,-9.1576 1.85766,-3.8889 3.6447,-9.3263 3.97119,-12.083 0.71434,-6.0315 -1.44968,-14.3052 -5.1789,-19.8005 l -2.57771,-3.7985 2.30561,-2.4948 c 3.74603,-4.0534 15.9454,-12.2525 18.2303,-12.2525 3.11681,0 9.04223,4.4014 11.6874,8.6814 4.84122,7.8332 2.23124,17.8236 -8.20453,31.4051 -2.71043,3.5274 -5.85406,7.651 -6.98585,9.1634 l -2.05781,2.75 8.31805,-3.0992 c 19.64601,-7.3199 33.68971,-12.1129 41.17986,-14.0544 6.9662,-1.8058 8.71014,-1.9247 13.26823,-0.9046 7.06406,1.5809 10.36996,4.2829 10.36996,8.4759 0,7.6834 -9.06592,10.6482 -38.34614,12.5403 -18.96166,1.2252 -25.27115,3.0841 -57.43217,16.9204 -28.822,12.3999 -31.56087,13.2343 -44.72169,13.6245 -6.05,0.1794 -12.35,0.1468 -14,-0.072 z m 158.5,-94.8655 c -1.925,-0.7118 -10.25364,-4.6783 -18.50809,-8.8146 -8.25445,-4.1363 -18.09099,-8.4727 -21.85899,-9.6365 -6.73934,-2.0816 -7.13002,-2.0909 -23.99191,-0.5731 -31.2583,2.8138 -50.33762,6.8379 -57.18594,12.0614 -1.72912,1.3188 -4.11388,2.3979 -5.29946,2.3979 -1.18559,0 -2.15561,0.45 -2.15561,1 0,0.55 -1.94785,1 -4.32856,1 -9.14637,0 -19.51073,-10.706 -18.39772,-19.0041 0.28787,-2.1462 1.54534,-5.3374 2.79438,-7.0915 3.08494,-4.3324 6.87914,-13.7808 6.90816,-17.2029 0.0234,-2.7578 -0.0808,-2.7104 -7.17538,3.2615 -9.6475,8.1208 -22.13788,16.3324 -32.11094,21.111 -11.56259,5.5401 -33.76255,10.932 -33.6628,8.176 0.0149,-0.4125 3.58595,-2.4342 7.9356,-4.4927 13.11019,-6.2044 28.12712,-16.9741 41.07624,-29.4586 9.89702,-9.5419 12.57932,-12.7784 15.47356,-18.6707 4.80581,-9.7841 6.24603,-20.2956 4.64752,-33.92 l -1.18213,-10.0755 2.76103,-2.9419 c 3.33193,-3.5501 13.69559,-8.6887 17.52574,-8.6898 3.08046,-9e-4 5.89791,3.6502 7.90902,10.2492 1.07843,3.5386 1.37352,3.7495 5.23457,3.7409 5.36638,-0.012 22.91717,-4.0262 34.35178,-7.8571 4.99985,-1.6751 15.53673,-6.298 23.41529,-10.2732 14.32158,-7.2259 14.32668,-7.2276 23.89136,-7.653 10.78202,-0.4795 18.03109,0.7192 25.61822,4.2365 7.56888,3.5088 10.00733,9.403 7.20988,17.4278 -1.97416,5.6631 -5.50233,6.2056 -22.96868,3.5323 -12.39991,-1.8979 -23.14518,-1.406 -37.89406,1.7345 l -10.23574,2.1796 -7.24562,7.0908 c -7.94129,7.7717 -12.01627,13.9853 -13.11778,20.0022 -0.65148,3.5586 -0.54549,3.8473 1.17551,3.2015 4.52526,-1.6982 12.87481,-7.4919 19.89021,-13.8015 4.16519,-3.7462 8.44783,-6.8113 9.51697,-6.8113 4.23379,0 9.7902,3.117 11.07178,6.211 1.21515,2.9336 0.65792,15.8207 -1.76775,40.8826 l -0.54139,5.5937 8.369,0.5906 c 9.31948,0.6577 18.18003,3.4636 32.35273,10.2453 15.43366,7.3852 21.5,14.3648 21.5,24.737 0,2.9369 -0.54,5.8798 -1.2,6.5398 -1.51843,1.5184 -5.30322,1.4276 -9.8,-0.2351 z m -121.8826,-29.0649 c 4.15082,-6.4451 11.8826,-22.4417 11.8826,-24.5843 0,-0.5036 -1.8263,-0.9157 -4.05845,-0.9157 -2.23214,0 -7.21707,-0.4901 -11.0776,-1.0891 -3.86054,-0.5989 -7.23204,-0.8761 -7.49223,-0.616 -0.51373,0.5138 2.04277,20.627 3.81488,30.0135 0.60313,3.1946 1.39495,5.4446 1.75962,5 0.36466,-0.4446 2.6917,-3.9584 5.17118,-7.8084 z m 29.3826,-3.6778 c 3.85,-1.6559 11.05,-4.0464 16,-5.3122 10.44785,-2.6718 10.18483,-2.249 10.38169,-16.6886 0.0898,-6.5854 -0.25163,-9.0485 -1.41551,-10.2124 -1.65403,-1.654 -2.0788,-1.5587 -10.96618,2.4593 -2.75,1.2433 -8.29342,3.424 -12.31872,4.8461 l -7.31871,2.5856 -5.93129,14.4865 c -3.2622,7.9676 -5.93128,14.5985 -5.93128,14.7354 0,0.3205 8.55718,-3.0533 17.5,-6.8997 z m -15.28499,-33.8568 c 3.6232,-1.0144 3.79091,-1.277 6.7863,-10.628 4.10466,-12.8139 4.64001,-17.1965 2.58584,-21.1689 l -1.63851,-3.1685 -8.44932,0 -8.44932,0 0.5812,2.906 c 1.37339,6.867 -5.36747,28.9589 -9.64229,31.6009 -4.16559,2.5744 9.44564,2.9169 18.2261,0.4585 z"
         id="path4962"
         inkscape:connector-curvature="0" />
      <path
         style="fill:#777777"
         d="m 532.45574,-1530.4556 c -23.75976,-5.8419 -42.35905,-22.5114 -51.45787,-46.1187 l -2.82899,-7.34 0,-167 0,-167 2.67921,-7.3346 c 4.03965,-11.0589 8.44709,-17.7875 17.82079,-27.206 7.05136,-7.0851 10.11906,-9.339 18,-13.2247 17.86026,-8.806 8.14711,-8.2347 140,-8.2347 107.20568,0 117.03691,0.1381 123.22998,1.731 24.45668,6.2903 43.14016,22.8309 52.14185,46.1614 l 3.12817,8.1076 0.28085,163.5 c 0.31106,181.0925 0.66878,170.4024 -6.17719,184.6017 -7.30802,15.1577 -18.58767,26.3608 -34.10366,33.8725 -16.37749,7.9287 -9.02092,7.5348 -139.19741,7.4534 -110.17919,-0.069 -116.17714,-0.1645 -123.51573,-1.9689 z m 249.71314,-4.8235 c 21.02642,-7.1033 34.48171,-18.5408 43.16213,-36.6895 6.67619,-13.9583 6.40843,-5.9383 6.10871,-182.9676 l -0.27084,-159.9781 -2.95718,-8.476 c -5.99802,-17.1917 -18.06029,-30.8432 -34.04282,-38.5279 -16.3991,-7.885 -9.27784,-7.4982 -137.69741,-7.4787 -128.59107,0.019 -121.60709,-0.3666 -137.78086,7.6174 -13.05084,6.4425 -23.95819,17.1971 -29.83917,29.4214 -7.68518,15.9745 -7.27363,5.0405 -6.96125,184.9438 l 0.27869,160.5 2.82292,8 c 8.81831,24.9906 29.69916,42.0141 56.17708,45.7995 1.65,0.2359 54.975,0.3775 118.5,0.3147 l 115.5,-0.1142 7,-2.3648 z m -177,-43.9958 c -5.04015,-3.1132 -6.45748,-5.4943 -8.80987,-14.8003 l -2.26275,-8.9513 -4.96369,1.3561 c -2.73003,0.7458 -8.11369,1.446 -11.96369,1.5561 -11.7235,0.335 -18.48798,-4.7645 -18.49626,-13.9437 l -0.004,-4.1437 4.25,1.0377 c 4.85969,1.1865 26.22259,1.6098 27.29207,0.5407 0.39011,-0.39 -0.47227,-6.823 -1.91639,-14.2956 -2.47486,-12.8061 -3.35144,-23.4363 -2.04067,-24.7471 1.25546,-1.2554 6.55205,1.6161 7.94328,4.3064 0.80713,1.5608 2.85206,9.4956 4.54428,17.6329 1.69222,8.1373 3.27003,14.9883 3.50623,15.2245 0.61901,0.619 9.35055,-1.4842 21.21244,-5.1095 7.66964,-2.344 10.15336,-3.5046 9.75,-4.5557 -0.29768,-0.7758 -0.54124,-4.5102 -0.54124,-8.2987 l 0,-6.8882 -6.23814,2.2234 -6.23814,2.2235 -0.67177,4.6963 c -0.87165,6.0935 -1.5933,7.2564 -3.51407,5.6623 -5.36983,-4.4566 -10.64678,-25.3061 -10.7588,-42.5085 -0.10014,-15.3768 0.46613,-16.2693 10.27547,-16.1956 8.64384,0.065 15.28289,-1.7403 39.03914,-10.615 32.97587,-12.3189 37.65475,-13.3385 43.85631,-9.5574 5.29068,3.2258 4.56775,6.7275 -2.6926,13.0424 -5.5894,4.8615 -6.04209,5.5936 -7.61656,12.3186 -1.04857,4.4788 -1.8666,13.5364 -2.18961,24.2446 l -0.51566,17.0947 14.38221,-0.064 c 15.34439,-0.068 20.71561,0.8999 33.88222,6.106 17.55075,6.9397 24.40335,15.7865 19.52909,25.2122 -6.29469,12.1726 -43.56694,32.0841 -59.98919,32.0472 -9.18506,-0.021 -37.27734,-7.8999 -50.26488,-14.0983 l -6.27471,-2.9946 -3.34455,2.551 c -2.25174,1.7175 -4.62066,2.5558 -7.25015,2.5657 -5.33487,0.02 -8.58822,1.861 -10.60237,5.9992 -3.21952,6.6147 -5.07242,7.3566 -10.30324,4.1255 z m 18.63921,-21.3611 9.86079,-5.2218 0,-4.8456 c 0,-4.157 -0.24871,-4.7678 -1.75,-4.2977 -19.95808,6.2494 -24.89008,7.9035 -25.6109,8.5894 -1.19087,1.1332 4.33355,10.9974 6.15904,10.9974 0.81416,0 5.91764,-2.3498 11.34107,-5.2217 z m 50.86079,4.1534 c 19.98089,-3.2373 40.58523,-14.3468 44.3852,-23.9317 3.15702,-7.9631 -1.11753,-9.9182 -17.6163,-8.0572 -14.62575,1.6497 -13.7689,1.1223 -13.7689,8.4745 0,5.322 -0.4363,6.8849 -2.85336,10.2216 -6.08564,8.401 -11.29598,9.4856 -16.14664,3.3611 -3.64595,-4.6034 -4.8139,-4.7755 -12.71249,-1.8738 -5.59976,2.0571 -16.28751,9.2467 -16.28751,10.9565 0,0.752 3.25022,0.9928 23,1.7041 3.025,0.109 8.425,-0.2758 12,-0.8551 z m -22.32968,-16.0421 c 11.46688,-4.0395 14.04617,-5.421 14.85012,-7.954 0.36419,-1.1475 0.49418,-2.2543 0.28885,-2.4597 -0.38101,-0.381 -14.30599,2.5037 -21.7104,4.4975 -3.92298,1.0563 -4.09889,1.2737 -4.09889,5.0651 0,2.1788 0.41414,3.9615 0.92032,3.9615 0.50618,0 4.89368,-1.3997 9.75,-3.1104 z m 14.58523,-30.2971 c -0.28943,-3.3509 -0.60422,-6.1939 -0.69955,-6.3178 -0.22617,-0.2941 -20.67568,2.668 -22.306,3.2309 -0.8572,0.296 -1.25,2.8987 -1.25,8.2824 l 0,7.8509 12.39089,-3.4769 12.39089,-3.477 -0.52623,-6.0925 z m -37.37865,-5.7647 c 2.29969,-0.8464 2.35378,-1.1095 1.66543,-8.1013 -0.3913,-3.9746 -0.88837,-7.404 -1.1046,-7.6209 -0.21623,-0.2169 -2.42817,0.3828 -4.91544,1.3327 l -4.52229,1.7271 0,7.3923 0,7.3923 3.25,-0.6237 c 1.7875,-0.3431 4.3196,-1.0174 5.6269,-1.4985 z m 24.1231,-7.4353 c 3.575,-0.8595 7.90801,-1.3366 9.62892,-1.0601 l 3.12892,0.5026 0.69115,-7.0141 c 0.38013,-3.8578 0.54712,-7.1411 0.37108,-7.2963 -0.69597,-0.6138 -21.15919,1.4173 -21.87125,2.1708 -0.4182,0.4425 -1.17538,4.0994 -1.68264,8.1263 -0.89922,7.1386 -0.87033,7.3068 1.15577,6.7276 1.14293,-0.3268 5.00305,-1.2973 8.57805,-2.1568 z m -23.37624,-14.6829 c 0.23481,-0.2348 0.12857,-2.9655 -0.2361,-6.0683 -0.72241,-6.1466 -1.18845,-6.4311 -8.22736,-5.0234 -3.02061,0.6042 -3.07787,0.7216 -2.56045,5.25 1.09488,9.5824 0.80659,9.2151 6.00512,7.6506 2.52553,-0.7601 4.78398,-1.5741 5.01879,-1.8089 z m 21.38284,-5.7357 c 1.92137,-0.5644 6.48295,-1.0456 10.13685,-1.0695 l 6.64346,-0.043 0.68902,-5.5147 c 0.37896,-3.0331 0.49102,-5.7127 0.24902,-5.9547 -0.242,-0.242 -6.24161,0.6313 -13.33247,1.9408 -11.43832,2.1122 -12.85631,2.5943 -12.57183,4.2742 1.38583,8.1832 1.55511,8.3149 8.18595,6.3673 z m -62.20813,-16.0553 c -14.65991,-1.5521 -21.06862,-4.4473 -22.63843,-10.2271 -1.75498,-6.4616 -2.50008,-6.2981 32.03823,-7.0302 17.21595,-0.3649 32.36254,-0.9532 33.65909,-1.3071 3.60229,-0.9835 2.34643,-6.8932 -2.30658,-10.8542 l -3.52414,-3 7.62068,-8 c 4.19137,-4.4 9.65259,-11.1077 12.13604,-14.906 4.25137,-6.5022 4.60055,-6.7945 5.97273,-5 2.32122,3.0357 4.24577,8.1065 4.22195,11.1239 -0.028,3.541 -2.90509,9.8775 -6.32342,13.9265 -1.89136,2.2402 -2.65462,4.2768 -2.65462,7.0833 0,2.1664 0.25901,4.198 0.57557,4.5145 0.31657,0.3166 3.28151,-0.3382 6.58876,-1.4551 4.49205,-1.517 6.50087,-2.822 7.94107,-5.1589 2.68622,-4.3587 5.8946,-15.0805 5.8946,-19.6986 0,-4.7112 -2.38317,-11.9922 -5.58578,-17.0655 l -2.38498,-3.778 5.62766,-4.5843 c 3.09521,-2.5213 7.60046,-5.7404 10.01167,-7.1535 3.89082,-2.2801 4.71734,-2.4311 7.34692,-1.3419 4.1796,1.7313 9.68679,8.1743 10.92846,12.7854 1.9285,7.1619 -2.06707,16.1165 -13.5225,30.3055 -3.50911,4.3465 -6.14298,7.9027 -5.85304,7.9027 0.28995,0 8.71817,-2.9781 18.72938,-6.618 34.90148,-12.6896 41.46949,-13.942 49.44132,-9.4269 4.52015,2.5601 5.79391,4.7851 4.86293,8.4944 -1.35263,5.3893 -13.6702,9.0697 -33.72902,10.078 -22.70336,1.1412 -27.68969,2.5614 -64.87302,18.4776 -11.825,5.0617 -24.83448,10.0562 -28.90996,11.099 -7.84843,2.0081 -17.61619,2.2623 -31.29157,0.8145 z m 161.20153,-95.3203 c -3.025,-1.2744 -11.8,-5.5095 -19.5,-9.4113 -20.0362,-10.1528 -21.88525,-10.5225 -43.26128,-8.6502 -29.54114,2.5876 -49.63214,6.8352 -57.43,12.1418 -2.0302,1.3816 -4.11672,2.2491 -4.63669,1.9277 -0.51998,-0.3214 -1.5015,0.086 -2.18117,0.9047 -2.75455,3.3191 -11.84332,0.5694 -17.0875,-5.1694 -7.03704,-7.7009 -7.47853,-11.2209 -2.4527,-19.5555 3.86549,-6.4104 6.54934,-13.5609 6.54934,-17.4492 l 0,-2.5932 -3.25,2.6531 c -18.88756,15.419 -33.25052,24.3462 -46.13862,28.6771 -8.87131,2.9811 -20.657,5.4109 -22.79261,4.699 -0.69156,-0.2305 3.67881,-2.9915 9.71192,-6.1356 15.20398,-7.9232 28.02218,-17.3 40.5147,-29.6373 11.87717,-11.7296 14.96137,-16.8267 17.5618,-29.0236 1.54871,-7.264 1.47387,-20.4891 -0.16152,-28.5444 -0.85918,-4.232 2.69765,-8.2434 10.8816,-12.2724 9.89844,-4.8729 11.2084,-4.5381 15.00291,3.8352 l 3.16982,6.9947 4.5,-0.016 c 12.14826,-0.044 36.58413,-7.6816 56.94678,-17.7986 l 15.44678,-7.6745 12.55322,0.056 c 10.56432,0.047 13.45468,0.4111 18.24289,2.2992 10.0696,3.9708 13.70129,10.4222 10.70515,19.017 -1.96844,5.6466 -5.96826,6.2695 -22.65559,3.5281 -11.77954,-1.9351 -23.4306,-1.4467 -38.23923,1.6029 l -10.5,2.1623 -6.33395,6.1674 c -3.48367,3.3921 -7.58403,7.9674 -9.11191,10.1674 -2.61054,3.7589 -6.46136,14.4261 -5.54029,15.3472 1.01876,1.0187 15.09326,-8.5203 21.945,-14.8733 4.13676,-3.8356 8.08833,-6.9714 8.78126,-6.9683 3.52208,0.016 8.89927,2.3561 10.7144,4.6637 1.46554,1.8631 2.04549,4.076 2.04549,7.8049 0,5.9154 -2.77443,36.1889 -3.54056,38.6335 -0.42651,1.3608 0.76597,1.6891 7.76835,2.1386 9.40936,0.604 17.1551,2.9641 30.72384,9.3616 17.3999,8.2038 24.04837,15.2913 24.04837,25.6364 0,8.0104 -3.38539,9.4047 -13,5.354 z m -120.56758,-26.602 c 2.63199,-3.8521 6.68637,-11.3896 9.00972,-16.75 l 4.22428,-9.7463 -8.46548,-0.7395 c -4.65601,-0.4068 -9.98096,-1.158 -11.83321,-1.6694 -2.95199,-0.8151 -3.36773,-0.6997 -3.36773,0.9347 0,3.9741 4.789,34.9742 5.40294,34.9742 0.13422,0 2.39748,-3.1517 5.02948,-7.0037 z m 27.69351,-3.9028 c 6.94427,-2.8164 15.93809,-5.9619 19.98628,-6.99 8.68799,-2.2063 8.64202,-2.1214 8.78811,-16.2311 0.11274,-10.8893 -0.63971,-12.3811 -5.53658,-10.9767 -1.63932,0.4701 -4.52929,1.671 -6.42216,2.6687 -1.89287,0.9976 -7.22918,3.1912 -11.85848,4.8747 l -8.41689,3.0609 -5.32474,13 c -6.8032,16.6096 -6.90782,16.9363 -5.20687,16.2585 0.75097,-0.2993 7.04707,-2.8485 13.99133,-5.665 z m -12.91424,-35.0946 c 3.65456,-1.0553 3.76615,-1.2402 7.25,-12.0168 3.84081,-11.8809 4.16494,-14.6072 2.33742,-19.6611 l -1.20089,-3.321 -8.54911,6e-4 -8.54911,6e-4 -0.1157,6.8683 c -0.13987,8.3036 -2.54692,16.3951 -6.95869,23.3921 -2.36357,3.7487 -2.95334,5.4383 -2.10467,6.0296 1.43677,1.0012 12.78721,0.1813 17.89075,-1.2923 z"
         id="path4960"
         inkscape:connector-curvature="0" />
      <path
         style="fill:#ba1920"
         d="m 537.16888,-1529.8977 c -14.23038,-2.7061 -26.51657,-8.9196 -37.0052,-18.7148 -11.63414,-10.865 -19.25035,-24.8248 -21.4878,-39.385 -0.72632,-4.7265 -0.97488,-57.7403 -0.78495,-167.4168 l 0.27795,-160.5 2.72441,-8 c 6.95341,-20.4181 21.77984,-36.0793 41.8187,-44.1734 13.67138,-5.5221 10.30901,-5.3972 137.25751,-5.1005 l 117.19938,0.2739 7.66665,2.6173 c 27.45314,9.3723 45.66144,30.3892 49.83694,57.5243 0.71642,4.6558 0.9656,58.0817 0.77588,166.3584 l -0.27947,159.5 -2.34867,7 c -4.28153,12.7607 -8.94625,20.3538 -18.12295,29.5 -9.50639,9.4747 -19.04199,15.1802 -32.02838,19.1637 l -7.5,2.3006 -115.5,0.1917 c -92.61421,0.1538 -116.88702,-0.072 -122.5,-1.1394 z m 242.87676,-4.4851 c 19.07449,-4.8784 36.34256,-18.4933 44.44713,-35.0439 7.72638,-15.7783 7.17781,-1.8791 7.16133,-181.4477 -0.0164,-178.2031 0.38616,-167.0352 -6.52522,-181.0443 -6.58272,-13.343 -17.05534,-23.6722 -30.96,-30.5362 -16.13377,-7.9644 -6.82531,-7.4594 -137.5,-7.4594 -129.74943,0 -121.11256,-0.4355 -136.5,6.8827 -14.41523,6.8559 -25.21993,17.3558 -32.02042,31.1173 -6.95584,14.0758 -6.53113,1.6183 -6.24136,183.0703 l 0.26178,163.9297 2.66954,7.3068 c 4.95806,13.5707 15.62185,26.7653 27.88147,34.4986 6.96233,4.3917 11.58521,6.3635 20.44899,8.7219 6.63051,1.7643 13.12777,1.8655 123.09004,1.9176 112.29454,0.053 116.34167,-0.01 123.78672,-1.9134 z m -174.87676,-44.8921 c -5.04015,-3.1132 -6.45748,-5.4943 -8.80987,-14.8003 l -2.26275,-8.9513 -4.96369,1.3561 c -2.73003,0.7458 -8.11369,1.446 -11.96369,1.5561 -11.7235,0.335 -18.48798,-4.7645 -18.49626,-13.9437 l -0.004,-4.1437 4.25,1.0377 c 4.85969,1.1865 26.22259,1.6098 27.29207,0.5407 0.39011,-0.39 -0.47227,-6.823 -1.91639,-14.2956 -2.47486,-12.8061 -3.35144,-23.4363 -2.04067,-24.7471 1.25546,-1.2554 6.55205,1.6161 7.94328,4.3064 0.80713,1.5608 2.85206,9.4956 4.54428,17.6329 1.69222,8.1373 3.27003,14.9883 3.50623,15.2245 0.61901,0.619 9.35055,-1.4842 21.21244,-5.1095 7.66964,-2.344 10.15336,-3.5046 9.75,-4.5557 -0.29768,-0.7758 -0.54124,-4.5102 -0.54124,-8.2987 l 0,-6.8882 -6.23814,2.2234 -6.23814,2.2235 -0.67177,4.6963 c -0.87165,6.0935 -1.5933,7.2564 -3.51407,5.6623 -5.36983,-4.4566 -10.64678,-25.3061 -10.7588,-42.5085 -0.10014,-15.3768 0.46613,-16.2693 10.27547,-16.1956 8.64384,0.065 15.28289,-1.7403 39.03914,-10.615 32.97587,-12.3189 37.65475,-13.3385 43.85631,-9.5574 5.29068,3.2258 4.56775,6.7275 -2.6926,13.0424 -5.5894,4.8615 -6.04209,5.5936 -7.61656,12.3186 -1.04857,4.4788 -1.8666,13.5364 -2.18961,24.2446 l -0.51566,17.0947 14.38221,-0.064 c 15.34439,-0.068 20.71561,0.8999 33.88222,6.106 17.55075,6.9397 24.40335,15.7865 19.52909,25.2122 -6.29469,12.1726 -43.56694,32.0841 -59.98919,32.0472 -9.18506,-0.021 -37.27734,-7.8999 -50.26488,-14.0983 l -6.27471,-2.9946 -3.34455,2.551 c -2.25174,1.7175 -4.62066,2.5558 -7.25015,2.5657 -5.33487,0.02 -8.58822,1.861 -10.60237,5.9992 -3.21952,6.6147 -5.07242,7.3566 -10.30324,4.1255 z m 18.63921,-21.3611 9.86079,-5.2218 0,-4.8456 c 0,-4.157 -0.24871,-4.7678 -1.75,-4.2977 -19.95808,6.2494 -24.89008,7.9035 -25.6109,8.5894 -1.19087,1.1332 4.33355,10.9974 6.15904,10.9974 0.81416,0 5.91764,-2.3498 11.34107,-5.2217 z m 50.86079,4.1534 c 19.98089,-3.2373 40.58523,-14.3468 44.3852,-23.9317 3.15702,-7.9631 -1.11753,-9.9182 -17.6163,-8.0572 -14.62575,1.6497 -13.7689,1.1223 -13.7689,8.4745 0,5.322 -0.4363,6.8849 -2.85336,10.2216 -6.08564,8.401 -11.29598,9.4856 -16.14664,3.3611 -3.64595,-4.6034 -4.8139,-4.7755 -12.71249,-1.8738 -5.59976,2.0571 -16.28751,9.2467 -16.28751,10.9565 0,0.752 3.25022,0.9928 23,1.7041 3.025,0.109 8.425,-0.2758 12,-0.8551 z m -22.32968,-16.0421 c 11.46688,-4.0395 14.04617,-5.421 14.85012,-7.954 0.36419,-1.1475 0.49418,-2.2543 0.28885,-2.4597 -0.38101,-0.381 -14.30599,2.5037 -21.7104,4.4975 -3.92298,1.0563 -4.09889,1.2737 -4.09889,5.0651 0,2.1788 0.41414,3.9615 0.92032,3.9615 0.50618,0 4.89368,-1.3997 9.75,-3.1104 z m 14.58523,-30.2971 c -0.28943,-3.3509 -0.60422,-6.1939 -0.69955,-6.3178 -0.22617,-0.2941 -20.67568,2.668 -22.306,3.2309 -0.8572,0.296 -1.25,2.8987 -1.25,8.2824 l 0,7.8509 12.39089,-3.4769 12.39089,-3.477 -0.52623,-6.0925 z m -37.37865,-5.7647 c 2.29969,-0.8464 2.35378,-1.1095 1.66543,-8.1013 -0.3913,-3.9746 -0.88837,-7.404 -1.1046,-7.6209 -0.21623,-0.2169 -2.42817,0.3828 -4.91544,1.3327 l -4.52229,1.7271 0,7.3923 0,7.3923 3.25,-0.6237 c 1.7875,-0.3431 4.3196,-1.0174 5.6269,-1.4985 z m 24.1231,-7.4353 c 3.575,-0.8595 7.90801,-1.3366 9.62892,-1.0601 l 3.12892,0.5026 0.69115,-7.0141 c 0.38013,-3.8578 0.54712,-7.1411 0.37108,-7.2963 -0.69597,-0.6138 -21.15919,1.4173 -21.87125,2.1708 -0.4182,0.4425 -1.17538,4.0994 -1.68264,8.1263 -0.89922,7.1386 -0.87033,7.3068 1.15577,6.7276 1.14293,-0.3268 5.00305,-1.2973 8.57805,-2.1568 z m -23.37624,-14.6829 c 0.23481,-0.2348 0.12857,-2.9655 -0.2361,-6.0683 -0.72241,-6.1466 -1.18845,-6.4311 -8.22736,-5.0234 -3.02061,0.6042 -3.07787,0.7216 -2.56045,5.25 1.09488,9.5824 0.80659,9.2151 6.00512,7.6506 2.52553,-0.7601 4.78398,-1.5741 5.01879,-1.8089 z m 21.38284,-5.7357 c 1.92137,-0.5644 6.48295,-1.0456 10.13685,-1.0695 l 6.64346,-0.043 0.68902,-5.5147 c 0.37896,-3.0331 0.49102,-5.7127 0.24902,-5.9547 -0.242,-0.242 -6.24161,0.6313 -13.33247,1.9408 -11.43832,2.1122 -12.85631,2.5943 -12.57183,4.2742 1.38583,8.1832 1.55511,8.3149 8.18595,6.3673 z m -62.20813,-16.0553 c -14.65991,-1.5521 -21.06862,-4.4473 -22.63843,-10.2271 -1.75498,-6.4616 -2.50008,-6.2981 32.03823,-7.0302 17.21595,-0.3649 32.36254,-0.9532 33.65909,-1.3071 3.60229,-0.9835 2.34643,-6.8932 -2.30658,-10.8542 l -3.52414,-3 7.62068,-8 c 4.19137,-4.4 9.65259,-11.1077 12.13604,-14.906 4.25137,-6.5022 4.60055,-6.7945 5.97273,-5 2.32122,3.0357 4.24577,8.1065 4.22195,11.1239 -0.028,3.541 -2.90509,9.8775 -6.32342,13.9265 -1.89136,2.2402 -2.65462,4.2768 -2.65462,7.0833 0,2.1664 0.25901,4.198 0.57557,4.5145 0.31657,0.3166 3.28151,-0.3382 6.58876,-1.4551 4.49205,-1.517 6.50087,-2.822 7.94107,-5.1589 2.68622,-4.3587 5.8946,-15.0805 5.8946,-19.6986 0,-4.7112 -2.38317,-11.9922 -5.58578,-17.0655 l -2.38498,-3.778 5.62766,-4.5843 c 3.09521,-2.5213 7.60046,-5.7404 10.01167,-7.1535 3.89082,-2.2801 4.71734,-2.4311 7.34692,-1.3419 4.1796,1.7313 9.68679,8.1743 10.92846,12.7854 1.9285,7.1619 -2.06707,16.1165 -13.5225,30.3055 -3.50911,4.3465 -6.14298,7.9027 -5.85304,7.9027 0.28995,0 8.71817,-2.9781 18.72938,-6.618 34.90148,-12.6896 41.46949,-13.942 49.44132,-9.4269 4.52015,2.5601 5.79391,4.7851 4.86293,8.4944 -1.35263,5.3893 -13.6702,9.0697 -33.72902,10.078 -22.70336,1.1412 -27.68969,2.5614 -64.87302,18.4776 -11.825,5.0617 -24.83448,10.0562 -28.90996,11.099 -7.84843,2.0081 -17.61619,2.2623 -31.29157,0.8145 z m 161.20153,-95.3203 c -3.025,-1.2744 -11.8,-5.5095 -19.5,-9.4113 -20.0362,-10.1528 -21.88525,-10.5225 -43.26128,-8.6502 -29.54114,2.5876 -49.63214,6.8352 -57.43,12.1418 -2.0302,1.3816 -4.11672,2.2491 -4.63669,1.9277 -0.51998,-0.3214 -1.5015,0.086 -2.18117,0.9047 -2.75455,3.3191 -11.84332,0.5694 -17.0875,-5.1694 -7.03704,-7.7009 -7.47853,-11.2209 -2.4527,-19.5555 3.86549,-6.4104 6.54934,-13.5609 6.54934,-17.4492 l 0,-2.5932 -3.25,2.6531 c -18.88756,15.419 -33.25052,24.3462 -46.13862,28.6771 -8.87131,2.9811 -20.657,5.4109 -22.79261,4.699 -0.69156,-0.2305 3.67881,-2.9915 9.71192,-6.1356 15.20398,-7.9232 28.02218,-17.3 40.5147,-29.6373 11.87717,-11.7296 14.96137,-16.8267 17.5618,-29.0236 1.54871,-7.264 1.47387,-20.4891 -0.16152,-28.5444 -0.85918,-4.232 2.69765,-8.2434 10.8816,-12.2724 9.89844,-4.8729 11.2084,-4.5381 15.00291,3.8352 l 3.16982,6.9947 4.5,-0.016 c 12.14826,-0.044 36.58413,-7.6816 56.94678,-17.7986 l 15.44678,-7.6745 12.55322,0.056 c 10.56432,0.047 13.45468,0.4111 18.24289,2.2992 10.0696,3.9708 13.70129,10.4222 10.70515,19.017 -1.96844,5.6466 -5.96826,6.2695 -22.65559,3.5281 -11.77954,-1.9351 -23.4306,-1.4467 -38.23923,1.6029 l -10.5,2.1623 -6.33395,6.1674 c -3.48367,3.3921 -7.58403,7.9674 -9.11191,10.1674 -2.61054,3.7589 -6.46136,14.4261 -5.54029,15.3472 1.01876,1.0187 15.09326,-8.5203 21.945,-14.8733 4.13676,-3.8356 8.08833,-6.9714 8.78126,-6.9683 3.52208,0.016 8.89927,2.3561 10.7144,4.6637 1.46554,1.8631 2.04549,4.076 2.04549,7.8049 0,5.9154 -2.77443,36.1889 -3.54056,38.6335 -0.42651,1.3608 0.76597,1.6891 7.76835,2.1386 9.40936,0.604 17.1551,2.9641 30.72384,9.3616 17.3999,8.2038 24.04837,15.2913 24.04837,25.6364 0,8.0104 -3.38539,9.4047 -13,5.354 z m -120.56758,-26.602 c 2.63199,-3.8521 6.68637,-11.3896 9.00972,-16.75 l 4.22428,-9.7463 -8.46548,-0.7395 c -4.65601,-0.4068 -9.98096,-1.158 -11.83321,-1.6694 -2.95199,-0.8151 -3.36773,-0.6997 -3.36773,0.9347 0,3.9741 4.789,34.9742 5.40294,34.9742 0.13422,0 2.39748,-3.1517 5.02948,-7.0037 z m 27.69351,-3.9028 c 6.94427,-2.8164 15.93809,-5.9619 19.98628,-6.99 8.68799,-2.2063 8.64202,-2.1214 8.78811,-16.2311 0.11274,-10.8893 -0.63971,-12.3811 -5.53658,-10.9767 -1.63932,0.4701 -4.52929,1.671 -6.42216,2.6687 -1.89287,0.9976 -7.22918,3.1912 -11.85848,4.8747 l -8.41689,3.0609 -5.32474,13 c -6.8032,16.6096 -6.90782,16.9363 -5.20687,16.2585 0.75097,-0.2993 7.04707,-2.8485 13.99133,-5.665 z m -12.91424,-35.0946 c 3.65456,-1.0553 3.76615,-1.2402 7.25,-12.0168 3.84081,-11.8809 4.16494,-14.6072 2.33742,-19.6611 l -1.20089,-3.321 -8.54911,6e-4 -8.54911,6e-4 -0.1157,6.8683 c -0.13987,8.3036 -2.54692,16.3951 -6.95869,23.3921 -2.36357,3.7487 -2.95334,5.4383 -2.10467,6.0296 1.43677,1.0012 12.78721,0.1813 17.89075,-1.2923 z"
         id="path4958"
         inkscape:connector-curvature="0" />
      <path
         style="fill:#000000"
         d="m 537.16888,-1529.8977 c -14.23038,-2.7061 -26.51657,-8.9196 -37.0052,-18.7148 -11.63414,-10.865 -19.25035,-24.8248 -21.4878,-39.385 -0.72632,-4.7265 -0.97488,-57.7403 -0.78495,-167.4168 l 0.27795,-160.5 2.72441,-8 c 6.95341,-20.4181 21.77984,-36.0793 41.8187,-44.1734 13.67138,-5.5221 10.30901,-5.3972 137.25751,-5.1005 l 117.19938,0.2739 7.66665,2.6173 c 27.45314,9.3723 45.66144,30.3892 49.83694,57.5243 0.71642,4.6558 0.9656,58.0817 0.77588,166.3584 l -0.27947,159.5 -2.34867,7 c -4.28153,12.7607 -8.94625,20.3538 -18.12295,29.5 -9.50639,9.4747 -19.04199,15.1802 -32.02838,19.1637 l -7.5,2.3006 -115.5,0.1917 c -92.61421,0.1538 -116.88702,-0.072 -122.5,-1.1394 z m 242.87676,-4.4851 c 19.07449,-4.8784 36.34256,-18.4933 44.44713,-35.0439 7.72638,-15.7783 7.17781,-1.8791 7.16133,-181.4477 -0.0164,-178.2031 0.38616,-167.0352 -6.52522,-181.0443 -6.58272,-13.343 -17.05534,-23.6722 -30.96,-30.5362 -16.13377,-7.9644 -6.82531,-7.4594 -137.5,-7.4594 -129.74943,0 -121.11256,-0.4355 -136.5,6.8827 -14.41523,6.8559 -25.21993,17.3558 -32.02042,31.1173 -6.95584,14.0758 -6.53113,1.6183 -6.24136,183.0703 l 0.26178,163.9297 2.66954,7.3068 c 4.95806,13.5707 15.62185,26.7653 27.88147,34.4986 6.96233,4.3917 11.58521,6.3635 20.44899,8.7219 6.63051,1.7643 13.12777,1.8655 123.09004,1.9176 112.29454,0.053 116.34167,-0.01 123.78672,-1.9134 z"
         id="path4956"
         inkscape:connector-curvature="0" />
    </g>
  </g>
</svg>
