<?xml version="1.0" encoding="UTF-8" standalone="no"?>
<!-- Created with Inkscape (http://www.inkscape.org/) -->

<svg
   xmlns:dc="http://purl.org/dc/elements/1.1/"
   xmlns:cc="http://creativecommons.org/ns#"
   xmlns:rdf="http://www.w3.org/1999/02/22-rdf-syntax-ns#"
   xmlns:svg="http://www.w3.org/2000/svg"
   xmlns="http://www.w3.org/2000/svg"
   xmlns:sodipodi="http://sodipodi.sourceforge.net/DTD/sodipodi-0.dtd"
   xmlns:inkscape="http://www.inkscape.org/namespaces/inkscape"
   width="358.78909"
   height="445.79343"
   id="svg2"
   version="1.1"
   inkscape:version="0.48.5 r10040"
   sodipodi:docname="New document 1">
  <defs
     id="defs4" />
  <sodipodi:namedview
     id="base"
     pagecolor="#ffffff"
     bordercolor="#666666"
     borderopacity="1.0"
     inkscape:pageopacity="0.0"
     inkscape:pageshadow="2"
     inkscape:zoom="1.585466"
     inkscape:cx="213.043"
     inkscape:cy="244.8858"
     inkscape:document-units="px"
     inkscape:current-layer="layer1"
     showgrid="false"
     fit-margin-top="0"
     fit-margin-left="0"
     fit-margin-right="0"
     fit-margin-bottom="0"
     inkscape:window-width="958"
     inkscape:window-height="1078"
     inkscape:window-x="1920"
     inkscape:window-y="0"
     inkscape:window-maximized="0" />
  <metadata
     id="metadata7">
    <rdf:RDF>
      <cc:Work
         rdf:about="">
        <dc:format>image/svg+xml</dc:format>
        <dc:type
           rdf:resource="http://purl.org/dc/dcmitype/StillImage" />
        <dc:title></dc:title>
      </cc:Work>
    </rdf:RDF>
  </metadata>
  <g
     inkscape:label="Layer 1"
     inkscape:groupmode="layer"
     id="layer1"
     transform="translate(-456.35933,-57.49704)">
    <g
       id="g3007"
       transform="translate(-484.40017,-252.29176)">
      <path
         style="fill:#e0c5c6"
         d="m 997.08018,754.15604 c -21.73347,-4.72849 -40.21944,-19.52009 -50.05302,-40.05005 -6.74065,-14.07274 -6.41518,-4.27355 -6.11929,-184.23502 l 0.26755,-162.7298 2.81594,-8 c 6.24617,-17.74521 19.28853,-32.68519 35.71018,-40.90589 17.08332,-8.55193 9.10946,-8.09411 140.97386,-8.09411 130.8407,0 121.7759,-0.49251 138.5,7.52492 18.794,9.0097 32.7847,25.83044 38.2398,45.97508 1.6465,6.08006 1.7602,17.03067 1.7602,169.5 0,155.18401 -0.088,163.31086 -1.8377,169.48291 -7.2707,25.64855 -26.6045,44.22535 -53.0722,50.9942 -7.727,1.9761 -10.6067,2.02105 -124.5,1.94339 -92.8747,-0.0633 -117.8299,-0.34925 -122.68532,-1.40563 z m 248.09522,-5.37966 c 20.2586,-6.84391 34.7656,-18.87448 42.8656,-35.54811 7.0703,-14.5542 6.6344,-2.71316 6.6344,-180.24103 0,-156.08978 -0.049,-160.21614 -1.9754,-167.75006 -4.8747,-19.05966 -17.8754,-34.56374 -36.5246,-43.55746 -15.256,-7.35737 -9.111,-7.04058 -136.1974,-7.02119 -127.99296,0.0195 -121.06986,-0.36358 -137.30258,7.59802 -12.51335,6.13737 -24.61056,17.90439 -30.20919,29.38462 -7.89735,16.19388 -7.29081,1.13615 -7.29081,181 0,131.14088 0.24629,161.50608 1.34643,166 0.74054,3.025 3.35654,9.70045 5.81333,14.83434 9.15747,19.13611 28.53463,33.33796 50.57782,37.06933 2.9036,0.49152 56.8086,0.82481 120.2624,0.74357 l 115,-0.14724 7,-2.36479 z m -99.8733,-43.10368 c -15.443,-3.32702 -38.5246,-11.04276 -43.1483,-14.42365 -1.6672,-1.21911 -2.3022,-1.04008 -5.5401,1.56194 -2.7712,2.22699 -4.2761,2.78349 -6.2129,2.29739 -4.2975,-1.07859 -9.6477,2.18577 -11.7958,7.197 -1.6542,3.8592 -2.2196,4.33538 -5.144,4.33205 -7.5514,-0.009 -12.1653,-5.75249 -14.8575,-18.49626 -0.6971,-3.3 -1.3074,-6.07871 -1.356,-6.17491 -0.049,-0.0962 -2.7849,0.45926 -6.0803,1.23437 -17.6688,4.15581 -29.4918,-0.95665 -29.4918,-12.75276 0,-4.99233 0.026,-5.03359 2.75,-4.37582 4.5544,1.09972 29.2503,1.90156 29.2462,0.94957 0,-0.48425 -1.1166,-6.50545 -2.4766,-13.38045 -1.3601,-6.875 -2.4833,-15.5375 -2.4962,-19.25 -0.022,-6.49865 0.068,-6.75 2.4209,-6.75 1.3443,0 3.5893,1.0125 4.9888,2.25 2.6791,2.36886 3.6212,5.45269 7.598,24.87055 l 2.175,10.62055 4.147,-0.90249 c 2.2808,-0.49636 8.9844,-2.31058 14.8969,-4.0316 l 10.75,-3.12912 0,-7.83894 c 0,-4.31142 -0.1849,-7.83895 -0.411,-7.83895 -0.226,0 -2.8722,0.94186 -5.8804,2.09303 -5.3449,2.04536 -5.481,2.19536 -5.976,6.58696 -0.9085,8.06068 -4.4771,8.41253 -7.8557,0.77455 -4.6842,-10.58933 -7.118,-23.23241 -7.2507,-37.66602 -0.1582,-17.18921 -0.1231,-17.24147 11.6594,-17.39683 9.0356,-0.11915 14.6099,-1.74294 45.7144,-13.31664 20.2313,-7.52784 27.004,-9.35254 31.5489,-8.49991 6.6176,1.24148 9.8352,5.65445 7.8654,10.78757 -0.3221,0.83946 -2.9934,3.38389 -5.9363,5.65428 -5.0484,3.8948 -5.4466,4.53346 -7.0497,11.3055 -1.0904,4.60635 -1.8724,13.26732 -2.1829,24.17751 l -0.4838,17 15.8692,0.0407 c 14.6855,0.0377 16.5033,0.25159 24.3692,2.86749 23.3795,7.77511 32.3285,16.70708 28.04,27.98675 -3.2052,8.43025 -27.1771,24.04753 -46.7027,30.4261 -9.4614,3.09078 -15.6339,3.38138 -25.7106,1.21046 z m -49.392,-28.39542 c 0.4041,-0.62486 0.7416,-2.62893 0.75,-4.4535 0.012,-2.68869 -0.3163,-3.22166 -1.7347,-2.81228 -10.3958,3.00059 -25.25,7.84504 -25.25,8.2349 0,0.99867 3.2871,6.94717 4.7795,8.64903 1.4492,1.65273 2.0933,1.45805 11.1294,-3.36389 5.2751,-2.81498 9.9217,-5.6294 10.3258,-6.25426 z m 53.7653,6.91531 c 8.9965,-2.95066 20.4214,-8.33125 25.2781,-11.9048 3.4011,-2.50254 7.7219,-9.41971 7.7219,-12.36203 0,-3.94536 -2.3172,-4.632 -13.2831,-3.93605 -5.6193,0.35663 -11.9044,0.93298 -13.9669,1.28078 l -3.75,0.63236 0,5.91882 c 0,6.54893 -1.4036,10.00727 -5.6607,13.94731 -6.472,5.98997 -10.4082,6.09276 -14.7613,0.38547 -1.7901,-2.34691 -3.5001,-3.51328 -5.1508,-3.51328 -3.3831,0 -14.1809,5.04108 -18.3396,8.56204 l -3.4125,2.88913 2.4125,0.72483 c 1.3268,0.39865 9.6124,0.59847 18.4124,0.44404 14.368,-0.25215 16.867,-0.56514 24.5,-3.06862 z m -22.907,-17.60119 c 2.3839,-1.27583 4.4745,-4.95023 2.8164,-4.95023 -0.6385,0 -6.2793,1.20543 -12.5352,2.67874 l -11.3742,2.67873 0,3.73128 0,3.73127 9.6159,-3.43686 c 5.2888,-1.89027 10.4535,-3.88509 11.4771,-4.43293 z m -1.3173,-18.21606 c 3.7678,-0.82688 5.1255,-1.5494 4.75,-2.52778 -0.2891,-0.75348 -0.5257,-3.41613 -0.5257,-5.91701 l 0,-4.54704 -5.25,0.66993 c -2.8875,0.36846 -8.0625,1.14763 -11.5,1.73149 l -6.25,1.06155 0,7.32676 0,7.32676 6.75,-1.98341 c 3.7125,-1.09088 9.1241,-2.50444 12.0257,-3.14125 z m -32.4043,-13.41475 c 1.6014,-0.45461 1.7818,-1.1854 1.25,-5.06491 -0.3417,-2.49351 -0.6214,-5.7993 -0.6214,-7.3462 l 0,-2.81255 -4.5,1.66782 -4.5,1.66782 0,6.86375 0,6.86376 3.25,-0.65411 c 1.7875,-0.35976 4.0922,-0.89318 5.1214,-1.18538 z m 20.6286,-6.81942 c 3.025,-0.81194 7.7984,-1.4816 10.6076,-1.48813 l 5.1075,-0.0119 0.6444,-6.16478 c 0.3543,-3.39062 0.4492,-6.35992 0.2106,-6.59844 -0.6336,-0.63359 -19.1116,0.86185 -20.3868,1.64992 -0.9864,0.60964 -2.9723,14.12898 -2.0714,14.10143 0.2135,-0.007 2.8631,-0.67619 5.8881,-1.48813 z m -22.8334,-14.13239 c 2.5909,-0.56766 2.6508,-0.74427 2.1119,-6.22592 -0.305,-3.10293 -0.605,-5.6749 -0.6665,-5.7155 -0.062,-0.0406 -2.2893,0.12038 -4.9504,0.35773 -4.3733,0.39004 -4.7832,0.63753 -4.2637,2.57381 0.3162,1.17825 0.581,4.10725 0.5885,6.5089 0.013,4.04906 0.1773,4.32004 2.2636,3.72593 1.2375,-0.35239 3.45,-0.90361 4.9166,-1.22495 z m 26.6463,-7.41058 c 3.3085,-0.65091 7.8045,-1.01286 9.9911,-0.80433 l 3.9757,0.37914 0.6355,-5.40724 c 0.3495,-2.97398 0.5116,-5.48237 0.3602,-5.5742 -0.1515,-0.0918 -6.0343,0.94144 -13.0729,2.29616 -10.8255,2.08353 -12.6914,2.70893 -12.1086,4.05827 0.3789,0.87735 0.9054,2.85969 1.1699,4.40522 0.2992,1.74829 0.9631,2.62498 1.7573,2.32025 0.702,-0.26939 3.9833,-1.02237 7.2918,-1.67327 z m -65.3129,-14.42978 c -0.55,-0.17317 -4.3013,-0.86044 -8.3362,-1.52727 -5.6048,-0.92628 -8.1159,-1.89703 -10.64,-4.11323 -3.5789,-3.14236 -5.5229,-9.28767 -3.5591,-11.25143 0.7347,-0.73466 11.9777,-1.30233 33.5963,-1.69633 19.1783,-0.34951 32.8962,-0.99614 33.4781,-1.57807 2.0079,-2.0079 -0.1505,-7.16616 -4.1618,-9.94599 l -3.8957,-2.69971 8.7956,-9.10761 c 4.8376,-5.00919 10.5107,-11.93876 12.6068,-15.39907 3.294,-5.43765 4.023,-6.11619 5.3721,-5 2.2662,1.87504 5.2,8.80974 5.2,12.29146 0,3.66727 -3.0769,10.66639 -6.4527,14.67832 -2.7383,3.25436 -3.7136,11.48232 -1.2534,10.57433 0.6875,-0.25374 3.5217,-1.20789 6.2983,-2.12034 4.5326,-1.48959 5.3116,-2.19602 7.6272,-6.91746 5.9941,-12.22174 5.9246,-22.43501 -0.2186,-32.12179 -1.6263,-2.56438 -2.9569,-4.87823 -2.9569,-5.14188 0,-1.03878 6.853,-6.69718 13.4724,-11.12387 l 6.9723,-4.66276 4.5277,2.51495 c 2.4902,1.38322 5.7973,4.30813 7.3491,6.49979 5.9739,8.43723 2.7371,20.08092 -9.9139,35.66345 -3.0555,3.76351 -5.4097,6.9588 -5.2315,7.10064 0.1782,0.14184 8.0754,-2.59867 17.5494,-6.09002 31.3757,-11.56254 39.6415,-13.18598 47.9438,-9.41641 10.0487,4.56247 7.661,13.532 -4.5516,17.09865 -3.8195,1.11545 -14.1234,2.3094 -33.1177,3.83744 -14.3786,1.15672 -21.8834,3.50018 -50.3145,15.71137 -31.5214,13.53845 -34.7347,14.43319 -51.4871,14.33664 -7.5341,-0.0434 -14.1484,-0.22063 -14.6984,-0.3938 z m -14.4757,-124.13034 c -7.4965,-2.01449 -13.8623,-5.90345 -14.6228,-8.93324 -2.3498,-9.36251 10.9652,-16.18253 26.5644,-13.60639 19.1079,3.1556 39.2131,-0.55154 70.2952,-12.96151 8.2058,-3.2763 18.5915,-7.01698 23.0793,-8.31262 18.1027,-5.2263 38.8754,-5.86406 51.3334,-1.57604 12.1853,4.19417 21.8917,13.33423 23.0093,21.6668 0.4668,3.48011 0.1154,4.48607 -2.6791,7.66874 -2.2783,2.59493 -4.8,4.1236 -8.647,5.24195 -6.4655,1.87958 -9.3542,1.51931 -25.8485,-3.22369 -26.3472,-7.57627 -36.9334,-6.80055 -84.8946,6.22081 -35.4905,9.63558 -45.6732,11.01742 -57.5896,7.81519 z"
         id="path3021"
         inkscape:connector-curvature="0" />
      <path
         style="fill:#bebebe"
         d="m 997.08018,754.15604 c -21.73347,-4.72849 -40.21944,-19.52009 -50.05302,-40.05005 -6.74065,-14.07274 -6.41518,-4.27355 -6.11929,-184.23502 l 0.26755,-162.7298 2.81594,-8 c 6.24617,-17.74521 19.28853,-32.68519 35.71018,-40.90589 17.08332,-8.55193 9.10946,-8.09411 140.97386,-8.09411 130.8407,0 121.7759,-0.49251 138.5,7.52492 18.794,9.0097 32.7847,25.83044 38.2398,45.97508 1.6465,6.08006 1.7602,17.03067 1.7602,169.5 0,155.18401 -0.088,163.31086 -1.8377,169.48291 -7.2707,25.64855 -26.6045,44.22535 -53.0722,50.9942 -7.727,1.9761 -10.6067,2.02105 -124.5,1.94339 -92.8747,-0.0633 -117.8299,-0.34925 -122.68532,-1.40563 z m 248.09522,-5.37966 c 20.2586,-6.84391 34.7656,-18.87448 42.8656,-35.54811 7.0703,-14.5542 6.6344,-2.71316 6.6344,-180.24103 0,-156.08978 -0.049,-160.21614 -1.9754,-167.75006 -4.8747,-19.05966 -17.8754,-34.56374 -36.5246,-43.55746 -15.256,-7.35737 -9.111,-7.04058 -136.1974,-7.02119 -127.99296,0.0195 -121.06986,-0.36358 -137.30258,7.59802 -12.51335,6.13737 -24.61056,17.90439 -30.20919,29.38462 -7.89735,16.19388 -7.29081,1.13615 -7.29081,181 0,131.14088 0.24629,161.50608 1.34643,166 0.74054,3.025 3.35654,9.70045 5.81333,14.83434 9.15747,19.13611 28.53463,33.33796 50.57782,37.06933 2.9036,0.49152 56.8086,0.82481 120.2624,0.74357 l 115,-0.14724 7,-2.36479 z m -101,-43.55227 c -12.7757,-2.68159 -29.8227,-8.21462 -38.1715,-12.3895 l -5.8285,-2.91462 -3.7163,2.72836 c -2.4084,1.76818 -4.5484,2.5693 -6.0806,2.27639 -1.3004,-0.24858 -4.023,0.24109 -6.0503,1.08816 -2.8205,1.17847 -4.1435,2.60719 -5.6339,6.0842 -1.7923,4.18123 -2.2332,4.54407 -5.5221,4.54407 -2.7614,0 -4.4724,-0.85278 -7.5238,-3.75 -3.3569,-3.18731 -4.278,-5.02542 -6.1388,-12.25 -1.2041,-4.675 -2.2846,-8.63772 -2.4011,-8.80604 -0.1165,-0.16833 -2.9141,0.39417 -6.2168,1.25 -17.0976,4.43043 -29.2021,-1.08492 -29.2125,-13.31054 0,-4.26429 0.061,-4.35045 2.7462,-3.67832 1.5125,0.37854 8.7125,0.93312 16,1.2324 11.2701,0.46285 13.25,0.32326 13.25,-0.93415 0,-0.81307 -1.125,-7.00208 -2.5,-13.75335 -2.8474,-13.98104 -3.2809,-23.7631 -1.0902,-24.60374 2.2443,-0.86123 7.2032,2.25194 8.4527,5.30658 0.6293,1.53844 2.4882,9.28024 4.131,17.20399 1.6428,7.92376 3.1229,14.54292 3.2893,14.70924 0.4013,0.40133 10.1325,-2.06284 20.9672,-5.30942 l 8.75,-2.6219 0,-7.90976 c 0,-8.86227 0.8163,-8.32335 -8,-5.28182 -3.1748,1.09529 -3.5638,1.65212 -4.1866,5.9938 -0.3777,2.63248 -1.0899,5.18959 -1.5828,5.68246 -5.5621,5.56214 -15.2904,-27.7539 -13.9955,-47.93021 0.433,-6.7475 0.7974,-7.87043 3.2346,-9.96679 2.3119,-1.98864 3.4228,-2.26114 7.0192,-1.72183 6.4617,0.969 13.8717,-0.96673 38.5111,-10.0603 32.1877,-11.87941 36.2692,-13.02585 41.1583,-11.56104 2.176,0.65195 4.8306,2.05957 5.899,3.12805 3.4453,3.4453 2.4782,6.27968 -4.1355,12.11951 -5.4074,4.77461 -6.2415,6.02694 -7.5571,11.34512 -0.8638,3.49204 -1.7188,13.46348 -2.0561,23.97806 l -0.5773,18 15.8843,0.002 c 15.6782,10e-4 16.0169,0.0482 26.0892,3.60055 22.2902,7.86132 31.2095,17.42788 25.872,27.74947 -4.4969,8.69597 -27.4523,23.5011 -45.8023,29.54026 -11.0032,3.62126 -14.8884,3.79093 -27.2745,1.19115 z m -58,-21.87113 10,-5.21181 0.3075,-4.25 c 0.1691,-2.3375 -0.111,-4.25 -0.6226,-4.25 -1.7513,0 -26.1849,8.07292 -26.1849,8.65157 0,1.07679 5.3139,10.34869 5.909,10.31024 0.325,-0.021 5.091,-2.3835 10.591,-5.25 z m 65.1653,0.51582 c 20.984,-7.128 31.3347,-15.0924 31.3347,-24.11058 0,-2.1896 -0.5816,-3.16689 -2.1884,-3.67685 -2.88,-0.9141 -11.015,-0.69137 -19.4873,0.53354 -3.7534,0.54265 -7.3868,0.99556 -8.0743,1.00645 -0.8667,0.0137 -1.25,1.96703 -1.25,6.36977 0,5.45914 -0.4181,6.9271 -2.9801,10.46394 -3.1095,4.29247 -5.9436,6.50697 -9.8032,7.65995 -1.8396,0.54952 -3.1506,-0.19754 -6.7449,-3.84349 l -4.4616,-4.52558 -5.2551,1.55401 c -6.4535,1.9084 -7.9526,2.66892 -14.1893,7.19846 -4.7598,3.45688 -4.8482,3.60937 -2.5,4.3119 1.3388,0.40056 10.0842,0.60308 19.4342,0.45006 16.0172,-0.26215 17.5299,-0.45822 26.1653,-3.39158 z m -27.0104,-16.16974 c 3.1762,-1.36931 5.3573,-2.99628 5.6821,-4.23867 0.6059,-2.31662 -0.085,-2.25788 -15.587,1.32504 l -8.75,2.02237 0,3.85711 0,3.85711 6.75,-2.30031 c 3.7125,-1.26517 9.0697,-3.30036 11.9049,-4.52265 z m -4.589,-17.6505 10.5659,-2.80218 -0.4399,-5.5526 c -0.242,-3.05394 -0.5803,-5.71121 -0.7517,-5.90505 -0.3433,-0.38814 -16.6039,1.63998 -20.1902,2.51824 -2.0835,0.51025 -2.25,1.1041 -2.25,8.02594 0,5.5685 0.3188,7.35288 1.25,6.99637 0.6875,-0.2632 6.0047,-1.73953 11.8159,-3.28072 z m -28.6911,-14.49442 3.8747,-1.07587 -0.6247,-4.55812 c -0.3436,-2.50697 -0.6248,-5.818 -0.6248,-7.35785 l 0,-2.79973 -4.5,1.5333 -4.5,1.5333 0,6.906 c 0,7.57238 0.014,7.58512 6.3748,5.81897 z m 31.3752,-8.6287 c 6.9948,-0.55278 7.2504,-0.66468 7.261,-3.17861 0.01,-1.43311 0.3008,-4.35993 0.655,-6.50404 l 0.6439,-3.89838 -9.7482,0.71556 c -5.3616,0.39356 -10.3331,0.94001 -11.048,1.21432 -0.7322,0.28096 -1.5907,2.9808 -1.9661,6.18281 -0.3665,3.12624 -0.8917,6.46114 -1.167,7.41089 -0.4679,1.61386 -0.2187,1.62555 3.8094,0.17861 2.3705,-0.85151 7.5725,-1.80603 11.56,-2.12116 z m -33.1125,-12.4232 c 3.8991,-0.98182 4.445,-1.43017 3.9565,-3.25 -0.3117,-1.16109 -0.5728,-3.74329 -0.5803,-5.73823 l -0.014,-3.62717 -4.75,0.51022 c -2.6125,0.28062 -4.8296,0.56746 -4.9269,0.63741 -0.3694,0.26558 0.9747,12.6067 1.373,12.6067 0.2301,0 2.4537,-0.51252 4.9414,-1.13893 z m 28.1754,-7.90404 c 3.3085,-0.65091 7.8541,-1.00813 10.1013,-0.79382 3.5625,0.33973 4.0872,0.13007 4.0968,-1.63678 0.01,-1.11454 0.2793,-3.64849 0.6073,-5.631 l 0.5962,-3.60458 -12.8572,2.44424 c -7.0715,1.34433 -12.9362,2.52034 -13.0327,2.61336 -0.097,0.093 0.337,2.08898 0.9633,4.43547 0.6829,2.55846 1.6133,4.08425 2.3242,3.81146 0.6519,-0.25019 3.8923,-0.98745 7.2008,-1.63835 z m -69.8129,-15.11483 c -9.03,-1.26552 -15.0482,-4.41763 -17.3233,-9.07337 -3.9956,-8.17619 -1.9991,-8.76582 29.7129,-8.77482 11.6107,-0.003 24.8704,-0.29866 29.4659,-0.65635 l 8.3555,-0.65036 -0.5797,-3.57212 c -0.4032,-2.48436 -1.7161,-4.52619 -4.3115,-6.70521 l -3.7319,-3.13309 8.6419,-8.81863 c 4.753,-4.85025 10.3275,-11.70082 12.3876,-15.22349 l 3.7457,-6.40486 1.8017,2.33505 c 3.1109,4.0317 5.1271,10.46586 4.4352,14.15384 -0.3513,1.87278 -2.4301,5.96218 -4.6194,9.08754 -3.0122,4.30005 -3.9806,6.64479 -3.9806,9.63808 0,2.17557 0.298,3.95559 0.6621,3.95559 0.3642,0 3.0817,-0.7627 6.0389,-1.69488 6.1674,-1.94408 7.8923,-4.12518 11.3131,-14.30512 2.9636,-8.81923 2.3841,-14.9894 -2.2578,-24.03663 l -3.5731,-6.9643 4.1584,-3.56425 c 4.398,-3.76956 13.5242,-10.06236 15.9346,-10.98729 0.7885,-0.30261 3.4064,0.95438 5.8174,2.79331 13.0728,9.97099 12.0551,20.74275 -3.8617,40.87174 -4.1376,5.23264 -5.7967,7.98586 -4.6013,7.63599 1.0282,-0.30093 8.8444,-3.13028 17.3694,-6.28744 35.3469,-13.09044 43.1981,-14.10733 51.25,-6.63797 5.1425,4.7704 2.882,9.86131 -5.8251,13.11908 -5.577,2.08659 -13.6164,3.19894 -35.9249,4.97061 -14.8246,1.17733 -22.2109,3.50089 -52.2654,16.44146 -30.4639,13.11681 -32.4649,13.67368 -48.5899,13.52226 -7.2296,-0.0679 -16.0697,-0.53335 -19.6447,-1.03437 z m -9.9757,-123.44529 c -7.4965,-2.01449 -13.8623,-5.90345 -14.6228,-8.93324 -2.3498,-9.36251 10.9652,-16.18253 26.5644,-13.60639 19.1079,3.1556 39.2131,-0.55154 70.2952,-12.96151 8.2058,-3.2763 18.5915,-7.01698 23.0793,-8.31262 18.1027,-5.2263 38.8754,-5.86406 51.3334,-1.57604 12.1853,4.19417 21.8917,13.33423 23.0093,21.6668 0.4668,3.48011 0.1154,4.48607 -2.6791,7.66874 -2.2783,2.59493 -4.8,4.1236 -8.647,5.24195 -6.4655,1.87958 -9.3542,1.51931 -25.8485,-3.22369 -26.3472,-7.57627 -36.9334,-6.80055 -84.8946,6.22081 -35.4905,9.63558 -45.6732,11.01742 -57.5896,7.81519 z"
         id="path3019"
         inkscape:connector-curvature="0" />
      <path
         style="fill:#c38c8f"
         d="m 995.67542,753.61447 c -23.63112,-6.11483 -43.64967,-24.38825 -51.56754,-47.0721 l -2.93246,-8.4012 -0.28093,-162 c -0.31163,-179.7064 -0.67139,-169.09044 6.2356,-184 10.46581,-22.59169 32.07159,-38.12515 57.72621,-41.5022 5.7364,-0.75513 43.245,-0.99392 120.8191,-0.76919 l 112.5,0.3259 7.4727,2.28795 c 13.5054,4.13506 22.5565,9.57125 32.6293,19.59755 7.3982,7.36404 9.8844,10.65111 13.2815,17.55999 8.2476,16.77338 7.5233,0.28872 7.8619,178.92071 0.3249,171.40906 0.4195,167.78019 -4.7315,181.38296 -7.0734,18.67924 -24.6794,35.07626 -45.5139,42.38856 l -8,2.80777 -119,0.207 c -114.9104,0.19989 -119.2577,0.14031 -126.49998,-1.7337 z m 240.99998,-3.03831 c 8.5581,-1.38233 18.8202,-5.00269 25.8346,-9.1142 9.221,-5.40487 20.1734,-17.08679 24.9302,-26.59076 7.8024,-15.58863 7.3309,-3.14024 7.0161,-185.23003 l -0.2809,-162.5 -2.8833,-7.5 c -7.7371,-20.12505 -23.2462,-35.0376 -43.2618,-41.59779 l -8.8549,-2.90221 -119.5,0 -119.5,0 -7.99998,2.72441 c -26.45258,9.00847 -43.41454,29.79891 -46.54827,57.05468 -0.71665,6.2331 -0.95659,59.60689 -0.74051,164.72091 0.3572,173.75805 -0.25978,159.37797 7.50353,174.88611 4.45511,8.89962 15.58374,21.12036 23.64783,25.9685 7.50855,4.51416 16.45417,8.03274 24.4937,9.63412 8.575,1.70803 225.7906,2.11853 236.1437,0.44626 z m -92.5,-45.35205 c -12.7757,-2.68159 -29.8227,-8.21462 -38.1715,-12.3895 l -5.8285,-2.91462 -3.7163,2.72836 c -2.4084,1.76818 -4.5484,2.5693 -6.0806,2.27639 -1.3004,-0.24858 -4.023,0.24109 -6.0503,1.08816 -2.8205,1.17847 -4.1435,2.60719 -5.6339,6.0842 -1.7923,4.18123 -2.2332,4.54407 -5.5221,4.54407 -2.7614,0 -4.4724,-0.85278 -7.5238,-3.75 -3.3569,-3.18731 -4.278,-5.02542 -6.1388,-12.25 -1.2041,-4.675 -2.2846,-8.63772 -2.4011,-8.80604 -0.1165,-0.16833 -2.9141,0.39417 -6.2168,1.25 -17.0976,4.43043 -29.2021,-1.08492 -29.2125,-13.31054 0,-4.26429 0.061,-4.35045 2.7462,-3.67832 1.5125,0.37854 8.7125,0.93312 16,1.2324 11.2701,0.46285 13.25,0.32326 13.25,-0.93415 0,-0.81307 -1.125,-7.00208 -2.5,-13.75335 -2.8474,-13.98104 -3.2809,-23.7631 -1.0902,-24.60374 2.2443,-0.86123 7.2032,2.25194 8.4527,5.30658 0.6293,1.53844 2.4882,9.28024 4.131,17.20399 1.6428,7.92376 3.1229,14.54292 3.2893,14.70924 0.4013,0.40133 10.1325,-2.06284 20.9672,-5.30942 l 8.75,-2.6219 0,-7.90976 c 0,-8.86227 0.8163,-8.32335 -8,-5.28182 -3.1748,1.09529 -3.5638,1.65212 -4.1866,5.9938 -0.3777,2.63248 -1.0899,5.18959 -1.5828,5.68246 -5.5621,5.56214 -15.2904,-27.7539 -13.9955,-47.93021 0.433,-6.7475 0.7974,-7.87043 3.2346,-9.96679 2.3119,-1.98864 3.4228,-2.26114 7.0192,-1.72183 6.4617,0.969 13.8717,-0.96673 38.5111,-10.0603 32.1877,-11.87941 36.2692,-13.02585 41.1583,-11.56104 2.176,0.65195 4.8306,2.05957 5.899,3.12805 3.4453,3.4453 2.4782,6.27968 -4.1355,12.11951 -5.4074,4.77461 -6.2415,6.02694 -7.5571,11.34512 -0.8638,3.49204 -1.7188,13.46348 -2.0561,23.97806 l -0.5773,18 15.8843,0.002 c 15.6782,10e-4 16.0169,0.0482 26.0892,3.60055 22.2902,7.86132 31.2095,17.42788 25.872,27.74947 -4.4969,8.69597 -27.4523,23.5011 -45.8023,29.54026 -11.0032,3.62126 -14.8884,3.79093 -27.2745,1.19115 z m -58,-21.87113 10,-5.21181 0.3075,-4.25 c 0.1691,-2.3375 -0.111,-4.25 -0.6226,-4.25 -1.7513,0 -26.1849,8.07292 -26.1849,8.65157 0,1.07679 5.3139,10.34869 5.909,10.31024 0.325,-0.021 5.091,-2.3835 10.591,-5.25 z m 65.1653,0.51582 c 20.984,-7.128 31.3347,-15.0924 31.3347,-24.11058 0,-2.1896 -0.5816,-3.16689 -2.1884,-3.67685 -2.88,-0.9141 -11.015,-0.69137 -19.4873,0.53354 -3.7534,0.54265 -7.3868,0.99556 -8.0743,1.00645 -0.8667,0.0137 -1.25,1.96703 -1.25,6.36977 0,5.45914 -0.4181,6.9271 -2.9801,10.46394 -3.1095,4.29247 -5.9436,6.50697 -9.8032,7.65995 -1.8396,0.54952 -3.1506,-0.19754 -6.7449,-3.84349 l -4.4616,-4.52558 -5.2551,1.55401 c -6.4535,1.9084 -7.9526,2.66892 -14.1893,7.19846 -4.7598,3.45688 -4.8482,3.60937 -2.5,4.3119 1.3388,0.40056 10.0842,0.60308 19.4342,0.45006 16.0172,-0.26215 17.5299,-0.45822 26.1653,-3.39158 z m -27.0104,-16.16974 c 3.1762,-1.36931 5.3573,-2.99628 5.6821,-4.23867 0.6059,-2.31662 -0.085,-2.25788 -15.587,1.32504 l -8.75,2.02237 0,3.85711 0,3.85711 6.75,-2.30031 c 3.7125,-1.26517 9.0697,-3.30036 11.9049,-4.52265 z m -4.589,-17.6505 10.5659,-2.80218 -0.4399,-5.5526 c -0.242,-3.05394 -0.5803,-5.71121 -0.7517,-5.90505 -0.3433,-0.38814 -16.6039,1.63998 -20.1902,2.51824 -2.0835,0.51025 -2.25,1.1041 -2.25,8.02594 0,5.5685 0.3188,7.35288 1.25,6.99637 0.6875,-0.2632 6.0047,-1.73953 11.8159,-3.28072 z m -28.6911,-14.49442 3.8747,-1.07587 -0.6247,-4.55812 c -0.3436,-2.50697 -0.6248,-5.818 -0.6248,-7.35785 l 0,-2.79973 -4.5,1.5333 -4.5,1.5333 0,6.906 c 0,7.57238 0.014,7.58512 6.3748,5.81897 z m 31.3752,-8.6287 c 6.9948,-0.55278 7.2504,-0.66468 7.261,-3.17861 0.01,-1.43311 0.3008,-4.35993 0.655,-6.50404 l 0.6439,-3.89838 -9.7482,0.71556 c -5.3616,0.39356 -10.3331,0.94001 -11.048,1.21432 -0.7322,0.28096 -1.5907,2.9808 -1.9661,6.18281 -0.3665,3.12624 -0.8917,6.46114 -1.167,7.41089 -0.4679,1.61386 -0.2187,1.62555 3.8094,0.17861 2.3705,-0.85151 7.5725,-1.80603 11.56,-2.12116 z m -33.1125,-12.4232 c 3.8991,-0.98182 4.445,-1.43017 3.9565,-3.25 -0.3117,-1.16109 -0.5728,-3.74329 -0.5803,-5.73823 l -0.014,-3.62717 -4.75,0.51022 c -2.6125,0.28062 -4.8296,0.56746 -4.9269,0.63741 -0.3694,0.26558 0.9747,12.6067 1.373,12.6067 0.2301,0 2.4537,-0.51252 4.9414,-1.13893 z m 28.1754,-7.90404 c 3.3085,-0.65091 7.8541,-1.00813 10.1013,-0.79382 3.5625,0.33973 4.0872,0.13007 4.0968,-1.63678 0.01,-1.11454 0.2793,-3.64849 0.6073,-5.631 l 0.5962,-3.60458 -12.8572,2.44424 c -7.0715,1.34433 -12.9362,2.52034 -13.0327,2.61336 -0.097,0.093 0.337,2.08898 0.9633,4.43547 0.6829,2.55846 1.6133,4.08425 2.3242,3.81146 0.6519,-0.25019 3.8923,-0.98745 7.2008,-1.63835 z m -69.8129,-15.11483 c -9.03,-1.26552 -15.0482,-4.41763 -17.3233,-9.07337 -3.9956,-8.17619 -1.9991,-8.76582 29.7129,-8.77482 11.6107,-0.003 24.8704,-0.29866 29.4659,-0.65635 l 8.3555,-0.65036 -0.5797,-3.57212 c -0.4032,-2.48436 -1.7161,-4.52619 -4.3115,-6.70521 l -3.7319,-3.13309 8.6419,-8.81863 c 4.753,-4.85025 10.3275,-11.70082 12.3876,-15.22349 l 3.7457,-6.40486 1.8017,2.33505 c 3.1109,4.0317 5.1271,10.46586 4.4352,14.15384 -0.3513,1.87278 -2.4301,5.96218 -4.6194,9.08754 -3.0122,4.30005 -3.9806,6.64479 -3.9806,9.63808 0,2.17557 0.298,3.95559 0.6621,3.95559 0.3642,0 3.0817,-0.7627 6.0389,-1.69488 6.1674,-1.94408 7.8923,-4.12518 11.3131,-14.30512 2.9636,-8.81923 2.3841,-14.9894 -2.2578,-24.03663 l -3.5731,-6.9643 4.1584,-3.56425 c 4.398,-3.76956 13.5242,-10.06236 15.9346,-10.98729 0.7885,-0.30261 3.4064,0.95438 5.8174,2.79331 13.0728,9.97099 12.0551,20.74275 -3.8617,40.87174 -4.1376,5.23264 -5.7967,7.98586 -4.6013,7.63599 1.0282,-0.30093 8.8444,-3.13028 17.3694,-6.28744 35.3469,-13.09044 43.1981,-14.10733 51.25,-6.63797 5.1425,4.7704 2.882,9.86131 -5.8251,13.11908 -5.577,2.08659 -13.6164,3.19894 -35.9249,4.97061 -14.8246,1.17733 -22.2109,3.50089 -52.2654,16.44146 -30.4639,13.11681 -32.4649,13.67368 -48.5899,13.52226 -7.2296,-0.0679 -16.0697,-0.53335 -19.6447,-1.03437 z m -7.5933,-122.87287 c -5.7866,-1.14725 -10.3899,-3.23052 -14.1567,-6.40669 -4.4242,-3.73057 -4.3716,-7.37068 0.1643,-11.35319 6.3335,-5.56097 11.3704,-6.29481 32.5857,-4.74755 17.0782,1.24554 33.3236,-2.37064 62.5,-13.91234 20.9696,-8.29519 33.8174,-11.53361 48.5,-12.22493 19.0001,-0.89461 32.1745,3.61505 42.0147,14.38176 8.1486,8.91598 7.4772,15.97346 -2.0199,21.23111 -6.2989,3.48713 -13.5267,3.16014 -28.1967,-1.27567 -26.7969,-8.10267 -38.0924,-7.28744 -88.4543,6.38401 -32.7979,8.90349 -41.4569,10.19955 -52.9371,7.92349 z"
         id="path3017"
         inkscape:connector-curvature="0" />
      <path
         style="fill:#7b7b7b"
         d="m 995.67542,753.61447 c -23.63112,-6.11483 -43.64967,-24.38825 -51.56754,-47.0721 l -2.93246,-8.4012 -0.28093,-162 c -0.31163,-179.7064 -0.67139,-169.09044 6.2356,-184 10.46581,-22.59169 32.07159,-38.12515 57.72621,-41.5022 5.7364,-0.75513 43.245,-0.99392 120.8191,-0.76919 l 112.5,0.3259 7.4727,2.28795 c 13.5054,4.13506 22.5565,9.57125 32.6293,19.59755 7.3982,7.36404 9.8844,10.65111 13.2815,17.55999 8.2476,16.77338 7.5233,0.28872 7.8619,178.92071 0.3249,171.40906 0.4195,167.78019 -4.7315,181.38296 -7.0734,18.67924 -24.6794,35.07626 -45.5139,42.38856 l -8,2.80777 -119,0.207 c -114.9104,0.19989 -119.2577,0.14031 -126.49998,-1.7337 z m 240.99998,-3.03831 c 8.5581,-1.38233 18.8202,-5.00269 25.8346,-9.1142 9.221,-5.40487 20.1734,-17.08679 24.9302,-26.59076 7.8024,-15.58863 7.3309,-3.14024 7.0161,-185.23003 l -0.2809,-162.5 -2.8833,-7.5 c -7.7371,-20.12505 -23.2462,-35.0376 -43.2618,-41.59779 l -8.8549,-2.90221 -119.5,0 -119.5,0 -7.99998,2.72441 c -26.45258,9.00847 -43.41454,29.79891 -46.54827,57.05468 -0.71665,6.2331 -0.95659,59.60689 -0.74051,164.72091 0.3572,173.75805 -0.25978,159.37797 7.50353,174.88611 4.45511,8.89962 15.58374,21.12036 23.64783,25.9685 7.50855,4.51416 16.45417,8.03274 24.4937,9.63412 8.575,1.70803 225.7906,2.11853 236.1437,0.44626 z m -168.6956,-45.86665 c -4.3662,-2.69548 -5.8279,-5.2429 -8.3592,-14.56834 -1.1944,-4.4 -2.2946,-8.13653 -2.4451,-8.30339 -0.1504,-0.16687 -3.9846,0.44856 -8.5203,1.36762 -13.2503,2.68486 -21.9182,0.30001 -25.3733,-6.98112 -2.0847,-4.3932 -2.1963,-11.02343 -0.1725,-10.24681 3.802,1.45896 18.7356,2.74923 24.7865,2.14156 6.2663,-0.62931 6.7299,-0.83859 6.2652,-2.82872 -4.0438,-17.3186 -6.2361,-34.21846 -4.7234,-36.41112 1.4795,-2.14463 6.8491,0.41549 8.5608,4.0816 0.8167,1.74921 2.4506,8.13038 3.6309,14.18038 1.1803,6.05 2.6043,12.73758 3.1645,14.8613 1.197,4.53765 0.7554,4.54962 18.1084,-0.49103 14.4844,-4.20741 14.1732,-3.90805 13.2827,-12.77491 -0.7211,-7.18022 -0.7562,-7.25027 -3.3138,-6.60836 -7.3616,1.84763 -9.0227,3.17604 -9.711,7.76581 -0.9723,6.48375 -1.8912,7.59437 -4.4028,5.3214 -4.9674,-4.49544 -10.082,-26.44058 -10.082,-43.25879 0,-14.32872 0.6182,-15.28726 9.8027,-15.20127 8.675,0.0812 15.1232,-1.6441 37.4413,-10.01808 35.9048,-13.47187 42.1243,-14.58494 48.1008,-8.60839 3.0097,3.00961 1.9504,5.66208 -4.7823,11.97561 -6.2561,5.86655 -6.4814,6.25313 -7.9938,13.71447 -0.8559,4.22276 -1.851,14.82784 -2.2113,23.56684 l -0.655,15.88908 15.3988,10e-4 c 13.8688,10e-4 16.2728,0.26865 24.1954,2.69227 16.686,5.10448 26.6332,11.30351 29.2865,18.25122 1.588,4.15803 1.5864,4.68916 -0.026,8.91203 -4.9637,12.99748 -42.0678,33.53727 -60.5168,33.50045 -9.5553,-0.0191 -35.4186,-7.06491 -49.6658,-13.5303 l -7.1259,-3.23372 -2.8741,2.35058 c -2.0872,1.70695 -4.1595,2.36042 -7.5684,2.38654 -5.3929,0.0413 -8.8012,2.40679 -11.5788,8.03596 -2.0917,4.23918 -5.3172,4.91152 -9.9226,2.06834 z m 18.8174,-21.31834 9.8676,-5.25 0,-4.65687 0.01,-4.65687 -11.25,3.51495 c -6.1875,1.93322 -12.4843,4.02881 -13.9929,4.65687 l -2.7428,1.14192 3.0131,5.25 c 1.6572,2.8875 3.5111,5.25 4.1199,5.25 0.6088,0 5.5473,-2.3625 10.9745,-5.25 z m 59.8782,2.21785 c 9.8051,-2.74097 24.5471,-9.75323 29.3265,-13.94964 5.1953,-4.56154 8.2011,-10.56494 6.8139,-13.60942 -1.4426,-3.16625 -5.9524,-3.81483 -17.2693,-2.48361 -15.8715,1.86699 -14.9618,1.39605 -14.3024,7.40415 0.7008,6.38496 -2.2987,12.97831 -7.4666,16.4126 -5.1776,3.44078 -8.0003,2.98654 -12.2821,-1.97645 l -3.6799,-4.26548 -6.8201,2.34222 c -6.5136,2.23701 -17.32,9.19358 -17.32,11.14973 0,0.50994 3.7125,1.10911 8.25,1.33148 14.3229,0.70194 26.8503,-0.14725 34.75,-2.35558 z m -28.1018,-15.24435 c 8.412,-3.02485 12.1018,-5.50201 12.1018,-8.12455 0,-1.1669 -1.404,-1.09422 -8.4011,0.43483 -17.0421,3.72417 -16.5989,3.50864 -16.5989,8.07215 0,4.62227 -1.1113,4.65523 12.8982,-0.38243 z m 0.6836,-19.91587 11.633,-3.19237 -0.6846,-6.05155 c -0.3766,-3.32835 -0.7624,-6.12547 -0.8574,-6.21581 -0.2347,-0.22316 -18.609,2.48117 -21.4228,3.15299 -2.0849,0.49781 -2.25,1.08598 -2.25,8.01816 0,4.18954 0.4287,7.48095 0.9744,7.48095 0.5359,0 6.2093,-1.43657 12.6074,-3.19237 z m -25.4189,-15.40827 c 1.1824,-0.73079 1.046,-14.15221 -0.1513,-14.89224 -0.5437,-0.336 -3.0187,0.28714 -5.5,1.38476 l -4.5116,1.99566 0,6.38956 c 0,3.51426 0.2472,6.63675 0.5493,6.93886 0.5562,0.55615 8.0725,-0.86416 9.6136,-1.8166 z m 22.8371,-7.04801 c 3.575,-0.83127 7.9496,-1.34225 9.7214,-1.13552 3.8645,0.45093 4.2786,-0.34021 4.2786,-8.17478 l 0,-5.79538 -4.25,0.35639 c -2.3375,0.19602 -7.2468,0.6222 -10.9095,0.94707 l -6.6595,0.59068 -1.0905,6.26201 c -1.5322,8.79864 -1.4491,9.95059 0.6595,9.13654 0.9625,-0.37158 4.675,-1.35574 8.25,-2.18701 z m -26.1492,-13.44918 c 3.0526,-1.06413 3.1492,-1.27894 3.1492,-7 0,-6.50535 -0.3986,-6.77245 -7.875,-5.27717 -3.3985,0.6797 -3.7418,2.01027 -2.4831,9.625 0.6802,4.11532 1.8146,4.53265 7.2089,2.65217 z m 32.3135,-7.57942 c 9.6284,-0.62142 9.7941,-0.76781 9.8221,-8.68116 0.012,-3.49928 -0.1958,-3.80751 -2.2364,-3.31162 -1.2375,0.30073 -6.3,1.26385 -11.25,2.14027 -14.9102,2.63992 -13.5156,1.79061 -11.63,7.08252 1.4681,4.12032 1.8784,4.51298 4.13,3.95203 1.375,-0.34256 6.399,-0.87448 11.1643,-1.18204 z m -70.5312,-15.4188 c -12.3057,-1.29835 -18.35,-3.39934 -20.6936,-7.19307 -1.1095,-1.79608 -1.8637,-4.53276 -1.7115,-6.21088 l 0.272,-3 31.6541,-0.73829 c 17.4098,-0.40606 32.7968,-1.17274 34.1935,-1.70375 2.3111,-0.87868 2.4565,-1.26175 1.6172,-4.26171 -0.5072,-1.81294 -2.5758,-4.7042 -4.597,-6.42502 l -3.6748,-3.12877 8.1965,-8.37123 c 4.5081,-4.60418 10.0301,-11.18373 12.271,-14.62123 2.2409,-3.4375 4.3887,-6.25 4.7728,-6.25 0.3842,0 1.6813,1.74877 2.8826,3.88615 4.0178,7.14883 2.437,15.9062 -4.3213,23.93797 -2.1731,2.58254 -2.4887,3.69036 -1.918,6.73256 0.6294,3.35469 0.9049,3.59702 3.5001,3.07798 7.579,-1.5158 9.8832,-3.32434 13.162,-10.3309 5.3266,-11.38286 4.8809,-21.99311 -1.3357,-31.79574 l -2.828,-4.45923 5.6048,-4.56562 c 8.3741,-6.82146 13.9035,-9.80457 16.8179,-9.07312 1.3561,0.34037 4.1159,2.06782 6.1329,3.83878 10.1133,8.87951 8.0055,20.46467 -7.2148,39.65614 -3.7466,4.72414 -5.8447,8.07633 -4.7908,7.65455 12.2644,-4.90834 40.8118,-14.79122 47.7313,-16.5242 11.7984,-2.95486 19.327,-1.50071 23.2532,4.49139 1.3572,2.07132 1.4266,2.97193 0.4171,5.40903 -2.2431,5.41544 -13.2061,8.59158 -33.0266,9.56828 -22.5408,1.11075 -28.4873,2.80234 -64.9619,18.4796 -11.7471,5.04906 -24.7332,10.04327 -28.8582,11.09824 -7.9962,2.04511 -18.4519,2.3092 -32.5468,0.82209 z M 1040.0821,468.6105 c -5.7866,-1.14725 -10.3899,-3.23052 -14.1567,-6.40669 -4.4242,-3.73057 -4.3716,-7.37068 0.1643,-11.35319 6.3335,-5.56097 11.3704,-6.29481 32.5857,-4.74755 17.0782,1.24554 33.3236,-2.37064 62.5,-13.91234 20.9696,-8.29519 33.8174,-11.53361 48.5,-12.22493 19.0001,-0.89461 32.1745,3.61505 42.0147,14.38176 8.1486,8.91598 7.4772,15.97346 -2.0199,21.23111 -6.2989,3.48713 -13.5267,3.16014 -28.1967,-1.27567 -26.7969,-8.10267 -38.0924,-7.28744 -88.4543,6.38401 -32.7979,8.90349 -41.4569,10.19955 -52.9371,7.92349 z"
         id="path3015"
         inkscape:connector-curvature="0" />
      <path
         style="fill:#a55357"
         d="m 1000.1754,754.15775 c -15.72831,-2.99081 -27.17368,-9.07015 -38.60033,-20.50302 -6.85432,-6.85806 -9.44176,-10.3214 -12.74489,-17.0593 -8.30528,-16.94155 -7.65476,-1.35105 -7.65476,-183.45426 0,-180.92703 -0.52095,-167.37728 7.03064,-182.86386 8.62402,-17.68592 23.9145,-30.32661 44.5046,-36.79213 l 7.46474,-2.34401 120.5,0 120.5,0 8,2.81625 c 12.4715,4.39034 20.1747,9.18261 29.088,18.09582 8.5489,8.54899 13.584,16.45047 17.5799,27.58793 l 2.3321,6.5 0.2676,163.96216 c 0.2622,160.70175 0.228,164.11822 -1.7172,171.81063 -6.2011,24.52196 -24.3726,42.9927 -50.0667,50.89121 l -7.4837,2.30052 -116,0.19157 c -93.0272,0.15363 -117.3863,-0.072 -123,-1.13951 z m 242.8768,-4.48506 c 27.2192,-6.96151 47.7485,-29.45813 51.5878,-56.53152 0.8179,-5.76753 1.0509,-51.95182 0.8349,-165.5 l -0.2995,-157.5 -2.7244,-8 c -3.9245,-11.52387 -9.1353,-19.61283 -18.2625,-28.34943 -9.1072,-8.71757 -18.0224,-13.86274 -30.0581,-17.34741 l -7.955,-2.30316 -116,0 c -130.9236,0 -120.64984,-0.59856 -138.27277,8.05589 -15.85989,7.78864 -28.62837,22.61631 -34.39688,39.94411 l -2.33033,7 -0.26487,160.74265 c -0.29604,179.65735 -0.72532,168.19841 6.88399,183.75735 3.40446,6.96117 5.80666,10.13463 13.26896,17.52915 10.19262,10.10002 18.61087,14.99254 31.68911,18.41707 7.13859,1.86922 11.84939,1.94577 123.01289,1.99872 111.7972,0.0533 115.8425,-0.01 123.2867,-1.91342 z m -175.0724,-44.96318 c -4.3662,-2.69548 -5.8279,-5.2429 -8.3592,-14.56834 -1.1944,-4.4 -2.2946,-8.13653 -2.4451,-8.30339 -0.1504,-0.16687 -3.9846,0.44856 -8.5203,1.36762 -13.2503,2.68486 -21.9182,0.30001 -25.3733,-6.98112 -2.0847,-4.3932 -2.1963,-11.02343 -0.1725,-10.24681 3.802,1.45896 18.7356,2.74923 24.7865,2.14156 6.2663,-0.62931 6.7299,-0.83859 6.2652,-2.82872 -4.0438,-17.3186 -6.2361,-34.21846 -4.7234,-36.41112 1.4795,-2.14463 6.8491,0.41549 8.5608,4.0816 0.8167,1.74921 2.4506,8.13038 3.6309,14.18038 1.1803,6.05 2.6043,12.73758 3.1645,14.8613 1.197,4.53765 0.7554,4.54962 18.1084,-0.49103 14.4844,-4.20741 14.1732,-3.90805 13.2827,-12.77491 -0.7211,-7.18022 -0.7562,-7.25027 -3.3138,-6.60836 -7.3616,1.84763 -9.0227,3.17604 -9.711,7.76581 -0.9723,6.48375 -1.8912,7.59437 -4.4028,5.3214 -4.9674,-4.49544 -10.082,-26.44058 -10.082,-43.25879 0,-14.32872 0.6182,-15.28726 9.8027,-15.20127 8.675,0.0812 15.1232,-1.6441 37.4413,-10.01808 35.9048,-13.47187 42.1243,-14.58494 48.1008,-8.60839 3.0097,3.00961 1.9504,5.66208 -4.7823,11.97561 -6.2561,5.86655 -6.4814,6.25313 -7.9938,13.71447 -0.8559,4.22276 -1.851,14.82784 -2.2113,23.56684 l -0.655,15.88908 15.3988,10e-4 c 13.8688,10e-4 16.2728,0.26865 24.1954,2.69227 16.686,5.10448 26.6332,11.30351 29.2865,18.25122 1.588,4.15803 1.5864,4.68916 -0.026,8.91203 -4.9637,12.99748 -42.0678,33.53727 -60.5168,33.50045 -9.5553,-0.0191 -35.4186,-7.06491 -49.6658,-13.5303 l -7.1259,-3.23372 -2.8741,2.35058 c -2.0872,1.70695 -4.1595,2.36042 -7.5684,2.38654 -5.3929,0.0413 -8.8012,2.40679 -11.5788,8.03596 -2.0917,4.23918 -5.3172,4.91152 -9.9226,2.06834 z m 18.8174,-21.31834 9.8676,-5.25 0,-4.65687 0.01,-4.65687 -11.25,3.51495 c -6.1875,1.93322 -12.4843,4.02881 -13.9929,4.65687 l -2.7428,1.14192 3.0131,5.25 c 1.6572,2.8875 3.5111,5.25 4.1199,5.25 0.6088,0 5.5473,-2.3625 10.9745,-5.25 z m 59.8782,2.21785 c 9.8051,-2.74097 24.5471,-9.75323 29.3265,-13.94964 5.1953,-4.56154 8.2011,-10.56494 6.8139,-13.60942 -1.4426,-3.16625 -5.9524,-3.81483 -17.2693,-2.48361 -15.8715,1.86699 -14.9618,1.39605 -14.3024,7.40415 0.7008,6.38496 -2.2987,12.97831 -7.4666,16.4126 -5.1776,3.44078 -8.0003,2.98654 -12.2821,-1.97645 l -3.6799,-4.26548 -6.8201,2.34222 c -6.5136,2.23701 -17.32,9.19358 -17.32,11.14973 0,0.50994 3.7125,1.10911 8.25,1.33148 14.3229,0.70194 26.8503,-0.14725 34.75,-2.35558 z m -28.1018,-15.24435 c 8.412,-3.02485 12.1018,-5.50201 12.1018,-8.12455 0,-1.1669 -1.404,-1.09422 -8.4011,0.43483 -17.0421,3.72417 -16.5989,3.50864 -16.5989,8.07215 0,4.62227 -1.1113,4.65523 12.8982,-0.38243 z m 0.6836,-19.91587 11.633,-3.19237 -0.6846,-6.05155 c -0.3766,-3.32835 -0.7624,-6.12547 -0.8574,-6.21581 -0.2347,-0.22316 -18.609,2.48117 -21.4228,3.15299 -2.0849,0.49781 -2.25,1.08598 -2.25,8.01816 0,4.18954 0.4287,7.48095 0.9744,7.48095 0.5359,0 6.2093,-1.43657 12.6074,-3.19237 z m -25.4189,-15.40827 c 1.1824,-0.73079 1.046,-14.15221 -0.1513,-14.89224 -0.5437,-0.336 -3.0187,0.28714 -5.5,1.38476 l -4.5116,1.99566 0,6.38956 c 0,3.51426 0.2472,6.63675 0.5493,6.93886 0.5562,0.55615 8.0725,-0.86416 9.6136,-1.8166 z m 22.8371,-7.04801 c 3.575,-0.83127 7.9496,-1.34225 9.7214,-1.13552 3.8645,0.45093 4.2786,-0.34021 4.2786,-8.17478 l 0,-5.79538 -4.25,0.35639 c -2.3375,0.19602 -7.2468,0.6222 -10.9095,0.94707 l -6.6595,0.59068 -1.0905,6.26201 c -1.5322,8.79864 -1.4491,9.95059 0.6595,9.13654 0.9625,-0.37158 4.675,-1.35574 8.25,-2.18701 z m -26.1492,-13.44918 c 3.0526,-1.06413 3.1492,-1.27894 3.1492,-7 0,-6.50535 -0.3986,-6.77245 -7.875,-5.27717 -3.3985,0.6797 -3.7418,2.01027 -2.4831,9.625 0.6802,4.11532 1.8146,4.53265 7.2089,2.65217 z m 32.3135,-7.57942 c 9.6284,-0.62142 9.7941,-0.76781 9.8221,-8.68116 0.012,-3.49928 -0.1958,-3.80751 -2.2364,-3.31162 -1.2375,0.30073 -6.3,1.26385 -11.25,2.14027 -14.9102,2.63992 -13.5156,1.79061 -11.63,7.08252 1.4681,4.12032 1.8784,4.51298 4.13,3.95203 1.375,-0.34256 6.399,-0.87448 11.1643,-1.18204 z m -70.5312,-15.4188 c -12.3057,-1.29835 -18.35,-3.39934 -20.6936,-7.19307 -1.1095,-1.79608 -1.8637,-4.53276 -1.7115,-6.21088 l 0.272,-3 31.6541,-0.73829 c 17.4098,-0.40606 32.7968,-1.17274 34.1935,-1.70375 2.3111,-0.87868 2.4565,-1.26175 1.6172,-4.26171 -0.5072,-1.81294 -2.5758,-4.7042 -4.597,-6.42502 l -3.6748,-3.12877 8.1965,-8.37123 c 4.5081,-4.60418 10.0301,-11.18373 12.271,-14.62123 2.2409,-3.4375 4.3887,-6.25 4.7728,-6.25 0.3842,0 1.6813,1.74877 2.8826,3.88615 4.0178,7.14883 2.437,15.9062 -4.3213,23.93797 -2.1731,2.58254 -2.4887,3.69036 -1.918,6.73256 0.6294,3.35469 0.9049,3.59702 3.5001,3.07798 7.579,-1.5158 9.8832,-3.32434 13.162,-10.3309 5.3266,-11.38286 4.8809,-21.99311 -1.3357,-31.79574 l -2.828,-4.45923 5.6048,-4.56562 c 8.3741,-6.82146 13.9035,-9.80457 16.8179,-9.07312 1.3561,0.34037 4.1159,2.06782 6.1329,3.83878 10.1133,8.87951 8.0055,20.46467 -7.2148,39.65614 -3.7466,4.72414 -5.8447,8.07633 -4.7908,7.65455 12.2644,-4.90834 40.8118,-14.79122 47.7313,-16.5242 11.7984,-2.95486 19.327,-1.50071 23.2532,4.49139 1.3572,2.07132 1.4266,2.97193 0.4171,5.40903 -2.2431,5.41544 -13.2061,8.59158 -33.0266,9.56828 -22.5408,1.11075 -28.4873,2.80234 -64.9619,18.4796 -11.7471,5.04906 -24.7332,10.04327 -28.8582,11.09824 -7.9962,2.04511 -18.4519,2.3092 -32.5468,0.82209 z m -9.8563,-122.98611 c -10.8384,-1.58929 -19.7768,-7.002 -19.7768,-11.97597 0,-3.21265 4.8451,-7.72967 10.1982,-9.50769 4.3236,-1.43606 6.8183,-1.57128 15.7205,-0.8521 25.3836,2.05066 41.173,-0.99092 74.0725,-14.26895 23.7387,-9.58078 43.3981,-13.31513 59.5384,-11.30945 12.8723,1.59957 19.766,4.4623 27.1616,11.27927 5.4777,5.04916 7.3088,8.43962 7.3088,13.53253 0,5.06198 -2.7608,8.54585 -8.513,10.74265 -6.1421,2.34569 -13.8997,1.5405 -29.487,-3.06058 -8.3507,-2.46498 -15.4101,-3.87019 -21.2671,-4.23333 -14.8382,-0.92 -20.7465,0.20777 -78.7329,15.02869 -18.9941,4.85477 -27.3661,5.9237 -36.2232,4.62493 z"
         id="path3013"
         inkscape:connector-curvature="0" />
      <path
         style="fill:#871a1f"
         d="m 1000.1754,754.15775 c -15.72831,-2.99081 -27.17368,-9.07015 -38.60033,-20.50302 -6.85432,-6.85806 -9.44176,-10.3214 -12.74489,-17.0593 -8.30528,-16.94155 -7.65476,-1.35105 -7.65476,-183.45426 0,-180.92703 -0.52095,-167.37728 7.03064,-182.86386 8.62402,-17.68592 23.9145,-30.32661 44.5046,-36.79213 l 7.46474,-2.34401 120.5,0 120.5,0 8,2.81625 c 12.4715,4.39034 20.1747,9.18261 29.088,18.09582 8.5489,8.54899 13.584,16.45047 17.5799,27.58793 l 2.3321,6.5 0.2676,163.96216 c 0.2622,160.70175 0.228,164.11822 -1.7172,171.81063 -6.2011,24.52196 -24.3726,42.9927 -50.0667,50.89121 l -7.4837,2.30052 -116,0.19157 c -93.0272,0.15363 -117.3863,-0.072 -123,-1.13951 z m 242.8768,-4.48506 c 27.2192,-6.96151 47.7485,-29.45813 51.5878,-56.53152 0.8179,-5.76753 1.0509,-51.95182 0.8349,-165.5 l -0.2995,-157.5 -2.7244,-8 c -3.9245,-11.52387 -9.1353,-19.61283 -18.2625,-28.34943 -9.1072,-8.71757 -18.0224,-13.86274 -30.0581,-17.34741 l -7.955,-2.30316 -116,0 c -130.9236,0 -120.64984,-0.59856 -138.27277,8.05589 -15.85989,7.78864 -28.62837,22.61631 -34.39688,39.94411 l -2.33033,7 -0.26487,160.74265 c -0.29604,179.65735 -0.72532,168.19841 6.88399,183.75735 3.40446,6.96117 5.80666,10.13463 13.26896,17.52915 10.19262,10.10002 18.61087,14.99254 31.68911,18.41707 7.13859,1.86922 11.84939,1.94577 123.01289,1.99872 111.7972,0.0533 115.8425,-0.01 123.2867,-1.91342 z m -173.8768,-44.41466 c -4.8014,-2.15041 -6.6645,-5.06162 -9.117,-14.24582 -1.2667,-4.74347 -2.523,-8.84437 -2.7917,-9.11311 -0.2688,-0.26874 -4.4492,0.31071 -9.29,1.28767 -5.2088,1.05126 -10.2299,1.50533 -12.3013,1.11244 -7.9432,-1.50661 -13.9892,-7.90056 -13.9962,-14.80174 l 0,-3.64371 4.25,1.02079 c 4.352,1.04527 27.1798,1.66811 28.083,0.76622 0.2756,-0.27521 -0.6101,-5.90021 -1.9682,-12.5 -2.3627,-11.48097 -3.546,-25.6254 -2.2535,-26.93579 1.0955,-1.11066 5.7446,1.28657 7.4026,3.81706 0.8902,1.35858 2.9872,9.14116 4.6601,17.29464 1.6728,8.15347 3.4148,15.22378 3.8711,15.71181 0.8866,0.9483 8.9182,-0.82701 22.843,-5.04919 l 8.388,-2.54338 -0.6395,-7.5655 c -0.3517,-4.16102 -0.8774,-7.80342 -1.1682,-8.09421 -0.2908,-0.29079 -2.9564,0.29649 -5.9235,1.30505 -5.3472,1.81755 -5.4007,1.8763 -6.0568,6.64653 -0.8865,6.44576 -2.6748,7.87829 -5.249,4.20482 -5.0096,-7.1488 -9.2391,-26.54931 -9.2391,-42.37941 0,-13.84642 0.6984,-14.81376 10.7025,-14.82385 8.8942,-0.009 13.2089,-1.23006 42.8408,-12.12422 26.6818,-9.80951 33.0804,-11.24416 38.2429,-8.57451 6.683,3.45588 6.0226,8.69908 -1.7764,14.10375 -2.2711,1.5739 -4.5774,3.69881 -5.125,4.72202 -2.0329,3.79868 -3.9706,17.74312 -4.5693,32.8839 l -0.6169,15.59912 15.4007,-0.0501 c 14.8331,-0.0483 15.7693,0.0722 25.4007,3.26988 22.5623,7.49073 31.2042,15.32598 28.3411,25.69545 -1.9794,7.16864 -15.2502,17.42851 -34.1676,26.41556 -18.649,8.85951 -26.2494,9.60335 -45.9666,4.49864 -13.3934,-3.46751 -20.8429,-6.0135 -29.9044,-10.22022 l -7.6975,-3.57352 -3.1292,2.63306 c -2.26,1.90168 -4.2884,2.6429 -7.3025,2.6685 -5.7042,0.0484 -8.6971,1.95909 -11.1309,7.10584 -2.2851,4.83259 -4.291,5.60357 -9.0424,3.47558 z m 17.5182,-21.62598 9.9818,-5.00911 0,-4.94306 0,-4.94305 -4.25,1.31138 c -2.3375,0.72126 -8.3,2.55308 -13.25,4.07071 -4.95,1.51763 -9.3341,2.95548 -9.7425,3.19521 -0.7181,0.42152 2.4475,7.5326 4.486,10.07704 1.467,1.83112 1.8728,1.71169 12.7747,-3.75912 z m 52.9818,3.57468 c 17.5187,-3.18762 35.2131,-11.90414 40.7985,-20.09797 3.9021,-5.72435 3.919,-9.22429 0.055,-11.38328 -2.3013,-1.28579 -4.2588,-1.30567 -15,-0.15228 -6.7943,0.72957 -12.935,1.54885 -13.646,1.82063 -0.9258,0.35387 -1.1097,1.71522 -0.6477,4.79576 0.9027,6.01956 -0.9112,10.59929 -6.0882,15.37128 -5.7927,5.3395 -8.4852,5.34181 -13.2704,0.0114 -3.2918,-3.66682 -3.989,-4.00583 -7.0553,-3.43059 -5.7087,1.07095 -13.6664,5.07214 -18.1765,9.13921 l -4.2807,3.86029 8.9058,0.56103 c 15.676,0.98752 20.741,0.89918 28.4058,-0.49547 z m -23.0949,-15.9775 c 10.973,-4.07959 14.0949,-5.98135 14.0949,-8.58611 0,-2.20434 0.4817,-2.24807 -15.1335,1.37424 l -9.3665,2.17276 -0.5672,4.22553 c -0.3896,2.90254 -0.1974,4.22552 0.6139,4.22552 0.6496,0 5.3109,-1.53537 10.3584,-3.41194 z m 2.0949,-20.52403 c 1.925,-0.51117 5.4731,-1.44335 7.8847,-2.07151 l 4.3846,-1.14212 -0.637,-6.0942 c -0.3503,-3.35181 -0.7484,-6.19476 -0.8846,-6.31767 -0.3575,-0.32252 -19.8182,2.44909 -21.9525,3.12649 -1.5269,0.48462 -1.7952,1.74794 -1.7952,8.45454 l 0,7.88478 4.75,-1.45546 c 2.6125,-0.8005 6.325,-1.87368 8.25,-2.38485 z m -27.75,-14.622 3.75,-0.66461 0,-7.32969 c 0,-4.03133 -0.4606,-7.6144 -1.0237,-7.96237 -0.563,-0.34797 -3.038,0.1366 -5.5,1.07684 l -4.4763,1.70952 0,7.43153 c 0,6.60681 0.1942,7.37448 1.75,6.91746 0.9625,-0.28274 3.4375,-0.81315 5.5,-1.17868 z m 25.6745,-8.01664 c 3.5335,-0.89674 7.9196,-1.38783 9.7469,-1.0913 3.7689,0.61161 4.0404,0.0732 4.5425,-9.00835 l 0.2861,-5.17425 -4.5,0.4073 c -2.475,0.22402 -7.4968,0.67139 -11.1595,0.99416 l -6.6595,0.58686 -1.0905,6.26201 c -1.5173,8.7129 -1.4365,9.83961 0.6595,9.19348 0.9625,-0.29671 4.641,-1.27317 8.1745,-2.16991 z m -23.123,-20.38234 0.3015,-6.33383 -5.1871,0.61434 c -2.8529,0.33788 -5.4057,0.83291 -5.6728,1.10007 -0.2672,0.26716 -0.1762,3.37685 0.2023,6.91043 l 0.688,6.4247 4.6833,-1.19094 4.6833,-1.19094 0.3015,-6.33383 z m 29.4645,-0.70901 c 9.6579,-0.67567 9.2157,-0.29551 9.9846,-8.58404 0.2206,-2.378 -0.076,-3.75 -0.8121,-3.75 -0.9667,0 -16.4617,2.91406 -24.0685,4.5264 -2.0913,0.44328 -2.1004,0.53473 -0.5,5.02636 1.4622,4.10378 1.8875,4.5141 4.13,3.98471 1.375,-0.32459 6.4447,-0.86613 11.266,-1.20343 z m -69.8707,-15.32777 c -11.7345,-1.23204 -16.3114,-2.72243 -20.1508,-6.56177 -2.7016,-2.70159 -3.3132,-4.03259 -3.0604,-6.6604 l 0.3159,-3.2841 30,-0.67519 c 29.5433,-0.66491 38.5054,-1.27863 38.4944,-2.63608 -0.029,-3.54433 -2.4735,-8.02599 -5.4962,-10.07519 l -3.5202,-2.38645 8.2988,-8.61355 c 4.5643,-4.73745 10.0631,-11.47439 12.2195,-14.97099 l 3.9206,-6.35745 2.2875,2.85745 c 4.8929,6.11225 4.272,14.11328 -1.7591,22.66537 -3.6265,5.14235 -4.0257,6.25653 -3.454,9.64026 l 0.6464,3.82591 6.4858,-2.10872 c 6.442,-2.09444 6.5071,-2.15295 9.6068,-8.63705 2.4169,-5.05561 3.2236,-8.28627 3.5763,-14.32105 0.4326,-7.40303 0.2707,-8.16629 -3.2367,-15.26313 l -3.6921,-7.47041 3.1994,-2.73686 c 5.3655,-4.58978 15.1981,-11.23687 16.622,-11.23687 2.6874,0 9.4768,5.44411 11.8592,9.50936 1.3429,2.2915 2.4416,5.58449 2.4416,7.31777 0,6.64284 -5.8051,17.49398 -15.8454,29.61895 -2.2527,2.72034 -3.9586,5.08328 -3.7909,5.25097 0.1677,0.16769 9.492,-3.03939 20.7206,-7.12685 27.5939,-10.04474 35.7149,-12.11 41.6965,-10.60382 8.894,2.23953 12.8144,6.95005 9.7178,11.67612 -3.5293,5.38646 -12.9163,7.70474 -37.6724,9.30388 -18.9419,1.22358 -25.8442,3.2047 -54.8262,15.7365 -30.1579,13.04028 -34.6368,14.45483 -47,14.84389 -5.775,0.18174 -14.1471,-0.0525 -18.6047,-0.5205 z m -10.6185,-123.08843 c -10.8384,-1.58929 -19.7768,-7.002 -19.7768,-11.97597 0,-3.21265 4.8451,-7.72967 10.1982,-9.50769 4.3236,-1.43606 6.8183,-1.57128 15.7205,-0.8521 25.3836,2.05066 41.173,-0.99092 74.0725,-14.26895 23.7387,-9.58078 43.3981,-13.31513 59.5384,-11.30945 12.8723,1.59957 19.766,4.4623 27.1616,11.27927 5.4777,5.04916 7.3088,8.43962 7.3088,13.53253 0,5.06198 -2.7608,8.54585 -8.513,10.74265 -6.1421,2.34569 -13.8997,1.5405 -29.487,-3.06058 -8.3507,-2.46498 -15.4101,-3.87019 -21.2671,-4.23333 -14.8382,-0.92 -20.7465,0.20777 -78.7329,15.02869 -18.9941,4.85477 -27.3661,5.9237 -36.2232,4.62493 z"
         id="path3011"
         inkscape:connector-curvature="0" />
      <path
         style="fill:#000000"
         d="m 1004.1754,754.92662 c -23.85111,-3.29847 -45.55611,-18.70007 -55.90741,-39.67121 -7.61258,-15.42266 -7.09257,-2.03382 -7.09257,-182.61424 0,-181.18296 -0.61687,-166.0768 7.45453,-182.55018 6.86789,-14.01707 21.12103,-27.31449 35.96079,-33.5495 14.45794,-6.07457 10.4653,-5.90032 135.19226,-5.90032 127.1806,0 122.1438,-0.25421 137.3924,6.93433 20.4823,9.65581 34.2187,25.91579 39.5702,46.83998 1.8675,7.30182 1.9293,12.73412 1.9125,168.13565 -0.014,133.46881 -0.2529,161.70078 -1.4116,167.16693 -5.8274,27.48979 -29.2102,49.25139 -58.5711,54.51005 -6.0105,1.07652 -29.7423,1.32046 -119.5,1.22834 -61.6,-0.0632 -113.35,-0.30164 -115,-0.52983 z m 239.0901,-5.2847 c 20.4587,-5.17097 37.044,-18.51928 45.6401,-36.73241 6.6947,-14.18458 6.1854,-0.58299 6.5438,-174.76834 0.2338,-113.66722 0.01,-160.2447 -0.805,-166 -4.245,-30.05428 -27.9528,-52.94718 -59.5169,-57.47124 -5.6953,-0.81631 -39.8787,-1.04147 -120.4521,-0.79337 -126.26719,0.3888 -116.06753,-0.22711 -132.99998,8.03114 -12.01285,5.85887 -23.93223,17.73254 -29.84795,29.73347 -7.65402,15.52734 -7.21902,3.91206 -6.91971,184.7707 l 0.26766,161.7293 2.67941,7.33492 c 3.95019,10.81372 8.41668,17.73501 16.87505,26.14967 8.73466,8.68951 19.59386,14.96729 31.10658,17.98292 7.03094,1.84168 12.21154,1.92468 123.42904,1.97743 112.8682,0.0535 116.3095,-4.2e-4 124,-1.94419 z m -199.188,-280.99821 c -19.9767,-2.92735 -27.2774,-12.84345 -14.6033,-19.83487 5.4057,-2.98195 13.3171,-3.73355 24.2501,-2.30383 16.9195,2.21256 37.4977,-1.9134 66.0254,-13.23818 27.3543,-10.85896 45.9865,-14.6835 61.8462,-12.69486 19.0742,2.39169 35.0795,13.58983 35.0795,24.54335 0,3.66295 -0.5184,4.77382 -3.4142,7.3164 -7.1532,6.28062 -14.9367,6.59963 -31.9,1.30744 -25.0757,-7.82305 -39.8203,-6.8141 -86.1644,5.89614 -30.7537,8.43445 -41.7782,10.37723 -51.1193,9.00841 z"
         id="path3009"
         inkscape:connector-curvature="0" />
    </g>
  </g>
</svg>
