<?xml version="1.0" encoding="UTF-8" standalone="no"?>
<!-- Created with Inkscape (http://www.inkscape.org/) -->

<svg
   xmlns:dc="http://purl.org/dc/elements/1.1/"
   xmlns:cc="http://creativecommons.org/ns#"
   xmlns:rdf="http://www.w3.org/1999/02/22-rdf-syntax-ns#"
   xmlns:svg="http://www.w3.org/2000/svg"
   xmlns="http://www.w3.org/2000/svg"
   xmlns:sodipodi="http://sodipodi.sourceforge.net/DTD/sodipodi-0.dtd"
   xmlns:inkscape="http://www.inkscape.org/namespaces/inkscape"
   width="357.92575"
   height="445.78336"
   id="svg2"
   version="1.1"
   inkscape:version="0.48.5 r10040"
   sodipodi:docname="char4.svg">
  <defs
     id="defs4" />
  <sodipodi:namedview
     id="base"
     pagecolor="#ffffff"
     bordercolor="#666666"
     borderopacity="1.0"
     inkscape:pageopacity="0.0"
     inkscape:pageshadow="2"
     inkscape:zoom="0.56054688"
     inkscape:cx="-22.312536"
     inkscape:cy="41.111868"
     inkscape:document-units="px"
     inkscape:current-layer="layer1"
     showgrid="false"
     fit-margin-top="0"
     fit-margin-left="0"
     fit-margin-right="0"
     fit-margin-bottom="0"
     inkscape:window-width="958"
     inkscape:window-height="1078"
     inkscape:window-x="1920"
     inkscape:window-y="0"
     inkscape:window-maximized="0" />
  <metadata
     id="metadata7">
    <rdf:RDF>
      <cc:Work
         rdf:about="">
        <dc:format>image/svg+xml</dc:format>
        <dc:type
           rdf:resource="http://purl.org/dc/dcmitype/StillImage" />
        <dc:title></dc:title>
      </cc:Work>
    </rdf:RDF>
  </metadata>
  <g
     inkscape:label="Layer 1"
     inkscape:groupmode="layer"
     id="layer1"
     transform="translate(-626.65119,237.60622)">
    <g
       id="g3243"
       transform="translate(112.39024,-85.630662)">
      <path
         style="fill:#e0c5c6"
         d="m 568.37851,291.84326 c -25.72794,-6.77965 -45.95197,-26.38172 -52.12634,-50.52325 -1.94088,-7.58876 -1.98563,-11.42931 -1.98563,-170.39368 0,-179.56734 -0.43574,-167.182571 6.38754,-181.55014 10.57686,-22.27137 31.47395,-37.17341 56.7933,-40.50018 5.72556,-0.7523 43.54832,-0.99347 121.31916,-0.77358 l 113,0.31949 7.47263,2.29234 c 20.80791,6.38312 37.11617,19.63102 46.00895,37.37505 7.55387,15.072458 7.11309,2.99602 6.79924,186.28688 l -0.28082,164 -2.87507,7.85321 c -5.40852,14.77332 -17.47272,29.3674 -31.00934,37.51205 -3.07624,1.8509 -9.53571,4.7759 -14.35438,6.5 l -8.76121,3.13474 -119.5,0.20696 c -115.57429,0.20016 -119.74271,0.143 -126.88803,-1.73989 z m 248.38803,-4.23584 c 23.1723,-6.70217 41.16772,-23.79885 48.66156,-46.23123 l 2.33844,-7 0.28022,-159.5 c 0.31343,-178.39684 0.68406,-168.330999 -6.75671,-183.5 -8.69397,-17.72383 -23.52446,-30.04678 -43.52351,-36.16457 -5.67717,-1.73668 -12.40274,-1.83543 -125,-1.83543 l -119,0 -8,2.72441 c -18.1169,6.16974 -32.09616,18.05646 -39.9515,33.97119 -8.01385,16.235887 -7.51377,4.16911 -7.51377,181.3044 0,176.22333 -0.43594,165.12126 7.08758,180.5 7.03285,14.37578 22.32549,27.88416 38.04842,33.60914 11.52544,4.19661 13.19259,4.24742 132.82927,4.04817 105.36325,-0.17547 114.97878,-0.32916 120.5,-1.92608 z m -91.5,-42.39635 c -15.13842,-2.72243 -32.95825,-7.99642 -44.18922,-13.07833 l -7.68921,-3.4793 -3.1696,2.25695 c -1.97074,1.40329 -4.84324,2.32667 -7.59448,2.44129 -5.42914,0.22617 -9.31423,2.93515 -10.87043,7.57969 -1.03729,3.09584 -1.57168,3.47575 -5.27502,3.75009 -3.4999,0.25927 -4.66993,-0.19797 -7.76534,-3.03471 -3.04378,-2.78941 -4.03377,-4.79752 -6.00568,-12.18199 -1.29862,-4.86311 -2.49221,-8.9731 -2.65242,-9.13331 -0.16021,-0.16021 -2.75125,0.34682 -5.75787,1.12673 -3.00662,0.7799 -8.36648,1.41801 -11.9108,1.41801 -11.05144,0 -18.11993,-6.05218 -18.11993,-15.51463 0,-3.65733 0.0482,-3.70256 3.25,-3.05093 1.7875,0.36378 9.25981,0.91836 16.60512,1.2324 12.70978,0.54337 13.32899,0.48065 12.81406,-1.29794 -3.3976,-11.7356 -6.28219,-36.06375 -4.49069,-37.87373 1.29603,-1.30939 6.89801,0.69195 8.41426,3.00604 0.83874,1.28007 2.86136,8.77847 4.49473,16.6631 1.63336,7.88463 3.19948,15.08312 3.48026,15.99665 0.4613,1.50083 1.54305,1.38692 11.22139,-1.18171 17.82991,-4.73204 18.6687,-5.13305 18.97921,-9.07373 0.14759,-1.87304 -0.0774,-5.27067 -0.5,-7.55029 l -0.76834,-4.14477 -5.16122,1.93154 c -5.09191,1.9056 -5.17052,1.99915 -5.85362,6.96592 -0.40259,2.92715 -1.29247,5.26465 -2.12603,5.58451 -5.8702,2.25261 -13.32052,-22.58248 -13.34599,-44.48788 -0.0126,-10.79323 0.10065,-11.40925 2.54607,-13.85467 2.25532,-2.25532 3.08973,-2.47965 7.02692,-1.88924 6.68368,1.00228 13.4995,-0.79637 40.29465,-10.63352 13.40942,-4.92293 27.17952,-9.68484 30.60021,-10.58201 5.84375,-1.5327 6.50099,-1.52371 10.88063,0.14889 8.56528,3.27111 8.60483,7.91704 0.12902,15.15815 -4.43568,3.78951 -5.79973,5.70608 -6.99453,9.82771 -1.59913,5.51643 -3.45427,24.76698 -3.48083,36.12014 l -0.0164,7 13.40329,-0.34577 c 15.06663,-0.38868 23.17175,1.11272 36.93281,6.84146 19.6572,8.18331 24.53891,18.8103 13.87697,30.20877 -13.55821,14.49486 -47.59269,29.57964 -61.21195,27.13042 z m -56,-33.13025 c 0,-3.67485 -0.268,-4.25549 -1.75,-3.79143 -19.12968,5.99001 -24.25,7.84482 -24.25,8.78443 0,0.61966 1.13847,3.0693 2.52993,5.44365 l 2.52992,4.31699 10.47008,-5.20711 10.47007,-5.20712 0,-4.33941 z m 54.87612,9.95143 c 18.28213,-6.19968 29.92803,-14.4349 31.67752,-22.40029 1.28274,-5.84027 -4.31928,-6.98678 -22.65128,-4.6358 l -8.73309,1.11998 0.53626,5.19589 c 0.81839,7.92944 -4.2586,16.27146 -11.32151,18.60244 -3.95697,1.30591 -6.29471,0.30025 -9.38257,-4.03625 -1.3567,-1.90531 -3.01255,-3.00203 -4.53252,-3.00203 -3.73932,0 -12.39051,3.77209 -17.86083,7.78768 -4.8007,3.52404 -4.89058,3.67896 -2.54237,4.38231 1.33885,0.40101 9.85927,0.60233 18.93427,0.44737 15.52256,-0.26506 17.05543,-0.47011 25.87612,-3.4613 z m -36.2821,-12.51798 c 9.54437,-3.24625 15.40598,-6.38056 15.40598,-8.23786 0,-1.72663 0.0301,-1.73011 -15.25,1.76498 l -8.75,2.00143 0,3.41669 c 0,1.87917 0.37118,3.41668 0.82485,3.41668 0.45366,0 3.94979,-1.06286 7.76917,-2.36192 z m 4.65598,-21.27848 10.75,-2.84996 -0.0137,-3.50482 c -0.008,-1.92765 -0.29384,-4.55111 -0.63627,-5.82992 -0.68173,-2.54583 -1.6724,-2.54587 -17.10008,-6.8e-4 l -6.25,1.03109 0,7.48068 c 0,5.5731 0.31875,7.35865 1.25,7.00212 0.6875,-0.2632 6.0875,-1.76103 12,-3.32851 z m -29,-14.41218 3.75,-1.04143 0,-7.43532 0,-7.43533 -4.75,1.75994 -4.75,1.75995 -0.29569,6.72238 c -0.32566,7.40367 -0.29641,7.4311 6.04569,5.66981 z m 23.41131,-7.44742 c 3.16739,-0.825 8.10095,-1.5 10.96346,-1.5 l 5.20458,0 0.33532,-6.62053 0.33533,-6.62054 -9.34329,0.68772 c -5.13881,0.37825 -9.93579,0.91508 -10.65996,1.19297 -1.45297,0.55756 -4.38026,14.36038 -3.04554,14.36038 0.24817,0 3.04271,-0.675 6.2101,-1.5 z m -23.41131,-14.06092 c 2.6064,-0.62165 2.75,-0.95714 2.75,-6.42465 l 0,-5.76876 -4.75,0.51022 c -2.6125,0.28062 -4.90989,0.64773 -5.10531,0.81581 -0.19542,0.16807 -0.0369,3.04892 0.35224,6.40188 0.58184,5.01314 1.00032,6.00969 2.35531,5.60885 0.90627,-0.2681 2.88526,-0.78261 4.39776,-1.14335 z m 33.75,-8.31733 7.5,-0.62175 0.50778,-5.03805 0.50778,-5.03805 -12.50778,2.37771 c -6.87928,1.30774 -12.5973,2.46439 -12.70672,2.57032 -0.10941,0.10594 0.27064,2.04257 0.84456,4.30362 l 1.04348,4.11102 3.65545,-1.02154 c 2.0105,-0.56184 7.03045,-1.30132 11.15545,-1.64328 z m -76.5,-14.18022 c -12.74557,-1.90878 -18.48733,-6.11682 -18.49626,-13.55561 -0.003,-2.94732 0.24469,-3.14812 4.63583,-3.75 2.55176,-0.34975 15.03927,-0.68852 27.75,-0.7528 12.71074,-0.0643 26.03543,-0.40179 29.61043,-0.75 l 6.5,-0.63312 -0.29394,-3 c -0.19627,-2.00315 -1.59643,-4.16299 -4.21375,-6.5 l -3.91981,-3.5 8.8061,-9.31974 c 4.84336,-5.12586 10.33954,-11.98348 12.21375,-15.23917 1.87421,-3.25568 3.72618,-5.9243 4.1155,-5.93026 0.38931,-0.006 1.85181,1.94121 3.25,4.32703 4.40771,7.52119 3.034,16.17043 -3.87172,24.37741 -2.04277,2.42769 -2.39853,3.66593 -1.91296,6.65812 0.6479,3.99259 0.0759,3.91125 8.32683,1.18405 6.82378,-2.25548 12.68558,-18.75899 10.60399,-29.85482 -0.34729,-1.85122 -2.16043,-5.90499 -4.02919,-9.00838 l -3.39774,-5.64251 3.51746,-3.08838 c 1.9346,-1.6986 6.6253,-5.15494 10.42378,-7.68076 7.79931,-5.18619 8.55385,-5.14338 15.40757,0.87427 10.72786,9.41919 8.23038,21.16511 -8.99216,42.29107 -2.90143,3.55903 -3.4723,4.72742 -2.03371,4.16237 24.41456,-9.58957 49.3773,-17.6103 54.80819,-17.6103 8.29005,0 16.69181,4.76397 16.69181,9.46458 0,7.9082 -9.06176,10.64552 -44.5,13.44231 -14.1617,1.11764 -22.84066,3.75769 -47,14.29691 -8.8,3.83889 -20.725,8.83675 -26.5,11.10635 l -10.5,4.12655 -15.5,0.20169 c -8.525,0.11094 -18.2,-0.20265 -21.5,-0.69686 z M 771.29078,27.41374 C 760.6595,22.20939 749.51216,17.40322 746.51892,16.73336 c -4.46999,-1.00034 -8.77504,-0.91279 -24.09732,0.49005 -10.26028,0.93939 -22.25506,2.35242 -26.65506,3.14008 -11.77275,2.10746 -25.70347,6.36545 -28.06445,8.57802 -1.13545,1.06407 -2.99285,1.93468 -4.12756,1.93468 -1.1347,0 -2.6233,0.675 -3.30799,1.5 -4.01476,4.83749 -18.0767,-2.89799 -22.19589,-12.20999 -2.269,-5.1294 -1.76324,-7.76649 2.98271,-15.55217 2.99359,-4.91095 6.80631,-15.47805 5.90856,-16.3758 -0.15593,-0.15593 -3.63868,2.47104 -7.73945,5.83771 -16.12482,13.23826 -33.23612,22.64437 -48.52403,26.67376 -8.15623,2.14972 -16.4319,2.80969 -16.4319,1.31042 0,-0.44884 3.89019,-2.78858 8.64487,-5.19942 22.51145,-11.41436 48.29926,-33.04713 54.88345,-46.0404 4.76702,-9.40726 5.80441,-15.91911 5.11598,-32.113927 l -0.6236,-14.669818 3.23965,-2.73466 c 3.99142,-3.369249 14.45919,-8.423848 17.4475,-8.424916 2.37133,-8.47e-4 6.54517,6.021421 7.85242,11.329974 0.3834,1.55692 1.36597,3.087438 2.18349,3.40115 2.12955,0.817186 21.42828,-3.162623 32.94647,-6.794266 5.39538,-1.70114 17.33333,-6.708731 26.52879,-11.12798 13.93159,-6.695389 17.76619,-8.11897 23,-8.538662 13.4469,-1.07829 29.60556,3.657155 34.21809,10.027929 3.84306,5.308003 1.77557,15.541903 -3.58872,17.763867 -2.44027,1.010792 -5.16257,0.911423 -15.02954,-0.548608 -14.7741,-2.186144 -30.23195,-1.664368 -43.50848,1.468619 l -9.18963,2.168562 -7.65605,8.013504 c -7.2222,7.559395 -10.35595,12.615152 -11.88587,19.175802 l -0.66244,2.84068 6.17566,-3.34068 c 3.39661,-1.83737 9.66573,-6.60318 13.93138,-10.59068 6.9271,-6.475408 8.17908,-7.25 11.71827,-7.25 2.47032,0 5.24212,0.860913 7.36043,2.286128 3.36053,2.260998 3.40144,2.379167 3.72159,10.750002 0.2964,7.74957 -1.22107,29.70066 -2.49274,36.059 -0.52227,2.61137 -0.42886,2.66098 6.31946,3.35589 10.20687,1.05107 14.69038,2.31531 27.34957,7.71194 13.97482,5.95748 21.60537,11.07552 25.23677,16.92707 3.15062,5.07683 4.41358,12.17608 2.87487,16.15997 -0.93293,2.41547 -1.59104,2.75 -5.40997,2.75 -3.46227,0 -8.28485,-1.9273 -23.67743,-9.46245 z m -96.04809,-36.84161 3.94595,-9.19594 -9.21105,-0.58015 c -5.06608,-0.31908 -10.21801,-0.91014 -11.44875,-1.31348 -2.02422,-0.66337 -2.18911,-0.46493 -1.72848,2.08015 0.85827,4.74216 4.4613,30.72617 4.46382,32.19179 0.005,2.63029 10.05353,-14.0353 13.97851,-23.18237 z m 18.93138,12.8473 c 7.37414,-2.99582 16.67333,-6.21686 20.66487,-7.15787 l 7.25733,-1.71092 0.69507,-10.19756 c 0.7049,-10.34193 -0.10582,-14.47689 -2.83842,-14.47689 -0.68379,0 -5.76488,1.98996 -11.29131,4.42214 -5.52643,2.43217 -11.61161,4.71546 -13.52262,5.07397 -3.40278,0.63836 -3.58716,0.9321 -8.92351,14.21592 -2.99692,7.46026 -5.59894,13.95197 -5.78227,14.42603 -0.47066,1.21703 -1.00318,1.3951 13.74086,-4.59482 z m -13.99328,-34.94814 c 4.33843,-1.07629 4.45497,-1.21532 6.7855,-8.0951 1.3042,-3.85 3.07089,-9.75634 3.92598,-13.12519 1.41892,-5.590195 1.41358,-6.398121 -0.0612,-9.25 -1.47275,-2.848011 -2.04545,-3.12481 -6.46521,-3.12481 -2.66713,0 -6.25557,-0.28125 -7.97432,-0.625 l -3.125,-0.625 -0.0119,6.375 c -0.0153,8.22957 -1.94,15.30207 -6.34522,23.31639 -3.06147,5.56966 -3.30822,6.48879 -1.83935,6.85156 2.15603,0.53248 9.4025,-0.28174 15.11069,-1.69785 z"
         id="path3257"
         inkscape:connector-curvature="0" />
      <path
         style="fill:#bebebe"
         d="m 568.37851,291.84326 c -25.72794,-6.77965 -45.95197,-26.38172 -52.12634,-50.52325 -1.94088,-7.58876 -1.98563,-11.42931 -1.98563,-170.39368 0,-179.56734 -0.43574,-167.182571 6.38754,-181.55014 10.57686,-22.27137 31.47395,-37.17341 56.7933,-40.50018 5.72556,-0.7523 43.54832,-0.99347 121.31916,-0.77358 l 113,0.31949 7.47263,2.29234 c 20.80791,6.38312 37.11617,19.63102 46.00895,37.37505 7.55387,15.072458 7.11309,2.99602 6.79924,186.28688 l -0.28082,164 -2.87507,7.85321 c -5.40852,14.77332 -17.47272,29.3674 -31.00934,37.51205 -3.07624,1.8509 -9.53571,4.7759 -14.35438,6.5 l -8.76121,3.13474 -119.5,0.20696 c -115.57429,0.20016 -119.74271,0.143 -126.88803,-1.73989 z m 248.38803,-4.23584 c 23.1723,-6.70217 41.16772,-23.79885 48.66156,-46.23123 l 2.33844,-7 0.28022,-159.5 c 0.31343,-178.39684 0.68406,-168.330999 -6.75671,-183.5 -8.69397,-17.72383 -23.52446,-30.04678 -43.52351,-36.16457 -5.67717,-1.73668 -12.40274,-1.83543 -125,-1.83543 l -119,0 -8,2.72441 c -18.1169,6.16974 -32.09616,18.05646 -39.9515,33.97119 -8.01385,16.235887 -7.51377,4.16911 -7.51377,181.3044 0,176.22333 -0.43594,165.12126 7.08758,180.5 7.03285,14.37578 22.32549,27.88416 38.04842,33.60914 11.52544,4.19661 13.19259,4.24742 132.82927,4.04817 105.36325,-0.17547 114.97878,-0.32916 120.5,-1.92608 z m -98.47297,-43.83155 c -12.06105,-2.56812 -32.11884,-9.07933 -39.61194,-12.85893 l -5.78871,-2.91989 -3.31834,2.91354 c -2.59112,2.27503 -3.9493,2.78735 -6.19743,2.33772 -4.51789,-0.90358 -9.34948,1.95513 -11.64078,6.8875 -1.60453,3.45401 -2.52618,4.29083 -4.96983,4.51241 -3.90626,0.35422 -8.95224,-2.81461 -11.11133,-6.97781 -0.93964,-1.81182 -2.50205,-6.37228 -3.47202,-10.13436 -0.96998,-3.76207 -1.91317,-6.98971 -2.09598,-7.17253 -0.18282,-0.18281 -3.25476,0.348 -6.82653,1.17958 -9.5533,2.22421 -17.83466,1.45485 -22.4802,-2.08848 -4.13,-3.1501 -6.78942,-8.38086 -6.32042,-12.43148 0.25071,-2.16529 0.7614,-2.59715 2.80648,-2.37327 5.8665,0.64223 30,1.44026 30,0.99202 0,-0.26986 -1.14977,-6.06505 -2.55505,-12.87818 -2.57013,-12.46064 -3.60473,-25.05849 -2.17544,-26.48946 1.39361,-1.39525 6.12896,1.06949 8.33013,4.33581 1.34501,1.99587 2.96091,7.46816 4.27775,14.4868 1.16394,6.20363 2.57516,12.91732 3.13605,14.9193 l 1.01981,3.63997 4.23337,-0.91519 c 2.32836,-0.50335 9.13011,-2.32946 15.11501,-4.05802 l 10.88163,-3.14283 -0.56184,-7.42883 c -0.30902,-4.08586 -0.759,-7.62599 -0.99998,-7.86696 -0.24097,-0.24097 -2.63487,0.42413 -5.31978,1.478 -4.65902,1.82875 -4.93453,2.15306 -6.04099,7.11101 -1.33856,5.99797 -1.68452,6.50864 -3.84723,5.67874 -2.26696,-0.86992 -6.04102,-9.64825 -8.65801,-20.13824 -1.76621,-7.07971 -2.25435,-11.94674 -2.29005,-22.83302 -0.0441,-13.4589 0.0206,-13.88888 2.37758,-15.80035 1.97965,-1.60544 3.35186,-1.85433 7.5,-1.36036 6.69624,0.7974 14.97256,-1.40817 39.57704,-10.54695 25.68099,-9.53862 34.55213,-12.13159 38.78694,-11.33713 4.06201,0.76204 9.21306,4.8789 9.21306,7.36333 0,1.96837 -3.61743,6.12448 -8.79559,10.10537 -2.45551,1.88776 -3.66063,3.93147 -4.72759,8.01733 -1.65393,6.33357 -3.45582,24.98194 -3.46827,35.89416 l -0.009,7.5 15.75,0.0331 c 14.56635,0.0306 16.38879,0.24556 24.25,2.86016 11.59622,3.85686 19.78066,8.02943 24.2344,12.35513 9.24541,8.97961 6.82009,17.02934 -8.56853,28.4393 -8.5027,6.30437 -24.17321,14.40196 -34.16587,17.65488 -9.46528,3.08125 -14.90623,3.30705 -25.47297,1.05711 z m -58.90152,-22.06357 9.87449,-5.16389 0,-4.4035 c 0,-4.09574 -0.15725,-4.35731 -2.25,-3.74261 -1.2375,0.36349 -7.29146,2.25298 -13.45325,4.19887 l -11.20324,3.53799 2.07426,4.11851 c 2.20246,4.37306 3.75638,6.61852 4.58019,6.61852 0.27668,0 4.94658,-2.32375 10.37755,-5.16389 z m 60.32596,1.64991 c 18.0547,-5.23204 29.21316,-11.3109 33.67385,-18.34469 3.07476,-4.84839 3.60716,-8.00885 1.67468,-9.94133 -1.50832,-1.50832 -10.52387,-1.53865 -21.94585,-0.0738 l -8.78131,1.12615 0.58238,4.24888 c 0.79281,5.78419 -1.01347,10.62177 -5.72536,15.33365 -6.32048,6.32049 -10.91761,6.3802 -14.57466,0.18932 -2.36695,-4.00693 -3.42603,-4.23612 -9.66149,-2.09081 -6.97571,2.4 -10.70168,4.36104 -14.73628,7.75592 l -3.28232,2.7619 2.41244,0.67473 c 1.32685,0.37111 8.99961,0.7196 17.05058,0.77442 12.85159,0.0875 15.69692,-0.20714 23.31334,-2.4143 z m -18.70147,-19.07112 c 2.37411,-1.54159 3.07065,-4.4149 1.07026,-4.4149 -0.64886,0 -6.04886,1.16425 -12,2.58723 l -10.82026,2.58723 0,3.86959 0,3.86959 9.75,-3.51887 c 5.3625,-1.93538 10.7625,-4.17632 12,-4.97987 z m -8.5,-15.98591 10.75,-2.87006 -0.0153,-4.52946 c -0.0269,-7.94874 0.2335,-7.87724 -17.73469,-4.87014 l -6.25,1.04598 0,7.50433 c 0,5.58079 0.32041,7.38708 1.25,7.04687 0.6875,-0.25161 6.0875,-1.74899 12,-3.32752 z m -26.25,-14.9678 c 1.20238,-0.34643 1.43433,-1.93432 1.16903,-8.00303 -0.23127,-5.29007 -0.68316,-7.42282 -1.5,-7.07948 -0.64297,0.27025 -2.85653,1.04184 -4.91903,1.71463 l -3.75,1.22327 0,6.953 0,6.953 3.75,-0.66461 c 2.0625,-0.36553 4.425,-0.85909 5.25,-1.09678 z m 21,-6.96119 c 3.025,-0.81194 7.8241,-1.4816 10.66467,-1.48813 l 5.16468,-0.0119 0.33532,-6.5021 c 0.38659,-7.49612 1.39756,-7.0271 -12.59701,-5.84413 -6.61603,0.55926 -7.84607,0.95681 -8.50874,2.75 -1.21956,3.30018 -2.21204,12.5975 -1.34336,12.58436 0.43144,-0.007 3.25944,-0.67616 6.28444,-1.4881 z m -24.86602,-13.65829 3.86602,-1.15829 0,-5.82258 0,-5.82258 -4.75,0.62175 c -2.6125,0.34196 -4.90989,0.75574 -5.10531,0.91951 -0.54832,0.45952 0.98042,12.42048 1.58748,12.42048 0.29468,0 2.2755,-0.52123 4.40181,-1.15829 z m 28.36565,-7.86521 c 2.74979,-0.60327 7.02479,-0.97081 9.5,-0.81676 l 4.50037,0.2801 0.59,-5.46992 c 0.3245,-3.00846 0.5495,-5.53114 0.5,-5.60596 -0.0495,-0.0748 -5.97648,0.994 -13.17107,2.37515 l -13.08107,2.5112 1.57014,4.36635 c 1.0924,3.03785 2.02985,4.22797 3.08107,3.91153 0.83101,-0.25016 3.76076,-0.94842 6.51056,-1.55169 z m -71.06181,-15.39667 c -10.05898,-1.88844 -10.96433,-2.27652 -14.37623,-6.16247 -3.20976,-3.65571 -4.10538,-8.6422 -1.81159,-10.08627 0.6875,-0.43282 15.77446,-1.05634 33.52658,-1.3856 18.25747,-0.33863 32.69074,-1.01281 33.23011,-1.55218 1.81686,-1.81686 -0.79023,-7.759 -4.51091,-10.28139 l -3.52256,-2.38807 8.93207,-9.23299 c 4.91264,-5.07814 10.36162,-11.76601 12.10885,-14.86192 1.74723,-3.09592 3.55318,-5.62894 4.01322,-5.62894 2.17777,0 5.39218,6.65205 5.77556,11.95218 0.38121,5.27015 0.14501,5.96895 -4.21554,12.47167 -3.94308,5.88017 -4.52754,7.37823 -3.99209,10.23242 0.34501,1.83905 0.91471,3.34336 1.266,3.34292 0.35129,-4.5e-4 2.86245,-0.84535 5.58036,-1.87756 5.85053,-2.22193 7.74547,-4.33309 10.50184,-11.70014 3.6369,-9.72049 2.37895,-21.94681 -3.04127,-29.55881 l -2.13988,-3.00518 2.86883,-3.03718 c 1.57786,-1.67045 6.13308,-5.25329 10.12272,-7.96185 6.3761,-4.32873 7.5257,-4.78447 9.5,-3.76609 7.99035,4.12156 12.74611,10.74996 12.74611,17.76506 0,5.18833 -5.35956,15.48657 -13.04275,25.06129 -3.27422,4.0803 -5.79297,7.57888 -5.59724,7.77462 0.19574,0.19574 8.24165,-2.56676 17.87979,-6.13887 21.50947,-7.9719 33.68611,-11.56137 39.12207,-11.53252 8.11918,0.0431 16.68316,6.11009 15.20387,10.77091 -2.06468,6.50523 -12.30135,9.79144 -34.99187,11.23319 -23.30487,1.48079 -28.57205,2.96179 -62.07387,17.4536 -30.03268,12.99117 -29.63069,12.87851 -47,13.17229 -9.32879,0.15778 -17.67008,-0.24756 -22.06218,-1.07212 z M 771.29078,27.41374 C 760.6595,22.20939 749.51216,17.40322 746.51892,16.73336 c -4.46999,-1.00034 -8.77504,-0.91279 -24.09732,0.49005 -10.26028,0.93939 -22.25506,2.35242 -26.65506,3.14008 -11.77275,2.10746 -25.70347,6.36545 -28.06445,8.57802 -1.13545,1.06407 -2.99285,1.93468 -4.12756,1.93468 -1.1347,0 -2.6233,0.675 -3.30799,1.5 -4.01476,4.83749 -18.0767,-2.89799 -22.19589,-12.20999 -2.269,-5.1294 -1.76324,-7.76649 2.98271,-15.55217 2.99359,-4.91095 6.80631,-15.47805 5.90856,-16.3758 -0.15593,-0.15593 -3.63868,2.47104 -7.73945,5.83771 -16.12482,13.23826 -33.23612,22.64437 -48.52403,26.67376 -8.15623,2.14972 -16.4319,2.80969 -16.4319,1.31042 0,-0.44884 3.89019,-2.78858 8.64487,-5.19942 22.51145,-11.41436 48.29926,-33.04713 54.88345,-46.0404 4.76702,-9.40726 5.80441,-15.91911 5.11598,-32.113927 l -0.6236,-14.669818 3.23965,-2.73466 c 3.99142,-3.369249 14.45919,-8.423848 17.4475,-8.424916 2.37133,-8.47e-4 6.54517,6.021421 7.85242,11.329974 0.3834,1.55692 1.36597,3.087438 2.18349,3.40115 2.12955,0.817186 21.42828,-3.162623 32.94647,-6.794266 5.39538,-1.70114 17.33333,-6.708731 26.52879,-11.12798 13.93159,-6.695389 17.76619,-8.11897 23,-8.538662 13.4469,-1.07829 29.60556,3.657155 34.21809,10.027929 3.84306,5.308003 1.77557,15.541903 -3.58872,17.763867 -2.44027,1.010792 -5.16257,0.911423 -15.02954,-0.548608 -14.7741,-2.186144 -30.23195,-1.664368 -43.50848,1.468619 l -9.18963,2.168562 -7.65605,8.013504 c -7.2222,7.559395 -10.35595,12.615152 -11.88587,19.175802 l -0.66244,2.84068 6.17566,-3.34068 c 3.39661,-1.83737 9.66573,-6.60318 13.93138,-10.59068 6.9271,-6.475408 8.17908,-7.25 11.71827,-7.25 2.47032,0 5.24212,0.860913 7.36043,2.286128 3.36053,2.260998 3.40144,2.379167 3.72159,10.750002 0.2964,7.74957 -1.22107,29.70066 -2.49274,36.059 -0.52227,2.61137 -0.42886,2.66098 6.31946,3.35589 10.20687,1.05107 14.69038,2.31531 27.34957,7.71194 13.97482,5.95748 21.60537,11.07552 25.23677,16.92707 3.15062,5.07683 4.41358,12.17608 2.87487,16.15997 -0.93293,2.41547 -1.59104,2.75 -5.40997,2.75 -3.46227,0 -8.28485,-1.9273 -23.67743,-9.46245 z m -96.04809,-36.84161 3.94595,-9.19594 -9.21105,-0.58015 c -5.06608,-0.31908 -10.21801,-0.91014 -11.44875,-1.31348 -2.02422,-0.66337 -2.18911,-0.46493 -1.72848,2.08015 0.85827,4.74216 4.4613,30.72617 4.46382,32.19179 0.005,2.63029 10.05353,-14.0353 13.97851,-23.18237 z m 18.93138,12.8473 c 7.37414,-2.99582 16.67333,-6.21686 20.66487,-7.15787 l 7.25733,-1.71092 0.69507,-10.19756 c 0.7049,-10.34193 -0.10582,-14.47689 -2.83842,-14.47689 -0.68379,0 -5.76488,1.98996 -11.29131,4.42214 -5.52643,2.43217 -11.61161,4.71546 -13.52262,5.07397 -3.40278,0.63836 -3.58716,0.9321 -8.92351,14.21592 -2.99692,7.46026 -5.59894,13.95197 -5.78227,14.42603 -0.47066,1.21703 -1.00318,1.3951 13.74086,-4.59482 z m -13.99328,-34.94814 c 4.33843,-1.07629 4.45497,-1.21532 6.7855,-8.0951 1.3042,-3.85 3.07089,-9.75634 3.92598,-13.12519 1.41892,-5.590195 1.41358,-6.398121 -0.0612,-9.25 -1.47275,-2.848011 -2.04545,-3.12481 -6.46521,-3.12481 -2.66713,0 -6.25557,-0.28125 -7.97432,-0.625 l -3.125,-0.625 -0.0119,6.375 c -0.0153,8.22957 -1.94,15.30207 -6.34522,23.31639 -3.06147,5.56966 -3.30822,6.48879 -1.83935,6.85156 2.15603,0.53248 9.4025,-0.28174 15.11069,-1.69785 z"
         id="path3255"
         inkscape:connector-curvature="0" />
      <path
         style="fill:#c38c8f"
         d="m 574.76654,293.22847 c -22.59689,-4.697 -40.80984,-17.12436 -51.31241,-35.01232 -1.66629,-2.83803 -4.30266,-8.46303 -5.8586,-12.5 l -2.82899,-7.33996 0,-167 0,-167 2.67921,-7.3346 c 8.51084,-23.29923 27.86993,-40.57617 52.59081,-46.93443 6.19306,-1.59287 16.0243,-1.73097 123.22998,-1.73097 107.20568,0 117.03691,0.1381 123.22998,1.73097 24.90778,6.40633 44.12473,23.72976 52.44639,47.27863 l 2.82363,7.9904 0.2794,163 c 0.30945,180.52791 0.66556,169.91207 -6.17574,184.10169 -7.30802,15.15767 -18.58767,26.36086 -34.10366,33.8725 -16.38708,7.93335 -9.00203,7.54023 -139.19741,7.40981 -63.69142,-0.0638 -116.70259,-0.30308 -117.80259,-0.53172 z m 242.34717,-5.57055 c 20.89484,-6.4553 36.19329,-19.13076 44.69413,-37.03112 6.81686,-14.35437 6.52982,-5.90969 6.22954,-183.27252 l -0.27084,-159.97809 -2.95718,-8.47598 c -5.99802,-17.19177 -18.06029,-30.84323 -34.04282,-38.52794 -16.3991,-7.885 -9.27784,-7.49822 -137.69741,-7.47872 -128.59106,0.0195 -121.60709,-0.36658 -137.78086,7.61746 -13.05084,6.44243 -23.95819,17.19705 -29.83917,29.42136 -7.68518,15.974549 -7.27363,5.04048 -6.96125,184.94382 l 0.27869,160.5 2.82363,7.9904 c 3.79046,10.72635 8.78427,18.75521 16.27051,26.15911 10.05678,9.94616 23.61083,16.87888 37.64341,19.25411 2.91219,0.49293 56.84596,0.8102 120.76245,0.71041 104.24001,-0.16276 116.02129,-0.34139 120.84717,-1.8323 z m -98.82014,-43.88205 c -12.06105,-2.56812 -32.11884,-9.07933 -39.61194,-12.85893 l -5.78871,-2.91989 -3.31834,2.91354 c -2.59112,2.27503 -3.9493,2.78735 -6.19743,2.33772 -4.51789,-0.90358 -9.34948,1.95513 -11.64078,6.8875 -1.60453,3.45401 -2.52618,4.29083 -4.96983,4.51241 -3.90626,0.35422 -8.95224,-2.81461 -11.11133,-6.97781 -0.93964,-1.81182 -2.50205,-6.37228 -3.47202,-10.13436 -0.96998,-3.76207 -1.91317,-6.98971 -2.09598,-7.17253 -0.18282,-0.18281 -3.25476,0.348 -6.82653,1.17958 -9.5533,2.22421 -17.83466,1.45485 -22.4802,-2.08848 -4.13,-3.1501 -6.78942,-8.38086 -6.32042,-12.43148 0.25071,-2.16529 0.7614,-2.59715 2.80648,-2.37327 5.8665,0.64223 30,1.44026 30,0.99202 0,-0.26986 -1.14977,-6.06505 -2.55505,-12.87818 -2.57013,-12.46064 -3.60473,-25.05849 -2.17544,-26.48946 1.39361,-1.39525 6.12896,1.06949 8.33013,4.33581 1.34501,1.99587 2.96091,7.46816 4.27775,14.4868 1.16394,6.20363 2.57516,12.91732 3.13605,14.9193 l 1.01981,3.63997 4.23337,-0.91519 c 2.32836,-0.50335 9.13011,-2.32946 15.11501,-4.05802 l 10.88163,-3.14283 -0.56184,-7.42883 c -0.30902,-4.08586 -0.759,-7.62599 -0.99998,-7.86696 -0.24097,-0.24097 -2.63487,0.42413 -5.31978,1.478 -4.65902,1.82875 -4.93453,2.15306 -6.04099,7.11101 -1.33856,5.99797 -1.68452,6.50864 -3.84723,5.67874 -2.26696,-0.86992 -6.04102,-9.64825 -8.65801,-20.13824 -1.76621,-7.07971 -2.25435,-11.94674 -2.29005,-22.83302 -0.0441,-13.4589 0.0206,-13.88888 2.37758,-15.80035 1.97965,-1.60544 3.35186,-1.85433 7.5,-1.36036 6.69624,0.7974 14.97256,-1.40817 39.57704,-10.54695 25.68099,-9.53862 34.55213,-12.13159 38.78694,-11.33713 4.06201,0.76204 9.21306,4.8789 9.21306,7.36333 0,1.96837 -3.61743,6.12448 -8.79559,10.10537 -2.45551,1.88776 -3.66063,3.93147 -4.72759,8.01733 -1.65393,6.33357 -3.45582,24.98194 -3.46827,35.89416 l -0.009,7.5 15.75,0.0331 c 14.56635,0.0306 16.38879,0.24556 24.25,2.86016 11.59622,3.85686 19.78066,8.02943 24.2344,12.35513 9.24541,8.97961 6.82009,17.02934 -8.56853,28.4393 -8.5027,6.30437 -24.17321,14.40196 -34.16587,17.65488 -9.46528,3.08125 -14.90623,3.30705 -25.47297,1.05711 z m -58.90152,-22.06357 9.87449,-5.16389 0,-4.4035 c 0,-4.09574 -0.15725,-4.35731 -2.25,-3.74261 -1.2375,0.36349 -7.29146,2.25298 -13.45325,4.19887 l -11.20324,3.53799 2.07426,4.11851 c 2.20246,4.37306 3.75638,6.61852 4.58019,6.61852 0.27668,0 4.94658,-2.32375 10.37755,-5.16389 z m 60.32596,1.64991 c 18.0547,-5.23204 29.21316,-11.3109 33.67385,-18.34469 3.07476,-4.84839 3.60716,-8.00885 1.67468,-9.94133 -1.50832,-1.50832 -10.52387,-1.53865 -21.94585,-0.0738 l -8.78131,1.12615 0.58238,4.24888 c 0.79281,5.78419 -1.01347,10.62177 -5.72536,15.33365 -6.32048,6.32049 -10.91761,6.3802 -14.57466,0.18932 -2.36695,-4.00693 -3.42603,-4.23612 -9.66149,-2.09081 -6.97571,2.4 -10.70168,4.36104 -14.73628,7.75592 l -3.28232,2.7619 2.41244,0.67473 c 1.32685,0.37111 8.99961,0.7196 17.05058,0.77442 12.85159,0.0875 15.69692,-0.20714 23.31334,-2.4143 z m -18.70147,-19.07112 c 2.37411,-1.54159 3.07065,-4.4149 1.07026,-4.4149 -0.64886,0 -6.04886,1.16425 -12,2.58723 l -10.82026,2.58723 0,3.86959 0,3.86959 9.75,-3.51887 c 5.3625,-1.93538 10.7625,-4.17632 12,-4.97987 z m -8.5,-15.98591 10.75,-2.87006 -0.0153,-4.52946 c -0.0269,-7.94874 0.2335,-7.87724 -17.73469,-4.87014 l -6.25,1.04598 0,7.50433 c 0,5.58079 0.32041,7.38708 1.25,7.04687 0.6875,-0.25161 6.0875,-1.74899 12,-3.32752 z m -26.25,-14.9678 c 1.20238,-0.34643 1.43433,-1.93432 1.16903,-8.00303 -0.23127,-5.29007 -0.68316,-7.42282 -1.5,-7.07948 -0.64297,0.27025 -2.85653,1.04184 -4.91903,1.71463 l -3.75,1.22327 0,6.953 0,6.953 3.75,-0.66461 c 2.0625,-0.36553 4.425,-0.85909 5.25,-1.09678 z m 21,-6.96119 c 3.025,-0.81194 7.8241,-1.4816 10.66467,-1.48813 l 5.16468,-0.0119 0.33532,-6.5021 c 0.38659,-7.49612 1.39756,-7.0271 -12.59701,-5.84413 -6.61603,0.55926 -7.84607,0.95681 -8.50874,2.75 -1.21956,3.30018 -2.21204,12.5975 -1.34336,12.58436 0.43144,-0.007 3.25944,-0.67616 6.28444,-1.4881 z m -24.86602,-13.65829 3.86602,-1.15829 0,-5.82258 0,-5.82258 -4.75,0.62175 c -2.6125,0.34196 -4.90989,0.75574 -5.10531,0.91951 -0.54832,0.45952 0.98042,12.42048 1.58748,12.42048 0.29468,0 2.2755,-0.52123 4.40181,-1.15829 z m 28.36565,-7.86521 c 2.74979,-0.60327 7.02479,-0.97081 9.5,-0.81676 l 4.50037,0.2801 0.59,-5.46992 c 0.3245,-3.00846 0.5495,-5.53114 0.5,-5.60596 -0.0495,-0.0748 -5.97648,0.994 -13.17107,2.37515 l -13.08107,2.5112 1.57014,4.36635 c 1.0924,3.03785 2.02985,4.22797 3.08107,3.91153 0.83101,-0.25016 3.76076,-0.94842 6.51056,-1.55169 z m -71.06181,-15.39667 c -10.05898,-1.88844 -10.96433,-2.27652 -14.37623,-6.16247 -3.20976,-3.65571 -4.10538,-8.6422 -1.81159,-10.08627 0.6875,-0.43282 15.77446,-1.05634 33.52658,-1.3856 18.25747,-0.33863 32.69074,-1.01281 33.23011,-1.55218 1.81686,-1.81686 -0.79023,-7.759 -4.51091,-10.28139 l -3.52256,-2.38807 8.93207,-9.23299 c 4.91264,-5.07814 10.36162,-11.76601 12.10885,-14.86192 1.74723,-3.09592 3.55318,-5.62894 4.01322,-5.62894 2.17777,0 5.39218,6.65205 5.77556,11.95218 0.38121,5.27015 0.14501,5.96895 -4.21554,12.47167 -3.94308,5.88017 -4.52754,7.37823 -3.99209,10.23242 0.34501,1.83905 0.91471,3.34336 1.266,3.34292 0.35129,-4.5e-4 2.86245,-0.84535 5.58036,-1.87756 5.85053,-2.22193 7.74547,-4.33309 10.50184,-11.70014 3.6369,-9.72049 2.37895,-21.94681 -3.04127,-29.55881 l -2.13988,-3.00518 2.86883,-3.03718 c 1.57786,-1.67045 6.13308,-5.25329 10.12272,-7.96185 6.3761,-4.32873 7.5257,-4.78447 9.5,-3.76609 7.99035,4.12156 12.74611,10.74996 12.74611,17.76506 0,5.18833 -5.35956,15.48657 -13.04275,25.06129 -3.27422,4.0803 -5.79297,7.57888 -5.59724,7.77462 0.19574,0.19574 8.24165,-2.56676 17.87979,-6.13887 21.50947,-7.9719 33.68611,-11.56137 39.12207,-11.53252 8.11918,0.0431 16.68316,6.11009 15.20387,10.77091 -2.06468,6.50523 -12.30135,9.79144 -34.99187,11.23319 -23.30487,1.48079 -28.57205,2.96179 -62.07387,17.4536 -30.03268,12.99117 -29.63069,12.87851 -47,13.17229 -9.32879,0.15778 -17.67008,-0.24756 -22.06218,-1.07212 z M 788.26654,35.44189 c -1.925,-0.71135 -10.25,-4.68046 -18.5,-8.82024 -22.20162,-11.14059 -23.20228,-11.37495 -42.26105,-9.89793 -29.09856,2.25508 -52.24287,6.80418 -59.22116,11.64014 -1.99391,1.38178 -4.17944,2.51233 -4.85672,2.51233 -0.67729,0 -2.34586,0.7302 -3.70793,1.62266 -3.26728,2.14081 -7.38766,1.26678 -12.98793,-2.75503 -5.73541,-4.11886 -9.86521,-10.13289 -9.86521,-14.36623 0,-2.05404 1.36704,-5.53557 3.59581,-9.15765 3.26384,-5.30425 6.80419,-14.6867 6.80419,-18.03211 0,-0.72895 -3.2625,1.42797 -7.25,4.79314 -14.66462,12.37593 -29.45993,21.17365 -43.5136,25.87444 -9.28437,3.10552 -22.24709,5.0976 -22.22426,3.41538 0.007,-0.49203 5.10691,-3.50418 11.33385,-6.69366 14.01597,-7.17908 27.19435,-16.92001 39.85801,-29.46143 15.38041,-15.23195 18.5697,-23.94641 17.49173,-47.794706 l -0.60369,-13.355843 4.55688,-4.011134 c 5.24215,-4.614321 15.02896,-8.746629 17.35108,-7.326187 1.96482,1.20188 6.9467,10.218948 6.97664,12.627526 0.0213,1.709509 0.58763,1.817818 6.27336,1.199658 16.25202,-1.766942 40.49137,-9.617826 56.97545,-18.453784 5.101,-2.734291 11.95657,-5.740407 15.23459,-6.680258 15.38971,-4.412432 41.23574,3.452791 41.64592,12.673295 0.36247,8.147982 -1.37185,12.261303 -5.90826,14.012721 -1.97352,0.761938 -5.51636,0.614192 -13.1977,-0.550376 -14.95591,-2.267466 -28.24901,-2.027882 -41.64789,0.750628 -10.04807,2.083657 -11.63737,2.721549 -16.10943,6.465769 -6.99607,5.857439 -13.00008,14.023251 -14.82224,20.159131 -0.85608,2.88272 -1.32122,5.47661 -1.03364,5.76418 1.33441,1.33441 18.04207,-10.3125 24.55937,-17.120334 4.67361,-4.881963 10.91201,-4.741615 16.0139,0.36027 1.77563,1.775636 2.03887,3.303164 2.03173,11.789934 -0.007,8.72819 -0.89217,19.93128 -2.519,31.89395 l -0.56354,4.14395 7.29537,0.72457 c 10.03235,0.99639 18.20723,3.64465 32.38005,10.48953 9.78395,4.72523 12.96818,6.81905 16.72526,10.99784 6.36954,7.08445 8.43911,15.05803 5.13336,19.77765 -1.79102,2.55703 -5.89224,2.83952 -11.4433,0.78821 z M 674.9656,-8.37722 c 2.36552,-5.36438 4.30094,-9.97688 4.30094,-10.25 0,-0.27313 -3.0375,-0.50759 -6.75,-0.52104 -3.7125,-0.0134 -8.72189,-0.47905 -11.13198,-1.03469 -2.41008,-0.55563 -4.49916,-0.88213 -4.6424,-0.72555 -0.14323,0.15658 0.80952,7.70969 2.11724,16.78469 1.30771,9.075 2.38429,17.1702 2.3924,17.98932 0.0273,2.7578 9.37501,-12.40346 13.7138,-22.24273 z m 38.94207,5.05283 8.14113,-2.06749 0.69866,-9.31889 c 0.85382,-11.38823 0.15443,-15.41304 -2.6783,-15.41304 -1.12115,0 -6.04636,1.80466 -10.94491,4.01036 -4.89854,2.20569 -10.87957,4.53808 -13.29118,5.18309 l -4.38473,1.17274 -5.936,14.67216 -5.93599,14.67215 13.09509,-5.42179 c 7.20231,-2.98199 16.75861,-6.35217 21.23623,-7.48929 z m -33.14113,-28.22019 c 3.9645,-1.10689 4.02811,-1.20191 7.16747,-10.70624 6.43344,-19.477104 5.62526,-22.246205 -6.77804,-23.223965 l -7.61058,-0.599946 -0.52968,8.225461 c -0.56896,8.83543 -2.99787,16.48068 -7.3025,22.98542 -2.1088,3.18661 -2.37209,4.16995 -1.29644,4.84202 1.53912,0.96164 10.41105,0.13534 16.34977,-1.52275 z"
         id="path3253"
         inkscape:connector-curvature="0" />
      <path
         style="fill:#7a7a7a"
         d="m 574.76654,293.22847 c -22.59689,-4.697 -40.80984,-17.12436 -51.31241,-35.01232 -1.66629,-2.83803 -4.30266,-8.46303 -5.8586,-12.5 l -2.82899,-7.33996 0,-167 0,-167 2.67921,-7.3346 c 8.51084,-23.29923 27.86993,-40.57617 52.59081,-46.93443 6.19306,-1.59287 16.0243,-1.73097 123.22998,-1.73097 107.20568,0 117.03691,0.1381 123.22998,1.73097 24.90778,6.40633 44.12473,23.72976 52.44639,47.27863 l 2.82363,7.9904 0.2794,163 c 0.30945,180.52791 0.66556,169.91207 -6.17574,184.10169 -7.30802,15.15767 -18.58767,26.36086 -34.10366,33.8725 -16.38708,7.93335 -9.00203,7.54023 -139.19741,7.40981 -63.69142,-0.0638 -116.70259,-0.30308 -117.80259,-0.53172 z m 242.34717,-5.57055 c 20.89484,-6.4553 36.19329,-19.13076 44.69413,-37.03112 6.81686,-14.35437 6.52982,-5.90969 6.22954,-183.27252 l -0.27084,-159.97809 -2.95718,-8.47598 c -5.99802,-17.19177 -18.06029,-30.84323 -34.04282,-38.52794 -16.3991,-7.885 -9.27784,-7.49822 -137.69741,-7.47872 -128.59106,0.0195 -121.60709,-0.36658 -137.78086,7.61746 -13.05084,6.44243 -23.95819,17.19705 -29.83917,29.42136 -7.68518,15.974549 -7.27363,5.04048 -6.96125,184.94382 l 0.27869,160.5 2.82363,7.9904 c 3.79046,10.72635 8.78427,18.75521 16.27051,26.15911 10.05678,9.94616 23.61083,16.87888 37.64341,19.25411 2.91219,0.49293 56.84596,0.8102 120.76245,0.71041 104.24001,-0.16276 116.02129,-0.34139 120.84717,-1.8323 z M 641.53623,243.3936 c -4.30447,-1.87127 -6.56716,-5.87386 -8.76808,-15.51034 -1.00582,-4.40389 -2.31765,-7.99126 -2.91519,-7.97194 -0.59753,0.0193 -4.01142,0.67851 -7.58642,1.46487 -8.73243,1.92079 -13.71113,1.81833 -18.5,-0.38073 -5.95724,-2.73558 -7.76809,-5.30692 -8.30608,-11.79435 -0.43058,-5.19226 -0.31858,-5.58673 1.3991,-4.9276 7.12158,2.73281 30.41189,2.942 30.40315,0.27309 -0.002,-0.64373 -1.11659,-6.79541 -2.47662,-13.67041 -2.53427,-12.8108 -3.23153,-23.44194 -1.60347,-24.44814 1.51526,-0.93647 5.87972,1.20357 7.45104,3.65351 0.80944,1.26204 2.90152,9.26963 4.64907,17.79463 1.74754,8.525 3.35825,15.68695 3.57936,15.91545 0.50581,0.52271 23.51267,-5.51687 27.75488,-7.286 l 3.14957,-1.31346 -0.329,-7.658 c -0.21471,-4.99748 -0.73583,-7.65771 -1.5,-7.65718 -0.64405,4.5e-4 -3.421,0.85335 -6.171,1.89533 -4.83969,1.83376 -5.01749,2.04199 -5.54546,6.49465 -1.53978,12.9856 -7.44804,5.35449 -12.03046,-15.53854 -3.58665,-16.35292 -3.73194,-32.90153 -0.31883,-36.31465 1.02552,-1.02552 3.5647,-1.47853 8.19052,-1.46126 8.50007,0.0317 14.31729,-1.54029 37.20423,-10.05397 34.61021,-12.87459 39.37584,-13.91973 45.75,-10.03333 2.52695,1.54071 3.25,2.66238 3.25,5.04172 0,3.09596 -0.98248,4.35732 -8.22709,10.56239 -5.46351,4.67954 -7.68614,15.72443 -7.74203,38.47244 l -0.0309,12.56559 15.25,-0.0159 c 14.61635,-0.0152 15.66551,0.12206 25.25,3.3034 22.7408,7.54827 30.173,14.34985 28.04944,25.66944 -2.0754,11.06283 -37.95974,32.32053 -57.6347,34.14251 -9.81239,0.90867 -36.5206,-5.82991 -52.78286,-13.3173 l -7.36811,-3.39239 -2.95861,2.4895 c -2.06605,1.73852 -4.15717,2.48956 -6.93155,2.48956 -5.85512,0 -9.47284,2.30556 -11.77144,7.50192 -2.20651,4.9882 -4.01726,5.54353 -9.83248,3.01549 z m 18.23031,-21.8056 10,-5.21181 0.3075,-4.25 c 0.2577,-3.56178 0.0148,-4.24095 -1.5,-4.19411 -3.05597,0.0945 -25.66972,7.53078 -26.01056,8.5533 -0.39018,1.17053 5.34703,10.40624 6.43104,10.35262 0.42461,-0.021 5.27202,-2.3835 10.77202,-5.25 z m 61.69945,1.66537 c 16.4815,-5.2065 27.1613,-11.13157 31.92994,-17.71449 3.6578,-5.04945 3.75554,-9.03676 0.27737,-11.31574 -2.36865,-1.552 -3.64607,-1.5861 -14.75,-0.39379 -6.68622,0.71794 -12.71926,1.52033 -13.40676,1.78309 -0.80618,0.30811 -1.25,2.58772 -1.25,6.4204 0,3.26847 -0.65201,7.20352 -1.44892,8.74457 -2.27655,4.40236 -8.21984,9.09878 -11.51445,9.09878 -2.91633,0 -3.62561,-0.49255 -7.85858,-5.45733 -2.56506,-3.00852 -3.29185,-2.98051 -12.46878,0.48053 -2.8651,1.08056 -7.44115,3.87989 -10.169,6.22073 l -4.95974,4.25607 8.95974,0.62747 c 15.30704,1.072 27.44127,0.16165 36.65918,-2.75029 z m -34.56851,-12.8953 c 11.30438,-4.14407 16.17834,-6.64457 16.67833,-8.55652 0.26026,-0.99525 0.27578,-2.00698 0.0345,-2.24828 -0.41483,-0.41484 -13.44509,2.24335 -21.59374,4.40515 -3.53483,0.93777 -3.75,1.22216 -3.75,4.95631 0,2.1788 0.39642,3.96146 0.88094,3.96146 0.48452,0 3.97202,-1.13316 7.75,-2.51812 z m 5.55241,-21.6311 11.68336,-3.18061 -0.51783,-5.08509 c -0.2848,-2.79679 -0.66607,-5.58343 -0.84726,-6.19253 -0.23756,-0.79856 -3.06035,-0.72949 -10.12039,0.24763 -14.33601,1.98413 -13.38123,1.2758 -13.38123,9.92721 0,4.08793 0.3375,7.43967 0.75,7.4483 0.4125,0.009 6.00751,-1.41558 12.43335,-3.16491 z m -24.99853,-22.87611 c -0.17336,-4.09111 -0.48352,-7.6067 -0.68925,-7.81243 -0.20573,-0.20573 -2.4264,0.40973 -4.93481,1.36771 l -4.56076,1.74177 0,7.25659 0,7.2566 5.25,-1.18594 5.25,-1.18594 -0.31518,-7.43836 z m 32.06518,-0.66277 c 3.32537,0.44142 3.75098,0.25378 3.75869,-1.65706 0.005,-1.18516 0.28668,-4.46848 0.62643,-7.29625 l 0.61774,-5.14142 -4.37643,0.37064 c -20.38164,1.72613 -18.43436,0.64096 -19.48094,10.85619 l -0.65763,6.41886 7.88107,-2.02438 c 4.50429,-1.157 9.48782,-1.81109 11.63107,-1.52658 z m -35.93612,-12.38212 3.81388,-1.05906 -0.68908,-5.68536 c -0.37899,-3.12695 -0.82893,-5.84405 -0.99986,-6.038 -0.17092,-0.19396 -2.5638,-0.0428 -5.3175,0.33595 l -5.00673,0.68861 0.52717,5.16404 c 0.87344,8.55589 0.80821,8.49984 7.67212,6.59382 z m 32.33727,-7.62582 9.15116,-0.56614 0.68132,-5.4531 c 0.37473,-2.99921 0.45811,-5.67631 0.1853,-5.94913 -0.40165,-0.40164 -13.10919,1.79126 -24.36499,4.20459 -1.99002,0.42667 -2.09903,0.77525 -1.16193,3.71533 0.56878,1.78447 1.22497,3.85804 1.45821,4.60794 0.28204,0.90677 1.17364,1.13623 2.66193,0.68505 1.23082,-0.37312 6.35587,-0.93317 11.389,-1.24454 z m -70.60077,-15.38776 c -10.65505,-1.19369 -15.11649,-2.39376 -18.34744,-4.93523 -3.1668,-2.491 -5.36551,-8.47769 -3.80441,-10.35871 0.81896,-0.98678 8.49653,-1.46609 31.84033,-1.98779 16.91862,-0.3781 32.03749,-0.96042 33.59747,-1.29404 2.6456,-0.5658 2.79109,-0.84768 2.16366,-4.19216 -0.44481,-2.37108 -1.9136,-4.6595 -4.33632,-6.75616 l -3.66367,-3.17059 9,-9.38969 c 4.95,-5.16432 10.35,-11.73024 12,-14.59091 1.65,-2.86068 3.34411,-5.21016 3.7647,-5.22108 1.26118,-0.0327 4.68426,6.24081 5.36178,9.82662 0.8415,4.45367 -0.89083,9.85968 -5.13803,16.03402 -3.32462,4.83313 -4.17469,8.16764 -2.91744,11.44398 0.49027,1.27761 1.43008,1.18312 6.64586,-0.66821 5.97842,-2.12202 6.1285,-2.26848 9.45487,-9.22696 1.85901,-3.88889 3.64716,-9.32624 3.97365,-12.08299 0.71434,-6.0315 -1.44968,-14.30522 -5.1789,-19.80054 l -2.57771,-3.79847 2.30561,-2.49477 c 3.74603,-4.05337 15.9454,-12.25252 18.2303,-12.25252 3.11681,0 9.04223,4.40138 11.6874,8.68136 5.59415,9.05153 1.59499,19.91807 -14.75761,40.09952 l -2.65843,3.28088 8.40198,-3.13014 c 19.74458,-7.35582 33.76387,-12.1413 41.26378,-14.08537 6.9662,-1.80572 8.71014,-1.92462 13.26823,-0.90456 7.06406,1.58087 10.36996,4.28295 10.36996,8.4759 0,7.68345 -9.06592,10.64826 -38.34614,12.54027 -18.98533,1.22678 -25.63731,3.18955 -57.60207,16.99643 -28.33457,12.23886 -31.33782,13.15331 -44.55179,13.56544 -6.05,0.1887 -14.80233,-0.0829 -19.44962,-0.60353 z m 162.94962,-94.3505 c -1.925,-0.71135 -10.25,-4.68046 -18.5,-8.82024 -22.20162,-11.14059 -23.20228,-11.37495 -42.26105,-9.89793 -29.09856,2.25508 -52.24287,6.80418 -59.22116,11.64014 -1.99391,1.38178 -4.17944,2.51233 -4.85672,2.51233 -0.67729,0 -2.34586,0.7302 -3.70793,1.62266 -3.26728,2.14081 -7.38766,1.26678 -12.98793,-2.75503 -5.73541,-4.11886 -9.86521,-10.13289 -9.86521,-14.36623 0,-2.05404 1.36704,-5.53557 3.59581,-9.15765 3.26384,-5.30425 6.80419,-14.6867 6.80419,-18.03211 0,-0.72895 -3.2625,1.42797 -7.25,4.79314 -14.66462,12.37593 -29.45993,21.17365 -43.5136,25.87444 -9.28437,3.10552 -22.24709,5.0976 -22.22426,3.41538 0.007,-0.49203 5.10691,-3.50418 11.33385,-6.69366 14.01597,-7.17908 27.19435,-16.92001 39.85801,-29.46143 15.38041,-15.23195 18.5697,-23.94641 17.49173,-47.794706 l -0.60369,-13.355843 4.55688,-4.011134 c 5.24215,-4.614321 15.02896,-8.746629 17.35108,-7.326187 1.96482,1.20188 6.9467,10.218948 6.97664,12.627526 0.0213,1.709509 0.58763,1.817818 6.27336,1.199658 16.25202,-1.766942 40.49137,-9.617826 56.97545,-18.453784 5.101,-2.734291 11.95657,-5.740407 15.23459,-6.680258 15.38971,-4.412432 41.23574,3.452791 41.64592,12.673295 0.36247,8.147982 -1.37185,12.261303 -5.90826,14.012721 -1.97352,0.761938 -5.51636,0.614192 -13.1977,-0.550376 -14.95591,-2.267466 -28.24901,-2.027882 -41.64789,0.750628 -10.04807,2.083657 -11.63737,2.721549 -16.10943,6.465769 -6.99607,5.857439 -13.00008,14.023251 -14.82224,20.159131 -0.85608,2.88272 -1.32122,5.47661 -1.03364,5.76418 1.33441,1.33441 18.04207,-10.3125 24.55937,-17.120334 4.67361,-4.881963 10.91201,-4.741615 16.0139,0.36027 1.77563,1.775636 2.03887,3.303164 2.03173,11.789934 -0.007,8.72819 -0.89217,19.93128 -2.519,31.89395 l -0.56354,4.14395 7.29537,0.72457 c 10.03235,0.99639 18.20723,3.64465 32.38005,10.48953 9.78395,4.72523 12.96818,6.81905 16.72526,10.99784 6.36954,7.08445 8.43911,15.05803 5.13336,19.77765 -1.79102,2.55703 -5.89224,2.83952 -11.4433,0.78821 z M 674.9656,-8.37722 c 2.36552,-5.36438 4.30094,-9.97688 4.30094,-10.25 0,-0.27313 -3.0375,-0.50759 -6.75,-0.52104 -3.7125,-0.0134 -8.72189,-0.47905 -11.13198,-1.03469 -2.41008,-0.55563 -4.49916,-0.88213 -4.6424,-0.72555 -0.14323,0.15658 0.80952,7.70969 2.11724,16.78469 1.30771,9.075 2.38429,17.1702 2.3924,17.98932 0.0273,2.7578 9.37501,-12.40346 13.7138,-22.24273 z m 38.94207,5.05283 8.14113,-2.06749 0.69866,-9.31889 c 0.85382,-11.38823 0.15443,-15.41304 -2.6783,-15.41304 -1.12115,0 -6.04636,1.80466 -10.94491,4.01036 -4.89854,2.20569 -10.87957,4.53808 -13.29118,5.18309 l -4.38473,1.17274 -5.936,14.67216 -5.93599,14.67215 13.09509,-5.42179 c 7.20231,-2.98199 16.75861,-6.35217 21.23623,-7.48929 z m -33.14113,-28.22019 c 3.9645,-1.10689 4.02811,-1.20191 7.16747,-10.70624 6.43344,-19.477104 5.62526,-22.246205 -6.77804,-23.223965 l -7.61058,-0.599946 -0.52968,8.225461 c -0.56896,8.83543 -2.99787,16.48068 -7.3025,22.98542 -2.1088,3.18661 -2.37209,4.16995 -1.29644,4.84202 1.53912,0.96164 10.41105,0.13534 16.34977,-1.52275 z"
         id="path3251"
         inkscape:connector-curvature="0" />
      <path
         style="fill:#a55357"
         d="m 576.76654,293.17559 c -27.85707,-3.98202 -50.36442,-22.5084 -59.28545,-48.7994 l -2.71455,-8 -0.2678,-161.49425 c -0.30153,-181.83989 -0.73737,-170.516203 7.17984,-186.54379 5.33857,-10.80739 13.70373,-20.39094 23.45987,-26.87681 8.46068,-5.62465 14.41968,-8.20187 24.62809,-10.65147 7.64739,-1.83506 13.05956,-1.91998 122.79216,-1.92667 130.5945,-0.008 123.08433,-0.44347 140.65693,8.15631 8.71016,4.26264 11.7057,6.38155 18,12.73245 8.67708,8.7551 13.94605,17.20964 17.8265,28.60423 l 2.72441,8 0,164 c 0,153.62487 -0.11163,164.40409 -1.76453,170.38747 -6.83623,24.74672 -25.9146,43.45561 -51.73547,50.73355 -6.11803,1.72445 -13.31664,1.8402 -122.5,1.96967 -63.8,0.0756 -117.35,-0.0554 -119,-0.29129 z m 243.5,-6.14085 c 19.58848,-7.05624 34.44967,-20.06828 42.16218,-36.91605 6.11615,-13.36057 5.80688,-3.86257 5.82304,-178.83254 0.0144,-156.084725 -0.0346,-160.282943 -1.95722,-167.800479 -5.17484,-20.233441 -20.96906,-38.036931 -40.94505,-46.153901 -13.33907,-5.42015 -14.23946,-5.45724 -131.96394,-5.43577 -66.80991,0.0122 -111.27414,0.4036 -115.51696,1.01688 -14.70143,2.12505 -27.31952,8.18072 -38.35833,18.40893 -7.1325,6.60874 -10.92663,11.69452 -15.29929,20.50767 -6.22369,12.543914 -5.91345,3.1482 -5.92965,179.58661 -0.0163,178.0224 -0.45089,165.92063 6.46202,179.9601 6.9776,14.17084 17.32596,24.32833 32.1916,31.59785 14.53608,7.10836 7.76933,6.78742 138.8316,6.58468 l 118,-0.18253 6.5,-2.34145 z M 641.53623,243.3936 c -4.30447,-1.87127 -6.56716,-5.87386 -8.76808,-15.51034 -1.00582,-4.40389 -2.31765,-7.99126 -2.91519,-7.97194 -0.59753,0.0193 -4.01142,0.67851 -7.58642,1.46487 -8.73243,1.92079 -13.71113,1.81833 -18.5,-0.38073 -5.95724,-2.73558 -7.76809,-5.30692 -8.30608,-11.79435 -0.43058,-5.19226 -0.31858,-5.58673 1.3991,-4.9276 7.12158,2.73281 30.41189,2.942 30.40315,0.27309 -0.002,-0.64373 -1.11659,-6.79541 -2.47662,-13.67041 -2.53427,-12.8108 -3.23153,-23.44194 -1.60347,-24.44814 1.51526,-0.93647 5.87972,1.20357 7.45104,3.65351 0.80944,1.26204 2.90152,9.26963 4.64907,17.79463 1.74754,8.525 3.35825,15.68695 3.57936,15.91545 0.50581,0.52271 23.51267,-5.51687 27.75488,-7.286 l 3.14957,-1.31346 -0.329,-7.658 c -0.21471,-4.99748 -0.73583,-7.65771 -1.5,-7.65718 -0.64405,4.5e-4 -3.421,0.85335 -6.171,1.89533 -4.83969,1.83376 -5.01749,2.04199 -5.54546,6.49465 -1.53978,12.9856 -7.44804,5.35449 -12.03046,-15.53854 -3.58665,-16.35292 -3.73194,-32.90153 -0.31883,-36.31465 1.02552,-1.02552 3.5647,-1.47853 8.19052,-1.46126 8.50007,0.0317 14.31729,-1.54029 37.20423,-10.05397 34.61021,-12.87459 39.37584,-13.91973 45.75,-10.03333 2.52695,1.54071 3.25,2.66238 3.25,5.04172 0,3.09596 -0.98248,4.35732 -8.22709,10.56239 -5.46351,4.67954 -7.68614,15.72443 -7.74203,38.47244 l -0.0309,12.56559 15.25,-0.0159 c 14.61635,-0.0152 15.66551,0.12206 25.25,3.3034 22.7408,7.54827 30.173,14.34985 28.04944,25.66944 -2.0754,11.06283 -37.95974,32.32053 -57.6347,34.14251 -9.81239,0.90867 -36.5206,-5.82991 -52.78286,-13.3173 l -7.36811,-3.39239 -2.95861,2.4895 c -2.06605,1.73852 -4.15717,2.48956 -6.93155,2.48956 -5.85512,0 -9.47284,2.30556 -11.77144,7.50192 -2.20651,4.9882 -4.01726,5.54353 -9.83248,3.01549 z m 18.23031,-21.8056 10,-5.21181 0.3075,-4.25 c 0.2577,-3.56178 0.0148,-4.24095 -1.5,-4.19411 -3.05597,0.0945 -25.66972,7.53078 -26.01056,8.5533 -0.39018,1.17053 5.34703,10.40624 6.43104,10.35262 0.42461,-0.021 5.27202,-2.3835 10.77202,-5.25 z m 61.69945,1.66537 c 16.4815,-5.2065 27.1613,-11.13157 31.92994,-17.71449 3.6578,-5.04945 3.75554,-9.03676 0.27737,-11.31574 -2.36865,-1.552 -3.64607,-1.5861 -14.75,-0.39379 -6.68622,0.71794 -12.71926,1.52033 -13.40676,1.78309 -0.80618,0.30811 -1.25,2.58772 -1.25,6.4204 0,3.26847 -0.65201,7.20352 -1.44892,8.74457 -2.27655,4.40236 -8.21984,9.09878 -11.51445,9.09878 -2.91633,0 -3.62561,-0.49255 -7.85858,-5.45733 -2.56506,-3.00852 -3.29185,-2.98051 -12.46878,0.48053 -2.8651,1.08056 -7.44115,3.87989 -10.169,6.22073 l -4.95974,4.25607 8.95974,0.62747 c 15.30704,1.072 27.44127,0.16165 36.65918,-2.75029 z m -34.56851,-12.8953 c 11.30438,-4.14407 16.17834,-6.64457 16.67833,-8.55652 0.26026,-0.99525 0.27578,-2.00698 0.0345,-2.24828 -0.41483,-0.41484 -13.44509,2.24335 -21.59374,4.40515 -3.53483,0.93777 -3.75,1.22216 -3.75,4.95631 0,2.1788 0.39642,3.96146 0.88094,3.96146 0.48452,0 3.97202,-1.13316 7.75,-2.51812 z m 5.55241,-21.6311 11.68336,-3.18061 -0.51783,-5.08509 c -0.2848,-2.79679 -0.66607,-5.58343 -0.84726,-6.19253 -0.23756,-0.79856 -3.06035,-0.72949 -10.12039,0.24763 -14.33601,1.98413 -13.38123,1.2758 -13.38123,9.92721 0,4.08793 0.3375,7.43967 0.75,7.4483 0.4125,0.009 6.00751,-1.41558 12.43335,-3.16491 z m -24.99853,-22.87611 c -0.17336,-4.09111 -0.48352,-7.6067 -0.68925,-7.81243 -0.20573,-0.20573 -2.4264,0.40973 -4.93481,1.36771 l -4.56076,1.74177 0,7.25659 0,7.2566 5.25,-1.18594 5.25,-1.18594 -0.31518,-7.43836 z m 32.06518,-0.66277 c 3.32537,0.44142 3.75098,0.25378 3.75869,-1.65706 0.005,-1.18516 0.28668,-4.46848 0.62643,-7.29625 l 0.61774,-5.14142 -4.37643,0.37064 c -20.38164,1.72613 -18.43436,0.64096 -19.48094,10.85619 l -0.65763,6.41886 7.88107,-2.02438 c 4.50429,-1.157 9.48782,-1.81109 11.63107,-1.52658 z m -35.93612,-12.38212 3.81388,-1.05906 -0.68908,-5.68536 c -0.37899,-3.12695 -0.82893,-5.84405 -0.99986,-6.038 -0.17092,-0.19396 -2.5638,-0.0428 -5.3175,0.33595 l -5.00673,0.68861 0.52717,5.16404 c 0.87344,8.55589 0.80821,8.49984 7.67212,6.59382 z m 32.33727,-7.62582 9.15116,-0.56614 0.68132,-5.4531 c 0.37473,-2.99921 0.45811,-5.67631 0.1853,-5.94913 -0.40165,-0.40164 -13.10919,1.79126 -24.36499,4.20459 -1.99002,0.42667 -2.09903,0.77525 -1.16193,3.71533 0.56878,1.78447 1.22497,3.85804 1.45821,4.60794 0.28204,0.90677 1.17364,1.13623 2.66193,0.68505 1.23082,-0.37312 6.35587,-0.93317 11.389,-1.24454 z m -70.60077,-15.38776 c -10.65505,-1.19369 -15.11649,-2.39376 -18.34744,-4.93523 -3.1668,-2.491 -5.36551,-8.47769 -3.80441,-10.35871 0.81896,-0.98678 8.49653,-1.46609 31.84033,-1.98779 16.91862,-0.3781 32.03749,-0.96042 33.59747,-1.29404 2.6456,-0.5658 2.79109,-0.84768 2.16366,-4.19216 -0.44481,-2.37108 -1.9136,-4.6595 -4.33632,-6.75616 l -3.66367,-3.17059 9,-9.38969 c 4.95,-5.16432 10.35,-11.73024 12,-14.59091 1.65,-2.86068 3.34411,-5.21016 3.7647,-5.22108 1.26118,-0.0327 4.68426,6.24081 5.36178,9.82662 0.8415,4.45367 -0.89083,9.85968 -5.13803,16.03402 -3.32462,4.83313 -4.17469,8.16764 -2.91744,11.44398 0.49027,1.27761 1.43008,1.18312 6.64586,-0.66821 5.97842,-2.12202 6.1285,-2.26848 9.45487,-9.22696 1.85901,-3.88889 3.64716,-9.32624 3.97365,-12.08299 0.71434,-6.0315 -1.44968,-14.30522 -5.1789,-19.80054 l -2.57771,-3.79847 2.30561,-2.49477 c 3.74603,-4.05337 15.9454,-12.25252 18.2303,-12.25252 3.11681,0 9.04223,4.40138 11.6874,8.68136 5.59415,9.05153 1.59499,19.91807 -14.75761,40.09952 l -2.65843,3.28088 8.40198,-3.13014 c 19.74458,-7.35582 33.76387,-12.1413 41.26378,-14.08537 6.9662,-1.80572 8.71014,-1.92462 13.26823,-0.90456 7.06406,1.58087 10.36996,4.28295 10.36996,8.4759 0,7.68345 -9.06592,10.64826 -38.34614,12.54027 -18.98533,1.22678 -25.63731,3.18955 -57.60207,16.99643 -28.33457,12.23886 -31.33782,13.15331 -44.55179,13.56544 -6.05,0.1887 -14.80233,-0.0829 -19.44962,-0.60353 z M 791.26654,36.21745 c -0.825,-0.27546 -9.825,-4.50037 -20,-9.38868 -24.99137,-12.00645 -26.04874,-12.24448 -46.31709,-10.42674 -30.65558,2.74931 -50.48591,6.93391 -57.22784,12.07623 -1.72912,1.31886 -4.11388,2.39793 -5.29946,2.39793 -1.18559,0 -2.15561,0.45 -2.15561,1 0,0.55 -1.94785,1 -4.32856,1 -9.14637,0 -19.51073,-10.70595 -18.39772,-19.00406 0.28787,-2.14626 1.54534,-5.33747 2.79438,-7.09157 3.06936,-4.31053 6.87901,-13.77442 6.90816,-17.16123 0.0232,-2.69687 -0.13401,-2.62414 -7.22626,3.3426 -9.81018,8.25337 -21.51102,15.93324 -31.75139,20.84012 -11.82408,5.66573 -34.07256,11.11736 -33.97147,8.32414 0.0149,-0.4125 3.58595,-2.43421 7.9356,-4.49268 13.26417,-6.27728 28.51628,-17.22181 41.30068,-29.63631 9.63847,-9.3596 12.42368,-12.74032 15.26953,-18.53435 4.78403,-9.7401 6.22304,-20.2762 4.62711,-33.878664 l -1.18213,-10.075522 2.76103,-2.941832 c 3.33193,-3.55011 13.69559,-8.68876 17.52574,-8.689853 3.08046,-8.79e-4 5.89791,3.650222 7.90902,10.249211 1.07912,3.540852 1.37106,3.749032 5.23457,3.732636 12.05402,-0.05115 36.26298,-7.538196 55.9723,-17.310413 l 16.11941,-7.992282 9.56672,-0.448917 c 10.76421,-0.505108 18.01159,0.686759 25.61822,4.213046 7.56888,3.508783 10.00733,9.403037 7.20988,17.427816 -1.97416,5.663067 -5.50233,6.205661 -22.96868,3.532333 -12.39991,-1.897879 -23.14518,-1.406042 -37.89406,1.734503 l -10.23574,2.179541 -7.24562,7.090868 c -7.94129,7.771694 -12.01627,13.985279 -13.11778,20.002179 -0.65148,3.55864 -0.54549,3.8473 1.17551,3.20146 4.52526,-1.6982 12.87481,-7.49182 19.89021,-13.801506 4.16519,-3.746195 8.44783,-6.811264 9.51697,-6.811264 4.23379,0 9.7902,3.117024 11.07178,6.211015 1.21525,2.933875 0.65821,15.814755 -1.76823,40.888465 l -0.54187,5.59947 7.86134,0.54027 c 9.18922,0.63153 20.06808,4.04417 32.93335,10.33101 15.5972,7.62185 21.428,14.34026 21.428,24.68993 0,2.93691 -0.54,5.87984 -1.2,6.53984 -1.20725,1.20725 -5.01421,1.47143 -7.8,0.54126 z M 667.38394,6.37619 c 4.15082,-6.44514 11.8826,-22.44167 11.8826,-24.58429 0,-0.50364 -2.1375,-0.91911 -4.75,-0.92326 -2.6125,-0.004 -7.61863,-0.47303 -11.12474,-1.04193 -3.50611,-0.56891 -6.56701,-0.8421 -6.80202,-0.6071 -0.43336,0.43337 3.31539,29.21265 4.36103,33.4798 0.66153,2.69959 0.55447,2.80482 6.43313,-6.32322 z m 29.3826,-3.64983 c 3.85,-1.64055 11.05,-4.03247 16,-5.31538 10.44614,-2.70738 10.18501,-2.28699 10.38169,-16.71336 0.0898,-6.5854 -0.25163,-9.04851 -1.41551,-10.21239 -1.65403,-1.65404 -2.0788,-1.55878 -10.96618,2.45925 -2.75,1.24329 -8.2986,3.42404 -12.33022,4.84612 l -7.33021,2.58559 -5.90046,14.5 c -3.24524,7.975 -5.90914,14.60593 -5.91978,14.73541 -0.0247,0.30046 8.46223,-3.04234 17.48067,-6.88524 z m -15.28499,-33.88472 c 3.6232,-1.01443 3.79091,-1.27709 6.7863,-10.62808 4.10466,-12.813908 4.64001,-17.196512 2.58584,-21.168849 l -1.63851,-3.168521 -8.44932,0 -8.44932,0 0.5812,2.906018 c 1.37339,6.866937 -5.36747,28.958852 -9.64229,31.600842 -4.16559,2.57447 9.44564,2.91695 18.2261,0.45859 z"
         id="path3249"
         inkscape:connector-curvature="0" />
      <path
         style="fill:#871a1f"
         d="m 576.76654,293.17559 c -27.85707,-3.98202 -50.36442,-22.5084 -59.28545,-48.7994 l -2.71455,-8 -0.2678,-161.49425 c -0.30153,-181.83989 -0.73737,-170.516203 7.17984,-186.54379 5.33857,-10.80739 13.70373,-20.39094 23.45987,-26.87681 8.46068,-5.62465 14.41968,-8.20187 24.62809,-10.65147 7.64739,-1.83506 13.05956,-1.91998 122.79216,-1.92667 130.5945,-0.008 123.08433,-0.44347 140.65693,8.15631 8.71016,4.26264 11.7057,6.38155 18,12.73245 8.67708,8.7551 13.94605,17.20964 17.8265,28.60423 l 2.72441,8 0,164 c 0,153.62487 -0.11163,164.40409 -1.76453,170.38747 -6.83623,24.74672 -25.9146,43.45561 -51.73547,50.73355 -6.11803,1.72445 -13.31664,1.8402 -122.5,1.96967 -63.8,0.0756 -117.35,-0.0554 -119,-0.29129 z m 243.5,-6.14085 c 19.58848,-7.05624 34.44967,-20.06828 42.16218,-36.91605 6.11615,-13.36057 5.80688,-3.86257 5.82304,-178.83254 0.0144,-156.084725 -0.0346,-160.282943 -1.95722,-167.800479 -5.17484,-20.233441 -20.96906,-38.036931 -40.94505,-46.153901 -13.33907,-5.42015 -14.23946,-5.45724 -131.96394,-5.43577 -66.80991,0.0122 -111.27414,0.4036 -115.51696,1.01688 -14.70143,2.12505 -27.31952,8.18072 -38.35833,18.40893 -7.1325,6.60874 -10.92663,11.69452 -15.29929,20.50767 -6.22369,12.543914 -5.91345,3.1482 -5.92965,179.58661 -0.0163,178.0224 -0.45089,165.92063 6.46202,179.9601 6.9776,14.17084 17.32596,24.32833 32.1916,31.59785 14.53608,7.10836 7.76933,6.78742 138.8316,6.58468 l 118,-0.18253 6.5,-2.34145 z m -178.5,-44.01911 c -5.04015,-3.11327 -6.45748,-5.49433 -8.80987,-14.8003 l -2.26275,-8.95131 -4.96369,1.35606 c -2.73003,0.74582 -8.11369,1.44606 -11.96369,1.55608 -11.7235,0.33501 -18.48798,-4.76449 -18.49626,-13.94367 l -0.004,-4.14371 4.25,1.03768 c 4.85969,1.18654 26.22259,1.60979 27.29207,0.54072 0.39011,-0.38996 -0.47227,-6.82295 -1.91639,-14.29554 -2.47486,-12.80611 -3.35144,-23.43636 -2.04067,-24.74713 1.25546,-1.25545 6.55205,1.61605 7.94328,4.30638 0.80713,1.56082 2.85206,9.49564 4.54428,17.63292 1.69222,8.13728 3.27003,14.98831 3.50623,15.22451 0.61425,0.61425 9.32347,-1.47597 20.93626,-5.02472 l 10.01507,-3.06049 -0.37411,-7.66346 c -0.20575,-4.2149 -0.57121,-7.87214 -0.81212,-8.12719 -0.24092,-0.25505 -3.00206,0.41995 -6.13587,1.5 -5.65459,1.94882 -5.7029,1.99941 -6.36285,6.66345 -0.86222,6.09351 -1.585,7.2611 -3.5073,5.66574 -5.36983,-4.45657 -10.64678,-25.30601 -10.7588,-42.50851 -0.10014,-15.37673 0.46613,-16.26924 10.27547,-16.19558 8.64868,0.0649 15.29383,-1.74301 39.03914,-10.62144 32.89971,-12.30127 38.13831,-13.36988 44.64441,-9.10692 4.40074,2.88347 3.3607,6.64789 -3.4807,12.59836 -5.5894,4.86151 -6.04209,5.59367 -7.61656,12.31867 -1.04857,4.47878 -1.8666,13.53641 -2.18961,24.2446 l -0.51566,17.09464 14.38221,-0.0638 c 15.34439,-0.0681 20.71561,0.89989 33.88222,6.10605 17.55075,6.93966 24.40335,15.78643 19.52909,25.21222 -6.29469,12.17258 -43.56694,32.08402 -59.98919,32.04719 -9.18506,-0.0206 -37.27734,-7.89993 -50.26488,-14.09831 l -6.27471,-2.99465 -3.34455,2.55101 c -2.25174,1.71749 -4.62066,2.55583 -7.25015,2.56575 -5.33487,0.0201 -8.58822,1.86099 -10.60237,5.99917 -3.21952,6.61465 -5.07242,7.35658 -10.30324,4.12553 z m 18.63921,-21.36118 9.86079,-5.22174 0,-4.84565 c 0,-4.15698 -0.24871,-4.76777 -1.75,-4.29767 -19.95808,6.24941 -24.89008,7.9035 -25.6109,8.58941 -1.19087,1.13317 4.33355,10.99739 6.15904,10.99739 0.81416,0 5.91764,-2.34978 11.34107,-5.22174 z m 50.86079,4.15348 c 20.23637,-3.27875 40.53664,-14.22431 44.3852,-23.93174 3.15702,-7.96314 -1.11753,-9.91819 -17.6163,-8.0572 -14.62575,1.64973 -13.7689,1.12235 -13.7689,8.47455 0,5.32191 -0.4363,6.88487 -2.85336,10.22152 -6.12426,8.4543 -11.29139,9.49138 -16.2289,3.25727 -2.92049,-3.68742 -3.59218,-4.04838 -6.61934,-3.55714 -6.80911,1.10497 -22.2984,9.98793 -22.2984,12.78792 0,0.7187 5.05601,1.09217 22.5,1.66198 3.3,0.1078 8.925,-0.27792 12.5,-0.85716 z m -22.32968,-16.04217 c 11.46688,-4.03943 14.04617,-5.42094 14.85012,-7.95396 0.36419,-1.14748 0.49418,-2.25433 0.28885,-2.45966 -0.38101,-0.38101 -14.30599,2.50362 -21.7104,4.49742 -3.92298,1.05635 -4.09889,1.27373 -4.09889,5.06517 0,2.1788 0.41414,3.96146 0.92032,3.96146 0.50618,0 4.89368,-1.39969 9.75,-3.11043 z m 14.90563,-26.34733 c -0.30175,-1.12323 -0.55479,-3.89946 -0.5623,-6.1694 l -0.0136,-4.12717 -4.75,0.51075 c -2.6125,0.2809 -7.9,1.02572 -11.75,1.65513 l -7,1.1444 -0.28835,8.09227 -0.28834,8.09227 12.60064,-3.57801 c 11.44083,-3.24867 12.55015,-3.76598 12.052,-5.62024 z m -37.69905,-9.71446 c 2.29969,-0.84636 2.35378,-1.1095 1.66543,-8.10127 -0.3913,-3.97458 -0.88837,-7.40398 -1.1046,-7.62088 -0.21623,-0.21691 -2.42817,0.38281 -4.91544,1.33271 l -4.52229,1.72708 0,7.39229 0,7.39229 3.25,-0.62372 c 1.7875,-0.34305 4.3196,-1.01737 5.6269,-1.4985 z m 24.1231,-7.43531 c 3.575,-0.85948 7.90801,-1.33653 9.62892,-1.0601 l 3.12892,0.50259 0.69115,-7.01408 c 0.38013,-3.85774 0.54712,-7.14108 0.37108,-7.29632 -0.69597,-0.61373 -21.15919,1.41737 -21.87125,2.17085 -0.4182,0.44253 -1.17538,4.09934 -1.68264,8.12626 -0.89922,7.13865 -0.87033,7.30681 1.15577,6.72759 1.14293,-0.32675 5.00305,-1.2973 8.57805,-2.15679 z m -23.37624,-14.6829 c 0.23481,-0.23481 0.12857,-2.96552 -0.2361,-6.06825 -0.72241,-6.14661 -1.18845,-6.43116 -8.22736,-5.02338 -3.02061,0.60412 -3.07787,0.72153 -2.56045,5.25 1.09488,9.58231 0.80659,9.21503 6.00512,7.65051 2.52553,-0.76008 4.78398,-1.57407 5.01879,-1.80888 z m 29.5257,-6.36244 8.64946,-0.58215 0.68301,-5.46668 c 0.37566,-3.00668 0.48502,-5.66468 0.24302,-5.90668 -0.242,-0.242 -6.24161,0.63136 -13.33247,1.9408 -14.03981,2.59267 -13.09357,1.86345 -11.69442,9.01238 0.50543,2.58252 0.84466,2.7867 3.67935,2.21464 1.71743,-0.34658 7.01485,-0.89212 11.77205,-1.21231 z m -70.35099,-15.42855 c -14.65991,-1.5521 -21.06862,-4.44729 -22.63843,-10.22712 -1.75498,-6.46155 -2.50008,-6.29805 32.03823,-7.03018 17.21595,-0.36493 32.36254,-0.95313 33.65909,-1.30711 3.60394,-0.98391 2.3464,-6.89403 -2.30953,-10.85417 l -3.5271,-3 7.65315,-8 c 4.20923,-4.4 9.67178,-11.10769 12.13899,-14.90599 4.22302,-6.50137 4.57123,-6.79431 5.94322,-5 2.32122,3.03573 4.24577,8.10647 4.22195,11.12387 -0.028,3.54102 -2.90509,9.87752 -6.32342,13.92648 -1.89136,2.24028 -2.65462,4.27689 -2.65462,7.08333 0,2.16644 0.25901,4.19798 0.57557,4.51455 0.31657,0.31656 3.28151,-0.33824 6.58876,-1.45511 4.49205,-1.51699 6.50087,-2.82202 7.94107,-5.15891 2.68622,-4.35871 5.8946,-15.08048 5.8946,-19.69861 0,-4.71125 -2.38317,-11.99223 -5.58578,-17.06549 l -2.38498,-3.77806 5.62766,-4.58426 c 3.09521,-2.52134 7.60046,-5.7404 10.01167,-7.15346 3.89082,-2.28017 4.71734,-2.43113 7.34692,-1.34192 4.17558,1.72958 9.68638,8.17271 10.92529,12.77365 1.95307,7.25314 -4.16361,20.10302 -15.93488,33.47589 -2.29673,2.60922 -3.72623,4.74404 -3.17667,4.74404 0.54957,0 5.20031,-1.61108 10.33499,-3.58017 15.20271,-5.83007 37.04076,-13.11299 43.07754,-14.36622 6.77414,-1.40631 12.17714,-0.2549 16.71277,3.56158 5.94028,4.99842 2.74404,10.72554 -7.69828,13.79406 -3.16594,0.93032 -11.83125,2.13108 -19.25625,2.66834 -27.19726,1.96796 -33.45029,3.54035 -59.67045,15.00472 -21.29489,9.31086 -32.99058,13.86036 -39.69834,15.44223 -6.59641,1.5556 -17.50109,1.69964 -29.83274,0.39404 z M 791.26654,36.21745 c -0.825,-0.27546 -9.825,-4.50037 -20,-9.38868 -24.99137,-12.00645 -26.04874,-12.24448 -46.31709,-10.42674 -30.65558,2.74931 -50.48591,6.93391 -57.22784,12.07623 -1.72912,1.31886 -4.11388,2.39793 -5.29946,2.39793 -1.18559,0 -2.15561,0.45 -2.15561,1 0,0.55 -1.94785,1 -4.32856,1 -9.14637,0 -19.51073,-10.70595 -18.39772,-19.00406 0.28787,-2.14626 1.54534,-5.33747 2.79438,-7.09157 3.06936,-4.31053 6.87901,-13.77442 6.90816,-17.16123 0.0232,-2.69687 -0.13401,-2.62414 -7.22626,3.3426 -9.81018,8.25337 -21.51102,15.93324 -31.75139,20.84012 -11.82408,5.66573 -34.07256,11.11736 -33.97147,8.32414 0.0149,-0.4125 3.58595,-2.43421 7.9356,-4.49268 13.26417,-6.27728 28.51628,-17.22181 41.30068,-29.63631 9.63847,-9.3596 12.42368,-12.74032 15.26953,-18.53435 4.78403,-9.7401 6.22304,-20.2762 4.62711,-33.878664 l -1.18213,-10.075522 2.76103,-2.941832 c 3.33193,-3.55011 13.69559,-8.68876 17.52574,-8.689853 3.08046,-8.79e-4 5.89791,3.650222 7.90902,10.249211 1.07912,3.540852 1.37106,3.749032 5.23457,3.732636 12.05402,-0.05115 36.26298,-7.538196 55.9723,-17.310413 l 16.11941,-7.992282 9.56672,-0.448917 c 10.76421,-0.505108 18.01159,0.686759 25.61822,4.213046 7.56888,3.508783 10.00733,9.403037 7.20988,17.427816 -1.97416,5.663067 -5.50233,6.205661 -22.96868,3.532333 -12.39991,-1.897879 -23.14518,-1.406042 -37.89406,1.734503 l -10.23574,2.179541 -7.24562,7.090868 c -7.94129,7.771694 -12.01627,13.985279 -13.11778,20.002179 -0.65148,3.55864 -0.54549,3.8473 1.17551,3.20146 4.52526,-1.6982 12.87481,-7.49182 19.89021,-13.801506 4.16519,-3.746195 8.44783,-6.811264 9.51697,-6.811264 4.23379,0 9.7902,3.117024 11.07178,6.211015 1.21525,2.933875 0.65821,15.814755 -1.76823,40.888465 l -0.54187,5.59947 7.86134,0.54027 c 9.18922,0.63153 20.06808,4.04417 32.93335,10.33101 15.5972,7.62185 21.428,14.34026 21.428,24.68993 0,2.93691 -0.54,5.87984 -1.2,6.53984 -1.20725,1.20725 -5.01421,1.47143 -7.8,0.54126 z M 667.38394,6.37619 c 4.15082,-6.44514 11.8826,-22.44167 11.8826,-24.58429 0,-0.50364 -2.1375,-0.91911 -4.75,-0.92326 -2.6125,-0.004 -7.61863,-0.47303 -11.12474,-1.04193 -3.50611,-0.56891 -6.56701,-0.8421 -6.80202,-0.6071 -0.43336,0.43337 3.31539,29.21265 4.36103,33.4798 0.66153,2.69959 0.55447,2.80482 6.43313,-6.32322 z m 29.3826,-3.64983 c 3.85,-1.64055 11.05,-4.03247 16,-5.31538 10.44614,-2.70738 10.18501,-2.28699 10.38169,-16.71336 0.0898,-6.5854 -0.25163,-9.04851 -1.41551,-10.21239 -1.65403,-1.65404 -2.0788,-1.55878 -10.96618,2.45925 -2.75,1.24329 -8.2986,3.42404 -12.33022,4.84612 l -7.33021,2.58559 -5.90046,14.5 c -3.24524,7.975 -5.90914,14.60593 -5.91978,14.73541 -0.0247,0.30046 8.46223,-3.04234 17.48067,-6.88524 z m -15.28499,-33.88472 c 3.6232,-1.01443 3.79091,-1.27709 6.7863,-10.62808 4.10466,-12.813908 4.64001,-17.196512 2.58584,-21.168849 l -1.63851,-3.168521 -8.44932,0 -8.44932,0 0.5812,2.906018 c 1.37339,6.866937 -5.36747,28.958852 -9.64229,31.600842 -4.16559,2.57447 9.44564,2.91695 18.2261,0.45859 z"
         id="path3247"
         inkscape:connector-curvature="0" />
      <path
         style="fill:#000000"
         d="m 573.76654,292.39283 c -14.23038,-2.70609 -26.51657,-8.91966 -37.0052,-18.71488 -11.63414,-10.86501 -19.25035,-24.82476 -21.4878,-39.38496 -0.72632,-4.72655 -0.97488,-57.74027 -0.78495,-167.4168 l 0.27795,-160.5 2.72441,-8 c 6.92527,-20.33545 21.86093,-36.1121 41.8187,-44.1734 13.67138,-5.52212 10.30901,-5.39717 137.25751,-5.10049 l 117.19938,0.27389 7.66665,2.61732 c 27.45314,9.37225 45.66144,30.38918 49.83694,57.524298 0.71723,4.661076 0.95769,57.959402 0.75054,166.358382 -0.34166,178.78087 0.38728,162.25107 -7.89363,179 -3.34829,6.77222 -5.94637,10.23524 -12.78151,17.0367 -9.5229,9.47596 -18.92409,15.07756 -32.10636,19.13024 l -7.47263,2.29734 -115.5,0.19175 c -92.61421,0.15375 -116.88702,-0.072 -122.5,-1.13939 z m 242.87676,-4.48512 c 19.07449,-4.87843 36.34256,-18.49328 44.44713,-35.04392 7.72638,-15.77834 7.17781,-1.87905 7.16133,-181.4477 -0.0164,-178.20314 0.38616,-167.035178 -6.52522,-181.04432 -6.58272,-13.34296 -17.05534,-23.67222 -30.96,-30.5362 -16.13377,-7.96436 -6.82531,-7.45938 -137.5,-7.45938 -129.74943,0 -121.11256,-0.4355 -136.5,6.88272 -14.4188,6.85754 -25.22873,17.36415 -32.01559,31.11728 -6.92165,14.026272 -6.48441,1.83383 -6.48441,180.81575 0,179.63093 -0.47233,166.82609 6.69315,181.44917 6.07455,12.39674 20.19728,25.7968 33.04997,31.35879 2.61628,1.13219 7.90688,2.89275 11.75688,3.91235 6.61796,1.75264 13.3359,1.85682 123.09004,1.90888 112.29454,0.0533 116.34167,-0.009 123.78672,-1.91342 z M 789.26654,35.43981 c -1.925,-0.71249 -10.77328,-4.95129 -19.66285,-9.41954 -22.38228,-11.25023 -23.53577,-11.49596 -45.09843,-9.60725 -29.54114,2.58755 -49.63214,6.83517 -57.43,12.14179 -2.0302,1.3816 -4.11672,2.24906 -4.63669,1.9277 -0.51998,-0.32137 -1.5015,0.0857 -2.18117,0.90469 -2.74638,3.30919 -10.52357,1.05687 -16.82618,-4.87296 -7.14191,-6.71949 -7.77682,-11.45599 -2.67071,-19.92385 3.98088,-6.60181 6.82709,-14.52106 6.33861,-17.63648 -0.29567,-1.88577 -1.16905,-1.42162 -7.87036,4.18268 -14.21272,11.88608 -29.59609,21.03925 -42.29362,25.16487 -8.50062,2.76198 -19.83873,5.01802 -21.84983,4.34765 -0.69156,-0.23052 3.67881,-2.99152 9.71192,-6.13557 15.12253,-7.88081 27.93311,-17.24939 40.52606,-29.63735 11.9113,-11.71739 14.9223,-16.69677 17.55044,-29.02363 1.56302,-7.33109 1.47126,-20.497489 -0.20029,-28.738176 -0.57997,-2.859248 -0.21539,-3.682661 2.9541,-6.671874 4.2414,-4.000156 13.38685,-8.56632 17.15725,-8.56632 2.30221,0 3.04989,0.899849 5.81193,6.994758 l 3.16982,6.994759 4.5,-0.0164 c 12.15232,-0.04429 36.59238,-7.684246 56.93728,-17.798576 l 15.43727,-7.674541 11.56273,0 c 14.5476,0 21.77904,1.981026 27.26797,7.469956 4.12442,4.124416 4.82881,7.765299 2.68957,13.90193 -1.97416,5.663067 -5.50233,6.205661 -22.96868,3.532333 -12.28389,-1.880122 -23.1415,-1.405813 -38.18387,1.66804 l -10.24227,2.092971 -6.33395,6.167385 c -3.48367,3.392062 -7.58403,7.967385 -9.11191,10.167385 -2.61054,3.75893 -6.46136,14.42611 -5.54029,15.34718 1.01876,1.01877 15.09326,-8.52025 21.945,-14.873262 4.13676,-3.835655 8.08833,-6.971408 8.78126,-6.968341 3.52208,0.01559 8.89927,2.356151 10.7144,4.663726 1.46554,1.86313 2.04549,4.076037 2.04549,7.804937 0,5.91531 -2.77443,36.18889 -3.54056,38.63342 -0.42651,1.36087 0.76597,1.68916 7.76835,2.13863 9.40936,0.60397 17.1551,2.9641 30.72384,9.36158 17.3999,8.2038 24.04837,15.29131 24.04837,25.63643 0,7.33999 -3.22963,9.19536 -11,6.31932 z M 666.69896,7.87245 c 2.63199,-3.85205 6.68637,-11.38955 9.00972,-16.75 l 4.22428,-9.74626 -8.46548,-0.73952 c -4.65601,-0.40673 -9.98096,-1.15796 -11.83321,-1.66939 -2.95199,-0.81508 -3.36773,-0.6997 -3.36773,0.93467 0,3.97419 4.789,34.97424 5.40294,34.97424 0.13422,0 2.39748,-3.15168 5.02948,-7.00374 z m 25.44236,-3.02523 c 6.68322,-2.76593 16.07244,-6.06987 20.86492,-7.34209 10.22498,-2.71434 10.01159,-2.36243 10.16062,-16.7565 0.11274,-10.88936 -0.63971,-12.38116 -5.53658,-10.97676 -1.63932,0.47015 -4.52929,1.67106 -6.42216,2.66869 -1.89287,0.99763 -7.22918,3.19126 -11.85848,4.87475 l -8.41689,3.06088 -5.32474,13 c -5.92041,14.4543 -6.67015,16.5 -6.04713,16.5 0.23602,0 5.89721,-2.26304 12.58044,-5.02897 z m -10.66309,-35.97217 c 3.65456,-1.05522 3.76615,-1.24019 7.25,-12.0168 3.84081,-11.880823 4.16494,-14.607159 2.33742,-19.661062 l -1.20089,-3.320998 -8.54911,5.79e-4 -8.54911,5.79e-4 -0.1157,6.868336 c -0.13987,8.303626 -2.54692,16.395096 -6.95869,23.392156 -2.36357,3.74861 -2.95334,5.43822 -2.10467,6.02957 1.43677,1.00115 12.78721,0.18124 17.89075,-1.29236 z"
         id="path3245"
         inkscape:connector-curvature="0" />
    </g>
  </g>
</svg>
