<?xml version="1.0" encoding="UTF-8" standalone="no"?>
<!-- Created with Inkscape (http://www.inkscape.org/) -->

<svg
   xmlns:dc="http://purl.org/dc/elements/1.1/"
   xmlns:cc="http://creativecommons.org/ns#"
   xmlns:rdf="http://www.w3.org/1999/02/22-rdf-syntax-ns#"
   xmlns:svg="http://www.w3.org/2000/svg"
   xmlns="http://www.w3.org/2000/svg"
   xmlns:sodipodi="http://sodipodi.sourceforge.net/DTD/sodipodi-0.dtd"
   xmlns:inkscape="http://www.inkscape.org/namespaces/inkscape"
   width="358.75415"
   height="445.79532"
   id="svg2"
   version="1.1"
   inkscape:version="0.48.5 r10040"
   sodipodi:docname="char8.svg">
  <defs
     id="defs4" />
  <sodipodi:namedview
     id="base"
     pagecolor="#ffffff"
     bordercolor="#666666"
     borderopacity="1.0"
     inkscape:pageopacity="0.0"
     inkscape:pageshadow="2"
     inkscape:zoom="1.1210937"
     inkscape:cx="127.73138"
     inkscape:cy="132.7068"
     inkscape:document-units="px"
     inkscape:current-layer="layer1"
     showgrid="false"
     fit-margin-top="0"
     fit-margin-left="0"
     fit-margin-right="0"
     fit-margin-bottom="0"
     inkscape:window-width="958"
     inkscape:window-height="1078"
     inkscape:window-x="1920"
     inkscape:window-y="0"
     inkscape:window-maximized="0" />
  <metadata
     id="metadata7">
    <rdf:RDF>
      <cc:Work
         rdf:about="">
        <dc:format>image/svg+xml</dc:format>
        <dc:type
           rdf:resource="http://purl.org/dc/dcmitype/StillImage" />
        <dc:title></dc:title>
      </cc:Work>
    </rdf:RDF>
  </metadata>
  <g
     inkscape:label="Layer 1"
     inkscape:groupmode="layer"
     id="layer1"
     transform="translate(-1018.5596,430.4887)">
    <g
       id="g3479"
       transform="translate(156.09756,-100.79443)">
      <path
         style="fill:#e0c5c6"
         d="m 917.32288,114.12604 c -20.73748,-5.38785 -37.31112,-18.44283 -46.92844,-36.96533 -8.15478,-15.70572 -7.46971,-0.13698 -7.8325,-178 -0.22792,-111.74088 0.003,-160.99187 0.78224,-166.94671 4.20743,-32.14624 29.64797,-56.63142 63.4787,-61.09491 5.334,-0.70375 45.49061,-0.95077 120.50002,-0.74124 112.4631,0.31415 112.5025,0.31497 120.2867,2.51703 23.7372,6.71502 42.3934,24.02693 50.3973,46.76583 l 2.816,8 0.2675,162.7298 c 0.2964,180.23794 0.6396,170.0634 -6.224,184.5161 -8.7365,18.39654 -24.3959,31.76902 -45.5435,38.89227 -5.2177,1.75751 -11.6332,1.86345 -125,2.06417 -115.58694,0.20465 -119.74561,0.14777 -127.00002,-1.73701 z m 241.00002,-3.03034 c 8.5741,-1.3849 18.8377,-5.00942 25.809,-9.1142 9.0066,-5.30328 20.0673,-17.00281 24.8834,-26.32079 8.4865,-16.41933 7.8076,-0.59309 7.8076,-182 0,-180.33146 0.5936,-165.50147 -7.2646,-181.5 -5.6472,-11.49729 -17.7529,-23.26238 -30.2354,-29.38462 -16.2327,-7.9616 -9.3096,-7.57849 -137.3026,-7.59802 -127.08644,-0.0194 -120.94135,-0.33618 -136.19742,7.02119 -14.64678,7.06354 -25.16433,17.41024 -32.00903,31.48908 -6.94607,14.28738 -6.55516,2.87579 -6.25859,182.70415 l 0.26762,162.26822 3.16012,8.19512 c 9.0949,23.58578 29.26343,40.08945 54.10327,44.27207 7.39301,1.24487 225.51663,1.21475 233.23663,-0.0322 z m -93,-45.38508 c -13.6209,-3.06413 -25.5917,-6.90118 -35.2473,-11.29794 l -7.7472,-3.52778 -3.7528,2.54193 c -2.6209,1.77531 -4.6575,2.40795 -6.7527,2.09769 -4.0601,-0.60122 -8.7791,2.49339 -11.124,7.29488 -2.24598,4.59885 -6.02623,5.51984 -11.20876,2.7308 -4.00187,-2.15365 -6.29501,-6.4401 -8.63421,-16.13949 -0.96167,-3.9875 -1.81251,-7.24466 -1.89077,-7.23813 -0.0782,0.007 -2.61728,0.67619 -5.64228,1.48813 -17.12492,4.59652 -29.98579,-1.13439 -29.99626,-13.36658 -0.004,-4.25945 0.0637,-4.35018 2.74626,-3.69831 1.5125,0.36754 8.88876,0.92613 16.39169,1.24131 l 13.6417,0.57304 -2.31725,-11.40559 c -4.07067,-20.03606 -4.37424,-28.84387 -0.99414,-28.84387 3.03192,0 6.44621,2.38753 7.69328,5.37972 0.71525,1.71615 2.66311,9.64528 4.32857,17.62028 2.96881,14.21606 3.07685,14.49314 5.51713,14.14977 3.94189,-0.55465 26.40334,-7.16405 27.26094,-8.02168 0.4262,-0.42618 0.4792,-3.9565 0.1178,-7.84514 l -0.6571,-7.07025 -5.1052,1.73529 c -5.3143,1.8064 -5.3477,1.8549 -7.0963,10.30201 -0.396,1.91329 -1.1888,2.75 -2.6055,2.75 -5.81997,0 -14.03911,-34.05336 -12.28039,-50.87989 0.87403,-8.3622 2.42315,-9.59438 12.21019,-9.71194 8.9186,-0.10713 13.2402,-1.30649 37.5756,-10.42819 35.1908,-13.19073 39.7279,-13.97487 45.7891,-7.91368 3.8823,3.88226 3.172,6.0099 -4.3177,12.9337 -5.5702,5.14927 -6.0444,5.94638 -7.4363,12.5 -0.8178,3.85 -1.7735,14.425 -2.1239,23.5 l -0.6371,16.5 13.2769,-0.35375 c 10.0687,-0.26828 14.9974,0.0594 20.3974,1.35631 15.9286,3.82539 29.4939,10.72488 33.7356,17.15845 2.249,3.41107 2.4673,10.31219 0.4497,14.2138 -4.258,8.23417 -26.6719,22.51701 -44.7902,28.54184 -10.9863,3.65324 -16.5912,3.87399 -28.7745,1.13326 z m -47,-31.27789 c 0,-2.34961 -0.3375,-4.24646 -0.75,-4.21522 -0.4125,0.0312 -6.4855,1.94375 -13.4956,4.25 l -12.74568,4.1932 3.00872,5.23751 3.00873,5.23751 10.48693,-5.21549 10.4869,-5.21549 0,-4.27202 z m 48.1324,11.76115 c 17.6618,-4.62605 32.1821,-12.78747 36.5868,-20.56426 2.6803,-4.73243 2.7787,-5.82809 0.7094,-7.89748 -1.901,-1.90091 -9.0435,-2.05231 -21.4939,-0.45561 l -8.7007,1.11582 0.1285,6.13418 c 0.1435,6.85357 -2.2517,11.99493 -7.244,15.5498 -5.4841,3.90501 -7.7919,3.7533 -12.1202,-0.79673 -2.3988,-2.52167 -4.8062,-4.10969 -6.2083,-4.09515 -3.6127,0.0374 -13.2412,4.37353 -17.8934,8.05815 -4.1579,3.29312 -4.1959,3.37751 -1.8216,4.04105 1.3337,0.37274 8.7527,0.72256 16.4866,0.77738 11.0139,0.0781 15.6893,-0.32663 21.5708,-1.86715 z m -17.9374,-19.05487 c 2.5671,-1.18994 4.385,-3.73166 3.3844,-4.73219 -0.2572,-0.2572 -5.6678,0.74164 -12.0235,2.21964 -10.6863,2.48504 -11.5559,2.8635 -11.5559,5.02898 0,1.28793 -0.2773,3.06435 -0.6163,3.9476 -0.4865,1.26796 1.3549,0.88822 8.75,-1.80446 5.1515,-1.87571 10.579,-3.97251 12.0613,-4.65957 z m -6.8258,-16.67211 c 5.5719,-1.4658 10.2804,-2.77146 10.4633,-2.90146 0.1828,-0.12999 0.014,-2.78374 -0.3748,-5.89721 l -0.7073,-5.66087 -5.1252,0.64824 c -2.8189,0.35653 -7.9377,1.11222 -11.3752,1.67933 l -6.25,1.03109 0,7.50433 c 0,6.50517 0.2156,7.42161 1.6192,6.883 0.8905,-0.34174 6.178,-1.82064 11.75,-3.28645 z m -29.1192,-14.35877 3.75,-1.04143 -0.015,-5.70299 c -0.021,-7.95324 -0.7966,-8.92559 -5.648,-7.08386 l -3.8367,1.45654 -0.2957,6.71216 c -0.3257,7.39249 -0.2956,7.42064 6.0457,5.65958 z m 23.4113,-7.44742 c 3.1674,-0.825 7.8619,-1.5 10.4322,-1.5 5.2589,0 5.8676,-0.9039 5.8928,-8.75 0.016,-4.86402 0.5949,-4.69628 -12.4187,-3.59623 -6.6074,0.55853 -7.8495,0.95914 -8.5266,2.75 -1.0621,2.80936 -2.3703,12.59623 -1.6836,12.59623 0.2997,0 3.1365,-0.675 6.3039,-1.5 z m -23.4113,-14.06092 c 2.6215,-0.62524 2.75,-0.93624 2.75,-6.65448 0,-5.05908 -0.2478,-5.90351 -1.5818,-5.39159 -0.87,0.33385 -3.3029,0.60699 -5.4064,0.60699 -3.1107,0 -3.7585,0.32662 -3.4703,1.75 0.1948,0.9625 0.6334,3.90809 0.9745,6.54576 0.5012,3.8749 0.9432,4.70009 2.3021,4.29749 0.925,-0.27405 2.9194,-0.79343 4.4319,-1.15417 z m 35.3834,-8.42346 c 4.4716,-0.0136 5.2111,-0.30568 5.7363,-2.26562 0.9665,-3.60659 0.7225,-7.75 -0.4564,-7.75 -0.5976,0 -6.3644,0.96534 -12.8151,2.14519 l -11.7285,2.1452 1.3851,4.20726 1.3851,4.20726 5.68,-1.33684 c 3.1241,-0.73525 7.9901,-1.34386 10.8135,-1.35245 z m -78.13342,-14.06607 c -12.84217,-1.94041 -18.5,-5.90043 -18.5,-12.94848 0,-3.67839 0.0632,-3.73789 4.63957,-4.36515 2.55177,-0.34975 14.13927,-0.63862 25.75,-0.64191 11.61074,-0.003 24.82295,-0.295 29.36045,-0.64822 l 8.25,-0.64222 0,-2.96731 c 0,-2.21367 -1.0766,-3.95141 -4.2389,-6.84202 l -4.2389,-3.87471 8.6529,-8.75976 c 4.7591,-4.81788 10.4114,-11.57415 12.5606,-15.01394 l 3.9078,-6.25417 2.1116,2.25417 c 6.2532,6.67531 5.5495,16.5313 -1.847,25.8702 -2.6265,3.31625 -3.0172,4.48904 -2.4689,7.4118 0.3583,1.90969 0.8391,3.47217 1.0686,3.47217 0.2294,0 2.9607,-0.95165 6.0694,-2.11479 5.4274,-2.03063 5.7717,-2.37818 8.6536,-8.73397 5.2736,-11.63074 4.817,-22.09601 -1.3648,-31.28088 l -2.9414,-4.37036 4.9583,-4.5 c 2.7271,-2.475 7.5043,-6.03875 10.6159,-7.91943 l 5.6575,-3.41944 3.1718,1.81368 c 4.8132,2.75219 7.6592,5.62073 9.8861,9.96445 3.952,7.70864 0.9253,16.76847 -10.686,31.98649 l -6.4564,8.46189 9.7141,-3.57549 c 38.6901,-14.24079 47.227,-16.16941 55.4573,-12.52876 9.3081,4.1174 9.8406,11.06128 1.1701,15.25857 -5.3263,2.57842 -17.6167,4.87304 -26.4133,4.93136 -19.5859,0.12984 -31.8992,3.42415 -62,16.58752 -31.7932,13.90348 -31.2298,13.74207 -49.00002,14.03755 -8.525,0.14176 -18.2,-0.15022 -21.5,-0.64884 z m 122.00002,-97.02937 c -14.7767,-1.89786 -38.2766,-12.85768 -48.0732,-22.42018 -12.2271,-11.93498 -14.3914,-19.78861 -14.412,-52.29668 l -0.015,-23.29669 -2.4686,1.79669 c -2.2417,1.63154 -2.4715,2.48971 -2.5,9.33658 -0.088,21.08535 -9.7448,36.67228 -31.82915,51.37444 -13.78652,9.17805 -36.23091,19.58566 -42.23722,19.58566 -4.04586,0 -1.73013,-2.95307 5.28495,-6.73948 12.11059,-6.53673 24.49614,-15.16666 30.76741,-21.43793 6.55872,-6.55872 13.48813,-19.17064 14.59991,-26.57259 0.5988,-3.98674 0.491,-4.25023 -1.73951,-4.25374 -3.0657,-0.005 -8.32387,-3.2212 -10.36918,-6.34275 -0.88002,-1.34308 -1.86335,-4.06457 -2.18518,-6.04774 -0.54598,-3.36451 -0.41162,-3.60577 2.0082,-3.60577 3.12453,0 13.66837,-3.81546 13.66837,-4.94612 0,-2.3748 -3.44636,-10.01158 -5.89755,-13.06838 -3.73739,-4.66078 -4.43194,-7.19296 -3.66238,-13.35226 0.96842,-7.75098 0.84016,-7.68741 11.05993,-5.48217 15.0543,3.24845 16.734,4.65646 18.0351,15.11762 l 0.593,4.76868 2.936,-1.73429 c 1.6147,-0.95386 2.9359,-2.55173 2.9359,-3.55081 0,-2.9971 2.7922,-8.73529 4.5854,-9.42342 0.9216,-0.35367 3.1518,0.1519 4.9559,1.12348 3.2637,1.75759 3.3022,1.75161 7.6195,-1.18431 8.8663,-6.0294 18.7674,-11.26802 21.2969,-11.26802 6.5339,0 19.5423,10.17141 19.5423,15.28037 0,7.89637 -11.9872,12.71963 -31.6118,12.71963 l -9.2445,0 -2.2336,5.75 c -3.0411,7.82863 -3.7633,23.31997 -1.5063,32.31038 4.9923,19.88643 19.4846,35.93962 32.4452,35.93962 4.1782,0 11.5315,-3.05523 17.5143,-7.27701 2.5409,-1.79307 2.8091,-2.48217 2.3824,-6.12175 -0.2645,-2.25568 -2.562,-8.9508 -5.1057,-14.87805 -4.8928,-11.40159 -7.1402,-18.74855 -6.3969,-20.91272 0.2475,-0.72076 2.1534,2.06453 4.2353,6.18953 8.7178,17.27339 12.0853,20.73703 27.3158,28.09576 8.534,4.12326 13.657,7.30285 16.75,10.39582 4.0132,4.01317 4.4558,4.92371 4.4558,9.16638 0,17.00719 -20.9785,30.1548 -43.5,27.26222 z"
         id="path3493"
         inkscape:connector-curvature="0" />
      <path
         style="fill:#bebebe"
         d="m 917.32288,114.12604 c -20.73748,-5.38785 -37.31112,-18.44283 -46.92844,-36.96533 -8.15478,-15.70572 -7.46971,-0.13698 -7.8325,-178 -0.22792,-111.74088 0.003,-160.99187 0.78224,-166.94671 4.20743,-32.14624 29.64797,-56.63142 63.4787,-61.09491 5.334,-0.70375 45.49061,-0.95077 120.50002,-0.74124 112.4631,0.31415 112.5025,0.31497 120.2867,2.51703 23.7372,6.71502 42.3934,24.02693 50.3973,46.76583 l 2.816,8 0.2675,162.7298 c 0.2964,180.23794 0.6396,170.0634 -6.224,184.5161 -8.7365,18.39654 -24.3959,31.76902 -45.5435,38.89227 -5.2177,1.75751 -11.6332,1.86345 -125,2.06417 -115.58694,0.20465 -119.74561,0.14777 -127.00002,-1.73701 z m 241.00002,-3.03034 c 8.5741,-1.3849 18.8377,-5.00942 25.809,-9.1142 9.0066,-5.30328 20.0673,-17.00281 24.8834,-26.32079 8.4865,-16.41933 7.8076,-0.59309 7.8076,-182 0,-180.33146 0.5936,-165.50147 -7.2646,-181.5 -5.6472,-11.49729 -17.7529,-23.26238 -30.2354,-29.38462 -16.2327,-7.9616 -9.3096,-7.57849 -137.3026,-7.59802 -127.08644,-0.0194 -120.94135,-0.33618 -136.19742,7.02119 -14.64678,7.06354 -25.16433,17.41024 -32.00903,31.48908 -6.94607,14.28738 -6.55516,2.87579 -6.25859,182.70415 l 0.26762,162.26822 3.16012,8.19512 c 9.0949,23.58578 29.26343,40.08945 54.10327,44.27207 7.39301,1.24487 225.51663,1.21475 233.23663,-0.0322 z m -90,-44.87625 c -16.6531,-3.52768 -32.5333,-8.71903 -42.9906,-14.05391 -3.3957,-1.7324 -3.9524,-1.77849 -5.0793,-0.42063 -2.0226,2.43705 -4.7757,3.55286 -9.4119,3.81459 -5.3718,0.30324 -9.0566,2.62594 -9.9758,6.28819 -0.3868,1.54101 -1.17213,3.36685 -1.74526,4.05743 -2.47142,2.97787 -10.95018,0.021 -14.18448,-4.94667 -0.8228,-1.26376 -2.47318,-5.89774 -3.66753,-10.29774 -1.19434,-4.4 -2.23681,-8.07871 -2.31659,-8.17491 -0.0798,-0.0962 -2.84134,0.45926 -6.13681,1.23437 -16.98347,3.99461 -28.13852,-0.82796 -29.27507,-12.65624 l -0.49872,-5.19029 2.89102,0.69522 c 1.59006,0.38237 9.12765,0.95621 16.7502,1.27521 13.24058,0.55409 13.83419,0.496 13.29945,-1.30169 -0.30784,-1.03492 -1.70697,-7.84711 -3.10917,-15.13821 -3.78767,-19.6949 -3.34491,-24.62437 2.03951,-22.70721 4.65247,1.65654 6.2673,5.22048 9.46644,20.89243 1.67608,8.21077 3.25057,15.25738 3.49886,15.65913 0.5336,0.86338 7.24077,-0.64258 20.77965,-4.66566 l 9.834,-2.92215 -0.6842,-7.5 c -0.3763,-4.125 -0.7939,-7.6173 -0.928,-7.76068 -0.134,-0.14337 -2.2264,0.43098 -4.6497,1.27634 -5.058,1.76448 -6.906,3.76721 -6.906,7.48434 0,1.43976 -0.6263,3.47426 -1.3918,4.52112 -1.2372,1.69191 -1.5885,1.74092 -3.1625,0.44113 -6.00188,-4.95628 -12.5132,-36.06433 -10.54661,-50.38667 1.06407,-7.74948 3.40989,-9.86549 9.98261,-9.00466 6.6284,0.86811 14.6594,-1.28674 40.9516,-10.98804 28.7785,-10.61867 33.8931,-12.00292 39.1342,-10.59163 3.7022,0.9969 8.0325,4.9684 8.0325,7.36697 0,0.59867 -2.749,3.70432 -6.1088,6.90142 -4.4646,4.24836 -6.4748,7.02896 -7.4685,10.33092 -1.7956,5.9664 -3.4227,22.25547 -3.4227,34.26539 l 0,9.64405 15.75,0.0331 c 14.5482,0.0306 16.3986,0.24814 24.25,2.85135 11.5531,3.83055 21.2736,9.06909 25.4915,13.73784 2.9972,3.31759 3.5085,4.59159 3.5085,8.74309 0,3.79754 -0.601,5.61435 -2.75,8.31299 -7.8045,9.80062 -24.7162,20.43519 -42.25,26.56796 -11.5533,4.04096 -16.7421,4.48536 -27,2.31241 z m -59.8782,-22.30874 9.8675,-5.25 0,-4.31739 c 0,-3.6348 -0.2713,-4.2392 -1.7446,-3.82287 -0.9625,0.27198 -7.0223,2.11303 -13.4662,4.09123 l -11.7162,3.59673 0.99108,2.60676 c 1.10903,2.91696 4.77543,8.34554 5.63648,8.34554 0.30746,0 4.99944,-2.3625 10.42664,-5.25 z m 64.5897,0.48123 c 19.0385,-6.54624 29.0503,-13.36637 31.4681,-21.43638 0.9726,-3.24614 0.9101,-4.13374 -0.3821,-5.42587 -1.8178,-1.81785 -10.4972,-1.99064 -21.2975,-0.42399 -3.85,0.55846 -7.6218,1.02431 -8.3817,1.0352 -1.035,0.0148 -1.2458,1.03232 -0.8404,4.05527 0.7316,5.45439 -0.7646,10.31029 -4.4809,14.54296 -3.0327,3.45401 -7.5784,6.42158 -9.8366,6.42158 -0.6263,0 -3.0826,-2.00006 -5.4584,-4.44457 -4.1686,-4.28915 -4.4479,-4.40917 -7.986,-3.43224 -6.5345,1.80427 -12.1396,4.60743 -16.0129,8.00819 -3.768,3.30839 -3.7765,3.33289 -1.397,4.04813 1.3166,0.39578 9.8189,0.60697 18.8939,0.46931 15.5858,-0.23642 17.0103,-0.42578 25.7115,-3.41759 z m -33.7115,-13.40863 c 4.675,-1.64778 9.5125,-3.64233 10.75,-4.43233 2.4097,-1.53831 3.0656,-4.40405 1,-4.36915 -1.7724,0.0299 -21.7305,4.61578 -22.143,5.08788 -0.1879,0.21505 -0.6581,2.13881 -1.0448,4.27503 -0.632,3.49092 -0.5189,3.81067 1.1173,3.15928 1.0013,-0.39861 5.6455,-2.07292 10.3205,-3.72071 z m 2,-20.3478 c 5.775,-1.56539 10.6496,-2.94972 10.8325,-3.07629 0.1828,-0.12657 0.013,-2.78769 -0.3777,-5.9136 l -0.7101,-5.68346 -5.6223,0.65089 c -3.0923,0.35799 -8.2099,1.13621 -11.3724,1.72938 l -5.75,1.07849 0,7.47688 c 0,5.55298 0.3216,7.36199 1.25,7.03038 0.6875,-0.24558 5.975,-1.72728 11.75,-3.29267 z m -28.75,-14.52738 c 3.7221,-1.03367 3.7499,-1.08016 3.7363,-6.24442 -0.01,-2.86165 -0.2752,-6.17812 -0.5949,-7.36994 -0.5711,-2.12931 -0.6577,-2.13859 -4.9863,-0.5343 l -4.4051,1.63264 0,6.7843 c 0,7.41918 0.04,7.45621 6.25,5.73172 z m 23.75,-7.44742 c 3.025,-0.81194 7.585,-1.4816 10.1334,-1.48813 5.2132,-0.0134 5.8278,-0.93335 5.8529,-8.76187 0.013,-4.13245 -0.076,-4.2498 -3.2363,-4.24289 -8.7269,0.0191 -16.8707,1.35005 -17.6933,2.89164 -1.262,2.36522 -2.4285,13.10319 -1.4219,13.08938 0.4758,-0.00653 3.3402,-0.67619 6.3652,-1.48813 z m -24.866,-13.65829 3.866,-1.15829 0,-5.95834 c 0,-5.69102 -0.101,-5.93129 -2.25,-5.35537 -1.2375,0.33164 -3.6704,0.60913 -5.4064,0.61664 -2.4707,0.0107 -3.0794,0.39382 -2.8021,1.76365 0.1948,0.9625 0.6303,3.8875 0.9676,6.5 0.3374,2.6125 0.8711,4.75 1.1861,4.75 0.315,0 2.3125,-0.52123 4.4388,-1.15829 z m 28.6987,-7.88858 c 3.3194,-0.65305 7.6366,-1.00041 9.5938,-0.77192 3.317,0.38725 3.5985,0.2023 4.1477,-2.72495 0.324,-1.72722 0.4399,-4.22931 0.2574,-5.56021 l -0.3316,-2.41982 -12.6463,2.38826 -12.6462,2.38825 1.5116,4.43635 c 0.9606,2.81927 1.9794,4.25684 2.795,3.94387 0.7058,-0.27085 3.9992,-1.02678 7.3186,-1.67983 z m -69.33272,-14.95465 c -9.46772,-1.42396 -13.22758,-2.92419 -16.40865,-6.54722 -3.23779,-3.68764 -4.14531,-8.67331 -1.84135,-10.11589 0.6875,-0.43047 15.78487,-1.06439 33.5497,-1.40872 17.76482,-0.34433 32.66482,-1.03119 33.11102,-1.52635 1.5489,-1.71867 -0.9434,-7.32348 -4.4437,-9.99325 l -3.4946,-2.66545 8.0341,-8.36853 c 4.4188,-4.60268 9.8526,-11.18204 12.0752,-14.6208 2.2226,-3.43875 4.5616,-6.25227 5.1978,-6.25227 1.9335,0 5.6865,7.75738 5.704,11.78984 0.018,4.06907 -2.7987,10.46614 -6.6202,15.03689 -2.3565,2.81862 -3.0463,7.04928 -1.5369,9.42659 0.6249,0.98426 1.9634,0.86712 6.2347,-0.54559 5.213,-1.72421 5.5842,-2.08699 8.9389,-8.73592 3.1923,-6.32719 3.4981,-7.68574 3.4781,-15.4544 -0.022,-8.56696 -1.8442,-14.24908 -6.1394,-19.14566 -1.2751,-1.4536 -0.7531,-2.16218 4.8665,-6.60617 3.4621,-2.73787 8.2124,-6.17655 10.5562,-7.64152 4.0404,-2.5254 4.4157,-2.58384 7.2342,-1.12634 4.7811,2.4724 9.8221,8.16182 11.1456,12.57918 2.2031,7.35336 -1.8187,16.76212 -13.1516,30.76764 -2.8236,3.4895 -4.9442,6.53423 -4.7123,6.76608 0.2318,0.23184 6.2641,-1.78888 13.4052,-4.49049 33.7818,-12.78046 44.4413,-15.01022 52.3141,-10.9431 7.653,3.95357 8.4329,9.18766 2.021,13.56251 -5.564,3.79629 -12.1099,4.95966 -40.0176,7.11206 -14.0594,1.08435 -23.4722,4.06632 -53.5,16.94884 -29.208,12.5308 -31.7583,13.22758 -47.85536,13.0748 -7.22956,-0.06861 -15.39466,-0.46316 -18.14466,-0.87676 z m 121.00002,-97.0783 c -14.7767,-1.89786 -38.2766,-12.85768 -48.0732,-22.42018 -12.2271,-11.93498 -14.3914,-19.78861 -14.412,-52.29668 l -0.015,-23.29669 -2.4686,1.79669 c -2.2417,1.63154 -2.4715,2.48971 -2.5,9.33658 -0.088,21.08535 -9.7448,36.67228 -31.82915,51.37444 -13.78652,9.17805 -36.23091,19.58566 -42.23722,19.58566 -4.04586,0 -1.73013,-2.95307 5.28495,-6.73948 12.11059,-6.53673 24.49614,-15.16666 30.76741,-21.43793 6.55872,-6.55872 13.48813,-19.17064 14.59991,-26.57259 0.5988,-3.98674 0.491,-4.25023 -1.73951,-4.25374 -3.0657,-0.005 -8.32387,-3.2212 -10.36918,-6.34275 -0.88002,-1.34308 -1.86335,-4.06457 -2.18518,-6.04774 -0.54598,-3.36451 -0.41162,-3.60577 2.0082,-3.60577 3.12453,0 13.66837,-3.81546 13.66837,-4.94612 0,-2.3748 -3.44636,-10.01158 -5.89755,-13.06838 -3.73739,-4.66078 -4.43194,-7.19296 -3.66238,-13.35226 0.96842,-7.75098 0.84016,-7.68741 11.05993,-5.48217 15.0543,3.24845 16.734,4.65646 18.0351,15.11762 l 0.593,4.76868 2.936,-1.73429 c 1.6147,-0.95386 2.9359,-2.55173 2.9359,-3.55081 0,-2.9971 2.7922,-8.73529 4.5854,-9.42342 0.9216,-0.35367 3.1518,0.1519 4.9559,1.12348 3.2637,1.75759 3.3022,1.75161 7.6195,-1.18431 8.8663,-6.0294 18.7674,-11.26802 21.2969,-11.26802 6.5339,0 19.5423,10.17141 19.5423,15.28037 0,7.89637 -11.9872,12.71963 -31.6118,12.71963 l -9.2445,0 -2.2336,5.75 c -3.0411,7.82863 -3.7633,23.31997 -1.5063,32.31038 4.9923,19.88643 19.4846,35.93962 32.4452,35.93962 4.1782,0 11.5315,-3.05523 17.5143,-7.27701 2.5409,-1.79307 2.8091,-2.48217 2.3824,-6.12175 -0.2645,-2.25568 -2.562,-8.9508 -5.1057,-14.87805 -4.8928,-11.40159 -7.1402,-18.74855 -6.3969,-20.91272 0.2475,-0.72076 2.1534,2.06453 4.2353,6.18953 8.7178,17.27339 12.0853,20.73703 27.3158,28.09576 8.534,4.12326 13.657,7.30285 16.75,10.39582 4.0132,4.01317 4.4558,4.92371 4.4558,9.16638 0,17.00719 -20.9785,30.1548 -43.5,27.26222 z"
         id="path3491"
         inkscape:connector-curvature="0" />
      <path
         style="fill:#c38c8f"
         d="m 919.82288,114.69306 c -29.77928,-6.49514 -52.61045,-31.0234 -56.49291,-60.69218 -0.7598,-5.80614 -1.00263,-56.34598 -0.79925,-166.34017 l 0.29216,-158 2.34867,-7 c 4.41069,-13.1457 8.86159,-20.33574 18.58974,-30.03015 10.04682,-10.01196 19.21131,-15.53147 32.58896,-19.62739 l 7.47263,-2.28795 112.50002,-0.3259 c 76.1044,-0.22047 115.1341,0.0208 120.6421,0.74563 26.0665,3.43045 47.3035,18.73913 58.0823,41.86852 6.6638,14.29931 6.3385,4.42555 6.0432,183.42769 l -0.2676,162.22955 -2.3385,7 c -3.9497,11.82342 -8.6983,19.24956 -18.5584,29.02314 -10.4254,10.33384 -20.4705,16.08999 -34.0131,19.49062 -7.675,1.92725 -11.358,1.98388 -124,1.90674 -91.6852,-0.0628 -117.35136,-0.35461 -122.09002,-1.38815 z m 246.00002,-4.80467 c 3.3,-0.96116 9.825,-3.61071 14.5,-5.88789 11.5571,-5.62942 24.0049,-17.86674 29.3359,-28.83979 7.7364,-15.92414 7.1641,-1.42572 7.1641,-181.5 0,-131.55998 -0.2462,-162.00572 -1.3464,-166.5 -0.7406,-3.025 -3.3337,-9.65347 -5.7626,-14.72994 -7.6046,-15.89422 -21.5568,-27.8019 -39.891,-34.04565 l -8,-2.72441 -120,0 -120.00002,0 -8,2.81594 c -22.37063,7.87428 -38.94986,25.48321 -44.528,47.29354 -1.92237,7.51639 -1.972,11.74189 -1.972,167.89052 0,156.14863 0.0496,160.37413 1.972,167.89052 3.00125,11.73478 8.27817,20.90784 17.03322,29.60948 11.04578,10.9784 23.354,17.39961 38.11556,19.88493 3.03535,0.51104 55.48779,0.83696 120.37924,0.74798 106.2249,-0.14565 115.4578,-0.29103 121,-1.90523 z m -97.5,-43.66894 c -16.6531,-3.52768 -32.5333,-8.71903 -42.9906,-14.05391 -3.3957,-1.7324 -3.9524,-1.77849 -5.0793,-0.42063 -2.0226,2.43705 -4.7757,3.55286 -9.4119,3.81459 -5.3718,0.30324 -9.0566,2.62594 -9.9758,6.28819 -0.3868,1.54101 -1.17213,3.36685 -1.74526,4.05743 -2.47142,2.97787 -10.95018,0.021 -14.18448,-4.94667 -0.8228,-1.26376 -2.47318,-5.89774 -3.66753,-10.29774 -1.19434,-4.4 -2.23681,-8.07871 -2.31659,-8.17491 -0.0798,-0.0962 -2.84134,0.45926 -6.13681,1.23437 -16.98347,3.99461 -28.13852,-0.82796 -29.27507,-12.65624 l -0.49872,-5.19029 2.89102,0.69522 c 1.59006,0.38237 9.12765,0.95621 16.7502,1.27521 13.24058,0.55409 13.83419,0.496 13.29945,-1.30169 -0.30784,-1.03492 -1.70697,-7.84711 -3.10917,-15.13821 -3.78767,-19.6949 -3.34491,-24.62437 2.03951,-22.70721 4.65247,1.65654 6.2673,5.22048 9.46644,20.89243 1.67608,8.21077 3.25057,15.25738 3.49886,15.65913 0.5336,0.86338 7.24077,-0.64258 20.77965,-4.66566 l 9.834,-2.92215 -0.6842,-7.5 c -0.3763,-4.125 -0.7939,-7.6173 -0.928,-7.76068 -0.134,-0.14337 -2.2264,0.43098 -4.6497,1.27634 -5.058,1.76448 -6.906,3.76721 -6.906,7.48434 0,1.43976 -0.6263,3.47426 -1.3918,4.52112 -1.2372,1.69191 -1.5885,1.74092 -3.1625,0.44113 -6.00188,-4.95628 -12.5132,-36.06433 -10.54661,-50.38667 1.06407,-7.74948 3.40989,-9.86549 9.98261,-9.00466 6.6284,0.86811 14.6594,-1.28674 40.9516,-10.98804 28.7785,-10.61867 33.8931,-12.00292 39.1342,-10.59163 3.7022,0.9969 8.0325,4.9684 8.0325,7.36697 0,0.59867 -2.749,3.70432 -6.1088,6.90142 -4.4646,4.24836 -6.4748,7.02896 -7.4685,10.33092 -1.7956,5.9664 -3.4227,22.25547 -3.4227,34.26539 l 0,9.64405 15.75,0.0331 c 14.5482,0.0306 16.3986,0.24814 24.25,2.85135 11.5531,3.83055 21.2736,9.06909 25.4915,13.73784 2.9972,3.31759 3.5085,4.59159 3.5085,8.74309 0,3.79754 -0.601,5.61435 -2.75,8.31299 -7.8045,9.80062 -24.7162,20.43519 -42.25,26.56796 -11.5533,4.04096 -16.7421,4.48536 -27,2.31241 z m -59.8782,-22.30874 9.8675,-5.25 0,-4.31739 c 0,-3.6348 -0.2713,-4.2392 -1.7446,-3.82287 -0.9625,0.27198 -7.0223,2.11303 -13.4662,4.09123 l -11.7162,3.59673 0.99108,2.60676 c 1.10903,2.91696 4.77543,8.34554 5.63648,8.34554 0.30746,0 4.99944,-2.3625 10.42664,-5.25 z m 64.5897,0.48123 c 19.0385,-6.54624 29.0503,-13.36637 31.4681,-21.43638 0.9726,-3.24614 0.9101,-4.13374 -0.3821,-5.42587 -1.8178,-1.81785 -10.4972,-1.99064 -21.2975,-0.42399 -3.85,0.55846 -7.6218,1.02431 -8.3817,1.0352 -1.035,0.0148 -1.2458,1.03232 -0.8404,4.05527 0.7316,5.45439 -0.7646,10.31029 -4.4809,14.54296 -3.0327,3.45401 -7.5784,6.42158 -9.8366,6.42158 -0.6263,0 -3.0826,-2.00006 -5.4584,-4.44457 -4.1686,-4.28915 -4.4479,-4.40917 -7.986,-3.43224 -6.5345,1.80427 -12.1396,4.60743 -16.0129,8.00819 -3.768,3.30839 -3.7765,3.33289 -1.397,4.04813 1.3166,0.39578 9.8189,0.60697 18.8939,0.46931 15.5858,-0.23642 17.0103,-0.42578 25.7115,-3.41759 z m -33.7115,-13.40863 c 4.675,-1.64778 9.5125,-3.64233 10.75,-4.43233 2.4097,-1.53831 3.0656,-4.40405 1,-4.36915 -1.7724,0.0299 -21.7305,4.61578 -22.143,5.08788 -0.1879,0.21505 -0.6581,2.13881 -1.0448,4.27503 -0.632,3.49092 -0.5189,3.81067 1.1173,3.15928 1.0013,-0.39861 5.6455,-2.07292 10.3205,-3.72071 z m 2,-20.3478 c 5.775,-1.56539 10.6496,-2.94972 10.8325,-3.07629 0.1828,-0.12657 0.013,-2.78769 -0.3777,-5.9136 l -0.7101,-5.68346 -5.6223,0.65089 c -3.0923,0.35799 -8.2099,1.13621 -11.3724,1.72938 l -5.75,1.07849 0,7.47688 c 0,5.55298 0.3216,7.36199 1.25,7.03038 0.6875,-0.24558 5.975,-1.72728 11.75,-3.29267 z m -28.75,-14.52738 c 3.7221,-1.03367 3.7499,-1.08016 3.7363,-6.24442 -0.01,-2.86165 -0.2752,-6.17812 -0.5949,-7.36994 -0.5711,-2.12931 -0.6577,-2.13859 -4.9863,-0.5343 l -4.4051,1.63264 0,6.7843 c 0,7.41918 0.04,7.45621 6.25,5.73172 z m 23.75,-7.44742 c 3.025,-0.81194 7.585,-1.4816 10.1334,-1.48813 5.2132,-0.0134 5.8278,-0.93335 5.8529,-8.76187 0.013,-4.13245 -0.076,-4.2498 -3.2363,-4.24289 -8.7269,0.0191 -16.8707,1.35005 -17.6933,2.89164 -1.262,2.36522 -2.4285,13.10319 -1.4219,13.08938 0.4758,-0.00653 3.3402,-0.67619 6.3652,-1.48813 z m -24.866,-13.65829 3.866,-1.15829 0,-5.95834 c 0,-5.69102 -0.101,-5.93129 -2.25,-5.35537 -1.2375,0.33164 -3.6704,0.60913 -5.4064,0.61664 -2.4707,0.0107 -3.0794,0.39382 -2.8021,1.76365 0.1948,0.9625 0.6303,3.8875 0.9676,6.5 0.3374,2.6125 0.8711,4.75 1.1861,4.75 0.315,0 2.3125,-0.52123 4.4388,-1.15829 z m 28.6987,-7.88858 c 3.3194,-0.65305 7.6366,-1.00041 9.5938,-0.77192 3.317,0.38725 3.5985,0.2023 4.1477,-2.72495 0.324,-1.72722 0.4399,-4.22931 0.2574,-5.56021 l -0.3316,-2.41982 -12.6463,2.38826 -12.6462,2.38825 1.5116,4.43635 c 0.9606,2.81927 1.9794,4.25684 2.795,3.94387 0.7058,-0.27085 3.9992,-1.02678 7.3186,-1.67983 z m -69.33272,-14.95465 c -9.46772,-1.42396 -13.22758,-2.92419 -16.40865,-6.54722 -3.23779,-3.68764 -4.14531,-8.67331 -1.84135,-10.11589 0.6875,-0.43047 15.78487,-1.06439 33.5497,-1.40872 17.76482,-0.34433 32.66482,-1.03119 33.11102,-1.52635 1.5489,-1.71867 -0.9434,-7.32348 -4.4437,-9.99325 l -3.4946,-2.66545 8.0341,-8.36853 c 4.4188,-4.60268 9.8526,-11.18204 12.0752,-14.6208 2.2226,-3.43875 4.5616,-6.25227 5.1978,-6.25227 1.9335,0 5.6865,7.75738 5.704,11.78984 0.018,4.06907 -2.7987,10.46614 -6.6202,15.03689 -2.3565,2.81862 -3.0463,7.04928 -1.5369,9.42659 0.6249,0.98426 1.9634,0.86712 6.2347,-0.54559 5.213,-1.72421 5.5842,-2.08699 8.9389,-8.73592 3.1923,-6.32719 3.4981,-7.68574 3.4781,-15.4544 -0.022,-8.56696 -1.8442,-14.24908 -6.1394,-19.14566 -1.2751,-1.4536 -0.7531,-2.16218 4.8665,-6.60617 3.4621,-2.73787 8.2124,-6.17655 10.5562,-7.64152 4.0404,-2.5254 4.4157,-2.58384 7.2342,-1.12634 4.7811,2.4724 9.8221,8.16182 11.1456,12.57918 2.2031,7.35336 -1.8187,16.76212 -13.1516,30.76764 -2.8236,3.4895 -4.9442,6.53423 -4.7123,6.76608 0.2318,0.23184 6.2641,-1.78888 13.4052,-4.49049 33.7818,-12.78046 44.4413,-15.01022 52.3141,-10.9431 7.653,3.95357 8.4329,9.18766 2.021,13.56251 -5.564,3.79629 -12.1099,4.95966 -40.0176,7.11206 -14.0594,1.08435 -23.4722,4.06632 -53.5,16.94884 -29.208,12.5308 -31.7583,13.22758 -47.85536,13.0748 -7.22956,-0.06861 -15.39466,-0.46316 -18.14466,-0.87676 z m 121.00002,-97.17492 c -3.3,-0.42888 -9.375,-1.956 -13.5,-3.3936 -28.48,-9.92558 -44.3926,-24.49129 -47.9197,-43.86362 -0.5942,-3.26351 -1.0803,-16.0309 -1.0803,-28.37197 l 0,-22.43831 -2.25,1.48961 c -1.9947,1.32056 -2.3228,2.61116 -2.891,11.37197 -1.4031,21.6332 -10.5857,35.70168 -32.85902,50.34281 -16.63244,10.93314 -39.58377,20.85578 -42.19655,18.243 -1.40381,-1.40382 -1.83841,-1.0297 6.3289,-5.44819 25.75819,-13.9351 39.01777,-26.7886 43.88241,-42.53847 2.68366,-8.68854 2.58116,-9.84761 -0.93283,-10.5504 -8.07895,-1.61579 -16.28369,-15.66639 -9.14826,-15.66639 2.32954,0 11.18755,-2.83894 12.38915,-3.97065 1.4173,-1.33489 -1.1924,-8.6189 -5.08293,-14.18703 -3.11116,-4.45271 -3.73004,-6.17493 -3.7165,-10.34232 0.009,-2.75 0.34183,-6.19139 0.73976,-7.64755 l 0.72353,-2.64754 9.25664,2.0041 c 14.5195,3.14353 16.9825,5.07306 18.1413,14.21196 0.3432,2.70653 0.808,5.10499 1.0329,5.3299 0.2249,0.22492 1.5384,-0.33107 2.9187,-1.23553 1.6562,-1.08517 2.7297,-2.94586 3.1563,-5.47086 0.3555,-2.10451 1.6796,-4.79704 2.9425,-5.98339 2.2243,-2.08968 2.4067,-2.1042 5.844,-0.46508 l 3.548,1.69193 8.8365,-5.53019 c 16.1495,-10.10697 17.0756,-10.32253 24.9481,-5.80716 5.6519,3.24166 10.0639,7.90837 10.9989,11.63377 1.9479,7.76096 -11.3891,13.39619 -31.7374,13.40985 l -8.6268,0.006 -2.291,5.25 c -3.1508,7.22053 -3.9109,24.391 -1.4902,33.66342 5.1955,19.90119 19.1484,35.05376 32.3,35.0772 4.0496,0.007 6.5892,-0.72179 11,-3.15771 11.312,-6.24706 11.3734,-6.66065 3.8111,-25.68691 -2.9831,-7.5053 -5.7161,-15.446 -6.0733,-17.646 -0.5824,-3.58661 -0.151,-3.09636 4.1738,4.74382 9.5478,17.30853 11.138,18.91859 26.5021,26.83235 16.4395,8.46769 21.8212,13.38576 21.8212,19.94132 0,10.23851 -10.9751,21.54764 -25,25.76092 -5.1715,1.55359 -11.7347,1.92438 -18.5,1.04515 z"
         id="path3489"
         inkscape:connector-curvature="0" />
      <path
         style="fill:#7b7b7b"
         d="m 919.82288,114.69306 c -29.77928,-6.49514 -52.61045,-31.0234 -56.49291,-60.69218 -0.7598,-5.80614 -1.00263,-56.34598 -0.79925,-166.34017 l 0.29216,-158 2.34867,-7 c 4.41069,-13.1457 8.86159,-20.33574 18.58974,-30.03015 10.04682,-10.01196 19.21131,-15.53147 32.58896,-19.62739 l 7.47263,-2.28795 112.50002,-0.3259 c 76.1044,-0.22047 115.1341,0.0208 120.6421,0.74563 26.0665,3.43045 47.3035,18.73913 58.0823,41.86852 6.6638,14.29931 6.3385,4.42555 6.0432,183.42769 l -0.2676,162.22955 -2.3385,7 c -3.9497,11.82342 -8.6983,19.24956 -18.5584,29.02314 -10.4254,10.33384 -20.4705,16.08999 -34.0131,19.49062 -7.675,1.92725 -11.358,1.98388 -124,1.90674 -91.6852,-0.0628 -117.35136,-0.35461 -122.09002,-1.38815 z m 246.00002,-4.80467 c 3.3,-0.96116 9.825,-3.61071 14.5,-5.88789 11.5571,-5.62942 24.0049,-17.86674 29.3359,-28.83979 7.7364,-15.92414 7.1641,-1.42572 7.1641,-181.5 0,-131.55998 -0.2462,-162.00572 -1.3464,-166.5 -0.7406,-3.025 -3.3337,-9.65347 -5.7626,-14.72994 -7.6046,-15.89422 -21.5568,-27.8019 -39.891,-34.04565 l -8,-2.72441 -120,0 -120.00002,0 -8,2.81594 c -22.37063,7.87428 -38.94986,25.48321 -44.528,47.29354 -1.92237,7.51639 -1.972,11.74189 -1.972,167.89052 0,156.14863 0.0496,160.37413 1.972,167.89052 3.00125,11.73478 8.27817,20.90784 17.03322,29.60948 11.04578,10.9784 23.354,17.39961 38.11556,19.88493 3.03535,0.51104 55.48779,0.83696 120.37924,0.74798 106.2249,-0.14565 115.4578,-0.29103 121,-1.90523 z M 990.59257,65.67812 c -4.18083,-1.81752 -6.718,-6.10491 -8.82563,-14.91386 -0.93478,-3.90695 -2.04816,-7.48711 -2.47419,-7.95591 -0.42602,-0.4688 -3.94486,-0.1313 -7.81964,0.75 -3.87477,0.8813 -8.65816,1.60236 -10.62975,1.60236 -4.30783,0 -10.15125,-2.3045 -13.26807,-5.2326 -2.55814,-2.40325 -4.65754,-8.9156 -3.77278,-11.70321 0.51652,-1.62742 1.06547,-1.71966 4.80178,-0.80686 4.72648,1.1547 26.18388,1.61001 27.2168,0.57752 0.36598,-0.36583 -0.4964,-6.40021 -1.9164,-13.40972 -2.30216,-11.36416 -3.47038,-26.42513 -2.04969,-26.42513 0.29266,0 2.01514,0.61965 3.82773,1.37699 4.1595,1.73795 4.92727,3.65256 8.63363,21.52984 1.64277,7.92376 3.19904,14.61903 3.45838,14.87836 0.62663,0.62663 7.77946,-1.12515 20.29816,-4.97117 l 10.25,-3.14903 -0.015,-6.58249 c -0.022,-9.312 -0.5763,-9.88538 -7.1471,-7.38935 -5.2228,1.984 -5.3524,2.13028 -6.0243,6.80387 -1.2334,8.58005 -3.9028,8.37153 -7.7651,-0.60658 -4.11055,-9.55524 -6.38248,-22.36938 -6.46845,-36.48344 -0.0987,-16.20892 -0.0221,-16.33717 9.76265,-16.32783 9.2043,0.009 13.8445,-1.27629 41.3969,-11.46463 12.5184,-4.62904 24.5607,-8.9085 26.7607,-9.50991 9.7183,-2.65667 18.5,0.0969 18.5,5.80079 0,2.32182 -1.2447,4.04808 -5.9591,8.2647 -7.9486,7.10935 -9.0485,11.09627 -9.7649,35.39655 l -0.5326,18.06667 15.3783,-0.0405 c 15.2302,-0.0401 15.4842,-0.004 26.3783,3.73723 24.6444,8.46359 32.4671,17.63192 24.931,29.21974 -7.9617,12.2425 -43.1022,30.46808 -58.693,30.44111 -10.5155,-0.0182 -38.2057,-7.69715 -51.0433,-14.15519 l -5.8054,-2.92041 -3.0214,2.54233 c -2.1267,1.78952 -4.1978,2.54235 -6.9943,2.54235 -5.5919,0 -9.7463,2.4487 -11.5648,6.81642 -2.31352,5.55687 -4.18393,6.24641 -10.03913,3.70099 z M 1008.341,44.15159 c 5.4901,-2.75501 9.9819,-5.62376 9.9819,-6.375 0,-0.75123 0.2812,-2.77213 0.625,-4.49088 0.5151,-2.57562 0.308,-3.125 -1.178,-3.125 -2.3039,0 -24.6727,6.91957 -25.78212,7.97542 -1.1957,1.13797 4.19237,11.02458 6.00826,11.02458 0.19975,0 4.85496,-2.2541 10.34496,-5.00912 z m 61.266,1.5525 c 17.1633,-4.99103 29.0226,-11.79795 33.3146,-19.12168 3.0961,-5.28302 3.0423,-7.95559 -0.203,-10.08196 -2.3688,-1.55215 -3.6567,-1.59313 -14.25,-0.45352 -16.8587,1.81365 -15.7065,1.23236 -15.2996,7.71876 0.4299,6.85286 -0.986,10.38519 -5.9658,14.88422 -5.5638,5.02657 -9.4607,4.86079 -13.8401,-0.58877 -3.8628,-4.80675 -5.3578,-4.79838 -15.3843,0.0861 -5.3634,2.61287 -12.6559,8.0632 -12.6559,9.45893 0,0.73937 15.4919,1.31572 26,0.96729 6.4353,-0.21338 12.3337,-1.13905 18.2841,-2.86937 z m -31.5532,-13.93 c 10.8936,-3.96328 14.2691,-5.98293 14.2691,-8.53748 0,-1.83399 -0.1969,-1.83498 -8.4011,-0.0421 -17.0046,3.71594 -16.5989,3.52033 -16.5989,8.00474 0,2.1788 0.3375,3.95511 0.75,3.94735 0.4125,-0.008 4.9039,-1.52539 9.9809,-3.37251 z m -1.2947,-19.55137 c 3.8851,-1.0659 8.9972,-2.43886 11.3602,-3.05104 l 4.2964,-1.11304 -0.2964,-6.19897 -0.2964,-6.19896 -3,0.26918 c -9.4483,0.84777 -19.7428,2.72673 -20.0334,3.65654 -0.8973,2.87136 -0.9598,14.57428 -0.078,14.57428 0.541,0 4.1623,-0.8721 8.0474,-1.93799 z m -20.2961,-24.09419 c -0.1979,-4.1073 -0.5081,-7.62798 -0.6892,-7.82373 -0.1812,-0.19575 -2.3817,0.42788 -4.8902,1.38586 l -4.5607,1.74177 0,7.25659 0,7.2566 5.25,-1.17463 5.25,-1.17463 -0.3599,-7.46783 z m 21.7821,0.40177 c 3.5322,-0.82123 8.0322,-1.35417 10,-1.18431 l 3.5778,0.30884 0.7074,-6.41149 c 0.3891,-3.52631 0.5384,-6.68481 0.332,-7.01889 -0.459,-0.74256 -20.0144,0.49373 -21.4051,1.35322 -0.5469,0.33801 -1.2877,3.19497 -1.6462,6.3488 -0.3586,3.15383 -0.892,6.58981 -1.1854,7.63551 -0.4287,1.52774 -0.167,1.75984 1.3319,1.18138 1.026,-0.39595 4.7554,-1.39182 8.2876,-2.21306 z m -26.0714,-13.46742 c 3.0636,-1.06799 3.1492,-1.262 3.1492,-7.13929 l 0,-6.04146 -5.1356,0.60824 c -2.8246,0.33453 -5.2667,0.73932 -5.4269,0.89953 -0.1603,0.16022 -0.037,3.09919 0.2745,6.53106 0.6204,6.84295 1.1549,7.22791 7.1388,5.14192 z m 32.771,-7.58036 9.1218,-0.54916 0.5783,-5.60289 c 0.3181,-3.08159 0.4275,-5.75371 0.2431,-5.93804 -0.3959,-0.39593 -25.4404,4.31035 -26.0196,4.88952 -0.218,0.21798 0.1219,2.33788 0.7553,4.71089 1.0499,3.93341 1.3746,4.25821 3.6755,3.6767 1.3881,-0.35082 6.6286,-0.88498 11.6456,-1.18702 z m -70.82335,-15.33966 c -15.83522,-1.80724 -21.92371,-5.24948 -22.16669,-12.53238 l -0.13178,-3.94977 30,-0.67519 c 16.5,-0.37135 31.96172,-0.96881 34.35942,-1.32769 4.2302,-0.63314 4.3414,-0.74287 3.75,-3.69981 -0.3352,-1.67602 -0.6094,-3.37986 -0.6094,-3.78631 0,-0.40645 -1.8031,-1.98854 -4.0069,-3.51576 l -4.0069,-2.77677 8.2947,-8.60923 c 4.562,-4.73508 10.0291,-11.42174 12.149,-14.85924 2.1199,-3.4375 4.2037,-6.25 4.6307,-6.25 1.2146,0 4.6522,6.16197 5.3926,9.66632 0.9368,4.43412 -0.8238,10.09629 -4.939,15.88442 -2.5168,3.53992 -3.5142,6.00814 -3.5142,8.69606 0,4.30386 0.3121,4.38745 7.6943,2.06041 5.0668,-1.59716 5.5377,-2.03495 8.3353,-7.75 4.5479,-9.29057 5.5623,-15.98719 3.5097,-23.17071 -0.9251,-3.23758 -2.7749,-7.56435 -4.1107,-9.61506 -1.3357,-2.05071 -2.4286,-4.07571 -2.4286,-4.5 1e-4,-1.96548 17.5315,-14.2634 20.3402,-14.26826 2.8428,-0.005 9.3187,5.09212 11.6036,9.13297 5.0487,8.92816 1.1445,20.17777 -12.7235,36.66203 -2.4515,2.914 -4.2915,5.45192 -4.0888,5.63983 0.2027,0.18791 3.7435,-0.97282 7.8685,-2.57939 4.125,-1.60658 15.6,-5.68576 25.5,-9.06485 14.014,-4.7833 19.3287,-6.15119 24,-6.17712 10.7562,-0.0597 17.5943,5.49135 14.6703,11.90899 -2.3079,5.06515 -13.7186,7.95052 -37.3441,9.44303 -19.0842,1.20562 -25.6765,3.11183 -56.3262,16.28704 -30.6741,13.18568 -32.8987,13.86827 -46.50002,14.26769 -6.325,0.18573 -14.96569,-0.0578 -19.20153,-0.54125 z m 117.70155,-97.15859 c -3.3,-0.42888 -9.375,-1.956 -13.5,-3.3936 -28.48,-9.92558 -44.3926,-24.49129 -47.9197,-43.86362 -0.5942,-3.26351 -1.0803,-16.0309 -1.0803,-28.37197 l 0,-22.43831 -2.25,1.48961 c -1.9947,1.32056 -2.3228,2.61116 -2.891,11.37197 -1.4031,21.6332 -10.5857,35.70168 -32.85902,50.34281 -16.63244,10.93314 -39.58377,20.85578 -42.19655,18.243 -1.40381,-1.40382 -1.83841,-1.0297 6.3289,-5.44819 25.75819,-13.9351 39.01777,-26.7886 43.88241,-42.53847 2.68366,-8.68854 2.58116,-9.84761 -0.93283,-10.5504 -8.07895,-1.61579 -16.28369,-15.66639 -9.14826,-15.66639 2.32954,0 11.18755,-2.83894 12.38915,-3.97065 1.4173,-1.33489 -1.1924,-8.6189 -5.08293,-14.18703 -3.11116,-4.45271 -3.73004,-6.17493 -3.7165,-10.34232 0.009,-2.75 0.34183,-6.19139 0.73976,-7.64755 l 0.72353,-2.64754 9.25664,2.0041 c 14.5195,3.14353 16.9825,5.07306 18.1413,14.21196 0.3432,2.70653 0.808,5.10499 1.0329,5.3299 0.2249,0.22492 1.5384,-0.33107 2.9187,-1.23553 1.6562,-1.08517 2.7297,-2.94586 3.1563,-5.47086 0.3555,-2.10451 1.6796,-4.79704 2.9425,-5.98339 2.2243,-2.08968 2.4067,-2.1042 5.844,-0.46508 l 3.548,1.69193 8.8365,-5.53019 c 16.1495,-10.10697 17.0756,-10.32253 24.9481,-5.80716 5.6519,3.24166 10.0639,7.90837 10.9989,11.63377 1.9479,7.76096 -11.3891,13.39619 -31.7374,13.40985 l -8.6268,0.006 -2.291,5.25 c -3.1508,7.22053 -3.9109,24.391 -1.4902,33.66342 5.1955,19.90119 19.1484,35.05376 32.3,35.0772 4.0496,0.007 6.5892,-0.72179 11,-3.15771 11.312,-6.24706 11.3734,-6.66065 3.8111,-25.68691 -2.9831,-7.5053 -5.7161,-15.446 -6.0733,-17.646 -0.5824,-3.58661 -0.151,-3.09636 4.1738,4.74382 9.5478,17.30853 11.138,18.91859 26.5021,26.83235 16.4395,8.46769 21.8212,13.38576 21.8212,19.94132 0,10.23851 -10.9751,21.54764 -25,25.76092 -5.1715,1.55359 -11.7347,1.92438 -18.5,1.04515 z"
         id="path3487"
         inkscape:connector-curvature="0" />
      <path
         style="fill:#a55357"
         d="m 924.15374,115.13756 c -23.26884,-3.92662 -42.66286,-17.54955 -52.84417,-37.11932 -2.22735,-4.28125 -4.93555,-11.2476 -6.01821,-15.48077 -1.918,-7.4993 -1.96848,-11.8303 -1.96848,-168.87676 0,-157.67293 0.0434,-161.35219 1.99279,-169.09004 3.27288,-12.99097 8.25232,-21.68287 17.99425,-31.40996 9.72337,-9.70857 16.30235,-13.91091 28.75175,-18.36526 l 8.76121,-3.13474 120.50002,0 120.5,0 7.4647,2.34401 c 25.3424,7.95776 42.8655,25.63509 49.7187,50.15599 1.7213,6.15921 1.8166,15.01974 1.8166,169 0,182.57471 0.643,167.02694 -7.6033,183.8503 -7.2097,14.70883 -21.7982,27.78417 -37.7617,33.84498 -13.901,5.27777 -12.9522,5.24133 -134.135,5.15221 -61.87502,-0.0455 -114.60114,-0.43729 -117.16916,-0.87064 z m 240.75916,-4.96964 c 13.1483,-3.31251 21.6418,-8.21843 32.0128,-18.4909 7.2893,-7.22001 9.9138,-10.65259 13.1736,-17.22943 7.7894,-15.71571 7.3193,-3.34874 7.0045,-184.28688 l -0.2809,-161.5 -2.6794,-7.33492 c -3.9577,-10.83433 -8.4122,-17.7261 -17.0186,-26.33034 -6.1406,-6.13904 -9.58,-8.62033 -17,-12.26436 -17.6565,-8.67122 -7.36,-8.07038 -138.302,-8.07038 l -116.00002,0 -7.95493,2.30316 c -11.86029,3.43387 -20.7327,8.55294 -29.93985,17.27428 -9.22897,8.742 -14.40344,16.74338 -18.38081,28.42256 l -2.72441,8 -0.30099,157.5 c -0.21714,113.61995 0.0152,159.715 0.83401,165.45037 3.84396,26.92579 24.26743,49.47873 51.19649,56.53453 6.94141,1.81875 12.50237,1.90747 122.86051,1.96004 112.2355,0.0535 115.8196,-0.003 123.5,-1.93773 z M 990.59257,65.67812 c -4.18083,-1.81752 -6.718,-6.10491 -8.82563,-14.91386 -0.93478,-3.90695 -2.04816,-7.48711 -2.47419,-7.95591 -0.42602,-0.4688 -3.94486,-0.1313 -7.81964,0.75 -3.87477,0.8813 -8.65816,1.60236 -10.62975,1.60236 -4.30783,0 -10.15125,-2.3045 -13.26807,-5.2326 -2.55814,-2.40325 -4.65754,-8.9156 -3.77278,-11.70321 0.51652,-1.62742 1.06547,-1.71966 4.80178,-0.80686 4.72648,1.1547 26.18388,1.61001 27.2168,0.57752 0.36598,-0.36583 -0.4964,-6.40021 -1.9164,-13.40972 -2.30216,-11.36416 -3.47038,-26.42513 -2.04969,-26.42513 0.29266,0 2.01514,0.61965 3.82773,1.37699 4.1595,1.73795 4.92727,3.65256 8.63363,21.52984 1.64277,7.92376 3.19904,14.61903 3.45838,14.87836 0.62663,0.62663 7.77946,-1.12515 20.29816,-4.97117 l 10.25,-3.14903 -0.015,-6.58249 c -0.022,-9.312 -0.5763,-9.88538 -7.1471,-7.38935 -5.2228,1.984 -5.3524,2.13028 -6.0243,6.80387 -1.2334,8.58005 -3.9028,8.37153 -7.7651,-0.60658 -4.11055,-9.55524 -6.38248,-22.36938 -6.46845,-36.48344 -0.0987,-16.20892 -0.0221,-16.33717 9.76265,-16.32783 9.2043,0.009 13.8445,-1.27629 41.3969,-11.46463 12.5184,-4.62904 24.5607,-8.9085 26.7607,-9.50991 9.7183,-2.65667 18.5,0.0969 18.5,5.80079 0,2.32182 -1.2447,4.04808 -5.9591,8.2647 -7.9486,7.10935 -9.0485,11.09627 -9.7649,35.39655 l -0.5326,18.06667 15.3783,-0.0405 c 15.2302,-0.0401 15.4842,-0.004 26.3783,3.73723 24.6444,8.46359 32.4671,17.63192 24.931,29.21974 -7.9617,12.2425 -43.1022,30.46808 -58.693,30.44111 -10.5155,-0.0182 -38.2057,-7.69715 -51.0433,-14.15519 l -5.8054,-2.92041 -3.0214,2.54233 c -2.1267,1.78952 -4.1978,2.54235 -6.9943,2.54235 -5.5919,0 -9.7463,2.4487 -11.5648,6.81642 -2.31352,5.55687 -4.18393,6.24641 -10.03913,3.70099 z M 1008.341,44.15159 c 5.4901,-2.75501 9.9819,-5.62376 9.9819,-6.375 0,-0.75123 0.2812,-2.77213 0.625,-4.49088 0.5151,-2.57562 0.308,-3.125 -1.178,-3.125 -2.3039,0 -24.6727,6.91957 -25.78212,7.97542 -1.1957,1.13797 4.19237,11.02458 6.00826,11.02458 0.19975,0 4.85496,-2.2541 10.34496,-5.00912 z m 61.266,1.5525 c 17.1633,-4.99103 29.0226,-11.79795 33.3146,-19.12168 3.0961,-5.28302 3.0423,-7.95559 -0.203,-10.08196 -2.3688,-1.55215 -3.6567,-1.59313 -14.25,-0.45352 -16.8587,1.81365 -15.7065,1.23236 -15.2996,7.71876 0.4299,6.85286 -0.986,10.38519 -5.9658,14.88422 -5.5638,5.02657 -9.4607,4.86079 -13.8401,-0.58877 -3.8628,-4.80675 -5.3578,-4.79838 -15.3843,0.0861 -5.3634,2.61287 -12.6559,8.0632 -12.6559,9.45893 0,0.73937 15.4919,1.31572 26,0.96729 6.4353,-0.21338 12.3337,-1.13905 18.2841,-2.86937 z m -31.5532,-13.93 c 10.8936,-3.96328 14.2691,-5.98293 14.2691,-8.53748 0,-1.83399 -0.1969,-1.83498 -8.4011,-0.0421 -17.0046,3.71594 -16.5989,3.52033 -16.5989,8.00474 0,2.1788 0.3375,3.95511 0.75,3.94735 0.4125,-0.008 4.9039,-1.52539 9.9809,-3.37251 z m -1.2947,-19.55137 c 3.8851,-1.0659 8.9972,-2.43886 11.3602,-3.05104 l 4.2964,-1.11304 -0.2964,-6.19897 -0.2964,-6.19896 -3,0.26918 c -9.4483,0.84777 -19.7428,2.72673 -20.0334,3.65654 -0.8973,2.87136 -0.9598,14.57428 -0.078,14.57428 0.541,0 4.1623,-0.8721 8.0474,-1.93799 z m -20.2961,-24.09419 c -0.1979,-4.1073 -0.5081,-7.62798 -0.6892,-7.82373 -0.1812,-0.19575 -2.3817,0.42788 -4.8902,1.38586 l -4.5607,1.74177 0,7.25659 0,7.2566 5.25,-1.17463 5.25,-1.17463 -0.3599,-7.46783 z m 21.7821,0.40177 c 3.5322,-0.82123 8.0322,-1.35417 10,-1.18431 l 3.5778,0.30884 0.7074,-6.41149 c 0.3891,-3.52631 0.5384,-6.68481 0.332,-7.01889 -0.459,-0.74256 -20.0144,0.49373 -21.4051,1.35322 -0.5469,0.33801 -1.2877,3.19497 -1.6462,6.3488 -0.3586,3.15383 -0.892,6.58981 -1.1854,7.63551 -0.4287,1.52774 -0.167,1.75984 1.3319,1.18138 1.026,-0.39595 4.7554,-1.39182 8.2876,-2.21306 z m -26.0714,-13.46742 c 3.0636,-1.06799 3.1492,-1.262 3.1492,-7.13929 l 0,-6.04146 -5.1356,0.60824 c -2.8246,0.33453 -5.2667,0.73932 -5.4269,0.89953 -0.1603,0.16022 -0.037,3.09919 0.2745,6.53106 0.6204,6.84295 1.1549,7.22791 7.1388,5.14192 z m 32.771,-7.58036 9.1218,-0.54916 0.5783,-5.60289 c 0.3181,-3.08159 0.4275,-5.75371 0.2431,-5.93804 -0.3959,-0.39593 -25.4404,4.31035 -26.0196,4.88952 -0.218,0.21798 0.1219,2.33788 0.7553,4.71089 1.0499,3.93341 1.3746,4.25821 3.6755,3.6767 1.3881,-0.35082 6.6286,-0.88498 11.6456,-1.18702 z m -70.82335,-15.33966 c -15.83522,-1.80724 -21.92371,-5.24948 -22.16669,-12.53238 l -0.13178,-3.94977 30,-0.67519 c 16.5,-0.37135 31.96172,-0.96881 34.35942,-1.32769 4.2302,-0.63314 4.3414,-0.74287 3.75,-3.69981 -0.3352,-1.67602 -0.6094,-3.37986 -0.6094,-3.78631 0,-0.40645 -1.8031,-1.98854 -4.0069,-3.51576 l -4.0069,-2.77677 8.2947,-8.60923 c 4.562,-4.73508 10.0291,-11.42174 12.149,-14.85924 2.1199,-3.4375 4.2037,-6.25 4.6307,-6.25 1.2146,0 4.6522,6.16197 5.3926,9.66632 0.9368,4.43412 -0.8238,10.09629 -4.939,15.88442 -2.5168,3.53992 -3.5142,6.00814 -3.5142,8.69606 0,4.30386 0.3121,4.38745 7.6943,2.06041 5.0668,-1.59716 5.5377,-2.03495 8.3353,-7.75 4.5479,-9.29057 5.5623,-15.98719 3.5097,-23.17071 -0.9251,-3.23758 -2.7749,-7.56435 -4.1107,-9.61506 -1.3357,-2.05071 -2.4286,-4.07571 -2.4286,-4.5 1e-4,-1.96548 17.5315,-14.2634 20.3402,-14.26826 2.8428,-0.005 9.3187,5.09212 11.6036,9.13297 5.0487,8.92816 1.1445,20.17777 -12.7235,36.66203 -2.4515,2.914 -4.2915,5.45192 -4.0888,5.63983 0.2027,0.18791 3.7435,-0.97282 7.8685,-2.57939 4.125,-1.60658 15.6,-5.68576 25.5,-9.06485 14.014,-4.7833 19.3287,-6.15119 24,-6.17712 10.7562,-0.0597 17.5943,5.49135 14.6703,11.90899 -2.3079,5.06515 -13.7186,7.95052 -37.3441,9.44303 -19.0842,1.20562 -25.6765,3.11183 -56.3262,16.28704 -30.6741,13.18568 -32.8987,13.86827 -46.50002,14.26769 -6.325,0.18573 -14.96569,-0.0578 -19.20153,-0.54125 z m 112.14855,-98.49753 c -7.1925,-1.74699 -19.6142,-6.68956 -28.4157,-11.30659 -8.623,-4.5234 -18.2263,-13.36433 -21.9516,-20.20892 -4.9784,-9.14689 -5.5549,-13.31174 -5.5678,-40.21911 -0.01,-20.05991 -0.2668,-24.75 -1.3569,-24.75 -2.9097,0 -4.3925,3.53929 -5.0273,12 -1.6199,21.59056 -9.034,34.19016 -28.09849,47.75103 -10.31346,7.33613 -27.26995,16.169 -37.87167,19.72788 -11.08463,3.72099 -13.12964,1.80599 -3.33679,-3.12465 10.36051,-5.21645 27.35561,-17.2374 33.02011,-23.35574 3.1473,-3.39945 7.01969,-8.75083 8.60532,-11.89195 2.73642,-5.42082 6.62932,-16.97498 5.89632,-17.50039 -0.1884,-0.13503 -2.21328,-0.78222 -4.49978,-1.4382 -5.1686,-1.48284 -10.34274,-7.04747 -10.34274,-11.12332 0,-2.43527 0.50111,-2.99581 3.21012,-3.59081 6.59726,-1.449 11.7899,-4.28997 11.7899,-6.45043 0,-3.13938 -2.52932,-8.53497 -6.06119,-12.92992 -3.00871,-3.74393 -3.15133,-4.30693 -2.7756,-10.95644 0.21784,-3.85534 0.6769,-7.29052 1.02012,-7.63374 1.0841,-1.0841 17.41837,2.65024 21.45227,4.9044 3.4026,1.90142 3.9643,2.75418 4.7004,7.13588 0.4599,2.73702 1.0306,5.98763 1.2684,7.22357 l 0.4323,2.24717 3.4692,-2.24717 c 2.7587,-1.7869 3.4719,-2.90142 3.4817,-5.44141 0.01,-1.90059 0.9679,-4.30512 2.3718,-5.93721 l 2.3594,-2.74298 3.2914,2.08398 3.2914,2.08398 6.8164,-4.36915 c 8.9015,-5.70574 17.7884,-10.42438 19.6328,-10.42438 2.604,0 13.2761,6.24323 15.8006,9.24344 2.9075,3.45539 3.2475,8.81474 0.7197,11.34263 -4.0828,4.08275 -10.3586,5.74941 -24.1553,6.41495 -11.6167,0.56037 -13.5705,0.90008 -14.7941,2.57231 -5.4424,7.43773 -6.4889,28.60145 -2.0403,41.26159 3.5248,10.03112 8.1591,17.38811 14.8981,23.65088 5.6755,5.27445 12.5225,8.54683 17.7486,8.48259 3.5946,-0.0442 16.032,-6.91337 18.4141,-10.1701 1.9714,-2.69517 1.9711,-2.71576 -0.1118,-8.5 -1.1484,-3.18906 -3.7259,-9.7514 -5.7277,-14.58299 -2.0018,-4.83158 -3.8692,-10.45658 -4.1496,-12.5 -0.4456,-3.24703 0.077,-2.64398 4.1445,4.7847 8.6344,15.76836 11.1428,18.26325 25.1092,24.97339 22.4672,10.79436 26.8954,18.37687 18.3057,31.34499 -8.2047,12.38683 -27.3972,18.43338 -44.9655,14.16624 z"
         id="path3485"
         inkscape:connector-curvature="0" />
      <path
         style="fill:#871a1f"
         d="m 924.15374,115.13756 c -23.26884,-3.92662 -42.66286,-17.54955 -52.84417,-37.11932 -2.22735,-4.28125 -4.93555,-11.2476 -6.01821,-15.48077 -1.918,-7.4993 -1.96848,-11.8303 -1.96848,-168.87676 0,-157.67293 0.0434,-161.35219 1.99279,-169.09004 3.27288,-12.99097 8.25232,-21.68287 17.99425,-31.40996 9.72337,-9.70857 16.30235,-13.91091 28.75175,-18.36526 l 8.76121,-3.13474 120.50002,0 120.5,0 7.4647,2.34401 c 25.3424,7.95776 42.8655,25.63509 49.7187,50.15599 1.7213,6.15921 1.8166,15.01974 1.8166,169 0,182.57471 0.643,167.02694 -7.6033,183.8503 -7.2097,14.70883 -21.7982,27.78417 -37.7617,33.84498 -13.901,5.27777 -12.9522,5.24133 -134.135,5.15221 -61.87502,-0.0455 -114.60114,-0.43729 -117.16916,-0.87064 z m 240.75916,-4.96964 c 13.1483,-3.31251 21.6418,-8.21843 32.0128,-18.4909 7.2893,-7.22001 9.9138,-10.65259 13.1736,-17.22943 7.7894,-15.71571 7.3193,-3.34874 7.0045,-184.28688 l -0.2809,-161.5 -2.6794,-7.33492 c -3.9577,-10.83433 -8.4122,-17.7261 -17.0186,-26.33034 -6.1406,-6.13904 -9.58,-8.62033 -17,-12.26436 -17.6565,-8.67122 -7.36,-8.07038 -138.302,-8.07038 l -116.00002,0 -7.95493,2.30316 c -11.86029,3.43387 -20.7327,8.55294 -29.93985,17.27428 -9.22897,8.742 -14.40344,16.74338 -18.38081,28.42256 l -2.72441,8 -0.30099,157.5 c -0.21714,113.61995 0.0152,159.715 0.83401,165.45037 3.84396,26.92579 24.26743,49.47873 51.19649,56.53453 6.94141,1.81875 12.50237,1.90747 122.86051,1.96004 112.2355,0.0535 115.8196,-0.003 123.5,-1.93773 z M 990.57911,65.51605 c -4.33477,-2.13695 -6.84365,-6.47504 -8.92078,-15.42486 -0.94848,-4.08677 -1.8398,-7.5958 -1.9807,-7.79786 -0.1409,-0.20207 -4.16457,0.40816 -8.94148,1.35606 -9.80323,1.94528 -15.06971,1.50481 -20.24413,-1.69316 -4.01708,-2.4827 -7.53723,-9.48074 -6.61577,-13.15213 0.5743,-2.28821 0.83496,-2.37262 4.27909,-1.38575 4.00111,1.14647 26.60284,1.63843 27.64084,0.60165 0.3528,-0.35239 -0.50936,-6.54283 -1.91592,-13.75654 -2.15825,-11.06884 -3.42915,-26.10275 -2.2066,-26.10275 0.19292,0 1.73152,0.48133 3.41909,1.06962 4.16554,1.45211 5.62171,4.9353 9.15405,21.89659 1.63349,7.84357 3.18781,14.47885 3.45403,14.74507 0.71999,0.71999 9.85229,-1.36375 20.87207,-4.76243 l 9.75,-3.00707 0,-7.50227 c 0,-8.81786 -0.5566,-9.3114 -7.5658,-6.70893 -4.7401,1.75996 -4.9224,1.97627 -5.7251,6.79363 -1.0567,6.34192 -1.9621,7.19397 -4.6168,4.34452 -4.93139,-5.29324 -10.50249,-30.52271 -9.93359,-44.98566 0.45202,-11.4916 1.54402,-12.79043 10.69579,-12.7217 8.4615,0.0635 14.8282,-1.62799 35.7414,-9.49586 36.4197,-13.70169 42.3446,-14.88837 47.9664,-9.60702 3.7396,3.51324 3.0601,5.73621 -3.6519,11.94737 -7.9094,7.31918 -8.9074,11.01068 -9.6218,35.58861 l -0.526,18.09447 14.3687,-0.082 c 16.3938,-0.0935 24.0143,1.55335 38.4157,8.30211 12.7703,5.98435 17.6747,12.25204 15.9021,20.32251 -2.2565,10.27371 -35.3089,30.697 -55.1905,34.10258 -5.5775,0.95538 -7.891,0.80342 -17.4205,-1.14423 -13.3614,-2.73079 -27.8278,-7.25183 -37.6886,-11.77845 -7.5744,-3.47699 -9.1942,-3.47245 -12.1042,0.0339 -0.8493,1.02334 -2.9833,1.5546 -6.2447,1.5546 -4.118,0 -5.4058,0.47138 -7.6275,2.79195 -1.4702,1.53558 -3.4397,4.23558 -4.37661,6 -1.90663,3.59061 -3.74534,3.92721 -8.54028,1.56339 z m 28.11099,-30.82709 c 0.477,-2.54494 0.6582,-4.83616 0.4028,-5.0916 -1.0012,-1.00121 -27.26176,8.16268 -27.5406,9.61057 -0.15624,0.81128 1.08812,3.63876 2.76523,6.2833 l 3.0493,4.80825 10.22807,-5.49169 10.228,-5.49168 0.8672,-4.62715 z m 50.6328,11.40441 c 8.2206,-2.33911 22.2624,-8.55922 27.1022,-12.00541 4.6552,-3.31484 8.8978,-9.73077 8.8978,-13.45597 0,-5.17459 -3.6012,-6.1239 -17.4629,-4.6034 -16.0938,1.76535 -15.086,1.22383 -14.7603,7.93129 0.3294,6.78497 -2.3431,12.31802 -7.6899,15.92126 -4.9388,3.32824 -7.4611,2.94104 -11.2072,-1.72043 -1.7679,-2.2 -3.9266,-4.00455 -4.7971,-4.01012 -3.9192,-0.0251 -14.5355,4.76474 -19.8027,8.93448 l -5.7799,4.57564 9,0.6289 c 14.4023,1.0064 28.1522,0.17906 36.5,-2.19624 z m -30.1315,-14.53104 c 11.1382,-4.00063 12.6306,-4.89528 13.5979,-8.15162 0.8085,-2.72179 1.6877,-2.76068 -12.9664,0.5735 l -12,2.7303 -0.3075,4.2231 c -0.1691,2.3227 0.1346,4.2231 0.675,4.2231 0.5404,0 5.4908,-1.61927 11.001,-3.59838 z m 2.1315,-20.41536 11.5,-3.21074 -0.338,-6.44789 c -0.3344,-6.3787 -0.3666,-6.4425 -3,-5.94598 -1.4641,0.27604 -6.6333,1.02938 -11.4871,1.67408 -4.8538,0.64469 -8.9821,1.68339 -9.174,2.30822 -0.1919,0.62483 -0.5493,4.41645 -0.7942,8.42583 -0.3134,5.12875 -0.1135,7.15896 0.674,6.8485 0.6156,-0.2427 6.2943,-1.88611 12.6193,-3.65202 z m -27,-14.97923 c 2.4261,-0.64864 2.4893,-0.88781 2.1401,-8.08772 -0.1979,-4.08062 -0.5073,-7.57869 -0.6875,-7.77348 -0.1802,-0.19479 -2.2682,0.29133 -4.6401,1.08026 l -4.3125,1.43442 -0.2926,7.69949 -0.2926,7.69949 2.7926,-0.69203 c 1.5359,-0.38062 3.9176,-0.99281 5.2926,-1.36043 z m 24.9632,-7.60073 c 3.5548,-0.85188 7.9423,-1.27141 9.75,-0.93228 3.2454,0.60884 3.2869,0.56878 3.2978,-3.17871 0.01,-2.08742 0.2876,-5.4683 0.6256,-7.51307 l 0.6146,-3.71776 -4.8756,0.4508 c -2.6816,0.24795 -7.8651,0.71412 -11.5189,1.03593 l -6.6433,0.58512 -0.6808,5.68184 c -0.3745,3.12501 -0.9388,6.76415 -1.2541,8.08699 -0.5119,2.14788 -0.3168,2.33269 1.8241,1.7276 1.3186,-0.37267 5.3058,-1.37458 8.8606,-2.22646 z m -28.9632,-12.77796 4.5,-1.3413 0.3015,-6.28891 0.3015,-6.28891 -5.1871,0.61434 c -2.8529,0.33788 -5.342,0.76923 -5.5314,0.95854 -0.2902,0.29023 0.7017,13.74713 1.0101,13.70272 0.058,-0.008 2.1304,-0.61876 4.6054,-1.35648 z m 35.1221,-8.2799 8.6221,-0.58085 0.578,-5.60036 c 0.3179,-3.0802 0.4328,-5.74554 0.2554,-5.92297 -0.4653,-0.46523 -24.945,3.97303 -25.7632,4.67095 -0.377,0.32163 -0.1619,2.53331 0.478,4.91483 1.1073,4.12102 1.3094,4.30034 4.1855,3.71464 1.6622,-0.33847 6.902,-0.87678 11.6442,-1.19624 z m -70.82714,-15.47486 c -11.82213,-1.24008 -18.23837,-3.61212 -21.02142,-7.77146 -2.98349,-4.45889 -2.99305,-7.9184 -0.0236,-8.51938 1.2375,-0.25044 15.525,-0.72447 31.75,-1.05338 16.22506,-0.32892 30.77636,-0.86746 32.33636,-1.19677 2.6451,-0.55838 2.7924,-0.84261 2.1855,-4.21567 -0.4407,-2.44891 -1.8402,-4.63293 -4.3337,-6.76315 l -3.6828,-3.14622 9.032,-9.35378 c 4.9677,-5.14457 10.4144,-11.75693 12.1037,-14.69412 l 3.0717,-5.34035 2.1441,2.72575 c 1.1792,1.49916 2.6606,4.45001 3.292,6.55744 1.3935,4.6511 -0.5378,10.63265 -5.557,17.21106 -2.7095,3.55127 -3.1316,4.84103 -2.7818,8.50078 0.2554,2.67212 0.8458,4.15496 1.5511,3.89566 0.6264,-0.23027 3.5429,-1.20918 6.4811,-2.17534 5.1482,-1.69285 5.4639,-2.01043 8.6902,-8.74256 5.7691,-12.03809 5.4169,-22.6934 -1.0659,-32.24633 l -2.5777,-3.79847 2.2181,-2.36111 c 3.1015,-3.30134 16.4186,-12.38618 18.1565,-12.38618 2.306,0 9.6295,5.77627 11.7659,9.28024 2.2502,3.69049 2.6182,11.12567 0.7633,15.42271 -2.0351,4.71443 -7.7596,13.45531 -13.4565,20.54705 -2.9823,3.7125 -5.1404,6.75 -4.7958,6.75 0.3447,0 9.7015,-3.32191 20.7931,-7.38202 11.0916,-4.06011 24.0863,-8.39857 28.8771,-9.64102 7.8117,-2.02591 9.1909,-2.1245 13.3665,-0.95541 5.7116,1.59917 10.423,5.39294 10.423,8.39303 0,1.23024 -1.0187,3.19376 -2.2637,4.36338 -5.0788,4.77133 -13.4398,6.64844 -36.2363,8.13535 -19.2114,1.25306 -25.5087,3.08826 -57.2299,16.67837 -13.6236,5.83665 -28.1046,11.46625 -32.1801,12.51021 -7.92469,2.02996 -17.56827,2.26401 -31.79508,0.77169 z m 111.65204,-98.38896 c -7.1925,-1.74699 -19.6142,-6.68956 -28.4157,-11.30659 -8.623,-4.5234 -18.2263,-13.36433 -21.9516,-20.20892 -4.9784,-9.14689 -5.5549,-13.31174 -5.5678,-40.21911 -0.01,-20.05991 -0.2668,-24.75 -1.3569,-24.75 -2.9097,0 -4.3925,3.53929 -5.0273,12 -1.6199,21.59056 -9.034,34.19016 -28.09849,47.75103 -10.31346,7.33613 -27.26995,16.169 -37.87167,19.72788 -11.08463,3.72099 -13.12964,1.80599 -3.33679,-3.12465 10.36051,-5.21645 27.35561,-17.2374 33.02011,-23.35574 3.1473,-3.39945 7.01969,-8.75083 8.60532,-11.89195 2.73642,-5.42082 6.62932,-16.97498 5.89632,-17.50039 -0.1884,-0.13503 -2.21328,-0.78222 -4.49978,-1.4382 -5.1686,-1.48284 -10.34274,-7.04747 -10.34274,-11.12332 0,-2.43527 0.50111,-2.99581 3.21012,-3.59081 6.59726,-1.449 11.7899,-4.28997 11.7899,-6.45043 0,-3.13938 -2.52932,-8.53497 -6.06119,-12.92992 -3.00871,-3.74393 -3.15133,-4.30693 -2.7756,-10.95644 0.21784,-3.85534 0.6769,-7.29052 1.02012,-7.63374 1.0841,-1.0841 17.41837,2.65024 21.45227,4.9044 3.4026,1.90142 3.9643,2.75418 4.7004,7.13588 0.4599,2.73702 1.0306,5.98763 1.2684,7.22357 l 0.4323,2.24717 3.4692,-2.24717 c 2.7587,-1.7869 3.4719,-2.90142 3.4817,-5.44141 0.01,-1.90059 0.9679,-4.30512 2.3718,-5.93721 l 2.3594,-2.74298 3.2914,2.08398 3.2914,2.08398 6.8164,-4.36915 c 8.9015,-5.70574 17.7884,-10.42438 19.6328,-10.42438 2.604,0 13.2761,6.24323 15.8006,9.24344 2.9075,3.45539 3.2475,8.81474 0.7197,11.34263 -4.0828,4.08275 -10.3586,5.74941 -24.1553,6.41495 -11.6167,0.56037 -13.5705,0.90008 -14.7941,2.57231 -5.4424,7.43773 -6.4889,28.60145 -2.0403,41.26159 3.5248,10.03112 8.1591,17.38811 14.8981,23.65088 5.6755,5.27445 12.5225,8.54683 17.7486,8.48259 3.5946,-0.0442 16.032,-6.91337 18.4141,-10.1701 1.9714,-2.69517 1.9711,-2.71576 -0.1118,-8.5 -1.1484,-3.18906 -3.7259,-9.7514 -5.7277,-14.58299 -2.0018,-4.83158 -3.8692,-10.45658 -4.1496,-12.5 -0.4456,-3.24703 0.077,-2.64398 4.1445,4.7847 8.6344,15.76836 11.1428,18.26325 25.1092,24.97339 22.4672,10.79436 26.8954,18.37687 18.3057,31.34499 -8.2047,12.38683 -27.3972,18.43338 -44.9655,14.16624 z"
         id="path3483"
         inkscape:connector-curvature="0" />
      <path
         style="fill:#010101"
         d="M 922.82288,114.69745 C 895.91646,109.65811 875.54755,92.20901 866.16433,66.16071 l -2.34145,-6.5 -0.28087,-163 c -0.31354,-181.95249 -0.75085,-169.93559 6.73774,-185.14619 8.9374,-18.15336 23.55856,-30.46432 44.54313,-37.50514 l 7,-2.34867 116.98682,-0.27417 c 127.1737,-0.29804 123.6628,-0.43186 137.6361,5.24599 20.4487,8.30907 36.7842,26.90818 42.622,48.52818 1.6395,6.07187 1.7551,17.17035 1.7551,168.5 0,153.70666 -0.093,162.33276 -1.8228,168.5 -5.7829,20.62131 -19.2726,36.87585 -38.1772,46.00186 -16.5458,7.9873 -6.1506,7.40147 -135.5,7.63626 -91.75172,0.16655 -116.93931,-0.0599 -122.50002,-1.10138 z m 242.87672,-4.50522 c 12.0182,-3.07373 22.7658,-9.20519 31.5731,-18.01233 8.4646,-8.46438 12.9293,-15.39386 16.871,-26.18459 l 2.6792,-7.3346 0.2676,-161.7293 c 0.2992,-180.78119 0.7311,-169.19817 -6.889,-184.7707 -5.8376,-11.92995 -17.7771,-23.80751 -29.8786,-29.72363 -16.9106,-8.26718 -6.7771,-7.65289 -132.5,-8.03209 -77.52776,-0.23384 -114.57476,5.6e-4 -120.36532,0.76154 -23.17398,3.04548 -42.87888,16.37749 -52.99477,35.85539 -8.29257,15.96714 -7.63993,0.32251 -7.63993,183.13879 l 0,162.5 2.71455,8 c 7.80605,23.00506 25.43387,39.42936 48.78545,45.45468 7.19992,1.85777 12.14484,1.9374 123.59002,1.99026 112.2946,0.0533 116.3417,-0.009 123.7867,-1.91342 z m -79.1931,-256.52984 c -20.15,-5.66505 -38.171,-15.75009 -46.4031,-25.96845 -8.754,-10.86626 -9.2069,-12.96065 -9.5765,-44.28323 -0.1769,-14.9875 -0.6326,-27.23503 -1.0128,-27.21673 -0.3802,0.0183 -1.6292,0.81757 -2.7756,1.77617 -1.7171,1.43582 -2.1973,3.32404 -2.7253,10.71673 -1.5896,22.25497 -10.5796,36.40573 -32.16112,50.62346 -15.63072,10.29739 -40.46219,21.31738 -42.78983,18.98974 -0.63643,-0.63643 0.54658,-1.75142 3.39165,-3.19663 10.19905,-5.1808 28.26403,-17.49779 33.8365,-23.07026 7.02202,-7.02202 12.24233,-15.87452 14.4576,-24.51682 1.9256,-7.51257 1.9248,-7.35566 0.035,-7.35566 -3.04319,0 -9.57692,-4.14358 -11.4956,-7.29034 -3.53253,-5.79358 -2.84929,-6.97585 5.53549,-9.57862 6.87581,-2.13434 7.49821,-2.5488 7.47801,-4.97958 -0.028,-3.41729 -3.25093,-10.49866 -6.57629,-14.45062 -2.3563,-2.80031 -2.56867,-3.74048 -2.22375,-9.84473 0.20974,-3.71182 0.64712,-7.01453 0.97196,-7.33937 0.84834,-0.84835 18.15898,3.07454 21.74108,4.92689 3.0623,1.58361 5.0733,6.12374 5.1187,11.55637 0.037,4.40951 1.1989,5.10358 4.7647,2.84587 2.5845,-1.63639 3.2256,-2.70727 3.2256,-5.38831 0,-2.04158 0.8891,-4.3797 2.2807,-5.99748 l 2.2806,-2.65144 3.4694,2.04512 3.4693,2.04512 8,-5.0117 c 4.4,-2.75643 10.1978,-6.1468 12.8839,-7.53415 4.7863,-2.47201 4.9707,-2.48932 9.2219,-0.86576 2.3859,0.91117 6.6006,3.691 9.3661,6.17738 4.1285,3.71189 5.0281,5.11731 5.0281,7.85544 0,2.44678 -0.7323,3.91082 -2.75,5.49817 -5.2285,4.11327 -9.3968,5.1887 -22.75,5.86962 -7.15,0.3646 -13.5334,0.99754 -14.1853,1.40652 -2.2653,1.42122 -5.4426,12.13966 -5.9768,20.16218 -1.4052,21.10581 10.3997,44.85794 25.8754,52.06267 7.2926,3.39506 10.958,3.15848 19.6544,-1.26857 9.7712,-4.97414 10.9161,-6.7185 8.896,-13.55376 -0.8448,-2.85831 -3.328,-9.47783 -5.5183,-14.71005 -6.3045,-15.05997 -6.3952,-18.18049 -0.2177,-7.48687 8.6873,15.03843 10.3473,16.6068 25.9618,24.52972 18.4648,9.36922 22.7459,14.23452 20.1498,22.89951 -2.4577,8.20326 -10.8621,16.39301 -20.9636,20.42831 -6.3243,2.52639 -20.0119,3.10658 -26.9921,1.14414 z"
         id="path3481"
         inkscape:connector-curvature="0" />
    </g>
  </g>
</svg>
