<?xml version="1.0" encoding="UTF-8" standalone="no"?>
<!-- Created with Inkscape (http://www.inkscape.org/) -->

<svg
   xmlns:dc="http://purl.org/dc/elements/1.1/"
   xmlns:cc="http://creativecommons.org/ns#"
   xmlns:rdf="http://www.w3.org/1999/02/22-rdf-syntax-ns#"
   xmlns:svg="http://www.w3.org/2000/svg"
   xmlns="http://www.w3.org/2000/svg"
   xmlns:sodipodi="http://sodipodi.sourceforge.net/DTD/sodipodi-0.dtd"
   xmlns:inkscape="http://www.inkscape.org/namespaces/inkscape"
   width="358.49649"
   height="445.80792"
   id="svg2"
   version="1.1"
   inkscape:version="0.48.5 r10040"
   sodipodi:docname="char1.svg">
  <defs
     id="defs4" />
  <sodipodi:namedview
     id="base"
     pagecolor="#ffffff"
     bordercolor="#666666"
     borderopacity="1.0"
     inkscape:pageopacity="0.0"
     inkscape:pageshadow="2"
     inkscape:zoom="0.56054688"
     inkscape:cx="164.10484"
     inkscape:cy="299.95158"
     inkscape:document-units="px"
     inkscape:current-layer="layer1"
     showgrid="false"
     fit-margin-top="0"
     fit-margin-left="0"
     fit-margin-right="0"
     fit-margin-bottom="0"
     inkscape:window-width="958"
     inkscape:window-height="1078"
     inkscape:window-x="1920"
     inkscape:window-y="0"
     inkscape:window-maximized="0" />
  <metadata
     id="metadata7">
    <rdf:RDF>
      <cc:Work
         rdf:about="">
        <dc:format>image/svg+xml</dc:format>
        <dc:type
           rdf:resource="http://purl.org/dc/dcmitype/StillImage" />
        <dc:title></dc:title>
      </cc:Work>
    </rdf:RDF>
  </metadata>
  <g
     inkscape:label="Layer 1"
     inkscape:groupmode="layer"
     id="layer1"
     transform="translate(-440.23381,-21.208942)">
    <g
       id="g3066"
       transform="translate(-145.69849,-75.687527)">
      <path
         style="fill:#e0c5c6"
         d="m 642.41675,541.28057 c -21.04995,-4.59119 -39.51066,-18.79059 -48.95342,-37.65341 -8.16413,-16.30865 -7.64324,-3.0238 -7.32743,-186.87894 l 0.28085,-163.5 2.33208,-6.5 c 4.11771,-11.47696 8.97674,-19.01456 18.06716,-28.02677 9.55509,-9.4729 19.03374,-15.11828 32.12813,-19.135166 l 7.47263,-2.292335 113,-0.319494 c 77.77084,-0.219888 115.5936,0.02128 121.31916,0.773579 30.49266,4.006506 54.50966,24.866306 61.96032,53.815246 1.59277,6.18857 1.72052,18.71361 1.72052,168.68494 0,182.1336 0.65382,166.49702 -7.6728,183.5 -5.85335,11.95256 -18.64815,24.73471 -30.8272,30.79671 -17.50497,8.71295 -8.84758,8.21383 -140.90996,8.12379 -92.09723,-0.0628 -117.8505,-0.35442 -122.59004,-1.38815 z m 246,-4.80479 c 3.3,-0.9611 9.825,-3.6106 14.5,-5.88778 11.9981,-5.84424 23.96106,-17.79563 29.86869,-29.83978 7.62279,-15.54093 7.19227,-4.06926 6.89618,-183.75736 l -0.26487,-160.74264 -2.33033,-7 c -6.95444,-20.89017 -23.15643,-36.94923 -44.66967,-44.27559 l -8,-2.72441 -119.5,0 -119.5,0 -8,2.81593 c -21.25047,7.48 -37.24634,23.43925 -44.28545,44.18407 l -2.71455,8 -0.30099,157.5 c -0.21714,113.61995 0.0152,159.715 0.83401,165.45037 4.17173,29.22175 27.21477,52.40479 57.08775,57.4346 3.03485,0.51099 55.28076,0.83692 119.87923,0.74788 105.74586,-0.14578 114.95873,-0.29145 120.5,-1.90529 z m -97.59202,-43.65167 c -13.46816,-2.88756 -26.14888,-6.77749 -36.33054,-11.14474 l -9.36327,-4.01622 -3.72945,2.53088 c -2.42722,1.64715 -4.51007,2.33495 -5.96506,1.96977 -1.22959,-0.30861 -3.88201,0.12681 -5.89428,0.96759 -2.79091,1.16611 -4.12066,2.60645 -5.60649,6.07276 -1.74741,4.07655 -2.28585,4.54369 -5.23335,4.54033 -4.17232,-0.005 -9.26153,-3.08227 -11.15632,-6.74638 -0.80734,-1.56121 -2.19827,-5.74361 -3.09097,-9.29422 -0.8927,-3.55061 -1.79479,-6.96582 -2.00465,-7.58935 -0.27699,-0.82297 -2.11537,-0.73021 -6.70758,0.3385 -8.49981,1.97807 -18.89885,1.37793 -22.48227,-1.29748 -3.87624,-2.89403 -6.15188,-6.37025 -6.81298,-10.40733 -0.90691,-5.5381 0.19575,-6.33678 7.0096,-5.07718 6.62244,1.22423 25.45963,1.46509 25.45963,0.32556 0,-0.41339 -1.125,-6.28637 -2.5,-13.05105 -1.375,-6.76469 -2.5,-15.42646 -2.5,-19.24838 0,-6.56451 0.126,-6.94895 2.27749,-6.94895 3.10332,0 6.21925,2.35212 7.56446,5.71017 0.61467,1.5344 2.47774,9.27838 4.14014,17.20882 1.66241,7.93045 3.13402,14.52607 3.27024,14.65695 0.37959,0.36469 17.54955,-4.24066 23.74767,-6.36963 l 5.5,-1.88918 0.2978,-6.16194 c 0.42541,-8.80219 -0.12488,-9.38901 -6.5478,-6.98249 -4.65398,1.74375 -5.25,2.29233 -5.25,4.83209 0,1.57575 -0.45131,4.05205 -1.00291,5.50286 -2.46614,6.48643 -7.53375,-0.54196 -11.68019,-16.19952 -2.17731,-8.22185 -2.61514,-12.12657 -2.70715,-24.14317 -0.10762,-14.05666 -0.0623,-14.37351 2.33401,-16.31718 1.97775,-1.60418 3.32312,-1.86122 7.05513,-1.34794 6.61405,0.90966 14.48548,-1.19474 40.83446,-10.91697 33.63234,-12.40964 38.4285,-13.31115 44.67535,-8.39738 4.31232,3.39207 3.38811,6.85262 -3.46779,12.98463 -5.20857,4.65859 -6.15705,6.08555 -7.53086,11.32988 -0.86447,3.3 -1.79253,11.175 -2.06235,17.5 -0.26983,6.32499 -0.67033,14.425 -0.89001,18 l -0.39941,6.5 16.17086,0.031 c 15.05129,0.0289 16.75935,0.22739 24.67086,2.86748 23.75125,7.92587 33.22256,17.67971 27.57846,28.40115 -4.83082,9.17653 -25.89663,23.06159 -44.07846,29.05334 -12.24152,4.03414 -17.25875,4.43834 -27.59202,2.2229 z m -49.57561,-31.51722 c 0.29659,-2.21121 0.4081,-4.15153 0.24781,-4.31183 -0.37449,-0.37448 -25.49024,7.32989 -26.19615,8.0358 -0.63652,0.63651 2.23727,6.51025 4.38247,8.95733 1.4319,1.63341 2.1225,1.42147 11.27597,-3.46047 9.51629,-5.07546 9.76361,-5.29708 10.2899,-9.22083 z m 47.9331,11.5013 c 10.12841,-2.59041 21.5965,-7.45222 28.58269,-12.11741 7.95382,-5.31136 12.28412,-13.41028 8.95184,-16.74257 -1.49842,-1.49842 -10.50438,-1.54082 -21.73228,-0.10232 l -8.56772,1.09768 0.34903,4.93969 c 0.46763,6.61813 -0.29474,9.16406 -4.01192,13.39769 -3.88237,4.42179 -8.33891,6.80913 -11.316,6.06192 -1.24491,-0.31246 -3.46934,-2.14908 -4.94318,-4.08138 -1.73017,-2.26836 -3.51601,-3.51327 -5.03984,-3.51327 -4.0907,0 -13.1207,4.03796 -17.94493,8.02447 l -4.64421,3.83776 2.77553,0.41905 c 1.52653,0.23048 8.89104,0.48648 16.36556,0.56889 10.5543,0.11636 15.28446,-0.28353 21.17543,-1.79019 z m -15.65643,-20.15046 c 2.27922,-1.89159 1.7289,-4.20394 -0.85904,-3.60954 -1.2375,0.28424 -6.6375,1.49496 -12,2.6905 l -9.75,2.1737 0,3.80095 0,3.80095 10.60904,-3.85109 c 5.83497,-2.1181 11.23497,-4.37056 12,-5.00547 z m -9.36254,-15.51121 10.7465,-2.8983 0.004,-5.86523 0.004,-5.86523 -5.75,0.66684 c -3.1625,0.36676 -8.3375,1.15216 -11.5,1.74533 -5.73929,1.07648 -5.75002,1.08524 -5.76101,4.6984 -0.006,1.99094 -0.30217,5.38283 -0.65804,7.53753 -0.51637,3.12646 -0.36269,3.81275 0.761,3.3983 0.77443,-0.28564 6.24397,-1.82358 12.15455,-3.41764 z m -28.59292,-14.54129 c 4.33511,-1.09159 4.51241,-1.27709 3.94282,-4.125 -0.32802,-1.64011 -0.5964,-4.92922 -0.5964,-7.30913 l 0,-4.32712 -4.5,1.66782 -4.5,1.66782 0,6.7843 c 0,3.73136 0.25073,6.7843 0.55718,6.7843 0.30645,0 2.59983,-0.51435 5.0964,-1.14299 z m 23.34642,-7.35701 c 3.025,-0.81194 7.8625,-1.48161 10.75,-1.48814 l 5.25,-0.0119 0.0137,-4.25 c 0.008,-2.3375 0.30246,-5.3293 0.65545,-6.64842 l 0.64179,-2.39842 -9.74874,0.71561 c -5.3618,0.39358 -10.34416,0.94409 -11.07191,1.22335 -0.72775,0.27926 -1.61832,2.83653 -1.97904,5.68281 -0.36073,2.84629 -0.87864,5.96257 -1.15092,6.92507 -0.59726,2.1113 -0.332,2.12129 6.63972,0.25 z m -24.86602,-13.6583 3.86602,-1.15828 0,-5.71887 0,-5.71888 -4.75,0.51022 c -2.6125,0.28062 -4.86335,0.6012 -5.00189,0.71239 -0.45735,0.36707 1.02621,12.53172 1.52833,12.53172 0.27034,0 2.23123,-0.52123 4.35754,-1.15829 z m 28.67892,-7.88468 c 3.3085,-0.65091 7.85407,-1.00813 10.10128,-0.79382 4.08026,0.38912 4.08584,0.38484 4.09947,-3.13677 0.008,-1.93955 0.26704,-4.47028 0.57674,-5.62385 l 0.56307,-2.09742 -12.82673,2.46219 c -7.0547,1.35422 -12.90568,2.52702 -13.00218,2.60621 -0.0965,0.0792 0.33698,2.06386 0.9633,4.41035 0.68289,2.55846 1.6133,4.08425 2.32418,3.81146 0.65198,-0.25018 3.89238,-0.98745 7.20087,-1.63835 z m -70.8129,-15.12271 c -8.79007,-1.24254 -14.4146,-4.08091 -16.40703,-8.27965 -1.91335,-4.03208 -2.04319,-7.14942 -0.34297,-8.23406 0.6875,-0.43858 15.77988,-1.06751 33.53862,-1.39763 17.75874,-0.33012 32.67297,-1.01033 33.14274,-1.51159 1.9319,-2.0614 -0.0921,-6.91386 -4.07707,-9.77443 l -3.98837,-2.86304 7.93255,-8.13696 c 4.36291,-4.47532 10.03988,-11.39945 12.61549,-15.38695 2.57562,-3.98751 4.87975,-7.25 5.1203,-7.25 1.01928,0 5.33588,7.75726 5.93538,10.66632 0.92984,4.51205 -0.97345,10.53045 -4.99733,15.80201 -2.65828,3.48253 -3.47231,5.50977 -3.47231,8.64731 0,3.0963 0.3413,3.96737 1.39591,3.56268 0.76775,-0.29462 3.27333,-1.09815 5.56794,-1.78564 2.29462,-0.68748 5.0231,-2.33192 6.06329,-3.65432 2.32744,-2.95885 5.49522,-11.30351 6.4351,-16.95151 0.84495,-5.07754 -1.46648,-14.03904 -5.03359,-19.51542 -1.33576,-2.0507 -2.42865,-4.12183 -2.42865,-4.60248 0,-1.68438 18.51671,-15.16895 20.82965,-15.16895 2.16317,0 9.7179,6.16163 11.82736,9.64639 5.4741,9.04302 1.69643,20.35072 -12.39553,37.10361 -2.42887,2.88749 -4.20498,5.25 -3.9469,5.25 0.25807,0 6.29274,-2.20319 13.41038,-4.89596 20.47197,-7.74503 35.27536,-12.2863 41.85261,-12.83925 15.22675,-1.2801 23.41455,10.06329 11.86324,16.43536 -4.65339,2.56696 -18.96149,5.29645 -27.8218,5.30743 -18.41159,0.0228 -31.29834,3.55271 -62.55924,17.13589 -29.87078,12.97915 -33.15473,13.88364 -49.86139,13.7331 -7.53411,-0.0679 -16.62338,-0.5369 -20.19838,-1.04226 z m -7.63144,-117.26042 c -18.1327,-4.14004 -22.07784,-14.10363 -8.36856,-21.1351 3.651,-1.87259 5.41415,-1.94658 31.5,-1.32219 17.08743,0.40901 30.47907,-2.74159 57.93221,-13.62951 22.76515,-9.02866 33.09613,-11.59724 49.06779,-12.19965 14.47083,-0.5458 22.88255,0.82966 31.25893,5.11138 14.44813,7.38538 21.24662,20.67723 13.97576,27.32427 -7.25419,6.63179 -15.41464,6.93238 -34.98744,1.28873 -7.56402,-2.18102 -17.23902,-4.25453 -21.5,-4.6078 -10.29177,-0.85327 -25.95242,1.49906 -48.24725,7.24702 -9.625,2.48148 -24.475,6.29986 -33,8.48528 -17.77577,4.55691 -28.45592,5.53252 -37.63144,3.43757 z m 28.63144,-54.32545 c -2.92389,-1.46064 -3.5505,-2.35579 -3.80677,-5.4382 -0.43472,-5.22863 2.21097,-6.62026 15.97718,-8.40394 15.71581,-2.03629 39.23718,-6.94487 49.7654,-10.38533 4.85238,-1.58568 13.81939,-5.38909 19.92669,-8.45202 12.15585,-6.09638 15.75415,-6.70975 20.91243,-3.56476 10.16536,6.19782 3.95458,14.93023 -16.30486,22.92476 -29.68918,11.71557 -75.54218,18.77858 -86.47007,13.31949 z"
         id="path3080"
         inkscape:connector-curvature="0" />
      <path
         style="fill:#bebebe"
         d="m 642.41675,541.28057 c -21.04995,-4.59119 -39.51066,-18.79059 -48.95342,-37.65341 -8.16413,-16.30865 -7.64324,-3.0238 -7.32743,-186.87894 l 0.28085,-163.5 2.33208,-6.5 c 4.11771,-11.47696 8.97674,-19.01456 18.06716,-28.02677 9.55509,-9.4729 19.03374,-15.11828 32.12813,-19.135166 l 7.47263,-2.292335 113,-0.319494 c 77.77084,-0.219888 115.5936,0.02128 121.31916,0.773579 30.49266,4.006506 54.50966,24.866306 61.96032,53.815246 1.59277,6.18857 1.72052,18.71361 1.72052,168.68494 0,182.1336 0.65382,166.49702 -7.6728,183.5 -5.85335,11.95256 -18.64815,24.73471 -30.8272,30.79671 -17.50497,8.71295 -8.84758,8.21383 -140.90996,8.12379 -92.09723,-0.0628 -117.8505,-0.35442 -122.59004,-1.38815 z m 246,-4.80479 c 3.3,-0.9611 9.825,-3.6106 14.5,-5.88778 11.9981,-5.84424 23.96106,-17.79563 29.86869,-29.83978 7.62279,-15.54093 7.19227,-4.06926 6.89618,-183.75736 l -0.26487,-160.74264 -2.33033,-7 c -6.95444,-20.89017 -23.15643,-36.94923 -44.66967,-44.27559 l -8,-2.72441 -119.5,0 -119.5,0 -8,2.81593 c -21.25047,7.48 -37.24634,23.43925 -44.28545,44.18407 l -2.71455,8 -0.30099,157.5 c -0.21714,113.61995 0.0152,159.715 0.83401,165.45037 4.17173,29.22175 27.21477,52.40479 57.08775,57.4346 3.03485,0.51099 55.28076,0.83692 119.87923,0.74788 105.74586,-0.14578 114.95873,-0.29145 120.5,-1.90529 z M 788.906,492.31291 c -12.62699,-2.78954 -29.80406,-8.42485 -37.85385,-12.41877 l -5.86372,-2.90929 -3.28202,2.56857 c -2.3316,1.82475 -4.32563,2.51123 -6.88584,2.37056 -4.76861,-0.262 -9.38345,2.68249 -11.72784,7.48293 -2.29939,4.70831 -5.80374,5.47612 -10.82621,2.37207 -3.90866,-2.41568 -6.81682,-7.9139 -8.63551,-16.3264 -0.68912,-3.18761 -1.55044,-5.97951 -1.91404,-6.20422 -0.3636,-0.22472 -3.09989,0.24048 -6.08065,1.03377 -15.45036,4.11192 -27.43597,-0.61117 -29.35488,-11.56767 -0.93294,-5.32682 0.13734,-6.16062 6.38653,-4.97549 6.49495,1.23173 26.04878,1.3419 26.04878,0.14676 0,-0.47437 -1.125,-6.38625 -2.5,-13.13751 -2.87643,-14.12332 -3.35472,-26 -1.04705,-26 3.05161,0 6.511,2.40424 8.01265,5.56875 0.85909,1.81039 2.65082,8.63787 3.98164,15.17218 3.8243,18.77737 3.03203,17.15765 7.88013,16.11017 2.29494,-0.49585 9.01013,-2.2985 14.92263,-4.0059 l 10.75,-3.10437 0,-6.28863 c 0,-9.4307 -0.15575,-9.61739 -6.28547,-7.53382 -5.09409,1.73153 -5.14631,1.79212 -6.17603,7.16395 -0.83174,4.33901 -1.42488,5.41767 -2.97915,5.41767 -4.48844,0 -11.22164,-21.48154 -12.25203,-39.08876 -1.01234,-17.29894 1.20818,-22.07591 9.71835,-20.90693 6.505,0.89354 16.59049,-1.66292 37.49714,-9.50473 36.91392,-13.84594 41.13801,-14.68019 47.44775,-9.3709 4.42831,3.72618 3.88754,5.94797 -2.99874,12.32038 -7.38371,6.83273 -8.78141,11.02767 -9.51278,28.55094 -0.27546,6.6 -0.68212,14.94049 -0.90369,18.53442 l -0.40284,6.53443 12.9856,-0.4046 c 9.96688,-0.31054 14.65662,-0.003 20.17375,1.32189 15.79453,3.79361 28.48065,10.16648 33.86566,17.01241 3.53612,4.49545 3.22614,11.18512 -0.74875,16.15863 -9.54155,11.9387 -39.68561,27.9413 -55.92877,29.69096 -3.32886,0.35857 -8.51298,-0.23751 -15.51075,-1.78345 z m -58.02685,-21.5942 c 9.58974,-4.92592 9.80494,-5.11405 10.44768,-9.1335 0.36094,-2.2572 0.43709,-4.32316 0.16922,-4.59102 -0.87181,-0.87183 -26.5793,7.78143 -26.5793,8.9467 0,1.35393 4.85073,9.80733 5.62764,9.80733 0.29883,0 4.94947,-2.26329 10.33476,-5.02952 z m 58.89541,2.06581 c 16.33763,-4.17136 30.2233,-11.40466 35.27158,-18.37361 3.59446,-4.96201 3.91843,-10.19535 0.69448,-11.21859 -2.95008,-0.93632 -9.5516,-0.73815 -20.32387,0.61009 l -9,1.12643 0.34277,5.41353 c 0.27954,4.41478 -0.13628,6.23097 -2.25386,9.84434 -2.67014,4.55626 -6.36225,7.76285 -10.37226,9.00829 -1.85692,0.57672 -3.13359,-0.15327 -6.83606,-3.90888 -3.586,-3.63745 -5.01221,-4.47629 -6.71665,-3.95048 -7.4976,2.31299 -13.07543,4.94637 -17.28469,8.16037 -4.68137,3.5745 -4.74683,3.69622 -2.34746,4.36494 1.35752,0.37835 8.91823,0.73276 16.8016,0.78758 11.21619,0.078 16.00601,-0.32738 22.02442,-1.86402 z M 772.082,453.74007 c 2.91665,-1.3522 4.56437,-4.99185 2.25987,-4.99185 -0.7632,0 -6.34607,1.16269 -12.40638,2.58377 l -11.01874,2.5838 0,3.89825 0,3.89826 9.25,-3.36829 c 5.0875,-1.85256 10.44936,-3.92434 11.91525,-4.60394 z m -8.16525,-16.29132 11.5,-3.20053 -0.2999,-5.75 c -0.24155,-4.63106 -0.63075,-5.74863 -2,-5.74293 -2.41408,0.01 -20.28741,2.73737 -20.64371,3.15005 -0.76184,0.88243 -1.57961,14.83691 -0.86694,14.79341 0.4458,-0.0272 5.98555,-1.48971 12.31055,-3.25 z M 736.2763,422.66539 c 3.61888,-1.00485 3.82154,-1.26173 3.25,-4.11942 -0.33525,-1.67627 -0.60955,-4.98919 -0.60955,-7.36205 l 0,-4.31431 -4.5,1.5333 -4.5,1.5333 0,6.906 c 0,7.56991 0.016,7.58457 6.35955,5.82318 z m 31.26378,-8.62332 7.12333,-0.56337 0.55358,-6.10499 c 0.30447,-3.35775 0.3741,-6.28449 0.15472,-6.50386 -0.21938,-0.21938 -5.00633,0.001 -10.63768,0.48975 l -10.23881,0.88862 -0.67113,3.5 c -0.36912,1.925 -0.95153,5.39332 -1.29424,7.7074 l -0.62311,4.20741 4.255,-1.5288 c 2.34026,-0.84084 7.46051,-1.78231 11.37834,-2.09217 z m -33.37333,-12.34643 3.75,-1.04143 0,-5.83016 0,-5.83016 -4.75,0.51022 c -2.6125,0.28062 -4.86335,0.6012 -5.00189,0.71239 -0.52471,0.42113 1.06505,12.53146 1.64435,12.52614 0.33415,-0.003 2.29504,-0.47422 4.35754,-1.047 z m 28.5629,-7.99039 c 3.3085,-0.65091 7.85407,-1.00813 10.10128,-0.79382 3.85174,0.36732 4.08582,0.23774 4.08582,-2.26178 0,-1.45829 0.26796,-3.99123 0.59547,-5.62876 l 0.59546,-2.97733 -12.84546,2.44199 c -7.06501,1.3431 -12.92442,2.5181 -13.02092,2.61112 -0.0965,0.093 0.33698,2.08898 0.9633,4.43547 0.68289,2.55846 1.6133,4.08425 2.32418,3.81146 0.65198,-0.25019 3.89238,-0.98745 7.20087,-1.63835 z m -69.77228,-15.0754 c -8.83735,-1.33159 -14.55968,-4.04423 -17.01021,-8.0636 -2.29635,-3.76648 -2.6239,-7.32755 -0.78041,-8.48444 0.6875,-0.43144 15.99259,-1.06309 34.01132,-1.40366 18.01872,-0.34058 33.01024,-0.86815 33.31448,-1.17239 0.30424,-0.30426 0.24952,-2.17172 -0.12159,-4.14995 -0.48662,-2.59388 -1.74616,-4.38469 -4.51727,-6.42259 l -3.84251,-2.82581 7.98916,-7.9296 c 4.39404,-4.36128 9.86207,-10.8546 12.15118,-14.42959 2.28911,-3.575 4.33602,-6.72501 4.54869,-7 0.85203,-1.10172 5.21702,5.28805 6.26107,9.16539 1.34487,4.99444 -0.4326,10.56968 -5.47647,17.1775 -2.62463,3.43845 -3.13789,4.90182 -2.78361,7.93644 0.2389,2.04637 0.81825,3.72067 1.28744,3.72067 0.4692,0 3.25457,-0.89851 6.18973,-1.99669 4.63733,-1.73505 5.64262,-2.61957 7.6717,-6.75 2.6686,-5.43227 5.03738,-13.54958 5.05481,-17.32182 0.0189,-4.09238 -2.75563,-12.30978 -5.54326,-16.4176 l -2.56474,-3.77934 2.80994,-2.9502 c 1.54546,-1.62261 6.10344,-5.15841 10.12883,-7.85732 7.29618,-4.8919 7.32878,-4.90216 10.5,-3.30292 11.22635,5.66139 14.56151,15.61922 9.02107,26.93428 -1.46302,2.98787 -5.73642,9.48455 -9.49644,14.43706 -3.76002,4.95249 -6.65589,9.00455 -6.43527,9.00455 0.22063,0 8.90051,-3.10025 19.28862,-6.88944 21.98261,-8.01841 32.46059,-11.11056 37.64902,-11.11056 7.12089,0 15.6541,5.17158 15.6541,9.48721 0,1.17624 -1.24388,3.33031 -2.76417,4.78685 -5.16021,4.9438 -11.51983,6.25394 -41.97916,8.64815 -14.52384,1.14162 -23.43437,3.91188 -50.25667,15.62459 -31.80606,13.88903 -31.32559,13.74985 -48.5,14.04785 -8.25,0.14314 -17.90672,-0.17773 -21.45938,-0.71302 z m -8.67206,-117.30774 c -18.1327,-4.14004 -22.07784,-14.10363 -8.36856,-21.1351 3.651,-1.87259 5.41415,-1.94658 31.5,-1.32219 17.08743,0.40901 30.47907,-2.74159 57.93221,-13.62951 22.76515,-9.02866 33.09613,-11.59724 49.06779,-12.19965 14.47083,-0.5458 22.88255,0.82966 31.25893,5.11138 14.44813,7.38538 21.24662,20.67723 13.97576,27.32427 -7.25419,6.63179 -15.41464,6.93238 -34.98744,1.28873 -7.56402,-2.18102 -17.23902,-4.25453 -21.5,-4.6078 -10.29177,-0.85327 -25.95242,1.49906 -48.24725,7.24702 -9.625,2.48148 -24.475,6.29986 -33,8.48528 -17.77577,4.55691 -28.45592,5.53252 -37.63144,3.43757 z m 28.63144,-54.32545 c -2.92389,-1.46064 -3.5505,-2.35579 -3.80677,-5.4382 -0.43472,-5.22863 2.21097,-6.62026 15.97718,-8.40394 15.71581,-2.03629 39.23718,-6.94487 49.7654,-10.38533 4.85238,-1.58568 13.81939,-5.38909 19.92669,-8.45202 12.15585,-6.09638 15.75415,-6.70975 20.91243,-3.56476 10.16536,6.19782 3.95458,14.93023 -16.30486,22.92476 -29.68918,11.71557 -75.54218,18.77858 -86.47007,13.31949 z"
         id="path3078"
         inkscape:connector-curvature="0" />
      <path
         style="fill:#c38c8f"
         d="m 640.91675,540.71358 c -21.27724,-5.5282 -38.79932,-19.59244 -48.08243,-38.59372 -7.29837,-14.93878 -6.8809,-3.89974 -6.90021,-182.46168 -0.0168,-155.40153 0.045,-160.83383 1.91248,-168.13565 5.23667,-20.47516 19.21094,-37.40622 38.57016,-46.73112 16.68039,-8.034569 7.69089,-7.543195 138,-7.543195 131.5249,0 123.33077,-0.480395 140.81229,8.255365 7.5585,3.77709 10.79823,6.20075 18.27002,13.66793 7.37524,7.37068 9.86469,10.67433 13.24489,17.57671 8.32662,17.00297 7.6728,1.36639 7.6728,183.5 0,153.49708 -0.0953,162.34117 -1.81663,168.5 -6.86043,24.54705 -24.94016,42.96733 -50.68337,51.63806 -5.21702,1.75718 -11.62268,1.86338 -124.5,2.06421 -115.09268,0.20478 -119.24626,0.14776 -126.5,-1.73691 z m 241,-3.03037 c 15.48535,-2.50124 27.66184,-8.66398 38.46643,-19.46856 7.98633,-7.98634 12.48277,-15.0335 16.35416,-25.63151 l 2.67941,-7.33492 0.26766,-161.72931 c 0.23255,-140.51808 0.0711,-162.68287 -1.23104,-169 -3.9266,-19.04933 -17.47548,-36.26071 -35.53662,-45.14283 -16.22095,-7.97714 -9.22854,-7.59097 -137.80259,-7.6105 -125.67509,-0.0191 -121.03282,-0.22827 -135.04374,6.08495 -14.85748,6.69467 -25.52875,16.92446 -32.7527,31.39769 -7.87944,15.78649 -7.48138,5.47844 -7.14651,185.06304 0.32675,175.23824 -0.18214,161.51357 6.51489,175.7053 9.20271,19.5015 28.75156,33.95358 50.99404,37.69885 7.39345,1.24493 226.51624,1.21481 234.23661,-0.0322 z M 788.906,492.31291 c -12.62699,-2.78954 -29.80406,-8.42485 -37.85385,-12.41877 l -5.86372,-2.90929 -3.28202,2.56857 c -2.3316,1.82475 -4.32563,2.51123 -6.88584,2.37056 -4.76861,-0.262 -9.38345,2.68249 -11.72784,7.48293 -2.29939,4.70831 -5.80374,5.47612 -10.82621,2.37207 -3.90866,-2.41568 -6.81682,-7.9139 -8.63551,-16.3264 -0.68912,-3.18761 -1.55044,-5.97951 -1.91404,-6.20422 -0.3636,-0.22472 -3.09989,0.24048 -6.08065,1.03377 -15.45036,4.11192 -27.43597,-0.61117 -29.35488,-11.56767 -0.93294,-5.32682 0.13734,-6.16062 6.38653,-4.97549 6.49495,1.23173 26.04878,1.3419 26.04878,0.14676 0,-0.47437 -1.125,-6.38625 -2.5,-13.13751 -2.87643,-14.12332 -3.35472,-26 -1.04705,-26 3.05161,0 6.511,2.40424 8.01265,5.56875 0.85909,1.81039 2.65082,8.63787 3.98164,15.17218 3.8243,18.77737 3.03203,17.15765 7.88013,16.11017 2.29494,-0.49585 9.01013,-2.2985 14.92263,-4.0059 l 10.75,-3.10437 0,-6.28863 c 0,-9.4307 -0.15575,-9.61739 -6.28547,-7.53382 -5.09409,1.73153 -5.14631,1.79212 -6.17603,7.16395 -0.83174,4.33901 -1.42488,5.41767 -2.97915,5.41767 -4.48844,0 -11.22164,-21.48154 -12.25203,-39.08876 -1.01234,-17.29894 1.20818,-22.07591 9.71835,-20.90693 6.505,0.89354 16.59049,-1.66292 37.49714,-9.50473 36.91392,-13.84594 41.13801,-14.68019 47.44775,-9.3709 4.42831,3.72618 3.88754,5.94797 -2.99874,12.32038 -7.38371,6.83273 -8.78141,11.02767 -9.51278,28.55094 -0.27546,6.6 -0.68212,14.94049 -0.90369,18.53442 l -0.40284,6.53443 12.9856,-0.4046 c 9.96688,-0.31054 14.65662,-0.003 20.17375,1.32189 15.79453,3.79361 28.48065,10.16648 33.86566,17.01241 3.53612,4.49545 3.22614,11.18512 -0.74875,16.15863 -9.54155,11.9387 -39.68561,27.9413 -55.92877,29.69096 -3.32886,0.35857 -8.51298,-0.23751 -15.51075,-1.78345 z m -58.02685,-21.5942 c 9.58974,-4.92592 9.80494,-5.11405 10.44768,-9.1335 0.36094,-2.2572 0.43709,-4.32316 0.16922,-4.59102 -0.87181,-0.87183 -26.5793,7.78143 -26.5793,8.9467 0,1.35393 4.85073,9.80733 5.62764,9.80733 0.29883,0 4.94947,-2.26329 10.33476,-5.02952 z m 58.89541,2.06581 c 16.33763,-4.17136 30.2233,-11.40466 35.27158,-18.37361 3.59446,-4.96201 3.91843,-10.19535 0.69448,-11.21859 -2.95008,-0.93632 -9.5516,-0.73815 -20.32387,0.61009 l -9,1.12643 0.34277,5.41353 c 0.27954,4.41478 -0.13628,6.23097 -2.25386,9.84434 -2.67014,4.55626 -6.36225,7.76285 -10.37226,9.00829 -1.85692,0.57672 -3.13359,-0.15327 -6.83606,-3.90888 -3.586,-3.63745 -5.01221,-4.47629 -6.71665,-3.95048 -7.4976,2.31299 -13.07543,4.94637 -17.28469,8.16037 -4.68137,3.5745 -4.74683,3.69622 -2.34746,4.36494 1.35752,0.37835 8.91823,0.73276 16.8016,0.78758 11.21619,0.078 16.00601,-0.32738 22.02442,-1.86402 z M 772.082,453.74007 c 2.91665,-1.3522 4.56437,-4.99185 2.25987,-4.99185 -0.7632,0 -6.34607,1.16269 -12.40638,2.58377 l -11.01874,2.5838 0,3.89825 0,3.89826 9.25,-3.36829 c 5.0875,-1.85256 10.44936,-3.92434 11.91525,-4.60394 z m -8.16525,-16.29132 11.5,-3.20053 -0.2999,-5.75 c -0.24155,-4.63106 -0.63075,-5.74863 -2,-5.74293 -2.41408,0.01 -20.28741,2.73737 -20.64371,3.15005 -0.76184,0.88243 -1.57961,14.83691 -0.86694,14.79341 0.4458,-0.0272 5.98555,-1.48971 12.31055,-3.25 z M 736.2763,422.66539 c 3.61888,-1.00485 3.82154,-1.26173 3.25,-4.11942 -0.33525,-1.67627 -0.60955,-4.98919 -0.60955,-7.36205 l 0,-4.31431 -4.5,1.5333 -4.5,1.5333 0,6.906 c 0,7.56991 0.016,7.58457 6.35955,5.82318 z m 31.26378,-8.62332 7.12333,-0.56337 0.55358,-6.10499 c 0.30447,-3.35775 0.3741,-6.28449 0.15472,-6.50386 -0.21938,-0.21938 -5.00633,0.001 -10.63768,0.48975 l -10.23881,0.88862 -0.67113,3.5 c -0.36912,1.925 -0.95153,5.39332 -1.29424,7.7074 l -0.62311,4.20741 4.255,-1.5288 c 2.34026,-0.84084 7.46051,-1.78231 11.37834,-2.09217 z m -33.37333,-12.34643 3.75,-1.04143 0,-5.83016 0,-5.83016 -4.75,0.51022 c -2.6125,0.28062 -4.86335,0.6012 -5.00189,0.71239 -0.52471,0.42113 1.06505,12.53146 1.64435,12.52614 0.33415,-0.003 2.29504,-0.47422 4.35754,-1.047 z m 28.5629,-7.99039 c 3.3085,-0.65091 7.85407,-1.00813 10.10128,-0.79382 3.85174,0.36732 4.08582,0.23774 4.08582,-2.26178 0,-1.45829 0.26796,-3.99123 0.59547,-5.62876 l 0.59546,-2.97733 -12.84546,2.44199 c -7.06501,1.3431 -12.92442,2.5181 -13.02092,2.61112 -0.0965,0.093 0.33698,2.08898 0.9633,4.43547 0.68289,2.55846 1.6133,4.08425 2.32418,3.81146 0.65198,-0.25019 3.89238,-0.98745 7.20087,-1.63835 z m -69.77228,-15.0754 c -8.83735,-1.33159 -14.55968,-4.04423 -17.01021,-8.0636 -2.29635,-3.76648 -2.6239,-7.32755 -0.78041,-8.48444 0.6875,-0.43144 15.99259,-1.06309 34.01132,-1.40366 18.01872,-0.34058 33.01024,-0.86815 33.31448,-1.17239 0.30424,-0.30426 0.24952,-2.17172 -0.12159,-4.14995 -0.48662,-2.59388 -1.74616,-4.38469 -4.51727,-6.42259 l -3.84251,-2.82581 7.98916,-7.9296 c 4.39404,-4.36128 9.86207,-10.8546 12.15118,-14.42959 2.28911,-3.575 4.33602,-6.72501 4.54869,-7 0.85203,-1.10172 5.21702,5.28805 6.26107,9.16539 1.34487,4.99444 -0.4326,10.56968 -5.47647,17.1775 -2.62463,3.43845 -3.13789,4.90182 -2.78361,7.93644 0.2389,2.04637 0.81825,3.72067 1.28744,3.72067 0.4692,0 3.25457,-0.89851 6.18973,-1.99669 4.63733,-1.73505 5.64262,-2.61957 7.6717,-6.75 2.6686,-5.43227 5.03738,-13.54958 5.05481,-17.32182 0.0189,-4.09238 -2.75563,-12.30978 -5.54326,-16.4176 l -2.56474,-3.77934 2.80994,-2.9502 c 1.54546,-1.62261 6.10344,-5.15841 10.12883,-7.85732 7.29618,-4.8919 7.32878,-4.90216 10.5,-3.30292 11.22635,5.66139 14.56151,15.61922 9.02107,26.93428 -1.46302,2.98787 -5.73642,9.48455 -9.49644,14.43706 -3.76002,4.95249 -6.65589,9.00455 -6.43527,9.00455 0.22063,0 8.90051,-3.10025 19.28862,-6.88944 21.98261,-8.01841 32.46059,-11.11056 37.64902,-11.11056 7.12089,0 15.6541,5.17158 15.6541,9.48721 0,1.17624 -1.24388,3.33031 -2.76417,4.78685 -5.16021,4.9438 -11.51983,6.25394 -41.97916,8.64815 -14.52384,1.14162 -23.43437,3.91188 -50.25667,15.62459 -31.80606,13.88903 -31.32559,13.74985 -48.5,14.04785 -8.25,0.14314 -17.90672,-0.17773 -21.45938,-0.71302 z m -6.77092,-116.93569 c -5.5568,-1.09674 -13.17565,-4.50896 -16.00724,-7.16911 -5.35307,-5.02895 -0.7868,-12.40571 9.537,-15.40692 4.39181,-1.27673 7.08193,-1.43549 12.63988,-0.74592 10.74028,1.33252 26.09663,0.89658 35.56066,-1.00951 8.58849,-1.72975 28.55681,-8.29699 46,-15.12862 15.47014,-6.05889 26.89925,-8.62694 41,-9.21245 13.83035,-0.57429 21.21744,0.69961 30.67757,5.2903 6.14762,2.98324 15.8545,13.02934 16.81505,17.40266 1.0184,4.63676 -2.07265,9.95631 -7.3999,12.73488 -6.37039,3.32265 -13.3663,3.03646 -27.75143,-1.13525 -6.51271,-1.8887 -14.96153,-3.9743 -18.77516,-4.63468 -13.9151,-2.40956 -31.67421,0.36785 -71.44824,11.17407 -31.96408,8.68432 -40.16556,9.94895 -50.84819,7.84054 z m 28.10606,-53.96542 c -4.05436,-1.26207 -5.59718,-3.21244 -5.19802,-6.57116 0.54245,-4.56429 4.28698,-6.35489 16.6844,-7.97831 28.8935,-3.78354 54.59437,-10.83416 71.03164,-19.48638 5.16658,-2.71957 10.49857,-4.94467 11.84887,-4.94467 6.44015,0 12.92593,6.08954 11.24144,10.55467 -1.07142,2.84006 -7.12964,7.97934 -12.77101,10.83384 -10.20533,5.16383 -31.23076,11.59282 -51.21308,15.65953 -11.72316,2.38585 -36.47598,3.53503 -41.62424,1.93247 z"
         id="path3076"
         inkscape:connector-curvature="0" />
      <path
         style="fill:#7b7b7b"
         d="m 640.91675,540.71358 c -21.27724,-5.5282 -38.79932,-19.59244 -48.08243,-38.59372 -7.29837,-14.93878 -6.8809,-3.89974 -6.90021,-182.46168 -0.0168,-155.40153 0.045,-160.83383 1.91248,-168.13565 5.23667,-20.47516 19.21094,-37.40622 38.57016,-46.73112 16.68039,-8.034569 7.69089,-7.543195 138,-7.543195 131.5249,0 123.33077,-0.480395 140.81229,8.255365 7.5585,3.77709 10.79823,6.20075 18.27002,13.66793 7.37524,7.37068 9.86469,10.67433 13.24489,17.57671 8.32662,17.00297 7.6728,1.36639 7.6728,183.5 0,153.49708 -0.0953,162.34117 -1.81663,168.5 -6.86043,24.54705 -24.94016,42.96733 -50.68337,51.63806 -5.21702,1.75718 -11.62268,1.86338 -124.5,2.06421 -115.09268,0.20478 -119.24626,0.14776 -126.5,-1.73691 z m 241,-3.03037 c 15.48535,-2.50124 27.66184,-8.66398 38.46643,-19.46856 7.98633,-7.98634 12.48277,-15.0335 16.35416,-25.63151 l 2.67941,-7.33492 0.26766,-161.72931 c 0.23255,-140.51808 0.0711,-162.68287 -1.23104,-169 -3.9266,-19.04933 -17.47548,-36.26071 -35.53662,-45.14283 -16.22095,-7.97714 -9.22854,-7.59097 -137.80259,-7.6105 -125.67509,-0.0191 -121.03282,-0.22827 -135.04374,6.08495 -14.85748,6.69467 -25.52875,16.92446 -32.7527,31.39769 -7.87944,15.78649 -7.48138,5.47844 -7.14651,185.06304 0.32675,175.23824 -0.18214,161.51357 6.51489,175.7053 9.20271,19.5015 28.75156,33.95358 50.99404,37.69885 7.39345,1.24493 226.51624,1.21481 234.23661,-0.0322 z M 713.21534,492.14722 c -4.35845,-2.18065 -5.83817,-4.76209 -8.33349,-14.53812 -1.17375,-4.59849 -2.2701,-8.49741 -2.43632,-8.66428 -0.16623,-0.16687 -4.01329,0.44856 -8.54902,1.36762 -16.81811,3.40779 -26.97976,-1.72262 -26.97976,-13.62155 0,-3.52965 0.26097,-4.05651 1.73009,-3.49275 3.78972,1.45425 18.14358,2.65189 24.36873,2.03324 l 6.59881,-0.65578 -2.3763,-11.66369 c -2.73368,-13.41786 -3.83564,-25.085 -2.54564,-26.95244 1.24667,-1.80473 5.65969,-0.003 7.72962,3.15651 0.88545,1.35136 3.05956,9.35895 4.83136,17.79463 l 3.22146,15.33761 3.47094,-0.26968 c 3.82538,-0.29719 19.54132,-4.60616 24.77372,-6.7924 l 3.32318,-1.3885 -0.69317,-7.27472 c -0.38125,-4.00109 -0.82005,-7.42267 -0.97512,-7.6035 -0.15507,-0.18084 -2.7912,0.46217 -5.85806,1.42892 -5.1794,1.63265 -5.61663,2.01179 -6.14549,5.3288 -1.05426,6.61243 -1.48832,8.07108 -2.40175,8.07108 -5.31649,0 -12.21857,-24.96783 -12.35898,-44.70782 -0.10171,-14.29914 0.54921,-15.26754 10.20155,-15.17717 8.47985,0.0794 14.86483,-1.61062 35.70094,-9.4495 28.83111,-10.84674 35.94504,-12.96408 41.69956,-12.41114 3.94443,0.37901 5.61355,1.10109 7.432,3.21517 3.18617,3.70413 2.34899,5.866 -4.85242,12.53046 -5.56703,5.15194 -6.03655,5.94298 -7.41943,12.5 -0.81197,3.85 -1.76425,14.46409 -2.11618,23.58687 l -0.63987,16.58687 14.90022,-0.0782 c 16.71894,-0.0878 24.13283,1.44821 38.06841,7.88684 12.40184,5.73001 16.31669,9.93176 16.32149,17.51765 0.004,5.84956 -2.44114,9.75041 -9.69454,15.46801 -15.64891,12.33547 -38.7981,22.53196 -51.15463,22.53196 -9.76927,0 -40.33838,-8.51943 -52.27742,-14.56939 l -4.74232,-2.40312 -2.95473,2.48625 c -2.18314,1.83699 -4.12224,2.48626 -7.42553,2.48626 -5.33202,0 -9.02996,2.5185 -11.53416,7.85543 -1.99667,4.25529 -4.964,5.01707 -9.90775,2.54357 z m 18.77534,-21.649 9.89534,-5.25 0.0154,-4.71862 c 0.0109,-3.34012 -0.34981,-4.59429 -1.23464,-4.29305 -0.6875,0.23407 -6.98687,2.26851 -13.99859,4.52099 l -12.7486,4.09542 1.64688,3.19763 c 2.61897,5.08506 4.5042,7.69762 5.55461,7.69762 0.53586,0 5.42719,-2.3625 10.86963,-5.25 z m 50.58241,4.23568 c 12.98912,-2.10818 31.76022,-9.9005 38.85455,-16.12939 4.28041,-3.75825 7.82195,-10.23224 7.00519,-12.80562 -1.15985,-3.65438 -5.78122,-4.49502 -17.37676,-3.1609 -16.09453,1.85174 -15.0365,1.24901 -14.83682,8.45209 0.1979,7.1386 -2.44897,12.55679 -7.69773,15.75741 -5.02168,3.06215 -7.95106,2.48801 -11.9658,-2.3452 l -3.5269,-4.24592 -6.9625,2.37037 c -4.2755,1.45559 -9.21767,4.15549 -12.80604,6.99592 l -5.84353,4.62556 9,0.56103 c 15.49843,0.96612 19.81627,0.95368 26.15634,-0.0753 z m -20.54605,-16.67093 c 5.6431,-2.02688 11.07683,-4.50188 12.07495,-5.5 2.06014,-2.06014 2.45817,-5.27164 0.56476,-4.55683 -0.6875,0.25955 -5.975,1.48242 -11.75,2.71749 -5.775,1.23507 -10.78292,2.53336 -11.12871,2.88508 -1.15018,1.16993 -1.99921,8.13951 -0.99155,8.13951 0.5337,0 5.58745,-1.65837 11.23055,-3.68525 z m 13.28141,-29.78945 c -0.36122,-3.31392 -0.70963,-6.08942 -0.77423,-6.16777 -0.2239,-0.27155 -20.03566,2.64042 -21.82232,3.20749 -1.52324,0.48345 -1.79515,1.74252 -1.79515,8.31223 l 0,7.74249 12.52424,-3.53457 12.52423,-3.53456 -0.65677,-6.02531 z m -35.9546,-13.33353 c -0.0346,-3.933 -0.29913,-7.38713 -0.58784,-7.67586 -0.62405,-0.62405 -6.8159,1.35724 -8.59926,2.75163 -1.23796,0.96793 -1.83235,12.81677 -0.69976,13.94936 0.30263,0.30264 2.66513,0.005 5.25,-0.66199 l 4.69976,-1.21223 -0.0629,-7.15091 z m 22.5629,0.15448 c 3.575,-0.83407 7.9096,-1.29006 9.63246,-1.01332 2.95429,0.47455 3.16695,0.29455 3.73899,-3.16489 0.3336,-2.01743 0.61149,-5.30027 0.61754,-7.29521 l 0.011,-3.62717 -4.25,0.35639 c -17.83494,1.49558 -17.54246,1.43492 -18.12592,3.75958 -0.30671,1.22206 -0.86842,4.86594 -1.24822,8.09751 -0.64723,5.50686 -0.57087,5.8294 1.21679,5.1396 1.04904,-0.4048 4.83235,-1.41842 8.40735,-2.25249 z m -27.25,-13.28347 4.25,-1.13988 0,-5.96145 c 0,-6.60581 -0.0942,-6.66839 -8.05793,-5.35078 l -3.55794,0.58867 0.73493,5.15032 c 0.40422,2.83268 0.76779,5.96439 0.80794,6.95935 0.0402,0.99496 0.4105,1.60306 0.823,1.35133 0.4125,-0.25173 2.6625,-0.97063 5,-1.59756 z m 33.39849,-7.73928 8.6485,-0.55844 0.6015,-3.00754 c 0.33083,-1.65414 0.60151,-4.35006 0.60151,-5.99093 0,-2.585 -0.30047,-2.91231 -2.25,-2.45095 -1.2375,0.29285 -6.3,1.24953 -11.25,2.12595 -14.80756,2.62175 -13.47248,1.80924 -11.71996,7.13259 1.39099,4.22521 1.72856,4.54946 4.11759,3.95515 1.4313,-0.35606 6.49419,-0.89868 11.25086,-1.20582 z m -70.51543,-15.41955 c -16.63348,-1.75496 -23.05506,-5.43376 -22.4317,-12.85064 l 0.29864,-3.55331 29.5,-0.67794 c 16.225,-0.37286 31.4125,-0.96294 33.75,-1.31128 3.93409,-0.58625 4.25,-0.86036 4.25,-3.68759 0,-2.3159 -1.0247,-3.99092 -4.23887,-6.92896 l -4.23887,-3.87471 8.64434,-8.75975 c 4.75439,-4.81788 10.29394,-11.37577 12.31011,-14.5731 3.18834,-5.0562 3.87202,-5.64228 5.24943,-4.5 2.27584,1.88733 4.27386,7.17628 4.27386,11.31333 0,4.51524 -2.11294,9.59218 -6.07304,14.59222 -2.6995,3.40839 -3.01518,4.42615 -2.43605,7.85397 l 0.66534,3.93813 6.17188,-2.19216 c 6.05,-2.14887 6.23856,-2.32849 9.54936,-9.09591 5.82171,-11.89984 5.33396,-22.36014 -1.51781,-32.55136 l -2.32294,-3.4551 2.14417,-2.28236 c 3.46667,-3.69011 16.47762,-12.30743 18.58248,-12.30743 3.49013,0 10.28691,5.85947 12.43828,10.723 3.76717,8.5163 0.52874,17.58346 -11.88897,33.2874 -3.70294,4.68289 -5.74568,7.97023 -4.68773,7.54386 12.1776,-4.90782 41.02808,-14.95072 47.90172,-16.67467 7.6919,-1.92919 9.37735,-2.05338 13.38658,-0.9864 12.4259,3.3069 14.32798,11.47955 3.75239,16.12284 -5.73212,2.51673 -13.58348,3.75047 -31.16566,4.89727 -19.21139,1.25306 -25.50865,3.08826 -57.22986,16.67838 -13.62358,5.83665 -28.10462,11.46625 -32.1801,12.51021 -7.90222,2.02421 -18.41195,2.28391 -32.45698,0.80206 z M 686.18645,261.69416 c -5.5568,-1.09674 -13.17565,-4.50896 -16.00724,-7.16911 -5.35307,-5.02895 -0.7868,-12.40571 9.537,-15.40692 4.39181,-1.27673 7.08193,-1.43549 12.63988,-0.74592 10.74028,1.33252 26.09663,0.89658 35.56066,-1.00951 8.58849,-1.72975 28.55681,-8.29699 46,-15.12862 15.47014,-6.05889 26.89925,-8.62694 41,-9.21245 13.83035,-0.57429 21.21744,0.69961 30.67757,5.2903 6.14762,2.98324 15.8545,13.02934 16.81505,17.40266 1.0184,4.63676 -2.07265,9.95631 -7.3999,12.73488 -6.37039,3.32265 -13.3663,3.03646 -27.75143,-1.13525 -6.51271,-1.8887 -14.96153,-3.9743 -18.77516,-4.63468 -13.9151,-2.40956 -31.67421,0.36785 -71.44824,11.17407 -31.96408,8.68432 -40.16556,9.94895 -50.84819,7.84054 z m 28.10606,-53.96542 c -4.05436,-1.26207 -5.59718,-3.21244 -5.19802,-6.57116 0.54245,-4.56429 4.28698,-6.35489 16.6844,-7.97831 28.8935,-3.78354 54.59437,-10.83416 71.03164,-19.48638 5.16658,-2.71957 10.49857,-4.94467 11.84887,-4.94467 6.44015,0 12.92593,6.08954 11.24144,10.55467 -1.07142,2.84006 -7.12964,7.97934 -12.77101,10.83384 -10.20533,5.16383 -31.23076,11.59282 -51.21308,15.65953 -11.72316,2.38585 -36.47598,3.53503 -41.62424,1.93247 z"
         id="path3074"
         inkscape:connector-curvature="0" />
      <path
         style="fill:#a55357"
         d="m 645.41675,541.29953 c -27.87626,-5.16246 -49.55015,-24.71536 -57.16227,-51.5684 -1.74961,-6.17206 -1.83773,-14.2989 -1.83773,-169.48291 0,-181.93329 -0.53976,-167.76577 6.97197,-183 7.1294,-14.45887 17.34608,-24.35609 33.02803,-31.99533 16.08128,-7.833752 9.9909,-7.504675 138.89247,-7.504675 97.23903,0 115.53631,0.222879 121.51318,1.480153 25.4376,5.350962 45.12838,22.573092 53.77072,47.029442 l 2.82363,7.99041 0.26755,162.7298 c 0.29841,181.49261 0.70107,170.36926 -6.7067,185.2702 -7.56713,15.22151 -17.59342,25.224 -32.56085,32.48358 -16.51097,8.00823 -6.05912,7.41995 -136,7.6546 -91.46917,0.16519 -117.48031,-0.0647 -123,-1.08687 z m 242.87676,-4.5198 c 23.9628,-6.12865 43.56614,-25.24261 50.28689,-49.03151 1.74728,-6.18473 1.83635,-14.30892 1.83635,-167.5 0,-180.30432 0.59254,-165.4732 -7.25143,-181.5 -5.41404,-11.06198 -18.67121,-24.09485 -30.24857,-29.7368 -16.93178,-8.2513 -6.86031,-7.63947 -132,-8.01885 -77.17022,-0.23395 -114.0756,4.8e-4 -119.8653,0.7614 -27.48636,3.61243 -50.42109,22.25891 -58.41678,47.49425 l -2.21792,7 0,164 0,164 2.31727,7 c 7.466,22.5532 25.56216,39.23981 49.2947,45.45504 7.09353,1.8577 11.99566,1.93703 122.97807,1.9899 111.79723,0.0533 115.84258,-0.01 123.28672,-1.91342 z M 713.21534,492.14722 c -4.35845,-2.18065 -5.83817,-4.76209 -8.33349,-14.53812 -1.17375,-4.59849 -2.2701,-8.49741 -2.43632,-8.66428 -0.16623,-0.16687 -4.01329,0.44856 -8.54902,1.36762 -16.81811,3.40779 -26.97976,-1.72262 -26.97976,-13.62155 0,-3.52965 0.26097,-4.05651 1.73009,-3.49275 3.78972,1.45425 18.14358,2.65189 24.36873,2.03324 l 6.59881,-0.65578 -2.3763,-11.66369 c -2.73368,-13.41786 -3.83564,-25.085 -2.54564,-26.95244 1.24667,-1.80473 5.65969,-0.003 7.72962,3.15651 0.88545,1.35136 3.05956,9.35895 4.83136,17.79463 l 3.22146,15.33761 3.47094,-0.26968 c 3.82538,-0.29719 19.54132,-4.60616 24.77372,-6.7924 l 3.32318,-1.3885 -0.69317,-7.27472 c -0.38125,-4.00109 -0.82005,-7.42267 -0.97512,-7.6035 -0.15507,-0.18084 -2.7912,0.46217 -5.85806,1.42892 -5.1794,1.63265 -5.61663,2.01179 -6.14549,5.3288 -1.05426,6.61243 -1.48832,8.07108 -2.40175,8.07108 -5.31649,0 -12.21857,-24.96783 -12.35898,-44.70782 -0.10171,-14.29914 0.54921,-15.26754 10.20155,-15.17717 8.47985,0.0794 14.86483,-1.61062 35.70094,-9.4495 28.83111,-10.84674 35.94504,-12.96408 41.69956,-12.41114 3.94443,0.37901 5.61355,1.10109 7.432,3.21517 3.18617,3.70413 2.34899,5.866 -4.85242,12.53046 -5.56703,5.15194 -6.03655,5.94298 -7.41943,12.5 -0.81197,3.85 -1.76425,14.46409 -2.11618,23.58687 l -0.63987,16.58687 14.90022,-0.0782 c 16.71894,-0.0878 24.13283,1.44821 38.06841,7.88684 12.40184,5.73001 16.31669,9.93176 16.32149,17.51765 0.004,5.84956 -2.44114,9.75041 -9.69454,15.46801 -15.64891,12.33547 -38.7981,22.53196 -51.15463,22.53196 -9.76927,0 -40.33838,-8.51943 -52.27742,-14.56939 l -4.74232,-2.40312 -2.95473,2.48625 c -2.18314,1.83699 -4.12224,2.48626 -7.42553,2.48626 -5.33202,0 -9.02996,2.5185 -11.53416,7.85543 -1.99667,4.25529 -4.964,5.01707 -9.90775,2.54357 z m 18.77534,-21.649 9.89534,-5.25 0.0154,-4.71862 c 0.0109,-3.34012 -0.34981,-4.59429 -1.23464,-4.29305 -0.6875,0.23407 -6.98687,2.26851 -13.99859,4.52099 l -12.7486,4.09542 1.64688,3.19763 c 2.61897,5.08506 4.5042,7.69762 5.55461,7.69762 0.53586,0 5.42719,-2.3625 10.86963,-5.25 z m 50.58241,4.23568 c 12.98912,-2.10818 31.76022,-9.9005 38.85455,-16.12939 4.28041,-3.75825 7.82195,-10.23224 7.00519,-12.80562 -1.15985,-3.65438 -5.78122,-4.49502 -17.37676,-3.1609 -16.09453,1.85174 -15.0365,1.24901 -14.83682,8.45209 0.1979,7.1386 -2.44897,12.55679 -7.69773,15.75741 -5.02168,3.06215 -7.95106,2.48801 -11.9658,-2.3452 l -3.5269,-4.24592 -6.9625,2.37037 c -4.2755,1.45559 -9.21767,4.15549 -12.80604,6.99592 l -5.84353,4.62556 9,0.56103 c 15.49843,0.96612 19.81627,0.95368 26.15634,-0.0753 z m -20.54605,-16.67093 c 5.6431,-2.02688 11.07683,-4.50188 12.07495,-5.5 2.06014,-2.06014 2.45817,-5.27164 0.56476,-4.55683 -0.6875,0.25955 -5.975,1.48242 -11.75,2.71749 -5.775,1.23507 -10.78292,2.53336 -11.12871,2.88508 -1.15018,1.16993 -1.99921,8.13951 -0.99155,8.13951 0.5337,0 5.58745,-1.65837 11.23055,-3.68525 z m 13.28141,-29.78945 c -0.36122,-3.31392 -0.70963,-6.08942 -0.77423,-6.16777 -0.2239,-0.27155 -20.03566,2.64042 -21.82232,3.20749 -1.52324,0.48345 -1.79515,1.74252 -1.79515,8.31223 l 0,7.74249 12.52424,-3.53457 12.52423,-3.53456 -0.65677,-6.02531 z m -35.9546,-13.33353 c -0.0346,-3.933 -0.29913,-7.38713 -0.58784,-7.67586 -0.62405,-0.62405 -6.8159,1.35724 -8.59926,2.75163 -1.23796,0.96793 -1.83235,12.81677 -0.69976,13.94936 0.30263,0.30264 2.66513,0.005 5.25,-0.66199 l 4.69976,-1.21223 -0.0629,-7.15091 z m 22.5629,0.15448 c 3.575,-0.83407 7.9096,-1.29006 9.63246,-1.01332 2.95429,0.47455 3.16695,0.29455 3.73899,-3.16489 0.3336,-2.01743 0.61149,-5.30027 0.61754,-7.29521 l 0.011,-3.62717 -4.25,0.35639 c -17.83494,1.49558 -17.54246,1.43492 -18.12592,3.75958 -0.30671,1.22206 -0.86842,4.86594 -1.24822,8.09751 -0.64723,5.50686 -0.57087,5.8294 1.21679,5.1396 1.04904,-0.4048 4.83235,-1.41842 8.40735,-2.25249 z m -27.25,-13.28347 4.25,-1.13988 0,-5.96145 c 0,-6.60581 -0.0942,-6.66839 -8.05793,-5.35078 l -3.55794,0.58867 0.73493,5.15032 c 0.40422,2.83268 0.76779,5.96439 0.80794,6.95935 0.0402,0.99496 0.4105,1.60306 0.823,1.35133 0.4125,-0.25173 2.6625,-0.97063 5,-1.59756 z m 33.39849,-7.73928 8.6485,-0.55844 0.6015,-3.00754 c 0.33083,-1.65414 0.60151,-4.35006 0.60151,-5.99093 0,-2.585 -0.30047,-2.91231 -2.25,-2.45095 -1.2375,0.29285 -6.3,1.24953 -11.25,2.12595 -14.80756,2.62175 -13.47248,1.80924 -11.71996,7.13259 1.39099,4.22521 1.72856,4.54946 4.11759,3.95515 1.4313,-0.35606 6.49419,-0.89868 11.25086,-1.20582 z m -70.51543,-15.41955 c -16.63348,-1.75496 -23.05506,-5.43376 -22.4317,-12.85064 l 0.29864,-3.55331 29.5,-0.67794 c 16.225,-0.37286 31.4125,-0.96294 33.75,-1.31128 3.93409,-0.58625 4.25,-0.86036 4.25,-3.68759 0,-2.3159 -1.0247,-3.99092 -4.23887,-6.92896 l -4.23887,-3.87471 8.64434,-8.75975 c 4.75439,-4.81788 10.29394,-11.37577 12.31011,-14.5731 3.18834,-5.0562 3.87202,-5.64228 5.24943,-4.5 2.27584,1.88733 4.27386,7.17628 4.27386,11.31333 0,4.51524 -2.11294,9.59218 -6.07304,14.59222 -2.6995,3.40839 -3.01518,4.42615 -2.43605,7.85397 l 0.66534,3.93813 6.17188,-2.19216 c 6.05,-2.14887 6.23856,-2.32849 9.54936,-9.09591 5.82171,-11.89984 5.33396,-22.36014 -1.51781,-32.55136 l -2.32294,-3.4551 2.14417,-2.28236 c 3.46667,-3.69011 16.47762,-12.30743 18.58248,-12.30743 3.49013,0 10.28691,5.85947 12.43828,10.723 3.76717,8.5163 0.52874,17.58346 -11.88897,33.2874 -3.70294,4.68289 -5.74568,7.97023 -4.68773,7.54386 12.1776,-4.90782 41.02808,-14.95072 47.90172,-16.67467 7.6919,-1.92919 9.37735,-2.05338 13.38658,-0.9864 12.4259,3.3069 14.32798,11.47955 3.75239,16.12284 -5.73212,2.51673 -13.58348,3.75047 -31.16566,4.89727 -19.21139,1.25306 -25.50865,3.08826 -57.22986,16.67838 -13.62358,5.83665 -28.10462,11.46625 -32.1801,12.51021 -7.90222,2.02421 -18.41195,2.28391 -32.45698,0.80206 z M 679.45272,259.39105 c -14.02789,-4.9133 -15.59311,-13.36064 -3.44401,-18.58704 4.93113,-2.12133 5.98797,-2.19394 22.29229,-1.5315 13.68469,0.55602 18.97787,0.37137 26.4049,-0.92111 10.08361,-1.7548 26.76247,-6.85098 38.38643,-11.72886 22.64421,-9.50245 38.33999,-13.27427 55.32442,-13.29487 16.99988,-0.0206 26.96548,3.19959 36.17619,11.68971 5.24921,4.83855 7.32381,8.44479 7.32381,12.73084 0,7.95454 -6.66224,12.55815 -17.97496,12.42072 -4.50905,-0.0548 -10.38707,-1.25157 -19.02504,-3.87362 -10.20024,-3.09629 -14.54511,-3.88583 -23.61585,-4.29145 -16.17793,-0.72341 -25.81522,1.11957 -74.88415,14.32043 -14.15704,3.80862 -18.92318,4.65142 -28.5,5.03969 -10.32702,0.41866 -12.21032,0.21742 -18.46403,-1.97294 z m 37.46403,-51.50625 c -7.47285,-1.6361 -9.53965,-4.39122 -6.9392,-9.25019 1.44638,-2.70259 4.93118,-3.8628 14.9392,-4.97381 11.53935,-1.28099 37.71046,-6.56466 47.5,-9.58974 4.4,-1.35965 14.10855,-5.40211 21.57456,-8.98325 12.94351,-6.20847 13.75905,-6.46149 17.54298,-5.44258 9.03793,2.43366 10.97075,8.53189 4.54433,14.33778 -8.64046,7.80614 -35.90265,17.12092 -65.16833,22.26634 -9.92853,1.7456 -29.2456,2.67496 -33.99354,1.63545 z"
         id="path3072"
         inkscape:connector-curvature="0" />
      <path
         style="fill:#871a1f"
         d="m 645.41675,541.29953 c -27.87626,-5.16246 -49.55015,-24.71536 -57.16227,-51.5684 -1.74961,-6.17206 -1.83773,-14.2989 -1.83773,-169.48291 0,-181.93329 -0.53976,-167.76577 6.97197,-183 7.1294,-14.45887 17.34608,-24.35609 33.02803,-31.99533 16.08128,-7.833752 9.9909,-7.504675 138.89247,-7.504675 97.23903,0 115.53631,0.222879 121.51318,1.480153 25.4376,5.350962 45.12838,22.573092 53.77072,47.029442 l 2.82363,7.99041 0.26755,162.7298 c 0.29841,181.49261 0.70107,170.36926 -6.7067,185.2702 -7.56713,15.22151 -17.59342,25.224 -32.56085,32.48358 -16.51097,8.00823 -6.05912,7.41995 -136,7.6546 -91.46917,0.16519 -117.48031,-0.0647 -123,-1.08687 z m 242.87676,-4.5198 c 23.9628,-6.12865 43.56614,-25.24261 50.28689,-49.03151 1.74728,-6.18473 1.83635,-14.30892 1.83635,-167.5 0,-180.30432 0.59254,-165.4732 -7.25143,-181.5 -5.41404,-11.06198 -18.67121,-24.09485 -30.24857,-29.7368 -16.93178,-8.2513 -6.86031,-7.63947 -132,-8.01885 -77.17022,-0.23395 -114.0756,4.8e-4 -119.8653,0.7614 -27.48636,3.61243 -50.42109,22.25891 -58.41678,47.49425 l -2.21792,7 0,164 0,164 2.31727,7 c 7.466,22.5532 25.56216,39.23981 49.2947,45.45504 7.09353,1.8577 11.99566,1.93703 122.97807,1.9899 111.79723,0.0533 115.84258,-0.01 123.28672,-1.91342 z M 713.98783,491.99666 c -4.88621,-2.49153 -6.75396,-5.58161 -9.25671,-15.31466 l -2.20271,-8.56621 -7.55583,1.8084 c -9.50497,2.27492 -13.5146,2.26065 -18.55583,-0.066 -6.05745,-2.7957 -8.70904,-6.23008 -9.26325,-11.99791 l -0.47595,-4.95321 4.3696,1.06935 c 4.39863,1.07645 27.28536,1.70316 28.18545,0.7718 0.26577,-0.275 -0.57695,-5.675 -1.87271,-12 -2.92743,-14.28962 -3.87438,-22.14567 -3.06034,-25.38905 0.57933,-2.30825 0.86544,-2.42038 3.67591,-1.44064 1.67622,0.58434 3.68066,2.02848 4.4543,3.2092 0.77364,1.18073 2.80503,8.89086 4.5142,17.13363 1.70917,8.24277 3.49804,15.38514 3.97525,15.87193 1.01347,1.03378 6.30282,-0.13315 20.81518,-4.59222 l 10.31764,-3.17021 -0.68925,-7.56131 c -0.37909,-4.15873 -0.8731,-7.76239 -1.0978,-8.00815 -0.22471,-0.24576 -2.86285,0.38741 -5.86254,1.40703 -5.01827,1.70576 -5.50028,2.14091 -6.0335,5.44683 -0.31873,1.97613 -1.04156,4.71596 -1.60628,6.0885 l -1.02677,2.49552 -2.37375,-2.75965 c -7.11201,-8.2682 -12.98127,-47.68602 -8.18934,-54.99944 1.57069,-2.39717 2.25502,-2.59613 8.97217,-2.60845 9.29818,-0.017 13.83475,-1.27481 41.51111,-11.50898 31.31618,-11.58008 34.22253,-12.23698 40.28069,-9.10419 6.59948,3.41273 5.94156,7.07864 -2.54331,14.17111 -3.48922,2.91663 -4.90373,4.99534 -6.00005,8.81743 -2.00335,6.98429 -3.45877,21.08281 -3.46846,33.59863 l -0.008,10.59752 15.25,-0.0721 c 15.1087,-0.0714 15.35139,-0.0373 26.19213,3.68901 19.89752,6.8394 27.55767,12.9479 27.55767,21.97573 0,4.45105 -0.4096,5.26511 -5.19508,10.32506 -12.14812,12.84484 -41.72049,27.40497 -55.60654,27.37818 -9.97013,-0.0192 -37.40579,-7.65848 -50.58791,-14.08583 l -6.50494,-3.17169 -3.12949,2.63329 c -2.23114,1.87739 -4.26996,2.6333 -7.10243,2.6333 -5.56701,0 -9.58488,2.3732 -11.40897,6.73885 -2.37683,5.68856 -3.96019,6.28013 -9.39356,3.50959 z m 27.92892,-31.26846 0,-4.87218 -5.25,1.54685 c -2.8875,0.85075 -9.075,2.76979 -13.75,4.2645 -9.59971,3.06925 -9.78804,3.45828 -5.20669,10.7549 l 2.62077,4.17406 10.79296,-5.49797 10.79296,-5.49797 0,-4.87219 z m 51.5,11.52296 c 17.91133,-5.19126 29.95942,-12.62929 33.89673,-20.92656 2.17325,-4.57978 1.80299,-6.60695 -1.55054,-8.48923 -2.29697,-1.28927 -4.24339,-1.3094 -14.99292,-0.15512 -6.7943,0.72957 -12.96598,1.56072 -13.71485,1.84703 -0.95917,0.36671 -1.20754,1.66891 -0.8404,4.40621 0.78883,5.88112 -1.04966,10.82952 -5.78156,15.56142 -5.73191,5.73192 -9.12693,5.79553 -13.51646,0.25331 -3.77539,-4.76682 -5.27097,-4.89889 -13.79381,-1.21812 -5.91477,2.55441 -15.08461,8.85834 -15.16833,10.42768 -0.0505,0.94742 14.06348,1.59303 26.46214,1.21042 7.0644,-0.21798 12.64204,-1.07432 19,-2.91705 z M 761.64771,458.3616 c 11.01361,-4.00698 14.26904,-5.9817 14.26904,-8.65549 0,-1.55065 -0.50201,-1.885 -2.25,-1.49852 -15.75509,3.48342 -21.3522,4.8651 -21.87871,5.40086 -0.34579,0.35188 -0.92868,2.32727 -1.29531,4.38977 -0.82972,4.66762 -0.68839,4.67223 11.15498,0.36338 z m 13.99339,-24.0044 c 0.21931,-0.21931 0.0948,-3.085 -0.27662,-6.3682 l -0.67536,-5.96945 -4.63619,0.49792 c -2.5499,0.27385 -7.78618,1.01289 -11.63618,1.6423 l -7,1.1444 -0.2879,8.06457 -0.2879,8.06458 12.2007,-3.33868 c 6.71039,-1.83628 12.38014,-3.51812 12.59945,-3.73744 z m -39.37164,-11.18622 3.8527,-0.68388 -0.36874,-7.30214 c -0.20281,-4.01618 -0.68899,-7.62239 -1.08041,-8.01381 -0.39142,-0.39142 -2.7467,0.0655 -5.23397,1.01541 l -4.52229,1.72707 0,7.48469 c 0,6.65742 0.19342,7.42786 1.75,6.97061 0.9625,-0.28274 3.48372,-0.82182 5.60271,-1.19795 z m 25.64729,-8.07651 c 3.575,-0.83407 7.9135,-1.28943 9.64111,-1.01191 2.85367,0.45841 3.19682,0.22599 3.75,-2.53988 0.33489,-1.67446 0.60889,-4.93773 0.60889,-7.25173 l 0,-4.20729 -5.75,0.36307 c -3.1625,0.19968 -8.07053,0.60133 -10.90673,0.89256 -5.77675,0.59319 -5.756,0.56082 -6.96741,10.86807 -0.64723,5.50686 -0.57087,5.8294 1.21679,5.1396 1.04904,-0.4048 4.83235,-1.41842 8.40735,-2.25249 z m -23.25,-14.33543 c 0.1375,-0.006 0.25,-2.71082 0.25,-6.01082 0,-5.94203 -0.0278,-6 -2.875,-6 -6.14497,0 -8.83034,1.05507 -8.51029,3.34368 0.16585,1.18597 0.56868,4.26529 0.89518,6.84291 l 0.59364,4.68659 4.69823,-1.42577 c 2.58403,-0.78417 4.81074,-1.43063 4.94824,-1.43659 z m 29.39849,-6.68731 8.6485,-0.55845 0.6015,-3.00754 c 0.83142,-4.15706 0.75337,-8.75814 -0.14849,-8.7545 -0.82098,0.003 -20.4156,3.68596 -23.9381,4.49898 -2.1473,0.49561 -2.15894,0.59062 -0.62446,5.09409 1.43643,4.21568 1.77719,4.53604 4.18811,3.93745 1.44345,-0.35838 6.51627,-0.90289 11.27294,-1.21003 z m -70.35002,-15.34065 c -11.40086,-1.30221 -15.78315,-2.76754 -19.55397,-6.53836 -2.70159,-2.7016 -3.31317,-4.0326 -3.0604,-6.6604 l 0.3159,-3.2841 30,-0.67519 c 34.52412,-0.77702 38.82059,-1.18789 38.09325,-3.64295 -0.27405,-0.92502 -0.76682,-2.81336 -1.09505,-4.19629 -0.32822,-1.38294 -2.14714,-3.57677 -4.04203,-4.87517 l -3.44526,-2.36073 8.38081,-8.80678 c 4.60944,-4.84374 10.0424,-11.54208 12.07325,-14.88522 2.03084,-3.34313 4.11345,-5.81822 4.62803,-5.5002 1.90794,1.17918 4.907,8.47821 4.907,11.94253 0,3.88865 -2.89035,10.34587 -6.63666,14.82673 -2.36567,2.82951 -2.83597,5.31024 -1.76402,9.30484 l 0.572,2.13156 6.35075,-2.06478 6.35075,-2.06478 3.16242,-6.86096 c 5.45877,-11.84295 5.09518,-22.44488 -1.10502,-32.22159 l -2.80069,-4.41623 4.18523,-3.39899 c 6.20043,-5.03561 14.96758,-10.7358 16.51212,-10.7358 2.10799,0 8.71779,5.12162 11.10387,8.60388 5.82833,8.50588 2.60727,18.4422 -11.77112,36.31155 -2.83916,3.52848 -5.01203,6.5655 -4.82861,6.74892 0.18342,0.18342 6.90256,-2.10834 14.93142,-5.09278 36.04083,-13.39691 44.21471,-15.06536 52.53655,-10.72377 6.86624,3.58218 7.44217,8.64353 1.44926,12.73631 -4.39372,3.00063 -16.44495,5.23334 -34.42206,6.37732 -19.08476,1.21447 -25.69278,3.12606 -56.32619,16.29428 -30.34836,13.04566 -32.95951,13.8553 -46,14.26295 -6.05,0.18912 -14.46569,-0.052 -18.70153,-0.5358 z m -18.2625,-119.34003 c -14.02789,-4.9133 -15.59311,-13.36064 -3.44401,-18.58704 4.93113,-2.12133 5.98797,-2.19394 22.29229,-1.5315 13.68469,0.55602 18.97787,0.37137 26.4049,-0.92111 10.08361,-1.7548 26.76247,-6.85098 38.38643,-11.72886 22.64421,-9.50245 38.33999,-13.27427 55.32442,-13.29487 16.99988,-0.0206 26.96548,3.19959 36.17619,11.68971 5.24921,4.83855 7.32381,8.44479 7.32381,12.73084 0,7.95454 -6.66224,12.55815 -17.97496,12.42072 -4.50905,-0.0548 -10.38707,-1.25157 -19.02504,-3.87362 -10.20024,-3.09629 -14.54511,-3.88583 -23.61585,-4.29145 -16.17793,-0.72341 -25.81522,1.11957 -74.88415,14.32043 -14.15704,3.80862 -18.92318,4.65142 -28.5,5.03969 -10.32702,0.41866 -12.21032,0.21742 -18.46403,-1.97294 z m 37.46403,-51.50625 c -7.47285,-1.6361 -9.53965,-4.39122 -6.9392,-9.25019 1.44638,-2.70259 4.93118,-3.8628 14.9392,-4.97381 11.53935,-1.28099 37.71046,-6.56466 47.5,-9.58974 4.4,-1.35965 14.10855,-5.40211 21.57456,-8.98325 12.94351,-6.20847 13.75905,-6.46149 17.54298,-5.44258 9.03793,2.43366 10.97075,8.53189 4.54433,14.33778 -8.64046,7.80614 -35.90265,17.12092 -65.16833,22.26634 -9.92853,1.7456 -29.2456,2.67496 -33.99354,1.63545 z"
         id="path3070"
         inkscape:connector-curvature="0" />
      <path
         style="fill:#000000"
         d="m 647.74761,541.72506 c -29.0726,-4.90599 -52.09825,-25.38296 -59.57066,-52.97684 -1.64627,-6.0793 -1.7602,-16.98526 -1.7602,-168.5 0,-132.39819 0.24603,-163.00501 1.34643,-167.5 0.74054,-3.02501 3.38781,-9.77501 5.88282,-15 3.8456,-8.05339 5.84857,-10.80813 13.15357,-18.09053 9.4653,-9.43603 16.94698,-14.13291 29.61718,-18.59322 l 8,-2.816255 120,0 120,0 7.5,2.341865 c 20.95344,6.54268 36.96237,20.1308 45.54533,38.65814 6.90699,14.90956 6.54723,4.2936 6.2356,184 l -0.28093,162 -2.82357,8 c -3.9423,11.16971 -7.93348,17.71183 -15.96157,26.16331 -7.7757,8.1858 -15.88182,13.69545 -26.19265,17.80285 -13.85641,5.51981 -12.6403,5.47098 -134.02221,5.38132 -61.6,-0.0455 -114.10112,-0.43729 -116.66914,-0.87064 z m 240.70116,-4.98504 c 13.51326,-3.45611 21.7794,-8.22368 31.99409,-18.45288 6.87002,-6.87977 9.91357,-10.83046 12.74135,-16.53892 7.79028,-15.7263 7.16566,-1.08986 7.511,-176 0.21549,-109.14211 -0.0217,-159.02379 -0.78398,-164.84018 -3.0027,-22.91285 -16.26087,-41.80137 -36.22169,-51.60393 -17.62644,-8.65618 -7.28586,-8.05589 -138.77279,-8.05589 l -116.5,0 -7.95493,2.30316 c -12.85924,3.72308 -20.94872,8.51049 -30.6644,18.14739 -8.71793,8.64725 -12.45842,14.50524 -17.269,27.04496 l -2.11167,5.50449 -0.2809,162.5 c -0.31485,182.14193 -0.79044,169.62707 7.0412,185.28687 8.08687,16.17013 25.39988,29.83259 43.96921,34.69802 6.94231,1.81899 12.51066,1.90746 123.36053,1.96004 113.07015,0.0536 116.29429,0.003 123.94198,-1.95313 z M 683.65122,260.72035 c -8.07892,-2.03251 -15.73447,-7.39709 -15.73447,-11.02583 0,-2.37964 3.6258,-6.68525 7.3383,-8.71418 2.72903,-1.49147 6.30922,-1.73383 26.1617,-1.7711 22.45935,-0.0421 23.27032,-0.1155 34.5,-3.12061 6.325,-1.69259 19.6,-6.25261 29.5,-10.13338 28.20619,-11.05674 46.32451,-14.67477 62.22644,-12.42594 18.56876,2.62597 32.76335,12.5127 34.02412,23.69828 0.45804,4.06372 0.19461,4.77546 -2.92048,7.89055 -3.51061,3.51061 -8.91999,5.61463 -14.46044,5.6245 -1.7217,0.003 -9.3717,-1.84259 -17,-4.10147 -11.66542,-3.45435 -15.72691,-4.18873 -25.55616,-4.62099 -17.32774,-0.76202 -23.98904,0.51226 -78.31348,14.98105 -15.98962,4.25868 -31.75865,5.7335 -39.76553,3.71913 z m 33.31044,-53.06457 c -5.70013,-1.11736 -8.53519,-3.818 -7.66167,-7.2984 0.90552,-3.60785 4.94031,-5.35128 15.2298,-6.58081 11.63178,-1.38993 28.46402,-4.54258 40.68631,-7.62049 11.84823,-2.98372 22.27756,-7.02502 33.90518,-13.13805 l 8.70453,-4.57626 4.54714,1.73657 c 4.67333,1.78476 7.5438,4.72062 7.5438,7.71566 0,7.8701 -25.41702,19.24716 -58.53902,26.20299 -20.05353,4.21135 -34.98418,5.40767 -44.41607,3.55879 z"
         id="path3068"
         inkscape:connector-curvature="0" />
    </g>
  </g>
</svg>
