<?xml version="1.0" encoding="UTF-8" standalone="no"?>
<!-- Created with Inkscape (http://www.inkscape.org/) -->

<svg
   xmlns:dc="http://purl.org/dc/elements/1.1/"
   xmlns:cc="http://creativecommons.org/ns#"
   xmlns:rdf="http://www.w3.org/1999/02/22-rdf-syntax-ns#"
   xmlns:svg="http://www.w3.org/2000/svg"
   xmlns="http://www.w3.org/2000/svg"
   xmlns:sodipodi="http://sodipodi.sourceforge.net/DTD/sodipodi-0.dtd"
   xmlns:inkscape="http://www.inkscape.org/namespaces/inkscape"
   width="358.79108"
   height="445.45367"
   id="svg2"
   version="1.1"
   inkscape:version="0.48.5 r10040"
   sodipodi:docname="char3.svg">
  <defs
     id="defs4" />
  <sodipodi:namedview
     id="base"
     pagecolor="#ffffff"
     bordercolor="#666666"
     borderopacity="1.0"
     inkscape:pageopacity="0.0"
     inkscape:pageshadow="2"
     inkscape:zoom="0.56054688"
     inkscape:cx="87.685335"
     inkscape:cy="94.695939"
     inkscape:document-units="px"
     inkscape:current-layer="layer1"
     showgrid="false"
     fit-margin-top="0"
     fit-margin-left="0"
     fit-margin-right="0"
     fit-margin-bottom="0"
     inkscape:window-width="958"
     inkscape:window-height="1078"
     inkscape:window-x="1920"
     inkscape:window-y="0"
     inkscape:window-maximized="0" />
  <metadata
     id="metadata7">
    <rdf:RDF>
      <cc:Work
         rdf:about="">
        <dc:format>image/svg+xml</dc:format>
        <dc:type
           rdf:resource="http://purl.org/dc/dcmitype/StillImage" />
        <dc:title></dc:title>
      </cc:Work>
    </rdf:RDF>
  </metadata>
  <g
     inkscape:label="Layer 1"
     inkscape:groupmode="layer"
     id="layer1"
     transform="translate(-516.65332,183.69246)">
    <g
       id="g3184"
       transform="translate(330.03484,-367.49826)">
      <path
         style="fill:#e0c5c6"
         d="m 241.88628,627.41055 c -25.24386,-6.20787 -44.94724,-24.61589 -52.56023,-49.10475 l -2.33157,-7.5 0,-163.5 c 0,-133.13739 0.2485,-164.52137 1.33815,-169 2.18697,-8.98881 9.62901,-23.07037 15.79153,-29.88017 9.94035,-10.98444 23.50421,-19.12442 38.14034,-22.88886 6.19387,-1.59308 16.0502,-1.73097 123.72998,-1.73097 107.67978,0 117.53611,0.13789 123.72998,1.73097 21.52056,5.53513 39.14269,19.49028 48.32497,38.26903 7.98895,16.33826 7.53737,4.67962 7.22368,186.5 l -0.27863,161.5 -2.71455,8 c -6.60204,19.45674 -19.45068,33.73538 -38.28545,42.54644 -15.58067,7.28877 -8.99391,6.96204 -138.69741,6.87994 -107.18522,-0.0678 -116.85983,-0.21064 -123.41079,-1.82163 z m 248.1082,-4.48496 c 24.73843,-7.4563 42.86595,-25.63085 48.95287,-49.07989 1.36504,-5.25861 1.54713,-24.87889 1.54713,-166.70078 0,-111.5594 -0.33174,-162.36206 -1.08422,-166.0399 -0.59632,-2.91457 -3.12131,-9.54385 -5.61108,-14.73173 -7.85898,-16.37556 -22.57187,-28.87236 -41.72149,-35.43731 -6.0087,-2.05992 -7.51009,-2.08922 -122.58321,-2.39209 -131.49388,-0.3461 -123.87423,-0.7489 -140.93251,7.45028 -12.89373,6.19746 -23.81142,16.90792 -29.89138,29.32403 -7.72482,15.77514 -7.17611,1.93246 -7.17611,181.03774 0,156.69107 0.0484,160.81934 1.97544,168.35385 6.62119,25.88857 29.71449,45.91919 57.52456,49.89553 1.65,0.23592 54.75,0.36139 118,0.27882 107.80832,-0.14073 115.37522,-0.26321 121,-1.95855 z m -99.5,-43.74152 c -11.73355,-2.5339 -31.59361,-8.96017 -39.15229,-12.6688 l -5.65229,-2.77327 -3.18175,2.8429 c -2.47643,2.21268 -3.79773,2.7076 -5.96041,2.2326 -4.39037,-0.96429 -9.508,2.04299 -11.69083,6.8699 -2.09489,4.63245 -5.29312,5.71818 -10.49587,3.56313 -4.23629,-1.75473 -6.56438,-5.64208 -9.03509,-15.08641 -1.20262,-4.59708 -2.24011,-8.45425 -2.30553,-8.57149 -0.0654,-0.11724 -2.57302,0.43992 -5.57244,1.23813 -17.11675,4.55516 -29.93931,-1.17823 -29.94976,-13.39154 -0.004,-4.25843 0.0644,-4.35013 2.74626,-3.70254 1.5125,0.36522 8.7125,0.92638 16,1.24703 10.88369,0.47887 13.24932,0.33645 13.24617,-0.79746 -0.002,-0.75925 -1.11659,-7.00545 -2.47662,-13.88045 -4.08955,-20.67279 -3.30125,-27.04409 2.99133,-24.177 3.9838,1.81515 5.32968,5.13877 8.64277,21.34329 l 3.18118,15.55939 6.44702,-1.47057 c 13.73552,-3.13309 23.72236,-6.74252 23.63482,-8.54207 -0.0458,-0.94217 -0.15834,-4.38353 -0.25,-7.64747 l -0.16667,-5.93442 -6,2.02623 c -5.63273,1.9022 -6.00084,2.21955 -6.01365,5.18442 -0.0237,5.49199 -1.04176,7.79338 -3.30019,7.46067 -6.00197,-0.88421 -13.99138,-33.79021 -12.22004,-50.33072 0.95263,-8.89551 2.90587,-10.94537 9.58519,-10.05933 6.78977,0.90069 16.02633,-1.42895 37.36441,-9.42406 26.8339,-10.05431 37.82842,-13.35274 41.93822,-12.58174 5.08865,0.95464 8.64606,4.14044 8.64606,7.74288 0,2.9919 -1.4437,4.82413 -8.68362,11.02061 -4.43904,3.79927 -6.36441,13.03941 -7.04911,33.82989 l -0.5434,16.5 16.38806,0.0489 c 15.24001,0.0455 16.94851,0.24281 24.38807,2.81629 12.27199,4.24509 20.10255,8.47992 24.49849,13.24895 3.52718,3.82653 4.00151,4.91868 4.00151,9.21343 0,3.78455 -0.64466,5.76223 -2.88761,8.85853 -8.39103,11.58348 -39.49225,28.0433 -56.11239,29.69657 -3.66147,0.36422 -8.67564,-0.13868 -15,-1.50445 z m -48.18825,-31.79352 c 0.36072,-4.92771 2.13336,-5.0057 -15.45978,0.6802 -12.22728,3.95172 -11.96118,3.58379 -7.62552,10.54361 l 2.37257,3.80855 10.20049,-5.38682 10.20049,-5.38683 0.31175,-4.25871 z m 49.77053,11.36337 c 19.87676,-5.76006 30.88915,-12.23036 35.25188,-20.71214 2.36665,-4.60113 2.38898,-4.83193 0.65315,-6.75 -2.13852,-2.36304 -8.08261,-2.59761 -21.66959,-0.85515 l -8.81772,1.13083 0,6.67217 c 0,5.84238 -0.37361,7.1802 -3.00417,10.75721 -3.42497,4.65722 -9.05177,7.76272 -12.49799,6.89777 -1.28295,-0.322 -3.28685,-2.12939 -4.4531,-4.01642 -1.16625,-1.88703 -2.66592,-3.61879 -3.3326,-3.84836 -1.28098,-0.44111 -9.90084,2.25294 -13.86442,4.33318 -1.29125,0.6777 -4.11396,2.61725 -6.27271,4.31011 -3.87493,3.03867 -3.89406,3.08657 -1.5,3.75562 1.33375,0.37274 8.78715,0.72256 16.56312,0.77738 12.37376,0.0872 15.23709,-0.21878 22.94415,-2.4522 z m -19.38729,-18.48285 c 2.56535,-1.1767 4.38694,-3.71667 3.38445,-4.71916 -0.2572,-0.2572 -5.62943,0.73272 -11.9383,2.19982 -11.76087,2.73494 -12.64114,3.29847 -12.64114,8.09268 l 0,2.37503 9.25,-3.3561 c 5.0875,-1.84585 10.46274,-3.91237 11.94499,-4.59227 z m -6.37356,-16.80881 10.32143,-2.65646 -0.57143,-2.875 c -0.31429,-1.58125 -0.57143,-4.22672 -0.57143,-5.87883 l 0,-3.00383 -5.25,0.66993 c -2.8875,0.36846 -8.0625,1.14763 -11.5,1.73149 l -6.25,1.06155 0,7.50433 c 0,6.74719 0.17657,7.43366 1.75,6.80381 0.9625,-0.38529 6.39464,-1.89593 12.07143,-3.35699 z m -29.57143,-14.20904 c 4.12449,-1.14543 4.38173,-2.05931 3.13665,-11.14316 l -0.61335,-4.47488 -4.38665,1.57743 -4.38665,1.57743 0,6.75788 c 0,7.39039 0.0425,7.4292 6.25,5.7053 z m 23.15893,-7.45824 c 2.69991,-0.81905 7.26823,-1.48918 10.15181,-1.48918 l 5.24289,0 0.70349,-6.06136 c 0.38692,-3.33375 0.46181,-6.30304 0.16642,-6.59844 -0.2954,-0.29539 -4.85613,-0.21327 -10.13496,0.1825 -7.69089,0.57661 -9.78649,1.072 -10.54713,2.49328 -1.3374,2.49895 -2.45226,12.98628 -1.37913,12.9732 0.48822,-0.006 3.0967,-0.68096 5.79661,-1.5 z m -23.03757,-14.08056 c 2.84131,-0.67917 2.86452,-0.74455 2.2179,-6.24625 -0.3594,-3.05794 -0.75151,-5.61617 -0.87136,-5.68494 -0.11984,-0.0688 -2.30702,0.0621 -4.86038,0.2909 l -4.64249,0.41596 0.45454,4.15785 c 0.83493,7.63754 1.27583,8.80746 3.11374,8.26216 0.94418,-0.28013 3.0088,-0.81818 4.58805,-1.19568 z m 35.87926,-8.23735 c 3.01298,0.20849 4.7504,-0.0774 4.75,-0.7817 -3.4e-4,-0.61073 0.28278,-3.17809 0.62917,-5.70523 l 0.62978,-4.5948 -3.37978,0.8743 c -1.85889,0.48086 -7.7245,1.63115 -13.03469,2.55619 l -9.6549,1.68189 1.44976,4.25481 1.44975,4.2548 6.20515,-1.43449 c 3.41283,-0.78898 8.34292,-1.28657 10.95576,-1.10577 z m -78.13169,-14.20276 c -13.92314,-2.02332 -19.11893,-5.56851 -19.11893,-13.04524 0,-2.1578 0.1125,-3.97382 0.25,-4.03561 0.1375,-0.0618 15.21759,-0.44188 33.51132,-0.84465 18.29372,-0.40277 33.53524,-1.00623 33.87003,-1.34103 0.3348,-0.3348 0.3188,-2.15418 -0.0356,-4.04306 -0.44943,-2.39568 -1.69341,-4.14878 -4.1132,-5.79663 -1.90791,-1.29926 -3.472,-2.76815 -3.47576,-3.26421 -0.004,-0.49605 3.94907,-4.99605 8.78406,-10 4.83499,-5.00394 10.27876,-11.70436 12.09727,-14.8898 3.7365,-6.5452 4.66093,-6.47263 8.29521,0.65116 3.09953,6.07558 2.14747,12.26521 -3.04371,19.78805 -4.04089,5.85589 -4.9426,9.03887 -3.29582,11.63408 0.6418,1.01143 2.00687,0.82478 6.47618,-0.88553 5.1179,-1.95851 5.89824,-2.66443 8.10735,-7.3341 3.49788,-7.3939 4.92475,-13.94099 4.26055,-19.54912 -0.58616,-4.94923 -3.58471,-11.98536 -6.55443,-15.38007 -1.54333,-1.76418 -1.34808,-2.12296 3.53717,-6.5 2.84386,-2.54801 7.67115,-6.14399 10.72732,-7.99106 l 5.55666,-3.35832 4.44954,2.60761 c 8.51449,4.98982 11.60731,11.51134 9.63625,20.31896 -1.14285,5.10682 -8.0941,16.65265 -15.69618,26.07094 l -2.6482,3.28088 8.40198,-3.15664 c 21.56166,-8.10076 40.49262,-14.14833 45.79381,-14.62903 10.00805,-0.9075 18.10816,3.17302 18.10816,9.12218 0,7.50363 -9.75488,11.08831 -34.49782,12.67709 -23.75646,1.52544 -26.54285,2.31062 -62.08094,17.4938 -13.24332,5.65804 -26.80827,10.99463 -30.14434,11.85909 -6.51527,1.68827 -27.18959,1.98887 -37.15797,0.54026 z m 24.28001,-115.56444 c -13.27522,-7.03451 -27.07601,-21.87241 -47.55988,-51.13398 -8.31227,-11.87422 -10.73763,-16.04837 -10.26112,-17.65984 1.92642,-6.5147 8.90462,-5.46819 19.99718,2.99895 l 4.84147,3.69558 17.0417,-4.32918 c 9.37294,-2.38105 27.61047,-7.17463 40.52784,-10.65239 12.91736,-3.47777 24.48903,-6.32321 25.71481,-6.32321 1.30282,0 2.70786,-0.93473 3.38211,-2.25 2.10989,-4.11582 8.24676,-9.75 10.6199,-9.75 2.28183,0 10.29705,7.0056 10.29705,9 0,0.55 2.3625,1.00265 5.25,1.00589 11.72647,0.0132 29.53258,3.58615 42.95163,8.61869 16.50827,6.19108 29.69443,18.7968 29.77641,28.4657 0.0521,6.14229 -5.97427,14.92459 -19.89515,28.99358 -16.9919,17.17267 -20.53902,19.21193 -33.58289,19.30695 -12.46306,0.0908 -17.92055,-2.52534 -15.95475,-7.64812 0.82228,-2.14283 -10.7665,-4.08319 -24.72341,-4.13956 -8.73667,-0.0353 -11.02373,0.2696 -12.57874,1.67687 -2.3275,2.10635 -3.64984,2.22234 -2.89447,0.25388 0.67462,-1.75803 -2.34241,-1.38713 -12.45896,1.53165 -9.46621,2.73116 -14.52253,5.19801 -16.93141,8.26041 -2.74456,3.48914 -7.07512,3.51409 -13.55932,0.0781 z m 105.2996,-30.76705 c 7.8738,-8.31812 11.30146,-13.59183 11.30146,-17.38811 0,-2.55819 -4.98804,-9.37527 -9.22382,-12.60606 -5.80537,-4.42797 -13.9903,-7.57055 -21.93458,-8.42173 l -7.54254,-0.80813 -3.7064,11.26142 c -2.03852,6.19378 -6.11299,16.16498 -9.05437,22.15822 l -5.34796,10.8968 11.15484,0.50384 c 11.27862,0.50943 16.93647,1.98781 19.51731,5.09982 1.25695,1.51565 1.5756,1.49116 4.11379,-0.3162 1.51322,-1.0775 6.33824,-5.74844 10.72227,-10.37987 z m -83.01083,10.0086 c 0.22907,-0.22907 -0.28196,-6.7486 -1.13561,-14.48786 -0.85366,-7.73925 -1.5521,-16.39969 -1.5521,-19.24541 l 0,-5.17403 -3.75,0.63976 c -3.48967,0.59535 -31.38808,4.19812 -37.4559,4.83701 -2.4589,0.2589 -1.04407,1.85972 15.5,17.5375 l 18.2059,17.25259 4.88561,-0.47154 c 2.68709,-0.25934 5.07303,-0.65895 5.3021,-0.88802 z m 20.00544,-3.211 5.19315,-0.6772 1.09378,-5.10015 c 1.29108,-6.02008 3.6496,-35.36092 2.9025,-36.10803 -0.28354,-0.28354 -5.049,0.5012 -10.5899,1.74386 l -10.07437,2.25938 2.34627,2.7277 c 3.60976,4.1966 3.94677,8.71112 1.75374,23.49306 l -1.98194,13.35915 2.08181,-0.51028 c 1.145,-0.28066 4.41873,-0.81503 7.27496,-1.18749 z"
         id="path3198"
         inkscape:connector-curvature="0" />
      <path
         style="fill:#bebebe"
         d="m 241.88628,627.41055 c -25.24386,-6.20787 -44.94724,-24.61589 -52.56023,-49.10475 l -2.33157,-7.5 0,-163.5 c 0,-133.13739 0.2485,-164.52137 1.33815,-169 2.18697,-8.98881 9.62901,-23.07037 15.79153,-29.88017 9.94035,-10.98444 23.50421,-19.12442 38.14034,-22.88886 6.19387,-1.59308 16.0502,-1.73097 123.72998,-1.73097 107.67978,0 117.53611,0.13789 123.72998,1.73097 21.52056,5.53513 39.14269,19.49028 48.32497,38.26903 7.98895,16.33826 7.53737,4.67962 7.22368,186.5 l -0.27863,161.5 -2.71455,8 c -6.60204,19.45674 -19.45068,33.73538 -38.28545,42.54644 -15.58067,7.28877 -8.99391,6.96204 -138.69741,6.87994 -107.18522,-0.0678 -116.85983,-0.21064 -123.41079,-1.82163 z m 248.1082,-4.48496 c 24.73843,-7.4563 42.86595,-25.63085 48.95287,-49.07989 1.36504,-5.25861 1.54713,-24.87889 1.54713,-166.70078 0,-111.5594 -0.33174,-162.36206 -1.08422,-166.0399 -0.59632,-2.91457 -3.12131,-9.54385 -5.61108,-14.73173 -7.85898,-16.37556 -22.57187,-28.87236 -41.72149,-35.43731 -6.0087,-2.05992 -7.51009,-2.08922 -122.58321,-2.39209 -131.49388,-0.3461 -123.87423,-0.7489 -140.93251,7.45028 -12.89373,6.19746 -23.81142,16.90792 -29.89138,29.32403 -7.72482,15.77514 -7.17611,1.93246 -7.17611,181.03774 0,156.69107 0.0484,160.81934 1.97544,168.35385 6.62119,25.88857 29.71449,45.91919 57.52456,49.89553 1.65,0.23592 54.75,0.36139 118,0.27882 107.80832,-0.14073 115.37522,-0.26321 121,-1.95855 z m -91.5,-42.30602 c -15.41239,-2.67887 -36.97997,-9.26259 -47.15529,-14.39463 -4.99198,-2.51776 -5.80336,-2.67389 -6.91775,-1.33113 -1.9869,2.39406 -5.18559,3.79509 -8.17197,3.57932 -5.22546,-0.37756 -9.61982,2.35152 -11.7361,7.2886 -1.77496,4.14082 -2.25476,4.54407 -5.40663,4.54407 -3.87096,0 -8.83194,-3.54606 -11.00897,-7.86912 -0.72868,-1.44698 -2.11439,-5.90724 -3.07935,-9.91168 -1.40708,-5.83918 -2.07816,-7.18306 -3.38921,-6.78716 -19.79988,5.97901 -34.13473,0.76465 -34.13473,-12.41665 0,-4.13585 0.0729,-4.23019 2.75,-3.5566 1.5125,0.38057 8.87436,0.93236 16.3597,1.2262 l 13.60969,0.53427 -2.83789,-14.35963 c -4.39877,-22.25754 -3.79819,-27.96522 2.63417,-25.03444 3.63342,1.65549 5.32319,5.95499 8.64216,21.98929 1.67188,8.07704 3.13097,14.78367 3.24242,14.90363 0.34553,0.37191 18.79919,-4.51879 24.59975,-6.51956 l 5.5,-1.8971 -0.35624,-7.40072 c -0.19593,-4.0704 -0.47426,-7.52905 -0.6185,-7.6859 -0.14424,-0.15684 -2.79643,0.663 -5.89376,1.82185 -5.46149,2.04341 -5.6315,2.21984 -5.6315,5.84404 0,2.05536 -0.63436,4.60456 -1.40968,5.66488 -1.37857,1.88531 -1.45535,1.88652 -3.47904,0.0551 -5.13009,-4.64266 -10.31315,-25.85899 -10.48924,-42.93661 -0.12187,-11.81957 -0.11813,-11.83928 2.71096,-14.27343 2.43355,-2.09383 3.49106,-2.35133 7.5,-1.82621 6.71866,0.88005 14.80807,-1.29667 41.29412,-11.11156 12.74259,-4.72199 25.95052,-9.31516 29.35096,-10.20702 6.11225,-1.60312 6.23863,-1.59383 11.10227,0.81627 4.14031,2.05167 4.96778,2.93245 5.22347,5.56003 0.26445,2.7175 -0.4813,3.82155 -5.75369,8.51805 -5.70112,5.07839 -6.14835,5.80666 -7.60129,12.37782 -0.84908,3.84008 -1.80927,14.63196 -2.13376,23.98196 l -0.58998,17 15.88745,0.0331 c 14.73244,0.0307 16.50539,0.23915 24.38745,2.86749 19.7815,6.59631 29,13.78019 29,22.59941 0,4.36923 -2.05637,7.84366 -7.84949,13.26245 -15.13891,14.16067 -45.51631,27.2473 -58.15051,25.05132 z m -65.995,-23.56377 9.95414,-5.25 0.0204,-4.25 c 0.0113,-2.3375 -0.30169,-4.25 -0.69544,-4.25 -1.63179,0 -26.2841,8.10844 -26.2841,8.64516 0,1.33479 5.38716,10.35484 6.18436,10.35484 0.47657,0 5.34586,-2.3625 10.82064,-5.25 z m 64.71751,0.47754 c 17.79351,-6.11798 27.0275,-12.14764 30.44922,-19.8829 2.06128,-4.65981 1.64167,-6.9517 -1.45253,-7.93376 -2.79498,-0.88709 -11.01635,-0.6485 -19.39493,0.56286 -3.75335,0.54265 -7.38677,0.99556 -8.07427,1.00645 -0.86007,0.0136 -1.25,1.90697 -1.25,6.06947 0,3.32731 -0.65201,7.31051 -1.44892,8.85156 -1.7232,3.33231 -7.56279,8.65033 -10.53434,9.59347 -2.41772,0.76735 -6.38748,-1.45039 -8.00447,-4.47177 -0.58196,-1.0874 -1.86269,-2.40768 -2.84607,-2.93397 -2.62034,-1.40237 -14.11112,2.89297 -20.261,7.57371 l -5.04175,3.83734 2.81828,0.68032 c 1.55005,0.37418 10.24327,0.57635 19.31827,0.44927 15.6169,-0.2187 16.9936,-0.40078 25.72251,-3.40205 z M 374.47298,539.1112 c 2.28662,-2.1303 2.63021,-3.81569 0.7715,-3.78428 -3.84176,0.0649 -22.11753,4.95021 -22.85118,6.10835 -0.47751,0.75379 -0.87509,2.58752 -0.88351,4.07495 l -0.0153,2.70442 10.4785,-3.61007 c 5.76318,-1.98553 11.38818,-4.45755 12.5,-5.49337 z m -8.74799,-15.44074 10.73052,-2.84491 -0.61941,-5.50987 c -0.34068,-3.03044 -0.75301,-5.66848 -0.91629,-5.86232 -0.32747,-0.38876 -16.59738,1.64202 -20.17533,2.51824 -2.08352,0.51025 -2.25,1.1041 -2.25,8.02594 0,5.5685 0.3188,7.35288 1.25,6.99637 0.6875,-0.2632 6.07873,-1.75876 11.98051,-3.32345 z m -28.98051,-14.41724 c 4.1302,-1.14702 4.38267,-2.05246 3.12689,-11.21434 l -0.6231,-4.54606 -4.3769,1.62219 -4.37689,1.62219 0,6.7843 c 0,7.41918 0.0404,7.45621 6.25,5.73172 z m 23.75,-7.44742 c 3.025,-0.81194 7.57862,-1.4816 10.11916,-1.48813 4.55804,-0.0117 4.62736,-0.0615 5.23899,-3.76187 0.34091,-2.0625 0.62479,-5.04915 0.63084,-6.63701 l 0.011,-2.88701 -9.75,0.70132 c -5.3625,0.38573 -10.28381,1.23488 -10.93625,1.88701 -1.42756,1.42688 -2.94591,13.69074 -1.69292,13.67382 0.48355,-0.007 3.35417,-0.67619 6.37917,-1.48813 z m -23.62454,-14.09241 c 2.82636,-0.67565 2.86583,-0.78073 2.31139,-6.15277 -0.31024,-3.00596 -0.7042,-5.56372 -0.87546,-5.68391 -0.17127,-0.12019 -2.44699,-0.0277 -5.05716,0.20564 l -4.74577,0.42416 0.55874,4.14965 c 1.06939,7.94207 1.40077,8.79254 3.21611,8.25394 0.94418,-0.28013 3.01065,-0.81865 4.59215,-1.19671 z m 26.93295,-7.56715 c 2.64709,-0.5677 6.76997,-0.87653 9.16196,-0.68628 4.27926,0.34034 4.35837,0.28971 4.92835,-3.15413 0.3186,-1.92502 0.58422,-4.4372 0.59027,-5.58263 l 0.011,-2.08259 -12.75,2.44738 c -7.0125,1.34606 -12.87935,2.56257 -13.03744,2.70337 -0.15809,0.14079 0.1428,1.32664 0.66864,2.63521 0.52585,1.30858 1.22149,3.21342 1.54587,4.23298 0.40434,1.27086 1.13671,1.64389 2.32913,1.18631 0.95663,-0.36709 3.90513,-1.13193 6.55221,-1.69962 z m -69.80841,-14.9409 c -12.60386,-1.79935 -18.5,-5.99613 -18.5,-13.16799 0,-3.35776 0.1367,-3.47844 4.63957,-4.09563 2.55177,-0.34975 14.13927,-0.63862 25.75,-0.64191 11.61074,-0.003 24.87039,-0.29866 29.4659,-0.65635 l 8.35547,-0.65036 -0.55674,-3.59365 c -0.38648,-2.49463 -1.63151,-4.47963 -4.07106,-6.49067 l -3.5143,-2.89701 7.63766,-8.10299 c 4.20071,-4.45664 9.78807,-11.38929 12.41637,-15.4059 l 4.77871,-7.30292 2.58933,3.91274 c 4.95183,7.48272 4.32257,14.35404 -2.083,22.7458 -3.33946,4.37493 -4.65859,10.5563 -2.53309,11.86994 0.48115,0.29736 3.29365,-0.25909 6.25,-1.23658 5.08428,-1.68106 5.554,-2.13065 8.67945,-8.3074 5.62592,-11.11839 5.32981,-22.54517 -0.83619,-32.26795 l -2.86216,-4.51315 4.69704,-3.9001 c 2.58337,-2.14505 7.26347,-5.59172 10.40022,-7.65927 l 5.70318,-3.75918 3.45019,2.13233 c 5.5383,3.42286 10.35273,9.40841 11.09329,13.79176 1.17879,6.97718 -3.88268,17.45849 -14.65486,30.34737 l -5.70501,6.82604 6.70501,-2.58117 c 17.38595,-6.69292 44.58106,-15.47866 49.47595,-15.98385 9.3832,-0.96844 17.72907,3.49694 17.72907,9.48577 0,7.6102 -9.21504,10.32494 -44.5,13.10963 -14.62533,1.15423 -21.79409,3.42059 -52.23168,16.51274 -30.10505,12.94911 -32.48604,13.60814 -48.62366,13.45843 -7.22956,-0.0671 -15.84466,-0.5074 -19.14466,-0.97852 z m 24.89894,-115.49547 c -13.27522,-7.03451 -27.07601,-21.87241 -47.55988,-51.13398 -8.31227,-11.87422 -10.73763,-16.04837 -10.26112,-17.65984 1.92642,-6.5147 8.90462,-5.46819 19.99718,2.99895 l 4.84147,3.69558 17.0417,-4.32918 c 9.37294,-2.38105 27.61047,-7.17463 40.52784,-10.65239 12.91736,-3.47777 24.48903,-6.32321 25.71481,-6.32321 1.30282,0 2.70786,-0.93473 3.38211,-2.25 2.10989,-4.11582 8.24676,-9.75 10.6199,-9.75 2.28183,0 10.29705,7.0056 10.29705,9 0,0.55 2.3625,1.00265 5.25,1.00589 11.72647,0.0132 29.53258,3.58615 42.95163,8.61869 16.50827,6.19108 29.69443,18.7968 29.77641,28.4657 0.0521,6.14229 -5.97427,14.92459 -19.89515,28.99358 -16.9919,17.17267 -20.53902,19.21193 -33.58289,19.30695 -12.46306,0.0908 -17.92055,-2.52534 -15.95475,-7.64812 0.82228,-2.14283 -10.7665,-4.08319 -24.72341,-4.13956 -8.73667,-0.0353 -11.02373,0.2696 -12.57874,1.67687 -2.3275,2.10635 -3.64984,2.22234 -2.89447,0.25388 0.67462,-1.75803 -2.34241,-1.38713 -12.45896,1.53165 -9.46621,2.73116 -14.52253,5.19801 -16.93141,8.26041 -2.74456,3.48914 -7.07512,3.51409 -13.55932,0.0781 z m 105.2996,-30.76705 c 7.8738,-8.31812 11.30146,-13.59183 11.30146,-17.38811 0,-2.55819 -4.98804,-9.37527 -9.22382,-12.60606 -5.80537,-4.42797 -13.9903,-7.57055 -21.93458,-8.42173 l -7.54254,-0.80813 -3.7064,11.26142 c -2.03852,6.19378 -6.11299,16.16498 -9.05437,22.15822 l -5.34796,10.8968 11.15484,0.50384 c 11.27862,0.50943 16.93647,1.98781 19.51731,5.09982 1.25695,1.51565 1.5756,1.49116 4.11379,-0.3162 1.51322,-1.0775 6.33824,-5.74844 10.72227,-10.37987 z m -83.01083,10.0086 c 0.22907,-0.22907 -0.28196,-6.7486 -1.13561,-14.48786 -0.85366,-7.73925 -1.5521,-16.39969 -1.5521,-19.24541 l 0,-5.17403 -3.75,0.63976 c -3.48967,0.59535 -31.38808,4.19812 -37.4559,4.83701 -2.4589,0.2589 -1.04407,1.85972 15.5,17.5375 l 18.2059,17.25259 4.88561,-0.47154 c 2.68709,-0.25934 5.07303,-0.65895 5.3021,-0.88802 z m 20.00544,-3.211 5.19315,-0.6772 1.09378,-5.10015 c 1.29108,-6.02008 3.6496,-35.36092 2.9025,-36.10803 -0.28354,-0.28354 -5.049,0.5012 -10.5899,1.74386 l -10.07437,2.25938 2.34627,2.7277 c 3.60976,4.1966 3.94677,8.71112 1.75374,23.49306 l -1.98194,13.35915 2.08181,-0.51028 c 1.145,-0.28066 4.41873,-0.81503 7.27496,-1.18749 z"
         id="path3196"
         inkscape:connector-curvature="0" />
      <path
         style="fill:#c38c8f"
         d="m 241.99448,627.36447 c -25.60802,-6.77311 -45.68467,-25.87691 -53.13335,-50.55867 -1.70866,-5.66177 -1.8297,-14.99117 -2.1471,-165.5 -0.24694,-117.09708 -0.0294,-161.49387 0.81848,-167 4.44088,-28.84093 26.28046,-51.51325 56.96197,-59.13391 4.49108,-1.1155 26.87073,-1.36609 122,-1.36609 l 116.5,0 8,2.31315 c 25.27345,7.30767 43.63449,24.61026 51.66517,48.68685 l 2.33483,7 0.27072,160.97874 c 0.30571,181.78024 0.7741,169.95294 -7.38461,186.46589 -3.86601,7.82468 -6.14316,10.91474 -13.27625,18.01562 -9.65433,9.61073 -17.82253,14.80114 -29.60986,18.81534 l -8,2.72441 -119,0.20506 c -113.00131,0.19472 -119.35286,0.11172 -126,-1.64639 z m 248,-4.33517 c 25.41511,-7.38468 44.99481,-27.66435 49.45548,-51.2235 0.8266,-4.3657 1.05548,-50.26217 0.84028,-168.5 l -0.29576,-162.5 -2.22352,-6.5 c -6.84457,-20.00862 -22.91217,-35.65585 -43.99843,-42.8473 l -7.77805,-2.6527 -120,0 -120,0 -8,2.80777 c -11.04172,3.87532 -20.28274,9.58072 -27.71091,17.10869 -7.41478,7.5144 -11.92844,14.67065 -15.60988,24.74894 l -2.67921,7.3346 -0.2647,163.4183 c -0.29547,182.41289 -0.83024,168.19855 6.92542,184.0817 6.86815,14.06559 21.47028,26.95705 36.88722,32.56582 11.675,4.24742 13.09445,4.29094 133.45206,4.09156 106.05389,-0.17569 115.46675,-0.32613 121,-1.93388 z m -91.5,-42.40973 c -15.41239,-2.67887 -36.97997,-9.26259 -47.15529,-14.39463 -4.99198,-2.51776 -5.80336,-2.67389 -6.91775,-1.33113 -1.9869,2.39406 -5.18559,3.79509 -8.17197,3.57932 -5.22546,-0.37756 -9.61982,2.35152 -11.7361,7.2886 -1.77496,4.14082 -2.25476,4.54407 -5.40663,4.54407 -3.87096,0 -8.83194,-3.54606 -11.00897,-7.86912 -0.72868,-1.44698 -2.11439,-5.90724 -3.07935,-9.91168 -1.40708,-5.83918 -2.07816,-7.18306 -3.38921,-6.78716 -19.79988,5.97901 -34.13473,0.76465 -34.13473,-12.41665 0,-4.13585 0.0729,-4.23019 2.75,-3.5566 1.5125,0.38057 8.87436,0.93236 16.3597,1.2262 l 13.60969,0.53427 -2.83789,-14.35963 c -4.39877,-22.25754 -3.79819,-27.96522 2.63417,-25.03444 3.63342,1.65549 5.32319,5.95499 8.64216,21.98929 1.67188,8.07704 3.13097,14.78367 3.24242,14.90363 0.34553,0.37191 18.79919,-4.51879 24.59975,-6.51956 l 5.5,-1.8971 -0.35624,-7.40072 c -0.19593,-4.0704 -0.47426,-7.52905 -0.6185,-7.6859 -0.14424,-0.15684 -2.79643,0.663 -5.89376,1.82185 -5.46149,2.04341 -5.6315,2.21984 -5.6315,5.84404 0,2.05536 -0.63436,4.60456 -1.40968,5.66488 -1.37857,1.88531 -1.45535,1.88652 -3.47904,0.0551 -5.13009,-4.64266 -10.31315,-25.85899 -10.48924,-42.93661 -0.12187,-11.81957 -0.11813,-11.83928 2.71096,-14.27343 2.43355,-2.09383 3.49106,-2.35133 7.5,-1.82621 6.71866,0.88005 14.80807,-1.29667 41.29412,-11.11156 12.74259,-4.72199 25.95052,-9.31516 29.35096,-10.20702 6.11225,-1.60312 6.23863,-1.59383 11.10227,0.81627 4.14031,2.05167 4.96778,2.93245 5.22347,5.56003 0.26445,2.7175 -0.4813,3.82155 -5.75369,8.51805 -5.70112,5.07839 -6.14835,5.80666 -7.60129,12.37782 -0.84908,3.84008 -1.80927,14.63196 -2.13376,23.98196 l -0.58998,17 15.88745,0.0331 c 14.73244,0.0307 16.50539,0.23915 24.38745,2.86749 19.7815,6.59631 29,13.78019 29,22.59941 0,4.36923 -2.05637,7.84366 -7.84949,13.26245 -15.13891,14.16067 -45.51631,27.2473 -58.15051,25.05132 z m -65.995,-23.56377 9.95414,-5.25 0.0204,-4.25 c 0.0113,-2.3375 -0.30169,-4.25 -0.69544,-4.25 -1.63179,0 -26.2841,8.10844 -26.2841,8.64516 0,1.33479 5.38716,10.35484 6.18436,10.35484 0.47657,0 5.34586,-2.3625 10.82064,-5.25 z m 64.71751,0.47754 c 17.79351,-6.11798 27.0275,-12.14764 30.44922,-19.8829 2.06128,-4.65981 1.64167,-6.9517 -1.45253,-7.93376 -2.79498,-0.88709 -11.01635,-0.6485 -19.39493,0.56286 -3.75335,0.54265 -7.38677,0.99556 -8.07427,1.00645 -0.86007,0.0136 -1.25,1.90697 -1.25,6.06947 0,3.32731 -0.65201,7.31051 -1.44892,8.85156 -1.7232,3.33231 -7.56279,8.65033 -10.53434,9.59347 -2.41772,0.76735 -6.38748,-1.45039 -8.00447,-4.47177 -0.58196,-1.0874 -1.86269,-2.40768 -2.84607,-2.93397 -2.62034,-1.40237 -14.11112,2.89297 -20.261,7.57371 l -5.04175,3.83734 2.81828,0.68032 c 1.55005,0.37418 10.24327,0.57635 19.31827,0.44927 15.6169,-0.2187 16.9936,-0.40078 25.72251,-3.40205 z M 374.47298,539.1112 c 2.28662,-2.1303 2.63021,-3.81569 0.7715,-3.78428 -3.84176,0.0649 -22.11753,4.95021 -22.85118,6.10835 -0.47751,0.75379 -0.87509,2.58752 -0.88351,4.07495 l -0.0153,2.70442 10.4785,-3.61007 c 5.76318,-1.98553 11.38818,-4.45755 12.5,-5.49337 z m -8.74799,-15.44074 10.73052,-2.84491 -0.61941,-5.50987 c -0.34068,-3.03044 -0.75301,-5.66848 -0.91629,-5.86232 -0.32747,-0.38876 -16.59738,1.64202 -20.17533,2.51824 -2.08352,0.51025 -2.25,1.1041 -2.25,8.02594 0,5.5685 0.3188,7.35288 1.25,6.99637 0.6875,-0.2632 6.07873,-1.75876 11.98051,-3.32345 z m -28.98051,-14.41724 c 4.1302,-1.14702 4.38267,-2.05246 3.12689,-11.21434 l -0.6231,-4.54606 -4.3769,1.62219 -4.37689,1.62219 0,6.7843 c 0,7.41918 0.0404,7.45621 6.25,5.73172 z m 23.75,-7.44742 c 3.025,-0.81194 7.57862,-1.4816 10.11916,-1.48813 4.55804,-0.0117 4.62736,-0.0615 5.23899,-3.76187 0.34091,-2.0625 0.62479,-5.04915 0.63084,-6.63701 l 0.011,-2.88701 -9.75,0.70132 c -5.3625,0.38573 -10.28381,1.23488 -10.93625,1.88701 -1.42756,1.42688 -2.94591,13.69074 -1.69292,13.67382 0.48355,-0.007 3.35417,-0.67619 6.37917,-1.48813 z m -23.62454,-14.09241 c 2.82636,-0.67565 2.86583,-0.78073 2.31139,-6.15277 -0.31024,-3.00596 -0.7042,-5.56372 -0.87546,-5.68391 -0.17127,-0.12019 -2.44699,-0.0277 -5.05716,0.20564 l -4.74577,0.42416 0.55874,4.14965 c 1.06939,7.94207 1.40077,8.79254 3.21611,8.25394 0.94418,-0.28013 3.01065,-0.81865 4.59215,-1.19671 z m 26.93295,-7.56715 c 2.64709,-0.5677 6.76997,-0.87653 9.16196,-0.68628 4.27926,0.34034 4.35837,0.28971 4.92835,-3.15413 0.3186,-1.92502 0.58422,-4.4372 0.59027,-5.58263 l 0.011,-2.08259 -12.75,2.44738 c -7.0125,1.34606 -12.87935,2.56257 -13.03744,2.70337 -0.15809,0.14079 0.1428,1.32664 0.66864,2.63521 0.52585,1.30858 1.22149,3.21342 1.54587,4.23298 0.40434,1.27086 1.13671,1.64389 2.32913,1.18631 0.95663,-0.36709 3.90513,-1.13193 6.55221,-1.69962 z m -69.80841,-14.9409 c -12.60386,-1.79935 -18.5,-5.99613 -18.5,-13.16799 0,-3.35776 0.1367,-3.47844 4.63957,-4.09563 2.55177,-0.34975 14.13927,-0.63862 25.75,-0.64191 11.61074,-0.003 24.87039,-0.29866 29.4659,-0.65635 l 8.35547,-0.65036 -0.55674,-3.59365 c -0.38648,-2.49463 -1.63151,-4.47963 -4.07106,-6.49067 l -3.5143,-2.89701 7.63766,-8.10299 c 4.20071,-4.45664 9.78807,-11.38929 12.41637,-15.4059 l 4.77871,-7.30292 2.58933,3.91274 c 4.95183,7.48272 4.32257,14.35404 -2.083,22.7458 -3.33946,4.37493 -4.65859,10.5563 -2.53309,11.86994 0.48115,0.29736 3.29365,-0.25909 6.25,-1.23658 5.08428,-1.68106 5.554,-2.13065 8.67945,-8.3074 5.62592,-11.11839 5.32981,-22.54517 -0.83619,-32.26795 l -2.86216,-4.51315 4.69704,-3.9001 c 2.58337,-2.14505 7.26347,-5.59172 10.40022,-7.65927 l 5.70318,-3.75918 3.45019,2.13233 c 5.5383,3.42286 10.35273,9.40841 11.09329,13.79176 1.17879,6.97718 -3.88268,17.45849 -14.65486,30.34737 l -5.70501,6.82604 6.70501,-2.58117 c 17.38595,-6.69292 44.58106,-15.47866 49.47595,-15.98385 9.3832,-0.96844 17.72907,3.49694 17.72907,9.48577 0,7.6102 -9.21504,10.32494 -44.5,13.10963 -14.62533,1.15423 -21.79409,3.42059 -52.23168,16.51274 -30.10505,12.94911 -32.48604,13.60814 -48.62366,13.45843 -7.22956,-0.0671 -15.84466,-0.5074 -19.14466,-0.97852 z M 318.4042,349.10285 c -11.85705,-5.92499 -30.53076,-26.56158 -50.03739,-55.29705 -7.79173,-11.4781 -8.65237,-14.47698 -4.75352,-16.56358 2.85751,-1.5293 8.10707,0.42358 15.83667,5.89138 l 6.45547,4.5665 18.94276,-4.77478 c 10.41852,-2.62613 27.89974,-7.2267 38.84716,-10.2235 10.94741,-2.99679 21.9057,-5.72302 24.35176,-6.05829 2.51162,-0.34425 4.44737,-1.14287 4.44737,-1.83482 0,-1.99072 8.47964,-10.50291 10.46274,-10.50291 1.00264,0 4.07297,2.25 6.82297,5 4.16516,4.16516 5.60666,5 8.63338,5 21.81799,0 50.95001,9.61278 63.25804,20.87345 14.86359,13.59877 12.81195,21.86308 -11.54655,46.51125 -15.61785,15.80357 -19.87677,18.10246 -33.38863,18.0226 -7.78709,-0.046 -9.73452,-0.38926 -12.01749,-2.11806 -1.90263,-1.44078 -2.643,-2.81713 -2.45439,-4.56274 0.32671,-3.02395 -0.57531,-3.31358 -14.96494,-4.80504 -11.41752,-1.18341 -19.9459,-0.53056 -23.50133,1.79905 -2.12581,1.39289 -2.2814,1.38469 -1.71534,-0.0904 0.52278,-1.36234 0.0849,-1.52562 -2.73297,-1.01908 -13.32564,2.39543 -22.82273,6.07193 -26.8661,10.40037 -3.56642,3.81786 -6.08731,3.77949 -14.07967,-0.21431 z m 102.45757,-26.36507 c 10.05059,-9.82692 14.63271,-16.40905 14.63271,-21.01961 0,-2.39164 -1.16175,-4.4882 -4.61577,-8.32991 -7.3097,-8.13014 -16.40473,-12.3099 -29.04462,-13.34788 l -5.1604,-0.42378 -3.6683,11.0946 c -3.03892,9.19107 -5.65022,15.1696 -14.28329,32.7013 -0.16431,0.33369 4.58357,0.83811 10.55086,1.12095 10.67136,0.5058 18.85208,2.74753 20.65149,5.65903 0.37843,0.61233 1.02246,1.11332 1.43118,1.11332 0.40871,0 4.68647,-3.85561 9.50614,-8.56802 z m -79.77305,6.30711 c 0.3281,-0.3281 -0.12138,-6.85967 -0.99884,-14.51461 -0.87747,-7.65493 -1.5954,-16.28623 -1.5954,-19.18067 l 0,-5.26262 -3.25,0.47151 c -1.7875,0.25933 -11.70347,1.53853 -22.03549,2.84267 l -18.78549,2.37117 17.78549,17.28252 17.78549,17.28253 5.24884,-0.34797 c 2.88687,-0.19139 5.5173,-0.61642 5.8454,-0.94453 z m 20.1695,-3.31383 c 4.24776,-0.55405 5.35611,-1.09563 5.74233,-2.80591 1.29416,-5.73099 2.49672,-16.30603 3.11235,-27.36935 0.56578,-10.16754 0.44366,-12.24306 -0.71838,-12.20915 -0.77002,0.0225 -5.51283,1.04746 -10.53958,2.27776 l -9.13955,2.2369 2.34497,2.72619 c 1.28974,1.4994 2.64078,4.30299 3.00233,6.23018 0.58055,3.0946 -1.74266,23.86625 -3.22945,28.87429 -0.46566,1.56849 -0.16239,1.78844 1.80063,1.30591 1.29834,-0.31914 4.72929,-0.88921 7.62435,-1.26682 z"
         id="path3194"
         inkscape:connector-curvature="0" />
      <path
         style="fill:#7c7c7c"
         d="m 241.99448,627.36447 c -25.60802,-6.77311 -45.68467,-25.87691 -53.13335,-50.55867 -1.70866,-5.66177 -1.8297,-14.99117 -2.1471,-165.5 -0.24694,-117.09708 -0.0294,-161.49387 0.81848,-167 4.44088,-28.84093 26.28046,-51.51325 56.96197,-59.13391 4.49108,-1.1155 26.87073,-1.36609 122,-1.36609 l 116.5,0 8,2.31315 c 25.27345,7.30767 43.63449,24.61026 51.66517,48.68685 l 2.33483,7 0.27072,160.97874 c 0.30571,181.78024 0.7741,169.95294 -7.38461,186.46589 -3.86601,7.82468 -6.14316,10.91474 -13.27625,18.01562 -9.65433,9.61073 -17.82253,14.80114 -29.60986,18.81534 l -8,2.72441 -119,0.20506 c -113.00131,0.19472 -119.35286,0.11172 -126,-1.64639 z m 248,-4.33517 c 25.41511,-7.38468 44.99481,-27.66435 49.45548,-51.2235 0.8266,-4.3657 1.05548,-50.26217 0.84028,-168.5 l -0.29576,-162.5 -2.22352,-6.5 c -6.84457,-20.00862 -22.91217,-35.65585 -43.99843,-42.8473 l -7.77805,-2.6527 -120,0 -120,0 -8,2.80777 c -11.04172,3.87532 -20.28274,9.58072 -27.71091,17.10869 -7.41478,7.5144 -11.92844,14.67065 -15.60988,24.74894 l -2.67921,7.3346 -0.2647,163.4183 c -0.29547,182.41289 -0.83024,168.19855 6.92542,184.0817 6.86815,14.06559 21.47028,26.95705 36.88722,32.56582 11.675,4.24742 13.09445,4.29094 133.45206,4.09156 106.05389,-0.17569 115.46675,-0.32613 121,-1.93388 z M 313.79881,578.3498 c -4.36933,-2.66415 -5.83214,-5.24421 -8.15343,-14.38074 -1.09507,-4.31021 -2.20494,-8.05063 -2.46637,-8.31206 -0.26143,-0.26143 -3.87843,0.2276 -8.03777,1.08673 -4.15934,0.85914 -9.06106,1.56207 -10.89271,1.56207 -4.27397,0 -11.57481,-3.72817 -14.10573,-7.20309 -2.11905,-2.90942 -2.95157,-11.43884 -1.08429,-11.1089 8.96655,1.58435 19.9035,2.38782 25.03007,1.83882 3.52325,-0.37731 6.4059,-0.81332 6.4059,-0.96891 0,-0.15558 -1.125,-5.80665 -2.5,-12.55792 -2.22227,-10.91136 -3.39488,-27 -1.96788,-27 0.29266,0 2.04182,0.63079 3.887,1.40176 2.69813,1.12735 3.66105,2.35086 4.91887,6.25 0.8602,2.66653 1.85345,6.64824 2.20724,8.84824 1.58882,9.8799 4.71921,21.49856 5.78809,21.48286 1.77522,-0.0261 14.26695,-3.38882 22.53315,-6.06588 l 7.36647,-2.38567 -0.46742,-7.28326 c -0.25707,-4.0058 -0.74578,-7.56164 -1.08601,-7.90187 -0.34023,-0.34024 -2.98467,0.23194 -5.87654,1.27149 -5.16868,1.85801 -5.27206,1.97489 -6.09041,6.88621 -0.45787,2.74787 -1.24487,5.41299 -1.74889,5.92249 -2.88494,2.91631 -8.14847,-9.26361 -11.39174,-26.36076 -1.90175,-10.02522 -2.05507,-26.55133 -0.27893,-30.06561 1.14677,-2.269 1.89906,-2.51735 8.14165,-2.68778 9.67708,-0.26419 14.10737,-1.47643 39.56535,-10.82613 12.375,-4.54485 24.94418,-8.98847 27.9315,-9.87472 11.60621,-3.44322 20.0685,-0.85866 20.0685,6.12934 0,0.86743 -2.86409,4.31812 -6.36466,7.66822 -5.56359,5.32445 -6.51377,6.7833 -7.54949,11.59107 -1.24381,5.77377 -3.00695,26.57693 -3.05668,36.06559 l -0.0292,5.56559 15.25,0.003 c 13.78326,0.002 16.11554,0.267 24.24913,2.75223 23.4483,7.16465 33.15652,16.03734 29.53945,26.99717 -4.04726,12.26331 -42.85358,33.64404 -60.99868,33.60783 -9.55033,-0.0191 -37.55764,-7.7687 -50.47327,-13.966 l -5.93336,-2.847 -3.16103,2.41103 c -2.09017,1.59425 -4.48412,2.4123 -7.06663,2.41477 -5.0739,0.005 -9.71736,2.90099 -11.42853,7.12799 -2.21584,5.47367 -5.1561,6.27598 -10.67275,2.91227 z m 18.82118,-21.20789 9.87449,-5.16389 0,-4.33611 c 0,-5.37642 0.0678,-5.37434 -15,-0.46166 -10.26106,3.3455 -11.47444,3.98459 -11.26275,5.93207 0.27506,2.53049 4.3481,9.16286 5.63826,9.1811 0.48153,0.007 5.31903,-2.31137 10.75,-5.15151 z m 61.17387,1.70283 c 11.86438,-3.45009 23.05752,-8.90496 28.42531,-13.85282 7.55732,-6.96609 9.20404,-12.37626 4.67107,-15.34638 -2.36888,-1.55215 -3.65674,-1.59313 -14.25,-0.45352 -16.65459,1.79168 -16.03187,1.54399 -15.41646,6.13221 0.87676,6.53672 -0.49472,10.70163 -5.11013,15.51854 -3.50685,3.65995 -4.92185,4.46303 -7.86372,4.46303 -3.00426,0 -4.11439,-0.66539 -6.82942,-4.0934 -3.71967,-4.69646 -5.23523,-4.74292 -14.61639,-0.44808 -5.1456,2.35573 -13.25488,8.30489 -13.29161,9.75104 -0.0239,0.94137 14.12194,1.59645 25.98197,1.20319 6.44027,-0.21355 12.33407,-1.13913 18.29938,-2.87381 z m -29.89381,-14.65043 c 9.58045,-3.46877 12.59443,-5.33842 12.59443,-7.81261 0,-1.83399 -0.19688,-1.83498 -8.40111,-0.0421 -17.04209,3.72415 -16.59889,3.50862 -16.59889,8.07213 0,4.61506 -0.9892,4.6324 12.40557,-0.21742 z m -2.96936,-18.8265 c 3.88509,-1.0659 8.99717,-2.43886 11.36018,-3.05104 l 4.2964,-1.11304 -0.2964,-6.19897 -0.29639,-6.19896 -3.5,0.28511 c -9.77109,0.79596 -18.60609,2.59963 -19.75,4.03197 -1.64194,2.05595 -1.69648,14.18292 -0.0638,14.18292 0.65242,0 4.36492,-0.8721 8.25,-1.93799 z m -20.34326,-24.05876 c -0.13355,-4.11754 -0.40394,-7.64757 -0.60088,-7.84451 -0.66324,-0.66325 -7.49668,1.98872 -9.00121,3.49326 -1.44751,1.44751 -2.20189,12.30364 -0.94248,13.56304 0.3016,0.30161 2.85215,0.0368 5.66788,-0.58848 l 5.1195,-1.13687 -0.24281,-7.48644 z m 31.40705,-0.80778 4,0.27336 0.5773,-6.48442 c 0.31752,-3.56642 0.31752,-6.75223 0,-7.07956 -0.81654,-0.84179 -20.16615,0.78231 -21.14931,1.77516 -0.95538,0.96478 -3.05946,13.29826 -2.43974,14.30098 0.23347,0.37776 3.70663,-0.15594 7.71812,-1.18602 4.0115,-1.03007 9.09363,-1.74985 11.29363,-1.5995 z m -35.64922,-12.2933 c 3.06364,-1.06799 3.14922,-1.262 3.14922,-7.13929 l 0,-6.04146 -5.13561,0.60824 c -2.82459,0.33453 -5.32729,0.7999 -5.56155,1.03417 -0.23427,0.23426 -0.11512,3.17324 0.26478,6.53105 0.75641,6.68582 1.33232,7.08177 7.28316,5.00729 z m 33.14922,-7.78572 8.5,-0.61645 0.59,-5.5 c 0.3245,-3.025 0.48873,-5.63577 0.36495,-5.80172 -0.28404,-0.38079 -25.37277,4.38621 -25.90952,4.92296 -0.21799,0.21798 0.12263,2.34063 0.75691,4.71699 1.10655,4.1457 1.27562,4.29178 4.17546,3.60766 1.66221,-0.39214 6.8472,-0.99039 11.5222,-1.32944 z m -67.5,-14.79351 c -7.87544,-0.6711 -17.05636,-2.49429 -20.29405,-4.03009 -3.81608,-1.81016 -6.46121,-6.25505 -6.01596,-10.10925 l 0.31001,-2.6836 30,-0.6852 c 16.5,-0.37686 31.94125,-0.97125 34.31389,-1.32085 4.22107,-0.62198 4.30057,-0.70407 3.69464,-3.8148 -0.3777,-1.93907 -2.13356,-4.51169 -4.50142,-6.59533 l -3.88216,-3.41619 8.4914,-9.02037 c 4.67027,-4.96121 10.10612,-11.63643 12.07966,-14.83382 1.97355,-3.19739 3.96516,-5.81344 4.4258,-5.81344 1.645,0 5.06433,8.35879 5.12745,12.53441 0.0699,4.62401 -2.8729,11.3166 -6.8122,15.49248 -1.95155,2.06875 -2.27419,3.2019 -1.77955,6.25 0.68337,4.21116 1.16281,4.3444 7.66282,2.12963 5.40884,-1.84298 7.93124,-4.89343 10.89645,-13.17757 3.25278,-9.08755 2.82368,-15.84597 -1.5546,-24.4851 -2.01913,-3.98412 -3.66913,-7.53369 -3.66666,-7.88793 0.006,-0.79884 13.64585,-11.18147 16.84762,-12.82396 3.13099,-1.60619 6.37723,-0.65538 10.6896,3.13093 9.58749,8.41793 8.64159,18.74094 -3.21214,35.05532 -2.51032,3.45499 -5.94768,7.74429 -7.63858,9.53179 -1.69089,1.7875 -2.80972,3.25 -2.48629,3.25 0.32344,0 6.38533,-2.19324 13.47088,-4.87387 35.8586,-13.56616 46.57425,-15.77729 55.01068,-11.35123 4.4174,2.31753 5.87561,4.88605 4.92475,8.67457 -1.33941,5.33662 -13.83727,9.1188 -33.3147,10.0819 -22.73385,1.12412 -27.47806,2.45143 -62.89309,17.59596 -12.70816,5.43439 -26.61764,10.7789 -30.90996,11.87669 -7.39301,1.89081 -17.09313,2.33221 -28.98429,1.31892 z M 318.4042,349.10285 c -11.85705,-5.92499 -30.53076,-26.56158 -50.03739,-55.29705 -7.79173,-11.4781 -8.65237,-14.47698 -4.75352,-16.56358 2.85751,-1.5293 8.10707,0.42358 15.83667,5.89138 l 6.45547,4.5665 18.94276,-4.77478 c 10.41852,-2.62613 27.89974,-7.2267 38.84716,-10.2235 10.94741,-2.99679 21.9057,-5.72302 24.35176,-6.05829 2.51162,-0.34425 4.44737,-1.14287 4.44737,-1.83482 0,-1.99072 8.47964,-10.50291 10.46274,-10.50291 1.00264,0 4.07297,2.25 6.82297,5 4.16516,4.16516 5.60666,5 8.63338,5 21.81799,0 50.95001,9.61278 63.25804,20.87345 14.86359,13.59877 12.81195,21.86308 -11.54655,46.51125 -15.61785,15.80357 -19.87677,18.10246 -33.38863,18.0226 -7.78709,-0.046 -9.73452,-0.38926 -12.01749,-2.11806 -1.90263,-1.44078 -2.643,-2.81713 -2.45439,-4.56274 0.32671,-3.02395 -0.57531,-3.31358 -14.96494,-4.80504 -11.41752,-1.18341 -19.9459,-0.53056 -23.50133,1.79905 -2.12581,1.39289 -2.2814,1.38469 -1.71534,-0.0904 0.52278,-1.36234 0.0849,-1.52562 -2.73297,-1.01908 -13.32564,2.39543 -22.82273,6.07193 -26.8661,10.40037 -3.56642,3.81786 -6.08731,3.77949 -14.07967,-0.21431 z m 102.45757,-26.36507 c 10.05059,-9.82692 14.63271,-16.40905 14.63271,-21.01961 0,-2.39164 -1.16175,-4.4882 -4.61577,-8.32991 -7.3097,-8.13014 -16.40473,-12.3099 -29.04462,-13.34788 l -5.1604,-0.42378 -3.6683,11.0946 c -3.03892,9.19107 -5.65022,15.1696 -14.28329,32.7013 -0.16431,0.33369 4.58357,0.83811 10.55086,1.12095 10.67136,0.5058 18.85208,2.74753 20.65149,5.65903 0.37843,0.61233 1.02246,1.11332 1.43118,1.11332 0.40871,0 4.68647,-3.85561 9.50614,-8.56802 z m -79.77305,6.30711 c 0.3281,-0.3281 -0.12138,-6.85967 -0.99884,-14.51461 -0.87747,-7.65493 -1.5954,-16.28623 -1.5954,-19.18067 l 0,-5.26262 -3.25,0.47151 c -1.7875,0.25933 -11.70347,1.53853 -22.03549,2.84267 l -18.78549,2.37117 17.78549,17.28252 17.78549,17.28253 5.24884,-0.34797 c 2.88687,-0.19139 5.5173,-0.61642 5.8454,-0.94453 z m 20.1695,-3.31383 c 4.24776,-0.55405 5.35611,-1.09563 5.74233,-2.80591 1.29416,-5.73099 2.49672,-16.30603 3.11235,-27.36935 0.56578,-10.16754 0.44366,-12.24306 -0.71838,-12.20915 -0.77002,0.0225 -5.51283,1.04746 -10.53958,2.27776 l -9.13955,2.2369 2.34497,2.72619 c 1.28974,1.4994 2.64078,4.30299 3.00233,6.23018 0.58055,3.0946 -1.74266,23.86625 -3.22945,28.87429 -0.46566,1.56849 -0.16239,1.78844 1.80063,1.30591 1.29834,-0.31914 4.72929,-0.88921 7.62435,-1.26682 z"
         id="path3192"
         inkscape:connector-curvature="0" />
      <path
         style="fill:#a55357"
         d="m 248.32534,628.29667 c -16.2812,-2.79636 -29.29641,-9.40155 -40.33086,-20.46781 -8.88772,-8.91334 -13.3257,-15.75154 -17.32079,-26.68846 l -2.67921,-7.3346 -0.27936,-164 c -0.31227,-183.32081 -0.75381,-171.24836 6.81328,-186.28688 8.92389,-17.73496 23.7901,-30.02257 44.00132,-36.36911 l 7.46476,-2.34401 120,0 120,0 7.5,2.34186 c 24.87852,7.76828 42.33301,25.34206 48.9747,49.30941 1.99574,7.20185 2.02508,9.68085 2.01052,169.82863 -0.0165,181.44306 0.50024,168.28171 -7.22506,184.0201 -3.31238,6.74816 -5.93371,10.26908 -12.71879,17.08364 -7.11947,7.15042 -10.13231,9.36182 -18.04393,13.24412 -17.93152,8.79914 -6.66412,8.11879 -137.49744,8.30233 -63.8,0.0895 -118.10112,-0.19815 -120.66914,-0.63922 z m 245.66914,-6.30681 c 23.51541,-8.27724 41.2727,-27.95122 45.93389,-50.8919 1.38263,-6.80482 1.56408,-26.13554 1.54875,-165 -0.0192,-173.89294 0.32943,-164.28546 -6.48192,-178.62822 -8.78747,-18.50393 -25.54788,-32.15972 -46.50072,-37.88717 -6.05377,-1.65479 -14.46351,-1.77677 -122.5,-1.77677 -130.13309,0 -120.89183,-0.50394 -137,7.47082 -14.7867,7.32052 -25.05007,17.71406 -32.14983,32.55756 -6.61945,13.83932 -6.35017,6.2445 -6.35017,179.10175 0,174.99823 -0.41114,164.6772 7.17604,180.14436 6.64789,13.55234 20.67078,26.88271 34.43874,32.73799 2.13687,0.90878 7.03522,2.49505 10.88522,3.52506 6.67567,1.78596 12.46736,1.86323 125,1.6676 l 118,-0.20514 8,-2.81594 z M 313.79881,578.3498 c -4.36933,-2.66415 -5.83214,-5.24421 -8.15343,-14.38074 -1.09507,-4.31021 -2.20494,-8.05063 -2.46637,-8.31206 -0.26143,-0.26143 -3.87843,0.2276 -8.03777,1.08673 -4.15934,0.85914 -9.06106,1.56207 -10.89271,1.56207 -4.27397,0 -11.57481,-3.72817 -14.10573,-7.20309 -2.11905,-2.90942 -2.95157,-11.43884 -1.08429,-11.1089 8.96655,1.58435 19.9035,2.38782 25.03007,1.83882 3.52325,-0.37731 6.4059,-0.81332 6.4059,-0.96891 0,-0.15558 -1.125,-5.80665 -2.5,-12.55792 -2.22227,-10.91136 -3.39488,-27 -1.96788,-27 0.29266,0 2.04182,0.63079 3.887,1.40176 2.69813,1.12735 3.66105,2.35086 4.91887,6.25 0.8602,2.66653 1.85345,6.64824 2.20724,8.84824 1.58882,9.8799 4.71921,21.49856 5.78809,21.48286 1.77522,-0.0261 14.26695,-3.38882 22.53315,-6.06588 l 7.36647,-2.38567 -0.46742,-7.28326 c -0.25707,-4.0058 -0.74578,-7.56164 -1.08601,-7.90187 -0.34023,-0.34024 -2.98467,0.23194 -5.87654,1.27149 -5.16868,1.85801 -5.27206,1.97489 -6.09041,6.88621 -0.45787,2.74787 -1.24487,5.41299 -1.74889,5.92249 -2.88494,2.91631 -8.14847,-9.26361 -11.39174,-26.36076 -1.90175,-10.02522 -2.05507,-26.55133 -0.27893,-30.06561 1.14677,-2.269 1.89906,-2.51735 8.14165,-2.68778 9.67708,-0.26419 14.10737,-1.47643 39.56535,-10.82613 12.375,-4.54485 24.94418,-8.98847 27.9315,-9.87472 11.60621,-3.44322 20.0685,-0.85866 20.0685,6.12934 0,0.86743 -2.86409,4.31812 -6.36466,7.66822 -5.56359,5.32445 -6.51377,6.7833 -7.54949,11.59107 -1.24381,5.77377 -3.00695,26.57693 -3.05668,36.06559 l -0.0292,5.56559 15.25,0.003 c 13.78326,0.002 16.11554,0.267 24.24913,2.75223 23.4483,7.16465 33.15652,16.03734 29.53945,26.99717 -4.04726,12.26331 -42.85358,33.64404 -60.99868,33.60783 -9.55033,-0.0191 -37.55764,-7.7687 -50.47327,-13.966 l -5.93336,-2.847 -3.16103,2.41103 c -2.09017,1.59425 -4.48412,2.4123 -7.06663,2.41477 -5.0739,0.005 -9.71736,2.90099 -11.42853,7.12799 -2.21584,5.47367 -5.1561,6.27598 -10.67275,2.91227 z m 18.82118,-21.20789 9.87449,-5.16389 0,-4.33611 c 0,-5.37642 0.0678,-5.37434 -15,-0.46166 -10.26106,3.3455 -11.47444,3.98459 -11.26275,5.93207 0.27506,2.53049 4.3481,9.16286 5.63826,9.1811 0.48153,0.007 5.31903,-2.31137 10.75,-5.15151 z m 61.17387,1.70283 c 11.86438,-3.45009 23.05752,-8.90496 28.42531,-13.85282 7.55732,-6.96609 9.20404,-12.37626 4.67107,-15.34638 -2.36888,-1.55215 -3.65674,-1.59313 -14.25,-0.45352 -16.65459,1.79168 -16.03187,1.54399 -15.41646,6.13221 0.87676,6.53672 -0.49472,10.70163 -5.11013,15.51854 -3.50685,3.65995 -4.92185,4.46303 -7.86372,4.46303 -3.00426,0 -4.11439,-0.66539 -6.82942,-4.0934 -3.71967,-4.69646 -5.23523,-4.74292 -14.61639,-0.44808 -5.1456,2.35573 -13.25488,8.30489 -13.29161,9.75104 -0.0239,0.94137 14.12194,1.59645 25.98197,1.20319 6.44027,-0.21355 12.33407,-1.13913 18.29938,-2.87381 z m -29.89381,-14.65043 c 9.58045,-3.46877 12.59443,-5.33842 12.59443,-7.81261 0,-1.83399 -0.19688,-1.83498 -8.40111,-0.0421 -17.04209,3.72415 -16.59889,3.50862 -16.59889,8.07213 0,4.61506 -0.9892,4.6324 12.40557,-0.21742 z m -2.96936,-18.8265 c 3.88509,-1.0659 8.99717,-2.43886 11.36018,-3.05104 l 4.2964,-1.11304 -0.2964,-6.19897 -0.29639,-6.19896 -3.5,0.28511 c -9.77109,0.79596 -18.60609,2.59963 -19.75,4.03197 -1.64194,2.05595 -1.69648,14.18292 -0.0638,14.18292 0.65242,0 4.36492,-0.8721 8.25,-1.93799 z m -20.34326,-24.05876 c -0.13355,-4.11754 -0.40394,-7.64757 -0.60088,-7.84451 -0.66324,-0.66325 -7.49668,1.98872 -9.00121,3.49326 -1.44751,1.44751 -2.20189,12.30364 -0.94248,13.56304 0.3016,0.30161 2.85215,0.0368 5.66788,-0.58848 l 5.1195,-1.13687 -0.24281,-7.48644 z m 31.40705,-0.80778 4,0.27336 0.5773,-6.48442 c 0.31752,-3.56642 0.31752,-6.75223 0,-7.07956 -0.81654,-0.84179 -20.16615,0.78231 -21.14931,1.77516 -0.95538,0.96478 -3.05946,13.29826 -2.43974,14.30098 0.23347,0.37776 3.70663,-0.15594 7.71812,-1.18602 4.0115,-1.03007 9.09363,-1.74985 11.29363,-1.5995 z m -35.64922,-12.2933 c 3.06364,-1.06799 3.14922,-1.262 3.14922,-7.13929 l 0,-6.04146 -5.13561,0.60824 c -2.82459,0.33453 -5.32729,0.7999 -5.56155,1.03417 -0.23427,0.23426 -0.11512,3.17324 0.26478,6.53105 0.75641,6.68582 1.33232,7.08177 7.28316,5.00729 z m 33.14922,-7.78572 8.5,-0.61645 0.59,-5.5 c 0.3245,-3.025 0.48873,-5.63577 0.36495,-5.80172 -0.28404,-0.38079 -25.37277,4.38621 -25.90952,4.92296 -0.21799,0.21798 0.12263,2.34063 0.75691,4.71699 1.10655,4.1457 1.27562,4.29178 4.17546,3.60766 1.66221,-0.39214 6.8472,-0.99039 11.5222,-1.32944 z m -67.5,-14.79351 c -7.87544,-0.6711 -17.05636,-2.49429 -20.29405,-4.03009 -3.81608,-1.81016 -6.46121,-6.25505 -6.01596,-10.10925 l 0.31001,-2.6836 30,-0.6852 c 16.5,-0.37686 31.94125,-0.97125 34.31389,-1.32085 4.22107,-0.62198 4.30057,-0.70407 3.69464,-3.8148 -0.3777,-1.93907 -2.13356,-4.51169 -4.50142,-6.59533 l -3.88216,-3.41619 8.4914,-9.02037 c 4.67027,-4.96121 10.10612,-11.63643 12.07966,-14.83382 1.97355,-3.19739 3.96516,-5.81344 4.4258,-5.81344 1.645,0 5.06433,8.35879 5.12745,12.53441 0.0699,4.62401 -2.8729,11.3166 -6.8122,15.49248 -1.95155,2.06875 -2.27419,3.2019 -1.77955,6.25 0.68337,4.21116 1.16281,4.3444 7.66282,2.12963 5.40884,-1.84298 7.93124,-4.89343 10.89645,-13.17757 3.25278,-9.08755 2.82368,-15.84597 -1.5546,-24.4851 -2.01913,-3.98412 -3.66913,-7.53369 -3.66666,-7.88793 0.006,-0.79884 13.64585,-11.18147 16.84762,-12.82396 3.13099,-1.60619 6.37723,-0.65538 10.6896,3.13093 9.58749,8.41793 8.64159,18.74094 -3.21214,35.05532 -2.51032,3.45499 -5.94768,7.74429 -7.63858,9.53179 -1.69089,1.7875 -2.80972,3.25 -2.48629,3.25 0.32344,0 6.38533,-2.19324 13.47088,-4.87387 35.8586,-13.56616 46.57425,-15.77729 55.01068,-11.35123 4.4174,2.31753 5.87561,4.88605 4.92475,8.67457 -1.33941,5.33662 -13.83727,9.1188 -33.3147,10.0819 -22.73385,1.12412 -27.47806,2.45143 -62.89309,17.59596 -12.70816,5.43439 -26.61764,10.7789 -30.90996,11.87669 -7.39301,1.89081 -17.09313,2.33221 -28.98429,1.31892 z m 18.58835,-115.4139 c -8.21776,-3.28549 -22.50958,-16.69657 -35.44039,-33.25634 -9.06767,-11.61247 -23.64796,-33.17606 -23.64796,-34.97427 0,-7.07408 8.46576,-6.09711 19.52583,2.25332 l 5.11585,3.86251 28.42916,-7.43537 c 15.63604,-4.08945 35.04134,-9.10565 43.1229,-11.14713 11.64014,-2.9404 14.88768,-4.13302 15.627,-5.73886 0.51329,-1.1149 2.15361,-3.4774 3.64515,-5.25 4.13854,-4.91837 8.22382,-4.51837 13.35177,1.30729 l 3.98763,4.53019 10.34736,0.90928 c 24.93083,2.19081 44.44783,8.96475 56.69383,19.67726 9.23689,8.08021 11.3777,16.04801 6.75371,25.13632 -2.98598,5.86883 -20.37683,25.28037 -27.69693,30.9151 -8.57713,6.60235 -13.10326,8.25429 -22.68538,8.2797 -5.10074,0.0135 -9.64392,-0.54704 -11.82733,-1.45932 -3.1645,-1.32222 -3.51006,-1.83123 -3.21788,-4.74001 l 0.32733,-3.25873 -8,-1.18487 c -4.4,-0.65168 -12.46457,-1.21868 -17.92126,-1.25999 -8.03039,-0.0608 -10.28143,0.25083 -11.81105,1.63512 -1.55108,1.4037 -2.04041,1.46652 -2.73015,0.3505 -1.98221,-3.20728 -27.85963,5.05862 -29.90751,9.55321 -0.90697,1.9906 -1.79508,2.37554 -5.35859,2.32266 -2.34929,-0.0349 -5.35668,-0.49727 -6.68309,-1.02757 z m 107.74615,-34.96702 c 5.28124,-6.02181 8.50542,-12.29567 7.67058,-14.926 -1.35639,-4.27361 -11.29895,-13.65039 -17.35654,-16.36887 -6.17091,-2.76934 -14.12062,-4.64715 -19.67374,-4.64715 -2.96765,0 -3.31315,0.32813 -3.94862,3.75 -1.10859,5.96961 -7.33461,21.9524 -12.41156,31.86169 l -4.66831,9.11168 10.02685,0.61565 c 11.50226,0.70623 20.04336,2.91395 21.73158,5.61721 1.07506,1.72145 1.69199,1.38605 7.89923,-4.29447 3.7032,-3.38897 8.53194,-8.21285 10.73053,-10.71974 z m -86.71342,14.17908 c 0.34159,-0.3416 0.0379,-5.3461 -0.67489,-11.1211 -0.71278,-5.775 -1.60926,-14.67553 -1.99217,-19.77896 -0.59376,-7.9136 -0.93589,-9.20931 -2.32511,-8.80569 -2.09116,0.60757 -21.81292,3.32748 -29.62891,4.08625 -3.3,0.32037 -7.54604,0.82463 -9.43565,1.12058 l -3.43566,0.5381 18.43566,17.81698 18.43565,17.81698 5,-0.52602 c 2.75,-0.28931 5.27949,-0.80551 5.62108,-1.14712 z m 25.5874,-4.51024 c 0.11466,-0.10696 0.8654,-5.35067 1.66832,-11.65267 1.87063,-14.68235 2.45674,-30.50424 1.1232,-30.32014 -0.55,0.0759 -5.35404,1.11775 -10.67565,2.31515 l -9.67565,2.1771 2.42565,3.5744 c 2.93114,4.31927 3.19843,11.87943 0.912,25.7953 -0.81331,4.95 -1.48045,9.49026 -1.48254,10.08946 -0.003,0.75594 2.3687,0.64961 7.74619,-0.34733 4.2625,-0.79024 7.84381,-1.52431 7.95848,-1.63127 z"
         id="path3190"
         inkscape:connector-curvature="0" />
      <path
         style="fill:#871a1f"
         d="m 248.32534,628.29667 c -16.2812,-2.79636 -29.29641,-9.40155 -40.33086,-20.46781 -8.88772,-8.91334 -13.3257,-15.75154 -17.32079,-26.68846 l -2.67921,-7.3346 -0.27936,-164 c -0.31227,-183.32081 -0.75381,-171.24836 6.81328,-186.28688 8.92389,-17.73496 23.7901,-30.02257 44.00132,-36.36911 l 7.46476,-2.34401 120,0 120,0 7.5,2.34186 c 24.87852,7.76828 42.33301,25.34206 48.9747,49.30941 1.99574,7.20185 2.02508,9.68085 2.01052,169.82863 -0.0165,181.44306 0.50024,168.28171 -7.22506,184.0201 -3.31238,6.74816 -5.93371,10.26908 -12.71879,17.08364 -7.11947,7.15042 -10.13231,9.36182 -18.04393,13.24412 -17.93152,8.79914 -6.66412,8.11879 -137.49744,8.30233 -63.8,0.0895 -118.10112,-0.19815 -120.66914,-0.63922 z m 245.66914,-6.30681 c 23.51541,-8.27724 41.2727,-27.95122 45.93389,-50.8919 1.38263,-6.80482 1.56408,-26.13554 1.54875,-165 -0.0192,-173.89294 0.32943,-164.28546 -6.48192,-178.62822 -8.78747,-18.50393 -25.54788,-32.15972 -46.50072,-37.88717 -6.05377,-1.65479 -14.46351,-1.77677 -122.5,-1.77677 -130.13309,0 -120.89183,-0.50394 -137,7.47082 -14.7867,7.32052 -25.05007,17.71406 -32.14983,32.55756 -6.61945,13.83932 -6.35017,6.2445 -6.35017,179.10175 0,174.99823 -0.41114,164.6772 7.17604,180.14436 6.64789,13.55234 20.67078,26.88271 34.43874,32.73799 2.13687,0.90878 7.03522,2.49505 10.88522,3.52506 6.67567,1.78596 12.46736,1.86323 125,1.6676 l 118,-0.20514 8,-2.81594 z m -179,-43.19986 c -5.46872,-2.81493 -6.53947,-4.87642 -10.4572,-20.13294 l -1.06535,-4.14874 -4.35166,1.30966 c -12.22763,3.67998 -21.64418,2.66943 -27.23652,-2.92291 -3.19222,-3.19222 -5.18074,-9.08434 -4.05549,-12.01669 0.45261,-1.1795 1.24748,-1.2439 4.35987,-0.35327 3.93406,1.12577 26.7028,1.7155 27.7021,0.71752 0.31016,-0.30974 -0.54148,-6.15974 -1.89253,-13 -1.35105,-6.84026 -2.46698,-15.72965 -2.47984,-19.75422 -0.0228,-7.13047 0.0341,-7.29977 2.22662,-6.62761 5.52049,1.6924 6.86295,4.51427 10.26923,21.58593 1.49534,7.4944 3.07322,14.19964 3.50639,14.90053 0.88101,1.4255 7.55634,0.0746 22.86903,-4.62793 l 8.35852,-2.56693 -0.47753,-7.44091 c -0.26264,-4.0925 -0.73006,-7.69345 -1.03872,-8.0021 -0.30865,-0.30865 -3.00343,0.20866 -5.98839,1.14959 -5.41861,1.70807 -5.42866,1.71889 -6.33787,6.82588 -1.92762,10.82733 -6.93798,4.80666 -11.55204,-13.88144 -1.72626,-6.99176 -2.23679,-12.07996 -2.29006,-22.82399 -0.082,-16.5327 -0.0837,-16.52998 10.77835,-16.54713 8.30614,-0.0131 15.7277,-2.07055 39.15309,-10.85421 26.13081,-9.79809 32.13806,-11.57319 37.22523,-10.99979 5.77047,0.65041 9.84121,4.33447 8.90613,8.06013 -0.34823,1.38746 -2.86562,4.24272 -5.59421,6.34502 -7.62556,5.87527 -9.32641,12.20018 -10.60631,39.44141 l -0.68686,14.61906 14.87801,-0.10761 c 12.86511,-0.0931 15.96036,0.20944 22.87801,2.23584 16.63716,4.87356 28.61404,12.16632 31.52592,19.19624 1.657,4.00033 0.0118,9.6859 -4.18623,14.46721 -3.92938,4.47532 -18.6956,14.36163 -28.15556,18.85077 -13.51883,6.41524 -19.39097,8.05328 -28.68413,8.00148 -11.9316,-0.0665 -33.66712,-5.92331 -50.11101,-13.50279 l -6.79816,-3.13347 -3.12214,2.6271 c -2.25308,1.89585 -4.28379,2.63697 -7.29542,2.66255 -5.69355,0.0483 -8.57967,1.89383 -11.06733,7.07684 -2.3717,4.94143 -4.51494,5.73507 -9.10594,3.37192 z m 27.30186,-31.43329 c 0.22735,-3.78689 -0.0195,-4.91694 -1,-4.57823 -0.71602,0.24735 -6.47686,2.06975 -12.80186,4.04979 -6.325,1.98004 -12.07824,3.78942 -12.78497,4.02084 -1.39471,0.45669 0.1793,4.29087 3.98118,9.69788 l 1.92743,2.74119 10.18818,-5.45177 10.18818,-5.45177 0.30186,-5.02793 z m 53.72102,10.8981 c 17.52611,-5.6016 27.86511,-11.86889 31.57444,-19.13977 2.52566,-4.9507 2.15859,-7.81953 -1.24405,-9.72305 -2.3025,-1.28807 -4.25342,-1.30812 -15,-0.15416 -6.7943,0.72957 -12.83875,1.51191 -13.43212,1.73854 -0.66795,0.25512 -0.9078,2.47466 -0.62974,5.82768 0.37563,4.52952 0.0218,6.14472 -2.1623,9.87166 -2.77201,4.73008 -7.96767,8.63009 -11.49714,8.63009 -2.06965,0 -3.65951,-1.26893 -7.46499,-5.95811 -1.36436,-1.68119 -2.52152,-2.12098 -4.52585,-1.72012 -6.26518,1.25304 -13.97124,4.94935 -18.60086,8.92216 l -4.95974,4.25607 8.95974,0.6289 c 17.17534,1.20557 28.0325,0.31993 38.98261,-3.17989 z m -32.79635,-13.57557 c 10.53842,-3.9104 13.27347,-5.66256 13.27347,-8.50343 0,-2.04982 0.36371,-2.08591 -15.13357,1.5018 l -9.36643,2.16838 -0.3075,4.22991 c -0.17769,2.44431 0.129,4.2299 0.72653,4.2299 0.56871,0 5.43209,-1.63195 10.8075,-3.62656 z m -2.22653,-19.24963 c 3.85,-1.09191 8.9125,-2.4838 11.25,-3.09309 l 4.25,-1.10781 0,-6.50677 0,-6.50677 -3.25,0.52384 c -1.7875,0.28811 -6.85,1.02773 -11.25,1.64361 -4.4,0.61588 -8.5625,1.58064 -9.25,2.14392 -0.79362,0.65023 -1.25,3.70626 -1.25,8.37032 0,5.43111 0.32586,7.23823 1.25,6.9321 0.6875,-0.22774 4.4,-1.30745 8.25,-2.39935 z m -22.50805,-16.10794 c 2.41463,-0.63512 2.48148,-0.88599 2.15469,-8.08566 -0.18549,-4.08662 -0.48922,-7.58756 -0.67495,-7.77987 -0.71904,-0.74455 -8.03689,2.1528 -9.22169,3.65113 -0.69968,0.88483 -1.25,4.34732 -1.25,7.86466 l 0,6.28387 3.25,-0.63933 c 1.7875,-0.35164 4.37138,-0.93429 5.74195,-1.2948 z m 23.99772,-7.55267 c 3.80544,-0.96294 8.045,-1.39346 10.25,-1.04087 l 3.76033,0.60131 0.0137,-5.26182 c 0.008,-2.894 0.28095,-6.25886 0.60765,-7.47745 0.56447,-2.10552 0.35257,-2.19334 -4.26366,-1.76696 -2.6717,0.24678 -7.84867,0.71215 -11.50437,1.03417 l -6.64674,0.58549 -0.65374,4.68147 c -0.35956,2.5748 -0.91533,6.19311 -1.23504,8.04067 -0.50996,2.9469 -0.35034,3.29091 1.30047,2.80268 1.03498,-0.30609 4.80213,-1.2955 8.37145,-2.19869 z m -27.98967,-12.83486 4.5,-1.3413 0.30149,-6.28891 0.30149,-6.28891 -5.1871,0.61434 c -2.85291,0.33788 -5.36942,0.79664 -5.59224,1.01947 -0.33398,0.33398 0.70819,13.69012 1.06445,13.64179 0.0615,-0.008 2.13691,-0.61876 4.61191,-1.35648 z m 34.66509,-8.29294 9.1651,-0.59903 0.38447,-5.61819 c 0.21146,-3.09 0.25959,-5.79576 0.10695,-6.0128 -0.2254,-0.32051 -15.78166,2.43028 -24.95166,4.41215 -2.09112,0.45195 -2.10026,0.54396 -0.5,5.03523 1.46336,4.10705 1.8857,4.51386 4.13005,3.97827 1.375,-0.32813 6.62429,-0.86617 11.66509,-1.19563 z m -69.39754,-15.30233 c -10.84107,-1.23688 -17.05715,-2.98515 -20.29203,-5.70712 -3.38743,-2.85034 -5.07758,-9.01396 -2.85735,-10.42014 0.76,-0.48135 9.93183,-0.90847 20.38183,-0.94916 19.52752,-0.076 46.13887,-1.26219 46.97032,-2.09364 0.25742,-0.25742 0.19722,-2.13686 -0.13377,-4.17655 -0.45065,-2.77703 -1.56157,-4.41433 -4.42285,-6.51854 l -3.82104,-2.81002 7.57841,-7.42895 c 4.16812,-4.08592 9.70107,-10.69305 12.29545,-14.68252 4.38208,-6.73847 4.82568,-7.12904 6.24677,-5.5 6.08094,6.97081 5.29762,15.66227 -2.2811,25.31009 -2.38057,3.0305 -2.70952,4.1847 -2.22411,7.8037 0.3345,2.49391 1.02835,4.08427 1.68079,3.85255 0.61112,-0.21704 3.54861,-1.25371 6.52776,-2.3037 5.07541,-1.78881 5.59382,-2.28732 8.2293,-7.9134 5.75229,-12.27971 5.49259,-23.36667 -0.76952,-32.85241 l -2.54606,-3.85674 2.83482,-2.97297 c 4.96082,-5.20256 16.14568,-12.07899 18.61935,-11.44713 3.39128,0.86624 9.26544,6.16542 11.08508,10.00003 3.80357,8.01543 0.11669,18.43934 -11.71915,33.13355 -3.5441,4.4 -6.33426,8.11855 -6.20036,8.26344 0.1339,0.14489 9.43373,-3.08764 20.66627,-7.18341 11.23255,-4.09576 24.15618,-8.41458 28.71917,-9.59736 7.34564,-1.90408 8.88839,-2.00849 13.46283,-0.91109 5.64505,1.35422 10.70164,5.49461 10.70164,8.7626 0,2.84128 -5.23615,6.85999 -11.29742,8.67068 -2.86142,0.85479 -11.05258,1.99816 -18.20258,2.54081 -29.78727,2.26073 -32.74088,3.04734 -67.5,17.97681 -28.47874,12.23197 -31.44981,13.14497 -44,13.52108 -5.775,0.17307 -13.7546,-0.0566 -17.73245,-0.51049 z m 20.8208,-115.12403 c -8.21776,-3.28549 -22.50958,-16.69657 -35.44039,-33.25634 -9.06767,-11.61247 -23.64796,-33.17606 -23.64796,-34.97427 0,-7.07408 8.46576,-6.09711 19.52583,2.25332 l 5.11585,3.86251 28.42916,-7.43537 c 15.63604,-4.08945 35.04134,-9.10565 43.1229,-11.14713 11.64014,-2.9404 14.88768,-4.13302 15.627,-5.73886 0.51329,-1.1149 2.15361,-3.4774 3.64515,-5.25 4.13854,-4.91837 8.22382,-4.51837 13.35177,1.30729 l 3.98763,4.53019 10.34736,0.90928 c 24.93083,2.19081 44.44783,8.96475 56.69383,19.67726 9.23689,8.08021 11.3777,16.04801 6.75371,25.13632 -2.98598,5.86883 -20.37683,25.28037 -27.69693,30.9151 -8.57713,6.60235 -13.10326,8.25429 -22.68538,8.2797 -5.10074,0.0135 -9.64392,-0.54704 -11.82733,-1.45932 -3.1645,-1.32222 -3.51006,-1.83123 -3.21788,-4.74001 l 0.32733,-3.25873 -8,-1.18487 c -4.4,-0.65168 -12.46457,-1.21868 -17.92126,-1.25999 -8.03039,-0.0608 -10.28143,0.25083 -11.81105,1.63512 -1.55108,1.4037 -2.04041,1.46652 -2.73015,0.3505 -1.98221,-3.20728 -27.85963,5.05862 -29.90751,9.55321 -0.90697,1.9906 -1.79508,2.37554 -5.35859,2.32266 -2.34929,-0.0349 -5.35668,-0.49727 -6.68309,-1.02757 z m 107.74615,-34.96702 c 5.28124,-6.02181 8.50542,-12.29567 7.67058,-14.926 -1.35639,-4.27361 -11.29895,-13.65039 -17.35654,-16.36887 -6.17091,-2.76934 -14.12062,-4.64715 -19.67374,-4.64715 -2.96765,0 -3.31315,0.32813 -3.94862,3.75 -1.10859,5.96961 -7.33461,21.9524 -12.41156,31.86169 l -4.66831,9.11168 10.02685,0.61565 c 11.50226,0.70623 20.04336,2.91395 21.73158,5.61721 1.07506,1.72145 1.69199,1.38605 7.89923,-4.29447 3.7032,-3.38897 8.53194,-8.21285 10.73053,-10.71974 z m -86.71342,14.17908 c 0.34159,-0.3416 0.0379,-5.3461 -0.67489,-11.1211 -0.71278,-5.775 -1.60926,-14.67553 -1.99217,-19.77896 -0.59376,-7.9136 -0.93589,-9.20931 -2.32511,-8.80569 -2.09116,0.60757 -21.81292,3.32748 -29.62891,4.08625 -3.3,0.32037 -7.54604,0.82463 -9.43565,1.12058 l -3.43566,0.5381 18.43566,17.81698 18.43565,17.81698 5,-0.52602 c 2.75,-0.28931 5.27949,-0.80551 5.62108,-1.14712 z m 25.5874,-4.51024 c 0.11466,-0.10696 0.8654,-5.35067 1.66832,-11.65267 1.87063,-14.68235 2.45674,-30.50424 1.1232,-30.32014 -0.55,0.0759 -5.35404,1.11775 -10.67565,2.31515 l -9.67565,2.1771 2.42565,3.5744 c 2.93114,4.31927 3.19843,11.87943 0.912,25.7953 -0.81331,4.95 -1.48045,9.49026 -1.48254,10.08946 -0.003,0.75594 2.3687,0.64961 7.74619,-0.34733 4.2625,-0.79024 7.84381,-1.52431 7.95848,-1.63127 z"
         id="path3188"
         inkscape:connector-curvature="0" />
      <path
         style="fill:#010101"
         d="m 246.24811,627.74166 c -23.11512,-4.22762 -42.18543,-18.73658 -52.35729,-39.83417 -6.84214,-14.19136 -6.48514,-3.52026 -6.17572,-184.60169 l 0.27938,-163.5 2.70675,-7.29799 c 8.7302,-23.53853 27.65262,-40.36304 51.94618,-46.18695 8.09829,-1.94141 11.77455,-2.00105 123.34707,-2.00105 110.13036,0 115.33876,0.0816 123,1.92777 9.97164,2.40287 16.12723,5.07672 24.70337,10.73059 12.23237,8.06424 22.34596,21.06191 27.61742,35.49303 l 2.67921,7.3346 0.26462,164.41864 c 0.29283,181.94996 0.72825,169.07166 -6.21346,183.77104 -6.95221,14.72162 -18.06554,25.92222 -32.96853,33.22741 -16.45271,8.06485 -6.12739,7.47699 -135.58263,7.71933 -96.03421,0.17977 -116.80553,-0.0226 -123.24637,-1.20056 z m 241.32326,-3.86478 c 23.3177,-4.94295 42.45552,-21.98957 50.60019,-45.07108 l 2.82292,-8 0.27869,-160.5 c 0.31294,-180.23062 0.7366,-169.11479 -7.05085,-185 -3.2732,-6.67682 -5.88944,-10.21594 -12.19741,-16.5 -11.98919,-11.94376 -24.17357,-18.1565 -40.13248,-20.46331 -4.24439,-0.61351 -48.87467,-1.00469 -116.01696,-1.01688 -118.53649,-0.0215 -119.07976,10e-4 -132.68787,5.52357 -18.23785,7.40134 -33.1186,23.18341 -39.43736,41.8261 l -2.75576,8.13052 0,163.5 c 0,155.71587 0.0873,163.78281 1.83325,169.44028 7.02735,22.77072 23.43963,39.43056 45.75309,46.44323 3.52751,1.10862 7.53866,2.20208 8.91366,2.4299 1.375,0.22783 54.475,0.46769 118,0.53304 95.30083,0.098 116.6502,-0.125 122.07689,-1.27537 z M 316.58478,347.5558 c -11.34926,-6.68737 -26.10497,-22.88142 -43.79764,-48.06688 -10.78062,-15.3462 -12.06091,-17.73812 -10.67725,-19.94807 2.47673,-3.95581 10.24914,-1.75234 19.08263,5.40991 l 4.19805,3.40379 16.30195,-4.09144 c 8.96608,-2.25029 26.87696,-6.96097 39.80196,-10.46818 12.925,-3.5072 25.19969,-6.67939 27.2771,-7.0493 2.39692,-0.42682 4.17645,-1.45222 4.86999,-2.8062 0.60109,-1.1735 2.47718,-3.59613 4.16907,-5.38363 4.32675,-4.57124 7.09296,-4.27133 12.31388,1.33507 l 4.26982,4.58507 10.80007,0.93181 c 23.89116,2.06127 46.29418,10.30582 57.19966,21.05007 13.57185,13.3712 10.83944,22.18151 -14.55852,46.94207 -13.3343,12.99966 -17.29785,15.1995 -28.27129,15.69113 -5.5046,0.24662 -10.00047,-0.0968 -12.56978,-0.96002 -3.6284,-1.21911 -4.00461,-1.66825 -4.04966,-4.83458 l -0.0497,-3.49062 -7.45034,-1.18724 c -11.11899,-1.77185 -27.99604,-1.66948 -30.64495,0.18589 -1.528,1.07026 -2.25081,1.16509 -2.52859,0.33174 -1.03026,-3.09078 -26.28325,5.00115 -29.88096,9.5749 -3.03399,3.85709 -7.90292,3.5012 -15.80554,-1.15529 z m 108.15285,-28.151 c 5.53535,-5.8167 9.15397,-10.57198 10.27128,-13.49762 1.71619,-4.49376 1.71178,-4.53967 -0.85646,-8.92204 -3.02528,-5.16225 -8.07855,-9.83293 -13.79179,-12.74761 -4.57558,-2.33429 -15.55329,-4.90375 -20.86618,-4.88398 l -3.5,0.013 -3.93953,12.20286 c -2.16675,6.71157 -6.25574,16.76137 -9.08666,22.33289 l -5.14713,10.13004 10.10471,0.65328 c 12.07425,0.78062 16.64472,1.9214 20.30212,5.06736 2.70094,2.32325 2.77104,2.32972 5.35011,0.49325 1.43732,-1.02346 6.45911,-5.90211 11.15953,-10.84145 z m -83.4242,10.33128 c 0.72542,-0.23124 1.09037,-1.21015 0.81099,-2.17535 -0.27938,-0.96521 -1.27574,-9.85493 -2.21414,-19.75493 -0.9384,-9.9 -1.78279,-18.10444 -1.87642,-18.23209 -0.0936,-0.12765 -3.96579,0.41632 -8.60481,1.20882 -4.63901,0.7925 -14.46589,2.12827 -21.83751,2.96837 -7.37162,0.84009 -13.55387,1.67837 -13.73833,1.86284 -0.18447,0.18447 6.29685,6.45496 14.40294,13.93443 8.10608,7.47947 16.52898,15.44682 18.71754,17.70523 3.78603,3.90684 4.1987,4.07699 8.5,3.50465 2.48644,-0.33085 5.11432,-0.79074 5.83974,-1.02197 z m 22.29711,-3.88474 3.61605,-0.58591 1.1654,-7.22982 c 1.18884,-7.37527 3.29477,-34.87087 2.7152,-35.45044 -0.40353,-0.40352 -20.71407,4.48865 -21.37367,5.14825 -0.26835,0.26835 0.69309,1.89144 2.13653,3.60687 2.21368,2.63082 2.62383,4.08513 2.62062,9.29224 -0.002,3.3953 -0.66923,10.22327 -1.48254,15.17327 -2.13229,12.97777 -2.26991,12.40222 2.73635,11.44449 2.3375,-0.44717 5.87723,-1.0767 7.86606,-1.39895 z"
         id="path3186"
         inkscape:connector-curvature="0" />
    </g>
  </g>
</svg>
