<?xml version="1.0" encoding="UTF-8" standalone="no"?>
<!-- Created with Inkscape (http://www.inkscape.org/) -->

<svg
   xmlns:dc="http://purl.org/dc/elements/1.1/"
   xmlns:cc="http://creativecommons.org/ns#"
   xmlns:rdf="http://www.w3.org/1999/02/22-rdf-syntax-ns#"
   xmlns:svg="http://www.w3.org/2000/svg"
   xmlns="http://www.w3.org/2000/svg"
   xmlns:sodipodi="http://sodipodi.sourceforge.net/DTD/sodipodi-0.dtd"
   xmlns:inkscape="http://www.inkscape.org/namespaces/inkscape"
   width="358.84296"
   height="445.79416"
   id="svg2"
   version="1.1"
   inkscape:version="0.48.5 r10040"
   sodipodi:docname="char2.svg">
  <defs
     id="defs4" />
  <sodipodi:namedview
     id="base"
     pagecolor="#ffffff"
     bordercolor="#666666"
     borderopacity="1.0"
     inkscape:pageopacity="0.0"
     inkscape:pageshadow="2"
     inkscape:zoom="0.56054688"
     inkscape:cx="291.86334"
     inkscape:cy="269.56803"
     inkscape:document-units="px"
     inkscape:current-layer="layer1"
     showgrid="false"
     fit-margin-top="0"
     fit-margin-left="0"
     fit-margin-right="0"
     fit-margin-bottom="0"
     inkscape:window-width="958"
     inkscape:window-height="1078"
     inkscape:window-x="1920"
     inkscape:window-y="0"
     inkscape:window-maximized="0" />
  <metadata
     id="metadata7">
    <rdf:RDF>
      <cc:Work
         rdf:about="">
        <dc:format>image/svg+xml</dc:format>
        <dc:type
           rdf:resource="http://purl.org/dc/dcmitype/StillImage" />
        <dc:title></dc:title>
      </cc:Work>
    </rdf:RDF>
  </metadata>
  <g
     inkscape:label="Layer 1"
     inkscape:groupmode="layer"
     id="layer1"
     transform="translate(-312.47531,9.160839)">
    <g
       id="g3125"
       transform="translate(-151.63763,30.327526)">
      <path
         style="fill:#e0c5c6"
         d="m 520.60663,404.89764 c -21.24324,-4.63335 -39.65041,-18.88152 -49.08467,-37.9943 -7.9528,-16.11149 -7.47691,-3.76386 -7.18003,-186.29456 l 0.2647,-162.743485 2.75576,-8.130524 c 7.46393,-22.021352 26.87817,-39.964937 50.45752,-46.635302 7.78436,-2.202118 7.82079,-2.20288 120.28672,-2.515175 75.89886,-0.210756 115.14899,0.03559 120.64215,0.757196 33.8271,4.443667 59.11117,29.088613 63.43043,61.827052 0.66195,5.017371 0.90894,62.699483 0.70951,165.696748 -0.34338,177.33084 0.36333,161.4235 -7.93011,178.5 -3.38935,6.9788 -5.76388,10.12708 -13.26814,17.59159 -10.41662,10.36147 -20.16199,15.92717 -33.9938,19.41425 -7.68714,1.93798 -11.19434,1.99192 -124.5,1.91466 -92.09723,-0.0628 -117.8505,-0.35442 -122.59004,-1.38815 z m 248,-5.38101 c 20.196,-6.77623 34.16511,-18.43203 42.5518,-35.50514 7.47639,-15.21996 7.04275,-3.38541 6.72915,-183.64619 l -0.28095,-161.500005 -2.67921,-7.334604 c -3.86518,-10.581278 -8.36208,-17.637044 -16.33612,-25.631822 -8.14411,-8.165288 -16.73184,-13.476993 -27.98467,-17.309162 l -8,-2.724412 -115.5,-0.289535 c -81.31329,-0.203836 -117.42393,0.03907 -122,0.820655 -25.67647,4.385502 -47.92671,24.694116 -54.74621,49.96888 -1.63754,6.069164 -1.75379,17.171484 -1.75379,167.499995 0,181.40692 -0.67893,165.58067 7.80761,182 4.81612,9.31798 15.87674,21.01752 24.88341,26.32079 6.59598,3.88382 17.31156,7.78071 24.92975,9.06608 3.04151,0.51317 55.35637,0.84362 120.37923,0.76038 l 115,-0.14725 7,-2.34867 z m -99.5,-43.06324 c -17.24786,-3.71323 -34.87124,-9.52925 -42.68659,-14.08733 -2.80902,-1.63827 -3.33359,-1.68138 -4.42717,-0.3637 -1.97194,2.37604 -6.40108,4.30256 -8.58109,3.73248 -1.10071,-0.28784 -3.65215,0.16643 -5.66987,1.00948 -2.8016,1.17058 -4.12889,2.6067 -5.61639,6.07691 -1.74741,4.07655 -2.28585,4.54369 -5.23335,4.54032 -4.17232,-0.005 -9.26153,-3.08226 -11.15632,-6.74637 -0.80734,-1.56122 -2.19827,-5.74361 -3.09097,-9.29422 -0.8927,-3.55061 -1.79522,-6.96695 -2.0056,-7.59184 -0.28002,-0.83172 -1.94332,-0.76893 -6.20758,0.23438 -6.99342,1.64544 -16.14083,1.80003 -20.00997,0.33817 -6.39943,-2.41787 -11.08066,-10.03796 -9.65533,-15.71692 0.5038,-2.0073 1.03362,-2.29731 3.22159,-1.76347 4.85677,1.18502 29.11864,1.86155 29.11864,0.81198 0,-0.54611 -1.125,-6.5167 -2.5,-13.26797 -1.375,-6.75126 -2.5,-15.36315 -2.5,-19.13752 0,-6.26861 0.17877,-6.86248 2.06574,-6.86248 3.14403,0 5.75307,1.74893 7.42117,4.97468 1.06724,2.06381 7.51309,30.05428 7.51309,32.62484 0,0.46675 9.43148,-1.92014 19.2424,-4.8698 l 10.74239,-3.22972 0.008,-7.19098 c 0.004,-3.95504 -0.3299,-7.38884 -0.7424,-7.63067 -0.4125,-0.24182 -3.1125,0.46688 -6,1.57491 -4.60427,1.7668 -5.25,2.35909 -5.25,4.81556 0,4.04983 -1.70791,7.93118 -3.48995,7.93118 -5.62352,0 -13.11802,-29.1489 -12.31057,-47.8804 0.36536,-8.4755 0.63877,-9.57021 2.83433,-11.34807 1.96919,-1.59454 3.32759,-1.8486 7.16352,-1.33974 6.74223,0.89439 14.22065,-1.10218 40.63602,-10.84891 26.81712,-9.89496 33.90495,-11.9102 38.7155,-11.00774 4.97801,0.93388 8.45115,3.98169 8.45115,7.4162 0,2.76968 -1.34718,4.39868 -9.2327,11.16412 -4.292,3.68235 -5.87735,11.58447 -6.48907,32.34454 l -0.53039,18 15.87608,0.0407 c 14.69301,0.0377 16.50949,0.25137 24.37608,2.86749 25.30458,8.41531 34.21054,18.6952 26.25,30.29961 -8.63505,12.58768 -38.5961,28.78901 -56.75,30.68735 -3.03584,0.31745 -8.33907,-0.19601 -13.5,-1.30709 z m -49.448,-31.3959 c 0.35561,-2.10483 0.44186,-4.03167 0.19166,-4.28187 -0.48479,-0.48478 -25.46198,6.97467 -26.35963,7.87232 -0.63652,0.6365 2.23727,6.51024 4.38247,8.95733 1.43185,1.63335 2.12627,1.41946 11.33213,-3.49043 9.34034,-4.9816 9.83757,-5.41243 10.45337,-9.05735 z m 53.448,9.85922 c 8.99647,-2.95066 20.42134,-8.33125 25.27805,-11.9048 3.40114,-2.50254 7.72195,-9.41971 7.72195,-12.36203 0,-3.93635 -2.32019,-4.62776 -13.28184,-3.95794 -5.61999,0.34341 -11.90566,0.91928 -13.96816,1.27971 l -3.75,0.65533 0,5.91881 c 0,6.54893 -1.40362,10.00727 -5.66072,13.94732 -6.47199,5.98997 -10.40819,6.09275 -14.76135,0.38546 -1.75892,-2.30605 -3.50855,-3.51328 -5.0918,-3.51328 -3.94259,0 -12.66832,3.90837 -17.42171,7.80341 -4.36023,3.57289 -4.39515,3.64909 -2.00105,4.36688 1.34015,0.40179 9.63663,0.60418 18.43663,0.44975 14.36802,-0.25215 16.86699,-0.56514 24.5,-3.06862 z m -24,-17.36119 c 4.18205,-2.01961 5.59899,-5.78258 1.84899,-4.9104 -1.29195,0.3005 -6.73649,1.54093 -12.09899,2.75653 l -9.75,2.2102 0,3.80687 0,3.80687 8.25,-2.98994 c 4.5375,-1.64445 9.825,-3.75053 11.75,-4.68013 z m -0.75,-18.40058 4.75,-1.13315 0,-5.94347 0,-5.94348 -5.75,0.66684 c -3.1625,0.36676 -8.3375,1.15216 -11.5,1.74533 l -5.75,1.07849 0,7.29931 0,7.29931 6.75,-1.96802 c 3.7125,-1.08242 8.8875,-2.47794 11.5,-3.10117 z m -34.58562,-12.93536 c 4.52116,-1.13844 4.54623,-1.16856 3.95382,-4.75 -0.3279,-1.98235 -0.60114,-5.27024 -0.60719,-7.30641 l -0.011,-3.70212 -4.5,1.66782 -4.5,1.66782 0,6.7843 c 0,3.73136 0.25073,6.7843 0.55718,6.7843 0.30645,0 2.60469,-0.51557 5.1072,-1.14571 z m 23.33562,-7.35429 c 3.025,-0.81194 7.8625,-1.4816 10.75,-1.48813 l 5.25,-0.0119 0,-3.375 c 0,-1.85624 0.29394,-4.84469 0.65319,-6.64096 l 0.6532,-3.26597 -9.4032,0.69612 c -5.17175,0.38287 -10.1288,0.90699 -11.01566,1.16471 -1.15504,0.33566 -1.88036,2.44762 -2.55681,7.44485 -0.51939,3.83694 -0.69378,6.97092 -0.38753,6.96439 0.30624,-0.007 3.03181,-0.6762 6.05681,-1.48814 z m -23,-14.09697 c 2.3663,-0.51948 2.48224,-0.85874 2.16784,-6.34384 l -0.33216,-5.79498 -4.66784,0.50094 c -2.56731,0.27553 -4.74745,0.5582 -4.84475,0.62816 -0.0973,0.07 0.0809,2.97037 0.396,6.4454 0.52886,5.83231 0.73472,6.27186 2.67691,5.71568 1.1572,-0.33139 3.229,-0.8495 4.604,-1.15136 z m 26.8129,-7.44599 c 3.3085,-0.65091 7.80201,-1.01309 9.98559,-0.80486 l 3.97013,0.37862 0.56579,-5.48196 c 0.31118,-3.01509 0.47574,-5.52324 0.36569,-5.57369 -0.11006,-0.0504 -5.95901,1.01669 -12.99767,2.37142 -10.82542,2.08352 -12.6914,2.70893 -12.10857,4.05826 0.37895,0.87735 0.9054,2.85969 1.16988,4.40522 0.29919,1.74829 0.96317,2.62498 1.7573,2.32025 0.70203,-0.26939 3.98337,-1.02237 7.29186,-1.67327 z m -66.8129,-14.60383 c -10.17065,-1.52331 -14.58085,-2.92431 -17.62836,-5.60006 -3.61536,-3.17432 -5.46342,-9.06137 -3.47025,-11.05453 0.79515,-0.79515 11.2267,-1.34499 33.67501,-1.77501 18.60517,-0.3564 32.93503,-1.03503 33.4858,-1.5858 1.90129,-1.9013 -0.15566,-6.78963 -4.10314,-9.75113 l -3.88327,-2.91332 8.82657,-9.23275 c 4.85461,-5.07802 10.53829,-12.05055 12.63039,-15.49452 l 3.80381,-6.26176 2.34392,2.90784 c 2.9768,3.69299 4.65914,9.78395 3.86765,14.00295 -0.33809,1.80217 -2.39972,5.94976 -4.58142,9.21687 -2.83304,4.24252 -3.96671,6.99515 -3.96671,9.63149 0,4.05625 -0.5174,3.9868 8,1.0738 4.41967,-1.51156 7.46717,-5.95259 10.15332,-14.79614 2.89371,-9.5269 1.532,-17.12598 -4.83114,-26.96039 -1.7704,-2.73621 -1.7685,-2.74261 1.70272,-5.74799 1.91131,-1.6548 6.53117,-5.08154 10.26636,-7.61497 6.3067,-4.27758 6.99884,-4.52027 9.70034,-3.40127 3.68708,1.52724 9.85869,7.47952 11.07666,10.68301 0.51246,1.34787 0.93174,4.62515 0.93174,7.28285 0,6.08423 -4.77833,15.7011 -12.61074,25.38036 -3.04541,3.76351 -5.39134,6.9588 -5.21318,7.10064 0.17815,0.14184 8.07538,-2.59867 17.54939,-6.09002 31.37574,-11.56254 39.64151,-13.18598 47.94385,-9.41641 10.04869,4.56247 7.66099,13.532 -4.55169,17.09865 -3.8748,1.13162 -14.63276,2.36849 -33.11763,3.80762 -14.06048,1.09467 -23.49974,4.08652 -53.5,16.95722 -29.38887,12.60841 -31.68871,13.22972 -48.35534,13.06338 -7.50456,-0.0749 -14.76966,-0.30467 -16.14466,-0.51061 z m -8.87924,-110.42849 c -16.65152,-2.92672 -23.88994,-11.53014 -15.72919,-18.69537 4.86076,-4.2678 11.87113,-5.70865 22.50929,-4.62635 24.13868,2.45579 39.22763,-0.61374 78.84619,-16.039615 16.95809,-6.60279 26.35393,-8.70002 41.62396,-9.29081 15.23522,-0.58945 21.70422,0.34076 30.25298,4.35023 9.68431,4.54206 18.38255,14.289025 18.37227,20.587365 -0.006,3.86304 -3.76162,8.78084 -8.26692,10.82602 -6.59495,2.99376 -13.38896,2.50332 -29.23565,-2.11042 -24.66871,-7.18227 -37.90024,-6.39754 -78.76824,4.67148 -38.43727,10.41065 -48.85837,12.21629 -59.60469,10.32747 z m 27.30835,-39.918425 c -7.76724,-1.13992 -9.42911,-2.37645 -9.42911,-7.01579 0,-5.28495 2.62724,-6.5618 17.51799,-8.5138 14.8729,-1.94967 37.95347,-6.74771 48.08696,-9.99643 4.34228,-1.3921 13.34227,-5.21965 19.99998,-8.505679 6.65771,-3.286025 12.83611,-5.974591 13.72976,-5.974591 2.92904,0 9.70276,3.20145 10.69448,5.054511 0.53396,0.997703 0.97083,3.146969 0.97083,4.776159 0,8.42472 -24.15337,19.18118 -59.74158,26.60531 -10.22342,2.13273 -32.15183,4.84981 -35.75842,4.43071 -0.55,-0.0639 -3.2819,-0.45109 -6.07089,-0.8604 z M 592.37971,59.31595 c -5.80786,-1.792396 -6.83328,-8.227039 -1.83315,-11.50325 1.39886,-0.916568 9.25071,-2.565767 18.73412,-3.934909 32.02889,-4.62408 49.43528,-9.356198 68.7889,-18.701022 10.46118,-5.05114 13.07734,-5.935281 16.2881,-5.504627 4.6758,0.627157 8.4755,2.998882 9.93447,6.200984 4.50402,9.885238 -19.44853,21.690071 -62.12437,30.617522 -11.75716,2.459506 -17.64222,3.120709 -30.56115,3.433629 -9.02139,0.218515 -17.40746,-0.04681 -19.22692,-0.608327 z"
         id="path3139"
         inkscape:connector-curvature="0" />
      <path
         style="fill:#bebebe"
         d="m 520.60663,404.89764 c -21.24324,-4.63335 -39.65041,-18.88152 -49.08467,-37.9943 -7.9528,-16.11149 -7.47691,-3.76386 -7.18003,-186.29456 l 0.2647,-162.743485 2.75576,-8.130524 c 7.46393,-22.021352 26.87817,-39.964937 50.45752,-46.635302 7.78436,-2.202118 7.82079,-2.20288 120.28672,-2.515175 75.89886,-0.210756 115.14899,0.03559 120.64215,0.757196 33.8271,4.443667 59.11117,29.088613 63.43043,61.827052 0.66195,5.017371 0.90894,62.699483 0.70951,165.696748 -0.34338,177.33084 0.36333,161.4235 -7.93011,178.5 -3.38935,6.9788 -5.76388,10.12708 -13.26814,17.59159 -10.41662,10.36147 -20.16199,15.92717 -33.9938,19.41425 -7.68714,1.93798 -11.19434,1.99192 -124.5,1.91466 -92.09723,-0.0628 -117.8505,-0.35442 -122.59004,-1.38815 z m 248,-5.38101 c 20.196,-6.77623 34.16511,-18.43203 42.5518,-35.50514 7.47639,-15.21996 7.04275,-3.38541 6.72915,-183.64619 l -0.28095,-161.500005 -2.67921,-7.334604 c -3.86518,-10.581278 -8.36208,-17.637044 -16.33612,-25.631822 -8.14411,-8.165288 -16.73184,-13.476993 -27.98467,-17.309162 l -8,-2.724412 -115.5,-0.289535 c -81.31329,-0.203836 -117.42393,0.03907 -122,0.820655 -25.67647,4.385502 -47.92671,24.694116 -54.74621,49.96888 -1.63754,6.069164 -1.75379,17.171484 -1.75379,167.499995 0,181.40692 -0.67893,165.58067 7.80761,182 4.81612,9.31798 15.87674,21.01752 24.88341,26.32079 6.59598,3.88382 17.31156,7.78071 24.92975,9.06608 3.04151,0.51317 55.35637,0.84362 120.37923,0.76038 l 115,-0.14725 7,-2.34867 z M 667.09588,355.92998 c -12.81866,-2.83188 -29.78221,-8.42179 -37.72508,-12.43134 l -5.89285,-2.97469 -3.34085,2.61461 c -2.32237,1.81752 -4.35761,2.54614 -6.676,2.39 -4.78283,-0.32211 -8.83137,2.15888 -11.53449,7.06846 -2.74884,4.99262 -5.63028,5.86378 -10.57936,3.19853 -4.33496,-2.33453 -6.61964,-6.32163 -8.8418,-15.43025 -1.00634,-4.125 -1.90798,-7.63772 -2.00365,-7.80604 -0.0957,-0.16833 -2.87616,0.39417 -6.17889,1.25 -13.05051,3.38172 -23.25438,1.07945 -27.50988,-6.20698 -1.85965,-3.18416 -2.72731,-9.5494 -1.47272,-10.80399 0.34557,-0.34557 2.93151,-0.13437 5.74654,0.46935 5.75526,1.23428 26.02186,1.50511 26.01595,0.34766 -0.002,-0.4125 -1.11659,-6.375 -2.47662,-13.25 -2.83822,-14.34728 -3.28987,-24.76717 -1.10981,-25.60374 2.24923,-0.86311 7.2065,2.25585 8.43429,5.30658 0.61916,1.53844 2.45867,9.26079 4.08781,17.16078 1.62914,7.89999 3.11759,14.51915 3.30768,14.70924 0.44039,0.44038 9.77001,-1.89806 21.01048,-5.26621 l 8.75,-2.6219 0,-7.17571 c 0,-3.94664 -0.26052,-7.43623 -0.57894,-7.75464 -0.31841,-0.31842 -2.90591,0.21193 -5.75,1.17856 -5.08014,1.72659 -5.18313,1.84175 -5.85771,6.54892 -1.7886,12.48082 -7.22424,6.77248 -12.46916,-13.09471 -2.13826,-8.0995 -2.63135,-12.29786 -2.7272,-23.22009 l -0.11699,-13.33292 2.833,-2.44052 c 2.44368,-2.10512 3.47929,-2.35478 7.53575,-1.81667 6.402,0.84925 14.54923,-1.3078 38.13125,-10.09561 30.5072,-11.36846 36.31803,-13.00227 41.12344,-11.56253 2.19515,0.65769 4.86539,2.06999 5.93387,3.13847 3.31969,3.31969 2.41623,5.9337 -4.1609,12.03885 -7.86584,7.3014 -8.84663,10.91958 -9.59695,35.40384 l -0.55162,18 15.87608,0.0317 c 15.56177,0.0311 16.0772,0.10183 26.03508,3.57279 18.82895,6.56311 26.841,13.12259 26.841,21.97483 0,3.78472 -0.61639,5.50626 -3.07123,8.57784 -9.59035,11.99976 -39.60254,27.93235 -55.92877,29.69096 -3.32886,0.35857 -8.51298,-0.23751 -15.51075,-1.78345 z m -58.10259,-21.50782 c 10.0239,-5.03021 11.06528,-6.13794 11.09969,-11.80687 0.008,-1.2375 -0.37902,-2.25 -0.85896,-2.25 -0.47993,0 -6.57768,1.82388 -13.55054,4.05307 -11.59972,3.70836 -12.62206,4.22915 -12.02082,6.12347 0.76361,2.40593 4.44455,8.82346 5.06091,8.82346 0.23067,0 4.85204,-2.2244 10.26972,-4.94313 z m 59.30219,1.96153 c 8.91771,-2.33577 21.58033,-7.54886 27.56634,-11.34882 8.6027,-5.46105 13.4917,-16.50428 8.06868,-18.22548 -2.94975,-0.93622 -9.55065,-0.73818 -20.32387,0.6097 l -9,1.12604 0.29652,5.66008 c 0.34909,6.66374 -1.68844,11.17642 -6.90179,15.28593 -5.91378,4.66164 -7.39714,4.60248 -12.42299,-0.49549 l -4.46156,-4.52558 -5.25509,1.55626 c -6.5878,1.95093 -10.19759,3.78164 -15.18008,7.6986 -3.87544,3.04666 -3.89438,3.09416 -1.5,3.7633 1.33375,0.37274 8.97774,0.72256 16.98665,0.77738 11.54393,0.079 16.12954,-0.31098 22.12719,-1.88192 z M 647.7615,318.42318 c 3.17623,-1.36931 5.35726,-2.99628 5.68215,-4.23867 0.60581,-2.31662 -0.0852,-2.25788 -15.58702,1.32504 l -8.75,2.02237 0,3.85711 0,3.85711 6.75,-2.30031 c 3.7125,-1.26517 9.06969,-3.30036 11.90487,-4.52265 z m -4.58897,-17.6505 10.56591,-2.80218 -0.43997,-5.5526 c -0.24198,-3.05394 -0.58023,-5.71121 -0.75168,-5.90505 -0.34329,-0.38814 -16.60388,1.63998 -20.19016,2.51824 -2.08352,0.51025 -2.25,1.1041 -2.25,8.02594 0,5.5685 0.3188,7.35288 1.25,6.99637 0.6875,-0.2632 6.00466,-1.73953 11.8159,-3.28072 z m -28.69797,-14.49253 c 3.76703,-1.04598 3.8521,-1.16974 3.26101,-4.74443 -0.33381,-2.01873 -0.61188,-5.33062 -0.61793,-7.35973 l -0.011,-3.6893 -4.5,1.5333 -4.5,1.5333 0,6.906 c 0,7.57127 0.0149,7.58488 6.36793,5.82086 z m 31.25369,-8.62088 7.12161,-0.56324 0.63028,-6.03015 c 0.34665,-3.31658 0.41704,-6.24337 0.15643,-6.50399 -0.26062,-0.26061 -5.08131,-0.074 -10.71266,0.41478 l -10.23881,0.88862 -0.67113,3.5 c -0.36912,1.92501 -0.95153,5.39333 -1.29424,7.70741 l -0.62311,4.20741 4.255,-1.5288 c 2.34026,-0.84084 7.45974,-1.78226 11.37663,-2.09204 z m -33.31444,-12.34766 4.19282,-1.05367 -0.33216,-5.81423 -0.33216,-5.81422 -4.66784,0.50095 c -2.56731,0.27553 -4.78119,0.59194 -4.91973,0.70313 -0.41263,0.33117 1.00054,12.53172 1.45153,12.53172 0.22809,0 2.30149,-0.47415 4.60754,-1.05368 z m 28.50572,-7.98929 c 3.3085,-0.65091 7.85407,-1.00813 10.10128,-0.79382 3.85174,0.36732 4.08582,0.23774 4.08582,-2.26178 0,-1.45828 0.26796,-3.99122 0.59547,-5.62876 l 0.59546,-2.97732 -12.84546,2.44198 c -7.06501,1.3431 -12.92442,2.5181 -13.02092,2.61113 -0.0965,0.093 0.33698,2.08897 0.9633,4.43547 0.68289,2.55846 1.6133,4.08425 2.32418,3.81146 0.65198,-0.25019 3.89238,-0.98745 7.20087,-1.63835 z m -69.77228,-15.12628 c -12.12582,-1.73157 -18.0622,-5.93391 -18.39069,-13.01873 -0.14002,-3.01984 0.11446,-3.28193 3.85007,-3.96517 2.2,-0.40237 13.9,-0.76022 26,-0.79521 12.1,-0.035 25.74953,-0.35548 30.33229,-0.7122 l 8.3323,-0.64857 -0.64683,-3.59543 c -0.43641,-2.42584 -1.84485,-4.61891 -4.32965,-6.74167 l -3.68283,-3.14622 9.03825,-9.35378 c 4.97104,-5.14457 10.52913,-11.9653 12.3513,-15.15717 l 3.31305,-5.80339 2.37175,3.21473 c 5.70752,7.7361 5.2986,14.50992 -1.4183,23.49459 -2.96132,3.96113 -3.60199,5.61443 -3.35096,8.64747 0.1707,2.0625 0.71632,3.75 1.21248,3.75 0.49617,0 3.33151,-0.90895 6.30077,-2.01989 5.19235,-1.94271 5.52636,-2.29617 8.74105,-9.25 2.77151,-5.99518 3.35034,-8.44588 3.38887,-14.34804 0.041,-6.2765 -0.38603,-7.96113 -3.61212,-14.25078 l -3.65858,-7.13285 5.15858,-4.37791 c 2.83722,-2.40785 7.53143,-5.82747 10.43159,-7.59915 5.16695,-3.15645 5.32786,-3.18646 8,-1.49186 15.52725,9.84698 15.1753,20.94282 -1.33495,42.08659 -3.60064,4.61114 -6.30123,8.38389 -6.00132,8.38389 0.29992,0 8.98684,-3.09528 19.30428,-6.8784 30.66543,-11.24416 37.53441,-12.70467 45.02745,-9.57387 8.14645,3.4038 10.39597,8.54183 5.66101,12.93005 -5.00662,4.63998 -12.26985,6.09593 -42.0851,8.43619 -14.88687,1.16849 -21.12691,3.15039 -53.34438,16.94267 -12.925,5.53318 -26.18204,10.75401 -29.4601,11.60185 -6.6645,1.7237 -26.64631,1.92206 -37.49928,0.37226 z m -5.91986,-109.90603 c -16.65152,-2.92672 -23.88994,-11.53014 -15.72919,-18.69537 4.86076,-4.2678 11.87113,-5.70865 22.50929,-4.62635 24.13868,2.45579 39.22763,-0.61374 78.84619,-16.039615 16.95809,-6.60279 26.35393,-8.70002 41.62396,-9.29081 15.23522,-0.58945 21.70422,0.34076 30.25298,4.35023 9.68431,4.54206 18.38255,14.289025 18.37227,20.587365 -0.006,3.86304 -3.76162,8.78084 -8.26692,10.82602 -6.59495,2.99376 -13.38896,2.50332 -29.23565,-2.11042 -24.66871,-7.18227 -37.90024,-6.39754 -78.76824,4.67148 -38.43727,10.41065 -48.85837,12.21629 -59.60469,10.32747 z m 27.30835,-39.918425 c -7.76724,-1.13992 -9.42911,-2.37645 -9.42911,-7.01579 0,-5.28495 2.62724,-6.5618 17.51799,-8.5138 14.8729,-1.94967 37.95347,-6.74771 48.08696,-9.99643 4.34228,-1.3921 13.34227,-5.21965 19.99998,-8.505679 6.65771,-3.286025 12.83611,-5.974591 13.72976,-5.974591 2.92904,0 9.70276,3.20145 10.69448,5.054511 0.53396,0.997703 0.97083,3.146969 0.97083,4.776159 0,8.42472 -24.15337,19.18118 -59.74158,26.60531 -10.22342,2.13273 -32.15183,4.84981 -35.75842,4.43071 -0.55,-0.0639 -3.2819,-0.45109 -6.07089,-0.8604 z M 592.37971,59.31595 c -5.80786,-1.792396 -6.83328,-8.227039 -1.83315,-11.50325 1.39886,-0.916568 9.25071,-2.565767 18.73412,-3.934909 32.02889,-4.62408 49.43528,-9.356198 68.7889,-18.701022 10.46118,-5.05114 13.07734,-5.935281 16.2881,-5.504627 4.6758,0.627157 8.4755,2.998882 9.93447,6.200984 4.50402,9.885238 -19.44853,21.690071 -62.12437,30.617522 -11.75716,2.459506 -17.64222,3.120709 -30.56115,3.433629 -9.02139,0.218515 -17.40746,-0.04681 -19.22692,-0.608327 z"
         id="path3137"
         inkscape:connector-curvature="0" />
      <path
         style="fill:#c38c8f"
         d="m 519.10663,404.33066 c -20.89364,-5.42854 -38.75269,-19.76553 -47.91483,-38.46537 -7.53764,-15.38423 -7.08719,-3.77238 -7.06781,-182.19741 0.0192,-176.280522 -0.30983,-166.896169 6.33747,-180.773896 11.07926,-23.13044 32.03198,-38.140682 58.00302,-41.552563 5.49232,-0.72154 44.59214,-0.967919 120.14215,-0.757049 111.94763,0.312459 112.00364,0.313635 119.78672,2.515244 13.37052,3.782134 23.0226,9.500404 33.29559,19.725614 7.39909,7.364673 9.85376,10.615367 13.24489,17.540065 8.32662,17.00297 7.6728,1.366396 7.6728,183.499995 0,153.70666 -0.0933,162.33276 -1.8228,168.5 -6.93119,24.71615 -24.83001,42.95581 -50.6772,51.6422 -5.21235,1.7517 -11.72379,1.85944 -124.5,2.06009 -115.09268,0.20477 -119.24626,0.14774 -126.5,-1.73692 z m 241,-3.03037 c 15.43991,-2.4939 27.55484,-8.61755 38.44982,-19.435 7.95478,-7.89816 12.46207,-14.9644 16.37097,-25.66539 l 2.67921,-7.33461 0.28093,-162 C 818.20218,5.432684 818.66552,17.707334 810.91795,2.228152 c -9.12131,-18.223813 -28.346,-32.336382 -48.81132,-35.831694 -4.57671,-0.781664 -40.82341,-1.024489 -122.5,-0.820655 l -116,0.289492 -8,2.724412 c -22.47831,7.655023 -38.92323,24.686882 -45.16365,46.775588 -1.7476,6.185861 -1.83635,14.353464 -1.83635,168.999995 l 0,162.5 2.71455,8 c 2.90654,8.56581 7.83061,17.47231 12.91546,23.36107 9.86123,11.42029 26.24976,20.51578 41.63338,23.10612 7.39345,1.24494 226.51624,1.21482 234.23661,-0.0322 z m -93.01075,-45.3703 c -12.81866,-2.83188 -29.78221,-8.42179 -37.72508,-12.43134 l -5.89285,-2.9747 -3.34085,2.61461 c -2.32237,1.81752 -4.35761,2.54614 -6.676,2.39 -4.78283,-0.32211 -8.83137,2.15888 -11.53449,7.06846 -2.74884,4.99262 -5.63028,5.86378 -10.57936,3.19853 -4.33496,-2.33453 -6.61964,-6.32163 -8.8418,-15.43025 -1.00634,-4.125 -1.90798,-7.63772 -2.00365,-7.80604 -0.0957,-0.16833 -2.87616,0.39417 -6.17889,1.25 -13.05051,3.38172 -23.25438,1.07945 -27.50988,-6.20698 -1.85965,-3.18416 -2.72731,-9.5494 -1.47272,-10.80399 0.34557,-0.34557 2.93151,-0.13437 5.74654,0.46935 5.75526,1.23428 26.02186,1.50511 26.01595,0.34766 -0.002,-0.4125 -1.11659,-6.375 -2.47662,-13.25 -2.83822,-14.34728 -3.28987,-24.76717 -1.10981,-25.60374 2.24923,-0.86311 7.2065,2.25585 8.43429,5.30658 0.61916,1.53844 2.45867,9.26079 4.08781,17.16078 1.62914,7.89999 3.11759,14.51915 3.30768,14.70924 0.44039,0.44038 9.77001,-1.89806 21.01048,-5.26621 l 8.75,-2.6219 0,-7.17571 c 0,-3.94664 -0.26052,-7.43623 -0.57894,-7.75464 -0.31841,-0.31842 -2.90591,0.21193 -5.75,1.17856 -5.08014,1.72659 -5.18313,1.84175 -5.85771,6.54892 -1.7886,12.48082 -7.22424,6.77248 -12.46916,-13.09471 -2.13826,-8.0995 -2.63135,-12.29786 -2.7272,-23.22009 l -0.11699,-13.33292 2.833,-2.44052 c 2.44368,-2.10512 3.47929,-2.35478 7.53575,-1.81667 6.402,0.84925 14.54923,-1.3078 38.13125,-10.09561 30.5072,-11.36846 36.31803,-13.00227 41.12344,-11.56253 2.19515,0.65769 4.86539,2.06999 5.93387,3.13847 3.31969,3.31969 2.41623,5.9337 -4.1609,12.03885 -7.86584,7.3014 -8.84663,10.91958 -9.59695,35.40384 l -0.55162,18 15.87608,0.0317 c 15.56177,0.0311 16.0772,0.10183 26.03508,3.57279 18.82895,6.56311 26.841,13.12259 26.841,21.97483 0,3.78472 -0.61639,5.50626 -3.07123,8.57784 -9.59035,11.99976 -39.60254,27.93235 -55.92877,29.69096 -3.32886,0.35857 -8.51298,-0.23751 -15.51075,-1.78345 z m -58.10259,-21.50782 c 10.0239,-5.03022 11.06528,-6.13795 11.09969,-11.80687 0.008,-1.2375 -0.37902,-2.25 -0.85896,-2.25 -0.47993,0 -6.57768,1.82388 -13.55054,4.05306 -11.59972,3.70836 -12.62206,4.22915 -12.02082,6.12348 0.76361,2.40593 4.44455,8.82346 5.06091,8.82346 0.23067,0 4.85204,-2.22441 10.26972,-4.94313 z m 59.30219,1.96153 c 8.91771,-2.33577 21.58033,-7.54886 27.56634,-11.34882 8.6027,-5.46105 13.4917,-16.50428 8.06868,-18.22548 -2.94975,-0.93622 -9.55065,-0.73819 -20.32387,0.6097 l -9,1.12604 0.29652,5.66007 c 0.34909,6.66375 -1.68844,11.17643 -6.90179,15.28594 -5.91378,4.66163 -7.39714,4.60248 -12.42299,-0.4955 l -4.46156,-4.52558 -5.25509,1.55627 c -6.5878,1.95093 -10.19759,3.78163 -15.18008,7.6986 -3.87544,3.04665 -3.89438,3.09415 -1.5,3.7633 1.33375,0.37274 8.97774,0.72256 16.98665,0.77738 11.54393,0.079 16.12954,-0.31098 22.12719,-1.88192 z M 647.7615,318.42319 c 3.17623,-1.36931 5.35726,-2.99628 5.68215,-4.23867 0.60581,-2.31662 -0.0852,-2.25788 -15.58702,1.32504 l -8.75,2.02237 0,3.85711 0,3.85711 6.75,-2.30032 c 3.7125,-1.26517 9.06969,-3.30036 11.90487,-4.52265 z m -4.58897,-17.6505 10.56591,-2.80219 -0.43997,-5.55259 c -0.24198,-3.05395 -0.58023,-5.71121 -0.75168,-5.90506 -0.34329,-0.38814 -16.60388,1.63998 -20.19016,2.51824 -2.08352,0.51025 -2.25,1.1041 -2.25,8.02594 0,5.5685 0.3188,7.35288 1.25,6.99637 0.6875,-0.26319 6.00466,-1.73953 11.8159,-3.28071 z m -28.69797,-14.49253 c 3.76703,-1.04598 3.8521,-1.16974 3.26101,-4.74443 -0.33381,-2.01874 -0.61188,-5.33063 -0.61793,-7.35974 l -0.011,-3.6893 -4.5,1.5333 -4.5,1.5333 0,6.906 c 0,7.57128 0.0149,7.58488 6.36793,5.82086 z m 31.25369,-8.62088 7.12161,-0.56324 0.63028,-6.03015 c 0.34665,-3.31658 0.41704,-6.24338 0.15643,-6.50399 -0.26062,-0.26061 -5.08131,-0.074 -10.71266,0.41478 l -10.23881,0.88861 -0.67113,3.5 c -0.36912,1.92501 -0.95153,5.39333 -1.29424,7.70741 l -0.62311,4.20741 4.255,-1.5288 c 2.34026,-0.84084 7.45974,-1.78226 11.37663,-2.09204 z m -33.31444,-12.34766 4.19282,-1.05368 -0.33216,-5.81423 -0.33216,-5.81421 -4.66784,0.50094 c -2.56731,0.27553 -4.78119,0.59195 -4.91973,0.70313 -0.41263,0.33117 1.00054,12.53172 1.45153,12.53172 0.22809,0 2.30149,-0.47415 4.60754,-1.05367 z m 28.50572,-7.98929 c 3.3085,-0.65091 7.85407,-1.00813 10.10128,-0.79382 3.85174,0.36732 4.08582,0.23774 4.08582,-2.26178 0,-1.45829 0.26796,-3.99123 0.59547,-5.62876 l 0.59546,-2.97733 -12.84546,2.44199 c -7.06501,1.3431 -12.92442,2.5181 -13.02092,2.61112 -0.0965,0.093 0.33698,2.08898 0.9633,4.43547 0.68289,2.55846 1.6133,4.08425 2.32418,3.81146 0.65198,-0.25019 3.89238,-0.98745 7.20087,-1.63835 z m -69.77228,-15.12628 c -12.12582,-1.73157 -18.0622,-5.93392 -18.39069,-13.01873 -0.14002,-3.01984 0.11446,-3.28193 3.85007,-3.96517 2.2,-0.40238 13.9,-0.76022 26,-0.79521 12.1,-0.035 25.74953,-0.35548 30.33229,-0.7122 l 8.3323,-0.64857 -0.64683,-3.59544 c -0.43641,-2.42584 -1.84485,-4.61891 -4.32965,-6.74167 l -3.68283,-3.14622 9.03825,-9.35378 c 4.97104,-5.14456 10.52913,-11.9653 12.3513,-15.15717 l 3.31305,-5.80339 2.37175,3.21473 c 5.70752,7.7361 5.2986,14.50992 -1.4183,23.49459 -2.96132,3.96113 -3.60199,5.61443 -3.35096,8.64747 0.1707,2.0625 0.71632,3.75 1.21248,3.75 0.49617,0 3.33151,-0.90895 6.30077,-2.01989 5.19235,-1.94271 5.52636,-2.29617 8.74105,-9.25 2.77151,-5.99518 3.35034,-8.44588 3.38887,-14.34804 0.041,-6.2765 -0.38603,-7.96113 -3.61212,-14.25078 l -3.65858,-7.13284 5.15858,-4.37791 c 2.83722,-2.40785 7.53143,-5.82747 10.43159,-7.59915 5.16695,-3.15645 5.32786,-3.18646 8,-1.49186 15.52725,9.84698 15.1753,20.94282 -1.33495,42.08659 -3.60064,4.61114 -6.30123,8.38389 -6.00132,8.38389 0.29992,0 8.98684,-3.09528 19.30428,-6.8784 30.66543,-11.24416 37.53441,-12.70467 45.02745,-9.57387 8.14645,3.4038 10.39597,8.54183 5.66101,12.93005 -5.00662,4.63998 -12.26985,6.09593 -42.0851,8.43619 -14.88687,1.16849 -21.12691,3.15039 -53.34438,16.94267 -12.925,5.53318 -26.18204,10.75401 -29.4601,11.60185 -6.6645,1.7237 -26.64631,1.92206 -37.49928,0.37226 z m -6.04062,-109.91159 c -7.11497,-1.19352 -16.03547,-5.72818 -17.93867,-9.11896 -2.01404,-3.58826 -0.56552,-7.54381 3.85291,-10.52139 5.52355,-3.72232 10.54022,-4.61043 20.58576,-3.64435 24.5513,2.36112 41.67001,-0.83144 73.53508,-13.713965 20.78055,-8.40123 31.44001,-11.01754 47.46834,-11.65087 8.02149,-0.31695 15.1342,-0.0715 18.565,0.64077 16.42748,3.41034 31.47151,16.801875 29.41154,26.180865 -0.3484,1.58625 -1.94759,4.12441 -3.55375,5.64037 -6.43717,6.07565 -15.02541,6.715 -29.55322,2.20004 -26.32409,-8.18102 -38.35564,-7.91308 -75.37299,1.67859 -51.5986,13.36985 -55.93087,14.16575 -67,12.3089 z M 592.828,92.364075 c -6.98713,-0.89552 -9.94181,-3.17635 -9.51989,-7.34881 0.47527,-4.70015 4.03805,-6.55838 14.82059,-7.7299 14.06467,-1.52813 39.07818,-6.70394 50.71436,-10.49383 5.63004,-1.8337 15.26825,-5.86564 21.41824,-8.959851 12.48857,-6.283302 15.24355,-6.526523 20.81589,-1.837705 4.29165,3.611182 4.11931,7.607286 -0.51665,11.979556 -13.43788,12.67355 -73.05905,27.55286 -97.73254,24.39054 z m -0.22176,-33.384694 c -4.20588,-1.833007 -5.84287,-4.110303 -5.0954,-7.08845 1.00967,-4.022853 4.73322,-5.608813 16.81159,-7.160511 16.7694,-2.154351 44.06921,-7.832532 54.82023,-11.402246 5.20518,-1.728303 14.36013,-5.576984 20.34433,-8.552624 5.98419,-2.97564 11.73615,-5.410255 12.78212,-5.410255 5.13075,0 12.83752,5.495296 12.83752,9.153765 0,3.027633 -5.67223,8.426868 -12.74041,12.127226 -12.41298,6.498491 -36.8847,13.637393 -60.71149,17.710785 -13.76833,2.353814 -34.32385,2.681404 -39.04849,0.62231 z"
         id="path3135"
         inkscape:connector-curvature="0" />
      <path
         style="fill:#7b7b7b"
         d="m 519.10663,404.33066 c -20.89364,-5.42854 -38.75269,-19.76553 -47.91483,-38.46537 -7.53764,-15.38423 -7.08719,-3.77238 -7.06781,-182.19741 0.0192,-176.280522 -0.30983,-166.896169 6.33747,-180.773896 11.07926,-23.13044 32.03198,-38.140682 58.00302,-41.552563 5.49232,-0.72154 44.59214,-0.967919 120.14215,-0.757049 111.94763,0.312459 112.00364,0.313635 119.78672,2.515244 13.37052,3.782134 23.0226,9.500404 33.29559,19.725614 7.39909,7.364673 9.85376,10.615367 13.24489,17.540065 8.32662,17.00297 7.6728,1.366396 7.6728,183.499995 0,153.70666 -0.0933,162.33276 -1.8228,168.5 -6.93119,24.71615 -24.83001,42.95581 -50.6772,51.6422 -5.21235,1.7517 -11.72379,1.85944 -124.5,2.06009 -115.09268,0.20477 -119.24626,0.14774 -126.5,-1.73692 z m 241,-3.03037 c 15.43991,-2.4939 27.55484,-8.61755 38.44982,-19.435 7.95478,-7.89816 12.46207,-14.9644 16.37097,-25.66539 l 2.67921,-7.33461 0.28093,-162 C 818.20218,5.432684 818.66552,17.707334 810.91795,2.228152 c -9.12131,-18.223813 -28.346,-32.336382 -48.81132,-35.831694 -4.57671,-0.781664 -40.82341,-1.024489 -122.5,-0.820655 l -116,0.289492 -8,2.724412 c -22.47831,7.655023 -38.92323,24.686882 -45.16365,46.775588 -1.7476,6.185861 -1.83635,14.353464 -1.83635,168.999995 l 0,162.5 2.71455,8 c 2.90654,8.56581 7.83061,17.47231 12.91546,23.36107 9.86123,11.42029 26.24976,20.51578 41.63338,23.10612 7.39345,1.24494 226.51624,1.21482 234.23661,-0.0322 z m -167,-44.61945 c -2.31772,-0.8809 -6.05402,-4.54692 -7.45581,-7.31555 -0.69618,-1.375 -2.0519,-5.76249 -3.0127,-9.75 -0.96081,-3.9875 -2.03595,-7.24963 -2.38921,-7.24918 -0.35325,4.5e-4 -4.01728,0.715 -8.14228,1.58789 -16.64315,3.52185 -27,-1.91111 -27,-14.16358 0,-2.74947 0.35056,-3.50458 1.43399,-3.08883 3.81681,1.46465 18.73625,2.74917 24.82684,2.13752 5.68839,-0.57128 6.72294,-0.95405 6.29386,-2.32872 -1.49677,-4.79531 -4.68597,-22.55703 -5.14335,-28.64509 -0.64221,-8.54821 0.062,-9.92816 4.31064,-8.44707 3.96777,1.38317 4.96456,3.86192 8.82568,21.94707 l 3.09571,14.5 3.42831,-0.26366 c 4.39381,-0.33792 24.37834,-6.1137 26.48584,-7.65474 1.34068,-0.98033 1.48618,-2.36717 0.88666,-8.45133 -0.70789,-7.18397 -0.75046,-7.27022 -3.27532,-6.63651 -7.00886,1.75911 -9.03351,3.25836 -9.69662,7.18033 -0.96212,5.69041 -1.51314,7.32591 -2.4682,7.32591 -5.32247,0 -11.98873,-24.32014 -12.14158,-44.29541 -0.11393,-14.89075 0.39386,-15.67982 10.03249,-15.58958 8.47985,0.0794 14.86483,-1.61062 35.70094,-9.4495 28.83111,-10.84674 35.94504,-12.96408 41.69956,-12.41114 3.92107,0.37676 5.616,1.10394 7.39571,3.17297 1.26986,1.4763 2.30884,3.41398 2.30884,4.30595 0,0.89197 -2.93118,4.35437 -6.51373,7.69423 -6.33778,5.90845 -6.5536,6.27507 -7.98951,13.57248 -0.81168,4.125 -1.77316,14.73909 -2.13663,23.58687 l -0.66084,16.08687 14.90036,-0.0782 c 16.96056,-0.089 24.41067,1.49869 38.8822,8.28639 12.87375,6.03829 17.60388,12.46827 15.3513,20.86809 -3.32496,12.39871 -42.03386,34.25 -60.67284,34.25 -9.73801,0 -40.33872,-8.50955 -52.1818,-14.51089 l -4.62688,-2.34462 -2.92582,2.39179 c -2.13899,1.74859 -4.1882,2.40147 -7.62005,2.42776 -5.39287,0.0413 -8.80123,2.40679 -11.57878,8.03595 -1.72673,3.49949 -4.64678,4.67631 -8.22698,3.31555 z m 17.12179,-22.56555 9.86757,-5.25 0.005,-4.71861 c 0.004,-3.33691 -0.36071,-4.594 -1.24468,-4.29305 -0.6875,0.23407 -6.98687,2.26851 -13.99859,4.52099 l -12.7486,4.09542 1.64688,3.19763 c 2.64335,5.1324 4.50702,7.69762 5.59243,7.69762 0.55665,0 5.4525,-2.3625 10.87967,-5.25 z m 59.50196,2.24694 c 10.15873,-2.80972 24.86413,-9.73038 29.70272,-13.97872 5.19532,-4.56154 8.20108,-10.56494 6.81393,-13.60942 -1.44264,-3.16625 -5.95242,-3.81483 -17.26931,-2.48361 -15.65508,1.84152 -14.52652,1.18799 -14.44553,8.36524 0.0811,7.18784 -2.61268,12.63303 -7.82079,15.80886 -5.02168,3.06214 -7.95106,2.488 -11.9658,-2.3452 l -3.5269,-4.24592 -6.9625,2.37037 c -4.2755,1.45558 -9.21767,4.15548 -12.80604,6.99592 l -5.84353,4.62554 9,0.6266 c 14.35568,0.99949 26.46463,0.26529 35.12375,-2.12966 z m -29.51346,-14.68218 c 10.14033,-3.64219 13.88971,-5.99359 13.88971,-8.71085 0,-1.13469 -2.1064,-0.94482 -11.25,1.01409 -6.1875,1.3256 -11.76204,2.59537 -12.38787,2.82169 -1.22647,0.44353 -2.3771,8.56031 -1.21351,8.56031 0.38582,0 5.31857,-1.65836 10.96167,-3.68524 z m 2.21427,-20.50263 11.82456,-3.21925 -0.68701,-6.04644 c -0.37785,-3.32554 -0.74891,-6.11055 -0.82456,-6.18891 -0.25917,-0.26843 -20.04522,2.63708 -21.8424,3.20749 -1.51475,0.48076 -1.79515,1.73074 -1.79515,8.00237 0,4.08793 0.3375,7.43967 0.75,7.4483 0.4125,0.009 6.07105,-1.43297 12.57456,-3.20356 z m -24.82456,-22.55407 c 0,-3.90161 -0.26453,-7.35781 -0.58784,-7.68045 -0.67348,-0.67208 -6.79257,1.22814 -8.66216,2.68993 -1.23796,0.96794 -1.83235,12.81678 -0.69976,13.94937 0.30263,0.30263 2.66513,0.007 5.25,-0.65739 l 4.69976,-1.20763 0,-7.09384 z m 22.5,0.0882 c 3.575,-0.83407 7.9135,-1.28942 9.64111,-1.01191 2.85367,0.45841 3.19682,0.22599 3.75,-2.53988 0.33489,-1.67445 0.60889,-4.95793 0.60889,-7.29662 l 0,-4.25216 -4.25,0.35638 c -2.3375,0.19602 -7.24678,0.62221 -10.90952,0.94707 l -6.65952,0.59069 -1.09048,6.262 c -1.53222,8.79864 -1.44906,9.95059 0.65952,9.13655 0.9625,-0.37158 4.675,-1.35803 8.25,-2.1921 z m -27.25,-13.28347 4.25,-1.13988 0,-6.10075 0,-6.10074 -5.13561,0.60825 c -2.82459,0.33452 -5.3542,0.82681 -5.62135,1.09397 -0.7366,0.73658 0.81867,13.6554 1.58754,13.18692 0.36818,-0.22434 2.58192,-0.92084 4.91942,-1.54776 z m 33.41428,-7.74004 c 9.62842,-0.62142 9.79406,-0.76781 9.82207,-8.68116 0.0124,-3.49928 -0.19577,-3.80751 -2.23635,-3.31162 -1.2375,0.30073 -6.3,1.26385 -11.25,2.14027 -14.91021,2.63992 -13.51558,1.79061 -11.63005,7.08252 1.46809,4.12032 1.87844,4.51298 4.13005,3.95203 1.375,-0.34256 6.39893,-0.87448 11.16428,-1.18204 z m -70.53122,-15.4188 c -16.63348,-1.75494 -23.05506,-5.43374 -22.4317,-12.85062 l 0.29864,-3.55332 31.65409,-0.73829 c 17.40975,-0.40606 32.79681,-1.17273 34.19346,-1.70375 2.31776,-0.88121 2.45692,-1.25313 1.59465,-4.26171 -0.5196,-1.81294 -2.63166,-4.7297 -4.69346,-6.48169 l -3.74874,-3.18545 8.65547,-8.81455 c 4.76051,-4.84801 10.30507,-11.43056 12.32124,-14.62788 3.18834,-5.0562 3.87202,-5.64228 5.24943,-4.5 2.36898,1.96458 4.27386,7.23326 4.27386,11.82104 0,4.44965 -2.43279,9.97631 -6.54027,14.85776 -2.2409,2.66316 -2.53604,3.72339 -1.96967,7.07569 l 0.66619,3.94315 6.17188,-2.19216 c 5.99583,-2.12962 6.26772,-2.38299 9.53225,-8.88274 5.79002,-11.52803 5.27144,-23.8205 -1.38558,-32.84357 l -2.46758,-3.34463 2.15892,-2.29807 c 3.53545,-3.76331 16.50359,-12.32315 18.66955,-12.32315 2.8743,0 10.13498,5.88789 12.31232,9.9844 4.21457,7.92944 0.6057,18.3635 -11.73227,33.92057 -3.72459,4.69637 -5.83846,8.07036 -4.79077,7.64665 11.33157,-4.5828 40.87074,-14.80954 48.11686,-16.6585 l 9.24183,-2.3582 5.67412,1.98254 c 10.95357,3.82719 12.15584,11.17096 2.50666,15.31133 -6.31298,2.70884 -13.88643,3.92494 -31.66444,5.08452 -19.21139,1.25306 -25.50865,3.08826 -57.22986,16.67837 -13.62358,5.83666 -28.10462,11.46625 -32.1801,12.51022 -7.90222,2.0242 -18.41195,2.28391 -32.45698,0.80205 z M 565.10663,132.28446 c -7.11497,-1.19352 -16.03547,-5.72818 -17.93867,-9.11896 -2.01404,-3.58826 -0.56552,-7.54381 3.85291,-10.52139 5.52355,-3.72232 10.54022,-4.61043 20.58576,-3.64435 24.5513,2.36112 41.67001,-0.83144 73.53508,-13.713965 20.78055,-8.40123 31.44001,-11.01754 47.46834,-11.65087 8.02149,-0.31695 15.1342,-0.0715 18.565,0.64077 16.42748,3.41034 31.47151,16.801875 29.41154,26.180865 -0.3484,1.58625 -1.94759,4.12441 -3.55375,5.64037 -6.43717,6.07565 -15.02541,6.715 -29.55322,2.20004 -26.32409,-8.18102 -38.35564,-7.91308 -75.37299,1.67859 -51.5986,13.36985 -55.93087,14.16575 -67,12.3089 z M 592.828,92.364075 c -6.98713,-0.89552 -9.94181,-3.17635 -9.51989,-7.34881 0.47527,-4.70015 4.03805,-6.55838 14.82059,-7.7299 14.06467,-1.52813 39.07818,-6.70394 50.71436,-10.49383 5.63004,-1.8337 15.26825,-5.86564 21.41824,-8.959851 12.48857,-6.283302 15.24355,-6.526523 20.81589,-1.837705 4.29165,3.611182 4.11931,7.607286 -0.51665,11.979556 -13.43788,12.67355 -73.05905,27.55286 -97.73254,24.39054 z m -0.22176,-33.384694 c -4.20588,-1.833007 -5.84287,-4.110303 -5.0954,-7.08845 1.00967,-4.022853 4.73322,-5.608813 16.81159,-7.160511 16.7694,-2.154351 44.06921,-7.832532 54.82023,-11.402246 5.20518,-1.728303 14.36013,-5.576984 20.34433,-8.552624 5.98419,-2.97564 11.73615,-5.410255 12.78212,-5.410255 5.13075,0 12.83752,5.495296 12.83752,9.153765 0,3.027633 -5.67223,8.426868 -12.74041,12.127226 -12.41298,6.498491 -36.8847,13.637393 -60.71149,17.710785 -13.76833,2.353814 -34.32385,2.681404 -39.04849,0.62231 z"
         id="path3133"
         inkscape:connector-curvature="0" />
      <path
         style="fill:#a55357"
         d="m 523.60663,404.90197 c -14.9295,-2.79604 -29.20829,-10.30572 -39.2418,-20.63851 -8.84545,-9.10931 -14.45025,-19.05579 -17.97446,-31.89817 -1.67767,-6.11347 -1.78374,-16.1633 -1.78374,-169 0,-153.980259 0.0952,-162.840784 1.81663,-168.999995 6.86024,-24.546374 24.34704,-42.189494 49.70859,-50.152943 l 7.47478,-2.347057 120.5,0 120.5,0 8.76121,3.134735 c 11.15013,3.989479 18.40532,8.320595 26.57644,15.865265 8.28008,7.645277 15.3953,18.509885 18.90659,28.869476 l 2.75576,8.130524 0.2647,162.743485 c 0.29473,181.20752 0.69149,170.06428 -6.5961,185.25651 -8.81615,18.37881 -25.00628,31.6044 -46.6686,38.12316 -5.61725,1.69038 -13.39985,1.81891 -122,2.01503 -92.16076,0.16643 -117.43858,-0.06 -123,-1.10151 z m 242.87676,-4.50516 c 24.01625,-6.14231 43.55115,-25.18955 50.28689,-49.03152 1.74728,-6.18473 1.83635,-14.30891 1.83635,-167.5 0,-180.200709 0.57466,-165.769867 -7.22769,-181.499995 -2.83056,-5.706636 -5.87838,-9.659631 -12.7462,-16.531759 -9.96511,-9.971346 -17.69944,-14.688221 -30.54244,-18.626671 l -7.48367,-2.294949 -111.5,-0.320144 c -76.70351,-0.220235 -114.09621,0.02104 -119.81916,0.773136 -16.44733,2.16146 -30.29023,8.962129 -41.66347,20.468208 -7.99456,8.087931 -12.48634,15.152856 -16.33816,25.697575 l -2.67921,7.334604 -0.26773,161.961335 c -0.26239,158.7272 -0.22809,162.11812 1.71773,169.8128 6.14432,24.2975 25.20648,43.21396 50.05,49.66749 7.21749,1.87486 11.85397,1.95032 123.09004,2.00331 111.79723,0.0533 115.84258,-0.01 123.28672,-1.91342 z M 593.10663,356.68084 c -2.31772,-0.8809 -6.05402,-4.54692 -7.45581,-7.31555 -0.69618,-1.375 -2.0519,-5.76249 -3.0127,-9.75 -0.96081,-3.9875 -2.03595,-7.24963 -2.38921,-7.24918 -0.35325,4.5e-4 -4.01728,0.715 -8.14228,1.58789 -16.64315,3.52185 -27,-1.91111 -27,-14.16358 0,-2.74947 0.35056,-3.50458 1.43399,-3.08883 3.81681,1.46465 18.73625,2.74917 24.82684,2.13752 5.68839,-0.57128 6.72294,-0.95405 6.29386,-2.32872 -1.49677,-4.79531 -4.68597,-22.55703 -5.14335,-28.64509 -0.64221,-8.54821 0.062,-9.92816 4.31064,-8.44707 3.96777,1.38317 4.96456,3.86192 8.82568,21.94707 l 3.09571,14.5 3.42831,-0.26366 c 4.39381,-0.33792 24.37834,-6.1137 26.48584,-7.65474 1.34068,-0.98033 1.48618,-2.36717 0.88666,-8.45133 -0.70789,-7.18397 -0.75046,-7.27022 -3.27532,-6.63651 -7.00886,1.75911 -9.03351,3.25836 -9.69662,7.18033 -0.96212,5.69041 -1.51314,7.32591 -2.4682,7.32591 -5.32247,0 -11.98873,-24.32014 -12.14158,-44.29541 -0.11393,-14.89075 0.39386,-15.67982 10.03249,-15.58958 8.47985,0.0794 14.86483,-1.61062 35.70094,-9.4495 28.83111,-10.84674 35.94504,-12.96408 41.69956,-12.41114 3.92107,0.37676 5.616,1.10394 7.39571,3.17297 1.26986,1.4763 2.30884,3.41398 2.30884,4.30595 0,0.89197 -2.93118,4.35437 -6.51373,7.69423 -6.33778,5.90845 -6.5536,6.27507 -7.98951,13.57248 -0.81168,4.125 -1.77316,14.73909 -2.13663,23.58687 l -0.66084,16.08687 14.90036,-0.0782 c 16.96056,-0.089 24.41067,1.49869 38.8822,8.28639 12.87375,6.03829 17.60388,12.46827 15.3513,20.86809 -3.32496,12.39871 -42.03386,34.25 -60.67284,34.25 -9.73801,0 -40.33872,-8.50955 -52.1818,-14.51089 l -4.62688,-2.34462 -2.92582,2.39179 c -2.13899,1.74859 -4.1882,2.40147 -7.62005,2.42776 -5.39287,0.0413 -8.80123,2.40679 -11.57878,8.03595 -1.72673,3.49949 -4.64678,4.67631 -8.22698,3.31555 z m 17.12179,-22.56555 9.86757,-5.25 0.005,-4.71861 c 0.004,-3.33691 -0.36071,-4.594 -1.24468,-4.29305 -0.6875,0.23407 -6.98687,2.26851 -13.99859,4.52099 l -12.7486,4.09542 1.64688,3.19763 c 2.64335,5.1324 4.50702,7.69762 5.59243,7.69762 0.55665,0 5.4525,-2.3625 10.87967,-5.25 z m 59.50196,2.24694 c 10.15873,-2.80972 24.86413,-9.73038 29.70272,-13.97872 5.19532,-4.56154 8.20108,-10.56494 6.81393,-13.60942 -1.44264,-3.16625 -5.95242,-3.81483 -17.26931,-2.48361 -15.65508,1.84152 -14.52652,1.18799 -14.44553,8.36524 0.0811,7.18784 -2.61268,12.63303 -7.82079,15.80886 -5.02168,3.06214 -7.95106,2.488 -11.9658,-2.3452 l -3.5269,-4.24592 -6.9625,2.37037 c -4.2755,1.45558 -9.21767,4.15548 -12.80604,6.99592 l -5.84353,4.62554 9,0.6266 c 14.35568,0.99949 26.46463,0.26529 35.12375,-2.12966 z m -29.51346,-14.68218 c 10.14033,-3.64219 13.88971,-5.99359 13.88971,-8.71085 0,-1.13469 -2.1064,-0.94482 -11.25,1.01409 -6.1875,1.3256 -11.76204,2.59537 -12.38787,2.82169 -1.22647,0.44353 -2.3771,8.56031 -1.21351,8.56031 0.38582,0 5.31857,-1.65836 10.96167,-3.68524 z m 2.21427,-20.50263 11.82456,-3.21925 -0.68701,-6.04644 c -0.37785,-3.32554 -0.74891,-6.11055 -0.82456,-6.18891 -0.25917,-0.26843 -20.04522,2.63708 -21.8424,3.20749 -1.51475,0.48076 -1.79515,1.73074 -1.79515,8.00237 0,4.08793 0.3375,7.43967 0.75,7.4483 0.4125,0.009 6.07105,-1.43297 12.57456,-3.20356 z m -24.82456,-22.55407 c 0,-3.90161 -0.26453,-7.35781 -0.58784,-7.68045 -0.67348,-0.67208 -6.79257,1.22814 -8.66216,2.68993 -1.23796,0.96794 -1.83235,12.81678 -0.69976,13.94937 0.30263,0.30263 2.66513,0.007 5.25,-0.65739 l 4.69976,-1.20763 0,-7.09384 z m 22.5,0.0882 c 3.575,-0.83407 7.9135,-1.28942 9.64111,-1.01191 2.85367,0.45841 3.19682,0.22599 3.75,-2.53988 0.33489,-1.67445 0.60889,-4.95793 0.60889,-7.29662 l 0,-4.25216 -4.25,0.35638 c -2.3375,0.19602 -7.24678,0.62221 -10.90952,0.94707 l -6.65952,0.59069 -1.09048,6.262 c -1.53222,8.79864 -1.44906,9.95059 0.65952,9.13655 0.9625,-0.37158 4.675,-1.35803 8.25,-2.1921 z m -27.25,-13.28347 4.25,-1.13988 0,-6.10075 0,-6.10074 -5.13561,0.60825 c -2.82459,0.33452 -5.3542,0.82681 -5.62135,1.09397 -0.7366,0.73658 0.81867,13.6554 1.58754,13.18692 0.36818,-0.22434 2.58192,-0.92084 4.91942,-1.54776 z m 33.41428,-7.74004 c 9.62842,-0.62142 9.79406,-0.76781 9.82207,-8.68116 0.0124,-3.49928 -0.19577,-3.80751 -2.23635,-3.31162 -1.2375,0.30073 -6.3,1.26385 -11.25,2.14027 -14.91021,2.63992 -13.51558,1.79061 -11.63005,7.08252 1.46809,4.12032 1.87844,4.51298 4.13005,3.95203 1.375,-0.34256 6.39893,-0.87448 11.16428,-1.18204 z m -70.53122,-15.4188 c -16.63348,-1.75494 -23.05506,-5.43374 -22.4317,-12.85062 l 0.29864,-3.55332 31.65409,-0.73829 c 17.40975,-0.40606 32.79681,-1.17273 34.19346,-1.70375 2.31776,-0.88121 2.45692,-1.25313 1.59465,-4.26171 -0.5196,-1.81294 -2.63166,-4.7297 -4.69346,-6.48169 l -3.74874,-3.18545 8.65547,-8.81455 c 4.76051,-4.84801 10.30507,-11.43056 12.32124,-14.62788 3.18834,-5.0562 3.87202,-5.64228 5.24943,-4.5 2.36898,1.96458 4.27386,7.23326 4.27386,11.82104 0,4.44965 -2.43279,9.97631 -6.54027,14.85776 -2.2409,2.66316 -2.53604,3.72339 -1.96967,7.07569 l 0.66619,3.94315 6.17188,-2.19216 c 5.99583,-2.12962 6.26772,-2.38299 9.53225,-8.88274 5.79002,-11.52803 5.27144,-23.8205 -1.38558,-32.84357 l -2.46758,-3.34463 2.15892,-2.29807 c 3.53545,-3.76331 16.50359,-12.32315 18.66955,-12.32315 2.8743,0 10.13498,5.88789 12.31232,9.9844 4.21457,7.92944 0.6057,18.3635 -11.73227,33.92057 -3.72459,4.69637 -5.83846,8.07036 -4.79077,7.64665 11.33157,-4.5828 40.87074,-14.80954 48.11686,-16.6585 l 9.24183,-2.3582 5.67412,1.98254 c 10.95357,3.82719 12.15584,11.17096 2.50666,15.31133 -6.31298,2.70884 -13.88643,3.92494 -31.66444,5.08452 -19.21139,1.25306 -25.50865,3.08826 -57.22986,16.67837 -13.62358,5.83666 -28.10462,11.46625 -32.1801,12.51022 -7.90222,2.0242 -18.41195,2.28391 -32.45698,0.80205 z M 561.85255,131.27962 c -5.95148,-1.40265 -13.72218,-5.76813 -14.91069,-8.37661 -2.61565,-5.74074 1.76914,-10.45298 12.21727,-13.12967 5.3839,-1.37929 7.37741,-1.43011 14.23792,-0.36287 18.4966,2.87738 38.75649,-0.89346 69.36932,-12.911225 25.44264,-9.9881 36.21618,-12.53068 53.34026,-12.58842 11.23585,-0.0379 14.68022,0.32581 20.5371,2.16859 17.35361,5.46005 28.19425,20.001235 21.3746,28.671005 -5.6922,7.23645 -15.14277,7.88586 -33.9117,2.33026 -6.875,-2.035 -15.94462,-4.17144 -20.15471,-4.74765 -12.77433,-1.74835 -30.46886,1.16158 -65.34529,10.74629 -33.04244,9.08068 -45.42643,10.87002 -56.75408,8.2003 z m 26.34998,-40.145985 c -4.19297,-1.56226 -5.59171,-3.65674 -4.73135,-7.0847 0.95106,-3.7893 3.28066,-4.64955 18.5,-6.83144 30.37241,-4.35427 51.25675,-10.1686 68.02923,-18.939738 10.76557,-5.629839 14.93423,-6.172478 20.20834,-2.630539 4.89244,3.285625 5.17975,7.718217 0.76743,11.839937 -7.90639,7.38567 -29.88767,15.35723 -58.86955,21.34916 -15.03045,3.10751 -38.44181,4.33253 -43.9041,2.29732 z m 6.48241,-31.816273 c -5.31127,-1.34371 -6.57831,-2.605071 -6.57831,-6.548832 0,-4.523734 3.4692,-6.228048 15.31127,-7.521965 13.59928,-1.485918 43.49386,-7.553137 54.0013,-10.95977 5.05309,-1.638269 14.707,-5.670506 21.45314,-8.960527 11.94145,-5.823711 12.38206,-5.952561 16.66622,-4.873795 6.22131,1.566543 8.75293,4.202862 8.37306,8.719339 -0.25389,3.018604 -1.13091,4.248987 -5.23452,7.343604 -9.43667,7.11637 -36.45502,15.975237 -63.57047,20.843692 -13.22,2.373591 -34.67211,3.412857 -40.42169,1.958254 z"
         id="path3131"
         inkscape:connector-curvature="0" />
      <path
         style="fill:#871a1f"
         d="m 523.60663,404.90197 c -14.9295,-2.79604 -29.20829,-10.30572 -39.2418,-20.63851 -8.84545,-9.10931 -14.45025,-19.05579 -17.97446,-31.89817 -1.67767,-6.11347 -1.78374,-16.1633 -1.78374,-169 0,-153.980259 0.0952,-162.840784 1.81663,-168.999995 6.86024,-24.546374 24.34704,-42.189494 49.70859,-50.152943 l 7.47478,-2.347057 120.5,0 120.5,0 8.76121,3.134735 c 11.15013,3.989479 18.40532,8.320595 26.57644,15.865265 8.28008,7.645277 15.3953,18.509885 18.90659,28.869476 l 2.75576,8.130524 0.2647,162.743485 c 0.29473,181.20752 0.69149,170.06428 -6.5961,185.25651 -8.81615,18.37881 -25.00628,31.6044 -46.6686,38.12316 -5.61725,1.69038 -13.39985,1.81891 -122,2.01503 -92.16076,0.16643 -117.43858,-0.06 -123,-1.10151 z m 242.87676,-4.50516 c 24.01625,-6.14231 43.55115,-25.18955 50.28689,-49.03152 1.74728,-6.18473 1.83635,-14.30891 1.83635,-167.5 0,-180.200709 0.57466,-165.769867 -7.22769,-181.499995 -2.83056,-5.706636 -5.87838,-9.659631 -12.7462,-16.531759 -9.96511,-9.971346 -17.69944,-14.688221 -30.54244,-18.626671 l -7.48367,-2.294949 -111.5,-0.320144 c -76.70351,-0.220235 -114.09621,0.02104 -119.81916,0.773136 -16.44733,2.16146 -30.29023,8.962129 -41.66347,20.468208 -7.99456,8.087931 -12.48634,15.152856 -16.33816,25.697575 l -2.67921,7.334604 -0.26773,161.961335 c -0.26239,158.7272 -0.22809,162.11812 1.71773,169.8128 6.14432,24.2975 25.20648,43.21396 50.05,49.66749 7.21749,1.87486 11.85397,1.95032 123.09004,2.00331 111.79723,0.0533 115.84258,-0.01 123.28672,-1.91342 z M 592.17771,355.61374 c -4.82585,-2.46077 -6.75413,-5.58139 -9.0632,-14.66742 -1.10687,-4.35543 -2.21336,-8.11984 -2.45886,-8.36534 -0.24551,-0.2455 -4.40697,0.35296 -9.2477,1.32992 -5.20883,1.05125 -10.22994,1.50532 -12.30132,1.11244 -7.94319,-1.50662 -13.98918,-7.90057 -13.99626,-14.80175 l -0.004,-3.64371 4.25,1.02079 c 4.35195,1.04527 27.17975,1.66811 28.08298,0.76622 0.27563,-0.27521 -0.5921,-5.88139 -1.92828,-12.45816 -2.85628,-14.05873 -3.88211,-24.50308 -2.59159,-26.38574 1.4285,-2.08395 7.0532,1.26979 8.65527,5.16072 0.72096,1.75097 2.51985,9.25858 3.99754,16.68358 1.47769,7.425 3.07416,13.89929 3.54771,14.38732 0.93501,0.96358 9.34674,-0.91378 22.83979,-5.09745 l 8.35342,-2.59008 -0.70364,-7.59989 c -0.38701,-4.17995 -0.89712,-7.80097 -1.13359,-8.04673 -0.23647,-0.24576 -2.88529,0.38776 -5.88627,1.40783 -5.42643,1.8445 -5.45984,1.8811 -6.09635,6.67939 -2.55275,19.24357 -14.43907,-11.22938 -14.57883,-37.37574 -0.0781,-14.60406 0.60083,-15.62312 10.42006,-15.64113 9.35271,-0.0171 13.30805,-1.12751 43.31509,-12.15956 26.68177,-9.80951 33.08038,-11.24416 38.24291,-8.57451 6.78758,3.51 6.19438,7.92654 -1.89301,14.09407 -3.99548,3.04699 -5.17905,4.6919 -6.4014,8.89666 -1.86875,6.42827 -3.43206,22.08718 -3.46601,34.71734 l -0.0258,9.59752 15.25,-0.0419 c 14.04009,-0.0386 15.92438,0.17887 23.75,2.74099 12.95219,4.24057 22.24485,9.02764 26.35426,13.57626 3.1317,3.46642 3.64574,4.71487 3.64574,8.85438 0,3.69843 -0.63945,5.67455 -2.75,8.49838 -8.99066,12.02916 -43.55925,29.69576 -58.05162,29.66782 -9.75717,-0.0188 -35.21042,-7.06357 -49.39589,-13.67142 l -7.69751,-3.58564 -3.12921,2.63306 c -2.28333,1.92129 -4.25735,2.63407 -7.3025,2.6368 -5.52781,0.005 -10.28704,2.9613 -11.15912,6.93184 -0.60631,2.7605 -2.97466,5.0671 -5.19841,5.06287 -0.44866,-8.6e-4 -2.35875,-0.78836 -4.24466,-1.75 z m 17.94709,-21.25757 9.98183,-5.00911 0,-4.93699 0,-4.93698 -4.75,1.42564 c -20.47231,6.14438 -22.75382,7.06259 -22.42779,9.02609 0.42858,2.58102 4.94088,9.44047 6.21015,9.44047 0.55219,0 5.4958,-2.2541 10.98581,-5.00912 z m 61.48183,1.51207 c 19.09657,-5.53478 32.06716,-13.98852 34.64043,-22.57731 1.17762,-3.93055 1.11299,-4.30201 -1.05372,-6.0565 -2.65328,-2.1485 -6.21928,-2.31019 -18.17771,-0.82421 -13.77845,1.71214 -13.24373,1.46034 -12.53349,5.90194 0.99955,6.25081 -0.31855,10.00068 -5.35024,15.22097 -6.14478,6.3751 -9.47852,6.57291 -14.02527,0.83217 -3.77539,-4.76681 -5.27097,-4.89889 -13.79381,-1.21812 -5.91477,2.55442 -15.08461,8.85835 -15.16833,10.42768 -0.0505,0.94742 14.06348,1.59303 26.46214,1.21043 7.0644,-0.21799 12.64204,-1.07432 19,-2.91705 z m -31.76904,-13.88957 c 11.01361,-4.00697 14.26904,-5.98169 14.26904,-8.65548 0,-1.55066 -0.50201,-1.885 -2.25,-1.49852 -15.76402,3.4854 -21.35072,4.86507 -21.86976,5.40086 -1.29992,1.34187 -1.77459,8.14001 -0.56737,8.12566 0.65292,-0.008 5.34106,-1.52539 10.41809,-3.37251 z m 14.03715,-24.04815 c 0.24338,-0.24338 0.1315,-3.12212 -0.24861,-6.3972 l -0.69111,-5.9547 -4.1642,0.53128 c -2.2903,0.2922 -7.53919,1.03205 -11.66419,1.6441 l -7.5,1.11282 -0.2879,8.09178 -0.2879,8.09179 12.2007,-3.33868 c 6.71039,-1.83628 12.39983,-3.53782 12.64321,-3.7812 z m -39.51811,-11.1232 3.75,-0.66461 -0.0153,-6.63871 c -0.0211,-9.13792 -0.60118,-9.83249 -6.37153,-7.62878 l -4.61317,1.7618 0,7.43153 c 0,6.60681 0.19421,7.37448 1.75,6.91746 0.9625,-0.28274 3.4375,-0.81315 5.5,-1.17868 z m 25.75,-8.09577 c 3.575,-0.83407 7.91925,-1.2885 9.65389,-1.00984 3.68784,0.59242 4.31044,-0.69568 4.33246,-8.96358 l 0.0137,-5.12716 -4.25,0.35638 c -17.83494,1.49559 -17.54246,1.43492 -18.12592,3.75959 -0.30671,1.22206 -0.86842,4.86594 -1.24822,8.09751 -0.64723,5.50686 -0.57087,5.8294 1.21679,5.13959 1.04904,-0.4048 4.83235,-1.41842 8.40735,-2.25249 z m -23.20228,-20.15782 c 0.33142,-6.8891 0.28205,-6.92416 -7.85565,-5.57776 l -3.55794,0.58867 0.73493,5.15032 c 0.40422,2.83268 0.76779,5.89121 0.80794,6.79672 0.065,1.46497 0.59641,1.51328 4.823,0.43844 l 4.75,-1.20795 0.29772,-6.18844 z m 29.36656,-0.86569 c 7.75664,-0.50061 8.72422,-0.78251 9.23635,-2.69097 0.87758,-3.27031 0.70495,-9.63178 -0.26139,-9.63178 -0.73369,0 -17.20846,3.13678 -23.75683,4.52328 -2.05795,0.43573 -2.07491,0.57799 -0.60237,5.05091 1.39099,4.22521 1.72856,4.54946 4.11759,3.95515 1.4313,-0.35607 6.5013,-0.89903 11.26665,-1.20658 z M 575.9051,242.34815 c -11.40086,-1.30221 -15.78315,-2.76754 -19.55397,-6.53836 -2.70159,-2.70159 -3.31317,-4.03259 -3.0604,-6.6604 l 0.3159,-3.2841 30,-0.67518 c 34.52412,-0.77702 38.82059,-1.18789 38.09325,-3.64295 -0.27405,-0.92502 -0.76682,-2.81336 -1.09505,-4.19629 -0.32822,-1.38294 -2.15455,-3.58185 -4.05851,-4.88646 l -3.46174,-2.37202 8.2988,-8.61355 c 4.56433,-4.73745 10.02746,-11.41665 12.14028,-14.84267 2.11281,-3.42603 4.23975,-5.98299 4.72652,-5.68215 0.48676,0.30084 1.82823,2.3958 2.98103,4.65547 3.58199,7.0213 2.24356,12.52273 -5.70873,23.4649 -1.16579,1.6041 -1.42373,3.28481 -0.94185,6.13704 l 0.66363,3.92796 6.35694,-2.0668 c 5.98996,-1.94748 6.49816,-2.35948 8.80345,-7.13704 4.06162,-8.41745 4.98171,-12.41797 4.47606,-19.46173 -0.45429,-6.32826 -3.09348,-13.42492 -6.39263,-17.18952 -1.2129,-1.38401 -0.86296,-2.00698 2.80863,-5 6.20878,-5.06128 15.12236,-10.91218 16.62974,-10.91582 0.72591,-0.002 3.26891,1.33782 5.65112,2.97683 4.58326,3.15336 8.52906,9.72732 8.52906,14.20998 0,6.15439 -5.8178,16.96416 -15.17216,28.1906 -2.69498,3.23434 -4.71775,6.06282 -4.49504,6.28553 0.22271,0.22271 7.55144,-2.25838 16.28606,-5.51354 35.19377,-13.11576 42.83973,-14.65615 51.17143,-10.30922 9.51018,4.96178 7.08354,12.00063 -5.36971,15.57572 -6.81768,1.95723 -10.65724,2.44311 -28.29743,3.5809 -13.73386,0.88584 -16.61877,1.40744 -27,4.88166 -6.39273,2.13941 -19.38633,7.30379 -28.87467,11.47638 -27.76477,12.20986 -32.87735,13.79421 -45.74848,14.1772 -6.05,0.18002 -14.46569,-0.0686 -18.70153,-0.55237 z M 561.85255,131.27962 c -5.95148,-1.40265 -13.72218,-5.76813 -14.91069,-8.37661 -2.61565,-5.74074 1.76914,-10.45298 12.21727,-13.12967 5.3839,-1.37929 7.37741,-1.43011 14.23792,-0.36287 18.4966,2.87738 38.75649,-0.89346 69.36932,-12.911225 25.44264,-9.9881 36.21618,-12.53068 53.34026,-12.58842 11.23585,-0.0379 14.68022,0.32581 20.5371,2.16859 17.35361,5.46005 28.19425,20.001235 21.3746,28.671005 -5.6922,7.23645 -15.14277,7.88586 -33.9117,2.33026 -6.875,-2.035 -15.94462,-4.17144 -20.15471,-4.74765 -12.77433,-1.74835 -30.46886,1.16158 -65.34529,10.74629 -33.04244,9.08068 -45.42643,10.87002 -56.75408,8.2003 z m 26.34998,-40.145985 c -4.19297,-1.56226 -5.59171,-3.65674 -4.73135,-7.0847 0.95106,-3.7893 3.28066,-4.64955 18.5,-6.83144 30.37241,-4.35427 51.25675,-10.1686 68.02923,-18.939738 10.76557,-5.629839 14.93423,-6.172478 20.20834,-2.630539 4.89244,3.285625 5.17975,7.718217 0.76743,11.839937 -7.90639,7.38567 -29.88767,15.35723 -58.86955,21.34916 -15.03045,3.10751 -38.44181,4.33253 -43.9041,2.29732 z m 6.48241,-31.816273 c -5.31127,-1.34371 -6.57831,-2.605071 -6.57831,-6.548832 0,-4.523734 3.4692,-6.228048 15.31127,-7.521965 13.59928,-1.485918 43.49386,-7.553137 54.0013,-10.95977 5.05309,-1.638269 14.707,-5.670506 21.45314,-8.960527 11.94145,-5.823711 12.38206,-5.952561 16.66622,-4.873795 6.22131,1.566543 8.75293,4.202862 8.37306,8.719339 -0.25389,3.018604 -1.13091,4.248987 -5.23452,7.343604 -9.43667,7.11637 -36.45502,15.975237 -63.57047,20.843692 -13.22,2.373591 -34.67211,3.412857 -40.42169,1.958254 z"
         id="path3129"
         inkscape:connector-curvature="0" />
      <path
         style="fill:#000000"
         d="m 525.93749,405.34215 c -29.16244,-4.92116 -51.64443,-24.93568 -59.50806,-52.97686 -1.72948,-6.16724 -1.8228,-14.79334 -1.8228,-168.5 0,-182.103201 -0.65052,-166.512701 7.65476,-183.454258 3.32218,-6.776743 5.85106,-10.149935 12.74489,-17 9.82674,-9.764344 16.39852,-13.959788 28.83913,-18.411002 l 8.76122,-3.134735 120,0 120,0 7.5,2.341863 c 20.94437,6.539847 35.73887,18.904126 45.0599,37.658137 7.31229,14.712395 6.90342,3.957794 6.92274,182.090035 0.017,156.61448 -0.0259,160.26177 -1.97543,168 -5.54753,22.0197 -22.49547,40.98919 -43.87217,49.10524 -13.89688,5.2762 -12.99229,5.24133 -133.63504,5.15221 -61.6,-0.0455 -114.10111,-0.43729 -116.66914,-0.87063 z m 240.75918,-4.98269 c 24.76552,-6.28015 43.55331,-24.63501 50.14976,-48.99417 1.64617,-6.07891 1.7602,-16.96256 1.7602,-168 0,-153.676236 -0.089,-161.814883 -1.83635,-167.999995 -7.60178,-26.90743 -30.37678,-46.259412 -58.84449,-50.000318 -5.72382,-0.752161 -43.25988,-0.993403 -120.31916,-0.773285 l -112,0.319926 -7.48366,2.295098 c -12.53195,3.84331 -20.5997,8.70937 -30.07564,18.14011 -9.79713,9.7504 -14.81788,18.308353 -17.9687,30.62795 -1.92259,7.517263 -1.97157,11.708893 -1.95464,167.300484 0.0148,135.83337 0.23422,160.63205 1.47411,166.59003 4.86831,23.39337 25.2335,44.06437 49.73804,50.4849 6.94231,1.81899 12.51066,1.90746 123.36053,1.96004 113.0035,0.0536 116.30034,0.002 124,-1.95078 z M 561.13855,130.76416 c -6.78505,-1.82343 -10.70926,-4.07568 -13.40686,-7.6947 -1.91979,-2.57553 -1.96539,-3.00713 -0.57881,-5.47749 3.71058,-6.61087 14.62032,-10.18662 25.36885,-8.31485 19.17609,3.33937 40.64105,-0.67697 73.0849,-13.675025 40.63695,-16.28048 69.48741,-16.27257 87.16699,0.0239 5.43745,5.012065 7.33301,8.455645 7.33301,13.321565 0,5.18565 -5.05555,9.83916 -12.49884,11.50489 -5.92987,1.32706 -7.86469,0.97143 -31.00116,-5.69808 -17.97418,-5.18138 -34.48971,-3.51476 -76,7.66933 -38.20297,10.29301 -47.40189,11.58317 -59.46808,8.34047 z M 588.7145,91.036665 c -4.59221,-1.38625 -6.14028,-3.41396 -5.26596,-6.89751 0.84461,-3.3652 5.44219,-5.38689 14.15809,-6.22574 11.04464,-1.06298 41.06965,-7.27864 51.5,-10.66133 5.225,-1.69454 14.36389,-5.51228 20.30864,-8.483882 11.76191,-5.879425 14.43323,-6.359338 19.70696,-3.54044 14.26621,7.625522 -3.74419,20.405842 -42.42348,30.104002 -25.69932,6.44367 -48.2026,8.6577 -57.98425,5.7049 z m 6.89213,-31.600083 c -5.49167,-1.325304 -7.5,-2.941045 -7.5,-6.033891 0,-3.742203 3.78857,-6.77003 9.32038,-7.448845 16.07796,-1.972945 22.93694,-3.051659 36.17962,-5.689983 18.60161,-3.705977 32.6359,-8.341016 46.77354,-15.447676 10.16411,-5.109261 11.15885,-5.411551 14.68403,-4.462318 5.41867,1.459098 9.04697,4.610257 9.02019,7.834006 -0.0291,3.504601 -2.3603,6.29384 -8.43487,10.092179 -20.00423,12.50836 -81.76133,25.568411 -100.04289,21.156528 z"
         id="path3127"
         inkscape:connector-curvature="0" />
    </g>
  </g>
</svg>
