<?xml version="1.0" encoding="UTF-8" standalone="no"?>
<!-- Created with Inkscape (http://www.inkscape.org/) -->

<svg
   xmlns:dc="http://purl.org/dc/elements/1.1/"
   xmlns:cc="http://creativecommons.org/ns#"
   xmlns:rdf="http://www.w3.org/1999/02/22-rdf-syntax-ns#"
   xmlns:svg="http://www.w3.org/2000/svg"
   xmlns="http://www.w3.org/2000/svg"
   xmlns:sodipodi="http://sodipodi.sourceforge.net/DTD/sodipodi-0.dtd"
   xmlns:inkscape="http://www.inkscape.org/namespaces/inkscape"
   width="358.49664"
   height="445.70145"
   id="svg2"
   version="1.1"
   inkscape:version="0.48.5 r10040"
   sodipodi:docname="circ2.svg">
  <defs
     id="defs4" />
  <sodipodi:namedview
     id="base"
     pagecolor="#ffffff"
     bordercolor="#666666"
     borderopacity="1.0"
     inkscape:pageopacity="0.0"
     inkscape:pageshadow="2"
     inkscape:zoom="1.1210937"
     inkscape:cx="276.305"
     inkscape:cy="266.06077"
     inkscape:document-units="px"
     inkscape:current-layer="layer1"
     showgrid="false"
     fit-margin-top="0"
     fit-margin-left="0"
     fit-margin-right="0"
     fit-margin-bottom="0"
     inkscape:window-width="958"
     inkscape:window-height="1078"
     inkscape:window-x="1920"
     inkscape:window-y="0"
     inkscape:window-maximized="0" />
  <metadata
     id="metadata7">
    <rdf:RDF>
      <cc:Work
         rdf:about="">
        <dc:format>image/svg+xml</dc:format>
        <dc:type
           rdf:resource="http://purl.org/dc/dcmitype/StillImage" />
        <dc:title></dc:title>
      </cc:Work>
    </rdf:RDF>
  </metadata>
  <g
     inkscape:label="Layer 1"
     inkscape:groupmode="layer"
     id="layer1"
     transform="translate(-941.34486,406.75514)">
    <g
       id="g3656"
       transform="translate(-302.38328,294.3554)">
      <path
         style="fill:#c38c8f"
         d="m 1303.2128,-256.72022 c -16.104,-3.01601 -29.2941,-10.28665 -40.7457,-22.45978 -8.4975,-9.03288 -13.7747,-18.63139 -16.7615,-30.48686 -1.9497,-7.73874 -1.9924,-11.38613 -1.9754,-168.5 0.019,-178.68656 -0.3906,-167.8756 6.9227,-182.59004 9.321,-18.75401 24.1155,-31.11829 45.0599,-37.65814 l 7.5,-2.34186 120.5,0 120.5,0 8.7612,3.13474 c 12.4406,4.45121 19.0124,8.64665 28.8392,18.411 6.8938,6.85006 9.4227,10.22325 12.7448,17 8.3062,16.94339 7.6548,1.28877 7.6548,183.95426 0,154.19046 -0.093,162.83238 -1.8228,169 -5.7829,20.62131 -19.2726,36.87585 -38.1772,46.00186 -16.5495,7.98912 -6.0884,7.40173 -136,7.63633 -92.1608,0.16642 -117.4386,-0.06 -123,-1.10151 z m 242.8768,-5.50516 c 12.1494,-3.10729 22.8869,-9.22876 31.6232,-18.0284 8.4416,-8.50278 12.9033,-15.44394 16.8208,-26.16852 l 2.6792,-7.3346 0.281,-161.5 c 0.3147,-180.94348 0.785,-168.57486 -7.0069,-184.28688 -3.2091,-6.47115 -5.8971,-10.01985 -12.6735,-16.73159 -9.5178,-9.42694 -17.622,-14.30826 -30.1169,-18.13996 l -7.4837,-2.29495 -111.5,-0.32014 c -77.0742,-0.2213 -114.0828,0.0193 -119.8653,0.77927 -10.1529,1.33436 -21.8122,5.45236 -29.7423,10.50478 -13.3298,8.49271 -24.6427,23.86781 -29.056,39.48947 -1.7475,6.18549 -1.8364,14.33861 -1.8364,168.5 l 0,162 2.7146,8 c 7.7631,22.87852 25.4897,39.39019 48.7854,45.44163 7.2175,1.87486 11.854,1.95032 123.09,2.00331 111.7973,0.0533 115.8426,-0.01 123.2868,-1.91342 z m -69.055,-51.49762 c -19.486,-5.47964 -34.0299,-19.79771 -38.8301,-38.2272 -1.7115,-6.57093 -1.9253,-20.71294 -0.4123,-27.27889 3.8746,-16.81463 18.2699,-32.20582 35.7302,-38.20201 5.3176,-1.82616 8.845,-2.29762 17.1904,-2.29762 8.3454,0 11.8729,0.47146 17.1904,2.29762 18.0365,6.19407 31.9299,21.43735 35.8475,39.33068 1.7395,7.94463 0.7908,23.87535 -1.8237,30.62474 -5.8169,15.01637 -17.3231,26.34372 -32.7142,32.20552 -7.7102,2.9365 -24.3863,3.7383 -32.1782,1.54716 z m 26.5533,-10.4179 c 12.5061,-3.89233 21.7981,-11.98315 27.4399,-23.89267 3.0056,-6.34462 3.185,-7.37109 3.185,-18.22333 0,-10.87941 -0.1738,-11.86704 -3.2216,-18.30161 -8.8323,-18.64708 -30.337,-29.20937 -50.1637,-24.6385 -12.606,2.9062 -24.7702,12.76726 -30.3931,24.6385 -3.0477,6.43457 -3.2216,7.4222 -3.2216,18.30161 0,10.85224 0.1794,11.87871 3.185,18.22333 3.6303,7.66341 10.7307,15.76388 17.0783,19.48384 10.6415,6.23634 24.7182,7.95494 36.1118,4.40883 z m -24.9662,-5.01238 c -10.5091,-3.36234 -19.052,-10.91853 -23.8078,-21.05799 -2.2842,-4.87003 -2.6011,-6.8248 -2.6011,-16.04563 0,-9.58476 0.2554,-11.02109 2.9306,-16.47819 11.9515,-24.38047 44.3631,-29.82338 63.5195,-10.66693 2.5788,2.5788 5.9955,7.37892 7.5927,10.66693 2.6332,5.42075 2.9065,6.95726 2.9306,16.47819 0.024,9.28736 -0.2777,11.14905 -2.6086,16.12001 -8.4345,17.98828 -29.0812,27.02246 -47.9559,20.98361 z m 28.7445,-11.19844 c 6.0006,-3.70853 8.9201,-11.09649 6.3114,-15.97092 -1.653,-3.08865 -4.0493,-2.32848 -13.2624,4.20706 -10.0506,7.12967 -11.2049,9.16956 -7.1582,12.65034 2.3404,2.01314 3.4627,2.30295 6.8319,1.76418 2.2174,-0.35456 5.4921,-1.54736 7.2773,-2.65066 z m -20.7053,1.1226 c 2.168,-1.16026 3.1994,-3.47974 2.4342,-5.47388 -0.9473,-2.46868 -17.0426,-13.5539 -19.6797,-13.5539 -3.8851,0 -5.2861,4.50131 -3.1008,9.96286 2.9996,7.49674 14.0648,12.42665 20.3463,9.06492 z m 11.7534,-14.9873 c 8.901,-5.42727 8.2342,-19.99593 -1.1184,-24.43402 -9.8568,-4.67735 -20.5702,1.67033 -20.5794,12.1932 -0.01,8.53489 5.5722,14.19286 13.9963,14.19286 2.7031,0 5.7784,-0.77946 7.7015,-1.95204 z m -14.2469,-5.49503 c -3.707,-3.70692 -3.4264,-9.54995 0.6221,-12.95656 4.1675,-3.50665 8.2737,-3.3923 12.0002,0.33419 6.0708,6.07078 2.4408,15.07692 -6.0769,15.07692 -3.0101,0 -4.7394,-0.64848 -6.5454,-2.45455 z m -10.7186,-12.14018 c 3.4529,-10.56903 3.4365,-13.0729 -0.092,-13.9584 -6.2859,-1.57767 -12.7952,5.49073 -13.4548,14.61055 -0.3977,5.49728 -0.2285,6.05746 2.7203,9.00623 2.91,2.91004 3.31,3.03639 5.3673,1.69562 1.5262,-0.99466 3.2372,-4.55325 5.4589,-11.354 z m 44.1293,10.23813 c 6.7595,-7.19515 0.053,-24.37312 -9.1541,-23.44634 -5.1067,0.51405 -5.5004,2.62966 -2.3284,12.51241 4.4072,13.73091 6.7548,15.96634 11.4825,10.93393 z m -15.7996,-22.67858 c 2.8331,-1.51623 2.4178,-5.63521 -0.9031,-8.95609 -5.2687,-5.2687 -17.7417,-4.90186 -22.109,0.65023 -2.7586,3.50706 -2.6724,7.15677 0.1964,8.30988 3.1311,1.25855 20.4623,1.25549 22.8157,-0.004 z m -91.0657,-38.59336 c -43.5644,-8.36196 -60.2207,-60.64179 -29.1155,-91.38613 10.8482,-10.72229 23.474,-15.93867 38.6554,-15.97055 39.2564,-0.0824 65.8491,41.36215 49.0764,76.48522 -6.6081,13.8377 -17.5878,23.74655 -31.6163,28.53267 -6.3724,2.17407 -21.177,3.45648 -27,2.33879 z m 20.465,-10.90437 c 8.5342,-2.22288 14.9674,-6.08667 21.0211,-12.62543 16.2136,-17.51262 16.2363,-42.74886 0.054,-59.71466 -9.7233,-10.19385 -21.2244,-14.75182 -34.988,-13.86592 -13.5077,0.86943 -24.5797,6.80374 -32.7639,17.56063 -24.9559,32.80087 6.5284,79.10283 46.6772,68.64538 z m -20.465,-4.84093 c -6.9104,-1.90245 -11.6194,-4.47842 -16.9533,-9.27407 -12.2031,-10.97162 -15.892,-26.96779 -9.9149,-42.99317 1.6366,-4.38787 3.8403,-7.5139 8.7767,-12.45037 8.754,-8.75394 15.0029,-11.32669 27.5915,-11.35979 8.0609,-0.0212 9.7034,0.30821 15.7408,3.15692 8.308,3.9201 15.4,10.824 19.3196,18.80708 2.686,5.47077 2.9396,6.89299 2.9396,16.48724 0,9.50416 -0.2686,11.04703 -2.8322,16.26779 -8.257,16.81508 -27.5907,26.0597 -44.6678,21.35837 z m 21.2773,-9.68629 c 8.1662,-2.26776 14.1858,-11.01875 11.8245,-17.18987 -1.6706,-4.36603 -5.1217,-3.59379 -14.6368,3.27526 -8.6228,6.22494 -10.5679,8.94087 -8.3323,11.63459 2.6029,3.13639 5.7456,3.77933 11.1446,2.28002 z m -15.2373,-1.77115 c 3.6782,-2.97847 2.0409,-5.94809 -6.7526,-12.24707 -9.1316,-6.54124 -10.7764,-7.2655 -13.3598,-5.88288 -2.6199,1.40213 -2.6058,8.4124 0.025,12.4033 4.434,6.72641 15.0982,9.76664 20.0874,5.72665 z m 12.5752,-15.23154 c 2.9536,-2.72401 5.3848,-7.73083 5.3848,-11.08934 0,-3.65529 -3.7591,-10.27432 -6.883,-12.11968 -3.6433,-2.15211 -11.2234,-2.24161 -15.2109,-0.17961 -8.9245,4.61504 -9.283,19.10154 -0.6075,24.55081 4.5598,2.86415 13.6095,2.25679 17.3166,-1.16218 z m -13.8652,-3.01729 c -2.8049,-1.63371 -4.9566,-6.70269 -4.2366,-9.98069 0.7983,-3.63471 4.8673,-6.9392 8.5447,-6.9392 1.5409,0 4.165,1.15826 5.8652,2.58889 2.4474,2.05939 3.0767,3.37066 3.0767,6.41111 0,6.48646 -7.7538,11.12113 -13.25,7.91989 z m 31.9077,-3.48668 c 2.3346,-2.33455 2.5298,-3.14786 2.1578,-8.98923 -0.4725,-7.42172 -2.5659,-11.00867 -8.0052,-13.71669 -4.1462,-2.06428 -8.8225,-1.00169 -8.7926,1.99796 0.026,2.6106 5.7376,20.27503 7.078,21.89005 1.7593,2.11981 4.7235,1.65646 7.562,-1.18209 z m -44.9552,-8.43321 c 1.7613,-5.225 3.2238,-10.4225 3.25,-11.55 0.1211,-5.22304 -6.1254,-5.99309 -11.3566,-1.40002 -4.187,3.67621 -6.0024,8.65128 -5.3308,14.60918 0.6416,5.69304 3.1492,8.53412 7.1838,8.13936 2.9033,-0.28405 3.2063,-0.75887 6.2536,-9.79852 z m 27.7324,-13.97525 c 2.8112,-1.06882 3.4387,-4.52398 1.4846,-8.17515 -2.3489,-4.38907 -12.6689,-6.23463 -19.3209,-3.45523 -6.1905,2.58656 -8.8826,9.75201 -4.3486,11.57447 3.0509,1.22631 19.0008,1.26651 22.1849,0.0559 z m -82.2737,-43.13988 c -8.687,-1.07321 -14.9813,-3.31744 -21.8481,-7.78992 -29.714,-19.35353 -33.8047,-60.40862 -8.4065,-84.36802 7.1951,-6.78754 16.0207,-11.78094 24.1212,-13.64752 6.6503,-1.5324 21.7365,-1.29181 28.4372,0.4535 8.3912,2.18561 14.9915,6.04197 22.6361,13.22557 22.3952,21.0447 22.3952,56.43834 0,77.48304 -3.6631,3.44216 -8.9442,7.4886 -11.7358,8.99207 -9.0559,4.87723 -21.8473,7.05431 -33.2041,5.65128 z m 16.1086,-10.35415 c 16.84,-3.56848 29.9796,-15.86713 34.1782,-31.99082 6.5536,-25.16775 -10.0135,-50.08115 -36.2458,-54.5058 -26.0549,-4.39472 -51.1533,16.93187 -51.1533,43.4659 0,20.38492 14.899,38.57234 35.2138,42.98589 8.0956,1.75885 9.8973,1.76333 18.0071,0.0448 z m -21.97,-6.33689 c -32.7367,-11.66371 -34.8179,-57.12659 -3.2998,-72.08376 4.8928,-2.32191 6.7144,-2.61007 16.5,-2.61007 9.7856,0 11.6072,0.28816 16.5,2.61007 11.729,5.56608 19.6863,16.02958 22.0833,29.03841 3.0935,16.78934 -6.1614,34.26522 -22.0833,41.69941 -7.4306,3.46946 -21.8997,4.12516 -29.7002,1.34594 z m 9.8846,-10.86069 c 3.3057,-2.99165 2.1436,-5.04068 -6.4344,-11.34548 -9.554,-7.02209 -12.4511,-8.11694 -14.4056,-5.44399 -6.8686,9.39337 12.114,24.68642 20.84,16.78947 z m 19.9419,-0.19827 c 7.0605,-4.47767 9.8657,-12.14288 5.8964,-16.11219 -2.5072,-2.50721 -3.5313,-2.11986 -13.7727,5.20943 -8.957,6.41007 -10.3321,9.19609 -6.0275,12.21119 3.4662,2.42783 8.8045,1.92547 13.9038,-1.30843 z m -8.1049,-14.15014 c 3.8581,-2.74717 6.32,-8.40243 5.693,-13.07715 -0.7261,-5.41385 -3.9969,-9.46816 -9.2599,-11.47813 -3.8718,-1.47862 -5.1167,-1.54764 -8.6767,-0.48103 -12.9814,3.88934 -14.4568,20.56432 -2.3197,26.21874 4.7759,2.22497 10.4219,1.76657 14.5633,-1.18243 z m -12.6628,-3.42996 c -4.3021,-1.87197 -6.039,-6.99061 -4.0154,-11.83369 1.8114,-4.33522 5.9509,-6.03088 11.1909,-4.58405 7.5684,2.08973 8.1796,13.41332 0.8885,16.45974 -4.0319,1.68464 -4.0967,1.68431 -8.064,-0.042 z m -16.9383,-3.80477 c 2.1378,-3.28014 6.7562,-18.4963 6.3916,-21.05827 -0.2485,-1.7461 -1.082,-2.25529 -4.0993,-2.50432 -9.6607,-0.79735 -16.381,15.99415 -9.4303,23.56259 1.1365,1.2375 2.8775,2.25 3.869,2.25 0.9914,0 2.4625,-1.0125 3.269,-2.25 z m 48.5071,-0.38486 c 2.5018,-3.18045 2.8141,-11.03063 0.6085,-15.29568 -4.3911,-8.49159 -14.5359,-11.03032 -14.5359,-3.63762 0,3.15698 3.6918,15.25523 5.9331,19.44313 1.5874,2.96613 5.4541,2.71954 7.9943,-0.50983 z m -15.4988,-22.93657 c 1.8564,-1.85638 1.8278,-1.62389 0.5963,-4.86301 -3.3277,-8.75256 -22.7221,-8.75256 -26.0498,0 -1.2315,3.23912 -1.26,3.00663 0.5963,4.86301 2.2814,2.28141 22.5758,2.28141 24.8572,0 z"
         id="path3670"
         inkscape:connector-curvature="0" />
      <path
         style="fill:#8f93a0"
         d="m 1307.2128,-255.97145 c -11.9829,-1.65716 -27.2106,-8.17228 -36.68,-15.69342 -8.0364,-6.38299 -15.521,-15.77847 -19.9886,-25.09203 -7.2867,-15.19045 -6.8909,-4.10402 -6.5961,-184.75672 l 0.2647,-162.24328 2.7558,-8.13052 c 3.5601,-10.5037 10.6323,-21.21046 19.3996,-29.36948 8.5975,-8.00098 15.6984,-12.29174 27.0834,-16.36526 l 8.7612,-3.13474 120,0 120,0 7.4648,2.34401 c 25.5832,8.03342 43.8025,26.4098 50.7186,51.15599 1.7213,6.15883 1.8166,15.00291 1.8166,168.5 0,182.03696 0.6444,166.52448 -7.617,183.3781 -7.2881,14.86817 -22.7149,28.72993 -38.748,34.81718 -13.9066,5.2799 -12.9655,5.24384 -133.635,5.12 -61.6,-0.0632 -113.35,-0.30164 -115,-0.52983 z m 239.09,-6.29129 c 20.0072,-5.0735 35.3315,-17.23148 44.3762,-35.20728 7.567,-15.03891 7.1288,-3.18724 6.8147,-184.28688 l -0.2809,-162 -2.6792,-7.3346 c -3.7898,-10.37493 -8.3158,-17.56337 -15.8718,-25.20822 -10.8878,-11.01599 -24.9272,-17.82832 -41.1298,-19.9575 -5.7239,-0.75216 -43.2599,-0.9934 -120.3192,-0.77328 l -112,0.31992 -7.4837,2.2951 c -12.6183,3.86981 -20.6057,8.69064 -30.0391,18.1302 -6.3692,6.37339 -9.4636,10.42352 -12.2462,16.02838 -7.8068,15.72511 -7.231,1.23158 -7.231,182 0,153.67624 0.089,161.81489 1.8364,168 6.6273,23.45814 25.3266,41.81014 48.8931,47.9849 6.9423,1.81899 12.5107,1.90746 123.3605,1.96004 113.0035,0.0536 116.3004,0.002 124,-1.95078 z m -68.9559,-51.58062 c -8.8213,-2.13517 -17.3792,-7.114 -24.7496,-14.39887 -10.7024,-10.57822 -15.8845,-22.98007 -15.8845,-38.01467 0,-15.01602 5.1396,-27.17998 16.066,-38.02401 29.2283,-29.00787 78.4843,-15.94411 90.3225,23.95551 2.0996,7.07656 2.0991,21.06289 -9e-4,28.137 -4.1917,14.11977 -14.6979,27.23588 -26.9807,33.6832 -11.3748,5.97072 -26.067,7.73724 -38.7728,4.66184 z m 27.5935,-10.49021 c 18.5077,-6.2348 29.7724,-21.91251 29.7724,-41.436 0,-13.85932 -3.9239,-23.34217 -13.3458,-32.25309 -8.4829,-8.02273 -19.0353,-12.23424 -30.6542,-12.23424 -11.6189,0 -22.1713,4.21151 -30.6542,12.23424 -10.1789,9.62683 -13.8397,19.30235 -13.1111,34.65282 0.5172,10.89845 2.4526,16.36206 8.7534,24.71112 10.5135,13.93123 31.9211,20.1593 49.2395,14.32515 z m -23.4817,-3.94518 c -11.0234,-2.78543 -21.0327,-11.14055 -26.0602,-21.75338 -2.887,-6.0942 -3.1857,-7.61754 -3.1857,-16.2458 0,-8.73139 0.271,-10.07152 3.2677,-16.15868 4.1804,-8.49155 12.8747,-16.75605 20.9477,-19.91217 4.3933,-1.71755 7.829,-2.26146 14.2846,-2.26146 6.4556,0 9.8913,0.54391 14.2846,2.26146 8.073,3.15612 16.7673,11.42062 20.9477,19.91217 2.9967,6.08716 3.2677,7.42729 3.2677,16.15868 0,8.5617 -0.3105,10.17625 -3.0818,16.02389 -6.3675,13.43588 -18.7704,21.86995 -33.169,22.55512 -4.262,0.20282 -9.4385,-0.0581 -11.5033,-0.57983 z m 24.2841,-11.22815 c 5.8435,-2.95202 9.1598,-7.91335 8.7669,-13.11559 -0.5785,-7.65893 -4.3509,-7.27205 -16.2969,1.67132 -5.8979,4.41549 -7,5.70457 -7,8.18788 0,5.51266 6.9712,7.075 14.53,3.25639 z m -19.0819,0.27778 c 2.2146,-1.18522 3.1958,-3.48929 2.3853,-5.60136 -1.0726,-2.7952 -16.519,-13.42642 -19.5076,-13.42642 -8.2079,0 -4.5806,14.58387 4.6246,18.5934 3.6203,1.57688 9.9517,1.79694 12.4977,0.43438 z m 14.1696,-16.91013 c 3.547,-3.54702 3.882,-4.34598 3.8786,-9.25 -0.01,-9.25798 -5.2874,-14.86765 -13.9963,-14.86765 -8.7089,0 -13.9898,5.60967 -13.9963,14.86765 0,4.90402 0.3316,5.70298 3.8787,9.25 3.6796,3.67961 4.2079,3.88235 10.1176,3.88235 5.9097,0 6.438,-0.20274 10.1177,-3.88235 z m -16.1946,-4.04073 c -1.995,-1.99499 -2.9231,-3.92442 -2.9231,-6.07692 0,-4.30191 4.6981,-9 9,-9 4.3019,0 9,4.69809 9,9 0,4.30191 -4.6981,9 -9,9 -2.1525,0 -4.0819,-0.92808 -6.0769,-2.92308 z m -15.5144,-0.62843 c 2.0161,-2.0161 8.0096,-20.91603 7.2558,-22.88042 -0.3184,-0.82966 -1.7319,-1.79786 -3.1411,-2.15155 -6.7683,-1.69874 -13.5234,6.03722 -13.5234,15.48708 0,6.00737 1.211,8.83863 4.3154,10.08942 3.0577,1.23199 3.3477,1.20098 5.0933,-0.54453 z m 47.0465,0.93033 c 4.5721,-1.75449 5.8261,-11.10058 2.4305,-18.11494 -2.6618,-5.49844 -5.6249,-7.48491 -10.5593,-7.0788 -4.8634,0.40027 -5.2625,2.38343 -2.3325,11.59075 4.4476,13.97622 5.5963,15.46986 10.4613,13.60299 z m -14.3895,-24.414 c 4.4225,-2.36681 1.2478,-9.3867 -5.3808,-11.89821 -5.8787,-2.22738 -15.2392,-0.33795 -18.3006,3.694 -1.8987,2.50067 -1.699,6.95672 0.3657,8.15929 2.2998,1.33952 20.8301,1.37522 23.3157,0.0449 z m -94.4207,-39.48141 c -12.9985,-3.29624 -25.4471,-12.18449 -32.9851,-23.5513 -9.9311,-14.97537 -11.3274,-35.23665 -3.557,-51.61218 15.6416,-32.96343 58.6187,-41.58051 85.428,-17.12865 30.7465,28.04296 20.442,77.0397 -19.1108,90.86937 -7.8432,2.74239 -21.919,3.41497 -29.7751,1.42276 z m 31.7848,-12.78976 c 13.5945,-6.45599 22.2825,-18.06847 24.7759,-33.11585 3.5841,-21.62962 -10.5922,-43.58207 -31.6658,-49.03546 -29.3865,-7.60457 -56.4749,12.81843 -56.528,42.61857 -0.022,12.19167 4.9679,23.80493 13.7619,32.03071 9.2732,8.67405 18.8141,11.99323 32.9092,11.44879 8.0633,-0.31146 10.1052,-0.79268 16.7468,-3.94676 z m -31.1438,-3.08915 c -10.3594,-3.37341 -18.5086,-10.58402 -23.1508,-20.48449 -2.3238,-4.95595 -2.6352,-6.86317 -2.6352,-16.14104 0,-9.84897 0.2076,-10.94271 3.2499,-17.12258 3.853,-7.82646 10.1293,-13.97121 18.075,-17.69598 5.067,-2.37536 6.8537,-2.66041 16.6751,-2.66041 10.1301,0 11.4702,0.23085 16.9455,2.91921 7.8524,3.85548 13.9864,10.16094 17.8801,18.38008 2.8729,6.06423 3.1744,7.60308 3.1744,16.20071 0,8.60462 -0.3002,10.13382 -3.1857,16.22477 -3.8391,8.10424 -10.2731,14.64869 -18.0975,18.40831 -4.7687,2.29133 -7.2923,2.79636 -15.2168,3.04526 -6.1143,0.19204 -11.0018,-0.19067 -13.714,-1.07384 z m 9.0918,-10.53783 c 3.2649,-3.26495 1.4644,-6.15463 -8.0328,-12.89173 -4.7876,-3.39622 -9.3092,-6.17494 -10.0479,-6.17494 -1.086,0 -1.0613,-0.43085 0.1292,-2.25 2.2365,-3.41772 6.5589,-16.84087 6.5667,-20.39301 0.01,-3.37624 -1.3308,-4.37221 -5.8248,-4.33475 -8.9868,0.0749 -14.86,16.43688 -8.5793,23.90103 1.4239,1.6922 3.2343,3.07673 4.0231,3.07673 1.1918,0 1.1578,0.42165 -0.2011,2.49559 -2.4548,3.74657 -1.104,8.81127 3.6063,13.52159 6.0575,6.05754 14.0286,7.38145 18.3606,3.04949 z m 16.9199,1.58229 c 3.8263,-1.59871 9.4164,-7.6618 10.2963,-11.1673 0.8768,-3.49378 -0.2691,-7.23741 -2.5968,-8.48315 -2.4338,-1.30256 -4.7491,-0.14698 -14.4972,7.23558 -7.9491,6.02011 -8.9784,8.45783 -4.9196,11.65052 3.0965,2.43566 7.0933,2.69639 11.7173,0.76435 z m -7.8634,-14.66349 c 5.9325,-2.93951 8.0657,-6.37391 8.0657,-12.98547 0,-7.00348 -2.7598,-11.16999 -8.9695,-13.5415 -5.702,-2.17763 -10.4719,-1.32688 -15.0379,2.68217 -10.0157,8.79391 -3.7881,24.91993 9.9417,25.74333 1.0638,0.0638 3.7638,-0.79054 6,-1.89853 z m -12.4343,-6.98547 c -2.1761,-2.17613 -2.695,-7.83286 -1.0077,-10.98566 0.5458,-1.01979 2.506,-2.35371 4.356,-2.96427 8.4793,-2.79841 15.0594,6.34802 9.5791,13.31507 -2.6804,3.40767 -9.8047,3.75754 -12.9274,0.63486 z m 33.8583,-1.54696 c 2.791,-3.54825 3.4614,-7.55214 2.1067,-12.58311 -1.351,-5.01722 -7.6513,-11.86993 -10.9131,-11.86993 -3.4252,0 -6.0531,1.86464 -6.0391,4.28518 0.017,2.95916 4.7279,17.63418 6.5695,20.46482 1.9699,3.02796 5.7678,2.89169 8.276,-0.29696 z m -15.4297,-23.02447 c 5.9845,-5.98449 -6.0597,-14.87991 -16.8515,-12.44596 -7.4484,1.6799 -12.5832,10.16711 -7.8271,12.93729 0.9625,0.56061 6.5554,1.03297 12.4286,1.04969 8.4039,0.0239 11.0133,-0.30431 12.25,-1.54102 z m -83.9286,-42.55749 c -20.1794,-2.36467 -37.9,-16.9396 -44.6971,-36.76252 -3.2148,-9.37579 -3.192,-23.90609 0.053,-33.37479 7.661,-22.35812 27.872,-36.73377 51.6446,-36.73377 23.8255,0 43.9665,14.32587 51.6446,36.73377 3.2693,9.54107 3.2693,23.99139 0,33.53246 -8.4145,24.55692 -32.605,39.65623 -58.6446,36.60485 z m 14.4806,-9.93761 c 13.0669,-2.11998 25.2453,-10.53159 31.2365,-21.57487 14.933,-27.52548 -1.0301,-60.45633 -31.6794,-65.35258 -18.2706,-2.91874 -37.3208,6.0892 -45.7548,21.63538 -16.1145,29.70329 3.6267,64.37027 37.7171,66.23414 1.1,0.0601 4.9163,-0.36379 8.4806,-0.94207 z m -19.0353,-6.32793 c -11.6613,-4.47994 -21.1581,-13.3374 -25.0042,-23.32096 -3.0844,-8.00627 -3.0793,-19.57575 0.012,-27.60161 3.1342,-8.13683 12.034,-17.48092 20.2742,-21.28628 5.5962,-2.5843 7.351,-2.89669 16.2726,-2.89669 8.9216,0 10.6765,0.31239 16.2726,2.89669 8.2402,3.80536 17.14,13.14945 20.2742,21.28628 3.0914,8.02586 3.0965,19.59534 0.012,27.60161 -2.9661,7.6991 -11.4975,16.88369 -19.4861,20.97784 -5.3282,2.73066 -7.2378,3.14888 -15.5728,3.41052 -6.2933,0.19754 -10.6999,-0.16276 -13.0547,-1.0674 z m 7.0547,-9.89981 c 1.8162,-0.91886 2.5,-2.07199 2.5,-4.21603 0,-2.53821 -1.1783,-3.82859 -8.4194,-9.22046 -10.9612,-8.1619 -15.0806,-8.22121 -15.0806,-0.21712 0,4.94922 3.5337,9.95159 8.97,12.69788 5.0223,2.53721 8.3772,2.80374 12.03,0.95573 z m 22.534,-2.16384 c 3.6609,-2.79229 6.466,-7.7375 6.466,-11.39899 0,-1.05673 -0.8471,-2.9675 -1.8825,-4.24616 -1.6765,-2.0703 -2.176,-2.1911 -4.5632,-1.10345 -1.4743,0.67175 -6.0272,3.69628 -10.1174,6.72119 -6.3188,4.67298 -7.4369,5.94229 -7.4369,8.44298 0,3.90252 2.3331,5.178 8.6779,4.74408 3.7673,-0.25765 6.1798,-1.11839 8.8561,-3.15965 z m -9.6698,-13.25301 c 4.0764,-2.98648 6.3181,-8.07 5.8003,-13.15312 -0.831,-8.15746 -7.4606,-13.62219 -15.5287,-12.80027 -14.3217,1.45897 -17.8489,20.24105 -5.0647,26.96906 4.2225,2.22222 11.0097,1.75623 14.7931,-1.01567 z m -10.4899,-3.07314 c -6.3517,-0.96294 -8.9395,-10.10505 -4.2016,-14.84301 5.5662,-5.56616 15.2273,-1.7133 15.2273,6.07266 0,5.76084 -4.9428,9.69254 -11.0257,8.77035 z m -15.6655,-11.71574 c 1.7648,-4.95 3.1148,-10.575 3,-12.5 -0.1996,-3.34566 -0.3906,-3.51328 -4.3306,-3.80124 -3.4561,-0.25258 -4.6028,0.17969 -7.0995,2.67634 -7.7588,7.75886 -5.975,23.91786 2.5319,22.93548 2.4109,-0.27842 3.0217,-1.24249 5.8982,-9.31058 z m 45.7345,7.27749 c 2.0753,-2.96283 2.0131,-12.01344 -0.1133,-16.49442 -2.9769,-6.27334 -11.9872,-9.66064 -14.2836,-5.36971 -0.7732,1.44473 -0.2891,4.30097 1.9768,11.662 1.6505,5.36177 3.5005,10.35076 4.1113,11.08665 1.7754,2.13932 6.5466,1.63141 8.3088,-0.88452 z m -15.1299,-23.90925 c 1.4721,-2.3384 -0.7364,-7.09618 -4.2601,-9.17767 -3.8364,-2.26621 -14.2455,-2.28079 -18.0638,-0.0253 -2.7247,1.60954 -4.9895,5.09636 -4.9895,7.68178 0,3.13146 2.4291,3.71151 14.372,3.43189 9.7268,-0.22773 12.1027,-0.57851 12.9414,-1.9107 z"
         id="path3668"
         inkscape:connector-curvature="0" />
      <path
         style="fill:#7f7f7f"
         d="m 1307.2128,-255.97145 c -11.9829,-1.65716 -27.2106,-8.17228 -36.68,-15.69342 -8.0364,-6.38299 -15.521,-15.77847 -19.9886,-25.09203 -7.2867,-15.19045 -6.8909,-4.10402 -6.5961,-184.75672 l 0.2647,-162.24328 2.7558,-8.13052 c 3.5601,-10.5037 10.6323,-21.21046 19.3996,-29.36948 8.5975,-8.00098 15.6984,-12.29174 27.0834,-16.36526 l 8.7612,-3.13474 120,0 120,0 7.4648,2.34401 c 25.5832,8.03342 43.8025,26.4098 50.7186,51.15599 1.7213,6.15883 1.8166,15.00291 1.8166,168.5 0,182.03696 0.6444,166.52448 -7.617,183.3781 -7.2881,14.86817 -22.7149,28.72993 -38.748,34.81718 -13.9066,5.2799 -12.9655,5.24384 -133.635,5.12 -61.6,-0.0632 -113.35,-0.30164 -115,-0.52983 z m 239.09,-6.29129 c 20.0072,-5.0735 35.3315,-17.23148 44.3762,-35.20728 7.567,-15.03891 7.1288,-3.18724 6.8147,-184.28688 l -0.2809,-162 -2.6792,-7.3346 c -3.7898,-10.37493 -8.3158,-17.56337 -15.8718,-25.20822 -10.8878,-11.01599 -24.9272,-17.82832 -41.1298,-19.9575 -5.7239,-0.75216 -43.2599,-0.9934 -120.3192,-0.77328 l -112,0.31992 -7.4837,2.2951 c -12.6183,3.86981 -20.6057,8.69064 -30.0391,18.1302 -6.3692,6.37339 -9.4636,10.42352 -12.2462,16.02838 -7.8068,15.72511 -7.231,1.23158 -7.231,182 0,153.67624 0.089,161.81489 1.8364,168 6.6273,23.45814 25.3266,41.81014 48.8931,47.9849 6.9423,1.81899 12.5107,1.90746 123.3605,1.96004 113.0035,0.0536 116.3004,0.002 124,-1.95078 z m -64.6522,-51.01003 c -19.4255,-3.02195 -35.5701,-16.74421 -42.112,-35.79369 -3.0265,-8.81284 -3.2399,-24.8944 -0.4404,-33.19044 5.9752,-17.7068 19.8638,-30.96472 37.1562,-35.46881 7.5355,-1.96276 21.3813,-1.96276 28.9168,0 38.2198,9.95499 52.1479,57.54484 25.6439,87.62061 -11.3173,12.84243 -31.1546,19.63406 -49.1645,16.83233 z m 18.9756,-9.52541 c 17.8928,-4.21759 31.2254,-18.54563 34.3768,-36.9434 2.7643,-16.13765 -5.1151,-33.413 -19.8731,-43.57116 -12.684,-8.7306 -33.3664,-9.31194 -47.0275,-1.32185 -6.0745,3.55288 -15.1118,13.52928 -18.0301,19.90372 -11.5989,25.33528 2.4456,54.55139 29.6405,61.65969 8.1413,2.12799 12.7864,2.18863 20.9134,0.273 z m -22.8177,-6.96568 c -10.0582,-3.13593 -19.7229,-12.71523 -23.7023,-23.49304 -2.5213,-6.82863 -2.2666,-20.02419 0.5259,-27.24666 3.0887,-7.9886 10.5385,-15.8688 18.888,-19.97923 6.2384,-3.07118 7.304,-3.27411 17.1927,-3.27411 9.8887,0 10.9543,0.20293 17.1927,3.27411 8.3495,4.11043 15.7993,11.99063 18.888,19.97923 2.7925,7.22247 3.0472,20.41803 0.5259,27.24666 -4.0218,10.89259 -12.495,19.35478 -23.1186,23.08868 -6.4986,2.28408 -19.7138,2.48656 -26.3923,0.40436 z m 10.0283,-10.10528 c 3.8942,-3.52414 1.8092,-6.47504 -10.4372,-14.77186 -3.7473,-2.53875 -7.2899,-4.6159 -7.8725,-4.6159 -0.704,0 -0.6752,-0.4627 0.086,-1.37998 1.52,-1.83142 7.0996,-18.42014 7.0996,-21.10761 0,-5.58598 -7.1894,-6.25624 -12.2991,-1.14661 -7.1705,7.17051 -7.143,19.16493 0.052,22.75923 2.7953,1.39633 3.0415,1.80058 1.75,2.87244 -1.889,1.5678 -1.9361,6.26951 -0.098,9.80219 4.4437,8.54066 16.148,12.62984 21.7191,7.5881 z m 17.1737,1.2612 c 4.1532,-1.73529 9.3171,-7.61872 10.1949,-11.61532 0.8695,-3.95879 -1.5886,-8.03364 -4.8462,-8.03364 -1.2692,0 -6.0963,2.81767 -10.727,6.26148 -6.356,4.72693 -8.4947,6.90895 -8.7265,8.90331 -0.5923,5.09578 6.9229,7.48499 14.1048,4.48417 z m -9.6128,-13.71258 c 4.0125,-1.51601 8.0844,-5.70744 9.3911,-9.6665 3.4881,-10.56919 -7.0111,-21.24934 -17.9846,-18.29448 -7.045,1.897 -12.409,10.6389 -10.7017,17.44095 0.8632,3.43963 5.4687,8.61246 9.0607,10.17705 3.7522,1.63434 6.567,1.72867 10.2345,0.34298 z m -8.6849,-6.18979 c -5.2926,-2.76298 -6.279,-11.03691 -1.6983,-14.24535 2.9869,-2.09214 8.9931,-1.89286 11.8148,0.392 3.0709,2.48667 3.2685,9.1662 0.3573,12.0774 -2.6007,2.60072 -7.351,3.40618 -10.4738,1.77595 z m 31.9274,-3.38145 c 4.4671,-5.67902 1.5306,-18.28594 -5.2177,-22.40063 -4.0394,-2.46296 -6.1986,-2.47558 -8.6238,-0.0504 -1.5423,1.54229 -1.751,2.56202 -1.0745,5.25 1.4575,5.79156 4.6114,15.26262 5.8585,17.59287 1.721,3.21565 6.3784,3.01419 9.0575,-0.3918 z m -15.4922,-23.29348 c 2.1701,-2.39796 1.4795,-4.82112 -2.4457,-8.58171 -2.4257,-2.324 -4.0907,-2.94198 -8.8545,-3.28657 -7.434,-0.53773 -12.6512,1.71424 -14.9009,6.43194 -1.4756,3.09433 -1.4588,3.4589 0.2461,5.34281 1.6287,1.79969 3.0594,2.02187 13.0198,2.02187 9.7814,0 11.4097,-0.24274 12.9352,-1.92834 z m -98.3229,-39.65221 c -22.4506,-6.03772 -38.372,-27.09993 -38.4911,-50.91945 -0.05,-10.07069 1.6409,-17.10502 6.251,-25.9989 6.4445,-12.43297 18.2955,-21.90132 32.6278,-26.06801 6.9475,-2.01978 20.4638,-2.25883 27.9685,-0.49465 23.5836,5.5439 40.5315,27.31306 40.5315,52.06156 0,23.4545 -14.0523,42.99637 -36.2849,50.4596 -6.1528,2.06541 -9.4045,2.52809 -17.3914,2.47459 -5.403,-0.0362 -12.2481,-0.71783 -15.2114,-1.51474 z m 28.5512,-8.98917 c 12.5062,-3.47768 25.328,-16.18769 29.2987,-29.04319 7.9163,-25.62996 -7.6043,-51.45846 -34.2619,-57.01672 -24.3061,-5.06797 -48.3585,11.77601 -52.7396,36.93371 -3.1816,18.27031 7.0857,37.7113 24.3946,46.19096 11.2304,5.50174 20.9868,6.36151 33.3082,2.93524 z m -25.3775,-5.82578 c -10.3594,-3.37341 -18.5086,-10.58402 -23.1508,-20.48449 -2.3238,-4.95595 -2.6352,-6.86317 -2.6352,-16.14104 0,-9.84897 0.2076,-10.94271 3.2499,-17.12258 3.853,-7.82646 10.1293,-13.97121 18.075,-17.69598 5.067,-2.37536 6.8537,-2.66041 16.6751,-2.66041 10.1301,0 11.4702,0.23085 16.9455,2.91921 7.8524,3.85548 13.9864,10.16094 17.8801,18.38008 2.8729,6.06423 3.1744,7.60308 3.1744,16.20071 0,8.60462 -0.3002,10.13382 -3.1857,16.22477 -3.8391,8.10424 -10.2731,14.64869 -18.0975,18.40831 -4.7687,2.29133 -7.2923,2.79636 -15.2168,3.04526 -6.1143,0.19204 -11.0018,-0.19067 -13.714,-1.07384 z m 9.0918,-10.53783 c 3.2649,-3.26495 1.4644,-6.15463 -8.0328,-12.89173 -4.7876,-3.39622 -9.3092,-6.17494 -10.0479,-6.17494 -1.086,0 -1.0613,-0.43085 0.1292,-2.25 2.2365,-3.41772 6.5589,-16.84087 6.5667,-20.39301 0.01,-3.37624 -1.3308,-4.37221 -5.8248,-4.33475 -8.9868,0.0749 -14.86,16.43688 -8.5793,23.90103 1.4239,1.6922 3.2343,3.07673 4.0231,3.07673 1.1918,0 1.1578,0.42165 -0.2011,2.49559 -2.4548,3.74657 -1.104,8.81127 3.6063,13.52159 6.0575,6.05754 14.0286,7.38145 18.3606,3.04949 z m 16.9199,1.58229 c 3.8263,-1.59871 9.4164,-7.6618 10.2963,-11.1673 0.8768,-3.49378 -0.2691,-7.23741 -2.5968,-8.48315 -2.4338,-1.30256 -4.7491,-0.14698 -14.4972,7.23558 -7.9491,6.02011 -8.9784,8.45783 -4.9196,11.65052 3.0965,2.43566 7.0933,2.69639 11.7173,0.76435 z m -7.8634,-14.66349 c 5.9325,-2.93951 8.0657,-6.37391 8.0657,-12.98547 0,-7.00348 -2.7598,-11.16999 -8.9695,-13.5415 -5.702,-2.17763 -10.4719,-1.32688 -15.0379,2.68217 -10.0157,8.79391 -3.7881,24.91993 9.9417,25.74333 1.0638,0.0638 3.7638,-0.79054 6,-1.89853 z m -12.4343,-6.98547 c -2.1761,-2.17613 -2.695,-7.83286 -1.0077,-10.98566 0.5458,-1.01979 2.506,-2.35371 4.356,-2.96427 8.4793,-2.79841 15.0594,6.34802 9.5791,13.31507 -2.6804,3.40767 -9.8047,3.75754 -12.9274,0.63486 z m 33.8583,-1.54696 c 2.791,-3.54825 3.4614,-7.55214 2.1067,-12.58311 -1.351,-5.01722 -7.6513,-11.86993 -10.9131,-11.86993 -3.4252,0 -6.0531,1.86464 -6.0391,4.28518 0.017,2.95916 4.7279,17.63418 6.5695,20.46482 1.9699,3.02796 5.7678,2.89169 8.276,-0.29696 z m -15.4297,-23.02447 c 5.9845,-5.98449 -6.0597,-14.87991 -16.8515,-12.44596 -7.4484,1.6799 -12.5832,10.16711 -7.8271,12.93729 0.9625,0.56061 6.5554,1.03297 12.4286,1.04969 8.4039,0.0239 11.0133,-0.30431 12.25,-1.54102 z m -87.9286,-43.38409 c -10.5622,-2.29563 -22.6495,-8.98668 -29.1796,-16.15266 -3.8865,-4.265 -9.3454,-14.23767 -11.3567,-20.74716 -2.671,-8.64434 -2.671,-22.64498 0,-31.28932 2.2432,-7.26016 7.6848,-16.81094 12.3509,-21.67774 4.9307,-5.14273 13.9712,-10.7693 21.4192,-13.33063 9.657,-3.32101 25.8755,-3.32101 35.5324,0 22.0875,7.59584 35.7338,26.93959 35.7338,50.65303 0,23.39679 -13.0274,42.27501 -34.6207,50.16942 -7.5751,2.76939 -22.578,3.96196 -29.8793,2.37506 z m 22,-9.40057 c 20.1824,-5.37802 33.5,-22.52953 33.5,-43.14391 0,-33.99474 -36.049,-55.20483 -66.0629,-38.86926 -23.3482,12.70768 -30.3321,44.01241 -14.5136,65.05569 11.0456,14.69379 29.9784,21.51362 47.0765,16.95748 z m -21.2698,-6.135 c -7.4494,-2.08938 -10.8747,-4.0595 -16.798,-9.6615 -3.2622,-3.08522 -6.2493,-7.20933 -8.058,-11.12504 -2.5592,-5.54031 -2.8742,-7.31851 -2.8742,-16.22237 0,-8.92488 0.3119,-10.67539 2.9009,-16.28203 3.7186,-8.0526 12.2326,-16.14797 20.3145,-19.31562 4.4901,-1.75986 7.7986,-2.26722 14.7846,-2.26722 6.986,0 10.2945,0.50736 14.7846,2.26722 8.0819,3.16765 16.5959,11.26302 20.3145,19.31562 2.589,5.60664 2.9009,7.35715 2.9009,16.28203 0,8.92488 -0.3119,10.67539 -2.9009,16.28203 -3.7471,8.11426 -12.2533,16.17845 -20.3145,19.2588 -7.3435,2.8061 -18.0477,3.43332 -25.0544,1.46808 z m 21.9888,-8.55292 c 6.8693,-1.9078 12.781,-8.65048 12.781,-14.57759 0,-3.0079 -2.5114,-6.3784 -4.7527,-6.3784 -1.6709,0 -15.8456,9.79021 -18.6261,12.86472 l -1.8788,2.07746 -1.9138,-2.43292 c -2.9259,-3.71972 -15.9242,-12.50926 -18.4991,-12.50926 -1.343,0 -2.9703,1.04831 -3.9512,2.54532 -2.3238,3.54668 -0.5234,9.24207 4.2451,13.42892 6.5806,5.77785 13.7088,6.78448 17.9573,2.53593 2.0384,-2.03833 2.5957,-2.21419 3.0732,-0.96981 0.5844,1.52294 4.9681,4.34931 6.8461,4.41403 0.55,0.019 2.6735,-0.43033 4.719,-0.9984 z m -1.3975,-18.31086 c 3.472,-3.47194 3.6785,-4.03795 3.6785,-10.08123 0,-5.44947 -0.3722,-6.80114 -2.5,-9.07835 -3.4318,-3.6728 -7.2321,-5.48555 -11.5,-5.48555 -4.2679,0 -8.0682,1.81275 -11.5,5.48555 -2.1202,2.26915 -2.5,3.63477 -2.5,8.99003 0,6.8537 1.1923,9.0209 7,12.72327 2.2674,1.44547 4.2995,1.81631 8.3215,1.51861 4.5369,-0.33579 5.864,-0.93628 9,-4.07233 z m -16.3669,-4.09968 c -5.3928,-5.39272 -1.5887,-14.54545 6.0454,-14.54545 4.8766,0 8.5,3.62342 8.5,8.5 0,2.47924 -0.7599,4.35079 -2.4545,6.04545 -1.6947,1.69467 -3.5663,2.45455 -6.0455,2.45455 -2.4792,0 -4.3508,-0.75988 -6.0454,-2.45455 z m 31.6008,0.42491 c 1.0581,-0.56631 2.6036,-2.34396 3.4343,-3.95034 4.5137,-8.72861 -2.6759,-22.56777 -11.3351,-21.81866 -5.385,0.46586 -5.9262,2.42589 -3.1691,11.47576 4.3596,14.30948 6.317,16.8369 11.0699,14.29324 z m -45.6882,-2.72036 c 0.7801,-1.5125 2.649,-6.70123 4.153,-11.53052 2.6319,-8.45094 2.6676,-8.85443 0.9522,-10.74999 -5.4001,-5.96702 -16.4724,3.47053 -16.4724,14.04033 0,4.32806 2.1055,9.4665 4.229,10.32089 3.2483,1.30696 5.7698,0.57196 7.1382,-2.08071 z m 31.4103,-21.8067 c 4.2908,-3.00536 2.2933,-8.59983 -4.1082,-11.50635 -5.2888,-2.40133 -10.0498,-2.40133 -15.3386,0 -6.6946,3.03958 -8.4371,9.19905 -3.3307,11.77328 3.7395,1.88513 19.9767,1.69484 22.7775,-0.26693 z"
         id="path3666"
         inkscape:connector-curvature="0" />
      <path
         style="fill:#4b526a"
         d="m 1300.1939,-257.72646 c -13.6892,-2.98068 -26.3703,-10.09834 -36.4811,-20.47613 -10.8585,-11.14528 -16.9632,-23.87626 -19.0571,-39.74254 -0.682,-5.16814 -0.9274,-61.28145 -0.725,-165.81177 0.3435,-177.39304 -0.3661,-161.48562 7.9631,-178.5 3.3394,-6.82165 5.855,-10.1856 12.74,-17.0367 9.5267,-9.47976 18.9371,-15.08538 32.1064,-19.12523 l 7.4726,-2.29234 113,-0.31949 c 76.2881,-0.2157 115.6453,0.028 121.1422,0.75002 26.0139,3.41709 46.5918,18.20356 57.3614,41.21784 6.2403,13.33507 5.96,4.85516 5.979,180.89594 0.017,157.11387 -0.026,160.76126 -1.9754,168.5 -3.3285,13.21181 -8.2033,21.65049 -18.4811,31.99227 -7.3489,7.39469 -10.6055,9.85781 -17.5261,13.25585 -4.675,2.29544 -12.0595,5.0709 -16.41,6.16768 -7.6871,1.93798 -11.1943,1.99192 -124.5,1.91466 -92.1783,-0.0629 -117.8502,-0.35391 -122.6089,-1.39006 z m 246.0189,-3.80287 c 25.0611,-7.29883 43.7629,-25.80997 50.2398,-49.72757 1.6461,-6.07852 1.7602,-16.93985 1.7602,-167.5 0,-153.19109 -0.089,-161.31527 -1.8363,-167.5 -3.1616,-11.1907 -9.2775,-21.58102 -17.6291,-29.94982 -8.6266,-8.64445 -17.0784,-13.92435 -28.5346,-17.82577 l -8,-2.72441 -115.5,-0.28953 c -81.3133,-0.20384 -117.4239,0.0391 -122,0.82065 -26.484,4.52343 -49.7766,26.44145 -55.4545,52.182 -1.4465,6.55728 -1.5793,23.45704 -1.3265,168.78688 l 0.281,161.5 2.6792,7.3346 c 3.9612,10.84421 8.4329,17.78249 16.8633,26.1654 11.0623,10.99984 23.3174,17.39964 38.0783,19.88497 3.0348,0.51099 55.2807,0.83693 119.8792,0.74788 105.7459,-0.14577 114.9587,-0.29144 120.5,-1.90528 z m -64.5622,-51.74344 c -19.4255,-3.02195 -35.5701,-16.74421 -42.112,-35.79369 -3.0265,-8.81284 -3.2399,-24.8944 -0.4404,-33.19044 5.9752,-17.7068 19.8638,-30.96472 37.1562,-35.46881 7.5355,-1.96276 21.3813,-1.96276 28.9168,0 38.2198,9.95499 52.1479,57.54484 25.6439,87.62061 -11.3173,12.84243 -31.1546,19.63406 -49.1645,16.83233 z m 18.9756,-9.52541 c 17.8928,-4.21759 31.2254,-18.54563 34.3768,-36.9434 2.7643,-16.13765 -5.1151,-33.413 -19.8731,-43.57116 -12.684,-8.7306 -33.3664,-9.31194 -47.0275,-1.32185 -6.0745,3.55288 -15.1118,13.52928 -18.0301,19.90372 -11.5989,25.33528 2.4456,54.55139 29.6405,61.65969 8.1413,2.12799 12.7864,2.18863 20.9134,0.273 z m -22.8177,-6.96568 c -10.0582,-3.13593 -19.7229,-12.71523 -23.7023,-23.49304 -2.5213,-6.82863 -2.2666,-20.02419 0.5259,-27.24666 3.0887,-7.9886 10.5385,-15.8688 18.888,-19.97923 6.2384,-3.07118 7.304,-3.27411 17.1927,-3.27411 9.8887,0 10.9543,0.20293 17.1927,3.27411 8.3495,4.11043 15.7993,11.99063 18.888,19.97923 2.7925,7.22247 3.0472,20.41803 0.5259,27.24666 -4.0218,10.89259 -12.495,19.35478 -23.1186,23.08868 -6.4986,2.28408 -19.7138,2.48656 -26.3923,0.40436 z m 10.0283,-10.10528 c 3.8942,-3.52414 1.8092,-6.47504 -10.4372,-14.77186 -3.7473,-2.53875 -7.2899,-4.6159 -7.8725,-4.6159 -0.704,0 -0.6752,-0.4627 0.086,-1.37998 1.52,-1.83142 7.0996,-18.42014 7.0996,-21.10761 0,-5.58598 -7.1894,-6.25624 -12.2991,-1.14661 -7.1705,7.17051 -7.143,19.16493 0.052,22.75923 2.7953,1.39633 3.0415,1.80058 1.75,2.87244 -1.889,1.5678 -1.9361,6.26951 -0.098,9.80219 4.4437,8.54066 16.148,12.62984 21.7191,7.5881 z m 17.1737,1.2612 c 4.1532,-1.73529 9.3171,-7.61872 10.1949,-11.61532 0.8695,-3.95879 -1.5886,-8.03364 -4.8462,-8.03364 -1.2692,0 -6.0963,2.81767 -10.727,6.26148 -6.356,4.72693 -8.4947,6.90895 -8.7265,8.90331 -0.5923,5.09578 6.9229,7.48499 14.1048,4.48417 z m -9.6128,-13.71258 c 4.0125,-1.51601 8.0844,-5.70744 9.3911,-9.6665 3.4881,-10.56919 -7.0111,-21.24934 -17.9846,-18.29448 -7.045,1.897 -12.409,10.6389 -10.7017,17.44095 0.8632,3.43963 5.4687,8.61246 9.0607,10.17705 3.7522,1.63434 6.567,1.72867 10.2345,0.34298 z m -8.6849,-6.18979 c -5.2926,-2.76298 -6.279,-11.03691 -1.6983,-14.24535 2.9869,-2.09214 8.9931,-1.89286 11.8148,0.392 3.0709,2.48667 3.2685,9.1662 0.3573,12.0774 -2.6007,2.60072 -7.351,3.40618 -10.4738,1.77595 z m 31.9274,-3.38145 c 4.4671,-5.67902 1.5306,-18.28594 -5.2177,-22.40063 -4.0394,-2.46296 -6.1986,-2.47558 -8.6238,-0.0504 -1.5423,1.54229 -1.751,2.56202 -1.0745,5.25 1.4575,5.79156 4.6114,15.26262 5.8585,17.59287 1.721,3.21565 6.3784,3.01419 9.0575,-0.3918 z m -15.4922,-23.29348 c 2.1701,-2.39796 1.4795,-4.82112 -2.4457,-8.58171 -2.4257,-2.324 -4.0907,-2.94198 -8.8545,-3.28657 -7.434,-0.53773 -12.6512,1.71424 -14.9009,6.43194 -1.4756,3.09433 -1.4588,3.4589 0.2461,5.34281 1.6287,1.79969 3.0594,2.02187 13.0198,2.02187 9.7814,0 11.4097,-0.24274 12.9352,-1.92834 z m -98.3229,-39.65221 c -22.4506,-6.03772 -38.372,-27.09993 -38.4911,-50.91945 -0.05,-10.07069 1.6409,-17.10502 6.251,-25.9989 6.4445,-12.43297 18.2955,-21.90132 32.6278,-26.06801 6.9475,-2.01978 20.4638,-2.25883 27.9685,-0.49465 23.5836,5.5439 40.5315,27.31306 40.5315,52.06156 0,23.4545 -14.0523,42.99637 -36.2849,50.4596 -6.1528,2.06541 -9.4045,2.52809 -17.3914,2.47459 -5.403,-0.0362 -12.2481,-0.71783 -15.2114,-1.51474 z m 28.5512,-8.98917 c 12.5062,-3.47768 25.328,-16.18769 29.2987,-29.04319 7.9163,-25.62996 -7.6043,-51.45846 -34.2619,-57.01672 -24.3061,-5.06797 -48.3585,11.77601 -52.7396,36.93371 -3.1816,18.27031 7.0857,37.7113 24.3946,46.19096 11.2304,5.50174 20.9868,6.36151 33.3082,2.93524 z m -26.4414,-6.3444 c -7.5977,-2.81642 -14.5354,-8.30537 -19.0584,-15.07854 -4.9111,-7.35444 -6.5415,-13.9197 -5.9584,-23.99254 0.7956,-13.74349 8.6276,-25.34961 21.3075,-31.57518 5.4724,-2.68688 6.8913,-2.93962 16.5028,-2.93962 9.8576,0 10.932,0.20485 17.1717,3.27411 8.2978,4.08166 15.7762,11.96867 18.9441,19.97923 3.18,8.04104 3.18,20.45228 0,28.49332 -3.1524,7.97135 -10.6496,15.89854 -18.858,19.93949 -5.6875,2.79999 -7.7923,3.27614 -15.6717,3.54529 -7.1358,0.24375 -10.2417,-0.11169 -14.3796,-1.64556 z m 8.31,-8.53485 c 2.8177,-1.17732 3.4679,-1.98831 3.4679,-4.32569 0,-1.71798 -0.9063,-3.69049 -2.25,-4.89702 -4.6334,-4.1604 -15.5684,-11.32832 -17.282,-11.32832 -1.6077,0 -1.6319,-0.16759 -0.2527,-1.75 2.3249,-2.66739 6.9595,-17.7292 6.6015,-21.45397 -0.2956,-3.07565 -0.5879,-3.31595 -4.371,-3.59396 -7.4236,-0.54554 -12.4458,6.00958 -12.4458,16.24451 0,4.65941 0.4283,6.07264 2.4546,8.09887 1.35,1.35 3.1755,2.45455 4.0567,2.45455 1.4559,0 1.46,0.20288 0.046,2.22251 -4.0729,5.81489 1.0394,15.08886 10.0984,18.31884 4.9255,1.75616 5.6952,1.75692 9.877,0.01 z m 20.9383,-0.83271 c 7.3187,-4.14514 10.9559,-13.3798 6.9942,-17.75749 -1.4052,-1.55267 -1.2952,-1.7447 1.2957,-2.2629 8.2073,-1.64145 7.3526,-19.60893 -1.1803,-24.81225 -3.5164,-2.14433 -7.6213,-2.44439 -9.38,-0.68568 -1.9417,1.94173 -1.4079,6.01601 2.1118,16.11806 l 3.3117,9.50528 -6.4517,4.24174 c -9.3494,6.14687 -13.1718,9.76907 -13.1718,12.48181 0,5.41575 9.3344,7.21312 16.4704,3.17143 z m -7.7376,-14.27889 c 5.7169,-3.74586 8.0316,-13.12671 4.7872,-19.40079 -6.0878,-11.77257 -24.0973,-9.74966 -27.556,3.09523 -1.9175,7.12091 2.0094,14.85582 9.036,17.79839 3.1821,1.33257 10.6616,0.5195 13.7328,-1.49283 z m -14.5585,-6.75388 c -4.2391,-4.51232 -2.0846,-11.8268 4.1316,-14.0266 2.5006,-0.88493 8.2896,1.71676 9.7052,4.36169 1.6068,3.0024 0.3927,8.5831 -2.2735,10.45062 -3.3391,2.3388 -8.9886,1.95492 -11.5633,-0.78571 z m 18.6257,-23.88555 c 3.5768,-3.57679 -1.1607,-10.89799 -8.1988,-12.67021 -9.5351,-2.40096 -18.6012,2.03651 -18.6012,9.10447 0,4.20434 1.6492,4.76574 14,4.76574 7.6889,0 12.0046,-0.4046 12.8,-1.2 z m -88.3,-43.75552 c -10.5622,-2.29563 -22.6495,-8.98668 -29.1796,-16.15266 -3.8865,-4.265 -9.3454,-14.23767 -11.3567,-20.74716 -2.671,-8.64434 -2.671,-22.64498 0,-31.28932 2.2432,-7.26016 7.6848,-16.81094 12.3509,-21.67774 4.9307,-5.14273 13.9712,-10.7693 21.4192,-13.33063 9.657,-3.32101 25.8755,-3.32101 35.5324,0 22.0875,7.59584 35.7338,26.93959 35.7338,50.65303 0,23.39679 -13.0274,42.27501 -34.6207,50.16942 -7.5751,2.76939 -22.578,3.96196 -29.8793,2.37506 z m 22,-9.40057 c 20.1824,-5.37802 33.5,-22.52953 33.5,-43.14391 0,-33.99474 -36.049,-55.20483 -66.0629,-38.86926 -23.3482,12.70768 -30.3321,44.01241 -14.5136,65.05569 11.0456,14.69379 29.9784,21.51362 47.0765,16.95748 z m -21.2698,-6.135 c -7.4494,-2.08938 -10.8747,-4.0595 -16.798,-9.6615 -3.2622,-3.08522 -6.2493,-7.20933 -8.058,-11.12504 -2.5592,-5.54031 -2.8742,-7.31851 -2.8742,-16.22237 0,-8.92488 0.3119,-10.67539 2.9009,-16.28203 3.7186,-8.0526 12.2326,-16.14797 20.3145,-19.31562 4.4901,-1.75986 7.7986,-2.26722 14.7846,-2.26722 6.986,0 10.2945,0.50736 14.7846,2.26722 8.0819,3.16765 16.5959,11.26302 20.3145,19.31562 2.589,5.60664 2.9009,7.35715 2.9009,16.28203 0,8.92488 -0.3119,10.67539 -2.9009,16.28203 -3.7471,8.11426 -12.2533,16.17845 -20.3145,19.2588 -7.3435,2.8061 -18.0477,3.43332 -25.0544,1.46808 z m 21.9888,-8.55292 c 6.8693,-1.9078 12.781,-8.65048 12.781,-14.57759 0,-3.0079 -2.5114,-6.3784 -4.7527,-6.3784 -1.6709,0 -15.8456,9.79021 -18.6261,12.86472 l -1.8788,2.07746 -1.9138,-2.43292 c -2.9259,-3.71972 -15.9242,-12.50926 -18.4991,-12.50926 -1.343,0 -2.9703,1.04831 -3.9512,2.54532 -2.3238,3.54668 -0.5234,9.24207 4.2451,13.42892 6.5806,5.77785 13.7088,6.78448 17.9573,2.53593 2.0384,-2.03833 2.5957,-2.21419 3.0732,-0.96981 0.5844,1.52294 4.9681,4.34931 6.8461,4.41403 0.55,0.019 2.6735,-0.43033 4.719,-0.9984 z m -1.3975,-18.31086 c 3.472,-3.47194 3.6785,-4.03795 3.6785,-10.08123 0,-5.44947 -0.3722,-6.80114 -2.5,-9.07835 -3.4318,-3.6728 -7.2321,-5.48555 -11.5,-5.48555 -4.2679,0 -8.0682,1.81275 -11.5,5.48555 -2.1202,2.26915 -2.5,3.63477 -2.5,8.99003 0,6.8537 1.1923,9.0209 7,12.72327 2.2674,1.44547 4.2995,1.81631 8.3215,1.51861 4.5369,-0.33579 5.864,-0.93628 9,-4.07233 z m -16.3669,-4.09968 c -5.3928,-5.39272 -1.5887,-14.54545 6.0454,-14.54545 4.8766,0 8.5,3.62342 8.5,8.5 0,2.47924 -0.7599,4.35079 -2.4545,6.04545 -1.6947,1.69467 -3.5663,2.45455 -6.0455,2.45455 -2.4792,0 -4.3508,-0.75988 -6.0454,-2.45455 z m 31.6008,0.42491 c 1.0581,-0.56631 2.6036,-2.34396 3.4343,-3.95034 4.5137,-8.72861 -2.6759,-22.56777 -11.3351,-21.81866 -5.385,0.46586 -5.9262,2.42589 -3.1691,11.47576 4.3596,14.30948 6.317,16.8369 11.0699,14.29324 z m -45.6882,-2.72036 c 0.7801,-1.5125 2.649,-6.70123 4.153,-11.53052 2.6319,-8.45094 2.6676,-8.85443 0.9522,-10.74999 -5.4001,-5.96702 -16.4724,3.47053 -16.4724,14.04033 0,4.32806 2.1055,9.4665 4.229,10.32089 3.2483,1.30696 5.7698,0.57196 7.1382,-2.08071 z m 31.4103,-21.8067 c 4.2908,-3.00536 2.2933,-8.59983 -4.1082,-11.50635 -5.2888,-2.40133 -10.0498,-2.40133 -15.3386,0 -6.6946,3.03958 -8.4371,9.19905 -3.3307,11.77328 3.7395,1.88513 19.9767,1.69484 22.7775,-0.26693 z"
         id="path3664"
         inkscape:connector-curvature="0" />
      <path
         style="fill:#881c21"
         d="m 1298.7128,-258.30359 c -13.528,-3.49305 -23.2868,-9.1192 -33.5838,-19.36172 -7.5043,-7.46451 -9.8788,-10.61279 -13.2682,-17.59159 -8.2923,-17.07429 -7.5865,-1.23177 -7.93,-178 -0.1995,-102.66347 0.047,-160.17977 0.7094,-165.19675 4.3194,-32.73856 29.6031,-57.38314 63.4305,-61.82712 5.4923,-0.72154 44.5921,-0.96792 120.1421,-0.75705 111.9476,0.31246 112.0036,0.31363 119.7867,2.51524 23.5789,6.66979 42.9936,24.61373 50.4575,46.63516 l 2.7558,8.13052 0.2647,162.24328 c 0.2973,182.17114 0.7864,169.65649 -7.2678,185.97153 -9.3576,18.9554 -28.1492,33.34706 -49.4337,37.85915 -5.3966,1.14401 -27.1819,1.38461 -122.5632,1.35361 -111.4175,-0.0362 -116.2963,-0.1142 -123.5,-1.97426 z m 241,-2.01832 c 8.5741,-1.3849 18.8377,-5.00942 25.809,-9.1142 9.0067,-5.30328 20.0673,-17.00281 24.8834,-26.32079 8.4875,-16.42117 7.8076,-0.52922 7.8076,-182.5 0,-150.80512 -0.1161,-161.93044 -1.7538,-168 -6.8195,-25.27478 -29.0699,-45.58353 -54.7462,-49.96884 -4.5767,-0.78166 -40.8234,-1.02449 -122.5,-0.82065 l -116,0.28949 -8,2.72441 c -11.2528,3.83217 -19.8406,9.14388 -27.9847,17.30916 -7.974,7.99478 -12.4709,15.05055 -16.3361,25.63183 l -2.6792,7.3346 -0.2809,162 c -0.3136,180.82787 -0.7486,168.93152 6.7333,184.14619 9.5006,19.31998 26.8891,32.38589 49.0476,36.85493 8.4129,1.69675 225.7082,2.09624 236,0.43387 z m -55.5,-52.581 c -30.8545,-4.62247 -51.5749,-32.26643 -46.5436,-62.09564 1.8558,-11.00232 6.8049,-20.26232 15.3225,-28.66914 11.2276,-11.08151 22.1035,-15.5557 37.8658,-15.57734 15.6307,-0.0215 28.7603,5.71757 39.4191,17.2304 30.4446,32.88376 8.8151,86.00056 -36.2803,89.09559 -3.7309,0.25607 -8.1335,0.26333 -9.7835,0.0161 z m 14.6135,-9.35278 c 16.7932,-3.11388 31.1197,-16.27544 35.3345,-32.46131 5.3885,-20.6932 -4.5244,-42.07508 -23.927,-51.61019 -6.821,-3.35208 -7.2623,-3.42971 -19.5,-3.42971 -12.0295,0 -12.788,0.12647 -19.3226,3.22161 -16.7658,7.94119 -26.8325,25.26642 -25.415,43.7403 2.0386,26.56789 26.5873,45.40538 52.8301,40.5393 z m -22.221,-8.30922 c -10.2464,-4.29938 -16.2246,-9.98572 -20.9067,-19.88592 -8.8282,-18.66724 -0.6154,-40.98727 18.536,-50.3755 5.4571,-2.67513 6.8934,-2.93057 16.4782,-2.93057 9.5848,0 11.0211,0.25544 16.4782,2.93057 15.5388,7.61727 24.4249,24.5016 21.483,40.81943 -2.2701,12.59176 -10.401,23.25929 -21.786,28.58281 -4.667,2.18218 -7.363,2.70322 -15.1752,2.93286 -8.1173,0.2386 -10.3162,-0.0632 -15.1075,-2.07368 z m 9.5844,-7.86343 c 2.8474,-1.29733 4.1937,-4.80788 2.7994,-7.29933 -1.1764,-2.1021 -17.1932,-13.52923 -18.9632,-13.52923 -1.1146,0 -1.0958,-0.40485 0.1046,-2.25 1.7719,-2.72361 6.5517,-17.45684 6.5695,-20.25 0.012,-1.90069 0.6837,-2 13.5239,-2 10.6167,0 13.405,0.27615 13.0163,1.28914 -0.5511,1.43631 5.1165,19.99814 6.7055,21.96086 0.5566,0.6875 2.2742,1.25 3.817,1.25 4.1639,0 6.9501,-4.07573 6.9501,-10.16698 0,-6.2931 -1.885,-10.71702 -6.0652,-14.2344 -2.7311,-2.2981 -4.0139,-2.71722 -7.0644,-2.30807 -2.6815,0.35967 -3.5956,0.15686 -3.258,-0.72286 0.2581,-0.67254 0.012,-2.42519 -0.5467,-3.89478 -3.4236,-9.00496 -23.7078,-9.00496 -27.1314,0 -0.5588,1.46959 -0.8095,3.20995 -0.5572,3.86745 0.3296,0.85877 -0.7779,1.05608 -3.9322,0.70054 -3.9772,-0.44829 -4.7147,-0.17106 -7.8283,2.94249 -3.8896,3.88964 -6.0961,10.4742 -5.2523,15.67388 0.648,3.99359 4.1545,8.14273 6.8814,8.14273 1.7247,0 1.7543,0.14286 0.3257,1.57143 -4.3004,4.30047 -0.051,14.49745 7.6259,18.29722 4.8414,2.39643 8.4993,2.68237 12.2796,0.95991 z m 21.6494,-1.69369 c 6.4835,-4.11171 9.4929,-11.24095 6.8385,-16.20061 -1.1623,-2.17185 -4.9517,-2.54679 -8.1953,-0.81089 -3.1902,1.70731 -14.171,9.92412 -15.0042,11.22743 -0.4041,0.63206 -0.7416,2.01377 -0.75,3.07046 -0.049,6.12509 9.375,7.6196 17.111,2.71361 z m -10.5077,-12.75816 c 10.8612,-5.15398 10.9062,-21.51147 0.073,-26.42991 -5.4842,-2.48984 -8.3319,-2.42661 -13.6555,0.3032 -5.7654,2.95633 -8.3053,7.57669 -7.737,14.07449 0.4941,5.6506 2.9956,9.48829 7.7722,11.92396 4.2872,2.18606 9.1147,2.23177 13.5475,0.12826 z m -10.7625,-5.89311 c -2.8913,-1.57068 -5.1249,-6.53778 -4.1649,-9.26178 0.3338,-0.947 1.5182,-2.73432 2.6321,-3.97182 3.99,-4.43262 11.8058,-2.21295 13.9855,3.97182 0.9907,2.81121 -1.3179,7.7315 -4.3676,9.30856 -3.4798,1.79948 -4.6996,1.79242 -8.0851,-0.0468 z m -81.8561,-66.37139 c -12.6004,-4.07848 -22.3571,-11.17647 -29.3807,-21.37444 -11.6779,-16.95587 -12.012,-41.01259 -0.8097,-58.3099 18.8268,-29.07041 59.2555,-33.30656 83.8507,-8.78596 9.7418,9.71231 15.3397,23.3453 15.3397,37.35809 0,23.84979 -16.6349,45.50237 -39.5415,51.46881 -7.9986,2.08335 -22.4612,1.90828 -29.4585,-0.3566 z m 22,-7.14091 c 14.7132,-2.29435 27.8818,-12.1665 34.2986,-25.71277 3.0245,-6.38507 3.2014,-7.394 3.2014,-18.25853 0,-10.87459 -0.1748,-11.86913 -3.2151,-18.2876 -8.7312,-18.4333 -28.1604,-28.95668 -47.6643,-25.81623 -30.4976,4.91065 -46.8599,36.30646 -33.4084,64.10383 5.7862,11.9572 18.8626,21.7782 31.7878,23.87427 7.6099,1.23409 7.7043,1.2347 15,0.097 z m -19.7779,-7.88542 c -7.5977,-2.81642 -14.5354,-8.30537 -19.0584,-15.07854 -4.9111,-7.35444 -6.5415,-13.9197 -5.9584,-23.99254 0.7956,-13.74349 8.6276,-25.34961 21.3075,-31.57518 5.4724,-2.68688 6.8913,-2.93962 16.5028,-2.93962 9.8576,0 10.932,0.20485 17.1717,3.27411 8.2978,4.08166 15.7762,11.96867 18.9441,19.97923 3.18,8.04104 3.18,20.45228 0,28.49332 -3.1524,7.97135 -10.6496,15.89854 -18.858,19.93949 -5.6875,2.79999 -7.7923,3.27614 -15.6717,3.54529 -7.1358,0.24375 -10.2417,-0.11169 -14.3796,-1.64556 z m 8.31,-8.53485 c 2.8177,-1.17732 3.4679,-1.98831 3.4679,-4.32569 0,-1.71798 -0.9063,-3.69049 -2.25,-4.89702 -4.6334,-4.1604 -15.5684,-11.32832 -17.282,-11.32832 -1.6077,0 -1.6319,-0.16759 -0.2527,-1.75 2.3249,-2.66739 6.9595,-17.7292 6.6015,-21.45397 -0.2956,-3.07565 -0.5879,-3.31595 -4.371,-3.59396 -7.4236,-0.54554 -12.4458,6.00958 -12.4458,16.24451 0,4.65941 0.4283,6.07264 2.4546,8.09887 1.35,1.35 3.1755,2.45455 4.0567,2.45455 1.4559,0 1.46,0.20288 0.046,2.22251 -4.0729,5.81489 1.0394,15.08886 10.0984,18.31884 4.9255,1.75616 5.6952,1.75692 9.877,0.01 z m 20.9383,-0.83271 c 7.3187,-4.14514 10.9559,-13.3798 6.9942,-17.75749 -1.4052,-1.55267 -1.2952,-1.7447 1.2957,-2.2629 8.2073,-1.64145 7.3526,-19.60893 -1.1803,-24.81225 -3.5164,-2.14433 -7.6213,-2.44439 -9.38,-0.68568 -1.9417,1.94173 -1.4079,6.01601 2.1118,16.11806 l 3.3117,9.50528 -6.4517,4.24174 c -9.3494,6.14687 -13.1718,9.76907 -13.1718,12.48181 0,5.41575 9.3344,7.21312 16.4704,3.17143 z m -7.7376,-14.27889 c 5.7169,-3.74586 8.0316,-13.12671 4.7872,-19.40079 -6.0878,-11.77257 -24.0973,-9.74966 -27.556,3.09523 -1.9175,7.12091 2.0094,14.85582 9.036,17.79839 3.1821,1.33257 10.6616,0.5195 13.7328,-1.49283 z m -14.5585,-6.75388 c -4.2391,-4.51232 -2.0846,-11.8268 4.1316,-14.0266 2.5006,-0.88493 8.2896,1.71676 9.7052,4.36169 1.6068,3.0024 0.3927,8.5831 -2.2735,10.45062 -3.3391,2.3388 -8.9886,1.95492 -11.5633,-0.78571 z m 18.6257,-23.88555 c 3.5768,-3.57679 -1.1607,-10.89799 -8.1988,-12.67021 -9.5351,-2.40096 -18.6012,2.03651 -18.6012,9.10447 0,4.20434 1.6492,4.76574 14,4.76574 7.6889,0 12.0046,-0.4046 12.8,-1.2 z m -90.1551,-44.38399 c -18.5274,-4.48503 -35.3818,-21.2876 -39.5655,-39.44382 -1.325,-5.75043 -1.325,-19.19395 0,-24.94438 1.8524,-8.03878 6.8624,-16.92858 13.5144,-23.98006 21.3709,-22.65428 56.4415,-22.65428 77.8124,0 10.2644,10.88081 14.5239,21.54964 14.5694,36.49215 0.045,14.89336 -4.146,25.29365 -14.7341,36.56116 -13.1508,13.99476 -32.8707,19.84803 -51.5966,15.31495 z m 24.895,-8.96801 c 12.3144,-3.20665 22.4258,-11.55301 28.2343,-23.3056 3.6806,-7.44728 3.7258,-7.68542 3.7258,-19.6424 0,-11.95698 -0.045,-12.19512 -3.7258,-19.6424 -7.674,-15.52716 -22.7911,-24.8576 -40.2742,-24.8576 -17.7379,0 -33.1951,9.82548 -40.9026,26 -2.9323,6.15353 -3.0974,7.1424 -3.0974,18.55186 0,11.89712 0.048,12.14866 3.7258,19.59054 9.561,19.34535 30.9426,28.87071 52.3141,23.3056 z m -20.9222,-5.49673 c -11.0864,-2.78421 -21.0556,-11.04085 -26.3545,-21.82728 -2.4579,-5.00343 -2.7628,-6.7274 -2.7628,-15.62399 0,-8.89659 0.3049,-10.62056 2.7628,-15.62399 4.3121,-8.7777 9.8146,-14.31099 18.5003,-18.60367 7.1382,-3.52792 8.2226,-3.77234 16.7365,-3.77234 8.5139,0 9.5983,0.24442 16.7365,3.77234 8.7479,4.32342 14.6115,10.21036 18.6534,18.72766 2.2728,4.7892 2.6101,6.79236 2.6101,15.5 0,8.70764 -0.3373,10.7108 -2.6101,15.5 -6.2367,13.14216 -18.8583,21.76823 -32.9608,22.52669 -4.086,0.21975 -9.1761,-0.0392 -11.3114,-0.57542 z m 24.8923,-10.52303 c 4.8974,-2.32396 8.49,-7.80826 8.49,-12.96037 0,-2.23733 -0.54,-4.60787 -1.2,-5.26787 -0.9333,-0.93333 -0.861,-1.2 0.3257,-1.2 2.5755,0 6.0097,-4.59047 6.5723,-8.78512 0.703,-5.24094 -1.2086,-10.94748 -5.0128,-14.96488 -2.544,-2.68652 -3.8237,-3.25 -7.3814,-3.25 -3.8119,0 -4.3038,-0.26029 -4.3038,-2.27749 0,-5.36663 -6.2723,-9.72251 -14,-9.72251 -7.6675,0 -14,4.35468 -14,9.62735 0,1.94955 -0.4052,2.12799 -3.7989,1.6728 -7.1177,-0.95469 -13.2011,6.66401 -13.2011,16.53287 0,6.09125 2.7862,10.16698 6.9501,10.16698 1.5428,0 3.3243,-0.62566 3.9589,-1.39035 1.6851,-2.03047 7.3147,-20.58423 6.7177,-22.13999 -0.4043,-1.05371 0.101,-1.11195 2.473,-0.28505 1.6456,0.57363 7.6673,0.86577 13.4407,0.65205 10.063,-0.3725 10.4596,-0.30802 10.4596,1.70049 0,2.66887 5.5872,19.26053 7.0996,21.08287 0.8856,1.0671 0.8113,1.37998 -0.328,1.37998 -1.6251,0 -16.4675,10.23677 -18.6363,12.85346 -0.9915,1.19621 -1.492,1.30753 -1.8299,0.40702 -0.2558,-0.68173 -4.2515,-3.97294 -8.8793,-7.3138 -6.8278,-4.92905 -9.0221,-6.01512 -11.6386,-5.76048 -7.4038,0.72054 -5.1959,12.50844 3.385,18.07244 5.3546,3.47198 12.5483,3.81233 15.3415,0.72584 1.7901,-1.97804 1.8628,-1.9804 3.905,-0.12728 1.1446,1.03853 2.756,2.15562 3.581,2.48242 2.2379,0.88648 7.4314,0.024 11.51,-1.91138 z m -7.8085,-14.38776 c 4.1946,-2.55761 6.2994,-6.81776 6.2948,-12.74082 -0.01,-8.85864 -5.5228,-14.29966 -14.4963,-14.29966 -8.9735,0 -14.4894,5.44102 -14.4963,14.29966 -0.01,9.26385 5.3492,14.69286 14.4963,14.69286 3.199,0 6.1532,-0.70312 8.2015,-1.95204 z m -12.2015,-5.2483 c -6.5857,-3.77692 -5.6566,-13.02077 1.5383,-15.30435 5.0943,-1.61686 10.9848,2.66805 10.9299,7.95073 -0.067,6.4417 -6.9646,10.50991 -12.4682,7.35362 z"
         id="path3662"
         inkscape:connector-curvature="0" />
      <path
         style="fill:#0f1938"
         d="m 1298.7128,-258.30359 c -13.528,-3.49305 -23.2868,-9.1192 -33.5838,-19.36172 -7.5043,-7.46451 -9.8788,-10.61279 -13.2682,-17.59159 -8.2923,-17.07429 -7.5865,-1.23177 -7.93,-178 -0.1995,-102.66347 0.047,-160.17977 0.7094,-165.19675 4.3194,-32.73856 29.6031,-57.38314 63.4305,-61.82712 5.4923,-0.72154 44.5921,-0.96792 120.1421,-0.75705 111.9476,0.31246 112.0036,0.31363 119.7867,2.51524 23.5789,6.66979 42.9936,24.61373 50.4575,46.63516 l 2.7558,8.13052 0.2647,162.24328 c 0.2973,182.17114 0.7864,169.65649 -7.2678,185.97153 -9.3576,18.9554 -28.1492,33.34706 -49.4337,37.85915 -5.3966,1.14401 -27.1819,1.38461 -122.5632,1.35361 -111.4175,-0.0362 -116.2963,-0.1142 -123.5,-1.97426 z m 241,-2.01832 c 8.5741,-1.3849 18.8377,-5.00942 25.809,-9.1142 9.0067,-5.30328 20.0673,-17.00281 24.8834,-26.32079 8.4875,-16.42117 7.8076,-0.52922 7.8076,-182.5 0,-150.80512 -0.1161,-161.93044 -1.7538,-168 -6.8195,-25.27478 -29.0699,-45.58353 -54.7462,-49.96884 -4.5767,-0.78166 -40.8234,-1.02449 -122.5,-0.82065 l -116,0.28949 -8,2.72441 c -11.2528,3.83217 -19.8406,9.14388 -27.9847,17.30916 -7.974,7.99478 -12.4709,15.05055 -16.3361,25.63183 l -2.6792,7.3346 -0.2809,162 c -0.3136,180.82787 -0.7486,168.93152 6.7333,184.14619 9.5006,19.31998 26.8891,32.38589 49.0476,36.85493 8.4129,1.69675 225.7082,2.09624 236,0.43387 z m -55.5,-52.581 c -30.8545,-4.62247 -51.5749,-32.26643 -46.5436,-62.09564 1.8558,-11.00232 6.8049,-20.26232 15.3225,-28.66914 11.2276,-11.08151 22.1035,-15.5557 37.8658,-15.57734 15.6307,-0.0215 28.7603,5.71757 39.4191,17.2304 30.4446,32.88376 8.8151,86.00056 -36.2803,89.09559 -3.7309,0.25607 -8.1335,0.26333 -9.7835,0.0161 z m 14.6135,-9.35278 c 16.7932,-3.11388 31.1197,-16.27544 35.3345,-32.46131 5.3885,-20.6932 -4.5244,-42.07508 -23.927,-51.61019 -6.821,-3.35208 -7.2623,-3.42971 -19.5,-3.42971 -12.0295,0 -12.788,0.12647 -19.3226,3.22161 -16.7658,7.94119 -26.8325,25.26642 -25.415,43.7403 2.0386,26.56789 26.5873,45.40538 52.8301,40.5393 z m -22.221,-8.30922 c -10.2464,-4.29938 -16.2246,-9.98572 -20.9067,-19.88592 -8.8282,-18.66724 -0.6154,-40.98727 18.536,-50.3755 5.4571,-2.67513 6.8934,-2.93057 16.4782,-2.93057 9.5848,0 11.0211,0.25544 16.4782,2.93057 15.5388,7.61727 24.4249,24.5016 21.483,40.81943 -2.2701,12.59176 -10.401,23.25929 -21.786,28.58281 -4.667,2.18218 -7.363,2.70322 -15.1752,2.93286 -8.1173,0.2386 -10.3162,-0.0632 -15.1075,-2.07368 z m 9.5844,-7.86343 c 2.8474,-1.29733 4.1937,-4.80788 2.7994,-7.29933 -1.1764,-2.1021 -17.1932,-13.52923 -18.9632,-13.52923 -1.1146,0 -1.0958,-0.40485 0.1046,-2.25 1.7719,-2.72361 6.5517,-17.45684 6.5695,-20.25 0.012,-1.90069 0.6837,-2 13.5239,-2 10.6167,0 13.405,0.27615 13.0163,1.28914 -0.5511,1.43631 5.1165,19.99814 6.7055,21.96086 0.5566,0.6875 2.2742,1.25 3.817,1.25 4.1639,0 6.9501,-4.07573 6.9501,-10.16698 0,-6.2931 -1.885,-10.71702 -6.0652,-14.2344 -2.7311,-2.2981 -4.0139,-2.71722 -7.0644,-2.30807 -2.6815,0.35967 -3.5956,0.15686 -3.258,-0.72286 0.2581,-0.67254 0.012,-2.42519 -0.5467,-3.89478 -3.4236,-9.00496 -23.7078,-9.00496 -27.1314,0 -0.5588,1.46959 -0.8095,3.20995 -0.5572,3.86745 0.3296,0.85877 -0.7779,1.05608 -3.9322,0.70054 -3.9772,-0.44829 -4.7147,-0.17106 -7.8283,2.94249 -3.8896,3.88964 -6.0961,10.4742 -5.2523,15.67388 0.648,3.99359 4.1545,8.14273 6.8814,8.14273 1.7247,0 1.7543,0.14286 0.3257,1.57143 -4.3004,4.30047 -0.051,14.49745 7.6259,18.29722 4.8414,2.39643 8.4993,2.68237 12.2796,0.95991 z m 21.6494,-1.69369 c 6.4835,-4.11171 9.4929,-11.24095 6.8385,-16.20061 -1.1623,-2.17185 -4.9517,-2.54679 -8.1953,-0.81089 -3.1902,1.70731 -14.171,9.92412 -15.0042,11.22743 -0.4041,0.63206 -0.7416,2.01377 -0.75,3.07046 -0.049,6.12509 9.375,7.6196 17.111,2.71361 z m -10.5077,-12.75816 c 10.8612,-5.15398 10.9062,-21.51147 0.073,-26.42991 -5.4842,-2.48984 -8.3319,-2.42661 -13.6555,0.3032 -5.7654,2.95633 -8.3053,7.57669 -7.737,14.07449 0.4941,5.6506 2.9956,9.48829 7.7722,11.92396 4.2872,2.18606 9.1147,2.23177 13.5475,0.12826 z m -10.7625,-5.89311 c -2.8913,-1.57068 -5.1249,-6.53778 -4.1649,-9.26178 0.3338,-0.947 1.5182,-2.73432 2.6321,-3.97182 3.99,-4.43262 11.8058,-2.21295 13.9855,3.97182 0.9907,2.81121 -1.3179,7.7315 -4.3676,9.30856 -3.4798,1.79948 -4.6996,1.79242 -8.0851,-0.0468 z m -81.8561,-66.37139 c -12.6004,-4.07848 -22.3571,-11.17647 -29.3807,-21.37444 -11.6779,-16.95587 -12.012,-41.01259 -0.8097,-58.3099 18.8268,-29.07041 59.2555,-33.30656 83.8507,-8.78596 9.7418,9.71231 15.3397,23.3453 15.3397,37.35809 0,23.84979 -16.6349,45.50237 -39.5415,51.46881 -7.9986,2.08335 -22.4612,1.90828 -29.4585,-0.3566 z m 22,-7.14091 c 14.7132,-2.29435 27.8818,-12.1665 34.2986,-25.71277 3.0245,-6.38507 3.2014,-7.394 3.2014,-18.25853 0,-10.87459 -0.1748,-11.86913 -3.2151,-18.2876 -8.7312,-18.4333 -28.1604,-28.95668 -47.6643,-25.81623 -30.4976,4.91065 -46.8599,36.30646 -33.4084,64.10383 5.7862,11.9572 18.8626,21.7782 31.7878,23.87427 7.6099,1.23409 7.7043,1.2347 15,0.097 z m -84.3551,-106.55529 c -18.5274,-4.48503 -35.3818,-21.2876 -39.5655,-39.44382 -1.325,-5.75043 -1.325,-19.19395 0,-24.94438 1.8524,-8.03878 6.8624,-16.92858 13.5144,-23.98006 21.3709,-22.65428 56.4415,-22.65428 77.8124,0 10.2644,10.88081 14.5239,21.54964 14.5694,36.49215 0.045,14.89336 -4.146,25.29365 -14.7341,36.56116 -13.1508,13.99476 -32.8707,19.84803 -51.5966,15.31495 z m 24.895,-8.96801 c 12.3144,-3.20665 22.4258,-11.55301 28.2343,-23.3056 3.6806,-7.44728 3.7258,-7.68542 3.7258,-19.6424 0,-11.95698 -0.045,-12.19512 -3.7258,-19.6424 -7.674,-15.52716 -22.7911,-24.8576 -40.2742,-24.8576 -17.7379,0 -33.1951,9.82548 -40.9026,26 -2.9323,6.15353 -3.0974,7.1424 -3.0974,18.55186 0,11.89712 0.048,12.14866 3.7258,19.59054 9.561,19.34535 30.9426,28.87071 52.3141,23.3056 z m -20.9222,-5.49673 c -11.0864,-2.78421 -21.0556,-11.04085 -26.3545,-21.82728 -2.4579,-5.00343 -2.7628,-6.7274 -2.7628,-15.62399 0,-8.89659 0.3049,-10.62056 2.7628,-15.62399 4.3121,-8.7777 9.8146,-14.31099 18.5003,-18.60367 7.1382,-3.52792 8.2226,-3.77234 16.7365,-3.77234 8.5139,0 9.5983,0.24442 16.7365,3.77234 8.7479,4.32342 14.6115,10.21036 18.6534,18.72766 2.2728,4.7892 2.6101,6.79236 2.6101,15.5 0,8.70764 -0.3373,10.7108 -2.6101,15.5 -6.2367,13.14216 -18.8583,21.76823 -32.9608,22.52669 -4.086,0.21975 -9.1761,-0.0392 -11.3114,-0.57542 z m 24.8923,-10.52303 c 4.8974,-2.32396 8.49,-7.80826 8.49,-12.96037 0,-2.23733 -0.54,-4.60787 -1.2,-5.26787 -0.9333,-0.93333 -0.861,-1.2 0.3257,-1.2 2.5755,0 6.0097,-4.59047 6.5723,-8.78512 0.703,-5.24094 -1.2086,-10.94748 -5.0128,-14.96488 -2.544,-2.68652 -3.8237,-3.25 -7.3814,-3.25 -3.8119,0 -4.3038,-0.26029 -4.3038,-2.27749 0,-5.36663 -6.2723,-9.72251 -14,-9.72251 -7.6675,0 -14,4.35468 -14,9.62735 0,1.94955 -0.4052,2.12799 -3.7989,1.6728 -7.1177,-0.95469 -13.2011,6.66401 -13.2011,16.53287 0,6.09125 2.7862,10.16698 6.9501,10.16698 1.5428,0 3.3243,-0.62566 3.9589,-1.39035 1.6851,-2.03047 7.3147,-20.58423 6.7177,-22.13999 -0.4043,-1.05371 0.101,-1.11195 2.473,-0.28505 1.6456,0.57363 7.6673,0.86577 13.4407,0.65205 10.063,-0.3725 10.4596,-0.30802 10.4596,1.70049 0,2.66887 5.5872,19.26053 7.0996,21.08287 0.8856,1.0671 0.8113,1.37998 -0.328,1.37998 -1.6251,0 -16.4675,10.23677 -18.6363,12.85346 -0.9915,1.19621 -1.492,1.30753 -1.8299,0.40702 -0.2558,-0.68173 -4.2515,-3.97294 -8.8793,-7.3138 -6.8278,-4.92905 -9.0221,-6.01512 -11.6386,-5.76048 -7.4038,0.72054 -5.1959,12.50844 3.385,18.07244 5.3546,3.47198 12.5483,3.81233 15.3415,0.72584 1.7901,-1.97804 1.8628,-1.9804 3.905,-0.12728 1.1446,1.03853 2.756,2.15562 3.581,2.48242 2.2379,0.88648 7.4314,0.024 11.51,-1.91138 z m -7.8085,-14.38776 c 4.1946,-2.55761 6.2994,-6.81776 6.2948,-12.74082 -0.01,-8.85864 -5.5228,-14.29966 -14.4963,-14.29966 -8.9735,0 -14.4894,5.44102 -14.4963,14.29966 -0.01,9.26385 5.3492,14.69286 14.4963,14.69286 3.199,0 6.1532,-0.70312 8.2015,-1.95204 z m -12.2015,-5.2483 c -6.5857,-3.77692 -5.6566,-13.02077 1.5383,-15.30435 5.0943,-1.61686 10.9848,2.66805 10.9299,7.95073 -0.067,6.4417 -6.9646,10.50991 -12.4682,7.35362 z"
         id="path3660"
         inkscape:connector-curvature="0" />
      <path
         style="fill:#000000"
         d="m 1298.7128,-258.30359 c -13.528,-3.49305 -23.2868,-9.1192 -33.5838,-19.36172 -7.5043,-7.46451 -9.8788,-10.61279 -13.2682,-17.59159 -8.2923,-17.07429 -7.5865,-1.23177 -7.93,-178 -0.1995,-102.66347 0.047,-160.17977 0.7094,-165.19675 4.3194,-32.73856 29.6031,-57.38314 63.4305,-61.82712 5.4923,-0.72154 44.5921,-0.96792 120.1421,-0.75705 111.9476,0.31246 112.0036,0.31363 119.7867,2.51524 23.5789,6.66979 42.9936,24.61373 50.4575,46.63516 l 2.7558,8.13052 0.2647,162.24328 c 0.2973,182.17114 0.7864,169.65649 -7.2678,185.97153 -9.3576,18.9554 -28.1492,33.34706 -49.4337,37.85915 -5.3966,1.14401 -27.1819,1.38461 -122.5632,1.35361 -111.4175,-0.0362 -116.2963,-0.1142 -123.5,-1.97426 z m 241,-2.01832 c 8.5741,-1.3849 18.8377,-5.00942 25.809,-9.1142 9.0067,-5.30328 20.0673,-17.00281 24.8834,-26.32079 8.4875,-16.42117 7.8076,-0.52922 7.8076,-182.5 0,-150.80512 -0.1161,-161.93044 -1.7538,-168 -6.8195,-25.27478 -29.0699,-45.58353 -54.7462,-49.96884 -4.5767,-0.78166 -40.8234,-1.02449 -122.5,-0.82065 l -116,0.28949 -8,2.72441 c -11.2528,3.83217 -19.8406,9.14388 -27.9847,17.30916 -7.974,7.99478 -12.4709,15.05055 -16.3361,25.63183 l -2.6792,7.3346 -0.2809,162 c -0.3136,180.82787 -0.7486,168.93152 6.7333,184.14619 9.5006,19.31998 26.8891,32.38589 49.0476,36.85493 8.4129,1.69675 225.7082,2.09624 236,0.43387 z"
         id="path3658"
         inkscape:connector-curvature="0" />
    </g>
  </g>
</svg>
