<?xml version="1.0" encoding="UTF-8" standalone="no"?>
<!-- Created with Inkscape (http://www.inkscape.org/) -->

<svg
   xmlns:dc="http://purl.org/dc/elements/1.1/"
   xmlns:cc="http://creativecommons.org/ns#"
   xmlns:rdf="http://www.w3.org/1999/02/22-rdf-syntax-ns#"
   xmlns:svg="http://www.w3.org/2000/svg"
   xmlns="http://www.w3.org/2000/svg"
   xmlns:sodipodi="http://sodipodi.sourceforge.net/DTD/sodipodi-0.dtd"
   xmlns:inkscape="http://www.inkscape.org/namespaces/inkscape"
   width="358.49637"
   height="445.88364"
   id="svg2"
   version="1.1"
   inkscape:version="0.48.5 r10040"
   sodipodi:docname="circ1.svg">
  <defs
     id="defs4" />
  <sodipodi:namedview
     id="base"
     pagecolor="#ffffff"
     bordercolor="#666666"
     borderopacity="1.0"
     inkscape:pageopacity="0.0"
     inkscape:pageshadow="2"
     inkscape:zoom="1.1210937"
     inkscape:cx="228.83429"
     inkscape:cy="250.15377"
     inkscape:document-units="px"
     inkscape:current-layer="layer1"
     showgrid="false"
     fit-margin-top="0"
     fit-margin-left="0"
     fit-margin-right="0"
     fit-margin-bottom="0"
     inkscape:window-width="958"
     inkscape:window-height="1078"
     inkscape:window-x="1920"
     inkscape:window-y="0"
     inkscape:window-maximized="0" />
  <metadata
     id="metadata7">
    <rdf:RDF>
      <cc:Work
         rdf:about="">
        <dc:format>image/svg+xml</dc:format>
        <dc:type
           rdf:resource="http://purl.org/dc/dcmitype/StillImage" />
        <dc:title></dc:title>
      </cc:Work>
    </rdf:RDF>
  </metadata>
  <g
     inkscape:label="Layer 1"
     inkscape:groupmode="layer"
     id="layer1"
     transform="translate(-988.81557,422.84434)">
    <g
       id="g3597"
       transform="translate(-263.13589,183.74913)">
      <path
         style="fill:#c2c5cd"
         d="m 1311.4359,-161.84374 c -29.0164,-5.38152 -52.2925,-27.21678 -58.0711,-54.47634 -1.1588,-5.46664 -1.3971,-33.77053 -1.4115,-167.66693 -0.017,-155.89546 0.045,-161.33335 1.9124,-168.63565 6.6645,-26.05759 28.5326,-46.70528 55.278,-52.19283 11.2424,-2.30668 232.7761,-2.39879 243.6978,-0.10133 27.139,5.70885 48.6669,25.95702 55.8393,52.51985 1.6396,6.07226 1.7551,17.1936 1.7551,169 0,153.98026 -0.095,162.84079 -1.8166,169 -5.7197,20.46522 -19.3828,36.92607 -38.1834,46.00186 -16.5259,7.97769 -6.1063,7.3928 -136,7.63412 -91.5807,0.17013 -117.4736,-0.0578 -123,-1.08275 z m 242.8905,-5.52523 c 22.5813,-5.77533 40.3011,-21.97071 48.4647,-44.29537 l 2.6448,-7.23263 0.2677,-161.22905 c 0.2993,-180.22515 0.7301,-168.70022 -6.8891,-184.27095 -5.8376,-11.92995 -17.7771,-23.80751 -29.8786,-29.72363 -16.9204,-8.27196 -6.662,-7.65521 -133.3686,-8.01837 -96.6797,-0.27711 -114.1066,-0.10908 -121.5,1.17151 -22.8783,3.96268 -40.8239,17.07009 -50.7541,37.07049 -7.8511,15.81295 -7.4577,5.62029 -7.1228,184.56342 0.3299,176.3303 -0.2747,161.46615 7.1771,176.43658 8.6988,17.47565 24.9295,30.38732 44.5684,35.45468 7.199,1.85753 12.1393,1.93741 123.09,1.99026 111.867,0.0533 115.8384,-0.008 123.3005,-1.91694 z m -139.8818,-43.68887 c -17.2137,-3.68789 -33.9714,-14.19842 -44.0819,-27.64841 -16.1339,-21.46279 -20.3256,-47.87631 -11.5385,-72.70773 4.0559,-11.46158 8.5769,-18.44576 18.1332,-28.01313 15.0177,-15.03509 32.1893,-22.04947 53.9785,-22.04947 22.6565,0 40.2106,7.33058 55.6527,23.24051 37.0926,38.21628 23.8823,102.3614 -25.297,122.83481 -14.1282,5.88158 -31.9534,7.53424 -46.847,4.34342 z m 30.9626,-9.85057 c 31.4093,-6.65332 54.0474,-36.13432 52.2077,-67.98856 -2.2206,-38.44924 -35.7533,-66.74748 -74.0102,-62.45714 -25.1329,2.81854 -46.6536,19.70161 -55.2294,43.32773 -12.7431,35.10689 6.7958,74.36025 42.5606,85.50341 3.575,1.11385 7.625,2.21159 9,2.43941 5.8529,0.96976 19.0108,0.54365 25.4713,-0.82485 z m -27.4713,-7.04864 c -21.0765,-4.54303 -38.9539,-21.80844 -44.4566,-42.93454 -1.8107,-6.95177 -2.0125,-20.18977 -0.4223,-27.70616 5.6361,-26.64051 29.8816,-45.83283 57.839,-45.78444 17.1697,0.0297 30.6388,5.55801 42.563,17.46957 11.5412,11.52906 16.9571,25.00819 16.8816,42.01565 -0.1661,37.44708 -35.1613,64.96774 -72.4047,56.93992 z m 1.9091,-12.79248 c 1.3251,-0.63109 3.7627,-2.83051 5.417,-4.8876 3.5767,-4.4477 4.6503,-12.2009 2.6692,-19.27673 -1.7337,-6.19205 -3.9949,-5.94497 -7.0183,0.76689 -4.3986,9.76454 -9.0553,14.31544 -10.5807,10.34026 -0.6565,-1.71059 1.6839,-6.47016 6.3041,-12.82092 1.8928,-2.60186 3.158,-5.18936 2.8116,-5.75 -2.0109,-3.25367 -14.6635,1.69054 -19.0527,7.44518 -3.4689,4.54797 -4.4926,12.64548 -2.1646,17.12191 4.3008,8.26974 13.0652,11.13288 21.6144,7.06101 z m 38.3429,-0.21476 c 7.4058,-5.4784 8.7965,-16.08099 3.0459,-23.22205 -5.0415,-6.26067 -15.5992,-10.86535 -18.8073,-8.20279 -1.1093,0.92059 -0.6381,2.07578 2.5735,6.30954 2.1623,2.85044 4.6528,6.6962 5.5345,8.54613 1.4565,3.05611 1.4595,3.50695 0.033,4.93315 -1.4262,1.42621 -1.7454,1.4106 -3.4929,-0.17081 -1.0577,-0.95726 -3.5437,-5.10715 -5.5243,-9.22199 -3.2738,-6.80141 -3.7835,-7.38388 -5.6079,-6.4075 -1.1038,0.5907 -2.0264,1.39567 -2.0504,1.78882 -0.024,0.39315 -0.4423,2.73982 -0.9297,5.21482 -1.7233,8.75165 2.5003,18.51496 9.3524,21.61884 4.1908,1.89836 12.5474,1.27388 15.8729,-1.18616 z m 16.3435,-30.33656 c 6.6842,-3.03564 10.4776,-11.20827 8.3302,-17.94681 -2.6502,-8.31626 -11.2116,-13.21857 -19.739,-11.30259 -5.0811,1.14164 -11.4829,5.14958 -13.7486,8.60742 -2.6461,4.03838 -1.1533,4.78498 8.0364,4.01947 8.6142,-0.71755 12.5255,0.23253 12.5255,3.04252 0,2.13121 -4.2582,2.83751 -13.0291,2.16115 -6.7649,-0.52168 -7.874,-0.37591 -8.4544,1.11114 -0.4811,1.23258 0.638,2.89959 3.999,5.95665 6.9861,6.35438 14.4362,7.82248 22.08,4.35105 z m -70.2958,-0.70807 c 4.6966,-2.36562 9.7003,-7.46873 9.7003,-9.89308 0,-2.03171 -0.2779,-2.08114 -7.25,-1.28932 -9.8829,1.12241 -13.9716,0.3649 -13.5621,-2.51261 0.2981,-2.09445 0.7729,-2.19304 10.5622,-2.19304 9.8166,0 10.2502,-0.0908 10.25,-2.14641 -10e-5,-2.49883 -5.836,-7.96924 -10.6453,-9.97869 -10.9716,-4.58425 -22.8308,1.79633 -24.0892,12.96073 -0.6448,5.72059 2.9693,12.54539 7.9411,14.9957 4.2451,2.09225 12.994,2.12128 17.093,0.0567 z m 33.7159,-0.23966 c 1.9164,-1.01839 4.5367,-3.38089 5.8229,-5.25 3.1995,-4.64967 2.7389,-13.58331 -0.9013,-17.47971 -7.7063,-8.24868 -20.3928,-6.93838 -25.1856,2.60125 -3.7165,7.39711 -0.744,16.28974 6.6721,19.96072 5.0704,2.50983 9.0911,2.55945 13.5919,0.16774 z m -13.5611,-6.60294 c -3.3444,-3.34441 -3.372,-9.36724 -0.061,-13.21696 3.3552,-3.90059 9.4631,-3.92614 13.3334,-0.0558 3.8704,3.87037 3.8449,9.97825 -0.056,13.3334 -3.8498,3.31139 -9.8726,3.28374 -13.217,-0.0607 z m 30.5021,-22.02301 c 4.0159,-2.07668 8.782,-7.9162 9.9686,-12.21358 2.1358,-7.73526 -3.558,-17.54643 -11.1752,-19.25641 -13.9091,-3.12242 -24.2189,10.63723 -19.5776,26.12849 1.7456,5.82648 4.019,4.72537 8.5315,-4.13222 4.0429,-7.93566 6.4325,-10.31228 8.3954,-8.34946 1.7667,1.76671 0.3774,5.43321 -4.6428,12.2526 -3.4568,4.69578 -4.3052,6.52556 -3.4841,7.51487 1.2326,1.48515 7.2358,0.5112 11.9842,-1.94429 z m -35.368,1.1073 c 0.2892,-0.75364 -1.4801,-4.24114 -3.9317,-7.75 -2.4517,-3.50886 -4.5557,-7.05474 -4.6757,-7.87974 -0.4692,-3.2261 0.069,-4.13199 2.2688,-3.81955 1.7106,0.24295 3.2089,2.28757 6.25,8.52912 2.5974,5.33095 4.5233,8.13179 5.4924,7.98777 2.3387,-0.34757 4.3251,-5.62165 4.3959,-11.67114 0.1882,-16.09002 -16.8221,-24.82765 -27.5158,-14.13395 -6.5655,6.56545 -6.4637,15.34135 0.2626,22.63851 5.4102,5.86933 16.1072,9.60733 17.4535,6.09898 z m -4.5886,-107.18382 c -38.9535,-8.36053 -65.3511,-45.36376 -60.0391,-84.16063 3.5856,-26.18759 18.698,-47.16156 42.5391,-59.0385 11.5155,-5.7367 16.4696,-6.71775 34,-6.73293 15.418,-0.0134 16.3187,0.10018 24.7612,3.12087 12.5721,4.49826 19.0319,8.66186 29.269,18.86502 14.0978,14.05113 21.1336,29.59809 22.1752,49.00025 1.2234,22.78999 -6.0757,41.83316 -22.224,57.98141 -11.4619,11.46191 -22.9732,17.75634 -38.4125,21.00409 -8.8078,1.85279 -23.3355,1.83486 -32.0689,-0.0396 z m 32.2336,-10.37778 c 37.7784,-9.66208 59.0687,-47.81279 47.3137,-84.78265 -6.2008,-19.50168 -23.2161,-36.33239 -43.0473,-42.58016 -5.8641,-1.84748 -9.2717,-2.19871 -21,-2.16454 -15.9814,0.0466 -21.776,1.51665 -33.7231,8.55554 -31.9069,18.79859 -41.9262,61.47729 -21.7151,92.49855 9.0343,13.86641 25.609,25.50787 41.1066,28.87178 9.3801,2.03605 22.1885,1.87174 31.0652,-0.39852 z m -29.2336,-6.56128 c -21.4613,-4.84701 -39.2471,-22.18971 -44.6056,-43.49436 -2.2236,-8.84072 -1.5144,-25.19552 1.4503,-33.44466 6.1018,-16.97817 19.8416,-30.77375 36.4325,-36.58059 7.8314,-2.74098 23.2206,-3.72817 31.9581,-2.05005 16.8439,3.23499 33.6518,15.98956 40.9345,31.0628 4.7631,9.85826 6.2834,16.56403 6.2349,27.5 -0.1156,26.07585 -16.6174,48.04364 -42.1309,56.08616 -7.0313,2.21646 -22.459,2.68565 -30.2738,0.9207 z m -0.9556,-11.50266 c 4.0208,-1.11701 9.3158,-6.13258 10.8943,-10.3193 2.4149,-6.40529 0.2126,-19.6849 -3.2645,-19.6849 -0.7854,0 -2.432,2.3625 -3.6593,5.25 -4.0005,9.41265 -9.0775,14.35647 -10.6186,10.34026 -0.6565,-1.71059 1.6839,-6.47016 6.3041,-12.82092 1.8928,-2.60186 3.158,-5.18936 2.8116,-5.75 -2.0109,-3.25367 -14.6635,1.69054 -19.0527,7.44518 -6.7392,8.83548 -2.9062,22.48712 7.16,25.50106 3.9304,1.17679 5.3077,1.18244 9.4251,0.0386 z m 39.5886,-0.63433 c 2.0566,-0.97593 4.4741,-3.40277 6.0238,-6.04721 4.9291,-8.4108 1.4821,-18.52024 -8.1814,-23.99505 -4.9154,-2.78482 -10.2065,-3.79568 -12.0143,-2.29534 -1.1496,0.95412 -0.7283,2.03491 2.4594,6.30954 2.1157,2.837 4.6146,6.67663 5.5531,8.53251 1.5454,3.056 1.5593,3.52137 0.1475,4.93316 -1.4118,1.41178 -1.7497,1.38611 -3.5821,-0.27218 -1.1128,-1.00706 -3.6013,-5.15558 -5.53,-9.21894 -3.1846,-6.70919 -3.6906,-7.28954 -5.5079,-6.31696 -1.1006,0.58903 -2.0207,1.39263 -2.0446,1.78578 -0.024,0.39315 -0.4424,2.73982 -0.9297,5.21482 -3.0452,15.46412 10.4008,27.63625 23.6062,21.36987 z m 18.3061,-31.33878 c 4.1696,-2.12721 7.4446,-6.63577 8.5217,-11.73175 0.8042,-3.80517 -1.9346,-10.66322 -5.575,-13.95992 -6.5096,-5.89502 -18.2618,-4.70676 -25.9699,2.62581 -5.8854,5.59864 -5.0189,6.59553 5.4281,6.2447 8.8271,-0.29643 12.656,0.70381 12.656,3.3062 0,2.11367 -4.1839,2.82559 -13.039,2.21865 -9.5193,-0.65246 -10.8589,0.71189 -5.8119,5.9191 6.8776,7.09582 16.263,9.21719 23.79,5.37721 z m -70.6394,-0.64304 c 4.6966,-2.36562 9.7003,-7.46873 9.7003,-9.89308 0,-2.03171 -0.2779,-2.08114 -7.25,-1.28932 -9.8829,1.12241 -13.9716,0.3649 -13.5621,-2.51261 0.2981,-2.09445 0.7729,-2.19304 10.5622,-2.19304 9.8166,0 10.2502,-0.0908 10.25,-2.14641 -10e-5,-2.55756 -5.6129,-7.74716 -10.6594,-9.85572 -11.1297,-4.65025 -22.8057,1.57589 -24.0751,12.83776 -0.6448,5.72059 2.9693,12.54539 7.9411,14.9957 4.2451,2.09225 12.994,2.12128 17.093,0.0567 z m 33.7159,-0.23966 c 13.8844,-7.37818 8.6359,-28.13186 -7.1177,-28.14465 -5.6344,-0.005 -10.6545,3.05656 -13.1463,8.01619 -6.5179,12.9729 7.5094,26.90628 20.264,20.12846 z m -13.5611,-6.60294 c -2.6759,-2.67592 -3.3105,-8.07754 -1.374,-11.69585 1.4047,-2.62474 6.6985,-4.80567 10.0908,-4.15719 7.1535,1.36748 9.9431,11.23197 4.5002,15.91372 -3.8497,3.31139 -9.8725,3.28374 -13.217,-0.0607 z m 30.5021,-22.02301 c 4.0159,-2.07668 8.782,-7.9162 9.9686,-12.21358 1.4016,-5.07625 -0.1691,-10.51322 -4.3577,-15.08369 -3.0254,-3.30134 -3.864,-3.64814 -9.6898,-4.00725 -5.4245,-0.33437 -6.9008,-0.0426 -9.8777,1.95255 -6.8064,4.56156 -9.6542,14.57637 -6.8276,24.01047 1.7456,5.82648 4.019,4.72537 8.5315,-4.13222 4.0429,-7.93566 6.4325,-10.31228 8.3954,-8.34946 1.7667,1.76671 0.3774,5.43321 -4.6428,12.2526 -3.4568,4.69578 -4.3052,6.52556 -3.4841,7.51487 1.2326,1.48515 7.2358,0.5112 11.9842,-1.94429 z m -35.3257,0.99709 c 0.3144,-0.81928 -0.7598,-3.16398 -2.4052,-5.25 -6.7779,-8.59308 -8.4561,-14.72983 -3.8484,-14.0724 1.553,0.22159 3.1962,2.50611 6.1227,8.51244 2.5974,5.33095 4.5233,8.13179 5.4924,7.98777 2.3387,-0.34757 4.3251,-5.62165 4.3959,-11.67114 0.1357,-11.60468 -8.6526,-20.11341 -19.1487,-18.53942 -3.7108,0.55647 -5.5392,1.55385 -8.4416,4.60489 -6.5614,6.89754 -6.3668,15.31636 0.5222,22.58115 5.7276,6.04013 15.916,9.48125 17.3107,5.84671 z"
         id="path3611"
         inkscape:connector-curvature="0" />
      <path
         style="fill:#bebebe"
         d="m 1311.4359,-161.84374 c -29.0164,-5.38152 -52.2925,-27.21678 -58.0711,-54.47634 -1.1588,-5.46664 -1.3971,-33.77053 -1.4115,-167.66693 -0.017,-155.89546 0.045,-161.33335 1.9124,-168.63565 6.6645,-26.05759 28.5326,-46.70528 55.278,-52.19283 11.2424,-2.30668 232.7761,-2.39879 243.6978,-0.10133 27.139,5.70885 48.6669,25.95702 55.8393,52.51985 1.6396,6.07226 1.7551,17.1936 1.7551,169 0,153.98026 -0.095,162.84079 -1.8166,169 -5.7197,20.46522 -19.3828,36.92607 -38.1834,46.00186 -16.5259,7.97769 -6.1063,7.3928 -136,7.63412 -91.5807,0.17013 -117.4736,-0.0578 -123,-1.08275 z m 242.8905,-5.52523 c 22.5813,-5.77533 40.3011,-21.97071 48.4647,-44.29537 l 2.6448,-7.23263 0.2677,-161.22905 c 0.2993,-180.22515 0.7301,-168.70022 -6.8891,-184.27095 -5.8376,-11.92995 -17.7771,-23.80751 -29.8786,-29.72363 -16.9204,-8.27196 -6.662,-7.65521 -133.3686,-8.01837 -96.6797,-0.27711 -114.1066,-0.10908 -121.5,1.17151 -22.8783,3.96268 -40.8239,17.07009 -50.7541,37.07049 -7.8511,15.81295 -7.4577,5.62029 -7.1228,184.56342 0.3299,176.3303 -0.2747,161.46615 7.1771,176.43658 8.6988,17.47565 24.9295,30.38732 44.5684,35.45468 7.199,1.85753 12.1393,1.93741 123.09,1.99026 111.867,0.0533 115.8384,-0.008 123.3005,-1.91694 z m -138.5342,-43.47485 c -28.7837,-6.01244 -52.0166,-28.32584 -59.4042,-57.05315 -2.5305,-9.84022 -2.3461,-26.45885 0.4082,-36.78672 7.1027,-26.63278 28.7179,-47.9021 55.6397,-54.74954 10.7788,-2.74153 27.0718,-2.76676 37.6435,-0.0583 18.7674,4.80818 36.879,18.17562 46.7111,34.4756 25.3906,42.09322 5.2464,95.85146 -41.8546,111.69641 -8.0404,2.70481 -11.2669,3.24711 -21,3.52963 -7.2361,0.21004 -13.9633,-0.18073 -18.1437,-1.05394 z m 36.7742,-11.92687 c 26.0558,-8.45334 43.5422,-31.59501 45.0552,-59.62628 1.7194,-31.85791 -19.4272,-60.28305 -50.2861,-67.59403 -8.878,-2.10334 -24.0586,-2.11008 -32.4321,-0.0144 -32.9106,8.23665 -54.4855,39.61084 -49.9613,72.65356 3.1061,22.68583 15.7682,40.81352 35.2259,50.4309 12.175,6.01779 19.4265,7.5732 33.2679,7.13572 8.4739,-0.26783 12.8672,-0.95344 19.1305,-2.98548 z m -34.0791,-5.27854 c -21.7591,-4.66332 -40.0389,-22.35132 -45.0458,-43.58747 -1.9215,-8.14947 -1.9045,-20.80855 0.038,-28.26565 5.364,-20.59406 23.1663,-38.15003 43.5597,-42.95718 41.468,-9.77487 79.9297,25.84253 72.5402,67.17574 -2.2327,12.48815 -7.2853,22.04995 -16.5441,31.30877 -15.018,15.01798 -34.0591,20.71686 -54.5479,16.32579 z m 2.9435,-13.1716 c 6.2741,-3.59499 9.4845,-16.19951 6.3884,-25.08117 -1.7702,-5.07792 -4.2369,-3.68293 -8.5872,4.85631 -4.1104,8.06821 -6.6986,10.57529 -8.3092,8.04872 -1.4061,-2.20568 -1.4192,-2.17282 4.1397,-10.4013 4.0526,-5.99868 4.8846,-7.88025 3.9712,-8.98085 -1.2979,-1.56391 -7.1933,-0.6655 -11.9528,1.82151 -3.0259,1.58113 -7.3747,6.037 -9.0228,9.2449 -2.5384,4.94077 -0.5548,16.05194 3.4604,19.38432 4.8382,4.01534 13.9528,4.52231 19.9123,1.10756 z m 34.8886,1.437 c 10.8005,-4.51274 11.2543,-22.24093 0.7454,-29.12082 -5.0091,-3.27927 -12.6612,-5.12535 -14.5945,-3.52089 -1.2427,1.03137 -0.724,2.25669 3.5035,8.27641 4.7298,6.73501 6.1014,10.93001 3.9986,12.22962 -1.6084,0.99402 -5.0643,-3.30656 -8.2981,-10.32621 -1.6852,-3.65819 -3.1772,-6.80021 -3.3156,-6.98227 -0.1383,-0.18206 -1.1518,0.15078 -2.2521,0.73965 -2.4622,1.31772 -4.4855,9.81358 -3.5677,14.98033 2.1182,11.92404 13.0245,18.2183 23.7805,13.72418 z m 20.3799,-32.22989 c 4.2533,-3.08856 7.5602,-10.50854 6.7694,-15.18909 -0.8952,-5.29869 -3.8106,-9.76092 -7.7386,-11.84438 -4.6467,-2.46468 -13.2424,-2.29407 -18.2942,0.36312 -5.4254,2.85369 -9.9339,7.71408 -9.1208,9.83285 0.5572,1.45199 1.7578,1.57878 9.3799,0.99048 6.9042,-0.5329 9.1532,-0.36767 10.7032,0.78634 1.7361,1.29268 1.7957,1.66162 0.5171,3.20225 -1.251,1.50736 -2.698,1.66649 -10.773,1.18473 -7.4166,-0.44248 -9.437,-0.27211 -9.8605,0.83148 -0.9018,2.35002 3.4033,7.153 8.9109,9.94141 4.3095,2.18182 6.2695,2.58628 11.0066,2.27127 3.6701,-0.24407 6.7574,-1.10504 8.5,-2.37046 z m -72.0111,-0.07 c 5.3326,-2.53049 10.1998,-7.78062 9.5426,-10.29351 -0.3543,-1.35501 -1.1075,-1.89734 -2.1689,-1.56181 -0.8943,0.28272 -5.0882,0.63284 -9.3198,0.77805 -8.1138,0.27842 -10.6,-0.72497 -9.4194,-3.80153 0.571,-1.48812 1.8866,-1.64053 10.5569,-1.22303 8.8395,0.42565 9.9539,0.28818 10.3636,-1.2784 0.5907,-2.2589 -5.5399,-8.3074 -10.5252,-10.3842 -4.8203,-2.0081 -12.0815,-1.97513 -16.4007,0.0745 -4.8633,2.30779 -7.6724,6.73207 -8.1176,12.78508 -0.4589,6.23848 1.7848,11.08215 6.6341,14.3217 4.2429,2.83441 13.5065,3.12095 18.8544,0.58319 z m 32.5298,0.31562 c 5.802,-2.4722 8.0854,-5.95009 8.4768,-12.91119 0.6122,-10.88612 -4.945,-16.30628 -15.9055,-15.51346 -6.3238,0.45742 -9.6623,2.64004 -12.5597,8.21137 -1.9671,3.78244 -1.2434,11.81858 1.3878,15.40889 4.0668,5.54945 12.0268,7.60545 18.6006,4.80439 z m -12.359,-7.55196 c -7.193,-7.19299 0.2474,-18.53946 9.5959,-14.63344 4.644,1.9404 6.9555,6.58874 5.4878,11.03584 -2.2549,6.83256 -10.0012,8.68012 -15.0837,3.5976 z m 31.9864,-22.86629 c 7.7208,-4.74622 10.797,-15.21289 6.7455,-22.95121 -5.9359,-11.33754 -24.0252,-9.8186 -29.2782,2.45846 -2.6652,6.22902 -1.0796,19.77241 2.4015,20.51232 1.286,0.27335 2.7448,-1.64983 5.765,-7.60045 4.2946,-8.46157 6.6017,-10.88478 8.5285,-8.95794 1.573,1.57301 0.5177,4.23469 -4.7006,11.85578 -3.4446,5.03076 -4.2541,6.90859 -3.4143,7.92049 1.522,1.83388 8.2378,0.2756 13.9526,-3.23745 z m -36.4313,2.8247 c 0.3279,-0.53056 -1.4639,-3.79306 -3.9817,-7.25 -5.0163,-6.88739 -6.3444,-10.33747 -4.6365,-12.0453 1.758,-1.75806 5.634,2.59969 8.8229,9.91963 2.2407,5.14343 3.1945,6.35957 4.8063,6.12855 4.2206,-0.60494 5.5048,-15.03155 1.9499,-21.90592 -3.7843,-7.31818 -12.8544,-10.523 -20.9892,-7.41631 -10.0206,3.82692 -12.4901,18.07088 -4.6618,26.88916 3.9746,4.47715 16.9891,8.43246 18.6901,5.68019 z m -4.9782,-107.51192 c -23.7533,-5.21623 -44.6343,-21.98351 -54.3929,-43.67707 -9.176,-20.39831 -8.6976,-44.80921 1.2658,-64.594 13.145,-26.10234 39.2662,-42.25233 68.3397,-42.25233 13.275,0 22.481,2.05134 33.7874,7.5288 16.0149,7.75849 27.9637,19.51184 35.5529,34.9712 5.0087,10.20309 6.9252,17.61075 7.6416,29.5372 2.221,36.97549 -24.0295,70.75441 -60.9044,78.37113 -9.1645,1.89297 -22.963,1.94371 -31.2901,0.11507 z m 36.5,-11.50659 c 17.0011,-5.70443 31.3163,-17.91173 38.7178,-33.01681 9.5978,-19.58699 9.6538,-40.59372 0.1599,-60 -3.3634,-6.87506 -5.8042,-10.12494 -12.768,-17 -13.8446,-13.66818 -26.9791,-18.95693 -47.1496,-18.98522 -12.6728,-0.0178 -19.52,1.5654 -30.9262,7.1507 -15.7495,7.71203 -28.8288,23.99692 -33.5997,41.83452 -2.0118,7.52214 -2.3179,23.95542 -0.5807,31.18469 6.0151,25.03201 23.5789,43.15131 48.3231,49.85133 9.9354,2.69023 28.2379,2.19704 37.8234,-1.01921 z m -33.5,-5.50225 c -21.6069,-4.77671 -39.399,-21.89969 -44.9286,-43.23887 -1.9939,-7.69473 -2.0179,-21.14115 -0.051,-28.69154 5.3748,-20.63525 23.2013,-38.2423 43.583,-43.04671 13.227,-3.11787 28.2663,-1.38578 40.8441,4.70406 8.6101,4.16881 21.5807,16.86363 25.8072,25.2585 8.8645,17.60699 9.1041,35.68892 0.7046,53.15235 -5.0609,10.5219 -15.9737,21.52216 -26.4811,26.69339 -12.6566,6.22889 -26.49,8.04009 -39.4779,5.16882 z m 2.9949,-13.33842 c 6.2741,-3.59499 9.4845,-16.19951 6.3884,-25.08117 -1.7702,-5.07792 -4.2369,-3.68293 -8.5872,4.85631 -4.0234,7.89737 -6.4341,10.31071 -8.3679,8.37691 -1.6094,-1.60936 -0.4551,-4.39245 4.7598,-11.47638 5.1109,-6.94269 5.0205,-9.6455 -0.3013,-9.00365 -6.851,0.82628 -13.9609,5.58079 -16.976,11.35218 -2.8085,5.37585 -1.0548,16.36036 3.1719,19.86824 4.8382,4.01534 13.9528,4.52231 19.9123,1.10756 z m 35.434,1.07231 c 4.7999,-2.4475 7.2704,-6.26718 7.8317,-12.10842 0.9219,-9.59498 -5.3948,-17.56253 -16.014,-20.19903 -3.6918,-0.91659 -5.0793,-0.90979 -6.2122,0.0304 -1.2427,1.03137 -0.724,2.25669 3.5035,8.27641 4.7298,6.73501 6.1014,10.93001 3.9986,12.22962 -1.6084,0.99402 -5.0643,-3.30656 -8.2981,-10.32621 -1.6852,-3.65819 -3.1772,-6.80021 -3.3156,-6.98227 -0.1383,-0.18206 -1.1518,0.15078 -2.2521,0.73965 -2.4622,1.31772 -4.4855,9.81358 -3.5677,14.98033 2.1647,12.18592 13.9425,18.65412 24.3259,13.35949 z m 19.8345,-31.8652 c 4.2533,-3.08856 7.5602,-10.50854 6.7694,-15.18909 -0.8952,-5.29869 -3.8106,-9.76092 -7.7386,-11.84438 -4.6467,-2.46468 -13.2424,-2.29407 -18.2942,0.36312 -5.4254,2.85369 -9.9339,7.71408 -9.1208,9.83285 0.5572,1.45199 1.7578,1.57878 9.3799,0.99048 6.9042,-0.5329 9.1532,-0.36767 10.7032,0.78634 1.7361,1.29268 1.7957,1.66162 0.5171,3.20225 -1.251,1.50736 -2.698,1.66649 -10.773,1.18473 -7.7282,-0.46107 -9.4267,-0.29899 -9.9041,0.94506 -0.9095,2.37008 2.9293,6.59267 8.8037,9.68375 4.5546,2.39667 6.2909,2.77562 11.1574,2.43522 3.6417,-0.25473 6.7709,-1.13473 8.5,-2.39033 z m -72.3762,0.22832 c 4.6996,-1.96361 10.5685,-8.06498 9.9677,-10.36249 -0.4436,-1.69631 -1.1461,-1.77656 -8.6369,-0.98661 -9.0192,0.95112 -13.1083,-0.0368 -12.5149,-3.02347 0.3018,-1.51956 1.6276,-1.73228 10.506,-1.68572 12.1064,0.0635 13.3745,-1.11772 7.4241,-6.91561 -6.7596,-6.58628 -16.9627,-8.60739 -24.1488,-4.78357 -9.912,5.27434 -10.5303,20.56713 -1.0865,26.87597 4.0157,2.68269 13.1376,3.11759 18.4893,0.8815 z m 32.8949,0.0173 c 5.6132,-2.39174 8.0413,-5.95171 8.5137,-12.48224 0.7842,-10.84115 -5.0628,-16.72938 -15.8381,-15.94996 -6.436,0.46554 -9.7505,2.61659 -12.664,8.21892 -1.9671,3.78244 -1.2434,11.81858 1.3878,15.40889 4.0668,5.54945 12.0268,7.60545 18.6006,4.80439 z m -12.359,-7.55196 c -7.193,-7.19299 0.2474,-18.53946 9.5959,-14.63344 4.644,1.9404 6.9555,6.58874 5.4878,11.03584 -2.2549,6.83256 -10.0012,8.68012 -15.0837,3.5976 z m 29.6674,-21.55893 c 8.1657,-3.62736 12.6177,-12.31745 10.4446,-20.38744 -2.2473,-8.34612 -7.3711,-11.63596 -17.0338,-10.93703 -4.9308,0.35666 -6.5612,0.95882 -9.1255,3.37036 -1.7172,1.61487 -3.7417,4.38417 -4.499,6.154 -2.713,6.34068 -1.098,19.59876 2.5021,20.54019 1.4818,0.3875 2.6149,-1.09221 5.7317,-7.48492 3.8955,-7.98983 6.6742,-10.88831 8.5961,-8.96645 1.4358,1.43577 0.2669,4.26913 -4.8355,11.72089 -3.6267,5.29668 -4.2816,6.87539 -3.3287,8.0236 1.4075,1.69598 4.2993,1.18684 11.548,-2.0332 z m -34.1123,1.51734 c 0.3279,-0.53056 -1.4639,-3.79306 -3.9817,-7.25 -5.0163,-6.88739 -6.3444,-10.33746 -4.6365,-12.0453 1.758,-1.75806 5.634,2.59969 8.8229,9.91963 2.2407,5.14343 3.1945,6.35957 4.8063,6.12855 2.6625,-0.38162 4.7889,-8.48984 3.9408,-15.02736 -1.5814,-12.19185 -13.1508,-18.97898 -23.6707,-13.88638 -10.0411,4.86079 -11.7051,19.53689 -3.0977,27.32054 4.7222,4.27035 16.2357,7.39826 17.8166,4.84032 z"
         id="path3609"
         inkscape:connector-curvature="0" />
      <path
         style="fill:#878c9b"
         d="m 1313.7668,-161.40604 c -23.9834,-4.11953 -43.9901,-18.54823 -54.3138,-39.1708 -8.129,-16.2386 -7.6137,-3.08269 -7.298,-186.32013 l 0.2809,-163 2.3321,-6.5 c 4.0738,-11.35473 9.0066,-19.01974 18.0774,-28.09053 9.4396,-9.43965 16.8941,-14.1237 29.5905,-18.59322 l 8,-2.81625 120,0 120,0 7.4648,2.34401 c 25.7996,8.10136 44.435,27.12548 50.7854,51.84467 1.6311,6.34915 1.7498,17.7695 1.7498,168.31132 0,181.55617 0.651,166.01182 -7.6635,182.97192 -3.3496,6.83255 -5.9126,10.24115 -13.2449,17.61484 -7.7407,7.78435 -10.5032,9.83078 -18.5916,13.77219 -17.9853,8.76409 -6.7768,8.0874 -137,8.27107 -63.525,0.0896 -117.6011,-0.19799 -120.1691,-0.63909 z m 240.7011,-5.99912 c 13.1563,-3.3648 21.7978,-8.28135 31.5777,-17.966 6.9459,-6.87822 9.4134,-10.16842 12.7689,-17.02581 7.6127,-15.55747 7.1822,-4.03815 6.8862,-184.25714 l -0.2648,-161.24286 -2.3303,-7 c -5.7317,-17.21706 -17.8044,-31.28727 -33.4294,-38.96024 -17.5891,-8.6375 -7.274,-8.03976 -138.7403,-8.03976 l -116.5,0 -7.9549,2.30316 c -11.7335,3.39716 -20.9704,8.66136 -29.5527,16.84245 -8.6345,8.23083 -13.892,16.47275 -17.768,27.85439 l -2.7244,8 -0.301,158 c -0.2171,113.98955 0.015,160.21455 0.8341,165.95037 3.826,26.80114 23.4672,48.5311 50.1964,55.53453 6.9423,1.81899 12.5107,1.90746 123.3605,1.96004 113.0702,0.0536 116.2943,0.003 123.942,-1.95313 z m -138.6757,-43.43866 c -28.7837,-6.01244 -52.0166,-28.32584 -59.4042,-57.05315 -2.5305,-9.84022 -2.3461,-26.45885 0.4082,-36.78672 7.1027,-26.63278 28.7179,-47.9021 55.6397,-54.74954 10.7788,-2.74153 27.0718,-2.76676 37.6435,-0.0583 18.7674,4.80818 36.879,18.17562 46.7111,34.4756 25.3906,42.09322 5.2464,95.85146 -41.8546,111.69641 -8.0404,2.70481 -11.2669,3.24711 -21,3.52963 -7.2361,0.21004 -13.9633,-0.18073 -18.1437,-1.05394 z m 36.7742,-11.92687 c 26.0558,-8.45334 43.5422,-31.59501 45.0552,-59.62628 1.7194,-31.85791 -19.4272,-60.28305 -50.2861,-67.59403 -8.878,-2.10334 -24.0586,-2.11008 -32.4321,-0.0144 -32.9106,8.23665 -54.4855,39.61084 -49.9613,72.65356 3.1061,22.68583 15.7682,40.81352 35.2259,50.4309 12.175,6.01779 19.4265,7.5732 33.2679,7.13572 8.4739,-0.26783 12.8672,-0.95344 19.1305,-2.98548 z m -34.0791,-5.27854 c -21.7591,-4.66332 -40.0389,-22.35132 -45.0458,-43.58747 -1.9215,-8.14947 -1.9045,-20.80855 0.038,-28.26565 5.364,-20.59406 23.1663,-38.15003 43.5597,-42.95718 41.468,-9.77487 79.9297,25.84253 72.5402,67.17574 -2.2327,12.48815 -7.2853,22.04995 -16.5441,31.30877 -15.018,15.01798 -34.0591,20.71686 -54.5479,16.32579 z m 2.9435,-13.1716 c 6.2741,-3.59499 9.4845,-16.19951 6.3884,-25.08117 -1.7702,-5.07792 -4.2369,-3.68293 -8.5872,4.85631 -4.1104,8.06821 -6.6986,10.57529 -8.3092,8.04872 -1.4061,-2.20568 -1.4192,-2.17282 4.1397,-10.4013 4.0526,-5.99868 4.8846,-7.88025 3.9712,-8.98085 -1.2979,-1.56391 -7.1933,-0.6655 -11.9528,1.82151 -3.0259,1.58113 -7.3747,6.037 -9.0228,9.2449 -2.5384,4.94077 -0.5548,16.05194 3.4604,19.38432 4.8382,4.01534 13.9528,4.52231 19.9123,1.10756 z m 34.8886,1.437 c 10.8005,-4.51274 11.2543,-22.24093 0.7454,-29.12082 -5.0091,-3.27927 -12.6612,-5.12535 -14.5945,-3.52089 -1.2427,1.03137 -0.724,2.25669 3.5035,8.27641 4.7298,6.73501 6.1014,10.93001 3.9986,12.22962 -1.6084,0.99402 -5.0643,-3.30656 -8.2981,-10.32621 -1.6852,-3.65819 -3.1772,-6.80021 -3.3156,-6.98227 -0.1383,-0.18206 -1.1518,0.15078 -2.2521,0.73965 -2.4622,1.31772 -4.4855,9.81358 -3.5677,14.98033 2.1182,11.92404 13.0245,18.2183 23.7805,13.72418 z m 20.3799,-32.22989 c 4.2533,-3.08856 7.5602,-10.50854 6.7694,-15.18909 -0.8952,-5.29869 -3.8106,-9.76092 -7.7386,-11.84438 -4.6467,-2.46468 -13.2424,-2.29407 -18.2942,0.36312 -5.4254,2.85369 -9.9339,7.71408 -9.1208,9.83285 0.5572,1.45199 1.7578,1.57878 9.3799,0.99048 6.9042,-0.5329 9.1532,-0.36767 10.7032,0.78634 1.7361,1.29268 1.7957,1.66162 0.5171,3.20225 -1.251,1.50736 -2.698,1.66649 -10.773,1.18473 -7.4166,-0.44248 -9.437,-0.27211 -9.8605,0.83148 -0.9018,2.35002 3.4033,7.153 8.9109,9.94141 4.3095,2.18182 6.2695,2.58628 11.0066,2.27127 3.6701,-0.24407 6.7574,-1.10504 8.5,-2.37046 z m -72.0111,-0.07 c 5.3326,-2.53049 10.1998,-7.78062 9.5426,-10.29351 -0.3543,-1.35501 -1.1075,-1.89734 -2.1689,-1.56181 -0.8943,0.28272 -5.0882,0.63284 -9.3198,0.77805 -8.1138,0.27842 -10.6,-0.72497 -9.4194,-3.80153 0.571,-1.48812 1.8866,-1.64053 10.5569,-1.22303 8.8395,0.42565 9.9539,0.28818 10.3636,-1.2784 0.5907,-2.2589 -5.5399,-8.3074 -10.5252,-10.3842 -4.8203,-2.0081 -12.0815,-1.97513 -16.4007,0.0745 -4.8633,2.30779 -7.6724,6.73207 -8.1176,12.78508 -0.4589,6.23848 1.7848,11.08215 6.6341,14.3217 4.2429,2.83441 13.5065,3.12095 18.8544,0.58319 z m 32.5298,0.31562 c 5.802,-2.4722 8.0854,-5.95009 8.4768,-12.91119 0.6122,-10.88612 -4.945,-16.30628 -15.9055,-15.51346 -6.3238,0.45742 -9.6623,2.64004 -12.5597,8.21137 -1.9671,3.78244 -1.2434,11.81858 1.3878,15.40889 4.0668,5.54945 12.0268,7.60545 18.6006,4.80439 z m -12.359,-7.55196 c -7.193,-7.19299 0.2474,-18.53946 9.5959,-14.63344 4.644,1.9404 6.9555,6.58874 5.4878,11.03584 -2.2549,6.83256 -10.0012,8.68012 -15.0837,3.5976 z m 31.9864,-22.86629 c 7.7208,-4.74622 10.797,-15.21289 6.7455,-22.95121 -5.9359,-11.33754 -24.0252,-9.8186 -29.2782,2.45846 -2.6652,6.22902 -1.0796,19.77241 2.4015,20.51232 1.286,0.27335 2.7448,-1.64983 5.765,-7.60045 4.2946,-8.46157 6.6017,-10.88478 8.5285,-8.95794 1.573,1.57301 0.5177,4.23469 -4.7006,11.85578 -3.4446,5.03076 -4.2541,6.90859 -3.4143,7.92049 1.522,1.83388 8.2378,0.2756 13.9526,-3.23745 z m -36.4313,2.8247 c 0.3279,-0.53056 -1.4639,-3.79306 -3.9817,-7.25 -5.0163,-6.88739 -6.3444,-10.33747 -4.6365,-12.0453 1.758,-1.75806 5.634,2.59969 8.8229,9.91963 2.2407,5.14343 3.1945,6.35957 4.8063,6.12855 4.2206,-0.60494 5.5048,-15.03155 1.9499,-21.90592 -3.7843,-7.31818 -12.8544,-10.523 -20.9892,-7.41631 -10.0206,3.82692 -12.4901,18.07088 -4.6618,26.88916 3.9746,4.47715 16.9891,8.43246 18.6901,5.68019 z m -4.9782,-107.51192 c -23.7533,-5.21623 -44.6343,-21.98351 -54.3929,-43.67707 -9.176,-20.39831 -8.6976,-44.80921 1.2658,-64.594 13.145,-26.10234 39.2662,-42.25233 68.3397,-42.25233 13.275,0 22.481,2.05134 33.7874,7.5288 16.0149,7.75849 27.9637,19.51184 35.5529,34.9712 5.0087,10.20309 6.9252,17.61075 7.6416,29.5372 2.221,36.97549 -24.0295,70.75441 -60.9044,78.37113 -9.1645,1.89297 -22.963,1.94371 -31.2901,0.11507 z m 36.5,-11.50659 c 17.0011,-5.70443 31.3163,-17.91173 38.7178,-33.01681 9.5978,-19.58699 9.6538,-40.59372 0.1599,-60 -3.3634,-6.87506 -5.8042,-10.12494 -12.768,-17 -13.8446,-13.66818 -26.9791,-18.95693 -47.1496,-18.98522 -12.6728,-0.0178 -19.52,1.5654 -30.9262,7.1507 -15.7495,7.71203 -28.8288,23.99692 -33.5997,41.83452 -2.0118,7.52214 -2.3179,23.95542 -0.5807,31.18469 6.0151,25.03201 23.5789,43.15131 48.3231,49.85133 9.9354,2.69023 28.2379,2.19704 37.8234,-1.01921 z m -33.5,-5.50225 c -21.6069,-4.77671 -39.399,-21.89969 -44.9286,-43.23887 -1.9939,-7.69473 -2.0179,-21.14115 -0.051,-28.69154 5.3748,-20.63525 23.2013,-38.2423 43.583,-43.04671 13.227,-3.11787 28.2663,-1.38578 40.8441,4.70406 8.6101,4.16881 21.5807,16.86363 25.8072,25.2585 8.8645,17.60699 9.1041,35.68892 0.7046,53.15235 -5.0609,10.5219 -15.9737,21.52216 -26.4811,26.69339 -12.6566,6.22889 -26.49,8.04009 -39.4779,5.16882 z m 2.9949,-13.33842 c 6.2741,-3.59499 9.4845,-16.19951 6.3884,-25.08117 -1.7702,-5.07792 -4.2369,-3.68293 -8.5872,4.85631 -4.0234,7.89737 -6.4341,10.31071 -8.3679,8.37691 -1.6094,-1.60936 -0.4551,-4.39245 4.7598,-11.47638 5.1109,-6.94269 5.0205,-9.6455 -0.3013,-9.00365 -6.851,0.82628 -13.9609,5.58079 -16.976,11.35218 -2.8085,5.37585 -1.0548,16.36036 3.1719,19.86824 4.8382,4.01534 13.9528,4.52231 19.9123,1.10756 z m 35.434,1.07231 c 4.7999,-2.4475 7.2704,-6.26718 7.8317,-12.10842 0.9219,-9.59498 -5.3948,-17.56253 -16.014,-20.19903 -3.6918,-0.91659 -5.0793,-0.90979 -6.2122,0.0304 -1.2427,1.03137 -0.724,2.25669 3.5035,8.27641 4.7298,6.73501 6.1014,10.93001 3.9986,12.22962 -1.6084,0.99402 -5.0643,-3.30656 -8.2981,-10.32621 -1.6852,-3.65819 -3.1772,-6.80021 -3.3156,-6.98227 -0.1383,-0.18206 -1.1518,0.15078 -2.2521,0.73965 -2.4622,1.31772 -4.4855,9.81358 -3.5677,14.98033 2.1647,12.18592 13.9425,18.65412 24.3259,13.35949 z m 19.8345,-31.8652 c 4.2533,-3.08856 7.5602,-10.50854 6.7694,-15.18909 -0.8952,-5.29869 -3.8106,-9.76092 -7.7386,-11.84438 -4.6467,-2.46468 -13.2424,-2.29407 -18.2942,0.36312 -5.4254,2.85369 -9.9339,7.71408 -9.1208,9.83285 0.5572,1.45199 1.7578,1.57878 9.3799,0.99048 6.9042,-0.5329 9.1532,-0.36767 10.7032,0.78634 1.7361,1.29268 1.7957,1.66162 0.5171,3.20225 -1.251,1.50736 -2.698,1.66649 -10.773,1.18473 -7.7282,-0.46107 -9.4267,-0.29899 -9.9041,0.94506 -0.9095,2.37008 2.9293,6.59267 8.8037,9.68375 4.5546,2.39667 6.2909,2.77562 11.1574,2.43522 3.6417,-0.25473 6.7709,-1.13473 8.5,-2.39033 z m -72.3762,0.22832 c 4.6996,-1.96361 10.5685,-8.06498 9.9677,-10.36249 -0.4436,-1.69631 -1.1461,-1.77656 -8.6369,-0.98661 -9.0192,0.95112 -13.1083,-0.0368 -12.5149,-3.02347 0.3018,-1.51956 1.6276,-1.73228 10.506,-1.68572 12.1064,0.0635 13.3745,-1.11772 7.4241,-6.91561 -6.7596,-6.58628 -16.9627,-8.60739 -24.1488,-4.78357 -9.912,5.27434 -10.5303,20.56713 -1.0865,26.87597 4.0157,2.68269 13.1376,3.11759 18.4893,0.8815 z m 32.8949,0.0173 c 5.6132,-2.39174 8.0413,-5.95171 8.5137,-12.48224 0.7842,-10.84115 -5.0628,-16.72938 -15.8381,-15.94996 -6.436,0.46554 -9.7505,2.61659 -12.664,8.21892 -1.9671,3.78244 -1.2434,11.81858 1.3878,15.40889 4.0668,5.54945 12.0268,7.60545 18.6006,4.80439 z m -12.359,-7.55196 c -7.193,-7.19299 0.2474,-18.53946 9.5959,-14.63344 4.644,1.9404 6.9555,6.58874 5.4878,11.03584 -2.2549,6.83256 -10.0012,8.68012 -15.0837,3.5976 z m 29.6674,-21.55893 c 8.1657,-3.62736 12.6177,-12.31745 10.4446,-20.38744 -2.2473,-8.34612 -7.3711,-11.63596 -17.0338,-10.93703 -4.9308,0.35666 -6.5612,0.95882 -9.1255,3.37036 -1.7172,1.61487 -3.7417,4.38417 -4.499,6.154 -2.713,6.34068 -1.098,19.59876 2.5021,20.54019 1.4818,0.3875 2.6149,-1.09221 5.7317,-7.48492 3.8955,-7.98983 6.6742,-10.88831 8.5961,-8.96645 1.4358,1.43577 0.2669,4.26913 -4.8355,11.72089 -3.6267,5.29668 -4.2816,6.87539 -3.3287,8.0236 1.4075,1.69598 4.2993,1.18684 11.548,-2.0332 z m -34.1123,1.51734 c 0.3279,-0.53056 -1.4639,-3.79306 -3.9817,-7.25 -5.0163,-6.88739 -6.3444,-10.33746 -4.6365,-12.0453 1.758,-1.75806 5.634,2.59969 8.8229,9.91963 2.2407,5.14343 3.1945,6.35957 4.8063,6.12855 2.6625,-0.38162 4.7889,-8.48984 3.9408,-15.02736 -1.5814,-12.19185 -13.1508,-18.97898 -23.6707,-13.88638 -10.0411,4.86079 -11.7051,19.53689 -3.0977,27.32054 4.7222,4.27035 16.2357,7.39826 17.8166,4.84032 z"
         id="path3607"
         inkscape:connector-curvature="0" />
      <path
         style="fill:#7f7f7f"
         d="m 1313.7668,-161.40604 c -23.9834,-4.11953 -43.9901,-18.54823 -54.3138,-39.1708 -8.129,-16.2386 -7.6137,-3.08269 -7.298,-186.32013 l 0.2809,-163 2.3321,-6.5 c 4.0738,-11.35473 9.0066,-19.01974 18.0774,-28.09053 9.4396,-9.43965 16.8941,-14.1237 29.5905,-18.59322 l 8,-2.81625 120,0 120,0 7.4648,2.34401 c 25.7996,8.10136 44.435,27.12548 50.7854,51.84467 1.6311,6.34915 1.7498,17.7695 1.7498,168.31132 0,181.55617 0.651,166.01182 -7.6635,182.97192 -3.3496,6.83255 -5.9126,10.24115 -13.2449,17.61484 -7.7407,7.78435 -10.5032,9.83078 -18.5916,13.77219 -17.9853,8.76409 -6.7768,8.0874 -137,8.27107 -63.525,0.0896 -117.6011,-0.19799 -120.1691,-0.63909 z m 240.7011,-5.99912 c 13.1563,-3.3648 21.7978,-8.28135 31.5777,-17.966 6.9459,-6.87822 9.4134,-10.16842 12.7689,-17.02581 7.6127,-15.55747 7.1822,-4.03815 6.8862,-184.25714 l -0.2648,-161.24286 -2.3303,-7 c -5.7317,-17.21706 -17.8044,-31.28727 -33.4294,-38.96024 -17.5891,-8.6375 -7.274,-8.03976 -138.7403,-8.03976 l -116.5,0 -7.9549,2.30316 c -11.7335,3.39716 -20.9704,8.66136 -29.5527,16.84245 -8.6345,8.23083 -13.892,16.47275 -17.768,27.85439 l -2.7244,8 -0.301,158 c -0.2171,113.98955 0.015,160.21455 0.8341,165.95037 3.826,26.80114 23.4672,48.5311 50.1964,55.53453 6.9423,1.81899 12.5107,1.90746 123.3605,1.96004 113.0702,0.0536 116.2943,0.003 123.942,-1.95313 z m -133.8715,-43.12361 c -16.768,-2.15453 -31.7251,-9.7122 -44.3338,-22.40147 -6.9066,-6.95063 -8.9526,-9.83293 -13.2008,-18.59614 -6.5257,-13.46116 -8.5627,-23.26534 -7.8487,-37.77595 0.6017,-12.22921 2.4242,-19.67969 7.2886,-29.79621 8.9817,-18.67943 25.9129,-32.75775 47.4342,-39.44165 9.821,-3.05013 30.8193,-3.31874 41,-0.52448 26.5635,7.29078 47.2587,28.10939 54.0962,54.41872 2.63,10.11971 2.8133,26.93654 0.4007,36.75793 -7.656,31.16574 -33.4591,53.82894 -65.4624,57.49658 -9.5366,1.0929 -9.8148,1.09093 -19.374,-0.13733 z m 27.273,-10.48065 c 3.0616,-0.77409 9.3859,-3.27773 14.0541,-5.56366 16.3071,-7.98532 29.8706,-25.00101 34.5025,-43.28399 1.9772,-7.8047 1.9484,-24.03151 -0.057,-31.89556 -4.7762,-18.73225 -18.2659,-35.09482 -36.0678,-43.74921 -27.003,-13.12748 -58.551,-6.88793 -79.2034,15.66478 -19.5694,21.37007 -22.5993,53.80941 -7.3723,78.93049 4.5179,7.45347 15.0582,17.91118 22.5636,22.38678 15.5137,9.25108 34.0312,11.94735 51.58,7.51037 z m -31.4819,-7.784 c -24.4114,-5.93002 -42.1634,-27.17852 -44.0318,-52.70441 -2.0476,-27.9756 16.0073,-53.24934 43.5802,-61.00469 6.8476,-1.926 24.3281,-1.65542 31.4477,0.48679 20.3476,6.1223 35.9311,22.10392 41.0307,42.07886 1.9336,7.57377 1.9266,20.19657 -0.016,28.43679 -4.7395,20.10648 -21.7274,37.2602 -42.1069,42.51793 -7.2578,1.87243 -22.575,1.9691 -29.9041,0.18873 z m 40.6756,-11.1693 c 6.2229,-3.21801 9.88,-11.76884 7.8051,-18.24934 -1.8238,-5.69628 -5.3862,-9.73389 -11.1007,-12.58153 -5.6177,-2.79943 -9.7281,-3.30688 -11.6026,-1.43241 -0.8946,0.89463 -0.3724,2.28244 2.2127,5.8807 6.7507,9.39659 8.3207,14.3446 4.3684,13.76788 -1.633,-0.23829 -3.2218,-2.42704 -6.2474,-8.60668 -4.5914,-9.37763 -6.9122,-10.44586 -9.1525,-4.21287 -2.8607,7.9589 -1.2234,16.82623 4.1235,22.33175 5.461,5.62304 12.5489,6.74536 19.5935,3.1025 z m -37.4719,-0.075 c 7.6202,-3.61601 11.596,-13.19015 9.4533,-22.76463 -0.8341,-3.72729 -1.9273,-5.96244 -3.2668,-6.67929 -1.1072,-0.59257 -2.1472,-0.92843 -2.3112,-0.74637 -0.164,0.18206 -2.1267,3.98625 -4.3615,8.45376 -3.7514,7.49904 -6.0689,10.14413 -7.5713,8.64169 -1.454,-1.45401 -0.2632,-4.61315 4.3028,-11.41508 4.6296,-6.8967 4.7977,-7.3724 3.0395,-8.60382 -3.5162,-2.46289 -12.4746,1.28304 -18.1854,7.60419 -7.8468,8.68555 -4.6187,22.34652 6.2453,26.42875 3.0195,1.13461 9.2865,0.67942 12.6553,-0.9192 z m 55.4756,-30.96617 c 3.8321,-1.92452 7.6919,-6.93154 8.4472,-10.95791 2.585,-13.77929 -11.6783,-23.75261 -25.0781,-17.53534 -5.1039,2.36813 -10.8018,8.29469 -10.3299,10.74442 0.3259,1.69124 1.2649,1.82494 10.5937,1.50833 9.6694,-0.32816 10.2362,-0.23719 10.2362,1.64302 0,2.87076 -2.1914,3.33728 -12.1466,2.58577 -7.9454,-0.5998 -8.8534,-0.49304 -8.8534,1.04087 0,2.7187 1.6252,5.05449 5.6559,8.12886 6.5981,5.03264 14.92,6.13395 21.475,2.84198 z m -73.446,0.55101 c 7.0637,-2.64943 13.8915,-9.27837 12.715,-12.34447 -0.4827,-1.25786 -2.2017,-1.4062 -10.4628,-0.90291 -8.824,0.53758 -9.9573,0.41433 -10.5568,-1.14818 -1.1338,-2.9544 1.5805,-3.69092 11.2431,-3.05083 8.1874,0.54236 9.1955,0.41958 9.8254,-1.19668 1.1195,-2.87218 -8.0816,-10.77357 -14.2762,-12.25964 -16.4313,-3.94181 -28.0646,13.42602 -17.4459,26.04568 4.53,5.38354 12.2686,7.36616 18.9582,4.85703 z m 39.8074,-3.93663 c 8.7206,-8.45239 6.2455,-21.26889 -4.932,-25.53759 -6.0645,-2.31606 -10.7233,-1.32458 -15.7218,3.34592 -7.7925,7.28119 -6.6472,18.56262 2.4658,24.28707 2.4902,1.56422 4.4676,1.92577 8.9568,1.63765 4.9296,-0.31639 6.262,-0.85524 9.2312,-3.73305 z m -13.4923,-2.7169 c -6.8714,-2.52656 -7.79,-13.24269 -1.3854,-16.16084 6.841,-3.11694 13.412,0.61045 13.3536,7.57483 -0.037,4.44572 -1.5776,6.81625 -5.3648,8.25614 -2.9511,1.12199 -4.2699,1.18788 -6.6034,0.32987 z m -8.0522,-21.72764 c 0.9633,-1.16072 0.2176,-2.82553 -3.8776,-8.65683 -5.013,-7.13837 -6.0737,-10.16783 -4.0072,-11.44503 1.7309,-1.06974 4.2976,2.01585 7.94,9.54523 2.7513,5.68718 3.8236,7.01964 5.4603,6.78531 4.1096,-0.58838 6.0449,-13.90584 2.9197,-20.09126 -3.5896,-7.10457 -8.7755,-10.70034 -15.4322,-10.70034 -9.2896,0 -16.1816,6.78003 -16.1816,15.91882 0,8.31811 6.129,15.70004 15.4526,18.61146 5.5792,1.74217 6.3047,1.74524 7.726,0.0326 z m 34.8681,-1.71583 c 2.4001,-1.16188 5.663,-3.90591 7.2508,-6.09786 5.4423,-7.51293 5.1264,-15.3596 -0.8724,-21.6656 -9.5768,-10.06736 -25.7359,-4.00704 -28.5334,10.70122 -1.1742,6.17294 2.1579,16.21515 5.3803,16.21515 0.494,0 2.406,-3.2625 4.2487,-7.25 3.9739,-8.59912 6.3016,-11.33393 8.2618,-9.70706 1.7754,1.47345 0.5897,4.51205 -4.7078,12.06417 -3.5291,5.03103 -3.9245,6.09087 -2.7845,7.46444 1.5977,1.9251 5.3564,1.37377 11.7565,-1.72446 z m -34.4073,-105.83757 c -16.484,-2.30989 -31.7189,-10.10075 -44.0819,-22.54279 -6.9118,-6.9559 -8.9485,-9.82629 -13.1949,-18.59614 -5.7884,-11.95451 -8.1318,-21.82841 -8.1318,-34.26306 0,-20.42034 7.9355,-39.56281 22.249,-53.6702 9.23,-9.09717 21.5581,-16.06735 34.751,-19.64788 8.8961,-2.41439 29.9087,-2.3736 39,0.0757 26.4234,7.1188 47.2648,28.10924 54.1298,54.51707 2.5171,9.68281 2.7335,26.73004 0.4624,36.43683 -6.3289,27.0503 -28.6401,49.53542 -55.5922,56.02569 -8.3099,2.00109 -21.7825,2.75904 -29.5914,1.66478 z m 28.0914,-10.64714 c 17.1964,-4.39967 34.5456,-18.49041 42.3239,-34.37478 5.4961,-11.22389 7.1761,-18.31805 7.1761,-30.30335 0,-19.13628 -5.4795,-32.16891 -19.4708,-46.31009 -7.5151,-7.59557 -10.4545,-9.80732 -17.5292,-13.18984 -22.0853,-10.55934 -47.0905,-9.03781 -66.6684,4.05666 -35.6889,23.8702 -40.6335,72.80076 -10.3785,102.70399 17.2117,17.01163 41.0213,23.43642 64.5469,17.41741 z m -34,-8.25439 c -23.8889,-6.96571 -40.2549,-27.27099 -42.0802,-52.20885 -2.075,-28.35064 16.8999,-54.32455 44.5802,-61.02371 8.6049,-2.08256 23.2246,-1.67407 31.5,0.88014 17.6847,5.4584 31.9628,18.92166 38.2488,36.06572 3.3032,9.00925 4.1192,23.89541 1.8399,33.56543 -4.8357,20.51496 -21.7048,37.76193 -42.141,43.08489 -7.9889,2.08084 -24.1971,1.89636 -31.9477,-0.36362 z m 39.682,-9.28066 c 7.7763,-2.32984 13.1498,-12.14809 10.7503,-19.64242 -1.8238,-5.69628 -5.3862,-9.73389 -11.1007,-12.58153 -5.7634,-2.87205 -9.9896,-3.32284 -11.7106,-1.24913 -0.868,1.04586 -0.3609,2.35528 2.227,5.75 6.6753,8.75675 8.4514,14.2904 4.402,13.7153 -1.7188,-0.24411 -3.1906,-2.27652 -6.2339,-8.60844 -3.1587,-6.57184 -4.3842,-8.22905 -5.9159,-8 -3.93,0.58766 -6.0099,13.47926 -3.2431,20.10123 2.5769,6.16722 9.3041,11.19196 15.5269,11.59747 0.7612,0.0496 3.1453,-0.43751 5.298,-1.08248 z m -34.5267,-1.46806 c 4.4466,-2.11004 7.9051,-6.68685 9.4676,-12.52911 2.0344,-7.60605 -1.0739,-17.83016 -5.4206,-17.83016 -0.236,0 -1.6797,2.8125 -3.2081,6.25 -3.4427,7.74265 -6.1923,11.75 -8.0623,11.75 -2.74,0 -1.4325,-4.84251 3.1512,-11.67174 5.1496,-7.67231 5.0173,-10.02519 -0.5378,-9.56572 -8.0834,0.6686 -17.4331,8.97239 -18.5594,16.48325 -0.7038,4.69282 1.0538,10.45472 4.3022,14.10424 4.0555,4.55614 12.7014,5.93513 18.8672,3.00924 z m 55.4756,-30.94379 c 3.847,-1.96472 7.694,-6.96542 8.4472,-10.98029 2.4866,-13.25469 -11.0651,-23.43682 -23.9998,-18.03236 -5.1349,2.14551 -11.7311,8.52752 -11.3768,11.0074 0.2845,1.99177 0.7792,2.07288 10.5485,1.72962 9.7086,-0.34113 10.25,-0.25435 10.25,1.64301 0,2.90141 -2.3787,3.41589 -12.2304,2.6452 -7.8462,-0.6138 -8.7696,-0.50759 -8.7696,1.0087 0,2.70415 1.6315,5.04477 5.6559,8.11436 6.7275,5.13133 14.9015,6.22158 21.475,2.86436 z m -68.5216,-1.99406 c 5.5102,-3.42634 8.7323,-7.36758 7.8669,-9.62272 -0.527,-1.3734 -2.0301,-1.52431 -10.5216,-1.0564 -8.8035,0.4851 -9.9814,0.35155 -10.5764,-1.19913 -1.1314,-2.94839 1.5889,-3.68512 11.2452,-3.04545 8.1874,0.54236 9.1955,0.41958 9.8254,-1.19668 1.1195,-2.87218 -8.0816,-10.77357 -14.2762,-12.25964 -16.4313,-3.94181 -28.0646,13.42602 -17.4459,26.04568 1.4708,1.7479 4.0465,3.80069 5.7237,4.56174 4.7731,2.16577 12.647,1.19995 18.1589,-2.2274 z m 34.332,-0.98739 c 9.3188,-8.41897 7.0981,-21.58024 -4.381,-25.96414 -6.0645,-2.31606 -10.7233,-1.32458 -15.7218,3.34592 -10.6812,9.98027 -3.9355,26.16988 10.9086,26.18045 4.6132,0.003 5.724,-0.42708 9.1942,-3.56223 z m -12.9413,-3.14347 c -6.8714,-2.52656 -7.79,-13.24269 -1.3854,-16.16084 6.841,-3.11694 13.412,0.61045 13.3536,7.57483 -0.057,6.76381 -5.7723,10.86421 -11.9682,8.58601 z m -8.0522,-21.72764 c 0.9633,-1.16072 0.2176,-2.82553 -3.8776,-8.65683 -4.9992,-7.11861 -6.0732,-10.1682 -4.0264,-11.43316 1.7576,-1.08624 3.9544,1.56785 8.0654,9.74432 3.5184,6.99778 4.1415,7.71895 5.8698,6.794 1.0634,-0.56913 2.4007,-2.71699 2.9717,-4.77302 3.7731,-13.58629 -3.9419,-26.23823 -15.9999,-26.23823 -9.2896,0 -16.1816,6.78003 -16.1816,15.91882 0,8.31811 6.129,15.70004 15.4526,18.61146 5.5792,1.74217 6.3047,1.74524 7.726,0.0326 z m 31.3042,0.0103 c 8.5249,-3.04223 14.675,-10.71124 14.726,-18.36309 0.046,-6.96542 -6.0508,-14.47471 -12.8585,-15.83625 -7.0827,-1.41655 -15.0909,2.84409 -18.8419,10.02453 -2.968,5.68161 -1.6833,18.2953 2.1221,20.83625 2.0238,1.35133 2.5228,0.80198 5.8902,-6.48469 3.9739,-8.59912 6.3016,-11.33393 8.2618,-9.70706 1.7754,1.47345 0.5897,4.51205 -4.7078,12.06417 -3.4208,4.87662 -3.9015,6.11852 -2.8561,7.37823 1.5198,1.83114 3.3255,1.85035 8.2642,0.0879 z"
         id="path3605"
         inkscape:connector-curvature="0" />
      <path
         style="fill:#4b526a"
         d="m 1308.4359,-162.86462 c -23.1137,-5.04132 -43.5649,-22.2462 -51.5729,-43.38653 -5.0837,-13.42038 -4.9967,-10.03698 -4.6724,-181.7247 0.3384,-179.19844 -0.387,-162.64988 7.8641,-179.42112 3.3461,-6.80149 5.9002,-10.21004 12.7815,-17.0577 9.5365,-9.48994 18.8609,-15.03465 32.1271,-19.10423 l 7.4726,-2.29234 113,-0.31949 c 78.1468,-0.22095 115.5802,0.0195 121.3653,0.77972 25.4476,3.34385 46.4066,18.31768 56.68,40.49404 6.9079,14.91148 6.5472,4.23862 6.2356,184.5 l -0.2809,162.5 -2.9325,8.4012 c -7.9152,22.6764 -27.2323,40.15002 -50.9775,46.11256 -7.6759,1.92748 -11.3592,1.98389 -124.5,1.90674 -92.0972,-0.0628 -117.8505,-0.35442 -122.59,-1.38815 z m 246,-3.80897 c 3.3,-0.95879 9.825,-3.60092 14.5,-5.8714 11.4197,-5.54612 24.6866,-18.63516 30.2577,-29.85198 7.7997,-15.70398 7.1752,-1.1308 7.5207,-175.5 0.2156,-108.78497 -0.022,-158.52424 -0.7839,-164.34017 -2.0892,-15.94195 -8.1354,-28.22223 -19.5098,-39.62626 -8.1441,-8.16528 -16.7319,-13.47699 -27.9847,-17.30916 l -8,-2.72441 -119.5,0 -119.5,0 -8,2.82357 c -11.9706,4.22495 -18.0955,8.12851 -27.6193,17.60234 -8.7122,8.66648 -12.467,14.55222 -17.269,27.0696 l -2.1117,5.50449 -0.2809,162 c -0.3149,181.58348 -0.7895,169.12897 7.0412,184.78688 3.1576,6.31377 5.9771,10.06318 12.1922,16.21312 4.4466,4.4 10.6257,9.49435 13.7315,11.32079 6.607,3.88547 17.323,7.78141 24.9368,9.06613 3.0451,0.51382 55.0625,0.83652 119.8792,0.74369 105.623,-0.15127 114.9652,-0.29913 120.5,-1.90723 z m -133.8395,-43.85518 c -16.768,-2.15453 -31.7251,-9.7122 -44.3338,-22.40147 -6.9066,-6.95063 -8.9526,-9.83293 -13.2008,-18.59614 -6.5257,-13.46116 -8.5627,-23.26534 -7.8487,-37.77595 0.6017,-12.22921 2.4242,-19.67969 7.2886,-29.79621 8.9817,-18.67943 25.9129,-32.75775 47.4342,-39.44165 9.821,-3.05013 30.8193,-3.31874 41,-0.52448 26.5635,7.29078 47.2587,28.10939 54.0962,54.41872 2.63,10.11971 2.8133,26.93654 0.4007,36.75793 -7.656,31.16574 -33.4591,53.82894 -65.4624,57.49658 -9.5366,1.0929 -9.8148,1.09093 -19.374,-0.13733 z m 27.273,-10.48065 c 3.0616,-0.77409 9.3859,-3.27773 14.0541,-5.56366 16.3071,-7.98532 29.8706,-25.00101 34.5025,-43.28399 1.9772,-7.8047 1.9484,-24.03151 -0.057,-31.89556 -4.7762,-18.73225 -18.2659,-35.09482 -36.0678,-43.74921 -27.003,-13.12748 -58.551,-6.88793 -79.2034,15.66478 -19.5694,21.37007 -22.5993,53.80941 -7.3723,78.93049 4.5179,7.45347 15.0582,17.91118 22.5636,22.38678 15.5137,9.25108 34.0312,11.94735 51.58,7.51037 z m -31.4819,-7.784 c -24.4114,-5.93002 -42.1634,-27.17852 -44.0318,-52.70441 -2.0476,-27.9756 16.0073,-53.24934 43.5802,-61.00469 6.8476,-1.926 24.3281,-1.65542 31.4477,0.48679 20.3476,6.1223 35.9311,22.10392 41.0307,42.07886 1.9336,7.57377 1.9266,20.19657 -0.016,28.43679 -4.7395,20.10648 -21.7274,37.2602 -42.1069,42.51793 -7.2578,1.87243 -22.575,1.9691 -29.9041,0.18873 z m 40.6756,-11.1693 c 6.2229,-3.21801 9.88,-11.76884 7.8051,-18.24934 -1.8238,-5.69628 -5.3862,-9.73389 -11.1007,-12.58153 -5.6177,-2.79943 -9.7281,-3.30688 -11.6026,-1.43241 -0.8946,0.89463 -0.3724,2.28244 2.2127,5.8807 6.7507,9.39659 8.3207,14.3446 4.3684,13.76788 -1.633,-0.23829 -3.2218,-2.42704 -6.2474,-8.60668 -4.5914,-9.37763 -6.9122,-10.44586 -9.1525,-4.21287 -2.8607,7.9589 -1.2234,16.82623 4.1235,22.33175 5.461,5.62304 12.5489,6.74536 19.5935,3.1025 z m -37.4719,-0.075 c 7.6202,-3.61601 11.596,-13.19015 9.4533,-22.76463 -0.8341,-3.72729 -1.9273,-5.96244 -3.2668,-6.67929 -1.1072,-0.59257 -2.1472,-0.92843 -2.3112,-0.74637 -0.164,0.18206 -2.1267,3.98625 -4.3615,8.45376 -3.7514,7.49904 -6.0689,10.14413 -7.5713,8.64169 -1.454,-1.45401 -0.2632,-4.61315 4.3028,-11.41508 4.6296,-6.8967 4.7977,-7.3724 3.0395,-8.60382 -3.5162,-2.46289 -12.4746,1.28304 -18.1854,7.60419 -7.8468,8.68555 -4.6187,22.34652 6.2453,26.42875 3.0195,1.13461 9.2865,0.67942 12.6553,-0.9192 z m 55.4756,-30.96617 c 3.8321,-1.92452 7.6919,-6.93154 8.4472,-10.95791 2.585,-13.77929 -11.6783,-23.75261 -25.0781,-17.53534 -5.1039,2.36813 -10.8018,8.29469 -10.3299,10.74442 0.3259,1.69124 1.2649,1.82494 10.5937,1.50833 9.6694,-0.32816 10.2362,-0.23719 10.2362,1.64302 0,2.87076 -2.1914,3.33728 -12.1466,2.58577 -7.9454,-0.5998 -8.8534,-0.49304 -8.8534,1.04087 0,2.7187 1.6252,5.05449 5.6559,8.12886 6.5981,5.03264 14.92,6.13395 21.475,2.84198 z m -73.446,0.55101 c 7.0637,-2.64943 13.8915,-9.27837 12.715,-12.34447 -0.4827,-1.25786 -2.2017,-1.4062 -10.4628,-0.90291 -8.824,0.53758 -9.9573,0.41433 -10.5568,-1.14818 -1.1338,-2.9544 1.5805,-3.69092 11.2431,-3.05083 8.1874,0.54236 9.1955,0.41958 9.8254,-1.19668 1.1195,-2.87218 -8.0816,-10.77357 -14.2762,-12.25964 -16.4313,-3.94181 -28.0646,13.42602 -17.4459,26.04568 4.53,5.38354 12.2686,7.36616 18.9582,4.85703 z m 39.8074,-3.93663 c 8.7206,-8.45239 6.2455,-21.26889 -4.932,-25.53759 -6.0645,-2.31606 -10.7233,-1.32458 -15.7218,3.34592 -7.7925,7.28119 -6.6472,18.56262 2.4658,24.28707 2.4902,1.56422 4.4676,1.92577 8.9568,1.63765 4.9296,-0.31639 6.262,-0.85524 9.2312,-3.73305 z m -13.4923,-2.7169 c -6.8714,-2.52656 -7.79,-13.24269 -1.3854,-16.16084 6.841,-3.11694 13.412,0.61045 13.3536,7.57483 -0.037,4.44572 -1.5776,6.81625 -5.3648,8.25614 -2.9511,1.12199 -4.2699,1.18788 -6.6034,0.32987 z m -8.0522,-21.72764 c 0.9633,-1.16072 0.2176,-2.82553 -3.8776,-8.65683 -5.013,-7.13837 -6.0737,-10.16783 -4.0072,-11.44503 1.7309,-1.06974 4.2976,2.01585 7.94,9.54523 2.7513,5.68718 3.8236,7.01964 5.4603,6.78531 4.1096,-0.58838 6.0449,-13.90584 2.9197,-20.09126 -3.5896,-7.10457 -8.7755,-10.70034 -15.4322,-10.70034 -9.2896,0 -16.1816,6.78003 -16.1816,15.91882 0,8.31811 6.129,15.70004 15.4526,18.61146 5.5792,1.74217 6.3047,1.74524 7.726,0.0326 z m 34.8681,-1.71583 c 2.4001,-1.16188 5.663,-3.90591 7.2508,-6.09786 5.4423,-7.51293 5.1264,-15.3596 -0.8724,-21.6656 -9.5768,-10.06736 -25.7359,-4.00704 -28.5334,10.70122 -1.1742,6.17294 2.1579,16.21515 5.3803,16.21515 0.494,0 2.406,-3.2625 4.2487,-7.25 3.9739,-8.59912 6.3016,-11.33393 8.2618,-9.70706 1.7754,1.47345 0.5897,4.51205 -4.7078,12.06417 -3.5291,5.03103 -3.9245,6.09087 -2.7845,7.46444 1.5977,1.9251 5.3564,1.37377 11.7565,-1.72446 z m -34.4073,-105.83757 c -16.484,-2.30989 -31.7189,-10.10075 -44.0819,-22.54279 -6.9118,-6.9559 -8.9485,-9.82629 -13.1949,-18.59614 -5.7884,-11.95451 -8.1318,-21.82841 -8.1318,-34.26306 0,-20.42034 7.9355,-39.56281 22.249,-53.6702 9.23,-9.09717 21.5581,-16.06735 34.751,-19.64788 8.8961,-2.41439 29.9087,-2.3736 39,0.0757 26.4234,7.1188 47.2648,28.10924 54.1298,54.51707 2.5171,9.68281 2.7335,26.73004 0.4624,36.43683 -6.3289,27.0503 -28.6401,49.53542 -55.5922,56.02569 -8.3099,2.00109 -21.7825,2.75904 -29.5914,1.66478 z m 28.0914,-10.64714 c 17.1964,-4.39967 34.5456,-18.49041 42.3239,-34.37478 5.4961,-11.22389 7.1761,-18.31805 7.1761,-30.30335 0,-19.13628 -5.4795,-32.16891 -19.4708,-46.31009 -7.5151,-7.59557 -10.4545,-9.80732 -17.5292,-13.18984 -22.0853,-10.55934 -47.0905,-9.03781 -66.6684,4.05666 -35.6889,23.8702 -40.6335,72.80076 -10.3785,102.70399 17.2117,17.01163 41.0213,23.43642 64.5469,17.41741 z m -34,-8.25439 c -23.8889,-6.96571 -40.2549,-27.27099 -42.0802,-52.20885 -2.075,-28.35064 16.8999,-54.32455 44.5802,-61.02371 8.6049,-2.08256 23.2246,-1.67407 31.5,0.88014 17.6847,5.4584 31.9628,18.92166 38.2488,36.06572 3.3032,9.00925 4.1192,23.89541 1.8399,33.56543 -4.8357,20.51496 -21.7048,37.76193 -42.141,43.08489 -7.9889,2.08084 -24.1971,1.89636 -31.9477,-0.36362 z m 39.682,-9.28066 c 7.7763,-2.32984 13.1498,-12.14809 10.7503,-19.64242 -1.8238,-5.69628 -5.3862,-9.73389 -11.1007,-12.58153 -5.7634,-2.87205 -9.9896,-3.32284 -11.7106,-1.24913 -0.868,1.04586 -0.3609,2.35528 2.227,5.75 6.6753,8.75675 8.4514,14.2904 4.402,13.7153 -1.7188,-0.24411 -3.1906,-2.27652 -6.2339,-8.60844 -3.1587,-6.57184 -4.3842,-8.22905 -5.9159,-8 -3.93,0.58766 -6.0099,13.47926 -3.2431,20.10123 2.5769,6.16722 9.3041,11.19196 15.5269,11.59747 0.7612,0.0496 3.1453,-0.43751 5.298,-1.08248 z m -34.5267,-1.46806 c 4.4466,-2.11004 7.9051,-6.68685 9.4676,-12.52911 2.0344,-7.60605 -1.0739,-17.83016 -5.4206,-17.83016 -0.236,0 -1.6797,2.8125 -3.2081,6.25 -3.4427,7.74265 -6.1923,11.75 -8.0623,11.75 -2.74,0 -1.4325,-4.84251 3.1512,-11.67174 5.1496,-7.67231 5.0173,-10.02519 -0.5378,-9.56572 -8.0834,0.6686 -17.4331,8.97239 -18.5594,16.48325 -0.7038,4.69282 1.0538,10.45472 4.3022,14.10424 4.0555,4.55614 12.7014,5.93513 18.8672,3.00924 z m 55.4756,-30.94379 c 3.847,-1.96472 7.694,-6.96542 8.4472,-10.98029 2.4866,-13.25469 -11.0651,-23.43682 -23.9998,-18.03236 -5.1349,2.14551 -11.7311,8.52752 -11.3768,11.0074 0.2845,1.99177 0.7792,2.07288 10.5485,1.72962 9.7086,-0.34113 10.25,-0.25435 10.25,1.64301 0,2.90141 -2.3787,3.41589 -12.2304,2.6452 -7.8462,-0.6138 -8.7696,-0.50759 -8.7696,1.0087 0,2.70415 1.6315,5.04477 5.6559,8.11436 6.7275,5.13133 14.9015,6.22158 21.475,2.86436 z m -68.5216,-1.99406 c 5.5102,-3.42634 8.7323,-7.36758 7.8669,-9.62272 -0.527,-1.3734 -2.0301,-1.52431 -10.5216,-1.0564 -8.8035,0.4851 -9.9814,0.35155 -10.5764,-1.19913 -1.1314,-2.94839 1.5889,-3.68512 11.2452,-3.04545 8.1874,0.54236 9.1955,0.41958 9.8254,-1.19668 1.1195,-2.87218 -8.0816,-10.77357 -14.2762,-12.25964 -16.4313,-3.94181 -28.0646,13.42602 -17.4459,26.04568 1.4708,1.7479 4.0465,3.80069 5.7237,4.56174 4.7731,2.16577 12.647,1.19995 18.1589,-2.2274 z m 34.332,-0.98739 c 9.3188,-8.41897 7.0981,-21.58024 -4.381,-25.96414 -6.0645,-2.31606 -10.7233,-1.32458 -15.7218,3.34592 -10.6812,9.98027 -3.9355,26.16988 10.9086,26.18045 4.6132,0.003 5.724,-0.42708 9.1942,-3.56223 z m -12.9413,-3.14347 c -6.8714,-2.52656 -7.79,-13.24269 -1.3854,-16.16084 6.841,-3.11694 13.412,0.61045 13.3536,7.57483 -0.057,6.76381 -5.7723,10.86421 -11.9682,8.58601 z m -8.0522,-21.72764 c 0.9633,-1.16072 0.2176,-2.82553 -3.8776,-8.65683 -4.9992,-7.11861 -6.0732,-10.1682 -4.0264,-11.43316 1.7576,-1.08624 3.9544,1.56785 8.0654,9.74432 3.5184,6.99778 4.1415,7.71895 5.8698,6.794 1.0634,-0.56913 2.4007,-2.71699 2.9717,-4.77302 3.7731,-13.58629 -3.9419,-26.23823 -15.9999,-26.23823 -9.2896,0 -16.1816,6.78003 -16.1816,15.91882 0,8.31811 6.129,15.70004 15.4526,18.61146 5.5792,1.74217 6.3047,1.74524 7.726,0.0326 z m 31.3042,0.0103 c 8.5249,-3.04223 14.675,-10.71124 14.726,-18.36309 0.046,-6.96542 -6.0508,-14.47471 -12.8585,-15.83625 -7.0827,-1.41655 -15.0909,2.84409 -18.8419,10.02453 -2.968,5.68161 -1.6833,18.2953 2.1221,20.83625 2.0238,1.35133 2.5228,0.80198 5.8902,-6.48469 3.9739,-8.59912 6.3016,-11.33393 8.2618,-9.70706 1.7754,1.47345 0.5897,4.51205 -4.7078,12.06417 -3.4208,4.87662 -3.9015,6.11852 -2.8561,7.37823 1.5198,1.83114 3.3255,1.85035 8.2642,0.0879 z"
         id="path3603"
         inkscape:connector-curvature="0" />
      <path
         style="fill:#0f1938"
         d="m 1306.9565,-163.45305 c -26.2469,-6.91351 -45.4669,-25.50528 -52.6829,-50.96101 -1.7495,-6.17168 -1.8377,-14.28418 -1.8377,-168.98291 0,-151.99203 0.1138,-162.92032 1.7602,-169 5.4552,-20.14464 19.4458,-36.96538 38.2398,-45.97508 16.7203,-8.01559 7.7218,-7.52492 138,-7.52492 131.3006,0 123.3952,-0.45551 140.4739,8.09411 16.4216,8.2207 29.464,23.16068 35.7102,40.90589 l 2.8159,8 0.2676,162.22955 c 0.296,179.40938 0.6205,169.6642 -6.1193,183.73527 -9.0122,18.81508 -24.3929,32.0141 -45.6483,39.17325 -5.217,1.75718 -11.6227,1.86338 -124.5,2.06421 -115.5629,0.20561 -119.216,0.15483 -126.4794,-1.75836 z m 240.914,-2.00305 c 27.4075,-4.44686 49.3281,-23.74447 56.7291,-49.94087 1.7473,-6.18511 1.8363,-14.32376 1.8363,-168 0,-180.89271 0.5945,-165.99967 -7.2645,-182 -5.6473,-11.49729 -17.753,-23.26238 -30.2355,-29.38462 -16.2367,-7.96357 -9.2526,-7.57849 -137.8026,-7.59802 -127.6429,-0.0194 -121.4373,-0.33813 -136.6974,7.02119 -14.46,6.97344 -24.8711,17.13896 -31.9618,31.20787 -6.995,13.87895 -6.631,3.29596 -6.3191,183.75358 l 0.2809,162.5 2.6341,7.20108 c 4.6989,12.84571 12.3134,23.39877 22.3593,30.98805 9.6508,7.29084 21.2481,12.42216 32.27,14.27806 7.3636,1.23992 226.5188,1.21529 234.1712,-0.0263 z m -126.2027,-44.96103 c -23.9133,-2.89046 -45.5258,-17.53455 -57.5285,-38.97984 -10.5968,-18.93349 -12.093,-43.61573 -3.8768,-63.95689 12.2766,-30.39392 42.4186,-49.67285 74.6362,-47.7376 12.3222,0.74017 19.3469,2.63279 31.0372,8.36217 8.14,3.98939 10.8681,6.02852 19.0568,14.24412 8.192,8.21881 10.2156,10.945 14.1694,19.0882 6.0425,12.4452 7.9833,20.75024 7.9365,33.96263 -0.1612,45.60278 -39.923,80.51782 -85.4308,75.01721 z m 26.7681,-10.59773 c 23.0894,-5.83147 41.969,-24.75024 47.9272,-48.02645 2.0277,-7.92132 2.0603,-25.0111 0.063,-32.89556 -2.3439,-9.25183 -8.7379,-21.29286 -14.9522,-28.15735 -27.346,-30.20735 -75.8981,-29.43685 -102.0688,1.61979 -16.9548,20.12018 -20.2429,48.88094 -8.3471,73.01228 7.583,15.3824 24.7557,29.70952 40.878,34.10429 11.5451,3.14707 24.9006,3.27258 36.5,0.343 z m -32.4284,-7.91417 c -21.299,-5.95705 -38.104,-23.7099 -42.5672,-44.96794 -1.8904,-9.00376 -1.8726,-13.80012 0.086,-23.29216 9.4214,-45.65295 66.0259,-62.66486 98.925,-29.73091 8.1191,8.12774 13.6362,17.7884 16.0683,28.13635 2.1426,9.11647 1.4383,23.51103 -1.5712,32.1095 -5.7657,16.47329 -19.7501,30.46593 -36.29,36.31114 -8.2284,2.90792 -26.6548,3.67049 -34.6511,1.43402 z m 41.8828,-11.10006 c 8.6654,-5.11877 10.1206,-17.65706 2.9918,-25.77641 -5.2535,-5.98341 -17.0341,-9.98156 -19.2175,-6.52213 -0.7578,1.20052 0.084,3.02951 3.5833,7.78247 5.1715,7.02501 6.3685,9.86768 4.811,11.42522 -1.7011,1.70108 -4.4706,-1.50395 -8.0958,-9.36898 -2.6889,-5.83358 -3.5983,-6.96814 -5.3814,-6.71394 -4.4187,0.6299 -6.1463,13.94251 -2.7651,21.30589 1.0103,2.2 2.7706,4.83029 3.9119,5.84508 5.159,4.5873 14.2726,5.50165 20.1618,2.0228 z m -38.6256,0.26809 c 7.2574,-3.03234 11.3902,-11.72541 10.1799,-21.41271 -0.6281,-5.02723 -3.0914,-9.22326 -5.4144,-9.22326 -0.4982,0 -2.3265,3.0375 -4.063,6.75 -3.3168,7.09131 -6.7368,11.55006 -8.1767,10.66016 -1.8361,-1.13478 -0.6505,-4.35034 4.2002,-11.39161 4.5647,-6.62615 4.9045,-7.48779 3.5054,-8.88692 -1.3303,-1.33029 -2.2217,-1.37405 -6.3048,-0.30953 -10.8372,2.82545 -17.7797,11.21779 -16.9604,20.50239 0.9879,11.1953 12.364,17.76963 23.0338,13.31148 z m 57.4523,-31.86619 c 6.8447,-4.11242 9.3926,-15.28022 4.9689,-21.77995 -3.6271,-5.32927 -7.0868,-7.31424 -13.5651,-7.78284 -4.5249,-0.3273 -6.7524,0.0419 -9.8799,1.63742 -6.6608,3.39806 -10.305,6.98753 -10.305,10.1501 l 0,2.81672 9.9761,-0.54971 c 8.7506,-0.48218 10.0556,-0.34245 10.6235,1.13751 0.3561,0.92798 0.3256,2.00532 -0.068,2.3941 -0.8242,0.81447 -14.7225,0.62678 -18.199,-0.24577 -3.7704,-0.94629 -3.184,4.25456 0.9173,8.13648 7.6319,7.22377 17.6421,8.82576 25.5311,4.08594 z m -74.5879,1.0542 c 5.3275,-1.59618 13.0066,-8.4201 12.6092,-11.20507 -0.2881,-2.01845 -0.7547,-2.10208 -9.8428,-1.76387 -7.5027,0.27921 -9.8013,0.0406 -10.7623,-1.11732 -0.9758,-1.17571 -0.9158,-1.72645 0.2976,-2.73346 1.1224,-0.93156 3.8701,-1.07722 10.5148,-0.55741 7.9619,0.62285 9.0707,0.50711 9.652,-1.0075 0.8722,-2.27296 -0.4921,-4.27992 -5.5484,-8.16213 -11.1898,-8.59158 -24.8678,-5.8458 -29.583,5.93865 -3.0248,7.55979 0.2963,16.00428 7.7441,19.69094 4.7746,2.36338 9.1864,2.63461 14.9188,0.91717 z m 37.8073,-2.07398 c 9.3268,-6.36639 9.138,-19.08351 -0.3888,-26.18821 -3.9996,-2.98275 -13.0246,-2.82806 -17.4155,0.29851 -8.912,6.34594 -8.6958,20.21585 0.4088,26.21802 4.2323,2.79012 13.0714,2.6233 17.3955,-0.32832 z m -12.5794,-5.14622 c -5.8718,-2.60004 -6.7874,-10.59727 -1.6739,-14.6196 3.6734,-2.88944 7.8473,-2.54355 11.3297,0.9389 3.5995,3.59951 3.8531,7.92463 0.6731,11.48351 -2.8459,3.18501 -6.3937,3.93971 -10.3289,2.19719 z m -7.4488,-21.07035 c 0.9947,-1.19854 0.286,-2.85867 -3.8776,-9.08378 -5.1751,-7.73749 -5.9361,-9.81158 -4.0317,-10.98859 1.8322,-1.13236 4.6601,2.4335 8.0536,10.15525 2.2717,5.16938 3.6975,7.28528 4.6601,6.9159 0.7628,-0.29272 1.7416,-0.53221 2.1751,-0.53221 1.516,0 3.2947,-9.01361 2.8462,-14.42292 -0.8447,-10.1851 -7.4956,-16.57708 -17.2488,-16.57708 -7.9324,0 -13.4809,4.31887 -15.5843,12.13055 -2.3313,8.65764 3.926,18.41642 14.0489,21.9105 6.6904,2.30931 7.4174,2.34926 8.9585,0.49238 z m 35.4097,-1.83066 c 2.1666,-1.21152 5.3294,-3.93204 7.0286,-6.04559 2.7229,-3.38692 3.0894,-4.59425 3.0894,-10.17667 0,-4.83753 -0.4871,-6.98624 -2.0618,-9.09539 -3.3639,-4.50557 -6.9912,-6.63575 -12.1423,-7.13071 -9.1231,-0.87662 -15.8919,4.25782 -18.3132,13.8915 -1.9982,7.95014 1.033,17.85409 5.4644,17.85409 0.3183,0 2.1507,-3.23019 4.0721,-7.17821 4.3199,-8.87652 6.2827,-11.23109 8.103,-9.72039 1.5605,1.29509 -0.25,5.31966 -6.0019,13.34194 -2.8028,3.90916 -3.3008,5.23669 -2.3805,6.34555 1.5422,1.85827 7.8906,0.85057 13.1422,-2.08612 z m -33.9939,-105.69663 c -9.0544,-1.26617 -14.0017,-2.76686 -22.8881,-6.94279 -19.3697,-9.10226 -33.565,-25.22017 -40.1284,-45.56335 -3.3698,-10.44476 -4.2626,-26.73279 -2.038,-37.1781 6.1766,-29.00052 27.0427,-51.06861 55.7242,-58.93426 8.8915,-2.43841 29.0212,-2.50253 37.9422,-0.12085 3.575,0.95443 10.7581,3.82687 15.9623,6.3832 7.9392,3.89967 10.9339,6.11295 18.6031,13.74895 13.5296,13.47091 20.5418,27.7194 22.3495,45.41337 3.894,38.11681 -21.063,73.13321 -58.2011,81.65992 -8.3869,1.92559 -19.9024,2.572 -27.3257,1.53391 z m 27.3476,-10.5957 c 22.7368,-5.86751 40.9144,-23.7385 47.1935,-46.39746 2.5473,-9.1923 2.8146,-25.65696 0.5609,-34.55288 -2.3439,-9.25183 -8.738,-21.29286 -14.9522,-28.15735 -31.6541,-34.96627 -89.3391,-27.36664 -110.4701,14.55372 -17.4041,34.52699 -1.5388,76.84791 34.4322,91.84817 4.3995,1.83463 10.1652,3.30457 18.5,4.71645 4.266,0.72264 18.6863,-0.44952 24.7357,-2.01065 z m -32.6641,-7.95093 c -21.2656,-5.91471 -38.1035,-23.69886 -42.5672,-44.95951 -1.8901,-9.00242 -1.8726,-13.80171 0.085,-23.27796 5.2728,-25.52721 25.6149,-43.63922 52.5244,-46.7661 6.577,-0.76425 17.7705,0.78281 25.6166,3.54048 17.5685,6.17486 32.482,23.01572 36.8538,41.61686 2.1426,9.11647 1.4383,23.51103 -1.5712,32.1095 -5.7993,16.56946 -19.4878,30.21691 -36.5806,36.47109 -7.7628,2.84037 -26.2504,3.52134 -34.3606,1.26564 z m 42.0799,-11.20168 c 5.8885,-3.46579 8.7455,-11.19302 6.8118,-18.42415 -2.088,-7.80857 -11.7307,-14.83368 -20.3607,-14.83368 -4.1892,0 -4.0968,2.41648 0.3214,8.39709 5.4446,7.37011 6.761,10.31789 5.2725,11.80641 -1.784,1.78399 -4.4725,-1.27514 -8.1693,-9.29545 -2.6889,-5.83358 -3.5983,-6.96814 -5.3814,-6.71394 -6.1224,0.87277 -6.0225,19.21791 0.1423,26.16052 4.8834,5.49939 14.6885,6.83186 21.3634,2.9032 z m -38.221,0.27809 c 6.9949,-3.61717 10.7462,-11.96435 9.5782,-21.31266 -0.6263,-5.01282 -3.0904,-9.22326 -5.3977,-9.22326 -0.4889,0 -2.4426,3.27155 -4.3415,7.2701 -3.6323,7.64852 -6.3157,11.1284 -7.8501,10.18007 -1.9213,-1.18739 -0.7514,-4.37572 4.1843,-11.40392 4.6761,-6.65853 4.9698,-7.40132 3.5054,-8.86569 -1.3846,-1.38464 -2.2339,-1.43256 -6.3537,-0.35846 -10.8372,2.82545 -17.7797,11.21779 -16.9604,20.50239 0.75,8.49942 7.4425,14.67551 15.9025,14.67551 2.696,0 6.1759,-0.65884 7.733,-1.46408 z m 56.5689,-31.43872 c 4.8177,-2.74443 7.6551,-8.60618 7.2068,-14.88867 -0.6286,-8.80827 -6.1244,-14.24696 -15.1534,-14.99571 -4.5615,-0.37828 -6.4913,0.0116 -11.0175,2.22613 -6.0713,2.9704 -9.5353,6.64009 -9.5353,10.10153 0,2.246 0.1088,2.26476 9.9761,1.72104 8.7506,-0.48218 10.0556,-0.34245 10.6235,1.13751 0.3561,0.92798 0.3256,2.00532 -0.068,2.3941 -0.8242,0.81447 -14.7225,0.62678 -18.199,-0.24577 -3.7704,-0.94629 -3.184,4.25456 0.9173,8.13648 7.5943,7.18809 17.3769,8.89801 25.2494,4.41336 z m -74.3767,0.88538 c 5.016,-1.39332 13.0722,-8.61328 12.6797,-11.36367 -0.2873,-2.01287 -0.7778,-2.10418 -9.8024,-1.82466 -10.6089,0.32859 -13.9141,-0.73616 -10.5,-3.38247 1.6271,-1.2612 3.6296,-1.42443 10.7409,-0.87555 7.521,0.5805 8.8273,0.44951 9.36,-0.93851 0.9071,-2.3639 -2.093,-6.31969 -7.2949,-9.61862 -8.6492,-5.48515 -18.5687,-4.8607 -24.1726,1.52172 -12.0445,13.71791 0.7425,31.55017 18.9893,26.48176 z m 37.8778,-2.23258 c 11.9684,-8.16947 7.2596,-26.92497 -7.1363,-28.42453 -5.677,-0.59135 -12.5404,2.81989 -15.2836,7.59619 -4.0602,7.06925 -1.7799,16.67096 5.0244,21.15666 4.2323,2.79012 13.0714,2.6233 17.3955,-0.32832 z m -13.1124,-5.20922 c -3.2312,-1.80612 -5.2231,-6.35802 -4.3334,-9.90285 0.8786,-3.50062 4.9703,-6.63793 8.6571,-6.63793 4.0121,0 8.7882,4.81906 8.7882,8.86731 0,6.32681 -7.5825,10.76426 -13.1119,7.67347 z m -6.9158,-21.00735 c 0.9947,-1.19854 0.286,-2.85867 -3.8776,-9.08378 -5.243,-7.83896 -5.9428,-9.80743 -3.9292,-11.05194 1.64,-1.01359 5.3076,3.90688 8.4935,11.39478 1.8722,4.40061 3.1022,6.12939 4.0909,5.75 0.7775,-0.29837 1.7684,-0.54249 2.2019,-0.54249 1.516,0 3.2947,-9.01361 2.8462,-14.42291 -0.8447,-10.18511 -7.4956,-16.57709 -17.2488,-16.57709 -14.5523,0 -21.2627,16.28416 -11.3587,27.56421 5.6787,6.4676 16.0149,10.30302 18.7818,6.96922 z m 33.535,-0.88474 c 6.0997,-2.84051 11.1627,-8.37261 12.0652,-13.18319 2.3966,-12.77527 -7.2793,-22.43149 -20.0724,-20.0315 -5.304,0.99505 -10.9346,7.04029 -12.4532,13.37033 -1.5697,6.54359 0.07,15.65258 3.1103,17.27979 2.5147,1.34582 2.5032,1.35819 7.3427,-7.91733 2.9566,-5.66675 4.5218,-7.66679 6.0001,-7.66679 2.9906,0 2.047,2.9154 -3.5465,10.9568 -3.6217,5.20686 -4.5762,7.29283 -3.7775,8.2553 1.6026,1.931 5.7336,1.54332 11.3313,-1.06341 z"
         id="path3601"
         inkscape:connector-curvature="0" />
      <path
         style="fill:#000000"
         d="m 1306.9565,-163.45305 c -26.2469,-6.91351 -45.4669,-25.50528 -52.6829,-50.96101 -1.7495,-6.17168 -1.8377,-14.28418 -1.8377,-168.98291 0,-151.99203 0.1138,-162.92032 1.7602,-169 5.4552,-20.14464 19.4458,-36.96538 38.2398,-45.97508 16.7203,-8.01559 7.7218,-7.52492 138,-7.52492 131.3006,0 123.3952,-0.45551 140.4739,8.09411 16.4216,8.2207 29.464,23.16068 35.7102,40.90589 l 2.8159,8 0.2676,162.22955 c 0.296,179.40938 0.6205,169.6642 -6.1193,183.73527 -9.0122,18.81508 -24.3929,32.0141 -45.6483,39.17325 -5.217,1.75718 -11.6227,1.86338 -124.5,2.06421 -115.5629,0.20561 -119.216,0.15483 -126.4794,-1.75836 z m 240.914,-2.00305 c 27.4075,-4.44686 49.3281,-23.74447 56.7291,-49.94087 1.7473,-6.18511 1.8363,-14.32376 1.8363,-168 0,-180.89271 0.5945,-165.99967 -7.2645,-182 -5.6473,-11.49729 -17.753,-23.26238 -30.2355,-29.38462 -16.2367,-7.96357 -9.2526,-7.57849 -137.8026,-7.59802 -127.6429,-0.0194 -121.4373,-0.33813 -136.6974,7.02119 -14.46,6.97344 -24.8711,17.13896 -31.9618,31.20787 -6.995,13.87895 -6.631,3.29596 -6.3191,183.75358 l 0.2809,162.5 2.6341,7.20108 c 4.6989,12.84571 12.3134,23.39877 22.3593,30.98805 9.6508,7.29084 21.2481,12.42216 32.27,14.27806 7.3636,1.23992 226.5188,1.21529 234.1712,-0.0263 z"
         id="path3599"
         inkscape:connector-curvature="0" />
    </g>
  </g>
</svg>
