<?xml version="1.0" encoding="UTF-8" standalone="no"?>
<!-- Created with Inkscape (http://www.inkscape.org/) -->

<svg
   xmlns:dc="http://purl.org/dc/elements/1.1/"
   xmlns:cc="http://creativecommons.org/ns#"
   xmlns:rdf="http://www.w3.org/1999/02/22-rdf-syntax-ns#"
   xmlns:svg="http://www.w3.org/2000/svg"
   xmlns="http://www.w3.org/2000/svg"
   xmlns:sodipodi="http://sodipodi.sourceforge.net/DTD/sodipodi-0.dtd"
   xmlns:inkscape="http://www.inkscape.org/namespaces/inkscape"
   width="358.75192"
   height="445.44418"
   id="svg2"
   version="1.1"
   inkscape:version="0.91 r13725"
   sodipodi:docname="windwest.svg">
  <defs
     id="defs4" />
  <sodipodi:namedview
     id="base"
     pagecolor="#ffffff"
     bordercolor="#666666"
     borderopacity="1.0"
     inkscape:pageopacity="0.0"
     inkscape:pageshadow="2"
     inkscape:zoom="0.9371643"
     inkscape:cx="-303.74616"
     inkscape:cy="234.52502"
     inkscape:document-units="px"
     inkscape:current-layer="layer1"
     showgrid="false"
     fit-margin-top="0"
     fit-margin-left="0"
     fit-margin-right="0"
     fit-margin-bottom="0"
     inkscape:window-width="1920"
     inkscape:window-height="1018"
     inkscape:window-x="0"
     inkscape:window-y="27"
     inkscape:window-maximized="1" />
  <metadata
     id="metadata7">
    <rdf:RDF>
      <cc:Work
         rdf:about="">
        <dc:format>image/svg+xml</dc:format>
        <dc:type
           rdf:resource="http://purl.org/dc/dcmitype/StillImage" />
        <dc:title></dc:title>
      </cc:Work>
    </rdf:RDF>
  </metadata>
  <g
     inkscape:label="Layer 1"
     inkscape:groupmode="layer"
     id="layer1"
     transform="translate(-1302.6008,1073.7675)">
    <g
       id="g4636"
       transform="translate(602.43611,302.65511)">
      <path
         style="fill:#bfbfbf"
         d="m 758.06262,-932.41188 c -23.17781,-4.67462 -41.91104,-19.28612 -51.7244,-40.34388 -6.66522,-14.30239 -6.33826,-4.32405 -6.0431,-184.42724 l 0.2675,-163.23 2.34145,-6.5 c 8.66572,-24.0565 26.63049,-40.7988 51.15855,-47.6772 6.12241,-1.7169 13.38378,-1.8228 125,-1.8228 133.83708,0 123.10978,-0.619 140.92518,8.1315 7.7115,3.7877 10.8932,6.1057 17.5,12.749 12.4312,12.4999 18.4212,24.3764 20.5677,40.7793 0.7603,5.8096 0.9992,56.2816 0.7874,166.3402 -0.3408,177.0601 0.3354,161.54986 -7.7646,178.10065 -6.9894,14.2813 -21.4686,27.53476 -36.9138,33.78888 -14.20496,5.75189 -10.9394,5.61876 -135.30972,5.5165 -89.99359,-0.074 -115.67406,-0.37267 -120.79216,-1.40491 z m 235.02623,-3.55882 c 17.10875,-2.13551 29.03525,-8.01199 41.48855,-20.4423 9.2524,-9.23536 14.4678,-18.20188 17.5132,-30.10948 1.9223,-7.51589 1.972,-11.73952 1.972,-167.39052 0,-155.651 -0.05,-159.8746 -1.972,-167.3905 -5.5088,-21.5392 -21.9721,-39.17 -43.9102,-47.0242 l -8.61778,-3.0853 -117.75799,-0.27 c -130.16992,-0.2984 -123.6721,-0.5865 -138.06107,6.1204 -17.70951,8.2546 -30.01696,22.1426 -36.46639,41.1496 l -2.71455,8 0,161.5 c 0,176.62579 -0.36217,165.75219 5.97859,179.5 10.06226,21.81664 30.75201,36.67855 55.02141,39.52311 10.09934,1.18372 217.98697,1.10989 227.52623,-0.0808 z m -158.91659,-101.338 c -2.92538,-1.6214 -7.09754,-8.2893 -7.10452,-11.3543 -0.005,-1.9932 0.49709,-2.25 4.39426,-2.25 l 4.39938,0 -16.24,-33.75 c -8.93199,-18.5625 -20.42346,-41.625 -25.5366,-51.25 -14.82162,-27.9004 -15.03501,-28.3205 -14.60292,-28.7526 0.22636,-0.2263 3.77205,-0.8606 7.8793,-1.4094 6.68043,-0.8927 7.88013,-0.7875 11.37954,0.9978 4.94506,2.5227 11.2979,9.38 15.36281,16.5827 1.73251,3.0698 3.29849,5.5815 3.47994,5.5815 0.18145,0 7.45099,-2.7126 16.15454,-6.0281 8.70355,-3.3155 16.29595,-6.1913 16.872,-6.3909 0.72165,-0.2499 0.66458,-3.2733 -0.18351,-9.7219 -1.32805,-10.0981 -1.75325,-30.6622 -0.73886,-35.7341 0.34375,-1.7188 1.20375,-3.125 1.91111,-3.125 1.80685,0 6.4167,5.7241 8.47278,10.5207 2.13988,4.9922 4.99111,17.29 4.99111,21.5276 0,2.8059 1.72607,0.9106 15.66199,-17.1974 8.61409,-11.193 19.63909,-24.7293 24.5,-30.0806 4.8609,-5.3513 8.83801,-10.1396 8.83801,-10.6406 0,-3.9693 -27.80769,-0.8636 -92.5,10.3311 -26.88004,4.6514 -35.71285,5.3303 -44.588,3.4269 -5.46695,-1.1724 -11.24842,-5.5908 -12.33524,-9.4269 -0.55289,-1.9515 1.02823,-2.3063 36.7534,-8.247 58.63003,-9.7495 79.57182,-14.2263 122.64051,-26.2171 17.24871,-4.8023 26.07057,-6.3345 31.34271,-5.4438 7.69817,1.3006 34.91456,21.5466 40.69384,30.2717 8.71546,13.1579 -1.01356,17.708 -42.00722,19.6464 -15.13419,0.7156 -26.65597,2.1549 -31.72768,3.9633 l -3.77232,1.3452 3,1.0944 c 10.73048,3.9144 10.95232,6.1103 1.57144,15.5542 -5.03576,5.0696 -7.68177,8.6725 -9.08888,12.3757 l -1.98499,5.2241 3.75121,-1.5665 c 2.06317,-0.8616 7.16577,-3.5678 11.33911,-6.0139 4.17334,-2.4461 8.49726,-4.4475 9.60872,-4.4475 2.97812,0 34.17564,21.0135 41.83524,28.1787 13.40625,12.5409 13.07304,15.7476 -4.03394,38.8213 -12.10698,16.3297 -14.16985,19.6926 -26.99124,44 -13.26472,25.1479 -17.72479,32.3227 -21.02856,33.828 -2.41848,1.1019 -10.03264,1.6791 -54.97811,4.1676 -10.45,0.5785 -20.8,1.4805 -23,2.0043 -5.5922,1.3315 -11.57081,1.1671 -14.39036,-0.3956 z m 33.63771,-17.051 c 0.13604,-0.1181 -0.19917,-2.6534 -0.74491,-5.634 -0.54574,-2.9806 -3.91355,-23.6008 -7.48402,-45.8226 -3.57046,-22.2219 -6.70948,-40.6211 -6.97559,-40.8872 -0.49062,-0.4906 -26.84586,9.1172 -29.47041,10.7435 -1.15087,0.7131 0.90275,5.5036 10.59529,24.7158 15.1568,30.0431 20.5888,43.6329 20.72932,51.8603 l 0.10297,6.0292 6.5,-0.3952 c 3.575,-0.2173 6.61131,-0.4917 6.74735,-0.6098 z m 17.84042,-1.8491 c 0.0896,-0.1123 1.82349,-17.5292 3.85316,-38.7042 2.02966,-21.175 4.32418,-44.3241 5.09892,-51.4424 0.77475,-7.1184 1.28457,-13.0665 1.13294,-13.2181 -0.31136,-0.3114 -16.8106,3.8853 -23.67279,6.0213 -3.78029,1.1768 -4.47004,1.7797 -4.31265,3.77 0.10304,1.3031 2.33254,23.2245 4.95443,48.7143 l 4.76708,46.3451 4.00803,-0.6409 c 2.20441,-0.3525 4.08131,-0.7328 4.17088,-0.8451 z m 22.95038,-1.3572 c 0.93594,-0.3592 3.94668,-5.4217 6.69053,-11.25 22.07708,-46.8951 26.77132,-59.9718 26.77132,-74.5765 0,-9.9737 -1.60834,-12.8544 -8.65394,-15.5005 -3.68931,-1.3856 -9.21732,-2.3994 -14.98416,-2.748 -10.58115,-0.6397 -9.39,-1.9263 -11.78404,12.728 -1.47824,9.0485 -9.57786,84.916 -9.57786,89.7138 0,2.0717 0.46144,2.2862 4.91821,2.2862 2.70502,0 5.68399,-0.2939 6.61994,-0.653 z m -11.77469,-115.1374 c 0.19451,-0.5835 -0.13518,-2.8764 -0.73265,-5.0952 -0.95377,-3.542 -1.52358,-4.1162 -4.67067,-4.7066 -3.50845,-0.6582 -3.81833,-0.4385 -14.62877,10.3719 l -11.0444,11.0444 15.36142,-5.2768 c 8.44878,-2.9022 15.52056,-5.7542 15.71507,-6.3377 z"
         id="path4648"
         inkscape:connector-curvature="0" />
      <path
         style="fill:#bebebe"
         d="m 758.09089,-932.46279 c -25.63893,-5.60599 -46.06629,-23.51474 -54.70464,-47.95981 l -2.82363,-7.9904 -0.26474,-162.2433 c -0.29778,-182.489 -0.81005,-169.6096 7.40812,-186.2541 3.87774,-7.8537 6.17536,-10.9835 13.27554,-18.0837 7.12512,-7.1251 10.20236,-9.3801 18.08364,-13.2515 17.89513,-8.7904 7.17868,-8.1674 140.49744,-8.1674 111.13242,0 118.3783,0.1061 124.49998,1.8228 25.6801,7.2015 45.5861,26.7612 52.6803,51.7638 1.7259,6.0826 1.8197,14.7958 1.8197,168.9134 0,154.46825 -0.091,162.82127 -1.831,169 -5.7606,20.44963 -20.1593,37.58462 -39.169,46.61246 -15.4583,7.3413 -5.8318,6.8417 -135.99998,7.0582 -97.69782,0.16249 -118.06768,-0.0389 -123.47173,-1.22045 z m 234.99796,-3.50791 c 17.10875,-2.13551 29.03525,-8.01199 41.48855,-20.4423 9.2524,-9.23536 14.4678,-18.20188 17.5132,-30.10948 1.9223,-7.51589 1.972,-11.73952 1.972,-167.39052 0,-155.651 -0.05,-159.8746 -1.972,-167.3905 -5.5088,-21.5392 -21.9721,-39.17 -43.9102,-47.0242 l -8.61778,-3.0853 -117.75799,-0.27 c -130.16992,-0.2984 -123.6721,-0.5865 -138.06107,6.1204 -17.70951,8.2546 -30.01696,22.1426 -36.46639,41.1496 l -2.71455,8 0,161.5 c 0,176.62579 -0.36217,165.75219 5.97859,179.5 10.06226,21.81664 30.75201,36.67855 55.02141,39.52311 10.09934,1.18372 217.98697,1.10989 227.52623,-0.0808 z m -158.91659,-101.338 c -2.92538,-1.6214 -7.09754,-8.2893 -7.10452,-11.3543 -0.005,-1.9932 0.49709,-2.25 4.39426,-2.25 l 4.39938,0 -16.24,-33.75 c -8.93199,-18.5625 -20.42346,-41.625 -25.5366,-51.25 -14.82162,-27.9004 -15.03501,-28.3205 -14.60292,-28.7526 0.22636,-0.2263 3.77205,-0.8606 7.8793,-1.4094 6.68043,-0.8927 7.88013,-0.7875 11.37954,0.9978 4.94506,2.5227 11.2979,9.38 15.36281,16.5827 1.73251,3.0698 3.29849,5.5815 3.47994,5.5815 0.18145,0 7.45099,-2.7126 16.15454,-6.0281 8.70355,-3.3155 16.29595,-6.1913 16.872,-6.3909 0.72165,-0.2499 0.66458,-3.2733 -0.18351,-9.7219 -1.32805,-10.0981 -1.75325,-30.6622 -0.73886,-35.7341 0.34375,-1.7188 1.20375,-3.125 1.91111,-3.125 1.80685,0 6.4167,5.7241 8.47278,10.5207 2.13988,4.9922 4.99111,17.29 4.99111,21.5276 0,2.8059 1.72607,0.9106 15.66199,-17.1974 8.61409,-11.193 19.63909,-24.7293 24.5,-30.0806 4.8609,-5.3513 8.83801,-10.1396 8.83801,-10.6406 0,-3.9693 -27.80769,-0.8636 -92.5,10.3311 -26.88004,4.6514 -35.71285,5.3303 -44.588,3.4269 -5.46695,-1.1724 -11.24842,-5.5908 -12.33524,-9.4269 -0.55289,-1.9515 1.02823,-2.3063 36.7534,-8.247 58.63003,-9.7495 79.57182,-14.2263 122.64051,-26.2171 17.24871,-4.8023 26.07057,-6.3345 31.34271,-5.4438 7.69817,1.3006 34.91456,21.5466 40.69384,30.2717 8.71546,13.1579 -1.01356,17.708 -42.00722,19.6464 -15.13419,0.7156 -26.65597,2.1549 -31.72768,3.9633 l -3.77232,1.3452 3,1.0944 c 10.73048,3.9144 10.95232,6.1103 1.57144,15.5542 -5.03576,5.0696 -7.68177,8.6725 -9.08888,12.3757 l -1.98499,5.2241 3.75121,-1.5665 c 2.06317,-0.8616 7.16577,-3.5678 11.33911,-6.0139 4.17334,-2.4461 8.49726,-4.4475 9.60872,-4.4475 2.97812,0 34.17564,21.0135 41.83524,28.1787 13.40625,12.5409 13.07304,15.7476 -4.03394,38.8213 -12.10698,16.3297 -14.16985,19.6926 -26.99124,44 -13.26472,25.1479 -17.72479,32.3227 -21.02856,33.828 -2.41848,1.1019 -10.03264,1.6791 -54.97811,4.1676 -10.45,0.5785 -20.8,1.4805 -23,2.0043 -5.5922,1.3315 -11.57081,1.1671 -14.39036,-0.3956 z m 33.63771,-17.051 c 0.13604,-0.1181 -0.19917,-2.6534 -0.74491,-5.634 -0.54574,-2.9806 -3.91355,-23.6008 -7.48402,-45.8226 -3.57046,-22.2219 -6.70948,-40.6211 -6.97559,-40.8872 -0.49062,-0.4906 -26.84586,9.1172 -29.47041,10.7435 -1.15087,0.7131 0.90275,5.5036 10.59529,24.7158 15.1568,30.0431 20.5888,43.6329 20.72932,51.8603 l 0.10297,6.0292 6.5,-0.3952 c 3.575,-0.2173 6.61131,-0.4917 6.74735,-0.6098 z m 17.84042,-1.8491 c 0.0896,-0.1123 1.82349,-17.5292 3.85316,-38.7042 2.02966,-21.175 4.32418,-44.3241 5.09892,-51.4424 0.77475,-7.1184 1.28457,-13.0665 1.13294,-13.2181 -0.31136,-0.3114 -16.8106,3.8853 -23.67279,6.0213 -3.78029,1.1768 -4.47004,1.7797 -4.31265,3.77 0.10304,1.3031 2.33254,23.2245 4.95443,48.7143 l 4.76708,46.3451 4.00803,-0.6409 c 2.20441,-0.3525 4.08131,-0.7328 4.17088,-0.8451 z m 22.95038,-1.3572 c 0.93594,-0.3592 3.94668,-5.4217 6.69053,-11.25 22.07708,-46.8951 26.77132,-59.9718 26.77132,-74.5765 0,-9.9737 -1.60834,-12.8544 -8.65394,-15.5005 -3.68931,-1.3856 -9.21732,-2.3994 -14.98416,-2.748 -10.58115,-0.6397 -9.39,-1.9263 -11.78404,12.728 -1.47824,9.0485 -9.57786,84.916 -9.57786,89.7138 0,2.0717 0.46144,2.2862 4.91821,2.2862 2.70502,0 5.68399,-0.2939 6.61994,-0.653 z m -11.77469,-115.1374 c 0.19451,-0.5835 -0.13518,-2.8764 -0.73265,-5.0952 -0.95377,-3.542 -1.52358,-4.1162 -4.67067,-4.7066 -3.50845,-0.6582 -3.81833,-0.4385 -14.62877,10.3719 l -11.0444,11.0444 15.36142,-5.2768 c 8.44878,-2.9022 15.52056,-5.7542 15.71507,-6.3377 z"
         id="path4646"
         inkscape:connector-curvature="0" />
      <path
         style="fill:#7f7f7f"
         d="m 758.09089,-932.46279 c -25.63893,-5.60599 -46.06629,-23.51474 -54.70464,-47.95981 l -2.82363,-7.9904 -0.26474,-162.2433 c -0.29778,-182.489 -0.81005,-169.6096 7.40812,-186.2541 3.87774,-7.8537 6.17536,-10.9835 13.27554,-18.0837 7.12512,-7.1251 10.20236,-9.3801 18.08364,-13.2515 17.89513,-8.7904 7.17868,-8.1674 140.49744,-8.1674 111.13242,0 118.3783,0.1061 124.49998,1.8228 25.6801,7.2015 45.5861,26.7612 52.6803,51.7638 1.7259,6.0826 1.8197,14.7958 1.8197,168.9134 0,154.46825 -0.091,162.82127 -1.831,169 -5.7606,20.44963 -20.1593,37.58462 -39.169,46.61246 -15.4583,7.3413 -5.8318,6.8417 -135.99998,7.0582 -97.69782,0.16249 -118.06768,-0.0389 -123.47173,-1.22045 z m 245.81041,-5.25939 c 23.6877,-7.25276 39.9777,-22.63494 47.3284,-44.69082 l 2.3329,-7 0,-165 0,-165 -3.1016,-8.0348 c -6.988,-18.1027 -18.1392,-30.2189 -35.0793,-38.1148 -14.3916,-6.7081 -7.8386,-6.4187 -138.56075,-6.1203 l -118.25833,0.2699 -7.9904,2.8236 c -25.34178,8.9553 -42.14727,29.1994 -45.49892,54.8087 -0.76492,5.8446 -1.00338,55.7073 -0.79083,165.3677 0.34044,175.63893 -0.30784,160.49022 7.55322,176.5 4.34081,8.84045 16.34016,21.51484 25.39233,26.82079 7.41898,4.34865 17.9033,7.9401 26.45834,9.06341 3.81242,0.50058 57.22541,0.82506 119.87626,0.72823 l 113,-0.17465 7.33868,-2.24696 z M 832.65847,-1038.963 c -3.49277,-3.0667 -6.28078,-9.0327 -5.10793,-10.9305 0.34656,-0.5607 2.37225,-1.0195 4.50152,-1.0195 l 3.87141,0 -5.0483,-10.75 c -10.98541,-23.3927 -33.01172,-67.6924 -42.13269,-84.738 -10.99002,-20.5387 -11.07074,-19.3644 1.3599,-19.7842 6.13075,-0.207 7.14282,0.055 11.10294,2.8807 3.67173,2.6195 11.44874,12.1685 15.41785,18.931 0.98558,1.6792 2.25809,1.3405 18,-4.7905 9.3167,-3.6286 16.86776,-6.969 16.78014,-7.4232 -2.15038,-11.1468 -2.95173,-45.0481 -1.10841,-46.8914 1.3139,-1.3139 5.29996,2.29 7.95187,7.1896 3.13608,5.794 5.55636,13.7861 6.57545,21.713 l 0.7404,5.7592 15.2115,-19.7981 c 8.36632,-10.889 19.07594,-24.0315 23.79915,-29.2057 11.32068,-12.4015 11.46343,-12.6984 6.43046,-13.3735 -8.82942,-1.1843 -35.20761,2.2003 -81.94111,10.5137 -34.13293,6.072 -48.09923,6.8384 -56.22333,3.0854 -4.63019,-2.1389 -9.54355,-7.9616 -8.00225,-9.4831 0.39907,-0.394 11.07558,-2.3561 23.72558,-4.3603 51.46547,-8.1537 90.663,-15.9853 117.59581,-23.4956 30.71493,-8.5649 37.48802,-10.1308 44.56777,-10.3039 l 7.16359,-0.1751 11.83641,8 c 13.35414,9.0258 27.79195,22.4825 28.91271,26.9479 1.13021,4.5032 -1.27297,7.7046 -7.70712,10.2671 -5.80624,2.3124 -14.40353,3.3351 -44.36917,5.2776 -13.9661,0.9053 -25.60749,2.7815 -27.21153,4.3856 -0.27755,0.2775 1.21503,1.2232 3.31685,2.1014 4.58923,1.9175 7.39468,4.3039 7.39468,6.2902 0,0.8029 -3.32862,4.8957 -7.39692,9.095 -5.09629,5.2605 -7.86609,9.0348 -8.90537,12.1352 -0.82965,2.475 -1.39512,4.6184 -1.25662,4.7631 0.49581,0.5181 7.19521,-2.6723 15.05891,-7.1713 4.4,-2.5173 8.65974,-4.5803 9.46608,-4.5844 2.79352,-0.014 36.3295,23.2701 43.11327,29.9338 10.91361,10.7205 10.54827,15.1955 -2.65842,32.5622 -12.16505,15.9969 -16.91354,23.4283 -26.02365,40.7271 -15.21629,28.8936 -18.83128,35.1294 -22.53199,38.8675 -4.2128,4.2553 -1.6736,3.92 -48.86529,6.4528 -15.125,0.8117 -29.525,1.9003 -32,2.419 -8.29427,1.7383 -11.62066,1.3022 -15.40415,-2.0198 z m 35.10408,-15.3656 c 0.10996,-0.083 -0.67466,-5.536 -1.74361,-12.1177 -1.06895,-6.5817 -4.39049,-27.1983 -7.38121,-45.8146 -2.99071,-18.6164 -5.66343,-34.0738 -5.93938,-34.3497 -0.27595,-0.276 -2.21938,0.049 -4.31873,0.7214 -3.6099,1.1567 -26.55804,9.9838 -27.04531,10.403 -0.12557,0.1081 3.39888,7.1437 7.8321,15.6348 17.29851,33.1324 26.56314,55.9294 25.61186,63.0217 l -0.49204,3.6684 6.6382,-0.5081 c 3.651,-0.2796 6.72816,-0.5762 6.83812,-0.6592 z m 17.91474,-1.8802 c 0.10436,-0.1123 1.83392,-17.5292 3.84345,-38.7042 2.00954,-21.175 4.31526,-44.3008 5.12381,-51.3907 0.80856,-7.0898 1.29926,-13.0615 1.09044,-13.2703 -0.43462,-0.4346 -21.74825,4.9639 -25.969,6.5777 -2.46598,0.9428 -2.73127,1.4543 -2.24384,4.3263 0.69429,4.0907 9.54047,89.4792 9.54047,92.0901 0,1.699 0.48969,1.8442 4.21246,1.2489 2.31685,-0.3705 4.29784,-0.7655 4.40221,-0.8778 z m 23.6864,-1.9542 c 1.96711,-1.4607 18.33601,-35.9783 25.11548,-52.9618 2.57131,-6.4415 5.36513,-14.9915 6.20847,-19 2.0229,-9.6151 1.55749,-22.8258 -0.89977,-25.54 -2.67675,-2.9567 -11.15982,-5.323 -21.36335,-5.959 -10.62035,-0.6621 -9.49444,-1.8858 -11.84778,12.8763 -1.5395,9.6569 -9.51412,84.5073 -9.51412,89.3002 0,2.3942 0.29357,2.5343 5.30887,2.5343 2.91988,0 6.06637,-0.5625 6.9922,-1.25 z m -13.01384,-117.9014 c -0.24404,-4.9558 -2.10852,-6.8486 -6.74623,-6.8486 -2.57147,0 -4.75707,1.6861 -13.30887,10.2671 -5.62767,5.6469 -10.23213,10.5665 -10.23213,10.9326 0,0.366 6.8625,-1.741 15.25,-4.6823 l 15.25,-5.3479 -0.21277,-4.3209 z"
         id="path4644"
         inkscape:connector-curvature="0" />
      <path
         style="fill:#404040"
         d="m 763.55957,-931.97346 c -23.23525,-2.77792 -45.62686,-18.1534 -55.34699,-38.00472 -8.29306,-16.93682 -7.58888,-1.09229 -7.93019,-178.43482 -0.21181,-110.0586 0.0271,-160.5306 0.78732,-166.3402 2.11936,-16.1956 8.18588,-28.3666 20.01715,-40.1598 8.65946,-8.6316 17.10388,-13.9029 28.47576,-17.7756 l 8,-2.7244 119,-0.2821 c 134.04308,-0.3177 126.35998,-0.713 142.31228,7.3223 15.1588,7.6355 25.2826,17.6985 32.1531,31.9598 7.4861,15.5388 7.0366,3.8378 7.0173,182.6974 -0.019,178.27421 0.3988,167.25381 -6.9117,182.17425 -9.2654,18.9103 -25.1884,31.77447 -46.9532,37.93349 -7.58138,2.14538 -8.1577,2.15643 -120.61778,2.31367 -62.15,0.0869 -116.15137,-0.21878 -120.00305,-0.67927 z m 243.00303,-6.26311 c 19.9821,-7.05257 34.3164,-19.84632 42.3857,-37.8301 5.9241,-13.20309 5.6143,-3.36225 5.6143,-178.34633 l 0,-161 -2.347,-7.4748 c -6.07,-19.3312 -18.0038,-33.4912 -35.7039,-42.3641 -15.2434,-7.6414 -5.9905,-7.1611 -137.94908,-7.1611 l -118,0 -7.66665,2.6173 c -12.20397,4.1663 -20.47554,9.3197 -29.34811,18.2846 -9.24909,9.3453 -14.48918,18.3836 -17.51324,30.2076 -1.92224,7.5159 -1.972,11.7395 -1.972,167.3905 0,155.651 0.0498,159.87463 1.972,167.39052 3.10607,12.14461 8.21437,20.8449 18.04831,30.73925 7.22526,7.26965 10.06668,9.3494 18.02838,13.19571 16.4602,7.95193 8.96979,7.55827 139.95131,7.35517 l 116.5,-0.18065 7.99998,-2.82357 z m -171.23029,-99.15903 c -3.56103,-1.5481 -7.26013,-6.7692 -7.26595,-10.2556 -0.003,-1.8388 0.7099,-2.3523 3.99626,-2.8778 2.2,-0.3518 4,-0.7268 4,-0.8334 0,-1.0175 -35.20887,-72.919 -40.1787,-82.0506 -9.987,-18.3502 -16.11692,-30.5377 -15.61295,-31.0417 0.25047,-0.2505 3.87135,-0.7441 8.04641,-1.0971 6.94834,-0.5873 7.95734,-0.4269 11.91812,1.8947 4.9317,2.8908 9.12355,7.7558 13.75767,15.967 l 3.21029,5.6884 4.67958,-1.8854 c 2.57377,-1.037 10.45569,-4.0545 17.51538,-6.7056 l 12.83579,-4.8203 -0.56714,-3.5 c -2.60264,-16.0618 -2.98438,-43.0291 -0.62969,-44.4844 1.55066,-0.9584 7.04177,5.912 9.12969,11.4229 1.15891,3.0588 2.77588,9.3865 3.59326,14.0615 0.81738,4.675 1.59818,8.6159 1.73511,8.7576 0.13693,0.1416 7.33343,-8.9658 15.99222,-20.2388 8.65879,-11.273 18.94393,-23.9889 22.85588,-28.2576 11.91125,-12.9974 11.3616,-12.2433 9.69288,-13.2986 -4.57873,-2.8955 -28.71303,-0.051 -89.96296,10.6035 -28.44853,4.9487 -41.91453,5.7083 -50.33456,2.8393 -4.83543,-1.6476 -8.96869,-5.6705 -8.46432,-8.2382 0.21976,-1.1188 9.1966,-2.9527 37.86858,-7.736 48.93859,-8.1643 77.77861,-14.0656 102.41946,-20.9571 43.02036,-12.0319 48.41178,-12.7057 57.56428,-7.1943 14.71462,8.8607 30.79674,22.5673 34.11881,29.0791 3.44719,6.757 1.02924,10.1384 -9.29321,12.996 -6.5918,1.8249 -11.25601,2.3175 -34.88988,3.6848 -19.49376,1.1278 -31.4844,3.0161 -33.78949,5.3212 -1.17861,1.1786 -0.86683,1.481 2.10132,2.0378 5.06574,0.9504 8.92427,4.26 8.10469,6.9518 -0.35996,1.1822 -3.90856,5.5245 -7.88579,9.6495 -6.53885,6.7818 -10.80747,14.0566 -9.19444,15.6696 0.71711,0.7171 9.96962,-3.5993 16.10949,-7.5152 7.70291,-4.9129 9.13555,-4.5401 26.13349,6.7994 25.88261,17.2665 32.98738,24.2129 32.78186,32.051 -0.13688,5.2199 -2.76432,9.9579 -13.20275,23.8083 -11.05779,14.6721 -14.12985,19.5163 -22.63176,35.6869 -20.00859,38.0563 -21.89811,40.9921 -27.30367,42.4228 -2.04762,0.5419 -18.12295,1.6991 -35.72295,2.5715 -17.6,0.8724 -35.825,2.2416 -40.5,3.0427 -10.02349,1.7177 -8.72951,1.7197 -12.73031,-0.02 z m 32.57292,-17.0267 c 0.32769,-0.3277 -4.4756,-31.3394 -13.70598,-88.4907 -0.60279,-3.7323 -1.06031,-4.4414 -2.68171,-4.1567 -2.24771,0.3947 -27.34397,9.8354 -29.16686,10.972 -0.86228,0.5377 2.60837,8.3908 12.02979,27.2202 14.56104,29.1013 19.71279,42.4037 19.69408,50.8526 l -0.0119,5.3881 6.71672,-0.6882 c 3.6942,-0.3784 6.90085,-0.8722 7.12589,-1.0973 z m 18.58423,-5.2407 c 0.51449,-3.9768 2.31375,-22.2485 9.27028,-94.1409 l 0.6184,-6.3909 -3.90776,0.6823 c -9.30665,1.6248 -25.40776,6.8923 -25.40776,8.3121 0,2.1426 8.9194,88.1448 9.59717,92.5374 0.56552,3.6651 0.67643,3.75 4.89689,3.75 l 4.31826,0 0.61452,-4.75 z m 23.75641,1.8712 c 1.08065,-0.9825 21.1805,-44.6564 25.15813,-54.6646 5.15448,-12.9694 6.96256,-20.7719 7.06695,-30.4963 0.11051,-10.2946 -1.3403,-13.1506 -8.24267,-16.2265 -3.44528,-1.5354 -7.43808,-2.1968 -15.26498,-2.5287 l -10.59932,-0.4496 -0.66042,3.8723 c -2.34165,13.7299 -4.12478,28.3548 -7.59699,62.3094 -2.16184,21.1404 -3.71018,38.7938 -3.44075,39.2298 0.53842,0.8712 12.48342,-0.049 13.58005,-1.0458 z m -27.44147,-108.7307 14.24178,-4.8905 0.008,-3.5275 c 0.0109,-4.6852 -2.21156,-7.6282 -6.21637,-8.2315 -3.04898,-0.4594 -4.01856,0.2371 -14.02541,10.0751 -9.98704,9.8186 -12.58634,13.0831 -9.5,11.9314 0.6875,-0.2565 7.6588,-2.6672 15.49178,-5.357 z"
         id="path4642"
         inkscape:connector-curvature="0" />
      <path
         style="fill:#3f3f3f"
         d="m 763.72314,-932.02477 c -29.42951,-3.86761 -53.32542,-24.47454 -61.32949,-52.88823 -1.74053,-6.17873 -1.83103,-14.53175 -1.83103,-169 0,-154.1288 0.0938,-162.8305 1.82007,-168.9147 5.71297,-20.1352 18.94226,-36.0508 37.86764,-45.5572 15.96712,-8.0205 8.35155,-7.6279 141.81229,-7.3102 l 118.49998,0.2821 8,2.7244 c 11.558,3.9361 19.8917,9.1773 29.093,18.2973 6.6211,6.5626 8.9446,9.7459 12.7732,17.5 8.207,16.6222 7.6963,3.7672 7.3986,186.235 l -0.2648,162.2433 -2.8236,7.9904 c -8.2741,23.41435 -26.3893,39.92283 -51.6764,47.09305 -6.12388,1.73645 -13.03836,1.85352 -119.49998,2.02336 -62.32169,0.0994 -116.06738,-0.22285 -119.83948,-0.71858 z m 242.83946,-6.2118 c 19.9821,-7.05257 34.3164,-19.84632 42.3857,-37.8301 5.9241,-13.20309 5.6143,-3.36225 5.6143,-178.34633 l 0,-161 -2.347,-7.4748 c -6.07,-19.3312 -18.0038,-33.4912 -35.7039,-42.3641 -15.2434,-7.6414 -5.9905,-7.1611 -137.94908,-7.1611 l -118,0 -7.66665,2.6173 c -12.20397,4.1663 -20.47554,9.3197 -29.34811,18.2846 -9.24909,9.3453 -14.48918,18.3836 -17.51324,30.2076 -1.92224,7.5159 -1.972,11.7395 -1.972,167.3905 0,155.651 0.0498,159.87463 1.972,167.39052 3.10607,12.14461 8.21437,20.8449 18.04831,30.73925 7.22526,7.26965 10.06668,9.3494 18.02838,13.19571 16.4602,7.95193 8.96979,7.55827 139.95131,7.35517 l 116.5,-0.18065 7.99998,-2.82357 z m -171.23029,-99.15903 c -3.56103,-1.5481 -7.26013,-6.7692 -7.26595,-10.2556 -0.003,-1.8388 0.7099,-2.3523 3.99626,-2.8778 2.2,-0.3518 4,-0.7268 4,-0.8334 0,-1.0175 -35.20887,-72.919 -40.1787,-82.0506 -9.987,-18.3502 -16.11692,-30.5377 -15.61295,-31.0417 0.25047,-0.2505 3.87135,-0.7441 8.04641,-1.0971 6.94834,-0.5873 7.95734,-0.4269 11.91812,1.8947 4.9317,2.8908 9.12355,7.7558 13.75767,15.967 l 3.21029,5.6884 4.67958,-1.8854 c 2.57377,-1.037 10.45569,-4.0545 17.51538,-6.7056 l 12.83579,-4.8203 -0.56714,-3.5 c -2.60264,-16.0618 -2.98438,-43.0291 -0.62969,-44.4844 1.55066,-0.9584 7.04177,5.912 9.12969,11.4229 1.15891,3.0588 2.77588,9.3865 3.59326,14.0615 0.81738,4.675 1.59818,8.6159 1.73511,8.7576 0.13693,0.1416 7.33343,-8.9658 15.99222,-20.2388 8.65879,-11.273 18.94393,-23.9889 22.85588,-28.2576 11.91125,-12.9974 11.3616,-12.2433 9.69288,-13.2986 -4.57873,-2.8955 -28.71303,-0.051 -89.96296,10.6035 -28.44853,4.9487 -41.91453,5.7083 -50.33456,2.8393 -4.83543,-1.6476 -8.96869,-5.6705 -8.46432,-8.2382 0.21976,-1.1188 9.1966,-2.9527 37.86858,-7.736 48.93859,-8.1643 77.77861,-14.0656 102.41946,-20.9571 43.02036,-12.0319 48.41178,-12.7057 57.56428,-7.1943 14.71462,8.8607 30.79674,22.5673 34.11881,29.0791 3.44719,6.757 1.02924,10.1384 -9.29321,12.996 -6.5918,1.8249 -11.25601,2.3175 -34.88988,3.6848 -19.49376,1.1278 -31.4844,3.0161 -33.78949,5.3212 -1.17861,1.1786 -0.86683,1.481 2.10132,2.0378 5.06574,0.9504 8.92427,4.26 8.10469,6.9518 -0.35996,1.1822 -3.90856,5.5245 -7.88579,9.6495 -6.53885,6.7818 -10.80747,14.0566 -9.19444,15.6696 0.71711,0.7171 9.96962,-3.5993 16.10949,-7.5152 7.70291,-4.9129 9.13555,-4.5401 26.13349,6.7994 25.88261,17.2665 32.98738,24.2129 32.78186,32.051 -0.13688,5.2199 -2.76432,9.9579 -13.20275,23.8083 -11.05779,14.6721 -14.12985,19.5163 -22.63176,35.6869 -20.00859,38.0563 -21.89811,40.9921 -27.30367,42.4228 -2.04762,0.5419 -18.12295,1.6991 -35.72295,2.5715 -17.6,0.8724 -35.825,2.2416 -40.5,3.0427 -10.02349,1.7177 -8.72951,1.7197 -12.73031,-0.02 z m 32.57292,-17.0267 c 0.32769,-0.3277 -4.4756,-31.3394 -13.70598,-88.4907 -0.60279,-3.7323 -1.06031,-4.4414 -2.68171,-4.1567 -2.24771,0.3947 -27.34397,9.8354 -29.16686,10.972 -0.86228,0.5377 2.60837,8.3908 12.02979,27.2202 14.56104,29.1013 19.71279,42.4037 19.69408,50.8526 l -0.0119,5.3881 6.71672,-0.6882 c 3.6942,-0.3784 6.90085,-0.8722 7.12589,-1.0973 z m 18.58423,-5.2407 c 0.51449,-3.9768 2.31375,-22.2485 9.27028,-94.1409 l 0.6184,-6.3909 -3.90776,0.6823 c -9.30665,1.6248 -25.40776,6.8923 -25.40776,8.3121 0,2.1426 8.9194,88.1448 9.59717,92.5374 0.56552,3.6651 0.67643,3.75 4.89689,3.75 l 4.31826,0 0.61452,-4.75 z m 23.75641,1.8712 c 1.08065,-0.9825 21.1805,-44.6564 25.15813,-54.6646 5.15448,-12.9694 6.96256,-20.7719 7.06695,-30.4963 0.11051,-10.2946 -1.3403,-13.1506 -8.24267,-16.2265 -3.44528,-1.5354 -7.43808,-2.1968 -15.26498,-2.5287 l -10.59932,-0.4496 -0.66042,3.8723 c -2.34165,13.7299 -4.12478,28.3548 -7.59699,62.3094 -2.16184,21.1404 -3.71018,38.7938 -3.44075,39.2298 0.53842,0.8712 12.48342,-0.049 13.58005,-1.0458 z m -27.44147,-108.7307 14.24178,-4.8905 0.008,-3.5275 c 0.0109,-4.6852 -2.21156,-7.6282 -6.21637,-8.2315 -3.04898,-0.4594 -4.01856,0.2371 -14.02541,10.0751 -9.98704,9.8186 -12.58634,13.0831 -9.5,11.9314 0.6875,-0.2565 7.6588,-2.6672 15.49178,-5.357 z"
         id="path4640"
         inkscape:connector-curvature="0" />
      <path
         style="fill:#000000"
         d="m 763.72314,-932.02477 c -29.42951,-3.86761 -53.32542,-24.47454 -61.32949,-52.88823 -1.74053,-6.17873 -1.83103,-14.53175 -1.83103,-169 0,-154.1288 0.0938,-162.8305 1.82007,-168.9147 5.71297,-20.1352 18.94226,-36.0508 37.86764,-45.5572 15.96712,-8.0205 8.35155,-7.6279 141.81229,-7.3102 l 118.49998,0.2821 8,2.7244 c 11.558,3.9361 19.8917,9.1773 29.093,18.2973 6.6211,6.5626 8.9446,9.7459 12.7732,17.5 8.207,16.6222 7.6963,3.7672 7.3986,186.235 l -0.2648,162.2433 -2.8236,7.9904 c -8.2741,23.41435 -26.3893,39.92283 -51.6764,47.09305 -6.12388,1.73645 -13.03836,1.85352 -119.49998,2.02336 -62.32169,0.0994 -116.06738,-0.22285 -119.83948,-0.71858 z m 236.13164,-4.44846 c 28.14432,-5.69702 50.24422,-28.89749 54.12852,-56.82408 1.5045,-10.81739 1.5045,-310.41399 0,-321.23139 -3.582,-25.7535 -21.2717,-46.2261 -47.754,-55.267 l -7.66668,-2.6173 -115.5,-0.284 c -102.78275,-0.2528 -116.37507,-0.1074 -123.44756,1.3204 -24.65996,4.9785 -42.85271,20.3444 -51.92427,43.856 l -3.12817,8.1076 0,165 0,165 2.31727,7 c 6.34963,19.18088 21.34234,35.04482 40.18273,42.51775 12.34027,4.8947 10.29205,4.81821 131.29216,4.90275 99.35554,0.0694 114.77004,-0.11844 121.5,-1.48073 z M 835.31885,-1037.5577 c -3.5557,-1.7529 -7.25623,-6.9217 -7.25623,-10.1354 0,-1.6055 0.85833,-2.1891 4,-2.7199 2.2,-0.3717 4,-0.8049 4,-0.9627 0,-2.0046 -31.71341,-66.3938 -45.72768,-92.843 -5.77181,-10.8932 -10.29492,-20.005 -10.05138,-20.2486 0.24355,-0.2435 3.85172,-0.7309 8.01817,-1.0831 6.7186,-0.568 7.97841,-0.3913 11.13918,1.5622 4.58039,2.8308 10.82871,9.9457 14.74385,16.7887 1.69467,2.9619 3.40353,5.2506 3.79746,5.0859 0.39394,-0.1647 8.27041,-3.2136 17.50327,-6.7754 l 16.78701,-6.4761 -0.58543,-4.2712 c -2.81307,-20.5236 -3.03859,-41.2847 -0.46573,-42.8748 3.05599,-1.8887 9.85105,10.4719 11.87324,21.5981 2.64339,14.544 0.55127,15.3524 17.45649,-6.7449 8.24365,-10.7755 19.38115,-24.4877 24.75,-30.4717 5.36885,-5.984 9.76155,-11.2601 9.76155,-11.7247 0,-4.3306 -25.95942,-1.8519 -80,7.6387 -36.46274,6.4036 -52.97862,7.7282 -60.50802,4.8527 -4.49007,-1.7148 -9.87446,-6.9027 -9.21559,-8.8793 0.19752,-0.5925 5.72864,-1.9064 12.29137,-2.9197 64.97355,-10.0319 103.20143,-17.975 148.43224,-30.8417 11.76075,-3.3456 16.22584,-4.1517 23.6356,-4.2671 l 9.13561,-0.1423 8.84871,6 c 11.12891,7.5461 24.18237,18.298 27.14934,22.3625 3.81356,5.2241 4.51127,8.0604 2.67297,10.866 -3.61559,5.5181 -13.26371,7.5653 -43.62605,9.2571 -10.2761,0.5726 -21.0761,1.4911 -24,2.0413 -6.66193,1.2533 -11.81618,2.9179 -11.81618,3.8159 0,0.3783 2.24268,1.4843 4.98373,2.4578 8.32951,2.9584 8.3,4.4784 -0.26146,13.4663 -6.85545,7.1969 -12.09335,16.1953 -10.40813,17.8806 0.86889,0.8689 7.11903,-1.8305 15.16999,-6.5518 3.84127,-2.2526 8.04,-4.0957 9.33052,-4.0957 3.00457,0 32.73521,19.7726 40.41915,26.8811 7.95808,7.3621 10.01077,10.4811 9.94683,15.114 -0.0722,5.2347 -1.83658,8.3736 -13.21164,23.5049 -11.05258,14.7023 -15.0815,21.2794 -26.95312,44 -15.48178,29.6299 -17.97829,33.1838 -24.51587,34.899 -1.1,0.2886 -16.4,1.235 -34,2.1031 -17.6,0.8681 -35.825,2.2338 -40.5,3.0349 -10.17048,1.7429 -8.80029,1.7624 -12.74377,-0.1817 z m 32.54125,-16.8194 c 0.28204,-0.2821 -2.71739,-20.6555 -6.6654,-45.2744 -3.94802,-24.6188 -7.16783,-45.549 -7.15515,-46.5115 0.0127,-0.9625 -0.39318,-1.75 -0.90194,-1.75 -0.50875,0 -6.69625,2.1982 -13.75,4.8849 -18.27219,6.9596 -18.32499,6.9823 -18.32499,7.874 0,0.4447 3.42312,7.3183 7.60693,15.2748 16.95573,32.2452 25.39307,52.8583 25.39307,62.0372 l 0,5.2183 6.64233,-0.6203 c 3.65329,-0.3411 6.8731,-0.851 7.15515,-1.133 z m 18.66084,-4.7859 c 0.31947,-2.3375 2.16068,-20.9 4.09158,-41.25 1.93089,-20.35 3.94338,-40.825 4.4722,-45.5 0.52882,-4.675 0.96518,-9.795 0.9697,-11.3778 0.008,-2.7733 -0.12982,-2.8558 -3.79363,-2.2699 -4.41758,0.7064 -24.18316,6.2994 -24.9413,7.0575 -0.46108,0.4611 8.01925,86.4425 9.30475,94.3402 0.50349,3.0932 0.74093,3.25 4.92242,3.25 l 4.39341,0 0.58087,-4.25 z m 21.56462,2.25 c 1.74601,0 2.93516,-0.6364 3.27002,-1.75 0.28943,-0.9625 4.8183,-10.8424 10.06416,-21.9552 19.56505,-41.4467 24.81328,-60.3307 20.06513,-72.1975 -1.65403,-4.1339 -4.32845,-5.9276 -11.92225,-7.9964 -3.90365,-1.0635 -21.5,-1.5731 -21.5,-0.6226 0,0.263 -0.88532,6.0005 -1.96738,12.75 -1.08205,6.7494 -3.56699,28.2467 -5.52208,47.7717 -1.95509,19.525 -3.83708,37.7079 -4.18221,40.4064 l -0.62749,4.9064 4.78915,-0.6564 c 2.63403,-0.361 6.02386,-0.6564 7.53295,-0.6564 z m -26.07511,-109.113 15.05217,-5.113 0,-3.8052 c 0,-5.6308 -0.78705,-6.8344 -5.25636,-8.0378 l -4.05071,-1.0908 -10.84647,10.8129 c -9.62925,9.5993 -11.94324,12.3469 -10.39863,12.3469 0.24631,0 7.22131,-2.3008 15.5,-5.113 z"
         id="path4638"
         inkscape:connector-curvature="0" />
    </g>
  </g>
</svg>
