<?xml version="1.0" encoding="UTF-8" standalone="no"?>
<!-- Created with Inkscape (http://www.inkscape.org/) -->

<svg
   xmlns:dc="http://purl.org/dc/elements/1.1/"
   xmlns:cc="http://creativecommons.org/ns#"
   xmlns:rdf="http://www.w3.org/1999/02/22-rdf-syntax-ns#"
   xmlns:svg="http://www.w3.org/2000/svg"
   xmlns="http://www.w3.org/2000/svg"
   xmlns:sodipodi="http://sodipodi.sourceforge.net/DTD/sodipodi-0.dtd"
   xmlns:inkscape="http://www.inkscape.org/namespaces/inkscape"
   width="358.91638"
   height="445.72388"
   id="svg2"
   version="1.1"
   inkscape:version="0.91 r13725"
   sodipodi:docname="windnorth.svg">
  <defs
     id="defs4" />
  <sodipodi:namedview
     id="base"
     pagecolor="#ffffff"
     bordercolor="#666666"
     borderopacity="1.0"
     inkscape:pageopacity="0.0"
     inkscape:pageshadow="2"
     inkscape:zoom="0.66267524"
     inkscape:cx="-468.35827"
     inkscape:cy="95.239431"
     inkscape:document-units="px"
     inkscape:current-layer="layer1"
     showgrid="false"
     fit-margin-top="0"
     fit-margin-left="0"
     fit-margin-right="0"
     fit-margin-bottom="0"
     inkscape:window-width="1920"
     inkscape:window-height="1018"
     inkscape:window-x="0"
     inkscape:window-y="27"
     inkscape:window-maximized="1" />
  <metadata
     id="metadata7">
    <rdf:RDF>
      <cc:Work
         rdf:about="">
        <dc:format>image/svg+xml</dc:format>
        <dc:type
           rdf:resource="http://purl.org/dc/dcmitype/StillImage" />
        <dc:title></dc:title>
      </cc:Work>
    </rdf:RDF>
  </metadata>
  <g
     inkscape:label="Layer 1"
     inkscape:groupmode="layer"
     id="layer1"
     transform="translate(-1354.0472,1066.1951)">
    <g
       id="g4682"
       transform="translate(704.71925,400.62516)">
      <path
         style="fill:#bfbfbf"
         d="m 707.3335,-1022.3679 c -24.01911,-5.2207 -43.58657,-21.2387 -52.88018,-43.2876 -5.23963,-12.431 -5.11982,-8.2585 -5.11982,-178.2948 0,-177.7337 -0.48318,-166.1201 7.60032,-182.6777 8.25168,-16.9021 23.15294,-29.7366 42.17259,-36.3235 l 9.72709,-3.3687 119,0 c 98.43043,0 119.93831,0.2407 124.42835,1.3925 29.31297,7.5196 50.66025,30.0641 55.02185,58.1075 0.8625,5.5454 1.0861,49.3292 0.8581,168 l -0.3083,160.5 -2.82,8 c -6.59451,18.7078 -19.08568,33.014 -36.18,41.4371 -16.37484,8.0686 -5.78803,7.4747 -137.5,7.7143 -98.08001,0.1784 -118.5743,-0.02 -124,-1.1991 z m 245.30048,-5.1942 c 19.56458,-5.5231 35.73112,-18.6004 44.09197,-35.6664 7.06525,-14.4215 6.60915,-1.9525 6.59275,-180.236 -0.016,-178.5153 0.4219,-166.7182 -6.73846,-181.3557 -5.41991,-11.0795 -18.67451,-24.1033 -30.24674,-29.7202 -16.0962,-7.8126 -8.08311,-7.409 -140.5,-7.0763 l -118,0.2965 -7.30955,2.7107 c -10.34361,3.8358 -17.41512,8.1325 -24.8848,15.12 -7.21126,6.7458 -10.99954,11.8316 -15.36122,20.6226 -6.22381,12.5442 -5.91487,3.1922 -5.91487,179.0467 0,178.1542 -0.43806,166.3787 6.73349,181 5.53122,11.277 18.79355,24.3489 30.23695,29.8028 9.34393,4.4533 14.18407,5.9359 23.38806,7.1644 3.36156,0.4487 56.51194,0.7431 118.11194,0.6544 l 112,-0.1614 7.80048,-2.2021 z m -241.5932,-109.8705 c -6.0867,-1.8707 -12.71665,-8.2145 -12.68532,-12.1376 0.0324,-4.0531 2.94772,-9.7042 9.93095,-19.25 11.82683,-16.1669 19.35251,-28.2509 23.57583,-37.8559 3.98349,-9.0596 14.47126,-37.2747 14.47126,-38.9318 0,-0.4163 -3.26885,-3.4848 -7.2641,-6.8189 -8.27355,-6.9044 -14.30006,-15.0862 -15.31963,-20.7984 l -0.69699,-3.9049 7.39036,0.5969 c 6.50419,0.5253 18.294,3.1631 23.02552,5.1516 1.31594,0.5531 1.87229,-0.3012 2.84975,-4.3757 0.66801,-2.7846 1.61969,-5.0629 2.11483,-5.0629 0.49514,0 0.90026,2.6917 0.90026,5.9815 l 0,5.9815 7.59111,4.2685 c 15.50447,8.7182 19.37867,12.546 17.30486,17.0975 -1.97733,4.3397 -14.37503,8.5541 -21.3274,7.2498 l -3.29003,-0.6172 -1.19873,10.7692 c -1.45473,13.069 -3.92728,24.7521 -8.70299,41.1224 -2.93085,10.0465 -3.39987,12.8008 -2.51174,14.75 0.60062,1.3182 1.90188,2.3968 2.89169,2.3968 2.71884,0 14.73113,-6.0194 32.49009,-16.2809 l 15.95496,-9.2191 -0.65664,-21 c -0.36115,-11.55 -1.05883,-27.1609 -1.55039,-34.6908 -1.05364,-16.14 -1.0571,-16.1485 -14.7669,-36.1463 -9.78992,-14.2801 -13.24391,-21.3219 -13.20593,-26.9236 0.0271,-3.9958 3.35127,-11.5616 5.43036,-12.3594 2.47828,-0.951 20.62245,3.1238 26.6892,5.9938 11.56912,5.4731 27.85848,23.7121 27.85848,31.1929 0,1.1956 -2.26448,5.2698 -5.03219,9.0536 -2.7677,3.7839 -5.25605,7.7798 -5.52965,8.8798 -0.27361,1.1 -0.37163,16.0521 -0.21782,33.2269 l 0.27966,31.227 12.74457,-7.227 12.74458,-7.2269 -0.008,-22.5 c -0.007,-20.8217 -1.9741,-54.0341 -3.59234,-60.6657 -0.3804,-1.5589 -2.16187,-5.7593 -3.95883,-9.3343 -1.79696,-3.575 -3.80606,-9.2804 -4.46465,-12.6786 l -1.19745,-6.1787 3.74807,-3.3213 c 6.39747,-5.6692 17.49167,-13.6467 22.04055,-15.8488 7.67696,-3.7163 10.00029,-3.1578 16.75383,4.0273 12.2164,12.9971 19.7112,27.7414 18.19899,35.8022 -0.6976,3.7185 -3.03825,6.3191 -14.85979,16.5104 -4.03089,3.475 -5.72264,5.6983 -6.08718,8 -0.27767,1.7531 -0.63794,14.036 -0.80062,27.2953 l -0.29576,24.1077 5.88806,-3.6077 c 3.23843,-1.9843 8.24206,-5.7297 11.11917,-8.323 5.11038,-4.6064 5.24571,-4.8716 5.86386,-11.4913 0.82667,-8.8526 2.86015,-11.6838 8.69792,-12.11 4.95308,-0.3617 12.60259,2.1435 24.05735,7.8788 15.12926,7.5751 19.24295,13.6445 11.84197,17.4717 -1.55285,0.803 -15.33582,5.7052 -30.62882,10.8939 -15.29301,5.1886 -30.01307,10.417 -32.71124,11.6187 l -4.90577,2.1848 0.65336,21.1343 c 0.7733,25.0143 1.76851,30.1298 6.47784,33.2966 4.85573,3.2652 16.94468,5.68 25.64119,5.1219 5.7362,-0.3681 8.79333,-1.2306 14.69005,-4.1442 11.15576,-5.5122 22.58909,-6.5254 29.84048,-2.6446 10.47112,5.604 -1.76372,24.2724 -18.6374,28.4378 -16.55858,4.0876 -55.57118,4.708 -65.85398,1.0474 -13.82709,-4.9225 -16.12012,-11.4706 -17.36156,-49.5786 l -0.63845,-19.598 -12.73558,7.0127 c -11.49726,6.3308 -12.78032,7.3126 -13.1957,10.098 -3.04434,20.4138 -5.6805,30.6971 -8.62382,33.6404 -3.88022,3.8802 -6.50648,1.2937 -7.38653,-7.2748 -0.35477,-3.4542 -0.90441,-8.6591 -1.22144,-11.5665 l -0.57641,-5.2861 -15.63026,15.5124 c -23.37334,23.1971 -30.16555,28.177 -42.34878,31.0494 -7.97815,1.8809 -23.79725,1.8274 -30.0742,-0.1019 z"
         id="path4694"
         inkscape:connector-curvature="0" />
      <path
         style="fill:#bebebe"
         d="m 707.69882,-1022.3013 c -14.47659,-3.1769 -26.66393,-9.8764 -37.33969,-20.5262 -8.62706,-8.606 -13.90659,-17.0565 -17.80122,-28.4927 l -2.72441,-8 0,-164.5 0,-164.5 2.72441,-8 c 3.87402,-11.3757 9.13771,-19.7704 17.84064,-28.4528 11.24939,-11.2228 22.52291,-17.2729 38.14279,-20.4697 6.75077,-1.3816 21.67117,-1.5775 120.16203,-1.5775 121.48984,0 120.28,-0.048 133.61925,5.3396 9.98146,4.0317 17.03596,8.7378 24.98525,16.6677 8.62706,8.606 13.90663,17.0565 17.80123,28.4927 l 2.7244,8 0.2787,161 c 0.3115,179.9795 0.6921,169.5762 -6.7689,185 -8.90359,18.406 -24.40283,31.5694 -45.5098,38.6513 l -7,2.3487 -117.5,0.1826 c -95.30081,0.1481 -118.65902,-0.072 -123.63468,-1.1637 z m 244.93516,-5.2608 c 19.56458,-5.5231 35.73112,-18.6004 44.09197,-35.6664 7.06525,-14.4215 6.60915,-1.9525 6.59275,-180.236 -0.016,-178.5153 0.4219,-166.7182 -6.73846,-181.3557 -5.41991,-11.0795 -18.67451,-24.1033 -30.24674,-29.7202 -16.0962,-7.8126 -8.08311,-7.409 -140.5,-7.0763 l -118,0.2965 -7.30955,2.7107 c -10.34361,3.8358 -17.41512,8.1325 -24.8848,15.12 -7.21126,6.7458 -10.99954,11.8316 -15.36122,20.6226 -6.22381,12.5442 -5.91487,3.1922 -5.91487,179.0467 0,178.1542 -0.43806,166.3787 6.73349,181 5.53122,11.277 18.79355,24.3489 30.23695,29.8028 9.34393,4.4533 14.18407,5.9359 23.38806,7.1644 3.36156,0.4487 56.51194,0.7431 118.11194,0.6544 l 112,-0.1614 7.80048,-2.2021 z m -241.5932,-109.8705 c -6.0867,-1.8707 -12.71665,-8.2145 -12.68532,-12.1376 0.0324,-4.0531 2.94772,-9.7042 9.93095,-19.25 11.82683,-16.1669 19.35251,-28.2509 23.57583,-37.8559 3.98349,-9.0596 14.47126,-37.2747 14.47126,-38.9318 0,-0.4163 -3.26885,-3.4848 -7.2641,-6.8189 -8.27355,-6.9044 -14.30006,-15.0862 -15.31963,-20.7984 l -0.69699,-3.9049 7.39036,0.5969 c 6.50419,0.5253 18.294,3.1631 23.02552,5.1516 1.31594,0.5531 1.87229,-0.3012 2.84975,-4.3757 0.66801,-2.7846 1.61969,-5.0629 2.11483,-5.0629 0.49514,0 0.90026,2.6917 0.90026,5.9815 l 0,5.9815 7.59111,4.2685 c 15.50447,8.7182 19.37867,12.546 17.30486,17.0975 -1.97733,4.3397 -14.37503,8.5541 -21.3274,7.2498 l -3.29003,-0.6172 -1.19873,10.7692 c -1.45473,13.069 -3.92728,24.7521 -8.70299,41.1224 -2.93085,10.0465 -3.39987,12.8008 -2.51174,14.75 0.60062,1.3182 1.90188,2.3968 2.89169,2.3968 2.71884,0 14.73113,-6.0194 32.49009,-16.2809 l 15.95496,-9.2191 -0.65664,-21 c -0.36115,-11.55 -1.05883,-27.1609 -1.55039,-34.6908 -1.05364,-16.14 -1.0571,-16.1485 -14.7669,-36.1463 -9.78992,-14.2801 -13.24391,-21.3219 -13.20593,-26.9236 0.0271,-3.9958 3.35127,-11.5616 5.43036,-12.3594 2.47828,-0.951 20.62245,3.1238 26.6892,5.9938 11.56912,5.4731 27.85848,23.7121 27.85848,31.1929 0,1.1956 -2.26448,5.2698 -5.03219,9.0536 -2.7677,3.7839 -5.25605,7.7798 -5.52965,8.8798 -0.27361,1.1 -0.37163,16.0521 -0.21782,33.2269 l 0.27966,31.227 12.74457,-7.227 12.74458,-7.2269 -0.008,-22.5 c -0.007,-20.8217 -1.9741,-54.0341 -3.59234,-60.6657 -0.3804,-1.5589 -2.16187,-5.7593 -3.95883,-9.3343 -1.79696,-3.575 -3.80606,-9.2804 -4.46465,-12.6786 l -1.19745,-6.1787 3.74807,-3.3213 c 6.39747,-5.6692 17.49167,-13.6467 22.04055,-15.8488 7.67696,-3.7163 10.00029,-3.1578 16.75383,4.0273 12.2164,12.9971 19.7112,27.7414 18.19899,35.8022 -0.6976,3.7185 -3.03825,6.3191 -14.85979,16.5104 -4.03089,3.475 -5.72264,5.6983 -6.08718,8 -0.27767,1.7531 -0.63794,14.036 -0.80062,27.2953 l -0.29576,24.1077 5.88806,-3.6077 c 3.23843,-1.9843 8.24206,-5.7297 11.11917,-8.323 5.11038,-4.6064 5.24571,-4.8716 5.86386,-11.4913 0.82667,-8.8526 2.86015,-11.6838 8.69792,-12.11 4.95308,-0.3617 12.60259,2.1435 24.05735,7.8788 15.12926,7.5751 19.24295,13.6445 11.84197,17.4717 -1.55285,0.803 -15.33582,5.7052 -30.62882,10.8939 -15.29301,5.1886 -30.01307,10.417 -32.71124,11.6187 l -4.90577,2.1848 0.65336,21.1343 c 0.7733,25.0143 1.76851,30.1298 6.47784,33.2966 4.85573,3.2652 16.94468,5.68 25.64119,5.1219 5.7362,-0.3681 8.79333,-1.2306 14.69005,-4.1442 11.15576,-5.5122 22.58909,-6.5254 29.84048,-2.6446 10.47112,5.604 -1.76372,24.2724 -18.6374,28.4378 -16.55858,4.0876 -55.57118,4.708 -65.85398,1.0474 -13.82709,-4.9225 -16.12012,-11.4706 -17.36156,-49.5786 l -0.63845,-19.598 -12.73558,7.0127 c -11.49726,6.3308 -12.78032,7.3126 -13.1957,10.098 -3.04434,20.4138 -5.6805,30.6971 -8.62382,33.6404 -3.88022,3.8802 -6.50648,1.2937 -7.38653,-7.2748 -0.35477,-3.4542 -0.90441,-8.6591 -1.22144,-11.5665 l -0.57641,-5.2861 -15.63026,15.5124 c -23.37334,23.1971 -30.16555,28.177 -42.34878,31.0494 -7.97815,1.8809 -23.79725,1.8274 -30.0742,-0.1019 z"
         id="path4692"
         inkscape:connector-curvature="0" />
      <path
         style="fill:#7f7f7f"
         d="m 707.69882,-1022.3013 c -14.47659,-3.1769 -26.66393,-9.8764 -37.33969,-20.5262 -8.62706,-8.606 -13.90659,-17.0565 -17.80122,-28.4927 l -2.72441,-8 0,-164.5 0,-164.5 2.72441,-8 c 3.87402,-11.3757 9.13771,-19.7704 17.84064,-28.4528 11.24939,-11.2228 22.52291,-17.2729 38.14279,-20.4697 6.75077,-1.3816 21.67117,-1.5775 120.16203,-1.5775 121.48984,0 120.28,-0.048 133.61925,5.3396 9.98146,4.0317 17.03596,8.7378 24.98525,16.6677 8.62706,8.606 13.90663,17.0565 17.80123,28.4927 l 2.7244,8 0.2787,161 c 0.3115,179.9795 0.6921,169.5762 -6.7689,185 -8.90359,18.406 -24.40283,31.5694 -45.5098,38.6513 l -7,2.3487 -117.5,0.1826 c -95.30081,0.1481 -118.65902,-0.072 -123.63468,-1.1637 z m 235.49718,-3.5609 c 23.31432,-2.9234 43.58662,-16.8156 53.20161,-36.458 7.44679,-15.2131 6.93589,-1.8426 6.93589,-181.5 0,-180.0185 0.5388,-166.2313 -7.10595,-181.846 -7.94066,-16.2192 -24.67768,-29.3672 -43.51729,-34.1855 -7.43875,-1.9025 -11.59011,-1.9685 -123.87676,-1.9685 -111.54075,0 -116.4817,0.077 -123.73356,1.9319 -23.90327,6.1134 -42.26769,23.8591 -48.69563,47.0551 -2.05503,7.4159 -2.07081,8.7036 -2.07081,169.0328 0,180.1191 -0.54844,166.193 7.16548,181.9463 9.16873,18.7244 29.95401,33.0986 51.99576,35.958 9.65406,1.2524 219.73635,1.2834 229.70126,0.034 z m -229.86897,-110.8276 c -7.13709,-2.3554 -15.00528,-9.1373 -14.98376,-12.9152 0.0195,-3.4218 4.98533,-11.9992 14.88776,-25.7152 12.43303,-17.2212 17.99934,-27.8773 26.50374,-50.7383 6.36597,-17.1127 7.58805,-21.7617 5.72046,-21.7617 -1.52182,0 -15.08237,-13.0824 -18.08655,-17.4489 -1.58101,-2.2979 -3.19917,-5.9083 -3.59593,-8.0232 l -0.72136,-3.8452 7.39105,0.6384 c 6.32996,0.5468 17.51163,3.0583 22.99666,5.1653 1.2403,0.4764 1.89717,-0.4247 2.88717,-3.9606 1.88417,-6.7296 3.00565,-6.4825 3.0191,0.6652 l 0.0119,6.309 6.23814,3.3967 c 10.47462,5.7034 16.74259,10.2112 18.24901,13.1243 1.30161,2.5171 1.25031,3.0129 -0.54821,5.2993 -2.75016,3.4963 -9.99988,6.0236 -17.52179,6.1083 l -6.33501,0.071 -0.62244,6.5 c -1.15593,12.071 -4.42327,28.4271 -8.46392,42.3697 -2.21073,7.6283 -4.01951,14.6258 -4.01951,15.55 0,2.1135 1.92228,4.0877 3.95,4.0566 3.25421,-0.05 13.18655,-4.9396 30.44025,-14.9861 l 17.89025,-10.4171 -0.68677,-21.5365 c -0.37772,-11.8451 -1.12189,-27.8074 -1.65371,-35.4717 -1.10604,-15.9398 -0.69105,-14.9341 -14.47005,-35.0649 -4.51754,-6.6 -9.15945,-13.8712 -10.31535,-16.1582 -4.1963,-8.3027 -3.7416,-16.5628 1.16551,-21.1728 2.0748,-1.9491 2.77019,-2.0433 8.39862,-1.1368 9.03666,1.4553 18.16744,4.5066 23.37721,7.8123 6.90855,4.3835 19.19614,17.0248 21.80406,22.4317 2.84648,5.9015 2.48092,7.4905 -3.60764,15.6817 l -4.79238,6.4473 -0.28833,33.2974 c -0.15858,18.3136 -0.0437,33.2974 0.25521,33.2974 0.29894,0 6.22052,-3.2352 13.15906,-7.1895 l 12.61553,-7.1895 -0.51626,-30.0605 c -0.70094,-40.8137 -1.78072,-50.5894 -6.80821,-61.637 -2.14663,-4.717 -4.3757,-11.017 -4.95348,-14 l -1.05051,-5.4235 3.79349,-3.3707 c 5.82195,-5.1731 17.39707,-13.6975 21.23508,-15.6384 6.20195,-3.1362 8.608,-3.443 11.79661,-1.5039 4.06133,2.4699 15.47111,16.968 19.61912,24.9296 7.06021,13.5512 5.91699,18.527 -6.45584,28.0985 -4.3592,3.3723 -8.54649,7.3359 -9.30509,8.8082 -1.03843,2.0153 -1.46808,9.1391 -1.73872,28.8286 -0.41407,30.1254 -1.76402,27.7776 10.94859,19.0414 8.94635,-6.1479 11.19206,-8.8706 11.19933,-13.5781 0.008,-5.2113 1.80604,-10.9268 4.18617,-13.3069 1.72571,-1.7257 2.89717,-1.973 7.18506,-1.5168 10.01307,1.0653 32.31305,12.2532 36.17671,18.1499 3.27684,5.0011 0.50308,6.4757 -33.55352,17.8381 -14.025,4.6793 -28.0875,9.6558 -31.25,11.0591 l -5.75,2.5514 0.0158,12.805 c 0.0222,17.9707 1.65679,36.1565 3.5031,38.9743 3.47946,5.3103 16.91909,8.9608 29.85214,8.1084 5.61741,-0.3703 8.64995,-1.2391 14.30267,-4.0979 6.65563,-3.3661 16.43249,-5.8377 20.21435,-5.1103 5.8316,1.1217 7.28161,1.7025 10.03484,4.0191 3.95227,3.3257 3.98257,6.7015 0.11261,12.5441 -3.50708,5.2947 -9.44744,10.2829 -15.31075,12.8566 -7.17128,3.1478 -28.73301,5.3009 -47.60314,4.7535 -19.07832,-0.5535 -25.16304,-1.9785 -31.01201,-7.2627 -6.05056,-5.4663 -7.94985,-14.9557 -8.94789,-44.7061 l -0.66176,-19.7259 -12.71368,7.0239 c -11.63285,6.4269 -12.75466,7.2962 -13.1957,10.226 -3.17215,21.0727 -5.95644,30.9132 -9.70696,34.3074 -2.03563,1.8422 -2.1082,1.8356 -3.87944,-0.3518 -1.07689,-1.3299 -2.06065,-4.7552 -2.43874,-8.4913 -0.34855,-3.4442 -0.89044,-8.4349 -1.20421,-11.0905 l -0.57048,-4.8282 -15.14539,14.8869 c -22.15235,21.7743 -29.87214,27.8378 -39.28903,30.8596 -5.47879,1.7581 -27.43541,2.8365 -31.36284,1.5404 z"
         id="path4690"
         inkscape:connector-curvature="0" />
      <path
         style="fill:#404040"
         d="m 712.99402,-1021.9321 c -27.21675,-3.5764 -49.20772,-20.8171 -59.03235,-46.2805 l -3.12817,-8.1076 -0.27936,-164 c -0.31157,-182.9113 -0.74466,-170.8419 6.67948,-186.1462 9.01252,-18.5786 26.01728,-32.1418 46.92697,-37.4294 7.53605,-1.9057 11.31865,-1.9561 127.21995,-1.6943 l 119.45296,0.2699 8,2.8078 c 21.54259,7.5608 36.82846,22.2378 44.8718,43.0846 l 3.1282,8.1076 0.2937,164.5 c 0.3267,182.9841 0.7459,170.885 -6.4313,185.6142 -8.78283,18.0246 -23.92833,30.5291 -44.88929,37.0618 l -8.97311,2.7966 -113.5,0.1571 c -62.45672,0.087 -116.57586,-0.247 -120.33948,-0.7416 z m 242.83948,-6.1125 c 21.51623,-7.3274 38.32263,-23.7039 45.2177,-44.0611 l 2.7823,-8.2145 0,-163.5 0,-163.5 -2.8236,-7.9904 c -8.5924,-24.315 -28.20495,-41.2631 -53.30812,-46.0662 -11.21616,-2.146 -226.5204,-2.146 -237.73656,0 -25.10317,4.8031 -44.71572,21.7512 -53.30809,46.0662 l -2.82363,7.9904 0,163.5 0,163.5 2.82363,7.9904 c 8.4333,23.8648 27.28659,40.5007 52.17637,46.0397 4.84263,1.0777 28.47217,1.3 122.5,1.1526 l 116.5,-0.1827 8,-2.7244 z m -239,-108.3987 c -1.1,-0.2908 -3.713,-0.9688 -5.80668,-1.5066 -2.09367,-0.5379 -5.58117,-2.5811 -7.75,-4.5405 -6.97464,-6.3011 -5.51492,-11.3775 8.97789,-31.2219 15.09922,-20.6747 19.11928,-28.3841 29.07147,-55.7508 l 6.08865,-16.7427 -3.29067,-2.5347 c -11.74771,-9.049 -19.79066,-19.1478 -19.79066,-24.8493 l 0,-3.4268 6.25,0.7145 c 5.32664,0.6089 13.68616,2.488 22.43037,5.0419 1.88621,0.5509 2.35092,0.068 3.44451,-3.5825 1.01531,-3.3888 1.40885,-3.851 1.99934,-2.3484 0.40437,1.029 0.76684,3.4621 0.80549,5.4069 0.0677,3.4072 0.42186,3.7348 9.73008,9 11.49883,6.5042 15.34021,9.834 15.34021,13.2971 0,4.8785 -8.53753,8.6512 -19.60026,8.6613 l -6.10025,0.01 -0.64313,9.0605 c -0.79706,11.2289 -3.52417,24.7926 -8.1273,40.4222 -4.72351,16.0379 -4.53092,19.5169 1.08041,19.5169 2.91072,0 18.70371,-8.0308 34.89053,-17.742 l 13,-7.7993 -0.26499,-12.4794 c -0.14574,-6.8636 -0.75339,-22.3732 -1.35034,-34.4658 -1.26339,-25.5932 -0.34891,-22.8754 -14.998,-44.5735 -5.40645,-8.0079 -10.51768,-16.206 -11.35829,-18.2178 -2.22023,-5.3138 -1.96925,-13.4868 0.54058,-17.6036 l 2.06148,-3.3814 6.66023,0.6823 c 8.62413,0.8836 20.22565,4.8076 26.03897,8.8073 6.59003,4.5341 16.70128,14.9334 19.10958,19.6541 3.25456,6.3794 2.72822,9.3151 -3.18922,17.7879 l -5.25,7.5171 -0.27106,31.157 c -0.15361,17.6569 0.12505,31.7577 0.64312,32.5432 0.729,1.1053 3.46798,-0.075 13.52106,-5.825 l 12.60688,-7.211 -0.0205,-27.1751 c -0.0121,-16.0145 -0.61515,-33.3055 -1.46842,-42.1022 -1.3017,-13.42 -1.79649,-15.6414 -4.90017,-22 -3.8693,-7.9272 -5.59705,-13.5485 -5.60531,-18.237 -0.005,-2.7606 1.01665,-3.9785 8.00689,-9.5463 10.77802,-8.5848 18.03657,-12.8523 22.99094,-13.5168 3.95263,-0.5301 4.31869,-0.3365 9.1461,4.8375 15.54884,16.6654 22.37091,33.0399 17.0939,41.0293 -0.95888,1.4518 -4.85343,5.0518 -8.65457,8 -11.04992,8.5706 -10.38745,6.3725 -11.1844,37.1105 -0.38145,14.7125 -0.37989,26.75 0.003,26.75 1.70267,0 17.6681,-11.3225 20.47793,-14.5228 2.59695,-2.9577 3.11417,-4.3768 3.11417,-8.5441 0,-15.1782 7.42564,-16.4255 30.5,-5.123 15.74761,7.7136 19.9866,13.099 13.44299,17.0784 -1.68135,1.0225 -11.69385,4.6685 -22.25,8.1024 -10.55614,3.4338 -25.15549,8.4943 -32.44299,11.2455 l -13.25,5.0022 0.0309,18.1307 c 0.0328,19.267 1.12459,31.3055 3.13038,34.5173 3.08691,4.9429 14.50362,8.4222 27.44101,8.3627 7.66664,-0.035 8.84784,-0.3393 17.06721,-4.3936 8.33655,-4.1121 9.30846,-4.3557 17.3745,-4.3557 9.46628,0 13.2657,1.5541 15.00897,6.1393 2.07722,5.4635 -6.13199,16.8001 -15.42211,21.2974 -5.27871,2.5553 -20.88109,4.8558 -38.63084,5.6959 -21.1538,1.0011 -36.25532,-1.766 -42.70488,-7.8251 -4.70512,-4.4202 -6.72329,-16.2297 -7.8775,-46.0959 -0.3781,-9.7836 -0.99561,-17.6586 -1.37224,-17.5 -0.37664,0.1586 -6.32034,3.3809 -13.20824,7.1607 l -12.52344,6.8723 -1.23257,9.421 c -1.39956,10.6975 -4.48423,22.7227 -6.70681,26.1457 -2.10018,3.2345 -5.50521,2.5532 -6.55337,-1.3113 -0.44753,-1.65 -1.10747,-7.3798 -1.46653,-12.733 l -0.65283,-9.733 -16.6493,16.2695 c -22.7191,22.2008 -29.6691,27.4057 -40.55229,30.3698 -5.3251,1.4503 -22.66116,2.5862 -26,1.7036 z"
         id="path4688"
         inkscape:connector-curvature="0" />
      <path
         style="fill:#3f3f3f"
         d="m 714.14369,-1021.845 c -17.31897,-2.0667 -30.50817,-8.5896 -43.34195,-21.4351 -10.31508,-10.3246 -15.33024,-18.7706 -18.49624,-31.1496 -1.92303,-7.519 -1.97163,-11.7229 -1.95722,-169.3005 0.0165,-180.3992 -0.49821,-167.35 7.22173,-183.09 3.38091,-6.8932 5.87918,-10.2075 13.21623,-17.533 10.40428,-10.3878 20.37965,-16.0931 34.10974,-19.5088 7.87605,-1.9593 10.81276,-1.9994 127,-1.732 l 118.93752,0.2738 6.5,2.3424 c 12.95483,4.6687 20.04871,9.1428 29.53176,18.6258 10.31547,10.3155 15.32854,18.7558 18.49624,31.1413 1.9227,7.5178 1.972,11.749 1.972,169.3905 0,157.6415 -0.049,161.8727 -1.972,169.3905 -3.1859,12.4568 -8.1538,20.8376 -18.47627,31.1695 -10.22948,10.2388 -19.776,15.8929 -33.26501,19.7018 l -7.78672,2.1987 -112.5,0.1565 c -61.875,0.086 -115.51042,-0.2027 -119.18981,-0.6418 z m 241.68981,-6.1996 c 21.51623,-7.3274 38.32263,-23.7039 45.2177,-44.0611 l 2.7823,-8.2145 0,-163.5 0,-163.5 -2.8236,-7.9904 c -8.5924,-24.315 -28.20495,-41.2631 -53.30812,-46.0662 -11.21616,-2.146 -226.5204,-2.146 -237.73656,0 -25.10317,4.8031 -44.71572,21.7512 -53.30809,46.0662 l -2.82363,7.9904 0,163.5 0,163.5 2.82363,7.9904 c 8.4333,23.8648 27.28659,40.5007 52.17637,46.0397 4.84263,1.0777 28.47217,1.3 122.5,1.1526 l 116.5,-0.1827 8,-2.7244 z m -239,-108.3987 c -1.1,-0.2908 -3.713,-0.9688 -5.80668,-1.5066 -2.09367,-0.5379 -5.58117,-2.5811 -7.75,-4.5405 -6.97464,-6.3011 -5.51492,-11.3775 8.97789,-31.2219 15.09922,-20.6747 19.11928,-28.3841 29.07147,-55.7508 l 6.08865,-16.7427 -3.29067,-2.5347 c -11.74771,-9.049 -19.79066,-19.1478 -19.79066,-24.8493 l 0,-3.4268 6.25,0.7145 c 5.32664,0.6089 13.68616,2.488 22.43037,5.0419 1.88621,0.5509 2.35092,0.068 3.44451,-3.5825 1.01531,-3.3888 1.40885,-3.851 1.99934,-2.3484 0.40437,1.029 0.76684,3.4621 0.80549,5.4069 0.0677,3.4072 0.42186,3.7348 9.73008,9 11.49883,6.5042 15.34021,9.834 15.34021,13.2971 0,4.8785 -8.53753,8.6512 -19.60026,8.6613 l -6.10025,0.01 -0.64313,9.0605 c -0.79706,11.2289 -3.52417,24.7926 -8.1273,40.4222 -4.72351,16.0379 -4.53092,19.5169 1.08041,19.5169 2.91072,0 18.70371,-8.0308 34.89053,-17.742 l 13,-7.7993 -0.26499,-12.4794 c -0.14574,-6.8636 -0.75339,-22.3732 -1.35034,-34.4658 -1.26339,-25.5932 -0.34891,-22.8754 -14.998,-44.5735 -5.40645,-8.0079 -10.51768,-16.206 -11.35829,-18.2178 -2.22023,-5.3138 -1.96925,-13.4868 0.54058,-17.6036 l 2.06148,-3.3814 6.66023,0.6823 c 8.62413,0.8836 20.22565,4.8076 26.03897,8.8073 6.59003,4.5341 16.70128,14.9334 19.10958,19.6541 3.25456,6.3794 2.72822,9.3151 -3.18922,17.7879 l -5.25,7.5171 -0.27106,31.157 c -0.15361,17.6569 0.12505,31.7577 0.64312,32.5432 0.729,1.1053 3.46798,-0.075 13.52106,-5.825 l 12.60688,-7.211 -0.0205,-27.1751 c -0.0121,-16.0145 -0.61515,-33.3055 -1.46842,-42.1022 -1.3017,-13.42 -1.79649,-15.6414 -4.90017,-22 -3.8693,-7.9272 -5.59705,-13.5485 -5.60531,-18.237 -0.005,-2.7606 1.01665,-3.9785 8.00689,-9.5463 10.77802,-8.5848 18.03657,-12.8523 22.99094,-13.5168 3.95263,-0.5301 4.31869,-0.3365 9.1461,4.8375 15.54884,16.6654 22.37091,33.0399 17.0939,41.0293 -0.95888,1.4518 -4.85343,5.0518 -8.65457,8 -11.04992,8.5706 -10.38745,6.3725 -11.1844,37.1105 -0.38145,14.7125 -0.37989,26.75 0.003,26.75 1.70267,0 17.6681,-11.3225 20.47793,-14.5228 2.59695,-2.9577 3.11417,-4.3768 3.11417,-8.5441 0,-15.1782 7.42564,-16.4255 30.5,-5.123 15.74761,7.7136 19.9866,13.099 13.44299,17.0784 -1.68135,1.0225 -11.69385,4.6685 -22.25,8.1024 -10.55614,3.4338 -25.15549,8.4943 -32.44299,11.2455 l -13.25,5.0022 0.0309,18.1307 c 0.0328,19.267 1.12459,31.3055 3.13038,34.5173 3.08691,4.9429 14.50362,8.4222 27.44101,8.3627 7.66664,-0.035 8.84784,-0.3393 17.06721,-4.3936 8.33655,-4.1121 9.30846,-4.3557 17.3745,-4.3557 9.46628,0 13.2657,1.5541 15.00897,6.1393 2.07722,5.4635 -6.13199,16.8001 -15.42211,21.2974 -5.27871,2.5553 -20.88109,4.8558 -38.63084,5.6959 -21.1538,1.0011 -36.25532,-1.766 -42.70488,-7.8251 -4.70512,-4.4202 -6.72329,-16.2297 -7.8775,-46.0959 -0.3781,-9.7836 -0.99561,-17.6586 -1.37224,-17.5 -0.37664,0.1586 -6.32034,3.3809 -13.20824,7.1607 l -12.52344,6.8723 -1.23257,9.421 c -1.39956,10.6975 -4.48423,22.7227 -6.70681,26.1457 -2.10018,3.2345 -5.50521,2.5532 -6.55337,-1.3113 -0.44753,-1.65 -1.10747,-7.3798 -1.46653,-12.733 l -0.65283,-9.733 -16.6493,16.2695 c -22.7191,22.2008 -29.6691,27.4057 -40.55229,30.3698 -5.3251,1.4503 -22.66116,2.5862 -26,1.7036 z"
         id="path4686"
         inkscape:connector-curvature="0" />
      <path
         style="fill:#000000"
         d="m 714.14369,-1021.845 c -17.31897,-2.0667 -30.50817,-8.5896 -43.34195,-21.4351 -10.31508,-10.3246 -15.33024,-18.7706 -18.49624,-31.1496 -1.92303,-7.519 -1.97163,-11.7229 -1.95722,-169.3005 0.0165,-180.3992 -0.49821,-167.35 7.22173,-183.09 3.38091,-6.8932 5.87918,-10.2075 13.21623,-17.533 10.40428,-10.3878 20.37965,-16.0931 34.10974,-19.5088 7.87605,-1.9593 10.81276,-1.9994 127,-1.732 l 118.93752,0.2738 6.5,2.3424 c 12.95483,4.6687 20.04871,9.1428 29.53176,18.6258 10.31547,10.3155 15.32854,18.7558 18.49624,31.1413 1.9227,7.5178 1.972,11.749 1.972,169.3905 0,157.6415 -0.049,161.8727 -1.972,169.3905 -3.1859,12.4568 -8.1538,20.8376 -18.47627,31.1695 -10.22948,10.2388 -19.776,15.8929 -33.26501,19.7018 l -7.78672,2.1987 -112.5,0.1565 c -61.875,0.086 -115.51042,-0.2027 -119.18981,-0.6418 z m 234.5165,-4.4107 c 27.92242,-5.3424 50.50784,-28.1159 54.66321,-55.1183 0.7343,-4.7714 0.981,-57.0414 0.7878,-166.9462 -0.2678,-152.4335 -0.3683,-160.2601 -2.1257,-165.5 -3.77105,-11.2436 -8.74629,-19.1907 -17.60256,-28.1172 -7.23052,-7.2878 -10.015,-9.3235 -18.04944,-13.1957 -16.89304,-8.1416 -10.22654,-7.7885 -141,-7.4691 l -115.5,0.282 -7,2.3487 c -12.93827,4.3411 -20.36207,8.8944 -29.64389,18.1818 -6.98536,6.9896 -9.41906,10.2628 -12.68389,17.0593 -7.59093,15.8023 -7.17222,5.2407 -7.17222,180.9102 0,137.0721 0.19518,158.0663 1.53209,164.7922 5.11373,25.7268 26.71576,47.0074 53.46791,52.6724 9.85703,2.0873 229.46246,2.1786 240.32669,0.1 z m -232.98294,-110.6059 c -9.26292,-1.8326 -16.34375,-7.5225 -16.34375,-13.1333 0,-4.2128 2.69134,-8.9115 14.59491,-25.4809 12.04767,-16.7699 19.4224,-31.1078 27.18066,-52.8444 2.74829,-7.7 5.28443,-14.9527 5.63584,-16.117 0.52426,-1.737 -0.57995,-3.1019 -6.15165,-7.6036 -8.96658,-7.2447 -15.27272,-15.4572 -15.99308,-20.8278 l -0.55414,-4.1314 5.89373,0.7308 c 3.24155,0.402 9.26873,1.6033 13.39373,2.6697 11.66828,3.0165 12.21742,2.9483 13.53249,-1.6797 1.04148,-3.6651 1.17377,-3.7764 1.78258,-1.5 0.36169,1.3525 0.66377,3.88 0.67128,5.6168 0.0126,2.9226 0.65759,3.5186 8.65743,8 11.81483,6.6186 16.86791,11.1673 16.04551,14.444 -1.06072,4.2263 -7.79593,7.2098 -17.41553,7.7147 l -8.27376,0.4343 0,4.7752 c 0,7.8925 -3.75168,27.6007 -8.05767,42.3281 -2.37827,8.1343 -3.92507,15.3594 -3.74649,17.5 0.2819,3.379 0.56035,3.6664 3.80416,3.9254 4.17333,0.3332 11.73695,-3.3087 33.92732,-16.336 l 15.22655,-8.9391 -0.59532,-12.5022 c -0.32742,-6.8762 -1.07115,-22.3858 -1.65273,-34.4657 -0.66638,-13.8417 -1.55517,-23.1549 -2.40349,-25.1852 -0.74035,-1.7719 -5.85804,-9.8998 -11.37266,-18.0621 -11.87241,-17.5726 -14.07951,-22.0777 -14.10397,-28.7892 -0.0255,-6.9903 2.80502,-11.5025 7.2096,-11.493 5.42398,0.012 19.74636,3.8611 25.16951,6.7648 6.46393,3.4611 22.05304,18.6864 24.06626,23.5047 2.3911,5.7227 1.89828,7.8126 -3.72107,15.7799 l -5.25,7.4436 -0.31155,31 c -0.17136,17.05 0.0536,31.9617 0.5,33.137 0.77679,2.0455 1.34689,1.8291 13.31155,-5.0534 l 12.5,-7.1904 -0.064,-32.9466 c -0.0776,-39.9157 -1.05028,-49.7449 -5.87,-59.3156 -1.87856,-3.7303 -3.98736,-9.5507 -4.68621,-12.9342 -1.23556,-5.982 -1.20312,-6.2242 1.1748,-8.7741 7.22852,-7.751 25.54,-19.3896 30.54321,-19.4129 1.26561,-0.01 4.25126,2.2712 7.5264,5.7402 11.73412,12.4288 18.87368,25.1837 18.87503,33.7204 7.6e-4,4.776 -0.21921,5.167 -5.62596,10 -3.09471,2.7663 -7.75359,7.0546 -10.35306,9.5296 l -4.72631,4.5 -0.64694,18.4103 c -0.35584,10.1257 -0.64696,22.4363 -0.64696,27.357 0,7.9284 0.18911,8.8741 1.66157,8.3091 3.76556,-1.445 15.35047,-9.8473 18.7208,-13.5779 3.18668,-3.5273 3.61808,-4.6293 3.62137,-9.2514 0.004,-6.2995 2.72018,-11.3887 6.59631,-12.3616 8.16712,-2.0498 40.39995,14.4767 40.39995,20.714 0,2.7308 -6.51874,5.6379 -30,13.3789 -11.275,3.717 -25.16391,8.5591 -30.86425,10.7604 l -10.36424,4.0022 0.5005,23.1295 c 0.2897,13.3881 0.99541,24.7308 1.67561,26.9315 2.10888,6.8232 12.41705,10.945 27.54943,11.0159 8.58447,0.04 9.50764,-0.1743 18.4259,-4.2824 12.07168,-5.5608 20.21214,-6.4225 27.00217,-2.8583 4.97204,2.6099 6.15007,4.8774 4.91754,9.4655 -1.23796,4.6083 -9.16314,12.8782 -15.14005,15.7986 -7.80091,3.8117 -22.97447,5.8329 -44.70261,5.9549 -16.59371,0.093 -19.2402,-0.1289 -25.68346,-2.1548 -3.95091,-1.2422 -8.56216,-3.4186 -10.24723,-4.8365 -5.30027,-4.4599 -7.4016,-15.9278 -8.64052,-47.1549 -0.37641,-9.4875 -0.90337,-17.25 -1.17102,-17.25 -0.26765,0 -6.22658,3.1461 -13.24206,6.9914 l -12.75543,6.9914 -0.69235,6.2586 c -1.09074,9.8599 -4.2465,23.2082 -6.55793,27.739 -1.61981,3.1751 -2.61311,4.0718 -4.24499,3.8323 -2.71512,-0.3985 -3.5698,-3.5103 -4.4117,-16.0627 -0.35967,-5.3625 -0.88064,-9.75 -1.15771,-9.75 -0.27707,0 -7.74692,7.1881 -16.59968,15.9736 -17.75966,17.6248 -26.91359,25.3742 -33.35145,28.2343 -8.95031,3.9763 -24.22088,5.6658 -33.90072,3.7507 z"
         id="path4684"
         inkscape:connector-curvature="0" />
    </g>
  </g>
</svg>
