<?xml version="1.0" encoding="UTF-8" standalone="no"?>
<!-- Created with Inkscape (http://www.inkscape.org/) -->

<svg
   xmlns:dc="http://purl.org/dc/elements/1.1/"
   xmlns:cc="http://creativecommons.org/ns#"
   xmlns:rdf="http://www.w3.org/1999/02/22-rdf-syntax-ns#"
   xmlns:svg="http://www.w3.org/2000/svg"
   xmlns="http://www.w3.org/2000/svg"
   xmlns:sodipodi="http://sodipodi.sourceforge.net/DTD/sodipodi-0.dtd"
   xmlns:inkscape="http://www.inkscape.org/namespaces/inkscape"
   width="358.80521"
   height="445.22913"
   id="svg2"
   version="1.1"
   inkscape:version="0.91 r13725"
   sodipodi:docname="windsouth.svg">
  <defs
     id="defs4" />
  <sodipodi:namedview
     id="base"
     pagecolor="#ffffff"
     bordercolor="#666666"
     borderopacity="1.0"
     inkscape:pageopacity="0.0"
     inkscape:pageshadow="2"
     inkscape:zoom="1.3253505"
     inkscape:cx="-153.88592"
     inkscape:cy="174.21651"
     inkscape:document-units="px"
     inkscape:current-layer="layer1"
     showgrid="false"
     fit-margin-top="0"
     fit-margin-left="0"
     fit-margin-right="0"
     fit-margin-bottom="0"
     inkscape:window-width="1920"
     inkscape:window-height="1018"
     inkscape:window-x="0"
     inkscape:window-y="27"
     inkscape:window-maximized="1" />
  <metadata
     id="metadata7">
    <rdf:RDF>
      <cc:Work
         rdf:about="">
        <dc:format>image/svg+xml</dc:format>
        <dc:type
           rdf:resource="http://purl.org/dc/dcmitype/StillImage" />
        <dc:title></dc:title>
      </cc:Work>
    </rdf:RDF>
  </metadata>
  <g
     inkscape:label="Layer 1"
     inkscape:groupmode="layer"
     id="layer1"
     transform="translate(-1302.67,998.42828)">
    <g
       id="g4590"
       transform="translate(613.5877,209.66153)">
      <path
         style="fill:#bfbfbf"
         d="m 747.06677,-764.06795 c -27.68871,-5.63567 -49.28897,-25.77328 -56.06544,-52.269 -1.87381,-7.32654 -1.93401,-12.62288 -1.9172,-168.65411 0.0192,-177.68524 -0.31182,-168.16964 6.33267,-182.06134 7.09365,-14.8308 18.37411,-26.2244 33.14997,-33.4826 16.467,-8.0889 6.43202,-7.5461 139.5,-7.5461 132.89443,0 123.3247,-0.5107 139.50003,7.4449 18.8306,9.2617 32.0172,25.013 38.1374,45.5551 1.6776,5.6307 1.8076,15.6941 2.1126,163.5 0.2043,98.99294 -0.04,160.47179 -0.6563,165.5 -2.1409,17.4528 -8.0097,29.43599 -20.5808,42.02306 -8.6689,8.67982 -17.9037,14.22647 -31.01293,18.62712 l -7,2.34982 -117.5,0.16807 c -94.04008,0.13452 -118.79778,-0.0961 -124,-1.15492 z m 235,-3.54664 c 29.44763,-3.81539 53.81743,-25.30424 59.50063,-52.46651 2.2015,-10.52155 2.1971,-320.5423 0,-330.9356 -5.046,-23.8219 -25.2733,-44.2415 -50.11887,-50.5959 -7.43782,-1.9023 -11.58744,-1.9685 -123.37676,-1.9685 -111.85925,0 -115.93475,0.065 -123.39052,1.972 -23.63892,6.0458 -42.60759,24.5579 -49.28582,48.0994 -1.73081,6.1013 -1.82366,14.6508 -1.82366,167.9286 0,153.15058 0.0941,161.83157 1.81972,167.91342 7.71498,27.1906 30.86297,46.79069 59.18028,50.10969 9.44997,1.1076 218.91675,1.05549 227.5,-0.0566 z m -73.5,-75.0546 c -2.75,-0.44154 -9.725,-3.21971 -15.5,-6.17372 -45.57494,-23.31235 -50.83791,-26.30028 -49.2038,-27.93439 1.2835,-1.2835 14.30952,-1.29925 19.83313,-0.024 l 4.12933,0.95336 -2.38413,-3.51321 c -2.3137,-3.40943 -5.35878,-11.96949 -5.38984,-15.15147 -0.035,-3.58767 -1.40182,-4.18543 -5.92283,-2.59033 -11.16075,3.93775 -21.86956,3.70945 -25.31186,-0.5396 -3.00227,-3.7059 -2.19307,-4.65785 5,-5.88206 8.41982,-1.43298 22.4618,-5.06128 23.61188,-6.10106 0.47404,-0.42857 0.54506,-4.35831 0.15783,-8.73276 l -0.70405,-7.95356 -10.37859,3.36544 c -13.009,4.21839 -19.43952,4.45389 -23.04928,0.84413 -1.50547,-1.50547 -2.39369,-3.38921 -2.20455,-4.67545 0.26699,-1.81569 2.28072,-2.77068 12.81676,-6.07819 6.875,-2.15823 12.67405,-4.09083 12.88678,-4.29467 0.21273,-0.20384 -2.26227,-3.62709 -5.5,-7.60723 -3.23773,-3.98013 -6.35469,-7.85132 -6.92657,-8.60264 -0.85273,-1.1203 -2.66338,-0.65158 -10.06475,2.60546 -15.34856,6.75425 -31.50533,15.18723 -30.91799,16.13756 0.30783,0.49808 3.63977,5.00724 7.40433,10.02037 15.20226,20.24432 29.06641,46.84842 29.10138,55.84301 0.0346,8.89129 -8.63263,12.78704 -18.48771,8.30991 -5.32907,-2.42096 -12.59659,-10.54927 -21.74588,-24.32151 -20.16346,-30.35164 -37.31764,-62.37258 -38.42557,-71.72725 l -0.63879,-5.39361 4.15469,0.55726 c 5.80035,0.77799 15.6675,5.63409 22.04045,10.84716 2.9592,2.42063 6.18983,4.99736 7.17917,5.72608 1.57811,1.16239 3.61706,0.33318 16.61962,-6.75897 8.15146,-4.44614 16.73334,-8.816 19.07084,-9.71079 2.3375,-0.89479 4.25,-2.02567 4.25,-2.51306 0,-1.38338 -8.79204,-6.61632 -13.895,-8.27017 -2.53275,-0.82085 -8.78059,-2.20146 -13.88409,-3.06802 -12.01007,-2.03926 -13.81367,-2.78765 -16.21671,-6.729 -2.44334,-4.00745 -2.68139,-10.30109 -0.42241,-11.16794 5.59174,-2.14576 23.73373,1.44621 34.89389,6.90871 4.1209,2.01703 10.24783,6.34482 14.82303,10.47034 6.24215,5.62862 8.14725,6.84566 9.54495,6.09763 0.96043,-0.514 11.17601,-4.16436 22.70129,-8.11189 24.36082,-8.34386 27.6134,-9.62204 28.65469,-11.26057 1.15268,-1.8138 0.95827,-4.113 -0.51856,-6.13268 -1.26348,-1.72792 -1.92032,-1.68815 -15.62739,0.94621 -9.21008,1.77009 -14.7903,3.32457 -15.66073,4.36261 -0.74374,0.88696 -3.49892,4.73269 -6.12261,8.54607 -6.08854,8.84932 -7.57553,9.46553 -5.7268,2.3732 1.27363,-4.88605 6.45645,-33.10052 6.45645,-35.14792 0,-0.4905 -1.0125,-0.655 -2.25,-0.3655 -19.07019,4.4614 -35.50769,5.9772 -39.81574,3.6716 -2.40796,-1.2887 -2.49412,-4.1716 -0.18426,-6.1652 0.9625,-0.8307 5.8,-2.2947 10.75,-3.2532 9.64787,-1.8682 21.80773,-5.4634 29.20968,-8.6363 l 4.56832,-1.9582 -0.59721,-13.726 c -0.50597,-11.6288 -1.35138,-16.9344 -5.53337,-34.7259 l -4.93615,-21 7.60897,-9.5 c 11.61764,-14.5049 16.09067,-19 18.90679,-19 4.70798,0 25.6313,23.4333 29.77208,33.3436 0.82549,1.9757 1.50089,5.207 1.50089,7.1806 0,4.288 -2.64992,7.0097 -14.24442,14.6304 -6.46218,4.2474 -7.90146,5.6908 -8.69295,8.7178 -3.77567,14.4397 -5.0844,20.4392 -4.57067,20.9529 0.32652,0.3265 5.43427,-4.4506 11.35056,-10.6158 5.91629,-6.1652 11.08995,-11.2095 11.49702,-11.2095 1.73614,0 9.57869,4.608 14.77521,8.6813 6.59141,5.1668 9.92767,10.4426 8.2677,13.0742 -2.29731,3.642 -15.44529,10.0647 -38.38245,18.7496 -13.48715,5.1068 -13.5011,5.1154 -14.65873,9.0533 -0.6373,2.1679 -2.2671,7.639 -3.62177,12.1582 -2.85087,9.51028 -4.08493,9.3959 10.2805,0.9528 13.13797,-7.7217 21.81561,-13.8323 30,-21.1253 4.125,-3.6758 9.16957,-7.5519 11.21016,-8.6136 7.17121,-3.7314 15.34491,-1.6181 21.6891,5.6075 2.57228,2.9297 3.14941,4.3776 2.90532,7.289 -0.26548,3.1667 -1.01055,4.0995 -5.80458,7.267 -5.39783,3.5665 -14.61286,12.62647 -13.73521,13.50412 0.24536,0.24536 3.32365,-0.23219 6.84066,-1.06122 15.73092,-3.7081 23.92679,-0.4224 41.02597,16.44746 10.72287,10.57903 16.86858,19.76317 16.86858,25.20838 0,7.19073 -10.44041,30.78089 -30.45235,68.80726 -14.99266,28.48882 -19.34411,35.74548 -24.68326,41.16289 -4.52092,4.5872 -5.1855,4.87645 -14.36439,6.25208 -1.1,0.16485 -4.25,-0.0615 -7,-0.50306 z m -3.06189,-33.29691 c 13.40312,-10.22305 35.86702,-58.15578 37.27236,-79.53052 0.47573,-7.23565 0.35923,-7.77493 -2.53309,-11.72531 -4.81256,-6.57308 -12.32187,-9.71395 -24.38262,-10.19838 -11.28487,-0.45326 -8.60325,-2.30152 -22.84783,15.74752 -4.52307,5.7311 -7.3679,10.08183 -6.33066,9.68178 6.81961,-2.63019 17.29432,-4.75705 21.45797,-4.35698 7.01796,0.67434 14.34997,4.61238 14.73212,7.91266 0.26672,2.30338 -0.25092,2.8533 -4,4.24952 -2.3685,0.88207 -9.25636,2.74238 -15.30636,4.13402 -6.05,1.39164 -16.09609,3.9274 -22.32464,5.63502 -10.35319,2.83844 -11.28151,3.28624 -10.82192,5.22022 0.27649,1.1635 1.0343,4.88052 1.68401,8.26006 l 1.18129,6.1446 5.42014,-2.48142 c 2.98107,-1.36478 9.34436,-4.68418 14.14063,-7.37643 9.48301,-5.32304 13.61009,-6.0489 19.76667,-3.47651 4.06158,1.69704 5.23183,3.89559 3.3157,6.22925 -1.65804,2.01932 -13.50129,7.52506 -28.55665,13.27552 l -11.19477,4.27589 0.55228,11.63224 c 0.31961,6.73184 0.13617,12.68545 -0.43543,14.13225 -0.54324,1.375 -1.15412,2.94558 -1.35751,3.49018 -0.60952,1.63207 5.0081,2.38795 16.22175,2.18273 9.97128,-0.18247 10.81146,-0.36156 14.34656,-3.05791 z m -36.68297,-68.90275 8.25514,-3.21225 3.13138,-7.5 c 1.72227,-4.125 3.92989,-9.81649 4.90583,-12.64775 l 1.77443,-5.14775 -7.16096,2.02255 c -7.51882,2.12363 -24.86174,8.00879 -30.42864,10.32569 l -3.26767,1.35998 4.01544,5.29364 c 2.20849,2.9115 4.80395,7.2085 5.76768,9.54889 1.22706,2.97988 2.2018,4.0925 3.25223,3.71224 0.825,-0.29865 5.21481,-1.98851 9.75514,-3.75524 z"
         id="path4602"
         inkscape:connector-curvature="0" />
      <path
         style="fill:#bebebe"
         d="m 746.61901,-764.22106 c -24.92343,-5.38502 -46.31894,-24.19282 -54.29648,-47.72952 l -2.75576,-8.13052 0,-165.5 0,-165.5 3.08529,-8.6178 c 6.29614,-17.5862 19.37367,-32.3399 35.82582,-40.4176 17.42541,-8.5556 7.03091,-7.9646 140.08889,-7.9646 111.13242,0 118.3783,0.1061 124.5,1.8228 20.84293,5.845 37.94343,19.7223 47.04453,38.1772 8.0705,16.365 7.4555,1.31 7.4555,182.5 0,151.631 -0.1086,161.8972 -1.7768,168 -5.7248,20.94298 -19.3741,37.73894 -38.2232,47.03476 -16.1999,7.9893 -5.9504,7.41818 -137.00003,7.63387 -100.79376,0.16589 -117.96237,-0.0154 -123.94776,-1.30859 z m 235.44776,-3.39353 c 29.44763,-3.81539 53.81743,-25.30424 59.50063,-52.46651 2.2015,-10.52155 2.1971,-320.5423 0,-330.9356 -5.046,-23.8219 -25.2733,-44.2415 -50.11887,-50.5959 -7.43782,-1.9023 -11.58744,-1.9685 -123.37676,-1.9685 -111.85925,0 -115.93475,0.065 -123.39052,1.972 -23.63892,6.0458 -42.60759,24.5579 -49.28582,48.0994 -1.73081,6.1013 -1.82366,14.6508 -1.82366,167.9286 0,153.15058 0.0941,161.83157 1.81972,167.91342 7.71498,27.1906 30.86297,46.79069 59.18028,50.10969 9.44997,1.1076 218.91675,1.05549 227.5,-0.0566 z m -73.5,-75.0546 c -2.75,-0.44154 -9.725,-3.21971 -15.5,-6.17372 -45.57494,-23.31235 -50.83791,-26.30028 -49.2038,-27.93439 1.2835,-1.2835 14.30952,-1.29925 19.83313,-0.024 l 4.12933,0.95336 -2.38413,-3.51321 c -2.3137,-3.40943 -5.35878,-11.96949 -5.38984,-15.15147 -0.035,-3.58767 -1.40182,-4.18543 -5.92283,-2.59033 -11.16075,3.93775 -21.86956,3.70945 -25.31186,-0.5396 -3.00227,-3.7059 -2.19307,-4.65785 5,-5.88206 8.41982,-1.43298 22.4618,-5.06128 23.61188,-6.10106 0.47404,-0.42857 0.54506,-4.35831 0.15783,-8.73276 l -0.70405,-7.95356 -10.37859,3.36544 c -13.009,4.21839 -19.43952,4.45389 -23.04928,0.84413 -1.50547,-1.50547 -2.39369,-3.38921 -2.20455,-4.67545 0.26699,-1.81569 2.28072,-2.77068 12.81676,-6.07819 6.875,-2.15823 12.67405,-4.09083 12.88678,-4.29467 0.21273,-0.20384 -2.26227,-3.62709 -5.5,-7.60723 -3.23773,-3.98013 -6.35469,-7.85132 -6.92657,-8.60264 -0.85273,-1.1203 -2.66338,-0.65158 -10.06475,2.60546 -15.34856,6.75425 -31.50533,15.18723 -30.91799,16.13756 0.30783,0.49808 3.63977,5.00724 7.40433,10.02037 15.20226,20.24432 29.06641,46.84842 29.10138,55.84301 0.0346,8.89129 -8.63263,12.78704 -18.48771,8.30991 -5.32907,-2.42096 -12.59659,-10.54927 -21.74588,-24.32151 -20.16346,-30.35164 -37.31764,-62.37258 -38.42557,-71.72725 l -0.63879,-5.39361 4.15469,0.55726 c 5.80035,0.77799 15.6675,5.63409 22.04045,10.84716 2.9592,2.42063 6.18983,4.99736 7.17917,5.72608 1.57811,1.16239 3.61706,0.33318 16.61962,-6.75897 8.15146,-4.44614 16.73334,-8.816 19.07084,-9.71079 2.3375,-0.89479 4.25,-2.02567 4.25,-2.51306 0,-1.38338 -8.79204,-6.61632 -13.895,-8.27017 -2.53275,-0.82085 -8.78059,-2.20146 -13.88409,-3.06802 -12.01007,-2.03926 -13.81367,-2.78765 -16.21671,-6.729 -2.44334,-4.00745 -2.68139,-10.30109 -0.42241,-11.16794 5.59174,-2.14576 23.73373,1.44621 34.89389,6.90871 4.1209,2.01703 10.24783,6.34482 14.82303,10.47034 6.24215,5.62862 8.14725,6.84566 9.54495,6.09763 0.96043,-0.514 11.17601,-4.16436 22.70129,-8.11189 24.36082,-8.34386 27.6134,-9.62204 28.65469,-11.26057 1.15268,-1.8138 0.95827,-4.113 -0.51856,-6.13268 -1.26348,-1.72792 -1.92032,-1.68815 -15.62739,0.94621 -9.21008,1.77009 -14.7903,3.32457 -15.66073,4.36261 -0.74374,0.88696 -3.49892,4.73269 -6.12261,8.54607 -6.08854,8.84932 -7.57553,9.46553 -5.7268,2.3732 1.27363,-4.88605 6.45645,-33.10052 6.45645,-35.14792 0,-0.4905 -1.0125,-0.655 -2.25,-0.3655 -19.07019,4.4614 -35.50769,5.9772 -39.81574,3.6716 -2.40796,-1.2887 -2.49412,-4.1716 -0.18426,-6.1652 0.9625,-0.8307 5.8,-2.2947 10.75,-3.2532 9.64787,-1.8682 21.80773,-5.4634 29.20968,-8.6363 l 4.56832,-1.9582 -0.59721,-13.726 c -0.50597,-11.6288 -1.35138,-16.9344 -5.53337,-34.7259 l -4.93615,-21 7.60897,-9.5 c 11.61764,-14.5049 16.09067,-19 18.90679,-19 4.70798,0 25.6313,23.4333 29.77208,33.3436 0.82549,1.9757 1.50089,5.207 1.50089,7.1806 0,4.288 -2.64992,7.0097 -14.24442,14.6304 -6.46218,4.2474 -7.90146,5.6908 -8.69295,8.7178 -3.77567,14.4397 -5.0844,20.4392 -4.57067,20.9529 0.32652,0.3265 5.43427,-4.4506 11.35056,-10.6158 5.91629,-6.1652 11.08995,-11.2095 11.49702,-11.2095 1.73614,0 9.57869,4.608 14.77521,8.6813 6.59141,5.1668 9.92767,10.4426 8.2677,13.0742 -2.29731,3.642 -15.44529,10.0647 -38.38245,18.7496 -13.48715,5.1068 -13.5011,5.1154 -14.65873,9.0533 -0.6373,2.1679 -2.2671,7.639 -3.62177,12.1582 -2.85087,9.51028 -4.08493,9.3959 10.2805,0.9528 13.13797,-7.7217 21.81561,-13.8323 30,-21.1253 4.125,-3.6758 9.16957,-7.5519 11.21016,-8.6136 7.17121,-3.7314 15.34491,-1.6181 21.6891,5.6075 2.57228,2.9297 3.14941,4.3776 2.90532,7.289 -0.26548,3.1667 -1.01055,4.0995 -5.80458,7.267 -5.39783,3.5665 -14.61286,12.62647 -13.73521,13.50412 0.24536,0.24536 3.32365,-0.23219 6.84066,-1.06122 15.73092,-3.7081 23.92679,-0.4224 41.02597,16.44746 10.72287,10.57903 16.86858,19.76317 16.86858,25.20838 0,7.19073 -10.44041,30.78089 -30.45235,68.80726 -14.99266,28.48882 -19.34411,35.74548 -24.68326,41.16289 -4.52092,4.5872 -5.1855,4.87645 -14.36439,6.25208 -1.1,0.16485 -4.25,-0.0615 -7,-0.50306 z m -3.06189,-33.29691 c 13.40312,-10.22305 35.86702,-58.15578 37.27236,-79.53052 0.47573,-7.23565 0.35923,-7.77493 -2.53309,-11.72531 -4.81256,-6.57308 -12.32187,-9.71395 -24.38262,-10.19838 -11.28487,-0.45326 -8.60325,-2.30152 -22.84783,15.74752 -4.52307,5.7311 -7.3679,10.08183 -6.33066,9.68178 6.81961,-2.63019 17.29432,-4.75705 21.45797,-4.35698 7.01796,0.67434 14.34997,4.61238 14.73212,7.91266 0.26672,2.30338 -0.25092,2.8533 -4,4.24952 -2.3685,0.88207 -9.25636,2.74238 -15.30636,4.13402 -6.05,1.39164 -16.09609,3.9274 -22.32464,5.63502 -10.35319,2.83844 -11.28151,3.28624 -10.82192,5.22022 0.27649,1.1635 1.0343,4.88052 1.68401,8.26006 l 1.18129,6.1446 5.42014,-2.48142 c 2.98107,-1.36478 9.34436,-4.68418 14.14063,-7.37643 9.48301,-5.32304 13.61009,-6.0489 19.76667,-3.47651 4.06158,1.69704 5.23183,3.89559 3.3157,6.22925 -1.65804,2.01932 -13.50129,7.52506 -28.55665,13.27552 l -11.19477,4.27589 0.55228,11.63224 c 0.31961,6.73184 0.13617,12.68545 -0.43543,14.13225 -0.54324,1.375 -1.15412,2.94558 -1.35751,3.49018 -0.60952,1.63207 5.0081,2.38795 16.22175,2.18273 9.97128,-0.18247 10.81146,-0.36156 14.34656,-3.05791 z m -36.68297,-68.90275 8.25514,-3.21225 3.13138,-7.5 c 1.72227,-4.125 3.92989,-9.81649 4.90583,-12.64775 l 1.77443,-5.14775 -7.16096,2.02255 c -7.51882,2.12363 -24.86174,8.00879 -30.42864,10.32569 l -3.26767,1.35998 4.01544,5.29364 c 2.20849,2.9115 4.80395,7.2085 5.76768,9.54889 1.22706,2.97988 2.2018,4.0925 3.25223,3.71224 0.825,-0.29865 5.21481,-1.98851 9.75514,-3.75524 z"
         id="path4600"
         inkscape:connector-curvature="0" />
      <path
         style="fill:#7f7f7f"
         d="m 746.61901,-764.22106 c -24.92343,-5.38502 -46.31894,-24.19282 -54.29648,-47.72952 l -2.75576,-8.13052 0,-165.5 0,-165.5 3.08529,-8.6178 c 6.29614,-17.5862 19.37367,-32.3399 35.82582,-40.4176 17.42541,-8.5556 7.03091,-7.9646 140.08889,-7.9646 111.13242,0 118.3783,0.1061 124.5,1.8228 20.84293,5.845 37.94343,19.7223 47.04453,38.1772 8.0705,16.365 7.4555,1.31 7.4555,182.5 0,151.631 -0.1086,161.8972 -1.7768,168 -5.7248,20.94298 -19.3741,37.73894 -38.2232,47.03476 -16.1999,7.9893 -5.9504,7.41818 -137.00003,7.63387 -100.79376,0.16589 -117.96237,-0.0154 -123.94776,-1.30859 z m 245.59129,-5.06165 c 25.2595,-7.14509 42.6506,-24.53349 48.8739,-48.8664 1.9361,-7.57034 1.9826,-11.49219 1.9826,-167.43199 0,-154.5293 -0.062,-159.9237 -1.9319,-167.2336 -5.017,-19.6165 -17.4905,-34.9719 -35.5681,-43.7862 -15.18714,-7.4049 -7.69616,-7.0432 -139.72499,-6.7462 l -118.27504,0.266 -8,2.8159 c -10.7767,3.7934 -21.02089,10.3481 -28.24933,18.0753 -7.14194,7.6347 -11.12354,14.3322 -14.9271,25.1088 l -2.82357,8 0,163 0,163 2.33157,7.5 c 3.48982,11.22579 8.56073,19.56232 17.08342,28.08501 11.23877,11.23877 24.3909,17.78319 39.80811,19.80829 3.7273,0.48959 57.4019,0.81749 119.2769,0.72868 112.04572,-0.16083 112.53087,-0.17021 120.14353,-2.32359 z m -83.12757,-73.54022 c -3.01622,-0.44499 -8.86622,-2.5111 -13,-4.59135 -14.6762,-7.38553 -47.55921,-24.77442 -50.34435,-26.62265 -2.51331,-1.66783 -2.63767,-1.98366 -1.11638,-2.83502 2.20442,-1.23365 14.9058,-1.05833 19.43817,0.26831 1.92137,0.5624 3.61525,1.02254 3.76419,1.02254 0.14893,0 -0.8356,-1.6875 -2.18784,-3.75 -1.35225,-2.0625 -3.37272,-7.07659 -4.48995,-11.14243 -1.11723,-4.06583 -2.1612,-7.5223 -2.31994,-7.68105 -0.15875,-0.15874 -3.43216,0.59566 -7.27425,1.67646 -3.84208,1.08079 -9.59417,2.01378 -12.78241,2.07331 -5.07784,0.0948 -6.16307,-0.2427 -8.75,-2.72113 -1.62426,-1.55614 -2.9532,-3.36701 -2.9532,-4.02417 0,-0.72177 3.72679,-1.86585 9.4131,-2.88969 5.1772,-0.93218 12.0397,-2.48349 15.25,-3.44736 l 5.8369,-1.75249 -0.2302,-8.31759 c -0.12661,-4.57468 -0.35161,-8.43243 -0.5,-8.57278 -0.14839,-0.14036 -4.3198,1.10755 -9.2698,2.77312 -4.95,1.66557 -11.7,3.24158 -15,3.50226 -5.65029,0.44633 -6.16567,0.29902 -8.84237,-2.52738 -4.70716,-4.97043 -3.6116,-6.10425 9.84237,-10.18597 6.6,-2.00234 12.56972,-3.83934 13.26604,-4.08221 1.30083,-0.45373 -12.16661,-17.9309 -13.81706,-17.9309 -1.27216,0 -26.46258,11.62672 -34.14178,15.75825 l -6.6928,3.60083 4.00022,4.77782 c 13.11482,15.66421 32.57816,49.95786 33.62508,59.24607 1.69584,15.04542 -15.14676,17.0436 -27.32591,3.2419 -12.39565,-14.04704 -44.36242,-67.39372 -49.34234,-82.34332 -2.85434,-8.56868 -2.76019,-11.28155 0.39153,-11.28155 5.87118,0 18.45894,6.77796 27.70868,14.9199 l 4.41826,3.88911 9.08113,-5.15451 c 4.99462,-2.83497 13.63689,-7.38655 19.20504,-10.11461 5.56815,-2.72807 10.12391,-5.31274 10.12391,-5.74373 0,-1.59054 -8.48373,-6.86262 -13.41365,-8.3357 -2.79749,-0.83591 -9.31536,-2.20431 -14.48416,-3.0409 -11.31403,-1.83122 -14.31959,-3.25058 -16.46735,-7.77664 -3.94525,-8.31401 -1.23971,-11.26516 9.41942,-10.27449 14.75644,1.37146 27.50202,7.00745 39.6274,17.52291 l 8.18165,7.09535 8.81835,-3.32655 c 4.85008,-1.82961 16.61377,-5.96772 26.14151,-9.19581 18.45631,-6.25317 19.83568,-7.18813 18.63952,-12.63418 -0.77311,-3.51999 0.0209,-3.53433 -20.31489,0.36685 l -11.35221,2.17779 -4.38624,6.5626 c -5.53912,8.28753 -8.3598,11.84158 -8.38306,10.56261 -0.01,-0.55 1.29152,-7.75 2.89228,-16 1.60077,-8.25 3.20526,-17.2832 3.56555,-20.0738 l 0.65508,-5.0737 -9.3196,2.3982 c -10.65561,2.7421 -27.88022,4.0186 -32.0696,2.3766 -3.16433,-1.2402 -3.61965,-4.0952 -1,-6.2704 0.9625,-0.7992 5.8,-2.2434 10.75,-3.2094 11.08571,-2.1634 21.23032,-5.1112 28.20587,-8.1961 l 5.29413,-2.3413 0,-10.6903 c 0,-11.0465 -1.85562,-22.0714 -7.85298,-46.6571 l -2.85156,-11.6897 6.47427,-8.2865 c 8.32705,-10.6579 18.21878,-20.7865 20.30034,-20.7865 1.93323,0 19.19614,17.5659 23.58598,24 4.87049,7.1385 7.34395,12.6475 7.34395,16.3566 0,4.5129 -3.57187,7.6672 -21.86695,19.3104 -0.20181,0.1285 -1.84644,6.4434 -3.65472,14.0333 l -3.28778,13.7997 11.83482,-12.2926 11.83482,-12.2927 3.67787,1.5367 c 7.52516,3.1443 20.46194,14.5324 20.46194,18.0125 0,0.802 -1.0125,2.4178 -2.25,3.5907 -3.23473,3.0658 -22.11692,11.9637 -37.25,17.5535 -7.15,2.641 -13.15124,4.8983 -13.33608,5.0163 -0.18484,0.1179 -1.45278,4.6121 -2.81763,9.9871 -1.36486,5.375 -2.93758,10.62482 -3.49494,11.66626 -0.55737,1.04144 -0.81252,2.0944 -0.56701,2.33991 0.5759,0.57591 18.08802,-9.50237 27.47581,-15.81237 3.99308,-2.684 11.19308,-8.2881 16,-12.4537 12.59772,-10.9169 16.67401,-12.2562 25.01399,-8.2189 5.0682,2.4535 10.22586,8.9301 10.22586,12.8408 0,2.1851 -1.26504,3.5378 -6.92435,7.4047 -5.65315,3.8626 -14.07565,12.155 -14.07565,13.85822 0,0.2199 3.0375,-0.39239 6.75,-1.36065 15.82153,-4.12647 23.40311,-1.43897 39.48399,13.99581 12.36132,11.86469 18.84694,20.65963 19.49517,26.43677 0.67378,6.00492 -4.01738,17.19508 -22.71836,54.19165 -22.1195,43.75951 -28.67095,54.65467 -35.81635,59.56319 -4.10472,2.81973 -10.03109,3.74946 -17.17849,2.69498 z m -7.89117,-30.77618 c 6.85244,-1.9034 15.24658,-12.75895 25.11695,-32.48199 10.08894,-20.15981 16.73705,-41.09366 16.75125,-52.74712 0.006,-5.17732 -0.3429,-6.13443 -3.52231,-9.65365 -5.63986,-6.24265 -11.19418,-8.33565 -23.56076,-8.87828 l -10.59009,-0.46467 -8.11006,10.37186 c -4.46054,5.70452 -9.25132,11.78479 -10.64618,13.5117 l -2.53612,3.13984 8.98632,-2.88984 c 11.37687,-3.6586 15.36477,-3.64495 23.58157,0.0807 5.57155,2.52626 6.50308,3.3101 6.22805,5.24063 -0.42316,2.97022 -3.43998,4.31978 -16.5365,7.39753 -12.25363,2.87966 -35.45253,9.22355 -36.10104,9.87206 -0.23683,0.23684 0.41196,4.11932 1.44176,8.62775 l 1.87237,8.19713 14.74427,-7.65283 c 8.10935,-4.20903 15.86274,-7.65281 17.22976,-7.65281 3.60149,0 10.26949,2.88924 10.98774,4.76098 0.35026,0.91276 -0.15581,2.36631 -1.17282,3.36858 -1.87815,1.85091 -19.47219,9.60895 -32.36947,14.27323 l -7.58051,2.74148 0.7709,4.67786 c 1.28401,7.79137 0.96411,19.42448 -0.60987,22.17787 -0.78602,1.375 -1.44508,2.80761 -1.46456,3.18358 -0.0894,1.72506 21.46609,2.36038 27.08935,0.79841 z m -33.14596,-70.78362 9.47884,-3.73994 4.84642,-12.32063 c 2.66553,-6.77634 4.63359,-12.53345 4.37348,-12.79357 -0.62317,-0.62316 -40.67757,12.72365 -40.67757,13.55447 0,0.35236 2.02127,3.3318 4.49172,6.62097 2.47044,3.28918 4.98034,7.44283 5.57755,9.23033 0.59721,1.7875 1.38844,3.23612 1.75828,3.21915 0.36985,-0.017 4.93793,-1.71382 10.15128,-3.77078 z"
         id="path4598"
         inkscape:connector-curvature="0" />
      <path
         style="fill:#404040"
         d="m 752.28593,-763.66886 c -16.06721,-1.90788 -30.79996,-9.25604 -42.73392,-21.31412 -8.85808,-8.95022 -13.76804,-17.18706 -17.64338,-29.59812 l -2.34186,-7.5 0,-163 c 0,-183.2567 -0.65503,-167.5039 7.67128,-184.4876 3.28747,-6.7057 5.85827,-10.1698 12.24505,-16.5 9.19249,-9.1111 17.52863,-14.3529 29.08367,-18.288 l 8,-2.7244 119,-0.2964 c 133.87534,-0.3335 125.26985,-0.7756 142.00003,7.2959 17.7607,8.5688 30.2873,22.9197 36.6615,42.0005 l 2.3385,7 0.2809,162.5 c 0.3139,181.62333 0.7463,169.82329 -6.7963,185.5 -8.7958,18.28126 -25.5026,31.76131 -46.84898,37.80057 -7.60416,2.15134 -8.10172,2.1609 -120.63565,2.31824 -62.15,0.0869 -116.27638,-0.23106 -120.28084,-0.70657 z m 243.28084,-6.22001 c 11.22223,-3.93867 20.85413,-9.93118 28.47293,-17.71439 11.3452,-11.59014 17.2,-23.94604 19.0754,-40.25693 0.7166,-6.23255 0.9566,-59.45416 0.7404,-164.22091 -0.2973,-144.0845 -0.443,-155.4225 -2.0693,-161 -5.8916,-20.2055 -18.8998,-35.3857 -38.2194,-44.6007 -15.15956,-7.2307 -10.38459,-7.0011 -139.00003,-6.6834 l -115,0.2841 -7,2.3487 c -12.73465,4.2727 -20.35545,8.95 -29.52838,18.1229 -9.7846,9.7846 -14.88789,18.4711 -17.99962,30.6379 -1.92224,7.5159 -1.972,11.7395 -1.972,167.3905 0,155.651 0.0498,159.87463 1.972,167.39052 3.11853,12.19335 8.18956,20.86009 17.97856,30.72666 7.23053,7.28783 10.01499,9.32351 18.04944,13.19571 16.53102,7.96711 9.00198,7.57088 140,7.36776 l 116.5,-0.18065 8,-2.80777 z m -90.5,-74.04598 c -2.475,-0.67031 -9,-3.63779 -14.5,-6.59438 -5.5,-2.95659 -16.84202,-8.85756 -25.20449,-13.11325 -8.36247,-4.25569 -16.62527,-8.74931 -18.36178,-9.98581 -2.83064,-2.01559 -2.97519,-2.3501 -1.39714,-3.23322 1.70857,-0.95617 14.06059,-0.41142 19.60732,0.86472 l 2.64392,0.60828 -2.87682,-5.70332 c -1.58225,-3.13682 -3.42454,-8.35516 -4.09399,-11.59629 -0.66944,-3.24114 -1.68964,-5.88239 -2.2671,-5.86944 -0.57745,0.0129 -4.39449,0.91294 -8.48229,2 -12.77083,3.3961 -20.77528,2.02641 -22.30322,-3.81642 -0.41918,-1.60294 0.50288,-1.98772 7.12706,-2.97418 4.18469,-0.62318 11.16864,-2.16803 15.5199,-3.433 l 7.91136,-2.29994 -0.23115,-8.48646 c -0.12714,-4.66755 -0.40684,-8.66213 -0.62156,-8.87685 -0.21472,-0.21472 -4.74886,1.02046 -10.07587,2.74484 -5.327,1.72438 -12.07045,3.41555 -14.98544,3.75815 -4.98385,0.58575 -5.48703,0.43584 -8.43607,-2.5132 -5.06728,-5.06728 -4.55542,-5.50851 12.35193,-10.64766 8.61546,-2.61875 11.58107,-3.91778 10.92735,-4.78651 -0.49347,-0.65577 -3.73409,-4.71427 -7.20138,-9.01889 -5.65478,-7.02037 -6.57438,-7.75994 -8.92735,-7.17963 -1.44276,0.35583 -10.85864,4.64575 -20.92418,9.53316 l -18.30099,8.88621 4.92609,6.29342 c 7.88492,10.07353 19.99283,29.06363 25.73031,40.35555 8.95668,17.62761 9.41319,25.88215 1.61165,29.14184 -7.17588,2.99827 -16.15942,-1.11122 -23.91184,-10.93841 -10.46211,-13.26205 -31.41971,-47.168 -41.19283,-66.6432 -5.59259,-11.14453 -8.87417,-21.70959 -7.24819,-23.33557 2.62315,-2.62315 18.51808,4.98166 28.8356,13.79619 l 5.26398,4.49716 4.17154,-2.63337 c 4.41922,-2.78974 31.37279,-16.82733 33.91567,-17.66351 1.18553,-0.38984 0.97588,-0.95556 -1,-2.69843 -4.67911,-4.12731 -14.27115,-7.94581 -24,-9.55416 -14.53595,-2.40305 -17.55156,-3.78959 -19.53444,-8.98167 -2.73678,-7.16618 -2.10027,-8.00227 6.35224,-8.34396 14.32351,-0.57903 29.68113,5.4326 42.98552,16.82636 l 8.30332,7.11089 12.69668,-4.57602 c 6.98317,-2.51681 18.99668,-6.75449 26.69668,-9.41706 15.00259,-5.18772 15.58683,-5.68278 14.02947,-11.8878 -0.61214,-2.43896 -0.85373,-2.51243 -6.3667,-1.93621 -3.15173,0.32942 -10.2152,1.56425 -15.6966,2.74407 l -9.96617,2.14513 -5.8384,8.97106 c -3.21112,4.93409 -6.01317,8.79631 -6.22677,8.58271 -0.21359,-0.2136 0.69029,-5.53632 2.00863,-11.82827 3.04827,-14.5483 5.44703,-29.945 4.66187,-29.9228 -0.33293,0.01 -3.98033,0.8972 -8.10533,1.9728 -11.14048,2.9049 -25.71178,4.522 -30.5,3.385 -3.55276,-0.8437 -4,-1.2812 -4,-3.9124 0,-2.6459 0.42749,-3.0546 4,-3.8246 14.29372,-3.0808 26.02089,-6.2302 32.61398,-8.7585 l 7.61398,-2.9199 0.61928,-6.2297 c 0.92107,-9.2657 -0.66502,-21.1331 -5.76869,-43.162 -2.5182,-10.8693 -4.57855,-20.1391 -4.57855,-20.5996 0,-2.8951 23.22842,-28.9682 25.80767,-28.9682 1.96117,0 13.46512,11.2265 20.49419,20 6.65543,8.3071 10.67348,15.9778 10.68837,20.4048 0.0123,3.6627 -4.98322,8.5789 -15.16701,14.9262 l -7.36572,4.5909 -3.25564,13.1788 c -1.79061,7.2484 -3.08631,13.3482 -2.87934,13.5552 0.20698,0.2069 5.37796,-4.806 11.49107,-11.1398 6.11312,-6.3339 11.91838,-11.5119 12.90058,-11.5067 4.95613,0.026 20.33915,11.8362 22.13792,16.9962 0.89669,2.5722 0.74272,3.294 -1.06117,4.9746 -3.18272,2.9651 -17.0823,9.4726 -35.04176,16.4057 l -16.0855,6.2097 -2.78572,10.6818 c -1.53214,5.875 -3.28691,11.61825 -3.89948,12.76284 -1.09394,2.04406 -1.05821,2.05236 2.00804,0.46674 4.65872,-2.40912 22.88691,-13.38348 27.86026,-16.77338 2.39072,-1.6296 8.16999,-6.2963 12.84282,-10.3705 10.12335,-8.8266 13.42913,-10.6844 19.02363,-10.6913 8.30938,-0.01 18.54937,9.4395 16.89566,15.5917 -0.33919,1.2618 -3.25192,3.9797 -6.68367,6.2365 -5.57249,3.6646 -14.75314,13.0054 -13.75927,13.99927 0.23057,0.23056 3.09721,-0.28012 6.37033,-1.13485 3.69399,-0.96462 8.79811,-1.42312 13.45743,-1.20872 7.01774,0.3229 7.96494,0.65072 14.55267,5.03626 13.34112,8.88139 31.4168,29.91485 31.44426,36.58959 0.0258,6.27222 -11.74383,32.65064 -30.57016,68.51469 -22.9387,43.6981 -26.43923,47.82306 -40.42046,47.63069 -2.475,-0.0341 -6.525,-0.61036 -9,-1.28068 z m -6.09568,-28.71915 c 4.25729,-0.91303 5.8665,-2.00418 10.79922,-7.32263 7.06141,-7.61361 13.71542,-18.56141 20.43715,-33.62512 9.74959,-21.84929 15.16639,-42.48884 12.92973,-49.26597 -1.23354,-3.73768 -6.9943,-9.70117 -11.61289,-12.02156 -4.68607,-2.3543 -14.8756,-3.85768 -21.22673,-3.13184 l -5.7308,0.65495 -5.71285,7.64253 c -3.14207,4.2034 -7.8619,10.31937 -10.4885,13.59105 -2.7539,3.43024 -4.02589,5.6608 -3.00462,5.2689 7.0963,-2.7231 17.00797,-5.10516 21.20597,-5.09641 6.36261,0.0133 16.5,4.57568 16.5,7.42594 0,2.80864 -3.73754,4.27567 -21.5,8.43904 -8.8,2.06265 -19.4875,4.84169 -23.75,6.17565 -6.62181,2.07231 -7.74481,2.74659 -7.71438,4.63188 0.0406,2.51511 2.59469,13.67014 3.28891,14.36435 0.52292,0.52293 8.17478,-3.10946 20.96833,-9.95382 4.83608,-2.58722 9.59341,-4.70404 10.57186,-4.70404 0.97845,0 3.88416,0.7173 6.45714,1.594 3.82068,1.30184 4.67814,2.03191 4.67814,3.98316 0,2.95839 -4.07247,5.13394 -25.25188,13.48978 -8.31022,3.27861 -15.25032,6.10193 -15.42244,6.27405 -0.17213,0.17212 0.16166,4.09807 0.74174,8.72432 1.18868,9.47991 0.47854,17.24587 -1.78388,19.50829 -1.94806,1.94807 -1.73132,2.11443 4.23838,3.25315 6.9458,1.32491 14.49907,1.3621 20.3824,0.10035 z m -19.99413,-78.81531 c 3.11357,-6.21365 8.40445,-21.13048 7.73298,-21.80195 -0.61812,-0.61813 -23.40022,6.43477 -35.60034,11.02118 l -5.93735,2.23203 3.94022,4.96848 c 2.16712,2.73266 4.90221,7.2731 6.07798,10.08987 l 2.13775,5.12141 9.91947,-4.00962 c 8.747,-3.53568 10.13339,-4.43652 11.72929,-7.6214 z"
         id="path4596"
         inkscape:connector-curvature="0" />
      <path
         style="fill:#3f3f3f"
         d="m 752.72729,-763.69287 c -29.55981,-3.88473 -53.39054,-24.43062 -61.34389,-52.88823 -1.72139,-6.15921 -1.81663,-15.01974 -1.81663,-169 0,-154.4683 0.0905,-162.8213 1.83103,-169 5.81873,-20.6559 19.19525,-36.4559 39.02278,-46.0926 15.07135,-7.3251 8.33084,-7.0045 140.64619,-6.6895 l 118.5,0.2821 8,2.8078 c 18.87343,6.624 33.79843,19.3714 41.90223,35.7886 8.0741,16.3569 7.563,3.9978 7.563,182.9036 0,178.50331 0.48,166.61345 -7.3661,182.5 -9.2017,18.63153 -25.7819,31.89713 -47.59913,38.08345 -6.1239,1.73645 -13.03838,1.85352 -119.5,2.02336 -62.32169,0.0994 -116.06738,-0.22285 -119.83948,-0.71858 z m 242.83948,-6.196 c 11.22223,-3.93867 20.85413,-9.93118 28.47293,-17.71439 11.3452,-11.59014 17.2,-23.94604 19.0754,-40.25693 0.7166,-6.23255 0.9566,-59.45416 0.7404,-164.22091 -0.2973,-144.0845 -0.443,-155.4225 -2.0693,-161 -5.8916,-20.2055 -18.8998,-35.3857 -38.2194,-44.6007 -15.15956,-7.2307 -10.38459,-7.0011 -139.00003,-6.6834 l -115,0.2841 -7,2.3487 c -12.73465,4.2727 -20.35545,8.95 -29.52838,18.1229 -9.7846,9.7846 -14.88789,18.4711 -17.99962,30.6379 -1.92224,7.5159 -1.972,11.7395 -1.972,167.3905 0,155.651 0.0498,159.87463 1.972,167.39052 3.11853,12.19335 8.18956,20.86009 17.97856,30.72666 7.23053,7.28783 10.01499,9.32351 18.04944,13.19571 16.53102,7.96711 9.00198,7.57088 140,7.36776 l 116.5,-0.18065 8,-2.80777 z m -90.5,-74.04598 c -2.475,-0.67031 -9,-3.63779 -14.5,-6.59438 -5.5,-2.95659 -16.84202,-8.85756 -25.20449,-13.11325 -8.36247,-4.25569 -16.62527,-8.74931 -18.36178,-9.98581 -2.83064,-2.01559 -2.97519,-2.3501 -1.39714,-3.23322 1.70857,-0.95617 14.06059,-0.41142 19.60732,0.86472 l 2.64392,0.60828 -2.87682,-5.70332 c -1.58225,-3.13682 -3.42454,-8.35516 -4.09399,-11.59629 -0.66944,-3.24114 -1.68964,-5.88239 -2.2671,-5.86944 -0.57745,0.0129 -4.39449,0.91294 -8.48229,2 -12.77083,3.3961 -20.77528,2.02641 -22.30322,-3.81642 -0.41918,-1.60294 0.50288,-1.98772 7.12706,-2.97418 4.18469,-0.62318 11.16864,-2.16803 15.5199,-3.433 l 7.91136,-2.29994 -0.23115,-8.48646 c -0.12714,-4.66755 -0.40684,-8.66213 -0.62156,-8.87685 -0.21472,-0.21472 -4.74886,1.02046 -10.07587,2.74484 -5.327,1.72438 -12.07045,3.41555 -14.98544,3.75815 -4.98385,0.58575 -5.48703,0.43584 -8.43607,-2.5132 -5.06728,-5.06728 -4.55542,-5.50851 12.35193,-10.64766 8.61546,-2.61875 11.58107,-3.91778 10.92735,-4.78651 -0.49347,-0.65577 -3.73409,-4.71427 -7.20138,-9.01889 -5.65478,-7.02037 -6.57438,-7.75994 -8.92735,-7.17963 -1.44276,0.35583 -10.85864,4.64575 -20.92418,9.53316 l -18.30099,8.88621 4.92609,6.29342 c 7.88492,10.07353 19.99283,29.06363 25.73031,40.35555 8.95668,17.62761 9.41319,25.88215 1.61165,29.14184 -7.17588,2.99827 -16.15942,-1.11122 -23.91184,-10.93841 -10.46211,-13.26205 -31.41971,-47.168 -41.19283,-66.6432 -5.59259,-11.14453 -8.87417,-21.70959 -7.24819,-23.33557 2.62315,-2.62315 18.51808,4.98166 28.8356,13.79619 l 5.26398,4.49716 4.17154,-2.63337 c 4.41922,-2.78974 31.37279,-16.82733 33.91567,-17.66351 1.18553,-0.38984 0.97588,-0.95556 -1,-2.69843 -4.67911,-4.12731 -14.27115,-7.94581 -24,-9.55416 -14.53595,-2.40305 -17.55156,-3.78959 -19.53444,-8.98167 -2.73678,-7.16618 -2.10027,-8.00227 6.35224,-8.34396 14.32351,-0.57903 29.68113,5.4326 42.98552,16.82636 l 8.30332,7.11089 12.69668,-4.57602 c 6.98317,-2.51681 18.99668,-6.75449 26.69668,-9.41706 15.00259,-5.18772 15.58683,-5.68278 14.02947,-11.8878 -0.61214,-2.43896 -0.85373,-2.51243 -6.3667,-1.93621 -3.15173,0.32942 -10.2152,1.56425 -15.6966,2.74407 l -9.96617,2.14513 -5.8384,8.97106 c -3.21112,4.93409 -6.01317,8.79631 -6.22677,8.58271 -0.21359,-0.2136 0.69029,-5.53632 2.00863,-11.82827 3.04827,-14.5483 5.44703,-29.945 4.66187,-29.9228 -0.33293,0.01 -3.98033,0.8972 -8.10533,1.9728 -11.14048,2.9049 -25.71178,4.522 -30.5,3.385 -3.55276,-0.8437 -4,-1.2812 -4,-3.9124 0,-2.6459 0.42749,-3.0546 4,-3.8246 14.29372,-3.0808 26.02089,-6.2302 32.61398,-8.7585 l 7.61398,-2.9199 0.61928,-6.2297 c 0.92107,-9.2657 -0.66502,-21.1331 -5.76869,-43.162 -2.5182,-10.8693 -4.57855,-20.1391 -4.57855,-20.5996 0,-2.8951 23.22842,-28.9682 25.80767,-28.9682 1.96117,0 13.46512,11.2265 20.49419,20 6.65543,8.3071 10.67348,15.9778 10.68837,20.4048 0.0123,3.6627 -4.98322,8.5789 -15.16701,14.9262 l -7.36572,4.5909 -3.25564,13.1788 c -1.79061,7.2484 -3.08631,13.3482 -2.87934,13.5552 0.20698,0.2069 5.37796,-4.806 11.49107,-11.1398 6.11312,-6.3339 11.91838,-11.5119 12.90058,-11.5067 4.95613,0.026 20.33915,11.8362 22.13792,16.9962 0.89669,2.5722 0.74272,3.294 -1.06117,4.9746 -3.18272,2.9651 -17.0823,9.4726 -35.04176,16.4057 l -16.0855,6.2097 -2.78572,10.6818 c -1.53214,5.875 -3.28691,11.61825 -3.89948,12.76284 -1.09394,2.04406 -1.05821,2.05236 2.00804,0.46674 4.65872,-2.40912 22.88691,-13.38348 27.86026,-16.77338 2.39072,-1.6296 8.16999,-6.2963 12.84282,-10.3705 10.12335,-8.8266 13.42913,-10.6844 19.02363,-10.6913 8.30938,-0.01 18.54937,9.4395 16.89566,15.5917 -0.33919,1.2618 -3.25192,3.9797 -6.68367,6.2365 -5.57249,3.6646 -14.75314,13.0054 -13.75927,13.99927 0.23057,0.23056 3.09721,-0.28012 6.37033,-1.13485 3.69399,-0.96462 8.79811,-1.42312 13.45743,-1.20872 7.01774,0.3229 7.96494,0.65072 14.55267,5.03626 13.34112,8.88139 31.4168,29.91485 31.44426,36.58959 0.0258,6.27222 -11.74383,32.65064 -30.57016,68.51469 -22.9387,43.6981 -26.43923,47.82306 -40.42046,47.63069 -2.475,-0.0341 -6.525,-0.61036 -9,-1.28068 z m -6.09568,-28.71915 c 4.25729,-0.91303 5.8665,-2.00418 10.79922,-7.32263 7.06141,-7.61361 13.71542,-18.56141 20.43715,-33.62512 9.74959,-21.84929 15.16639,-42.48884 12.92973,-49.26597 -1.23354,-3.73768 -6.9943,-9.70117 -11.61289,-12.02156 -4.68607,-2.3543 -14.8756,-3.85768 -21.22673,-3.13184 l -5.7308,0.65495 -5.71285,7.64253 c -3.14207,4.2034 -7.8619,10.31937 -10.4885,13.59105 -2.7539,3.43024 -4.02589,5.6608 -3.00462,5.2689 7.0963,-2.7231 17.00797,-5.10516 21.20597,-5.09641 6.36261,0.0133 16.5,4.57568 16.5,7.42594 0,2.80864 -3.73754,4.27567 -21.5,8.43904 -8.8,2.06265 -19.4875,4.84169 -23.75,6.17565 -6.62181,2.07231 -7.74481,2.74659 -7.71438,4.63188 0.0406,2.51511 2.59469,13.67014 3.28891,14.36435 0.52292,0.52293 8.17478,-3.10946 20.96833,-9.95382 4.83608,-2.58722 9.59341,-4.70404 10.57186,-4.70404 0.97845,0 3.88416,0.7173 6.45714,1.594 3.82068,1.30184 4.67814,2.03191 4.67814,3.98316 0,2.95839 -4.07247,5.13394 -25.25188,13.48978 -8.31022,3.27861 -15.25032,6.10193 -15.42244,6.27405 -0.17213,0.17212 0.16166,4.09807 0.74174,8.72432 1.18868,9.47991 0.47854,17.24587 -1.78388,19.50829 -1.94806,1.94807 -1.73132,2.11443 4.23838,3.25315 6.9458,1.32491 14.49907,1.3621 20.3824,0.10035 z m -19.99413,-78.81531 c 3.11357,-6.21365 8.40445,-21.13048 7.73298,-21.80195 -0.61812,-0.61813 -23.40022,6.43477 -35.60034,11.02118 l -5.93735,2.23203 3.94022,4.96848 c 2.16712,2.73266 4.90221,7.2731 6.07798,10.08987 l 2.13775,5.12141 9.91947,-4.00962 c 8.747,-3.53568 10.13339,-4.43652 11.72929,-7.6214 z"
         id="path4594"
         inkscape:connector-curvature="0" />
      <path
         style="fill:#000000"
         d="m 752.72729,-763.69287 c -29.55981,-3.88473 -53.39054,-24.43062 -61.34389,-52.88823 -1.72139,-6.15921 -1.81663,-15.01974 -1.81663,-169 0,-154.4683 0.0905,-162.8213 1.83103,-169 5.81873,-20.6559 19.19525,-36.4559 39.02278,-46.0926 15.07135,-7.3251 8.33084,-7.0045 140.64619,-6.6895 l 118.5,0.2821 8,2.8078 c 18.87343,6.624 33.79843,19.3714 41.90223,35.7886 8.0741,16.3569 7.563,3.9978 7.563,182.9036 0,178.50331 0.48,166.61345 -7.3661,182.5 -9.2017,18.63153 -25.7819,31.89713 -47.59913,38.08345 -6.1239,1.73645 -13.03838,1.85352 -119.5,2.02336 -62.32169,0.0994 -116.06738,-0.22285 -119.83948,-0.71858 z m 236.13164,-4.44846 c 11.46647,-2.32106 24.32657,-8.92343 32.97207,-16.92784 12.3011,-11.38887 19.2914,-25.11912 21.3228,-41.88138 0.6214,-5.12711 0.8669,-65.94202 0.6646,-164.63055 -0.3022,-147.4155 -0.4255,-156.8483 -2.1249,-162.5 -6.6908,-22.2519 -23.6318,-39.6149 -46.12673,-47.2756 l -8,-2.7244 -118.5,0 c -111.46075,0 -118.88612,0.1079 -125,1.8166 -20.12594,5.6248 -37.00462,19.6207 -45.16786,37.4534 -6.19198,13.5265 -5.88686,3.6073 -5.59685,181.94924 l 0.26471,162.78076 2.67921,7.3346 c 8.46263,23.16724 27.02025,39.32475 51.32079,44.68332 4.76983,1.05181 29.33055,1.33938 119.79216,1.40258 99.35554,0.0694 114.77004,-0.11844 121.5,-1.48073 z m -85.06863,-76.39352 c -3.17705,-1.01541 -11.05205,-4.77059 -17.5,-8.34485 -6.44794,-3.57426 -15.99853,-8.61823 -21.22353,-11.20881 -5.225,-2.59058 -12.16476,-6.31571 -15.42168,-8.27806 -4.99255,-3.0081 -5.62016,-3.68607 -4,-4.32094 3.07766,-1.206 11.44928,-0.97351 17.67168,0.49075 3.1625,0.7442 5.75,1.13963 5.75,0.87873 0,-0.2609 -1.1139,-1.79816 -2.47534,-3.41613 -2.46015,-2.92372 -5.04073,-10.03753 -6.15696,-16.97268 l -0.58358,-3.62573 -8.64206,2.42992 c -13.25924,3.72816 -21.85372,2.35619 -23.44875,-3.74321 -0.42073,-1.6089 0.0211,-1.93524 2.62037,-1.93524 1.71954,0 8.90711,-1.39807 15.97238,-3.10682 10.1539,-2.45573 12.72733,-3.41591 12.27994,-4.58178 -0.3113,-0.81124 -0.566,-4.99106 -0.566,-9.28851 l 0,-7.81353 -10.75,3.50572 c -12.61195,4.11293 -20.00472,4.7135 -23.1413,1.87993 -1.15978,-1.04774 -2.1087,-2.92961 -2.1087,-4.18193 0,-2.04231 1.33962,-2.69929 13,-6.3755 7.15,-2.25421 13,-4.34812 13,-4.65315 0,-0.30503 -3.2009,-4.45381 -7.11311,-9.21951 -4.45021,-5.42108 -7.70213,-8.53888 -8.68652,-8.32825 -2.452,0.52466 -30.61361,13.62942 -35.72021,16.62209 l -4.57023,2.67833 3.57993,4.68146 c 16.95788,22.17568 33.8117,52.55492 33.93924,61.17594 0.12194,8.24248 -5.13844,11.99383 -13.87986,9.89817 -4.08526,-0.97939 -6.20677,-2.37338 -11.11224,-7.30158 -9.49378,-9.53774 -34.37334,-48.53989 -45.98708,-72.09108 -4.89781,-9.93214 -8.00327,-20.34665 -6.5118,-21.83812 2.41799,-2.41799 17.93977,5.24521 27.89353,13.77123 2.93241,2.51179 5.53552,4.56689 5.78469,4.56689 0.24917,0 3.92493,-1.96735 8.16835,-4.37189 4.24342,-2.40454 12.89031,-6.95599 19.21531,-10.11433 6.325,-3.15835 11.72212,-5.95062 11.99361,-6.20505 1.00185,-0.93894 -6.65641,-6.3383 -11.73982,-8.27702 -2.88542,-1.10044 -10.29493,-2.89232 -16.46557,-3.98195 -12.61474,-2.22755 -15.4773,-3.7888 -17.46302,-9.52441 -2.21813,-6.40692 -1.26274,-7.52535 6.4283,-7.52535 14.57015,0 31.02445,6.67229 43.04319,17.4542 4.01317,3.60019 7.61317,6.54424 8,6.54233 0.72413,-0.004 46.49255,-15.88832 51.51095,-17.8778 2.54484,-1.00888 2.77884,-1.51111 2.5,-5.36589 -0.28889,-3.99367 -0.50598,-4.27196 -3.56221,-4.56654 -2.65271,-0.25569 -28.00657,4.20143 -28.81437,5.06546 -0.12765,0.13653 -2.55207,3.72476 -5.3876,7.97385 -2.83553,4.24908 -5.54091,7.96379 -6.01194,8.25491 -0.47104,0.29112 -0.19376,-2.2854 0.61618,-5.72561 1.70761,-7.25308 6.35463,-34.08591 5.96979,-34.47081 -0.14309,-0.143 -5.08615,0.8304 -10.98458,2.1632 -19.31278,4.3638 -31.77761,4.3246 -32.43117,-0.1021 -0.45138,-3.0574 1.60756,-4.1442 11.88838,-6.2752 10.54543,-2.1859 21.11913,-5.2929 28.02862,-8.236 l 4.61873,-1.9674 0.60515,-6.1833 c 0.93811,-9.5856 -0.76319,-22.4108 -5.83027,-43.9514 l -4.65012,-19.7681 6.7993,-8.7319 c 8.06356,-10.3555 17.43318,-20.2319 19.1938,-20.2319 0.69145,0 5.47691,4.2819 10.63434,9.5153 13.70299,13.905 21.64229,26.8385 20.14267,32.8134 -0.56966,2.2697 -10.84492,10.5719 -18.24181,14.7389 l -4.10947,2.3151 -3.14577,13.4701 c -1.73017,7.4085 -2.92049,13.6953 -2.64516,13.9707 0.27533,0.2753 5.58092,-4.7474 11.7902,-11.1615 6.20928,-6.4141 11.99159,-11.662 12.84959,-11.662 2.3484,0 12.79866,7.1002 17.6703,12.0056 5.85878,5.8995 5.52236,8.4005 -1.71014,12.7135 -6.21894,3.7086 -25.33224,11.9338 -38.05373,16.3761 l -8.70227,3.0389 -1.78959,7.6829 c -0.98428,4.2257 -2.62377,9.9062 -3.64332,12.6234 -1.01954,2.71721 -1.69277,5.10134 -1.49606,5.29805 0.42863,0.42862 17.47297,-9.31045 26.59489,-15.19625 3.575,-2.3067 9.37898,-6.6348 12.89772,-9.6181 17.11561,-14.5109 19.49926,-15.7577 26.45459,-13.8373 6.79628,1.8766 14.90401,11.1969 13.32335,15.316 -0.30365,0.7913 -3.21153,3.2447 -6.46195,5.4521 -5.5973,3.801 -15.74828,13.94387 -14.85204,14.84011 0.2294,0.22939 3.11932,-0.28314 6.42205,-1.13897 3.30273,-0.85582 9.10025,-1.55604 12.88338,-1.55604 6.13513,0 7.57534,0.4052 13.32795,3.75 11.93967,6.94216 32.01063,29.01335 33.59102,36.93864 0.95821,4.80518 -5.03282,19.08553 -22.57546,53.81136 -24.64948,48.79388 -30.35109,57.93354 -38.42963,61.6026 -5.15856,2.34288 -12.41504,2.32229 -19.85745,-0.0564 z m 0.0412,-29.42461 c 12.48045,-6.45389 35.68081,-53.21318 39.37954,-79.36771 0.98991,-6.99985 0.91236,-8.33224 -0.68028,-11.68848 -2.15961,-4.55105 -9.28195,-9.95842 -15.46403,-11.7405 -2.475,-0.71345 -8.51723,-1.28228 -13.42718,-1.26406 -8.65201,0.0321 -8.99107,0.12117 -11,2.88908 -1.14005,1.57077 -5.80702,7.56542 -10.37104,13.32143 -4.56403,5.75602 -8.12536,10.63835 -7.91408,10.84963 0.21128,0.21128 2.96024,-0.50216 6.1088,-1.58542 3.14857,-1.08327 8.35038,-2.44571 11.5596,-3.02765 5.10025,-0.92485 6.53544,-0.79598 11.39842,1.02349 3.05992,1.14486 6.57984,2.90456 7.82205,3.91044 1.99543,1.6158 2.09237,2.02913 0.83209,3.54767 -1.96742,2.3706 -4.31957,3.14831 -21.50866,7.11161 -8.25,1.90221 -18.6661,4.57043 -23.14688,5.92939 l -8.14688,2.47082 1.73755,8.00665 c 0.95565,4.40365 2.07538,8.34084 2.48829,8.74931 0.4129,0.40846 7.48184,-2.77571 15.70875,-7.07594 15.95754,-8.34105 17.15181,-8.59047 24.10917,-5.03528 6.44684,3.29431 3.01692,5.92854 -19.47783,14.95923 -17.78702,7.14074 -18.26698,7.40931 -18.07658,10.11508 0.10757,1.52876 0.33257,7.12576 0.5,12.43777 0.27278,8.65457 0.0757,9.96844 -1.89695,12.64371 l -2.20135,2.98551 5.70135,1.04416 c 7.6183,1.39522 22.24642,0.7136 25.96613,-1.20994 z m -31.11204,-71.83012 5.15273,-1.99464 4.02826,-10.14844 c 4.9947,-12.58313 5.8042,-15.64844 4.13254,-15.64844 -2.71157,0 -39.30217,12.11933 -40.78849,13.50973 -0.17724,0.16581 1.70489,2.93145 4.18253,6.14587 2.47763,3.21442 5.25009,7.73459 6.16101,10.04483 l 1.65622,4.20043 5.16125,-2.05736 c 2.8387,-1.13154 7.47999,-2.95493 10.31399,-4.05198 z"
         id="path4592"
         inkscape:connector-curvature="0" />
    </g>
  </g>
</svg>
