<?xml version="1.0" encoding="UTF-8" standalone="no"?>
<!-- Created with Inkscape (http://www.inkscape.org/) -->

<svg
   xmlns:dc="http://purl.org/dc/elements/1.1/"
   xmlns:cc="http://creativecommons.org/ns#"
   xmlns:rdf="http://www.w3.org/1999/02/22-rdf-syntax-ns#"
   xmlns:svg="http://www.w3.org/2000/svg"
   xmlns="http://www.w3.org/2000/svg"
   xmlns:sodipodi="http://sodipodi.sourceforge.net/DTD/sodipodi-0.dtd"
   xmlns:inkscape="http://www.inkscape.org/namespaces/inkscape"
   width="358.83469"
   height="445.47256"
   id="svg2"
   version="1.1"
   inkscape:version="0.91 r13725"
   sodipodi:docname="windeast.svg">
  <defs
     id="defs4" />
  <sodipodi:namedview
     id="base"
     pagecolor="#ffffff"
     bordercolor="#666666"
     borderopacity="1.0"
     inkscape:pageopacity="0.0"
     inkscape:pageshadow="2"
     inkscape:zoom="1.3269982"
     inkscape:cx="234.08815"
     inkscape:cy="230.93538"
     inkscape:document-units="px"
     inkscape:current-layer="layer1"
     showgrid="false"
     fit-margin-top="0"
     fit-margin-left="0"
     fit-margin-right="0"
     fit-margin-bottom="0"
     inkscape:window-width="1920"
     inkscape:window-height="1018"
     inkscape:window-x="0"
     inkscape:window-y="27"
     inkscape:window-maximized="1" />
  <metadata
     id="metadata7">
    <rdf:RDF>
      <cc:Work
         rdf:about="">
        <dc:format>image/svg+xml</dc:format>
        <dc:type
           rdf:resource="http://purl.org/dc/dcmitype/StillImage" />
        <dc:title></dc:title>
      </cc:Work>
    </rdf:RDF>
  </metadata>
  <g
     inkscape:label="Layer 1"
     inkscape:groupmode="layer"
     id="layer1"
     transform="translate(-1151.0576,907.99414)">
    <g
       id="g4528"
       transform="translate(563.65309,66.768379)">
      <path
         style="fill:#bfbfbf"
         d="m 641.62514,-531.22457 c -24.95733,-6.57864 -44.50796,-25.57077 -52.01935,-50.5333 -1.70243,-5.65767 -1.82248,-15.12523 -2.10416,-165.93767 -0.24883,-133.22891 -0.066,-161.28643 1.09507,-168.01434 4.74132,-27.47494 24.41063,-48.47577 53.14787,-56.74575 l 8,-2.30224 117,0 c 111.27088,0 117.34277,0.0919 124,1.87612 21.87114,5.86186 38.78757,19.27 48.09913,38.12388 7.84504,15.88452 7.36408,3.98426 7.38351,182.68462 0.0195,179.24059 0.51273,167.20452 -7.52237,183.55963 -8.0883,16.4634 -23.10877,29.33166 -41.96027,35.94798 l -8,2.80777 -120,0.20498 c -114.54248,0.19565 -120.32379,0.11963 -127.11943,-1.67168 z m 243.98771,-3.47675 c 21.01431,-4.0207 39.0324,-17.19716 48.52482,-35.48573 8.17328,-15.74706 7.49225,-0.55928 7.84917,-175.04648 0.19424,-94.95637 -0.0556,-158.82215 -0.64182,-164.07286 -0.52792,-4.72846 -1.92565,-11.48941 -3.10607,-15.02434 -5.35079,-16.02367 -18.57534,-30.78392 -34.45015,-38.45066 -16.34972,-7.8961 -10.1688,-7.57688 -140.54423,-7.25852 l -115.5,0.28204 -8,2.72441 c -21.55895,7.34193 -38.33518,23.92842 -44.78208,44.27559 l -2.21792,7 0,164.5 0,164.5 2.67921,7.3346 c 8.46893,23.1845 27.10692,39.30628 51.48752,44.53646 10.14433,2.17619 227.41469,2.34503 238.70155,0.18549 z M 766.0025,-606.41209 c -1.28849,-1.29018 -5.18747,-7.52078 -8.66439,-13.84578 -10.15411,-18.4717 -23.94528,-39.28015 -41.37534,-62.42811 -1.40067,-1.86015 -1.71205,-1.75604 -8.83502,2.95421 -9.45833,6.25457 -29.69242,16.30754 -41.88318,20.80895 -13.28706,4.90622 -24.81251,8.18577 -25.68862,7.30967 -1.57133,-1.57133 1.71737,-4.10605 16.68862,-12.86255 16.64068,-9.73293 34.56425,-21.18095 43.51844,-27.79579 l 5.54395,-4.09556 -3.59805,-4.19541 c -4.32796,-5.04649 -3.14831,-5.72415 4.62845,-2.65884 l 5.39246,2.12551 8.75738,-9.02798 c 4.81655,-4.96539 8.74397,-9.38936 8.72759,-9.83104 -0.0345,-0.93124 -40.34716,-41.98981 -46.82723,-47.69372 -4.72764,-4.16138 -8.54249,-11.46605 -9.66724,-18.51082 l -0.70273,-4.40148 4.61669,0.63279 c 5.34873,0.73312 10.47293,3.1659 16.07417,7.63142 2.18014,1.73808 4.65514,2.95043 5.5,2.6941 5.25802,-1.59523 54.64097,-19.96624 55.10802,-20.50079 0.31455,-0.36001 0.38155,-3.04774 0.14889,-5.97275 -0.3131,-3.9363 -0.7732,-5.18381 -1.77068,-4.80104 -3.62669,1.39169 -17.32513,3.69173 -22.79209,3.82691 -7.968,0.19703 -10.11336,-0.59034 -12.60837,-4.62734 -3.47387,-5.62084 -3.05841,-6.01692 7.70035,-7.34118 5.3625,-0.66005 14.025,-2.2327 19.25,-3.49477 l 9.5,-2.29468 0.2925,-8.96931 c 0.37006,-11.34781 -0.67145,-14.13579 -10.29742,-27.56471 -12.82941,-17.89795 -18.88515,-32.92358 -14.8828,-36.92752 2.08981,-2.09065 63.5014,11.18205 70.88772,15.32074 4.40994,2.47097 5.65619,6.16221 3.46367,10.25897 -1.32161,2.46946 -8.23747,6.50131 -14.46367,8.43212 -2.2,0.68224 -6.11162,2.36878 -8.69249,3.74785 -5.89111,3.14788 -7.4738,6.78343 -8.42217,19.34634 l -0.69947,9.26568 3.40707,-2.41654 c 1.87388,-1.32909 6.25915,-5.23506 9.74504,-8.67993 7.77923,-7.68769 10.12266,-7.98479 21.19023,-2.68647 13.86118,6.63568 14.25413,8.56737 2.83312,13.92693 -4.47628,2.10058 -14.69949,6.42262 -22.71827,9.60452 -9.41028,3.73406 -14.83183,6.4246 -15.29104,7.58845 -0.3913,0.99174 -0.74308,3.52099 -0.78173,5.62056 -0.0859,4.66452 -1.93014,5.09113 23.92971,-5.53539 20.69835,-8.50551 25.9858,-9.81798 31.23343,-7.75286 5.78539,2.27674 19.22044,11.6796 24.02074,16.8115 8.50732,9.09502 7.49315,12.41063 -6.33592,20.7138 -7.18085,4.31148 -9.23792,6.19653 -13.99459,12.82431 -7.52397,10.48361 -12.53193,20.78166 -14.53149,29.88161 -2.32784,10.59392 -2.32293,10.58884 -8.21888,8.49478 -4.59587,-1.63231 -5.44867,-1.63964 -13.65495,-0.11741 l -8.75293,1.62363 8.3673,5.46317 c 10.2661,6.70293 25.69111,14.17651 36.36729,17.62032 4.4,1.4193 17.225,4.86223 28.5,7.65095 28.54318,7.05978 34.65696,8.95694 37.57271,11.65917 4.51663,4.18586 2.62475,4.63805 -16.13505,3.85651 -17.07145,-0.71121 -17.37128,-0.68775 -22.61922,1.76919 -2.92514,1.36947 -7.97448,4.77086 -11.22075,7.55864 -6.76015,5.80536 -9.99538,6.86853 -14.7441,4.84522 -7.75721,-3.30516 -26.46198,-21.48744 -44.16828,-42.93453 -11.06117,-13.39805 -14.5352,-16.41994 -16.05314,-13.96385 -0.76242,1.23361 1.25428,28.59139 2.9644,40.21385 0.84972,5.775 3.58157,20.625 6.07075,33 6.68271,33.22306 6.48268,43.62331 -0.93125,48.41835 -4.37742,2.83115 -7.44627,2.9626 -9.97814,0.42743 z m -16.30317,-66.09578 c 1.04641,-6.23571 2.46852,-23.35871 3.15601,-38 0.8484,-18.06811 0.15064,-18.62299 -8.00496,-6.36587 -3.06823,4.61127 -8.7707,11.80219 -12.67214,15.97981 l -7.09353,7.59569 8.20137,9.27018 c 8.1021,9.15797 13.79267,14.69097 15.16318,14.74329 0.38757,0.0148 0.95011,-1.4356 1.25007,-3.2231 z m 3.79206,-66.75 c 0.41425,0 0.75318,-4.95 0.75318,-11 0,-6.05 -0.25132,-11 -0.55849,-11 -0.30718,0 -5.81968,1.3006 -12.25,2.89023 -6.43033,1.58962 -12.9643,3.18205 -14.51993,3.53873 l -2.82842,0.64851 5.98365,6.39655 c 3.29101,3.5181 6.76825,7.72476 7.7272,9.34813 l 1.74355,2.95159 6.59804,-1.88687 c 3.62892,-1.03778 6.93697,-1.88687 7.35122,-1.88687 z m 31.75318,-8.06338 7.5,-1.10594 2.34754,-5.35636 c 1.29114,-2.946 4.28188,-8.6454 6.64608,-12.66534 2.3642,-4.01994 4.18078,-7.43601 4.03684,-7.59127 -0.37277,-0.40208 -17.2791,3.39567 -28.78046,6.4651 l -9.75,2.60204 0,10.76706 0,10.76707 5.25,-1.38821 c 2.8875,-0.76351 8.625,-1.88587 12.75,-2.49415 z m -53.64611,-19.48099 c 7.76211,-2.49941 16.03289,-5.02783 18.37952,-5.61872 l 4.26659,-1.07434 0,-5.88128 c 0,-3.23471 -0.1125,-5.88116 -0.25,-5.88099 -0.1375,1.6e-4 -4.525,1.50839 -9.75,3.35161 -5.225,1.84322 -15.93031,5.10071 -23.78957,7.23887 l -14.28957,3.88756 4.78957,4.22241 c 2.63426,2.32232 5.18129,4.2397 5.66005,4.26083 0.47877,0.0211 7.2213,-2.00655 14.98341,-4.50595 z m 46.25145,-17.23791 c 6.42001,-5.07472 8.65755,-6.22244 12.07892,-6.19576 3.40356,0.0265 9.76961,2.81819 15.64536,6.86082 l 4.3367,2.98373 2.16684,-4.46001 c 2.71163,-5.58134 2.72311,-7.59426 0.057,-10.00151 -1.82309,-1.64612 -3.62363,-1.89306 -13.25,-1.81716 -9.08593,0.0716 -12.79982,0.59011 -20.1402,2.81171 -4.95,1.49814 -9.4208,3.13942 -9.93511,3.64729 -0.51432,0.50787 -1.13387,3.67116 -1.37679,7.02953 l -0.44168,6.10613 2.96105,-1.53122 c 1.62859,-0.84217 5.18263,-3.28727 7.89787,-5.43355 z"
         id="path4540"
         inkscape:connector-curvature="0" />
      <path
         style="fill:#bebebe"
         d="m 642.35654,-531.30282 c -25.38847,-6.64889 -44.43026,-24.84731 -52.27011,-49.95505 l -2.34186,-7.5 0,-162.5 c 0,-132.81728 0.24594,-163.50465 1.34643,-168 0.74054,-3.025 3.38231,-9.775 5.87061,-15 3.90799,-8.20613 5.76888,-10.73577 13.66322,-18.57339 7.4653,-7.41165 10.81996,-9.91484 18.31711,-13.66793 17.45193,-8.73646 9.33519,-8.25868 140.30263,-8.25868 115.20695,0 115.52052,0.005 123.58857,2.16103 25.2873,6.75604 44.11047,24.00766 52.19688,47.83897 l 2.71455,8 0,164.5 0,164.5 -2.33157,7.5 c -3.72149,11.97099 -8.45716,19.49927 -18.64948,29.64701 -7.81957,7.78536 -10.58888,9.81967 -18.60308,13.66565 -16.91538,8.11761 -9.14392,7.69428 -140.11328,7.63228 -111.68699,-0.0529 -116.59579,-0.13185 -123.69062,-1.98989 z m 243.25631,-3.3985 c 21.01431,-4.0207 39.0324,-17.19716 48.52482,-35.48573 8.17328,-15.74706 7.49225,-0.55928 7.84917,-175.04648 0.19424,-94.95637 -0.0556,-158.82215 -0.64182,-164.07286 -0.52792,-4.72846 -1.92565,-11.48941 -3.10607,-15.02434 -5.35079,-16.02367 -18.57534,-30.78392 -34.45015,-38.45066 -16.34972,-7.8961 -10.1688,-7.57688 -140.54423,-7.25852 l -115.5,0.28204 -8,2.72441 c -21.55895,7.34193 -38.33518,23.92842 -44.78208,44.27559 l -2.21792,7 0,164.5 0,164.5 2.67921,7.3346 c 8.46893,23.1845 27.10692,39.30628 51.48752,44.53646 10.14433,2.17619 227.41469,2.34503 238.70155,0.18549 z M 766.0025,-606.41209 c -1.28849,-1.29018 -5.18747,-7.52078 -8.66439,-13.84578 -10.15411,-18.4717 -23.94528,-39.28015 -41.37534,-62.42811 -1.40067,-1.86015 -1.71205,-1.75604 -8.83502,2.95421 -9.45833,6.25457 -29.69242,16.30754 -41.88318,20.80895 -13.28706,4.90622 -24.81251,8.18577 -25.68862,7.30967 -1.57133,-1.57133 1.71737,-4.10605 16.68862,-12.86255 16.64068,-9.73293 34.56425,-21.18095 43.51844,-27.79579 l 5.54395,-4.09556 -3.59805,-4.19541 c -4.32796,-5.04649 -3.14831,-5.72415 4.62845,-2.65884 l 5.39246,2.12551 8.75738,-9.02798 c 4.81655,-4.96539 8.74397,-9.38936 8.72759,-9.83104 -0.0345,-0.93124 -40.34716,-41.98981 -46.82723,-47.69372 -4.72764,-4.16138 -8.54249,-11.46605 -9.66724,-18.51082 l -0.70273,-4.40148 4.61669,0.63279 c 5.34873,0.73312 10.47293,3.1659 16.07417,7.63142 2.18014,1.73808 4.65514,2.95043 5.5,2.6941 5.25802,-1.59523 54.64097,-19.96624 55.10802,-20.50079 0.31455,-0.36001 0.38155,-3.04774 0.14889,-5.97275 -0.3131,-3.9363 -0.7732,-5.18381 -1.77068,-4.80104 -3.62669,1.39169 -17.32513,3.69173 -22.79209,3.82691 -7.968,0.19703 -10.11336,-0.59034 -12.60837,-4.62734 -3.47387,-5.62084 -3.05841,-6.01692 7.70035,-7.34118 5.3625,-0.66005 14.025,-2.2327 19.25,-3.49477 l 9.5,-2.29468 0.2925,-8.96931 c 0.37006,-11.34781 -0.67145,-14.13579 -10.29742,-27.56471 -12.82941,-17.89795 -18.88515,-32.92358 -14.8828,-36.92752 2.08981,-2.09065 63.5014,11.18205 70.88772,15.32074 4.40994,2.47097 5.65619,6.16221 3.46367,10.25897 -1.32161,2.46946 -8.23747,6.50131 -14.46367,8.43212 -2.2,0.68224 -6.11162,2.36878 -8.69249,3.74785 -5.89111,3.14788 -7.4738,6.78343 -8.42217,19.34634 l -0.69947,9.26568 3.40707,-2.41654 c 1.87388,-1.32909 6.25915,-5.23506 9.74504,-8.67993 7.77923,-7.68769 10.12266,-7.98479 21.19023,-2.68647 13.86118,6.63568 14.25413,8.56737 2.83312,13.92693 -4.47628,2.10058 -14.69949,6.42262 -22.71827,9.60452 -9.41028,3.73406 -14.83183,6.4246 -15.29104,7.58845 -0.3913,0.99174 -0.74308,3.52099 -0.78173,5.62056 -0.0859,4.66452 -1.93014,5.09113 23.92971,-5.53539 20.69835,-8.50551 25.9858,-9.81798 31.23343,-7.75286 5.78539,2.27674 19.22044,11.6796 24.02074,16.8115 8.50732,9.09502 7.49315,12.41063 -6.33592,20.7138 -7.18085,4.31148 -9.23792,6.19653 -13.99459,12.82431 -7.52397,10.48361 -12.53193,20.78166 -14.53149,29.88161 -2.32784,10.59392 -2.32293,10.58884 -8.21888,8.49478 -4.59587,-1.63231 -5.44867,-1.63964 -13.65495,-0.11741 l -8.75293,1.62363 8.3673,5.46317 c 10.2661,6.70293 25.69111,14.17651 36.36729,17.62032 4.4,1.4193 17.225,4.86223 28.5,7.65095 28.54318,7.05978 34.65696,8.95694 37.57271,11.65917 4.51663,4.18586 2.62475,4.63805 -16.13505,3.85651 -17.07145,-0.71121 -17.37128,-0.68775 -22.61922,1.76919 -2.92514,1.36947 -7.97448,4.77086 -11.22075,7.55864 -6.76015,5.80536 -9.99538,6.86853 -14.7441,4.84522 -7.75721,-3.30516 -26.46198,-21.48744 -44.16828,-42.93453 -11.06117,-13.39805 -14.5352,-16.41994 -16.05314,-13.96385 -0.76242,1.23361 1.25428,28.59139 2.9644,40.21385 0.84972,5.775 3.58157,20.625 6.07075,33 6.68271,33.22306 6.48268,43.62331 -0.93125,48.41835 -4.37742,2.83115 -7.44627,2.9626 -9.97814,0.42743 z m -16.30317,-66.09578 c 1.04641,-6.23571 2.46852,-23.35871 3.15601,-38 0.8484,-18.06811 0.15064,-18.62299 -8.00496,-6.36587 -3.06823,4.61127 -8.7707,11.80219 -12.67214,15.97981 l -7.09353,7.59569 8.20137,9.27018 c 8.1021,9.15797 13.79267,14.69097 15.16318,14.74329 0.38757,0.0148 0.95011,-1.4356 1.25007,-3.2231 z m 3.79206,-66.75 c 0.41425,0 0.75318,-4.95 0.75318,-11 0,-6.05 -0.25132,-11 -0.55849,-11 -0.30718,0 -5.81968,1.3006 -12.25,2.89023 -6.43033,1.58962 -12.9643,3.18205 -14.51993,3.53873 l -2.82842,0.64851 5.98365,6.39655 c 3.29101,3.5181 6.76825,7.72476 7.7272,9.34813 l 1.74355,2.95159 6.59804,-1.88687 c 3.62892,-1.03778 6.93697,-1.88687 7.35122,-1.88687 z m 31.75318,-8.06338 7.5,-1.10594 2.34754,-5.35636 c 1.29114,-2.946 4.28188,-8.6454 6.64608,-12.66534 2.3642,-4.01994 4.18078,-7.43601 4.03684,-7.59127 -0.37277,-0.40208 -17.2791,3.39567 -28.78046,6.4651 l -9.75,2.60204 0,10.76706 0,10.76707 5.25,-1.38821 c 2.8875,-0.76351 8.625,-1.88587 12.75,-2.49415 z m -53.64611,-19.48099 c 7.76211,-2.49941 16.03289,-5.02783 18.37952,-5.61872 l 4.26659,-1.07434 0,-5.88128 c 0,-3.23471 -0.1125,-5.88116 -0.25,-5.88099 -0.1375,1.6e-4 -4.525,1.50839 -9.75,3.35161 -5.225,1.84322 -15.93031,5.10071 -23.78957,7.23887 l -14.28957,3.88756 4.78957,4.22241 c 2.63426,2.32232 5.18129,4.2397 5.66005,4.26083 0.47877,0.0211 7.2213,-2.00655 14.98341,-4.50595 z m 46.25145,-17.23791 c 6.42001,-5.07472 8.65755,-6.22244 12.07892,-6.19576 3.40356,0.0265 9.76961,2.81819 15.64536,6.86082 l 4.3367,2.98373 2.16684,-4.46001 c 2.71163,-5.58134 2.72311,-7.59426 0.057,-10.00151 -1.82309,-1.64612 -3.62363,-1.89306 -13.25,-1.81716 -9.08593,0.0716 -12.79982,0.59011 -20.1402,2.81171 -4.95,1.49814 -9.4208,3.13942 -9.93511,3.64729 -0.51432,0.50787 -1.13387,3.67116 -1.37679,7.02953 l -0.44168,6.10613 2.96105,-1.53122 c 1.62859,-0.84217 5.18263,-3.28727 7.89787,-5.43355 z"
         id="path4538"
         inkscape:connector-curvature="0" />
      <path
         style="fill:#7f7f7f"
         d="m 642.35654,-531.30282 c -25.38847,-6.64889 -44.43026,-24.84731 -52.27011,-49.95505 l -2.34186,-7.5 0,-162.5 c 0,-132.81728 0.24594,-163.50465 1.34643,-168 0.74054,-3.025 3.38231,-9.775 5.87061,-15 3.90799,-8.20613 5.76888,-10.73577 13.66322,-18.57339 7.4653,-7.41165 10.81996,-9.91484 18.31711,-13.66793 17.45193,-8.73646 9.33519,-8.25868 140.30263,-8.25868 115.20695,0 115.52052,0.005 123.58857,2.16103 25.2873,6.75604 44.11047,24.00766 52.19688,47.83897 l 2.71455,8 0,164.5 0,164.5 -2.33157,7.5 c -3.72149,11.97099 -8.45716,19.49927 -18.64948,29.64701 -7.81957,7.78536 -10.58888,9.81967 -18.60308,13.66565 -16.91538,8.11761 -9.14392,7.69428 -140.11328,7.63228 -111.687,-0.0529 -116.59579,-0.13185 -123.69062,-1.98989 z m 248.88803,-4.20657 c 24.45258,-7.49342 41.87688,-24.75039 48.71632,-48.24848 1.62221,-5.5734 1.76885,-17.02045 2.06253,-161 0.20818,-102.06435 -0.0371,-158.30191 -0.71819,-164.66826 -2.94909,-27.56589 -19.51419,-48.03145 -46.56066,-57.52397 l -8,-2.80777 -116.80659,-0.27406 c -114.44536,-0.26851 -116.97955,-0.23298 -125.36272,1.75802 -23.15199,5.49859 -40.67587,21.29744 -49.62585,44.74074 l -2.20484,5.7753 -0.2809,162.5 c -0.2528,146.24583 -0.12013,163.22887 1.32641,169.78688 5.67114,25.71048 28.15662,46.55752 55.21788,51.19434 2.60513,0.44638 56.93661,0.73085 120.73661,0.63216 105.62327,-0.16339 116.492,-0.33022 121.5,-1.8649 z m -124.90645,-71.45245 c -1.67256,-1.53782 -6.24701,-8.64603 -10.16542,-15.79603 -10.70061,-19.52557 -39.29853,-61.5 -41.90104,-61.5 -0.53889,0 -4.02793,2.06488 -7.75344,4.58863 -17.55642,11.89315 -63.36198,30.72304 -66.67574,27.40928 -1.42858,-1.42858 -0.84718,-1.85084 15.90209,-11.54934 12.75311,-7.38456 41.67247,-26.04322 47.89694,-30.90293 1.82685,-1.42629 1.75972,-1.64848 -1.81695,-6.01333 -4.17904,-5.09997 -3.79476,-5.36595 3.65928,-2.53281 2.8934,1.09972 5.63164,1.99972 6.08497,2 1.34175,8.2e-4 12.27135,-10.80843 15.19594,-15.02861 l 2.70019,-3.89639 -17.44558,-18.52281 c -9.59508,-10.18755 -21.08325,-21.67142 -25.52927,-25.51972 -8.41291,-7.28186 -12.21847,-13.21153 -13.66681,-21.29503 -0.53586,-2.99075 -0.33437,-3.89347 0.98174,-4.39851 2.75731,-1.05808 11.61129,2.38823 17.34287,6.75051 4.58973,3.49322 5.80751,3.98435 8.08771,3.26175 1.47641,-0.46788 14.41179,-5.12569 28.74529,-10.35069 l 26.06091,-9.5 -0.53667,-5.5 c -0.29517,-3.025 -0.58704,-5.56811 -0.64861,-5.65135 -0.0616,-0.0832 -3.93695,0.70217 -8.61195,1.74535 -12.10838,2.70189 -22.30885,2.84146 -25.06959,0.34302 -2.12063,-1.91914 -4.93041,-6.57545 -4.93041,-8.17057 0,-0.45808 4.64389,-1.38444 10.31975,-2.05858 5.67586,-0.67414 14.33836,-2.2342 19.25,-3.46679 l 8.93025,-2.24108 0.28649,-9.77329 c 0.32223,-10.99233 -0.82827,-14.76421 -6.93208,-22.72671 -6.62869,-8.64722 -12.03527,-17.17341 -15.41462,-24.30891 -4.53094,-9.5671 -5.08952,-12.68351 -2.77226,-15.46694 l 1.83247,-2.20113 19,3.90298 c 39.04563,8.02074 48.5198,10.5805 52.3428,14.14217 5.55931,5.17929 0.23172,11.90651 -13.30974,16.80638 -14.8821,5.38498 -16.05763,6.93623 -17.16202,22.6474 l -0.68292,9.71533 2.26459,-1.21197 c 1.24552,-0.66658 5.81528,-4.60428 10.15501,-8.75043 7.62951,-7.2892 8.02263,-7.52074 11.88865,-7.00219 4.34106,0.58226 15.04841,5.41163 18.90972,8.52892 1.56593,1.2642 2.18286,2.52422 1.76678,3.6085 -0.7495,1.95315 -11.66317,7.11377 -31.03927,14.67718 -14.88774,5.81139 -15.6336,6.4544 -15.6336,13.47781 0,1.88919 0.41915,3.4349 0.93144,3.4349 0.51229,0 8.27479,-2.98335 17.25,-6.62966 31.8207,-12.92765 31.23316,-12.79295 39.31856,-9.01375 6.4506,3.01508 20.46381,13.59611 23.80127,17.97175 4.36197,5.71884 4.46399,8.21377 0.48914,11.96254 -1.89115,1.78358 -6.18936,4.7091 -9.55157,6.50114 -7.32799,3.90577 -11.98644,8.99228 -18.95292,20.69449 -5.7167,9.60282 -7.31492,13.54573 -9.70064,23.93211 -0.87405,3.80524 -1.82353,7.15296 -2.10995,7.43938 -0.28641,0.28641 -2.66109,-0.2489 -5.27705,-1.18959 -4.43128,-1.59346 -5.33518,-1.60059 -13.22729,-0.10432 -4.65905,0.88332 -8.60278,1.73705 -8.76386,1.89718 -0.53525,0.53209 15.17826,10.21696 22.76592,14.03155 13.22224,6.6473 23.96091,10.18692 51.52695,16.98399 14.85,3.66163 28.8,7.46196 31,8.44517 4.535,2.02676 8.14963,5.55849 6.64237,6.49003 -0.54336,0.33581 -9.23517,0.49299 -19.31515,0.34928 -20.84627,-0.2972 -22.09827,0.044 -32.37383,8.82268 -6.97434,5.95837 -10.29665,7.0601 -14.62005,4.84825 -9.52935,-4.87518 -25.59948,-20.59884 -44.74171,-43.77706 -8.92305,-10.8044 -11.79258,-13.65516 -13.74507,-13.65516 -2.43255,0 -2.46007,0.0961 -1.93393,6.75 0.29355,3.7125 0.79539,10.8 1.1152,15.75 0.80119,12.4009 2.76889,25.16709 7.93788,51.5 6.93813,35.3456 6.9754,42.32153 0.25303,47.35689 -5.24764,3.93072 -7.18521,4.10197 -10.62519,0.93914 z m -16.72111,-64.64382 c 0.88835,-3.53945 3.62756,-38.82647 3.62756,-46.73085 0,-5.40262 -0.32049,-6.92136 -1.46057,-6.92136 -1.75562,0 -2.39545,0.73189 -7.55354,8.64032 -2.20269,3.37717 -7.40334,10.02755 -11.55701,14.77861 l -7.55211,8.6383 8.09696,9.41223 c 7.98439,9.28137 13.40119,14.53054 14.99459,14.53054 0.44817,0 1.08003,-1.0565 1.40412,-2.34779 z m -1.56976,-66.17688 6.19732,-1.73888 0,-10.86823 c 0,-5.97752 -0.1851,-10.86822 -0.41134,-10.86822 -0.57295,0 -21.26737,4.87245 -25.8411,6.08422 l -3.75244,0.99418 6.40446,7.34347 c 3.52245,4.0389 6.93306,8.33116 7.57913,9.53835 0.64607,1.2072 1.72637,1.98319 2.40066,1.72444 0.67429,-0.25875 4.01478,-1.25295 7.42331,-2.20933 z m 33.9469,-8.77635 c 10.98507,-2.11546 11.27374,-2.23961 12.27716,-5.28001 0.56517,-1.71248 3.50002,-7.29766 6.52188,-12.4115 3.02186,-5.11384 5.31988,-9.4723 5.10671,-9.68547 -0.55296,-0.55296 -18.49006,3.33595 -29.40533,6.37532 l -9.25,2.57568 0,10.97049 c 0,10.03829 0.1487,10.91319 1.75,10.29619 0.9625,-0.37086 6.81231,-1.64918 12.99958,-2.8407 z m -46.09652,-21.42074 18.34694,-5.72175 0,-5.77825 c 0,-3.17803 -0.21204,-5.77824 -0.47121,-5.77824 -0.25916,0 -3.97166,1.27383 -8.25,2.83073 -4.27833,1.5569 -14.88031,4.78809 -23.55993,7.18041 l -15.78115,4.34969 4.23935,4.31958 c 2.33165,2.37578 4.88954,4.31959 5.68421,4.31959 0.79467,0 9.70097,-2.57479 19.79179,-5.72176 z m 43.52633,-16.89748 c 9.02071,-6.99262 13.50784,-6.8701 24.26088,0.66242 3.1067,2.17625 5.87556,3.95682 6.15303,3.95682 1.01302,0 4.36339,-8.57649 4.38474,-11.22432 0.0584,-7.24634 -16.8453,-7.93677 -38.29789,-1.56428 -7.6368,2.26851 -8.68015,3.63631 -8.68015,11.37938 l 0,4.46058 3.25,-1.63404 c 1.7875,-0.89872 5.80573,-3.61517 8.92939,-6.03656 z"
         id="path4536"
         inkscape:connector-curvature="0" />
      <path
         style="fill:#404040"
         d="m 646.24457,-530.75993 c -25.89705,-5.34732 -45.79679,-22.30879 -54.41471,-46.38019 l -3.08529,-8.61775 0,-166 0,-166 2.3256,-7 c 6.54778,-19.7087 21.91052,-36.25051 40.79202,-43.92275 14.22382,-5.77966 11.32803,-5.66777 138.38238,-5.34701 130.42393,0.32926 120.29411,-0.24378 136.5,7.72186 18.37529,9.03196 31.56513,25.34878 37.22323,46.0479 1.6683,6.10318 1.77677,16.38994 1.77677,168.5 0,181.98484 0.63953,166.53365 -7.58758,183.31868 -6.83862,13.95223 -20.81423,26.99765 -35.28266,32.93429 -14.79913,6.07234 -5.53982,5.66308 -133.12976,5.88428 -94.60493,0.16401 -118.24417,-0.0541 -123.5,-1.13931 z m 242.93611,-4.09977 c 14.00907,-3.41872 28.63031,-12.57713 37.85962,-23.71439 5.83742,-7.04419 11.92695,-19.65445 13.74099,-28.45498 1.3021,-6.31691 1.46366,-28.3655 1.23104,-168 l -0.26776,-160.7288 -2.82292,-8 c -7.8983,-22.3833 -24.63008,-37.85676 -48.3779,-44.73957 l -7.79918,-2.26043 -115.5,0 c -130.04038,0 -121.22956,-0.49384 -138,7.73483 -6.89843,3.38481 -10.1998,5.87534 -17.52134,13.21791 -9.85055,9.87884 -13.81253,16.29142 -17.63778,28.54726 l -2.34088,7.5 0,162 0,162 2.33157,7.5 c 3.25041,10.45568 8.25462,18.99382 15.85334,27.04886 9.70695,10.28989 19.78883,16.24642 33.81509,19.97848 6.63024,1.76415 13.12399,1.86545 122.93611,1.9176 103.05459,0.0489 116.66542,-0.12292 122.5,-1.54677 z M 765.5631,-607.50787 c -1.11655,-1.2375 -5.43507,-8.3972 -9.5967,-15.91045 -8.21757,-14.83567 -20.86403,-34.16413 -33.40343,-51.05278 l -7.9543,-10.71323 -4.93205,3.30616 c -14.87077,9.96851 -33.10856,18.72119 -53.4992,25.67536 -12.07165,4.117 -17.25596,4.95051 -16.36597,2.63126 0.27725,-0.72253 7.109,-5.08374 15.18166,-9.69159 15.48629,-8.83954 50.25146,-31.58299 50.25146,-32.87462 0,-0.41806 -1.65878,-2.69803 -3.68619,-5.06659 -4.02218,-4.69902 -3.68134,-4.80622 4.55831,-1.43373 1.85467,0.75912 4.14334,1.38021 5.08594,1.38021 1.77334,0 13.3392,-11.40109 16.49044,-16.25551 l 1.78874,-2.75551 -13.86862,-14.54209 c -7.62774,-7.99815 -14.91901,-15.84502 -16.20281,-17.43748 -1.2838,-1.59246 -6.38532,-6.38799 -11.33671,-10.65675 -9.7246,-8.38389 -13.39783,-13.92705 -14.485,-21.85884 l -0.61595,-4.49382 3.38593,0.022 c 4.31108,0.028 11.11978,3.10932 16.36169,7.40468 l 4.09069,3.35201 8.96677,-3.38586 c 4.93172,-1.86222 17.85427,-6.59641 28.71677,-10.52042 l 19.75,-7.13456 0,-5.86891 c 0,-4.03546 -0.3905,-5.8648 -1.25,-5.85576 -0.6875,0.007 -5.525,0.90131 -10.75,1.98686 -11.61441,2.41302 -19.7416,2.56972 -22.78321,0.4393 -2.37011,-1.6601 -5.71337,-7.27606 -4.84718,-8.14224 0.28439,-0.2844 4.38261,-0.94184 9.10714,-1.46099 4.72453,-0.51915 13.41253,-2.15714 19.30665,-3.63999 l 10.7166,-2.69612 -0.0387,-10 c -0.0452,-11.67535 -0.78597,-13.5141 -10.9975,-27.29853 -8.45853,-11.41808 -14.59902,-23.5536 -15.22749,-30.09428 -0.40146,-4.17804 -0.18082,-5.19124 1.25004,-5.74031 3.37852,-1.29646 61.98381,11.38972 69.84159,15.11848 4.28346,2.03264 5.45969,5.10042 3.51199,9.15983 -1.56053,3.25248 -6.88713,6.49614 -15.3399,9.34132 -7.98728,2.6885 -12.07975,5.30013 -13.93879,8.89512 -1.49833,2.89745 -4.16837,21.84454 -3.21298,22.79993 0.97723,0.97723 5.31611,-2.19376 12.94383,-9.45977 7.39747,-7.04668 8.03474,-7.43044 11.42523,-6.88024 7.1289,1.15686 21.28271,8.94647 21.28271,11.71303 0,1.42806 -8.96489,5.69107 -28.5,13.55243 l -18,7.24359 -0.29783,6.07896 -0.29783,6.07896 4.79783,-1.89387 c 2.63881,-1.04163 12.89339,-5.16546 22.78796,-9.16406 11.35592,-4.58915 19.46885,-7.29665 22,-7.34196 10.05419,-0.17999 34.50984,18.34092 34.50984,26.13525 0,4.1222 -1.82647,6.10228 -9.95222,10.78921 -4.34062,2.50366 -9.52407,6.35858 -11.51877,8.56648 -8.36234,9.25611 -16.44571,24.80664 -19.04056,36.62962 -1.76373,8.03614 -1.86688,8.2147 -4.39727,7.61163 -1.42515,-0.33965 -3.65959,-1.15966 -4.96543,-1.82223 -1.90748,-0.96784 -4.02959,-0.86644 -10.79412,0.51581 -4.63093,0.94628 -8.67606,1.9767 -8.9892,2.28983 -0.70749,0.7075 11.06787,8.37988 20.84216,13.57996 12.70962,6.76172 24.51351,10.74049 53.3859,17.99491 15.43877,3.87912 29.64959,7.71274 31.57961,8.51915 3.81574,1.59432 6.53289,4.23209 5.46227,5.30271 -0.36994,0.36995 -5.27157,0.52202 -10.8925,0.33794 -26.92978,-0.88191 -27.77897,-0.68498 -40.1934,9.32065 -8.69659,7.00919 -11.54182,7.29491 -19.53982,1.96218 -7.68938,-5.12696 -26.39618,-24.27678 -39.89687,-40.84173 -6.27561,-7.7 -11.78811,-13.955 -12.25,-13.9 -0.46188,0.055 -1.58208,0.1675 -2.48933,0.25 -1.47985,0.13457 -1.57943,1.5131 -0.96793,13.4 0.85719,16.6628 3.4568,34.71171 8.67887,60.25673 4.86998,23.82271 6.11391,39.31981 3.55356,44.27097 -3.05849,5.91448 -10.64272,8.02177 -14.29642,3.9723 z m -15.95139,-62.53503 c 1.35282,-2.18891 5.20584,-53.47885 4.14625,-55.1933 -1.28961,-2.08663 -4.60041,0.94575 -10.34862,9.47833 -3.3347,4.95 -8.89847,12.01491 -12.36393,15.69979 l -6.30084,6.69979 3,3.38572 c 17.76269,20.04652 20.34204,22.39734 21.86714,19.92967 z m -2.45189,-67.18097 c 3.52838,-1.0729 6.78399,-2.53196 7.23469,-3.24236 0.88358,-1.39274 1.18517,-20.1232 0.33766,-20.97071 -0.44921,-0.4492 -29.35639,6.05533 -30.38381,6.8368 -0.21792,0.16575 1.44023,2.29367 3.68477,4.72871 2.24454,2.43504 5.72755,6.71925 7.74002,9.52045 2.01247,2.80121 3.95432,5.08967 4.31523,5.08547 0.3609,-0.004 3.54305,-0.88546 7.07144,-1.95836 z m 32.40421,-8.53502 c 3.9493,-0.78544 8.47934,-1.55652 10.06676,-1.71352 2.56333,-0.25352 3.45967,-1.40421 8.01197,-10.28546 2.81916,-5.5 5.90786,-11.11263 6.86378,-12.47251 0.95591,-1.35987 1.73803,-2.97824 1.73803,-3.59636 0,-1.18987 -14.11422,1.58133 -30.03996,5.89808 l -8.46004,2.29314 -0.88747,6.52926 c -0.48811,3.5911 -0.56699,8.66641 -0.17528,11.27848 0.6665,4.44455 0.87223,4.70905 3.20693,4.12308 1.3721,-0.34438 5.72598,-1.26876 9.67528,-2.05419 z M 755.24457,-779.456 c 0,-6.7097 -0.0536,-6.73287 -8.59345,-3.71361 -3.2486,1.14854 -13.50427,4.28376 -22.79038,6.96716 -9.28611,2.6834 -17.05554,5.05062 -17.26541,5.26049 -0.20987,0.20987 1.81408,2.43536 4.49766,4.94554 l 4.87924,4.56395 19.63617,-6.11082 19.63617,-6.11083 0,-5.80188 z m 18.63699,-1.25212 c 2.67465,-1.89764 6.61604,-4.7008 8.75863,-6.22925 2.65559,-1.89441 5.04876,-2.74876 7.51829,-2.68401 4.01702,0.10533 12.17423,3.88391 16.81545,7.78923 l 3.01446,2.53651 2.67464,-5.95988 c 3.24263,-7.22555 2.62049,-9.05825 -3.92335,-11.55737 -5.65982,-2.1615 -14.07298,-1.53706 -27.98248,2.07693 -13.8293,3.59316 -13.51263,3.33506 -13.51263,11.01327 0,3.55565 0.39914,6.46482 0.88699,6.46482 0.48784,0 3.07534,-1.55261 5.75,-3.45025 z"
         id="path4534"
         inkscape:connector-curvature="0" />
      <path
         style="fill:#3f3f3f"
         d="m 648.48212,-530.35431 c -28.26634,-4.7842 -51.40426,-25.68567 -58.30569,-52.67 -1.86991,-7.31127 -1.93186,-12.72191 -1.93186,-168.73356 0,-155.9536 0.0626,-161.42475 1.92984,-168.72569 6.18582,-24.18631 23.79566,-42.27769 49.57016,-50.92564 l 7,-2.34867 116.5,-0.28194 c 101.64757,-0.24599 117.47308,-0.0858 124.13269,1.25667 15.0839,3.04063 27.03497,9.49262 37.86731,20.44332 12.08958,12.22168 18.19453,24.96244 20.08813,41.92305 0.60207,5.3926 0.85032,68.06836 0.65228,164.68243 -0.29708,144.93705 -0.44382,156.43544 -2.07324,162.4613 -5.4761,20.25156 -19.10583,36.7018 -38.16717,46.06541 -16.20546,7.9607 -6.1021,7.39754 -136,7.58057 -64.1135,0.0903 -118.35388,-0.23496 -121.26245,-0.72725 z m 240.69856,-4.50539 c 14.00907,-3.41872 28.63031,-12.57713 37.85962,-23.71439 5.83742,-7.04419 11.92695,-19.65445 13.74099,-28.45498 1.3021,-6.31691 1.46366,-28.3655 1.23104,-168 l -0.26776,-160.7288 -2.82292,-8 c -7.8983,-22.3833 -24.63008,-37.85676 -48.3779,-44.73957 l -7.79918,-2.26043 -115.5,0 c -130.04038,0 -121.22956,-0.49384 -138,7.73483 -6.89843,3.38481 -10.1998,5.87534 -17.52134,13.21791 -9.85055,9.87884 -13.81253,16.29142 -17.63778,28.54726 l -2.34088,7.5 0,162 0,162 2.33157,7.5 c 3.25041,10.45568 8.25462,18.99382 15.85334,27.04886 9.70695,10.28989 19.78883,16.24642 33.81509,19.97848 6.63024,1.76415 13.12399,1.86545 122.93611,1.9176 103.05459,0.0489 116.66542,-0.12292 122.5,-1.54677 z M 765.5631,-607.50787 c -1.11655,-1.2375 -5.43507,-8.3972 -9.5967,-15.91045 -8.21757,-14.83567 -20.86403,-34.16413 -33.40343,-51.05278 l -7.9543,-10.71323 -4.93205,3.30616 c -14.87077,9.96851 -33.10856,18.72119 -53.4992,25.67536 -12.07165,4.117 -17.25596,4.95051 -16.36597,2.63126 0.27725,-0.72253 7.109,-5.08374 15.18166,-9.69159 15.48629,-8.83954 50.25146,-31.58299 50.25146,-32.87462 0,-0.41806 -1.65878,-2.69803 -3.68619,-5.06659 -4.02218,-4.69902 -3.68134,-4.80622 4.55831,-1.43373 1.85467,0.75912 4.14334,1.38021 5.08594,1.38021 1.77334,0 13.3392,-11.40109 16.49044,-16.25551 l 1.78874,-2.75551 -13.86862,-14.54209 c -7.62774,-7.99815 -14.91901,-15.84502 -16.20281,-17.43748 -1.2838,-1.59246 -6.38532,-6.38799 -11.33671,-10.65675 -9.7246,-8.38389 -13.39783,-13.92705 -14.485,-21.85884 l -0.61595,-4.49382 3.38593,0.022 c 4.31108,0.028 11.11978,3.10932 16.36169,7.40468 l 4.09069,3.35201 8.96677,-3.38586 c 4.93172,-1.86222 17.85427,-6.59641 28.71677,-10.52042 l 19.75,-7.13456 0,-5.86891 c 0,-4.03546 -0.3905,-5.8648 -1.25,-5.85576 -0.6875,0.007 -5.525,0.90131 -10.75,1.98686 -11.61441,2.41302 -19.7416,2.56972 -22.78321,0.4393 -2.37011,-1.6601 -5.71337,-7.27606 -4.84718,-8.14224 0.28439,-0.2844 4.38261,-0.94184 9.10714,-1.46099 4.72453,-0.51915 13.41253,-2.15714 19.30665,-3.63999 l 10.7166,-2.69612 -0.0387,-10 c -0.0452,-11.67535 -0.78597,-13.5141 -10.9975,-27.29853 -8.45853,-11.41808 -14.59902,-23.5536 -15.22749,-30.09428 -0.40146,-4.17804 -0.18082,-5.19124 1.25004,-5.74031 3.37852,-1.29646 61.98381,11.38972 69.84159,15.11848 4.28346,2.03264 5.45969,5.10042 3.51199,9.15983 -1.56053,3.25248 -6.88713,6.49614 -15.3399,9.34132 -7.98728,2.6885 -12.07975,5.30013 -13.93879,8.89512 -1.49833,2.89745 -4.16837,21.84454 -3.21298,22.79993 0.97723,0.97723 5.31611,-2.19376 12.94383,-9.45977 7.39747,-7.04668 8.03474,-7.43044 11.42523,-6.88024 7.1289,1.15686 21.28271,8.94647 21.28271,11.71303 0,1.42806 -8.96489,5.69107 -28.5,13.55243 l -18,7.24359 -0.29783,6.07896 -0.29783,6.07896 4.79783,-1.89387 c 2.63881,-1.04163 12.89339,-5.16546 22.78796,-9.16406 11.35592,-4.58915 19.46885,-7.29665 22,-7.34196 10.05419,-0.17999 34.50984,18.34092 34.50984,26.13525 0,4.1222 -1.82647,6.10228 -9.95222,10.78921 -4.34062,2.50366 -9.52407,6.35858 -11.51877,8.56648 -8.36234,9.25611 -16.44571,24.80664 -19.04056,36.62962 -1.76373,8.03614 -1.86688,8.2147 -4.39727,7.61163 -1.42515,-0.33965 -3.65959,-1.15966 -4.96543,-1.82223 -1.90748,-0.96784 -4.02959,-0.86644 -10.79412,0.51581 -4.63093,0.94628 -8.67606,1.9767 -8.9892,2.28983 -0.70749,0.7075 11.06787,8.37988 20.84216,13.57996 12.70962,6.76172 24.51351,10.74049 53.3859,17.99491 15.43877,3.87912 29.64959,7.71274 31.57961,8.51915 3.81574,1.59432 6.53289,4.23209 5.46227,5.30271 -0.36994,0.36995 -5.27157,0.52202 -10.8925,0.33794 -26.92978,-0.88191 -27.77897,-0.68498 -40.1934,9.32065 -8.69659,7.00919 -11.54182,7.29491 -19.53982,1.96218 -7.68938,-5.12696 -26.39618,-24.27678 -39.89687,-40.84173 -6.27561,-7.7 -11.78811,-13.955 -12.25,-13.9 -0.46188,0.055 -1.58208,0.1675 -2.48933,0.25 -1.47985,0.13457 -1.57943,1.5131 -0.96793,13.4 0.85719,16.6628 3.4568,34.71171 8.67887,60.25673 4.86998,23.82271 6.11391,39.31981 3.55356,44.27097 -3.05849,5.91448 -10.64272,8.02177 -14.29642,3.9723 z m -15.95139,-62.53503 c 1.35282,-2.18891 5.20584,-53.47885 4.14625,-55.1933 -1.28961,-2.08663 -4.60041,0.94575 -10.34862,9.47833 -3.3347,4.95 -8.89847,12.01491 -12.36393,15.69979 l -6.30084,6.69979 3,3.38572 c 17.76269,20.04652 20.34204,22.39734 21.86714,19.92967 z m -2.45189,-67.18097 c 3.52838,-1.0729 6.78399,-2.53196 7.23469,-3.24236 0.88358,-1.39274 1.18517,-20.1232 0.33766,-20.97071 -0.44921,-0.4492 -29.35639,6.05533 -30.38381,6.8368 -0.21792,0.16575 1.44023,2.29367 3.68477,4.72871 2.24454,2.43504 5.72755,6.71925 7.74002,9.52045 2.01247,2.80121 3.95432,5.08967 4.31523,5.08547 0.3609,-0.004 3.54305,-0.88546 7.07144,-1.95836 z m 32.40421,-8.53502 c 3.9493,-0.78544 8.47934,-1.55652 10.06676,-1.71352 2.56333,-0.25352 3.45967,-1.40421 8.01197,-10.28546 2.81916,-5.5 5.90786,-11.11263 6.86378,-12.47251 0.95591,-1.35987 1.73803,-2.97824 1.73803,-3.59636 0,-1.18987 -14.11422,1.58133 -30.03996,5.89808 l -8.46004,2.29314 -0.88747,6.52926 c -0.48811,3.5911 -0.56699,8.66641 -0.17528,11.27848 0.6665,4.44455 0.87223,4.70905 3.20693,4.12308 1.3721,-0.34438 5.72598,-1.26876 9.67528,-2.05419 z M 755.24457,-779.456 c 0,-6.7097 -0.0536,-6.73287 -8.59345,-3.71361 -3.2486,1.14854 -13.50427,4.28376 -22.79038,6.96716 -9.28611,2.6834 -17.05554,5.05062 -17.26541,5.26049 -0.20987,0.20987 1.81408,2.43536 4.49766,4.94554 l 4.87924,4.56395 19.63617,-6.11082 19.63617,-6.11083 0,-5.80188 z m 18.63699,-1.25212 c 2.67465,-1.89764 6.61604,-4.7008 8.75863,-6.22925 2.65559,-1.89441 5.04876,-2.74876 7.51829,-2.68401 4.01702,0.10533 12.17423,3.88391 16.81545,7.78923 l 3.01446,2.53651 2.67464,-5.95988 c 3.24263,-7.22555 2.62049,-9.05825 -3.92335,-11.55737 -5.65982,-2.1615 -14.07298,-1.53706 -27.98248,2.07693 -13.8293,3.59316 -13.51263,3.33506 -13.51263,11.01327 0,3.55565 0.39914,6.46482 0.88699,6.46482 0.48784,0 3.07534,-1.55261 5.75,-3.45025 z"
         id="path4532"
         inkscape:connector-curvature="0" />
      <path
         style="fill:#000000"
         d="m 648.48212,-530.35431 c -28.26634,-4.7842 -51.40426,-25.68567 -58.30569,-52.67 -1.86991,-7.31127 -1.93186,-12.72191 -1.93186,-168.73356 0,-155.9536 0.0626,-161.42475 1.92984,-168.72569 6.18582,-24.18631 23.79566,-42.27769 49.57016,-50.92564 l 7,-2.34867 116.5,-0.28194 c 101.64757,-0.24599 117.47308,-0.0858 124.13269,1.25667 15.0839,3.04063 27.03497,9.49262 37.86731,20.44332 12.08958,12.22168 18.19453,24.96244 20.08813,41.92305 0.60207,5.3926 0.85032,68.06836 0.65228,164.68243 -0.29708,144.93705 -0.44382,156.43544 -2.07324,162.4613 -5.4761,20.25156 -19.10583,36.7018 -38.16717,46.06541 -16.20546,7.9607 -6.1021,7.39754 -136,7.58057 -64.1135,0.0903 -118.35388,-0.23496 -121.26245,-0.72725 z m 242.13921,-4.87204 c 12.14939,-3.10729 22.88693,-9.22876 31.62324,-18.0284 8.4416,-8.50279 12.90282,-15.44322 16.82059,-26.1682 l 2.67941,-7.33492 0.26766,-161.7293 c 0.29887,-180.59285 0.73219,-168.89395 -6.83484,-184.52741 -3.29542,-6.80834 -5.76868,-10.15868 -12.27969,-16.63437 -12.86947,-12.79968 -24.8932,-18.57878 -43.0076,-20.67122 -6.06851,-0.70099 -46.32333,-0.94343 -119.64553,-0.7206 -124.4268,0.37815 -114.216,-0.26936 -131.80198,8.35811 -18.69965,9.17382 -32.26708,27.18853 -35.76455,47.48784 -1.26729,7.35532 -1.43321,30.97952 -1.1764,167.5 0.28185,149.82927 0.40237,159.27765 2.1032,164.8825 5.75774,18.97379 18.46934,33.94794 36.14656,42.58035 14.69472,7.17594 7.21024,6.79834 136.58321,6.89079 112.84169,0.0806 116.83748,0.02 124.28672,-1.88517 z m -125.9628,-73.78152 c -1.41187,-2.0625 -5.27435,-8.7 -8.58329,-14.75 -8.45306,-15.45539 -27.78911,-44.4153 -39.62297,-59.34394 l -1.85803,-2.34395 -7.92483,5.19924 c -11.4884,7.53719 -33.89063,18.18605 -49.29811,23.43377 -23.38386,7.96444 -23.61667,6.07688 -0.87077,-7.06008 13.84663,-7.99717 35.48038,-21.83513 45.62535,-29.1841 l 4.13334,-2.99418 -3.50732,-4.19799 c -1.92903,-2.3089 -3.50733,-4.37385 -3.50733,-4.58879 0,-0.32452 3.1602,0.82921 11.58866,4.23081 1.0581,0.42703 19.44332,-18.01443 19.37936,-19.43864 -0.035,-0.78029 -40.72479,-42.12259 -48.18671,-48.95948 -4.71792,-4.32274 -8.78131,-12.55483 -8.78131,-17.79018 0,-2.12676 0.45688,-2.46249 3.35106,-2.46249 3.71299,0 10.82693,3.44352 16.46877,7.97175 l 3.68017,2.95376 11,-4.08828 c 6.05,-2.24855 18.875,-6.91016 28.5,-10.35913 l 17.5,-6.27084 0.29299,-6.48536 0.293,-6.48536 -7.793,1.84615 c -4.28614,1.01539 -11.19199,2.14448 -15.34633,2.50911 -8.95892,0.78632 -12.75346,-0.65392 -15.25447,-5.78989 l -1.60789,-3.30191 3.20785,-0.65906 c 1.76432,-0.36248 6.80785,-1.15845 11.20785,-1.76883 4.4,-0.61037 11.9375,-2.07228 16.75,-3.24869 l 8.75,-2.13892 0,-8.16075 c 0,-11.57276 -1.84839,-16.69756 -9.966,-27.63153 -8.37147,-11.27589 -17.04029,-27.67263 -17.01869,-32.19018 0.0299,-6.24691 0.5435,-6.39191 13.67785,-3.86125 21.85281,4.21048 48.73599,10.34785 54.07336,12.34481 6.54645,2.44934 8.97329,5.61715 7.33174,9.5703 -1.50252,3.61834 -5.97964,6.54825 -14.90414,9.75354 -14.50499,5.20956 -15.46891,6.4183 -17.21249,21.58424 -1.47601,12.83853 -1.57544,12.36336 2.13702,10.21286 1.71526,-0.9936 6.53639,-5.10109 10.71363,-9.12775 7.1656,-6.90731 7.79492,-7.28681 11.13135,-6.71262 4.69878,0.80864 17.15963,6.90756 19.58213,9.58439 1.88591,2.08392 1.88686,2.15993 0.0436,3.50778 -2.23878,1.63704 -29.22282,13.12214 -38.83932,16.53102 l -6.75,2.39275 0,6.25035 0,6.25035 6.25,-2.35726 c 3.4375,-1.29649 13.6698,-5.38491 22.73845,-9.08537 19.56836,-7.98485 22.23633,-8.29422 30.65296,-3.5544 12.99448,7.31786 24.35855,18.05143 24.35855,23.00713 0,3.34362 -3.42395,6.54392 -12.75162,11.91869 -8.13558,4.68787 -11.90307,9.08805 -20.1072,23.48395 -3.43843,6.03345 -5.60829,11.34225 -6.74404,16.5 -0.92098,4.18245 -2.05176,8.61905 -2.51284,9.85911 l -0.83834,2.25465 -4.77298,-1.79353 c -4.50416,-1.69253 -5.26574,-1.70223 -13.52199,-0.17231 -4.81196,0.89167 -8.96533,1.83754 -9.22972,2.10192 -0.78441,0.78442 14.27828,10.27903 23.97873,15.11475 13.45235,6.70605 21.3272,9.28104 51.37565,16.79929 25.85398,6.46877 36.09152,9.96273 36.87793,12.58602 0.52723,1.75871 -7.95814,2.20818 -19.37438,1.02626 -13.58891,-1.40684 -19.21846,-0.1492 -27.51101,6.14596 -11.26829,8.55416 -12.29371,9.18233 -14.98909,9.18233 -6.54527,0 -26.29548,-17.89017 -45.71759,-41.41199 -5.86383,-7.10159 -11.58788,-14.02175 -12.7201,-15.37813 -1.59301,-1.90839 -2.58734,-2.29834 -4.39642,-1.72416 l -2.33782,0.74199 0.68337,13.61669 c 0.88672,17.66874 2.72446,30.59401 8.26871,58.1556 4.95415,24.62816 6.42566,40.65868 4.12798,44.96998 -1.69628,3.18284 -7.41209,7.03002 -10.44462,7.03002 -1.60595,0 -3.18301,-1.19992 -4.92865,-3.75 z M 750.414,-674.0035 c 0.69459,-4.06877 2.0137,-20.40434 3.39566,-42.05134 l 0.65737,-10.29697 -2.86123,0.70168 c -1.57368,0.38592 -3.02344,1.11867 -3.22169,1.62834 -1.3148,3.38009 -11.32154,16.82699 -17.23114,23.15492 l -7.05931,7.55904 8.70086,9.77498 c 14.17699,15.92714 16.32864,17.09084 17.61948,9.52935 z m -3.16943,-63.02552 c 3.025,-0.95793 6.0625,-2.10286 6.75,-2.54429 0.87493,-0.56177 1.25,-4.08551 1.25,-11.74358 0,-6.01754 -0.1125,-10.93964 -0.25,-10.938 -0.57932,0.007 -29.36863,7.09409 -30.61067,7.53556 -0.90593,0.322 0.86804,2.84618 5.30798,7.55276 3.66777,3.88802 7.1648,8.15803 7.77119,9.48891 1.30751,2.86966 2.515,2.94973 9.7815,0.64864 z m 26.5,-7.35909 c 2.2,-0.6155 7.3285,-1.63743 11.39666,-2.27095 l 7.39665,-1.15186 4.25757,-8.20721 c 2.34166,-4.51397 5.67665,-10.51354 7.4111,-13.33238 1.73445,-2.81884 3.00418,-5.27454 2.82161,-5.45711 -0.39575,-0.39574 -23.55601,4.75615 -32.77602,7.29088 -5.83374,1.60379 -6.55729,2.08792 -7.13169,4.77187 -0.85115,3.97712 -0.99997,14.42205 -0.24559,17.237 0.68729,2.56464 1.33048,2.66948 6.86971,1.11976 z m -40.1571,-22.29226 c 9.43641,-2.98238 18.1696,-5.7127 19.4071,-6.06739 2.03331,-0.58278 2.25,-1.26438 2.25,-7.0775 0,-3.53793 -0.20834,-6.43261 -0.46298,-6.43261 -0.25464,0 -2.84214,0.93922 -5.75,2.08715 -2.90786,1.14793 -13.53563,4.48405 -23.61727,7.41358 -10.08164,2.92954 -18.60592,5.60211 -18.94285,5.93904 -0.50002,0.50001 8.45773,9.36405 9.616,9.51542 0.1886,0.0246 8.0636,-2.39532 17.5,-5.37769 z m 37.95676,-12.22152 c 1.76019,-0.90421 5.67534,-3.54614 8.70034,-5.87095 3.025,-2.32481 6.54858,-4.4773 7.83019,-4.78333 3.26343,-0.77924 9.40935,1.60353 16.34224,6.33587 l 5.9087,4.03325 1.88611,-4.28541 c 3.40698,-7.74096 3.47874,-9.28944 0.5377,-11.60286 -5.57788,-4.38756 -18.88382,-3.86249 -36.56148,1.44276 l -8.94346,2.68403 0,6.84533 c 0,3.76493 0.24735,6.84533 0.54966,6.84533 0.30231,0 1.98981,-0.73981 3.75,-1.64402 z"
         id="path4530"
         inkscape:connector-curvature="0" />
    </g>
  </g>
</svg>
